<svg viewBox="0 0 48.6185 48" xmlns="http://www.w3.org/2000/svg" xmlns:xlink="http://www.w3.org/1999/xlink" width="48.618530" height="48.000000" fill="none">
    <rect id="svg" width="48.618561" height="48.000000" x="0.000000" y="0.000000" />
    <path id="path" d="M39.2651 33.2578C39.2651 34.2188 38.4722 35.0016 37.4989 35.0016L11.0008 35.0016C10.0275 35.0016 9.23462 34.2188 9.23462 33.2578L9.23462 18.4313C9.23462 17.4703 10.0275 16.6875 11.0008 16.6875L37.4989 16.6875C38.4722 16.6875 39.2651 17.4703 39.2651 18.4313L39.2651 33.2578Z" fill="rgb(231,76,60)" fill-rule="nonzero" />
    <path id="path" d="M20.7151 25.8469C20.715 26.0325 20.7241 26.2178 20.7425 26.4025C20.7608 26.5873 20.7883 26.7708 20.8249 26.9529C20.8615 27.135 20.9071 27.3149 20.9616 27.4926C21.0161 27.6703 21.0793 27.8449 21.1512 28.0165C21.2231 28.188 21.3034 28.3557 21.392 28.5195C21.4806 28.6832 21.5771 28.8423 21.6815 28.9967C21.7859 29.1511 21.8978 29.3001 22.0171 29.4437C22.1363 29.5872 22.2624 29.7247 22.3954 29.856C22.5283 29.9873 22.6675 30.1119 22.8128 30.2297C22.9581 30.3475 23.109 30.458 23.2653 30.5612C23.4217 30.6643 23.5828 30.7597 23.7486 30.8473C23.9145 30.9348 24.0842 31.0141 24.258 31.0852C24.4317 31.1563 24.6086 31.2187 24.7885 31.2727C24.9685 31.3266 25.1507 31.3716 25.3351 31.4079C25.5195 31.4441 25.7053 31.4713 25.8925 31.4895C26.0796 31.5077 26.2673 31.5168 26.4553 31.5168C26.6434 31.5168 26.831 31.5077 27.0181 31.4895C27.2053 31.4713 27.3911 31.4441 27.5755 31.4079C27.76 31.3716 27.9422 31.3266 28.1221 31.2727C28.3021 31.2187 28.4789 31.1563 28.6526 31.0852C28.8264 31.0141 28.9962 30.9348 29.162 30.8473C29.3278 30.7597 29.4889 30.6643 29.6453 30.5612C29.8016 30.458 29.9525 30.3475 30.0978 30.2297C30.2432 30.1119 30.3823 29.9873 30.5152 29.856C30.6482 29.7247 30.7743 29.5872 30.8936 29.4437C31.0128 29.3001 31.1247 29.1511 31.2291 28.9967C31.3335 28.8423 31.43 28.6832 31.5186 28.5195C31.6072 28.3557 31.6875 28.188 31.7594 28.0165C31.8313 27.8449 31.8945 27.6703 31.949 27.4926C32.0035 27.3149 32.0491 27.135 32.0857 26.9529C32.1223 26.7708 32.1498 26.5873 32.1681 26.4025C32.1865 26.2178 32.1956 26.0325 32.1955 25.8469C32.1957 25.6612 32.1866 25.4759 32.1682 25.2911C32.1499 25.1063 32.1225 24.9229 32.0859 24.7407C32.0493 24.5586 32.0038 24.3786 31.9493 24.2009C31.8948 24.0232 31.8316 23.8485 31.7597 23.6769C31.6878 23.5054 31.6076 23.3377 31.519 23.1738C31.4304 23.01 31.3339 22.8509 31.2295 22.6965C31.1251 22.542 31.0132 22.393 30.894 22.2494C30.7747 22.1059 30.6486 21.9684 30.5157 21.837C30.3827 21.7057 30.2436 21.5811 30.0982 21.4633C29.9529 21.3454 29.802 21.2349 29.6456 21.1317C29.4893 21.0285 29.3282 20.9331 29.1623 20.8455C28.9965 20.758 28.8267 20.6786 28.6529 20.6075C28.4792 20.5365 28.3023 20.4739 28.1223 20.42C27.9423 20.3661 27.7601 20.321 27.5757 20.2848C27.3912 20.2485 27.2054 20.2213 27.0182 20.2031C26.831 20.1849 26.6434 20.1758 26.4553 20.1758C26.2672 20.1758 26.0796 20.1849 25.8924 20.2031C25.7052 20.2213 25.5194 20.2485 25.335 20.2848C25.1505 20.321 24.9683 20.3661 24.7883 20.42C24.6083 20.4739 24.4315 20.5365 24.2577 20.6075C24.084 20.6786 23.9141 20.758 23.7483 20.8455C23.5824 20.9331 23.4213 21.0285 23.265 21.1317C23.1086 21.2349 22.9578 21.3454 22.8124 21.4633C22.6671 21.5811 22.5279 21.7057 22.395 21.837C22.262 21.9684 22.1359 22.1059 22.0166 22.2494C21.8974 22.393 21.7855 22.542 21.6811 22.6965C21.5767 22.8509 21.4802 23.01 21.3916 23.1738C21.303 23.3377 21.2228 23.5054 21.1509 23.6769C21.079 23.8485 21.0158 24.0232 20.9613 24.2009C20.9068 24.3786 20.8613 24.5586 20.8247 24.7407C20.7881 24.9229 20.7607 25.1063 20.7424 25.2911C20.7241 25.4759 20.715 25.6612 20.7151 25.8469Z" fill="rgb(205,233,227)" fill-rule="nonzero" />
    <path id="path" d="M11.865 14.0671L17.1637 14.0671L17.1637 16.6828L11.865 16.6828L11.865 14.0671Z" fill="rgb(231,76,60)" fill-rule="nonzero" />
    <path id="path" d="M12.3066 19.739L16.7222 19.739L16.7222 22.3546L12.3066 22.3546L12.3066 19.739Z" fill="rgb(205,233,227)" fill-rule="nonzero" />
    <path id="path" d="M29.2329 26.7187C28.7723 26.7187 28.383 26.3671 28.3545 25.903C28.2215 23.9109 26.4553 23.7374 26.3841 23.7327C25.8998 23.6905 25.539 23.2687 25.577 22.7906C25.6197 22.3124 26.0518 21.9562 26.5313 21.9937C27.6898 22.0921 29.9308 23.0109 30.116 25.7859C30.1492 26.2687 29.7789 26.6812 29.2946 26.714C29.2708 26.7187 29.2518 26.7187 29.2329 26.7187Z" fill="rgb(255,255,255)" fill-rule="nonzero" />
    <path id="path" d="M37.499 15.8156L18.0468 15.8156L18.0468 14.0672C18.0468 13.5844 17.6527 13.1953 17.1637 13.1953L11.865 13.1953C11.376 13.1953 10.9819 13.5844 10.9819 14.0672L10.9819 15.8156C9.52904 15.825 8.35156 16.9922 8.35156 18.4312L8.35156 33.2578C8.35156 34.7016 9.53854 35.8734 11.0009 35.8734L37.499 35.8734C38.9613 35.8734 40.1483 34.7016 40.1483 33.2578L40.1483 18.4312C40.1483 16.9922 38.9566 15.8156 37.499 15.8156ZM12.7481 14.9391L16.2806 14.9391L16.2806 15.8109L12.7481 15.8109L12.7481 14.9391ZM38.3821 33.2578C38.3821 33.7406 37.988 34.1297 37.499 34.1297L11.0009 34.1297C10.5119 34.1297 10.1178 33.7406 10.1178 33.2578L10.1178 18.4312C10.1178 17.9484 10.5119 17.5594 11.0009 17.5594L37.499 17.5594C37.988 17.5594 38.3821 17.9484 38.3821 18.4312L38.3821 33.2578Z" fill="rgb(33,31,30)" fill-rule="nonzero" />
    <path id="path" d="M26.4553 19.3032C22.8042 19.3032 19.832 22.2376 19.832 25.8423C19.832 29.447 22.8042 32.3813 26.4553 32.3813C30.1064 32.3813 33.0786 29.447 33.0786 25.8423C33.0786 22.2376 30.1064 19.3032 26.4553 19.3032ZM26.4553 30.6423C23.7775 30.6423 21.5982 28.4907 21.5982 25.847C21.5982 23.2032 23.7775 21.0517 26.4553 21.0517C29.1331 21.0517 31.3124 23.2032 31.3124 25.847C31.3124 28.4907 29.1331 30.6423 26.4553 30.6423ZM16.7221 19.3032L12.3065 19.3032C12.0644 19.3032 11.865 19.5001 11.865 19.7392L11.865 22.3595C11.865 22.5985 12.0644 22.7954 12.3065 22.7954L16.7221 22.7954C16.9642 22.7954 17.1636 22.5985 17.1636 22.3595L17.1636 19.7438C17.1636 19.5001 16.9642 19.3032 16.7221 19.3032ZM16.2805 21.9235L12.7481 21.9235L12.7481 20.1798L16.2805 20.1798L16.2805 21.9235ZM12.6436 30.8298C12.2116 30.8298 11.8602 31.1767 11.8602 31.6032C11.8602 32.0298 12.2116 32.3767 12.6436 32.3767C13.0757 32.3767 13.427 32.0298 13.427 31.6032C13.427 31.1767 13.0757 30.8298 12.6436 30.8298Z" fill="rgb(33,31,30)" fill-rule="nonzero" />
</svg>
