<svg viewBox="0 0 24 24" xmlns="http://www.w3.org/2000/svg" xmlns:xlink="http://www.w3.org/1999/xlink" width="24" height="24" fill="none">
    <rect id="svg" width="24" height="24" x="0" y="0" />
    <path id="path" d="M16.7907 7.35938L8.31104 7.35938C9.07978 8.21484 9.75713 9.15469 10.3267 10.1555C10.6032 10.3547 10.786 10.6758 10.7954 11.0391C11.6532 12.7875 12.1853 14.6906 12.3095 16.6383L16.7884 16.6383C17.4704 16.6383 18.0235 16.0852 18.0235 15.4031L18.0235 8.59453C18.0259 7.9125 17.4728 7.35938 16.7907 7.35938Z" fill="rgb(150,232,186)" fill-rule="nonzero" />
    <path id="path" d="M16.7906 7.06641L7.27495 7.06641C6.43355 7.06641 5.74683 7.75078 5.74683 8.59453L5.74683 15.4055C5.74683 16.2469 6.4312 16.9336 7.27495 16.9336L16.7906 16.9336C17.632 16.9336 18.3187 16.2492 18.3187 15.4055L18.3187 8.59453C18.3187 7.75313 17.6343 7.06641 16.7906 7.06641ZM17.7328 15.4055C17.7328 15.9258 17.3109 16.3477 16.7906 16.3477L7.27495 16.3477C6.75464 16.3477 6.33276 15.9258 6.33276 15.4055L6.33276 8.59453C6.33276 8.07422 6.75464 7.65234 7.27495 7.65234L16.7906 7.65234C17.3109 7.65234 17.7328 8.07422 17.7328 8.59453L17.7328 15.4055Z" fill="rgb(0,0,0)" fill-rule="nonzero" />
    <path id="path" d="M9.66572 12.4992C10.4509 12.4992 11.0907 11.8593 11.0907 11.0742C11.0907 10.289 10.4509 9.64917 9.66572 9.64917C8.88057 9.64917 8.24072 10.289 8.24072 11.0742C8.24072 11.8593 8.88057 12.4992 9.66572 12.4992ZM9.66572 10.2351C10.1274 10.2351 10.5048 10.6125 10.5048 11.0742C10.5048 11.5359 10.1274 11.9132 9.66572 11.9132C9.204 11.9132 8.82666 11.5359 8.82666 11.0742C8.82666 10.6125 9.204 10.2351 9.66572 10.2351ZM12.8556 11.3671L15.5298 11.3671C15.6915 11.3671 15.8228 11.2359 15.8228 11.0742C15.8228 10.9125 15.6915 10.7812 15.5298 10.7812L12.8556 10.7812C12.6938 10.7812 12.5626 10.9125 12.5626 11.0742C12.5626 11.2359 12.6938 11.3671 12.8556 11.3671ZM15.6353 13.7648L8.53369 13.7648C8.37197 13.7648 8.24072 13.896 8.24072 14.0578C8.24072 14.2195 8.37197 14.3507 8.53369 14.3507L15.6329 14.3507C15.7946 14.3507 15.9259 14.2195 15.9259 14.0578C15.9259 13.896 15.797 13.7648 15.6353 13.7648Z" fill="rgb(0,0,0)" fill-rule="nonzero" />
</svg>
