<svg viewBox="0 0 16 16" xmlns="http://www.w3.org/2000/svg" xmlns:xlink="http://www.w3.org/1999/xlink" width="16" height="16" fill="none">
    <rect id="svg 10" width="16" height="16" x="0" y="0" />
    <path id="矢量 47" d="M5.12646 7.86567C5.12646 7.96024 5.1311 8.05458 5.14037 8.14869C5.14964 8.24281 5.1635 8.33624 5.18195 8.42899C5.2004 8.52175 5.22335 8.61337 5.2508 8.70387C5.27825 8.79436 5.31007 8.8833 5.34626 8.97067C5.38245 9.05804 5.42284 9.14342 5.46742 9.22683C5.512 9.31023 5.56056 9.39125 5.6131 9.46988C5.66564 9.54851 5.7219 9.62438 5.7819 9.69748C5.84189 9.77058 5.90532 9.84057 5.97219 9.90744C6.03906 9.97431 6.10905 10.0377 6.18215 10.0977C6.25526 10.1577 6.33112 10.214 6.40976 10.2665C6.48839 10.3191 6.5694 10.3676 6.65281 10.4122C6.73621 10.4568 6.8216 10.4972 6.90897 10.5334C6.99634 10.5696 7.08527 10.6014 7.17577 10.6288C7.26626 10.6563 7.35789 10.6792 7.45064 10.6977C7.54339 10.7161 7.63683 10.73 7.73094 10.7393C7.82505 10.7485 7.9194 10.7532 8.01396 10.7532C8.10853 10.7532 8.20288 10.7485 8.29699 10.7393C8.3911 10.73 8.48454 10.7161 8.57729 10.6977C8.67004 10.6792 8.76166 10.6563 8.85216 10.6288C8.94266 10.6014 9.03159 10.5696 9.11896 10.5334C9.20633 10.4972 9.29172 10.4568 9.37512 10.4122C9.45852 10.3676 9.53954 10.3191 9.61817 10.2665C9.69681 10.214 9.77267 10.1577 9.84578 10.0977C9.91888 10.0377 9.98886 9.97431 10.0557 9.90744C10.1226 9.84057 10.186 9.77058 10.246 9.69748C10.306 9.62438 10.3623 9.54851 10.4148 9.46988C10.4674 9.39125 10.5159 9.31023 10.5605 9.22683C10.6051 9.14342 10.6455 9.05804 10.6817 8.97067C10.7179 8.8833 10.7497 8.79436 10.7771 8.70387C10.8046 8.61337 10.8275 8.52175 10.846 8.42899C10.8644 8.33624 10.8783 8.24281 10.8876 8.14869C10.8968 8.05458 10.9015 7.96024 10.9015 7.86567C10.9015 7.77108 10.8969 7.67672 10.8877 7.58258C10.8784 7.48844 10.8646 7.39498 10.8462 7.30221C10.8277 7.20943 10.8048 7.11778 10.7774 7.02725C10.7499 6.93673 10.7181 6.84776 10.682 6.76037C10.6458 6.67297 10.6054 6.58755 10.5608 6.50412C10.5163 6.42069 10.4677 6.33964 10.4152 6.26098C10.3626 6.18232 10.3064 6.10643 10.2464 6.0333C10.1864 5.96017 10.123 5.89015 10.0561 5.82325C9.98921 5.75636 9.91922 5.6929 9.84611 5.63288C9.773 5.57286 9.69713 5.51657 9.61848 5.46401C9.53984 5.41145 9.45881 5.36287 9.3754 5.31827C9.29198 5.27367 9.20658 5.23327 9.11919 5.19707C9.03181 5.16086 8.94286 5.12903 8.85234 5.10156C8.76183 5.0741 8.67018 5.05114 8.57741 5.03268C8.48464 5.01422 8.39119 5.00036 8.29705 4.99108C8.20292 4.98181 8.10855 4.97717 8.01396 4.97717C7.91937 4.97717 7.82501 4.98181 7.73088 4.99108C7.63674 5.00036 7.54329 5.01422 7.45052 5.03268C7.35775 5.05114 7.2661 5.0741 7.17559 5.10156C7.08507 5.12903 6.99612 5.16086 6.90874 5.19707C6.82135 5.23327 6.73595 5.27367 6.65253 5.31827C6.56912 5.36287 6.48809 5.41145 6.40944 5.46401C6.3308 5.51657 6.25493 5.57286 6.18182 5.63288C6.10871 5.6929 6.03871 5.75636 5.97184 5.82325C5.90497 5.89015 5.84153 5.96017 5.78154 6.0333C5.72155 6.10643 5.66528 6.18232 5.61275 6.26098C5.56022 6.33964 5.51166 6.42069 5.46709 6.50412C5.42252 6.58755 5.38215 6.67297 5.34598 6.76037C5.3098 6.84776 5.278 6.93673 5.25056 7.02725C5.22313 7.11778 5.2002 7.20943 5.18178 7.30221C5.16335 7.39498 5.14952 7.48844 5.14028 7.58258C5.13104 7.67672 5.12643 7.77108 5.12647 7.86567L5.12646 7.86567Z" fill="rgb(254,201,99)" fill-rule="nonzero" />
    <path id="矢量 48" d="M7.99995 1.23901C4.27183 1.23901 1.23901 4.27183 1.23901 7.99995C1.23901 11.7281 4.27183 14.7609 7.99995 14.7609C11.7281 14.7609 14.7609 11.7281 14.7609 7.99995C14.7609 4.27183 11.7281 1.23901 7.99995 1.23901ZM7.99995 13.5968C4.91401 13.5968 2.40308 11.0859 2.40308 7.99995C2.40308 4.91401 4.91401 2.40308 7.99995 2.40308C11.0859 2.40308 13.5968 4.91401 13.5968 7.99995C13.5968 11.0859 11.0859 13.5968 7.99995 13.5968Z" fill="rgb(35,32,45)" fill-rule="nonzero" />
    <path id="矢量 49" d="M11.7766 7.30469L8.57031 7.30469L8.57031 3.81562C8.57031 3.49375 8.30937 3.23438 7.98906 3.23438C7.66875 3.23438 7.40625 3.49375 7.40625 3.81562L7.40625 7.8875C7.40625 8.20937 7.66719 8.46875 7.9875 8.46875L11.7766 8.46875C12.0984 8.46875 12.3578 8.20781 12.3578 7.8875C12.3578 7.56719 12.0984 7.30469 11.7766 7.30469Z" fill="rgb(35,32,45)" fill-rule="nonzero" />
</svg>
