<svg viewBox="0 0 128 128" xmlns="http://www.w3.org/2000/svg" xmlns:xlink="http://www.w3.org/1999/xlink" width="128" height="128" fill="none">
    <rect id="svg 3" width="128" height="128" x="0" y="0" />
    <path id="矢量 27" d="M90.0694 31.7582C88.652 31.2842 87.5 30.4474 86.6134 29.248L81.1379 21.8667C76.8807 16.1067 71.1681 13.2267 64.0001 13.2267C56.8368 13.2267 51.1243 16.1067 46.8623 21.8667L41.3868 29.248C40.5003 30.4474 39.3483 31.2842 37.9308 31.7582L29.2197 34.6738C22.4309 36.9494 17.9272 41.4957 15.7085 48.3129C13.4994 55.1254 14.4712 61.4495 18.6241 67.2854L23.9574 74.7662C24.825 75.9799 25.2659 77.331 25.2801 78.8196L25.3654 88.0142C25.4318 95.1775 28.3616 100.866 34.1548 105.081C39.9527 109.291 46.2674 110.319 53.0988 108.167L61.8668 105.408C63.289 104.958 64.7112 104.958 66.1334 105.408L74.9014 108.167C81.7328 110.319 88.0475 109.288 93.8454 105.074C99.6386 100.864 102.568 95.1751 102.635 88.0071L102.72 78.8267C102.734 77.3333 103.175 75.9799 104.043 74.7662L109.376 67.2853C113.529 61.4495 114.501 55.1253 112.292 48.3129C110.073 41.4957 105.569 36.9493 98.7806 34.6738L90.0694 31.7582L90.0694 31.7582ZM69.7174 30.3289L75.1859 37.7102C77.8502 41.3085 81.3038 43.8187 85.5468 45.2409L94.2579 48.1565C96.524 48.915 98.0244 50.432 98.7592 52.7076C99.4988 54.9784 99.1764 57.0857 97.7921 59.0294L92.4588 66.5102C89.8609 70.1606 88.5406 74.2234 88.4979 78.6987L88.4126 87.8791C88.3936 90.2685 87.417 92.1648 85.4828 93.568C83.5533 94.9713 81.4484 95.315 79.1681 94.5991L70.4072 91.84C66.1358 90.4984 61.8644 90.4984 57.593 91.84L48.8321 94.5991C46.5565 95.315 44.4517 94.9713 42.5174 93.568C40.5832 92.1648 39.6066 90.2685 39.5877 87.8791L39.5023 78.6987C39.4597 74.2187 38.1394 70.1559 35.5414 66.5102L30.2081 59.0294C28.8238 57.0857 28.5014 54.976 29.241 52.7005C29.9758 50.4344 31.4763 48.9221 33.7423 48.1636L42.4534 45.2409C46.6964 43.8187 50.15 41.3085 52.8143 37.7102L58.2899 30.3289C59.7121 28.4089 61.6155 27.4489 64.0001 27.4489C66.3894 27.4489 68.2952 28.4089 69.7174 30.3289L69.7174 30.3289Z" fill="rgb(0,0,0)" fill-rule="nonzero" />
</svg>
