<svg viewBox="0 0 24 24" xmlns="http://www.w3.org/2000/svg" xmlns:xlink="http://www.w3.org/1999/xlink" width="24.000000" height="24.000000" fill="none">
	<rect id="svg" width="24.000000" height="24.000000" x="0.000000" y="0.000000" />
	<path id="path" d="M6.88051 11.409C6.75001 12.375 6.75001 13.563 6.75001 14.8575L6.75001 17.0925C6.75001 17.3895 6.75001 17.5365 6.65401 17.6265C6.55801 17.715 6.41401 17.7045 6.12601 17.6835C5.88829 17.6667 5.65129 17.6427 5.41501 17.6115C4.45501 17.4825 3.65851 17.223 2.98651 16.671C2.74548 16.4736 2.52598 16.2546 2.32801 16.014C1.74601 15.3045 1.49101 14.4555 1.36801 13.425C1.24951 12.42 1.24951 11.151 1.24951 9.54901L1.24951 9.45151C1.24951 7.84951 1.24951 6.57901 1.36951 5.57551C1.48951 4.54351 1.74601 3.69601 2.32951 2.98651C2.52451 2.74651 2.74651 2.52601 2.98651 2.32801C3.69601 1.74601 4.54501 1.49101 5.57551 1.36801C6.58051 1.24951 7.84951 1.24951 9.45001 1.24951L9.54751 1.24951C11.1495 1.24951 12.4185 1.24951 13.4235 1.36951C14.454 1.48951 15.303 1.74601 16.0125 2.32951C16.2525 2.52451 16.473 2.74651 16.6695 2.98651C17.2215 3.65851 17.4795 4.45651 17.61 5.41651C17.64 5.63851 17.664 5.87551 17.682 6.12601C17.703 6.41401 17.7135 6.55801 17.625 6.65401C17.535 6.75001 17.388 6.75001 17.091 6.75001L14.856 6.75001C13.5615 6.75001 12.375 6.75001 11.406 6.88051C10.341 7.02301 9.21301 7.36051 8.28601 8.28751C7.35901 9.21451 7.02301 10.344 6.88051 11.409Z" fill="rgb(51,51,51)" fill-rule="nonzero" />
	<path id="path" d="M11.721 10.1745C11.7839 10.1663 11.8453 10.1519 11.9054 10.1315C11.9655 10.1112 12.023 10.0851 12.0779 10.0534C12.1328 10.0217 12.1841 9.98493 12.2318 9.94312C12.2795 9.9013 12.3227 9.85523 12.3613 9.80491C12.3999 9.7546 12.4332 9.70099 12.4613 9.64411C12.4894 9.58722 12.5116 9.52815 12.528 9.46688C12.5445 9.40562 12.5547 9.34334 12.5589 9.28005C12.563 9.21675 12.561 9.15366 12.5527 9.09078C12.5444 9.02789 12.5301 8.96642 12.5097 8.90635C12.4893 8.84629 12.4633 8.78879 12.4316 8.73385C12.3999 8.67892 12.3631 8.62761 12.3213 8.57992C12.2795 8.53222 12.2334 8.48907 12.1831 8.45045C12.1328 8.41183 12.0792 8.37849 12.0223 8.35044C11.9654 8.32238 11.9063 8.30014 11.8451 8.28371C11.7838 8.26729 11.7215 8.257 11.6582 8.25285C11.5949 8.24869 11.5319 8.25075 11.469 8.25903C10.659 8.36403 9.93597 8.58003 9.33297 9.07653C8.71797 9.58053 8.41797 10.224 8.26797 10.959C8.25542 11.0213 8.24906 11.0842 8.2489 11.1477C8.24875 11.2112 8.25479 11.2741 8.26703 11.3365C8.27927 11.3988 8.29748 11.4593 8.32164 11.518C8.34581 11.5768 8.37548 11.6326 8.41065 11.6855C8.44582 11.7384 8.48581 11.7873 8.53062 11.8323C8.57544 11.8773 8.62421 11.9176 8.67695 11.953C8.72968 11.9883 8.78537 12.0183 8.844 12.0427C8.90263 12.0671 8.96308 12.0856 9.02535 12.0981C9.08762 12.1106 9.15051 12.1169 9.21403 12.117C9.27754 12.1172 9.34046 12.1111 9.40278 12.0988C9.4651 12.0865 9.52561 12.0683 9.58434 12.0441C9.64306 12.0199 9.69886 11.9902 9.75173 11.955C9.80459 11.9198 9.85352 11.8798 9.8985 11.8349C9.94349 11.7901 9.98366 11.7413 10.019 11.6885C10.0544 11.6358 10.0843 11.5801 10.1087 11.5214C10.1331 11.4628 10.1515 11.4023 10.164 11.34C10.2495 10.9155 10.3785 10.719 10.5615 10.569C10.7685 10.398 11.085 10.2585 11.721 10.1745ZM19.53 8.25903C19.4666 8.24984 19.403 8.24698 19.3391 8.25043C19.2752 8.25389 19.2123 8.26361 19.1503 8.27957C19.0883 8.29554 19.0285 8.31745 18.9709 8.3453C18.9133 8.37315 18.859 8.4064 18.808 8.44505C18.7569 8.4837 18.7102 8.52698 18.6678 8.57491C18.6254 8.62284 18.5881 8.67448 18.556 8.72982C18.5239 8.78516 18.4975 8.84312 18.4768 8.9037C18.4562 8.96428 18.4418 9.0263 18.4335 9.08976C18.4252 9.15322 18.4232 9.21687 18.4275 9.28072C18.4319 9.34457 18.4425 9.40737 18.4593 9.46911C18.4762 9.53086 18.4989 9.59034 18.5276 9.64756C18.5562 9.70479 18.5902 9.75863 18.6296 9.8091C18.6689 9.85956 18.7129 9.90566 18.7614 9.94739C18.8099 9.98912 18.8621 10.0257 18.9178 10.057C18.9736 10.0884 19.032 10.114 19.0928 10.1338C19.1537 10.1535 19.2159 10.1671 19.2795 10.1745C19.9155 10.2585 20.232 10.3995 20.439 10.569C20.622 10.719 20.751 10.9155 20.835 11.34C20.8475 11.4022 20.866 11.4626 20.8904 11.5212C20.9149 11.5798 20.9448 11.6354 20.9802 11.6881C21.0156 11.7408 21.0558 11.7895 21.1007 11.8342C21.1457 11.879 21.1946 11.919 21.2475 11.9541C21.3003 11.9892 21.3561 12.0189 21.4148 12.043C21.4735 12.0672 21.5339 12.0854 21.5962 12.0976C21.6585 12.1099 21.7214 12.116 21.7848 12.1158C21.8483 12.1157 21.9111 12.1094 21.9733 12.0969C22.0356 12.0844 22.096 12.0659 22.1545 12.0415C22.2131 12.0171 22.2688 11.9873 22.3215 11.9519C22.3742 11.9165 22.4229 11.8764 22.4677 11.8314C22.5125 11.7865 22.5525 11.7376 22.5877 11.6848C22.6229 11.632 22.6526 11.5762 22.6768 11.5175C22.7009 11.4589 22.7192 11.3984 22.7315 11.3361C22.7438 11.2739 22.7499 11.211 22.7498 11.1476C22.7497 11.0841 22.7434 11.0213 22.731 10.959C22.584 10.224 22.281 9.58053 21.666 9.07653C21.0645 8.58153 20.34 8.36403 19.53 8.25903ZM14.0505 8.25003C13.987 8.25003 13.9241 8.25622 13.8619 8.2686C13.7996 8.28099 13.7392 8.29932 13.6805 8.32362C13.6219 8.34791 13.5661 8.37769 13.5134 8.41295C13.4606 8.44822 13.4118 8.4883 13.3669 8.53318C13.322 8.57807 13.2819 8.6269 13.2466 8.67968C13.2114 8.73246 13.1816 8.78817 13.1573 8.84682C13.133 8.90546 13.1147 8.96592 13.1023 9.02817C13.0899 9.09043 13.0837 9.1533 13.0837 9.21678C13.0837 9.28026 13.0899 9.34312 13.1023 9.40538C13.1147 9.46764 13.133 9.52809 13.1573 9.58674C13.1816 9.64538 13.2114 9.70109 13.2466 9.75387C13.2819 9.80665 13.322 9.85549 13.3669 9.90037C13.4118 9.94526 13.4606 9.98533 13.5134 10.0206C13.5661 10.0559 13.6219 10.0856 13.6805 10.1099C13.7392 10.1342 13.7996 10.1526 13.8619 10.165C13.9241 10.1773 13.987 10.1835 14.0505 10.1835L16.95 10.1835C17.0134 10.1835 17.0763 10.1773 17.1386 10.165C17.2008 10.1526 17.2613 10.1342 17.3199 10.1099C17.3786 10.0856 17.4343 10.0559 17.4871 10.0206C17.5398 9.98533 17.5887 9.94526 17.6336 9.90037C17.6784 9.85549 17.7185 9.80665 17.7538 9.75387C17.7891 9.70109 17.8188 9.64538 17.8431 9.58674C17.8674 9.52809 17.8858 9.46764 17.8981 9.40538C17.9105 9.34312 17.9167 9.28026 17.9167 9.21678C17.9167 9.1533 17.9105 9.09043 17.8981 9.02817C17.8858 8.96592 17.8674 8.90546 17.8431 8.84682C17.8188 8.78817 17.7891 8.73246 17.7538 8.67968C17.7185 8.6269 17.6784 8.57807 17.6336 8.53318C17.5887 8.4883 17.5398 8.44822 17.4871 8.41295C17.4343 8.37769 17.3786 8.34791 17.3199 8.32362C17.2613 8.29932 17.2008 8.28099 17.1386 8.2686C17.0763 8.25622 17.0134 8.25003 16.95 8.25003L14.0505 8.25003ZM10.1835 14.0505C10.1835 13.987 10.1773 13.9242 10.1649 13.8619C10.1525 13.7997 10.1342 13.7392 10.1099 13.6806C10.0856 13.6219 10.0558 13.5662 10.0205 13.5134C9.98527 13.4606 9.9452 13.4118 9.90031 13.3669C9.85543 13.322 9.80659 13.282 9.75381 13.2467C9.70103 13.2114 9.64532 13.1817 9.58668 13.1574C9.52803 13.1331 9.46758 13.1147 9.40532 13.1024C9.34306 13.09 9.28019 13.0838 9.21672 13.0838C9.15324 13.0838 9.09037 13.09 9.02811 13.1024C8.96585 13.1147 8.9054 13.1331 8.84676 13.1574C8.78811 13.1817 8.7324 13.2114 8.67962 13.2467C8.62684 13.282 8.57801 13.322 8.53312 13.3669C8.48824 13.4118 8.44816 13.4606 8.41289 13.5134C8.37763 13.5662 8.34785 13.6219 8.32356 13.6806C8.29926 13.7392 8.28093 13.7997 8.26854 13.8619C8.25616 13.9242 8.24997 13.987 8.24997 14.0505L8.24997 16.95C8.24997 17.0135 8.25616 17.0764 8.26854 17.1386C8.28093 17.2009 8.29926 17.2613 8.32356 17.32C8.34785 17.3786 8.37763 17.4343 8.41289 17.4871C8.44816 17.5399 8.48824 17.5887 8.53312 17.6336C8.57801 17.6785 8.62684 17.7186 8.67962 17.7538C8.7324 17.7891 8.78811 17.8189 8.84676 17.8432C8.9054 17.8675 8.96585 17.8858 9.02811 17.8982C9.09037 17.9106 9.15324 17.9168 9.21672 17.9168C9.28019 17.9168 9.34306 17.9106 9.40532 17.8982C9.46758 17.8858 9.52803 17.8675 9.58668 17.8432C9.64532 17.8189 9.70103 17.7891 9.75381 17.7538C9.80659 17.7186 9.85543 17.6785 9.90031 17.6336C9.9452 17.5887 9.98527 17.5399 10.0205 17.4871C10.0558 17.4343 10.0856 17.3786 10.1099 17.32C10.1342 17.2613 10.1525 17.2009 10.1649 17.1386C10.1773 17.0764 10.1835 17.0135 10.1835 16.95L10.1835 14.0505ZM22.7505 14.0505C22.7505 13.987 22.7443 13.9241 22.7319 13.8618C22.7195 13.7995 22.7011 13.739 22.6768 13.6803C22.6525 13.6216 22.6227 13.5658 22.5874 13.513C22.5521 13.4602 22.512 13.4113 22.4671 13.3664C22.4222 13.3215 22.3733 13.2814 22.3205 13.2461C22.2677 13.2108 22.2119 13.181 22.1532 13.1567C22.0945 13.1324 22.034 13.114 21.9717 13.1016C21.9094 13.0892 21.8465 13.083 21.783 13.083C21.7194 13.083 21.6565 13.0892 21.5942 13.1016C21.5319 13.114 21.4714 13.1324 21.4127 13.1567C21.354 13.181 21.2983 13.2108 21.2454 13.2461C21.1926 13.2814 21.1438 13.3215 21.0988 13.3664C21.0539 13.4113 21.0138 13.4602 20.9785 13.513C20.9432 13.5658 20.9134 13.6216 20.8891 13.6803C20.8648 13.739 20.8464 13.7995 20.8341 13.8618C20.8217 13.9241 20.8155 13.987 20.8155 14.0505L20.8155 16.95C20.8155 17.0136 20.8217 17.0765 20.8341 17.1388C20.8464 17.2011 20.8648 17.2616 20.8891 17.3203C20.9134 17.379 20.9432 17.4347 20.9785 17.4875C21.0138 17.5404 21.0539 17.5892 21.0988 17.6342C21.1438 17.6791 21.1926 17.7192 21.2454 17.7545C21.2983 17.7898 21.354 17.8196 21.4127 17.8439C21.4714 17.8682 21.5319 17.8865 21.5942 17.8989C21.6565 17.9113 21.7194 17.9175 21.783 17.9175C21.8465 17.9175 21.9094 17.9113 21.9717 17.8989C22.034 17.8865 22.0945 17.8682 22.1532 17.8439C22.2119 17.8196 22.2677 17.7898 22.3205 17.7545C22.3733 17.7192 22.4222 17.6791 22.4671 17.6342C22.512 17.5892 22.5521 17.5404 22.5874 17.4875C22.6227 17.4347 22.6525 17.379 22.6768 17.3203C22.7011 17.2616 22.7195 17.2011 22.7319 17.1388C22.7443 17.0765 22.7505 17.0136 22.7505 16.95L22.7505 14.0505ZM10.164 19.659C10.1488 19.5995 10.1281 19.542 10.1019 19.4864C10.0758 19.4308 10.0446 19.3782 10.0084 19.3285C9.97224 19.2789 9.93169 19.2331 9.88679 19.1912C9.84189 19.1493 9.79343 19.112 9.74142 19.0793C9.68941 19.0466 9.63479 19.0191 9.57754 18.9968C9.5203 18.9745 9.46146 18.9578 9.40104 18.9468C9.34062 18.9357 9.27969 18.9304 9.21827 18.9309C9.15684 18.9314 9.09601 18.9378 9.03579 18.9499C8.97556 18.962 8.91702 18.9797 8.86017 19.0029C8.80331 19.0262 8.74916 19.0546 8.69772 19.0882C8.64628 19.1218 8.59847 19.1599 8.55429 19.2026C8.51011 19.2453 8.47036 19.2917 8.43503 19.342C8.39971 19.3922 8.36944 19.4454 8.34423 19.5014C8.31903 19.5574 8.29934 19.6153 8.28516 19.6751C8.27098 19.7349 8.26257 19.7954 8.25994 19.8568C8.2573 19.9182 8.26047 19.9793 8.26947 20.04C8.41647 20.775 8.71947 21.42 9.33447 21.924C9.93447 22.419 10.659 22.635 11.469 22.7415C11.5319 22.7498 11.595 22.7519 11.6584 22.7477C11.7217 22.7435 11.784 22.7332 11.8454 22.7168C11.9067 22.7003 11.9658 22.6781 12.0227 22.65C12.0796 22.6219 12.1333 22.5885 12.1836 22.5499C12.234 22.5112 12.2801 22.468 12.3219 22.4203C12.3638 22.3726 12.4006 22.3212 12.4323 22.2662C12.464 22.2113 12.4901 22.1537 12.5105 22.0936C12.5309 22.0335 12.5452 21.972 12.5535 21.909C12.5617 21.8461 12.5638 21.783 12.5596 21.7196C12.5555 21.6563 12.5452 21.5939 12.5287 21.5326C12.5123 21.4713 12.49 21.4122 12.4619 21.3553C12.4338 21.2984 12.4005 21.2447 12.3618 21.1944C12.3232 21.144 12.28 21.0979 12.2322 21.0561C12.1845 21.0142 12.1332 20.9774 12.0782 20.9457C12.0232 20.914 11.9657 20.8879 11.9055 20.8675C11.8454 20.8471 11.7839 20.8328 11.721 20.8245C11.085 20.742 10.7685 20.6025 10.5615 20.4315C10.3785 20.2815 10.2495 20.085 10.164 19.659ZM22.731 20.04C22.7435 19.9778 22.7499 19.9149 22.75 19.8514C22.7502 19.7878 22.7442 19.7249 22.7319 19.6626C22.7197 19.6003 22.7015 19.5397 22.6773 19.481C22.6532 19.4222 22.6235 19.3664 22.5883 19.3135C22.5532 19.2606 22.5132 19.2117 22.4683 19.1667C22.4235 19.1216 22.3748 19.0814 22.322 19.046C22.2693 19.0106 22.2136 18.9807 22.155 18.9563C22.0963 18.9319 22.0359 18.9134 21.9736 18.9009C21.9113 18.8884 21.8484 18.882 21.7849 18.8819C21.7214 18.8818 21.6585 18.8879 21.5961 18.9002C21.5338 18.9124 21.4733 18.9307 21.4146 18.9549C21.3559 18.9791 21.3001 19.0088 21.2472 19.044C21.1943 19.0792 21.1454 19.1192 21.1004 19.1641C21.0554 19.2089 21.0152 19.2577 20.9799 19.3105C20.9445 19.3633 20.9146 19.419 20.8903 19.4776C20.8659 19.5363 20.8474 19.5967 20.835 19.659C20.751 20.085 20.622 20.2815 20.439 20.4315C20.232 20.6025 19.914 20.742 19.2795 20.8245C19.2165 20.8328 19.155 20.847 19.0949 20.8674C19.0348 20.8877 18.9772 20.9137 18.9222 20.9454C18.8672 20.9771 18.8158 21.0138 18.7681 21.0556C18.7203 21.0975 18.6771 21.1435 18.6384 21.1938C18.5997 21.2441 18.5663 21.2978 18.5382 21.3547C18.51 21.4116 18.4877 21.4706 18.4712 21.5319C18.4548 21.5932 18.4444 21.6555 18.4402 21.7189C18.436 21.7822 18.438 21.8453 18.4462 21.9083C18.4544 21.9712 18.4687 22.0327 18.4891 22.0929C18.5094 22.153 18.5354 22.2105 18.5671 22.2655C18.5988 22.3205 18.6355 22.3719 18.6773 22.4197C18.7191 22.4674 18.7652 22.5107 18.8155 22.5494C18.8658 22.588 18.9194 22.6214 18.9763 22.6496C19.0332 22.6777 19.0923 22.7 19.1536 22.7165C19.2149 22.733 19.2772 22.7433 19.3406 22.7475C19.4039 22.7518 19.467 22.7498 19.53 22.7415C20.34 22.6365 21.0645 22.4205 21.6675 21.924C22.281 21.4185 22.5825 20.7765 22.731 20.04ZM14.0505 20.817C13.987 20.817 13.9241 20.8232 13.8619 20.8356C13.7996 20.848 13.7392 20.8663 13.6805 20.8906C13.6219 20.9149 13.5661 20.9447 13.5134 20.98C13.4606 21.0152 13.4118 21.0553 13.3669 21.1002C13.322 21.1451 13.2819 21.1939 13.2466 21.2467C13.2114 21.2995 13.1816 21.3552 13.1573 21.4138C13.133 21.4725 13.1147 21.5329 13.1023 21.5952C13.0899 21.6574 13.0837 21.7203 13.0837 21.7838C13.0837 21.8473 13.0899 21.9101 13.1023 21.9724C13.1147 22.0346 13.133 22.0951 13.1573 22.1537C13.1816 22.2124 13.2114 22.2681 13.2466 22.3209C13.2819 22.3737 13.322 22.4225 13.3669 22.4674C13.4118 22.5123 13.4606 22.5523 13.5134 22.5876C13.5661 22.6229 13.6219 22.6526 13.6805 22.6769C13.7392 22.7012 13.7996 22.7196 13.8619 22.732C13.9241 22.7443 13.987 22.7505 14.0505 22.7505L16.95 22.7505C17.0135 22.7505 17.0764 22.7443 17.1387 22.7319C17.201 22.7195 17.2615 22.7012 17.3202 22.6769C17.3789 22.6526 17.4347 22.6228 17.4875 22.5875C17.5403 22.5522 17.5892 22.5121 17.6341 22.4672C17.679 22.4222 17.7191 22.3734 17.7544 22.3205C17.7897 22.2677 17.8195 22.212 17.8438 22.1533C17.8681 22.0946 17.8865 22.0341 17.8989 21.9718C17.9113 21.9095 17.9175 21.8466 17.9175 21.783C17.9175 21.7195 17.9113 21.6566 17.8989 21.5943C17.8865 21.532 17.8681 21.4715 17.8438 21.4128C17.8195 21.3541 17.7897 21.2983 17.7544 21.2455C17.7191 21.1927 17.679 21.1438 17.6341 21.0989C17.5892 21.054 17.5403 21.0139 17.4875 20.9786C17.4347 20.9433 17.3789 20.9135 17.3202 20.8892C17.2615 20.8649 17.201 20.8465 17.1387 20.8341C17.0764 20.8217 17.0135 20.8155 16.95 20.8155L14.0505 20.817Z" fill="rgb(51,51,51)" fill-rule="nonzero" />
</svg>
