<svg viewBox="0 0 24 24" xmlns="http://www.w3.org/2000/svg" xmlns:xlink="http://www.w3.org/1999/xlink" width="24.000000" height="24.000000" fill="none">
	<rect id="svg" width="24.000000" height="24.000000" x="0.000000" y="0.000000" />
	<path id="path" d="M0.114289 12C0.114289 12.1945 0.119061 12.3889 0.128606 12.5832C0.138151 12.7775 0.152456 12.9714 0.171522 13.165C0.190588 13.3586 0.214392 13.5516 0.242934 13.744C0.271476 13.9364 0.304721 14.128 0.34267 14.3188C0.380618 14.5095 0.423225 14.6993 0.470489 14.888C0.517753 15.0767 0.569618 15.2641 0.626084 15.4502C0.68255 15.6364 0.743548 15.821 0.80908 16.0041C0.874611 16.1873 0.944596 16.3687 1.01904 16.5484C1.09347 16.7281 1.17228 16.9059 1.25545 17.0818C1.33861 17.2576 1.42604 17.4313 1.51774 17.6029C1.60943 17.7744 1.70528 17.9436 1.80529 18.1104C1.90529 18.2773 2.00932 18.4416 2.11739 18.6033C2.22546 18.7651 2.33743 18.924 2.45331 19.0803C2.56918 19.2365 2.68882 19.3898 2.81222 19.5402C2.93562 19.6906 3.06264 19.8378 3.19327 19.9819C3.3239 20.1261 3.45799 20.2669 3.59553 20.4044C3.73308 20.542 3.87392 20.6761 4.01805 20.8067C4.16217 20.9373 4.30942 21.0644 4.45979 21.1878C4.61015 21.3112 4.76345 21.4308 4.91969 21.5467C5.07593 21.6625 5.23492 21.7745 5.39665 21.8826C5.55839 21.9907 5.72268 22.0947 5.88952 22.1947C6.05637 22.2947 6.22557 22.3905 6.39712 22.4822C6.56867 22.5739 6.74236 22.6614 6.91821 22.7445C7.09405 22.8277 7.27182 22.9065 7.45154 22.9809C7.63125 23.0554 7.81268 23.1254 7.99583 23.1909C8.17897 23.2564 8.36362 23.3174 8.54976 23.3739C8.7359 23.4304 8.92332 23.4822 9.11201 23.5295C9.3007 23.5767 9.49043 23.6194 9.68121 23.6573C9.87199 23.6953 10.0636 23.7285 10.256 23.757C10.4484 23.7856 10.6414 23.8094 10.835 23.8285C11.0286 23.8475 11.2225 23.8618 11.4168 23.8714C11.6111 23.8809 11.8055 23.8857 12 23.8857C12.1945 23.8857 12.3889 23.8809 12.5832 23.8714C12.7775 23.8618 12.9714 23.8475 13.165 23.8285C13.3586 23.8094 13.5516 23.7856 13.744 23.757C13.9364 23.7285 14.128 23.6953 14.3188 23.6573C14.5096 23.6194 14.6993 23.5768 14.888 23.5295C15.0767 23.4822 15.2641 23.4304 15.4502 23.3739C15.6364 23.3174 15.821 23.2564 16.0042 23.1909C16.1873 23.1254 16.3688 23.0554 16.5485 22.9809C16.7282 22.9065 16.906 22.8277 17.0818 22.7445C17.2576 22.6614 17.4313 22.5739 17.6029 22.4822C17.7744 22.3905 17.9436 22.2947 18.1105 22.1947C18.2773 22.0947 18.4416 21.9906 18.6033 21.8826C18.7651 21.7745 18.9241 21.6625 19.0803 21.5467C19.2366 21.4308 19.3899 21.3112 19.5402 21.1878C19.6906 21.0644 19.8378 20.9373 19.982 20.8067C20.1261 20.6761 20.2669 20.542 20.4045 20.4044C20.542 20.2669 20.6761 20.1261 20.8067 19.9819C20.9374 19.8378 21.0644 19.6906 21.1878 19.5402C21.3112 19.3898 21.4308 19.2365 21.5467 19.0803C21.6626 18.924 21.7745 18.7651 21.8826 18.6033C21.9907 18.4416 22.0947 18.2773 22.1947 18.1105C22.2947 17.9436 22.3906 17.7744 22.4823 17.6029C22.574 17.4313 22.6614 17.2576 22.7446 17.0818C22.8277 16.9059 22.9065 16.7281 22.981 16.5484C23.0554 16.3687 23.1254 16.1873 23.1909 16.0041C23.2565 15.821 23.3175 15.6364 23.3739 15.4502C23.4304 15.2641 23.4823 15.0767 23.5295 14.888C23.5768 14.6993 23.6194 14.5095 23.6573 14.3188C23.6953 14.128 23.7285 13.9364 23.7571 13.744C23.7856 13.5516 23.8094 13.3586 23.8285 13.165C23.8475 12.9714 23.8619 12.7775 23.8714 12.5832C23.8809 12.3889 23.8857 12.1945 23.8857 12C23.8857 11.8055 23.8809 11.6111 23.8714 11.4168C23.8619 11.2225 23.8475 11.0286 23.8285 10.835C23.8094 10.6414 23.7856 10.4484 23.7571 10.256C23.7285 10.0636 23.6953 9.87196 23.6573 9.68118C23.6194 9.4904 23.5768 9.30067 23.5295 9.11198C23.4823 8.92329 23.4304 8.73587 23.3739 8.54973C23.3175 8.36359 23.2565 8.17894 23.1909 7.99579C23.1254 7.81265 23.0554 7.63122 22.981 7.4515C22.9065 7.27179 22.8277 7.09402 22.7446 6.91817C22.6614 6.74233 22.574 6.56863 22.4823 6.39708C22.3906 6.22553 22.2947 6.05634 22.1947 5.88949C22.0947 5.72265 21.9907 5.55836 21.8826 5.39662C21.7745 5.23489 21.6626 5.0759 21.5467 4.91966C21.4308 4.76342 21.3112 4.61012 21.1878 4.45975C21.0644 4.30939 20.9374 4.16214 20.8067 4.01801C20.6761 3.87389 20.542 3.73305 20.4045 3.5955C20.2669 3.45796 20.1261 3.32387 19.982 3.19324C19.8378 3.06261 19.6906 2.93559 19.5402 2.81219C19.3899 2.68879 19.2366 2.56915 19.0803 2.45328C18.9241 2.3374 18.7651 2.22543 18.6034 2.11736C18.4416 2.00929 18.2773 1.90526 18.1105 1.80525C17.9436 1.70525 17.7744 1.6094 17.6029 1.51771C17.4313 1.42601 17.2576 1.33858 17.0818 1.25541C16.906 1.17225 16.7282 1.09344 16.5485 1.019C16.3688 0.944565 16.1873 0.87458 16.0042 0.809048C15.821 0.743517 15.6364 0.682518 15.4502 0.626053C15.2641 0.569587 15.0767 0.517722 14.888 0.470458C14.6993 0.423194 14.5096 0.380587 14.3188 0.342638C14.128 0.30469 13.9364 0.271444 13.744 0.242903C13.5516 0.214361 13.3586 0.190557 13.165 0.171491C12.9714 0.152425 12.7775 0.138119 12.5832 0.128575C12.3889 0.11903 12.1945 0.114258 12 0.114258C11.8055 0.114258 11.6111 0.11903 11.4168 0.128575C11.2225 0.138119 11.0286 0.152425 10.835 0.171491C10.6414 0.190557 10.4484 0.214361 10.256 0.242903C10.0636 0.271444 9.872 0.30469 9.68121 0.342638C9.49043 0.380587 9.3007 0.423194 9.11201 0.470458C8.92332 0.517722 8.7359 0.569587 8.54976 0.626053C8.36362 0.682518 8.17897 0.743517 7.99583 0.809048C7.81268 0.87458 7.63125 0.944565 7.45154 1.019C7.27183 1.09344 7.09405 1.17225 6.91821 1.25541C6.74236 1.33858 6.56867 1.42601 6.39712 1.51771C6.22557 1.6094 6.05637 1.70525 5.88952 1.80525C5.72268 1.90526 5.55839 2.00929 5.39665 2.11736C5.23492 2.22543 5.07593 2.3374 4.91969 2.45328C4.76345 2.56915 4.61015 2.68879 4.45979 2.81219C4.30942 2.93559 4.16217 3.06261 4.01805 3.19324C3.87392 3.32387 3.73308 3.45796 3.59553 3.5955C3.45799 3.73305 3.3239 3.87389 3.19327 4.01801C3.06264 4.16214 2.93562 4.30939 2.81222 4.45975C2.68882 4.61012 2.56918 4.76342 2.45331 4.91966C2.33743 5.0759 2.22546 5.23489 2.11739 5.39662C2.00932 5.55836 1.90529 5.72265 1.80529 5.88949C1.70528 6.05634 1.60943 6.22553 1.51774 6.39708C1.42604 6.56863 1.33861 6.74233 1.25544 6.91817C1.17228 7.09402 1.09347 7.27179 1.01903 7.45151C0.944596 7.63122 0.87461 7.81265 0.809079 7.99579C0.743548 8.17894 0.682549 8.36359 0.626083 8.54973C0.569618 8.73587 0.517753 8.92329 0.470488 9.11198C0.423224 9.30067 0.380618 9.4904 0.342669 9.68118C0.30472 9.87196 0.271475 10.0636 0.242933 10.256C0.214392 10.4484 0.190588 10.6414 0.171521 10.835C0.152455 11.0285 0.13815 11.2225 0.128605 11.4168C0.119061 11.6111 0.114289 11.8055 0.114289 12Z" fill="rgb(255,189,102)" fill-rule="nonzero" />
	<path id="path" d="M12 24C11.8036 24 11.6073 23.9952 11.4112 23.9855C11.215 23.9759 11.0192 23.9615 10.8238 23.9422C10.6284 23.923 10.4335 23.8989 10.2392 23.8701C10.045 23.8413 9.85153 23.8077 9.65891 23.7694C9.4663 23.7311 9.27474 23.6881 9.08424 23.6404C8.89373 23.5927 8.70452 23.5403 8.51658 23.4833C8.32865 23.4263 8.14223 23.3647 7.95732 23.2985C7.77241 23.2324 7.58924 23.1617 7.4078 23.0866C7.22636 23.0114 7.04687 22.9318 6.86934 22.8479C6.69181 22.7639 6.51644 22.6756 6.34324 22.5831C6.17004 22.4905 5.99921 22.3937 5.83077 22.2927C5.66232 22.1918 5.49645 22.0867 5.33316 21.9776C5.16986 21.8685 5.00935 21.7555 4.85161 21.6385C4.69387 21.5215 4.53909 21.4007 4.38728 21.2761C4.23547 21.1515 4.08681 21.0233 3.94129 20.8914C3.79578 20.7595 3.65359 20.6241 3.51472 20.4853C3.37585 20.3464 3.24047 20.2042 3.10859 20.0587C2.9767 19.9132 2.84846 19.7645 2.72387 19.6127C2.59929 19.4609 2.4785 19.3061 2.36151 19.1484C2.24452 18.9907 2.13147 18.8301 2.02236 18.6668C1.91326 18.5035 1.80822 18.3377 1.70726 18.1692C1.60629 18.0008 1.50952 17.83 1.41694 17.6568C1.32437 17.4836 1.2361 17.3082 1.15213 17.1307C1.06816 16.9531 0.9886 16.7736 0.913445 16.5922C0.838291 16.4108 0.767633 16.2276 0.701471 16.0427C0.63531 15.8578 0.573725 15.6713 0.516716 15.4834C0.459707 15.2955 0.407344 15.1063 0.359625 14.9158C0.311906 14.7253 0.26889 14.5337 0.230577 14.3411C0.192263 14.1485 0.158698 13.955 0.129882 13.7608C0.101066 13.5665 0.0770328 13.3717 0.0577833 13.1762C0.0385338 12.9808 0.0240909 12.785 0.0144545 12.5888C0.00481817 12.3927 0 12.1964 0 12C0 11.8036 0.00481817 11.6073 0.0144545 11.4112C0.0240909 11.215 0.0385338 11.0192 0.0577833 10.8238C0.0770328 10.6284 0.101066 10.4335 0.129882 10.2392C0.158698 10.045 0.192263 9.85153 0.230577 9.65891C0.26889 9.4663 0.311906 9.27474 0.359625 9.08424C0.407344 8.89373 0.459707 8.70452 0.516716 8.51658C0.573725 8.32865 0.63531 8.14223 0.701471 7.95732C0.767633 7.77241 0.838291 7.58924 0.913445 7.4078C0.9886 7.22636 1.06816 7.04687 1.15213 6.86934C1.2361 6.69181 1.32437 6.51644 1.41694 6.34324C1.50952 6.17004 1.60629 5.99921 1.70726 5.83077C1.80822 5.66232 1.91326 5.49645 2.02236 5.33316C2.13147 5.16986 2.24452 5.00935 2.36151 4.85161C2.4785 4.69387 2.59929 4.53909 2.72387 4.38728C2.84846 4.23547 2.9767 4.08681 3.10859 3.94129C3.24047 3.79578 3.37585 3.65359 3.51472 3.51472C3.65359 3.37585 3.79578 3.24047 3.94129 3.10859C4.08681 2.9767 4.23547 2.84846 4.38728 2.72387C4.53909 2.59929 4.69387 2.4785 4.85161 2.36151C5.00935 2.24452 5.16986 2.13147 5.33316 2.02236C5.49645 1.91326 5.66232 1.80822 5.83077 1.70726C5.99921 1.60629 6.17004 1.50952 6.34324 1.41694C6.51644 1.32437 6.69181 1.2361 6.86934 1.15213C7.04687 1.06816 7.22636 0.9886 7.4078 0.913445C7.58924 0.838291 7.77241 0.767633 7.95732 0.701471C8.14223 0.63531 8.32865 0.573725 8.51658 0.516716C8.70452 0.459707 8.89373 0.407344 9.08424 0.359625C9.27474 0.311906 9.4663 0.26889 9.65892 0.230577C9.85153 0.192263 10.045 0.158698 10.2392 0.129882C10.4335 0.101066 10.6284 0.0770328 10.8238 0.0577833C11.0192 0.0385338 11.215 0.0240909 11.4112 0.0144545C11.6073 0.00481817 11.8036 0 12 0C12.1964 0 12.3927 0.00481817 12.5888 0.0144545C12.785 0.0240909 12.9808 0.0385338 13.1762 0.0577833C13.3717 0.0770328 13.5665 0.101066 13.7608 0.129882C13.955 0.158698 14.1485 0.192263 14.3411 0.230577C14.5337 0.26889 14.7253 0.311906 14.9158 0.359625C15.1063 0.407344 15.2955 0.459707 15.4834 0.516716C15.6713 0.573725 15.8578 0.63531 16.0427 0.701471C16.2276 0.767633 16.4108 0.838291 16.5922 0.913445C16.7736 0.9886 16.9531 1.06816 17.1307 1.15213C17.3082 1.2361 17.4836 1.32437 17.6568 1.41694C17.83 1.50952 18.0008 1.60629 18.1692 1.70726C18.3377 1.80822 18.5035 1.91326 18.6668 2.02236C18.8301 2.13147 18.9907 2.24452 19.1484 2.36151C19.3061 2.4785 19.4609 2.59929 19.6127 2.72387C19.7645 2.84846 19.9132 2.9767 20.0587 3.10859C20.2042 3.24047 20.3464 3.37585 20.4853 3.51472C20.6241 3.65359 20.7595 3.79578 20.8914 3.94129C21.0233 4.08681 21.1515 4.23547 21.2761 4.38728C21.4007 4.53909 21.5215 4.69387 21.6385 4.85161C21.7555 5.00935 21.8685 5.16986 21.9776 5.33316C22.0867 5.49645 22.1918 5.66232 22.2927 5.83077C22.3937 5.99921 22.4905 6.17004 22.5831 6.34324C22.6756 6.51644 22.7639 6.69181 22.8479 6.86934C22.9318 7.04687 23.0114 7.22636 23.0866 7.4078C23.1617 7.58924 23.2324 7.77241 23.2985 7.95732C23.3647 8.14223 23.4263 8.32865 23.4833 8.51658C23.5403 8.70452 23.5927 8.89373 23.6404 9.08424C23.6881 9.27474 23.7311 9.4663 23.7694 9.65892C23.8077 9.85153 23.8413 10.045 23.8701 10.2392C23.8989 10.4335 23.923 10.6284 23.9422 10.8238C23.9615 11.0192 23.9759 11.215 23.9855 11.4112C23.9952 11.6073 24 11.8036 24 12C23.9997 12.1963 23.9946 12.3925 23.9847 12.5885C23.9748 12.7846 23.9601 12.9803 23.9406 13.1756C23.9211 13.371 23.8968 13.5657 23.8677 13.7599C23.8387 13.954 23.8049 14.1473 23.7664 14.3398C23.7279 14.5323 23.6847 14.7237 23.6368 14.9141C23.5889 15.1045 23.5364 15.2936 23.4792 15.4814C23.422 15.6692 23.3603 15.8555 23.294 16.0402C23.2277 16.225 23.1569 16.4081 23.0817 16.5894C23.0064 16.7707 22.9268 16.95 22.8427 17.1274C22.7587 17.3048 22.6703 17.4801 22.5777 17.6531C22.485 17.8262 22.3882 17.9969 22.2872 18.1653C22.1862 18.3336 22.0812 18.4993 21.972 18.6625C21.8629 18.8257 21.7498 18.9861 21.6329 19.1438C21.5159 19.3014 21.3951 19.4561 21.2705 19.6078C21.146 19.7595 21.0178 19.9081 20.8859 20.0536C20.7541 20.199 20.6187 20.3411 20.4799 20.4799C20.3411 20.6187 20.199 20.7541 20.0536 20.8859C19.9081 21.0178 19.7595 21.146 19.6078 21.2705C19.4561 21.3951 19.3014 21.5159 19.1438 21.6329C18.9861 21.7498 18.8257 21.8629 18.6625 21.972C18.4993 22.0812 18.3336 22.1862 18.1653 22.2872C17.9969 22.3882 17.8262 22.485 17.6531 22.5777C17.4801 22.6703 17.3048 22.7587 17.1274 22.8427C16.95 22.9268 16.7707 23.0064 16.5894 23.0817C16.4081 23.1569 16.225 23.2277 16.0402 23.294C15.8555 23.3603 15.6692 23.422 15.4814 23.4792C15.2936 23.5364 15.1045 23.5889 14.9141 23.6368C14.7237 23.6847 14.5323 23.7279 14.3398 23.7664C14.1473 23.8049 13.954 23.8387 13.7599 23.8677C13.5657 23.8968 13.371 23.9211 13.1756 23.9406C12.9803 23.9601 12.7846 23.9748 12.5885 23.9847C12.3925 23.9946 12.1963 23.9997 12 24ZM12 0.228571C11.8074 0.228571 11.6148 0.233298 11.4224 0.242751C11.23 0.252203 11.0379 0.266371 10.8462 0.285254C10.6545 0.304137 10.4633 0.327712 10.2728 0.355979C10.0822 0.384247 9.89245 0.417172 9.70351 0.454756C9.51456 0.49234 9.32665 0.534537 9.13978 0.581346C8.9529 0.628156 8.76729 0.679522 8.58293 0.735445C8.39858 0.791368 8.21571 0.85178 8.03432 0.916681C7.85294 0.981582 7.67325 1.05089 7.49527 1.12462C7.31729 1.19834 7.14122 1.27639 6.96706 1.35875C6.79291 1.44112 6.62089 1.52771 6.45099 1.61853C6.28109 1.70934 6.11352 1.80427 5.94828 1.90331C5.78304 2.00235 5.62033 2.10539 5.46014 2.21241C5.29996 2.31944 5.1425 2.43034 4.98777 2.5451C4.83303 2.65986 4.6812 2.77835 4.53228 2.90056C4.38337 3.02278 4.23753 3.14857 4.09479 3.27795C3.95205 3.40732 3.81257 3.54012 3.67634 3.67634C3.54012 3.81257 3.40732 3.95205 3.27795 4.09479C3.14857 4.23753 3.02278 4.38337 2.90056 4.53228C2.77835 4.6812 2.65986 4.83303 2.5451 4.98777C2.43034 5.1425 2.31944 5.29996 2.21241 5.46014C2.10539 5.62033 2.00235 5.78304 1.90331 5.94828C1.80427 6.11352 1.70934 6.28109 1.61853 6.45099C1.52771 6.62089 1.44112 6.79291 1.35875 6.96707C1.27639 7.14122 1.19834 7.31729 1.12462 7.49527C1.0509 7.67325 0.981583 7.85294 0.916682 8.03433C0.85178 8.21571 0.791368 8.39858 0.735446 8.58294C0.679523 8.76729 0.628157 8.9529 0.581347 9.13978C0.534537 9.32665 0.49234 9.51456 0.454757 9.70351C0.417173 9.89245 0.384247 10.0822 0.35598 10.2728C0.327713 10.4633 0.304137 10.6545 0.285255 10.8462C0.266372 11.0379 0.252204 11.23 0.242751 11.4224C0.233298 11.6148 0.228572 11.8074 0.228572 12C0.228572 12.1926 0.233298 12.3852 0.242751 12.5776C0.252204 12.77 0.266372 12.9621 0.285255 13.1538C0.304137 13.3455 0.327713 13.5367 0.35598 13.7272C0.384247 13.9178 0.417173 14.1075 0.454757 14.2965C0.49234 14.4854 0.534537 14.6733 0.581347 14.8602C0.628157 15.0471 0.679523 15.2327 0.735446 15.4171C0.791368 15.6014 0.85178 15.7843 0.916682 15.9657C0.981583 16.1471 1.0509 16.3267 1.12462 16.5047C1.19834 16.6827 1.27639 16.8588 1.35875 17.0329C1.44112 17.2071 1.52771 17.3791 1.61853 17.549C1.70934 17.7189 1.80427 17.8865 1.90331 18.0517C2.00235 18.217 2.10539 18.3797 2.21241 18.5399C2.31944 18.7 2.43034 18.8575 2.5451 19.0122C2.65986 19.167 2.77835 19.3188 2.90056 19.4677C3.02278 19.6166 3.14857 19.7625 3.27795 19.9052C3.40732 20.048 3.54012 20.1874 3.67634 20.3237C3.81257 20.4599 3.95205 20.5927 4.09479 20.7221C4.23753 20.8514 4.38337 20.9772 4.53228 21.0994C4.6812 21.2217 4.83303 21.3401 4.98777 21.4549C5.1425 21.5697 5.29996 21.6806 5.46014 21.7876C5.62033 21.8946 5.78304 21.9976 5.94828 22.0967C6.11352 22.1957 6.28109 22.2907 6.45099 22.3815C6.62089 22.4723 6.79291 22.5589 6.96707 22.6412C7.14122 22.7236 7.31729 22.8017 7.49527 22.8754C7.67325 22.9491 7.85294 23.0184 8.03433 23.0833C8.21571 23.1482 8.39858 23.2086 8.58294 23.2646C8.76729 23.3205 8.9529 23.3718 9.13978 23.4187C9.32665 23.4655 9.51456 23.5077 9.70351 23.5452C9.89245 23.5828 10.0822 23.6157 10.2728 23.644C10.4633 23.6723 10.6545 23.6959 10.8462 23.7147C11.0379 23.7336 11.23 23.7478 11.4224 23.7572C11.6148 23.7667 11.8074 23.7714 12 23.7714C12.1926 23.7714 12.3852 23.7667 12.5776 23.7572C12.77 23.7478 12.9621 23.7336 13.1538 23.7147C13.3455 23.6959 13.5367 23.6723 13.7272 23.644C13.9178 23.6157 14.1075 23.5828 14.2965 23.5452C14.4854 23.5077 14.6733 23.4655 14.8602 23.4186C15.0471 23.3718 15.2327 23.3205 15.4171 23.2646C15.6014 23.2086 15.7843 23.1482 15.9657 23.0833C16.1471 23.0184 16.3267 22.9491 16.5047 22.8754C16.6827 22.8017 16.8588 22.7236 17.0329 22.6412C17.2071 22.5589 17.3791 22.4723 17.549 22.3815C17.7189 22.2907 17.8865 22.1957 18.0517 22.0967C18.217 21.9976 18.3797 21.8946 18.5399 21.7876C18.7 21.6806 18.8575 21.5697 19.0122 21.4549C19.167 21.3401 19.3188 21.2217 19.4677 21.0994C19.6166 20.9772 19.7625 20.8514 19.9052 20.7221C20.048 20.5927 20.1874 20.4599 20.3237 20.3237C20.4599 20.1874 20.5927 20.048 20.7221 19.9052C20.8514 19.7625 20.9772 19.6166 21.0994 19.4677C21.2217 19.3188 21.3401 19.167 21.4549 19.0122C21.5697 18.8575 21.6806 18.7 21.7876 18.5399C21.8946 18.3797 21.9976 18.217 22.0967 18.0517C22.1957 17.8865 22.2907 17.7189 22.3815 17.549C22.4723 17.3791 22.5589 17.2071 22.6412 17.0329C22.7236 16.8588 22.8017 16.6827 22.8754 16.5047C22.9491 16.3267 23.0184 16.1471 23.0833 15.9657C23.1482 15.7843 23.2086 15.6014 23.2646 15.4171C23.3205 15.2327 23.3718 15.0471 23.4187 14.8602C23.4655 14.6733 23.5077 14.4854 23.5452 14.2965C23.5828 14.1075 23.6157 13.9178 23.644 13.7272C23.6723 13.5367 23.6959 13.3455 23.7147 13.1538C23.7336 12.9621 23.7478 12.77 23.7572 12.5776C23.7667 12.3852 23.7714 12.1926 23.7714 12C23.7712 11.8074 23.7663 11.6149 23.7566 11.4226C23.7469 11.2303 23.7326 11.0383 23.7135 10.8466C23.6944 10.655 23.6707 10.4639 23.6422 10.2735C23.6138 10.083 23.5807 9.89331 23.543 9.70446C23.5052 9.5156 23.4629 9.32779 23.416 9.14101C23.369 8.95423 23.3175 8.76872 23.2615 8.58446C23.2054 8.40021 23.1449 8.21744 23.0799 8.03615C23.0149 7.85487 22.9455 7.67528 22.8717 7.4974C22.7979 7.31951 22.7198 7.14354 22.6374 6.96949C22.5549 6.79543 22.4683 6.6235 22.3774 6.4537C22.2866 6.28389 22.1916 6.11641 22.0925 5.95126C21.9935 5.78611 21.8904 5.62348 21.7834 5.46338C21.6763 5.30328 21.5654 5.1459 21.4507 4.99124C21.3359 4.83658 21.2174 4.68482 21.0952 4.53596C20.973 4.38711 20.8473 4.24134 20.7179 4.09865C20.5886 3.95596 20.4558 3.81653 20.3196 3.68035C20.1835 3.54417 20.044 3.41141 19.9013 3.28207C19.7587 3.15272 19.6129 3.02695 19.464 2.90475C19.3152 2.78256 19.1634 2.66408 19.0088 2.54932C18.8541 2.43456 18.6967 2.32366 18.5366 2.21662C18.3765 2.10958 18.2139 2.00652 18.0487 1.90745C17.8836 1.80838 17.7161 1.71342 17.5463 1.62256C17.3765 1.5317 17.2046 1.44506 17.0305 1.36263C16.8565 1.2802 16.6805 1.20208 16.5026 1.12828C16.3247 1.05447 16.1451 0.985073 15.9638 0.920074C15.7826 0.855075 15.5998 0.794556 15.4155 0.738517C15.2313 0.682478 15.0458 0.630987 14.859 0.584042C14.6722 0.537098 14.4844 0.494758 14.2955 0.457021C14.1067 0.419285 13.917 0.386197 13.7265 0.357759C13.5361 0.32932 13.345 0.305565 13.1534 0.286494C12.9617 0.267422 12.7697 0.253056 12.5774 0.243397C12.3851 0.233737 12.1926 0.228795 12 0.228571Z" fill="rgb(53,29,20)" fill-rule="nonzero" />
	<path id="path" d="M14.3771 10.9439C14.3771 11.0438 14.382 11.1434 14.3918 11.2428C14.4016 11.3422 14.4162 11.4408 14.4357 11.5388C14.4552 11.6367 14.4794 11.7335 14.5084 11.829C14.5374 11.9246 14.571 12.0185 14.6092 12.1108C14.6475 12.203 14.6901 12.2932 14.7372 12.3813C14.7842 12.4693 14.8355 12.5549 14.891 12.6379C14.9465 12.721 15.0059 12.8011 15.0693 12.8783C15.1326 12.9555 15.1996 13.0294 15.2702 13.1C15.3408 13.1706 15.4147 13.2376 15.4919 13.3009C15.5691 13.3643 15.6492 13.4237 15.7323 13.4792C15.8153 13.5347 15.9009 13.5859 15.9889 13.633C16.077 13.6801 16.1672 13.7227 16.2594 13.761C16.3517 13.7992 16.4456 13.8328 16.5412 13.8618C16.6367 13.8908 16.7335 13.915 16.8314 13.9345C16.9294 13.954 17.028 13.9686 17.1274 13.9784C17.2268 13.9882 17.3264 13.9931 17.4263 13.9931C17.5261 13.9931 17.6258 13.9882 17.7251 13.9784C17.8245 13.9686 17.9232 13.954 18.0211 13.9345C18.1191 13.915 18.2158 13.8908 18.3114 13.8618C18.407 13.8328 18.5009 13.7992 18.5931 13.761C18.6854 13.7227 18.7756 13.6801 18.8636 13.633C18.9517 13.5859 19.0373 13.5347 19.1203 13.4792C19.2033 13.4237 19.2834 13.3643 19.3606 13.3009C19.4378 13.2376 19.5117 13.1706 19.5823 13.1C19.653 13.0294 19.7199 12.9555 19.7833 12.8783C19.8466 12.8011 19.9061 12.721 19.9615 12.6379C20.017 12.5549 20.0683 12.4693 20.1154 12.3813C20.1625 12.2932 20.2051 12.203 20.2433 12.1108C20.2815 12.0185 20.3151 11.9246 20.3441 11.829C20.3731 11.7335 20.3974 11.6367 20.4168 11.5388C20.4363 11.4408 20.451 11.3422 20.4607 11.2428C20.4705 11.1434 20.4754 11.0438 20.4754 10.9439C20.4754 10.8441 20.4705 10.7444 20.4607 10.6451C20.451 10.5457 20.4363 10.447 20.4168 10.3491C20.3974 10.2511 20.3731 10.1544 20.3441 10.0588C20.3151 9.96324 20.2815 9.86932 20.2433 9.77706C20.2051 9.6848 20.1625 9.59463 20.1154 9.50656C20.0683 9.41849 20.017 9.33294 19.9615 9.24991C19.9061 9.16687 19.8466 9.08676 19.7833 9.00956C19.7199 8.93237 19.653 8.85846 19.5823 8.78785C19.5117 8.71723 19.4378 8.65025 19.3606 8.5869C19.2834 8.52355 19.2033 8.46413 19.1203 8.40865C19.0373 8.35317 18.9517 8.30189 18.8636 8.25481C18.7756 8.20774 18.6854 8.16509 18.5931 8.12688C18.5009 8.08866 18.407 8.05506 18.3114 8.02607C18.2158 7.99708 18.1191 7.97285 18.0211 7.95336C17.9232 7.93388 17.8245 7.91925 17.7251 7.90946C17.6258 7.89967 17.5261 7.89478 17.4263 7.89478C17.3264 7.89478 17.2268 7.89967 17.1274 7.90946C17.028 7.91925 16.9294 7.93388 16.8314 7.95336C16.7335 7.97285 16.6367 7.99708 16.5412 8.02607C16.4456 8.05506 16.3517 8.08866 16.2594 8.12688C16.1672 8.16509 16.077 8.20774 15.9889 8.25481C15.9009 8.30189 15.8153 8.35317 15.7323 8.40865C15.6492 8.46413 15.5691 8.52355 15.4919 8.5869C15.4147 8.65025 15.3408 8.71723 15.2702 8.78785C15.1996 8.85846 15.1326 8.93237 15.0693 9.00956C15.0059 9.08676 14.9465 9.16687 14.891 9.24991C14.8355 9.33294 14.7843 9.41849 14.7372 9.50656C14.6901 9.59463 14.6475 9.6848 14.6092 9.77706C14.571 9.86932 14.5374 9.96324 14.5084 10.0588C14.4794 10.1544 14.4552 10.2511 14.4357 10.3491C14.4162 10.447 14.4016 10.5457 14.3918 10.6451C14.382 10.7444 14.3771 10.8441 14.3771 10.9439Z" fill="rgb(255,255,255)" fill-rule="nonzero" />
	<path id="path" d="M17.4263 14.112C17.3224 14.1128 17.2187 14.1084 17.1152 14.099C17.0117 14.0895 16.9089 14.075 16.8069 14.0555C16.7048 14.0359 16.604 14.0114 16.5043 13.9819C16.4047 13.9524 16.3067 13.9181 16.2105 13.8789C16.1142 13.8398 16.0201 13.796 15.9281 13.7476C15.8362 13.6993 15.7468 13.6465 15.66 13.5893C15.5733 13.5321 15.4895 13.4708 15.4088 13.4054C15.3281 13.3399 15.2507 13.2707 15.1768 13.1977C15.1029 13.1246 15.0327 13.0482 14.9663 12.9682C14.9 12.8883 14.8376 12.8053 14.7794 12.7192C14.7212 12.6331 14.6673 12.5444 14.6178 12.453C14.5683 12.3617 14.5235 12.2681 14.4832 12.1723C14.4429 12.0765 14.4074 11.979 14.3767 11.8797C14.346 11.7804 14.3203 11.6799 14.2995 11.5781C14.2787 11.4763 14.2629 11.3737 14.2522 11.2703C14.2415 11.1669 14.2359 11.0633 14.2354 10.9594C14.2349 10.8555 14.2395 10.7518 14.2493 10.6483C14.259 10.5449 14.2737 10.4421 14.2935 10.3401C14.3133 10.2381 14.3381 10.1373 14.3678 10.0378C14.3976 9.93819 14.4321 9.84031 14.4715 9.74414C14.5108 9.64797 14.5548 9.55396 14.6034 9.46212C14.652 9.37028 14.705 9.28104 14.7624 9.19442C14.8198 9.10779 14.8813 9.02419 14.947 8.94361C15.0126 8.86304 15.082 8.78588 15.1552 8.71213C15.2284 8.63839 15.3051 8.56842 15.3852 8.50222C15.4653 8.43602 15.5484 8.37391 15.6346 8.31589C15.7208 8.25787 15.8097 8.20422 15.9012 8.15495C15.9927 8.10567 16.0863 8.06101 16.1822 8.02095C16.2781 7.98089 16.3757 7.94564 16.4751 7.91519C16.5744 7.88474 16.675 7.85924 16.7769 7.83869C16.8788 7.81814 16.9814 7.80264 17.0848 7.79219C17.1882 7.78174 17.2918 7.77638 17.3957 7.77613C17.4997 7.77588 17.6033 7.78074 17.7068 7.79069C17.8102 7.80064 17.9129 7.81565 18.0149 7.8357C18.1168 7.85576 18.2176 7.88078 18.3171 7.91075C18.4166 7.94072 18.5144 7.9755 18.6104 8.01509C18.7065 8.05469 18.8004 8.0989 18.8922 8.14773C18.9839 8.19656 19.073 8.24978 19.1595 8.30738C19.246 8.36498 19.3294 8.42669 19.4098 8.4925C19.4903 8.55831 19.5672 8.62791 19.6408 8.7013C19.7144 8.77469 19.7842 8.85151 19.8502 8.93177C19.9162 9.01202 19.9781 9.09533 20.0359 9.18167C20.0937 9.26802 20.1472 9.357 20.1962 9.4486C20.2453 9.54021 20.2897 9.634 20.3295 9.72998C20.3694 9.82596 20.4044 9.92366 20.4346 10.0231C20.4648 10.1225 20.4901 10.2232 20.5104 10.3251C20.5307 10.427 20.5459 10.5296 20.5561 10.6331C20.5663 10.7365 20.5714 10.8401 20.5714 10.944C20.5713 11.0473 20.5661 11.1503 20.5559 11.253C20.5457 11.3557 20.5305 11.4577 20.5104 11.559C20.4902 11.6602 20.4652 11.7603 20.4352 11.8591C20.4053 11.9579 20.3707 12.055 20.3313 12.1504C20.2919 12.2459 20.2479 12.3391 20.1994 12.4303C20.1509 12.5214 20.0981 12.61 20.0409 12.6959C19.9837 12.7819 19.9225 12.8649 19.8573 12.9449C19.792 13.0249 19.723 13.1015 19.6503 13.1748C19.5776 13.2481 19.5014 13.3176 19.4219 13.3834C19.3424 13.4493 19.2598 13.5111 19.1743 13.5689C19.0887 13.6266 19.0005 13.6801 18.9098 13.7293C18.819 13.7784 18.726 13.8231 18.6309 13.8632C18.5358 13.9033 18.4389 13.9386 18.3403 13.9693C18.2417 13.9999 18.1419 14.0257 18.0408 14.0465C17.9397 14.0674 17.8378 14.0833 17.7351 14.0943C17.6325 14.1052 17.5295 14.1111 17.4263 14.112ZM17.4263 8.00918C17.3299 8.00903 17.2338 8.01361 17.1379 8.02291C17.0421 8.03221 16.9469 8.04619 16.8524 8.06485C16.7578 8.08351 16.6645 8.10675 16.5723 8.13459C16.48 8.16243 16.3894 8.19473 16.3003 8.23148C16.2113 8.26823 16.1243 8.30925 16.0393 8.35456C15.9542 8.39987 15.8717 8.44923 15.7915 8.50266C15.7113 8.55609 15.634 8.61332 15.5595 8.67435C15.4849 8.73538 15.4136 8.79992 15.3454 8.86797C15.2772 8.93601 15.2125 9.00724 15.1513 9.08165C15.0901 9.15606 15.0327 9.23328 14.9791 9.31333C14.9255 9.39338 14.876 9.47587 14.8305 9.56079C14.785 9.64571 14.7438 9.73266 14.7069 9.82163C14.67 9.9106 14.6375 10.0012 14.6095 10.0933C14.5814 10.1855 14.558 10.2788 14.5391 10.3733C14.5203 10.4678 14.5061 10.5629 14.4966 10.6588C14.4871 10.7547 14.4823 10.8508 14.4823 10.9471C14.4822 11.0434 14.4869 11.1395 14.4963 11.2354C14.5057 11.3313 14.5198 11.4265 14.5385 11.5209C14.5573 11.6154 14.5806 11.7088 14.6086 11.801C14.6365 11.8932 14.6689 11.9838 14.7057 12.0728C14.7426 12.1618 14.7837 12.2488 14.8291 12.3337C14.8745 12.4187 14.9239 12.5012 14.9774 12.5814C15.031 12.6615 15.0883 12.7387 15.1494 12.8132C15.2105 12.8877 15.2751 12.959 15.3432 13.0271C15.4113 13.0952 15.4826 13.1598 15.5571 13.2209C15.6316 13.282 15.7089 13.3394 15.789 13.3929C15.8691 13.4464 15.9516 13.4958 16.0366 13.5412C16.1215 13.5866 16.2085 13.6277 16.2975 13.6646C16.3865 13.7014 16.4771 13.7338 16.5693 13.7617C16.6615 13.7897 16.7549 13.813 16.8494 13.8318C16.9439 13.8505 17.039 13.8646 17.1349 13.874C17.2308 13.8834 17.3269 13.8881 17.4232 13.888C17.5196 13.888 17.6157 13.8832 17.7115 13.8737C17.8074 13.8642 17.9026 13.85 17.997 13.8312C18.0915 13.8123 18.1848 13.7889 18.277 13.7609C18.3691 13.7328 18.4597 13.7003 18.5487 13.6634C18.6377 13.6265 18.7246 13.5853 18.8095 13.5398C18.8944 13.4943 18.9769 13.4448 19.057 13.3912C19.137 13.3376 19.2143 13.2802 19.2887 13.219C19.3631 13.1578 19.4343 13.0931 19.5023 13.0249C19.5704 12.9568 19.6349 12.8854 19.696 12.8109C19.757 12.7363 19.8142 12.659 19.8676 12.5788C19.9211 12.4987 19.9704 12.4161 20.0157 12.3311C20.0611 12.246 20.1021 12.159 20.1388 12.07C20.1756 11.9809 20.2079 11.8903 20.2357 11.7981C20.2636 11.7058 20.2868 11.6125 20.3055 11.518C20.3241 11.4234 20.3381 11.3282 20.3474 11.2324C20.3567 11.1365 20.3613 11.0404 20.3611 10.944C20.3608 10.848 20.3558 10.7522 20.3462 10.6567C20.3365 10.5611 20.3222 10.4663 20.3032 10.3721C20.2843 10.278 20.2608 10.185 20.2327 10.0931C20.2047 10.0013 20.1722 9.91101 20.1353 9.82233C20.0984 9.73366 20.0573 9.64701 20.0119 9.56236C19.9665 9.47771 19.9171 9.39548 19.8637 9.31567C19.8103 9.23586 19.7531 9.15885 19.6922 9.08463C19.6312 9.01042 19.5668 8.93936 19.4989 8.87145C19.431 8.80354 19.3599 8.73911 19.2857 8.67815C19.2115 8.6172 19.1344 8.56001 19.0546 8.50659C18.9748 8.45317 18.8926 8.40378 18.808 8.35841C18.7233 8.31304 18.6366 8.27191 18.548 8.23502C18.4593 8.19813 18.369 8.16565 18.2772 8.1376C18.1853 8.10954 18.0924 8.08604 17.9982 8.06708C17.9041 8.04813 17.8092 8.03381 17.7137 8.02414C17.6181 8.01447 17.5223 8.00948 17.4263 8.00918Z" fill="rgb(53,29,20)" fill-rule="nonzero" />
	<path id="path" d="M15.2503 10.9441C15.2503 11.0154 15.2538 11.0865 15.2608 11.1574C15.2677 11.2283 15.2782 11.2987 15.2921 11.3686C15.306 11.4385 15.3233 11.5076 15.344 11.5758C15.3647 11.644 15.3886 11.711 15.4159 11.7768C15.4432 11.8427 15.4736 11.907 15.5072 11.9699C15.5408 12.0327 15.5774 12.0938 15.617 12.153C15.6566 12.2123 15.699 12.2695 15.7442 12.3245C15.7894 12.3796 15.8372 12.4324 15.8876 12.4828C15.938 12.5332 15.9907 12.581 16.0458 12.6262C16.1009 12.6714 16.1581 12.7138 16.2174 12.7534C16.2766 12.793 16.3377 12.8296 16.4005 12.8632C16.4634 12.8968 16.5277 12.9272 16.5936 12.9545C16.6594 12.9817 16.7264 13.0057 16.7946 13.0264C16.8628 13.0471 16.9319 13.0644 17.0018 13.0783C17.0717 13.0922 17.1421 13.1026 17.213 13.1096C17.2839 13.1166 17.355 13.1201 17.4263 13.1201C17.4975 13.1201 17.5686 13.1166 17.6396 13.1096C17.7105 13.1026 17.7809 13.0922 17.8508 13.0783C17.9207 13.0644 17.9897 13.0471 18.0579 13.0264C18.1261 13.0057 18.1932 12.9817 18.259 12.9545C18.3248 12.9272 18.3892 12.8968 18.452 12.8632C18.5149 12.8296 18.5759 12.793 18.6352 12.7534C18.6945 12.7138 18.7516 12.6714 18.8067 12.6262C18.8618 12.581 18.9145 12.5332 18.9649 12.4828C19.0153 12.4324 19.0631 12.3796 19.1083 12.3245C19.1536 12.2695 19.196 12.2123 19.2356 12.153C19.2751 12.0938 19.3117 12.0327 19.3453 11.9699C19.3789 11.907 19.4094 11.8427 19.4366 11.7768C19.4639 11.711 19.4879 11.644 19.5086 11.5758C19.5293 11.5076 19.5466 11.4385 19.5605 11.3686C19.5744 11.2987 19.5848 11.2283 19.5918 11.1574C19.5988 11.0865 19.6023 11.0154 19.6023 10.9441C19.6023 10.8728 19.5989 10.8017 19.5919 10.7307C19.585 10.6598 19.5746 10.5893 19.5607 10.5194C19.5469 10.4494 19.5296 10.3804 19.5089 10.3121C19.4883 10.2439 19.4643 10.1768 19.4371 10.1109C19.4098 10.045 19.3794 9.98065 19.3458 9.91775C19.3122 9.85486 19.2757 9.79376 19.2361 9.73446C19.1965 9.67516 19.1541 9.61795 19.1089 9.56281C19.0637 9.50768 19.0159 9.4549 18.9655 9.40447C18.9151 9.35404 18.8623 9.3062 18.8072 9.26095C18.7521 9.2157 18.6949 9.17326 18.6357 9.13364C18.5764 9.09401 18.5153 9.05739 18.4524 9.02376C18.3896 8.99014 18.3252 8.95968 18.2593 8.93238C18.1935 8.90509 18.1264 8.88109 18.0582 8.86038C17.99 8.83968 17.9209 8.82236 17.851 8.80845C17.781 8.79453 17.7106 8.78408 17.6397 8.77709C17.5687 8.7701 17.4976 8.7666 17.4263 8.7666C17.355 8.7666 17.2838 8.7701 17.2129 8.77709C17.1419 8.78408 17.0715 8.79453 17.0016 8.80845C16.9316 8.82236 16.8626 8.83968 16.7943 8.86038C16.7261 8.88109 16.6591 8.90509 16.5932 8.93238C16.5273 8.95968 16.463 8.99014 16.4001 9.02376C16.3372 9.05739 16.2762 9.09401 16.2169 9.13364C16.1576 9.17326 16.1004 9.2157 16.0453 9.26095C15.9902 9.3062 15.9375 9.35404 15.8871 9.40447C15.8367 9.4549 15.7889 9.50768 15.7437 9.56281C15.6985 9.61795 15.6561 9.67516 15.6165 9.73446C15.5769 9.79376 15.5403 9.85486 15.5067 9.91775C15.4731 9.98065 15.4427 10.045 15.4155 10.1109C15.3882 10.1768 15.3643 10.2439 15.3436 10.3121C15.323 10.3804 15.3057 10.4494 15.2918 10.5194C15.278 10.5893 15.2676 10.6598 15.2606 10.7307C15.2537 10.8017 15.2502 10.8728 15.2503 10.9441Z" fill="rgb(53,29,20)" fill-rule="nonzero" />
	<path id="path" d="M16.4983 10.9441C16.4983 10.9996 16.5037 11.0546 16.5145 11.1091C16.5254 11.1636 16.5414 11.2164 16.5627 11.2677C16.5839 11.319 16.61 11.3678 16.6408 11.414C16.6717 11.4601 16.7067 11.5028 16.746 11.5421C16.7853 11.5814 16.828 11.6164 16.8742 11.6473C16.9203 11.6781 16.9691 11.7042 17.0204 11.7254C17.0717 11.7467 17.1246 11.7627 17.179 11.7736C17.2335 11.7844 17.2885 11.7898 17.344 11.7898C17.3995 11.7898 17.4545 11.7844 17.509 11.7736C17.5635 11.7627 17.6163 11.7467 17.6676 11.7254C17.719 11.7042 17.7677 11.6781 17.8139 11.6473C17.86 11.6164 17.9028 11.5814 17.942 11.5421C17.9813 11.5028 18.0163 11.4601 18.0472 11.414C18.078 11.3678 18.1041 11.319 18.1253 11.2677C18.1466 11.2164 18.1626 11.1636 18.1735 11.1091C18.1843 11.0546 18.1897 10.9996 18.1897 10.9441C18.1897 10.8886 18.1843 10.8336 18.1735 10.7791C18.1626 10.7246 18.1466 10.6718 18.1253 10.6205C18.1041 10.5692 18.078 10.5204 18.0472 10.4742C18.0163 10.4281 17.9813 10.3854 17.942 10.3461C17.9028 10.3068 17.86 10.2718 17.8139 10.2409C17.7677 10.2101 17.719 10.184 17.6676 10.1628C17.6163 10.1415 17.5635 10.1255 17.509 10.1146C17.4545 10.1038 17.3995 10.0984 17.344 10.0984C17.2885 10.0984 17.2335 10.1038 17.179 10.1146C17.1246 10.1255 17.0717 10.1415 17.0204 10.1628C16.9691 10.184 16.9203 10.2101 16.8742 10.2409C16.828 10.2718 16.7853 10.3068 16.746 10.3461C16.7067 10.3854 16.6717 10.4281 16.6408 10.4742C16.61 10.5204 16.5839 10.5692 16.5627 10.6205C16.5414 10.6718 16.5254 10.7246 16.5145 10.7791C16.5037 10.8336 16.4983 10.8886 16.4983 10.9441Z" fill="rgb(255,255,255)" fill-rule="nonzero" />
	<path id="path" d="M18.336 11.2413C18.336 11.2782 18.3431 11.3138 18.3572 11.348C18.3714 11.3821 18.3915 11.4123 18.4177 11.4384C18.4438 11.4646 18.474 11.4847 18.5081 11.4989C18.5423 11.513 18.5779 11.5201 18.6149 11.5201C18.6518 11.5201 18.6874 11.513 18.7216 11.4989C18.7557 11.4847 18.7859 11.4646 18.812 11.4384C18.8382 11.4123 18.8583 11.3821 18.8725 11.348C18.8866 11.3138 18.8937 11.2782 18.8937 11.2413C18.8937 11.2043 18.8866 11.1687 18.8725 11.1345C18.8583 11.1004 18.8382 11.0702 18.812 11.0441C18.7859 11.0179 18.7557 10.9978 18.7216 10.9836C18.6874 10.9695 18.6518 10.9624 18.6149 10.9624C18.5779 10.9624 18.5423 10.9695 18.5081 10.9836C18.474 10.9978 18.4438 11.0179 18.4177 11.0441C18.3915 11.0702 18.3714 11.1004 18.3572 11.1345C18.3431 11.1687 18.336 11.2043 18.336 11.2413Z" fill="rgb(255,255,255)" fill-rule="nonzero" />
	<path id="path" d="M18.7429 12.7999C18.6163 12.9094 18.4741 12.9918 18.3162 13.047C18.1583 13.1023 17.9957 13.1266 17.8286 13.1199C17.6313 13.1207 17.4362 13.1421 17.2434 13.1839C17.2012 13.1938 17.1614 13.2099 17.124 13.232C17.0867 13.2541 17.0535 13.2813 17.0245 13.3136C16.9955 13.3459 16.972 13.3817 16.954 13.4212C16.9359 13.4607 16.9242 13.502 16.9189 13.545C16.9189 13.7005 16.9189 13.9245 17.3211 13.9656C17.517 13.9523 17.7121 13.9599 17.9063 13.9885C17.9724 14.0103 18.0291 14.0468 18.0762 14.098C18.1234 14.1493 18.1551 14.2088 18.1714 14.2765C18.2063 14.4106 18.2063 14.5447 18.1714 14.6788C18.1005 14.8543 18.0929 15.0326 18.1486 15.2136C18.1799 15.2667 18.2236 15.3063 18.2796 15.3322C18.3356 15.3581 18.394 15.3658 18.4549 15.3553C18.501 15.3524 18.5447 15.3407 18.5862 15.3203C18.6277 15.2999 18.6636 15.2724 18.6941 15.2376C18.7245 15.2029 18.7471 15.1636 18.7619 15.1198C18.7767 15.0761 18.7826 15.0311 18.7794 14.985C18.7844 14.8644 18.7722 14.7456 18.7429 14.6285C18.7063 14.4905 18.6926 14.3503 18.7017 14.2079C18.7094 14.0917 18.7475 13.9866 18.816 13.8925C18.8882 13.8087 18.9735 13.7416 19.072 13.6913C19.2996 13.5585 19.4779 13.3771 19.6069 13.1473C19.7257 12.9188 19.8674 12.5576 19.6526 12.3565C19.6185 12.3236 19.5795 12.2984 19.5356 12.2807C19.4918 12.263 19.4462 12.2542 19.3989 12.2542C19.3515 12.2542 19.306 12.263 19.2621 12.2807C19.2182 12.2984 19.1792 12.3236 19.1451 12.3565C19.0203 12.5126 18.8862 12.6604 18.7429 12.7999Z" fill="rgb(140,219,244)" fill-rule="nonzero" />
	<path id="path" d="M3.87201 10.9942C3.87196 11.0941 3.87681 11.1938 3.88656 11.2932C3.8963 11.3926 3.9109 11.4913 3.93034 11.5893C3.94979 11.6873 3.97399 11.7841 4.00295 11.8797C4.03191 11.9753 4.06549 12.0692 4.10368 12.1615C4.14188 12.2538 4.18451 12.344 4.23157 12.4322C4.27863 12.5203 4.32989 12.6059 4.38537 12.6889C4.44084 12.772 4.50025 12.8522 4.5636 12.9294C4.62695 13.0066 4.69394 13.0806 4.76456 13.1512C4.83518 13.2219 4.90909 13.2889 4.98629 13.3523C5.0635 13.4157 5.14363 13.4751 5.22668 13.5307C5.30972 13.5862 5.3953 13.6375 5.48339 13.6846C5.57148 13.7317 5.66167 13.7744 5.75395 13.8126C5.84624 13.8508 5.94018 13.8845 6.03577 13.9135C6.13136 13.9425 6.22814 13.9667 6.32611 13.9862C6.42409 14.0057 6.52278 14.0204 6.62219 14.0302C6.72161 14.0399 6.82126 14.0448 6.92115 14.0448C7.02105 14.0448 7.1207 14.0399 7.22011 14.0302C7.31953 14.0204 7.41822 14.0057 7.51619 13.9862C7.61417 13.9667 7.71095 13.9425 7.80654 13.9135C7.90213 13.8845 7.99607 13.8508 8.08835 13.8126C8.18064 13.7744 8.27083 13.7317 8.35892 13.6846C8.44701 13.6375 8.53258 13.5862 8.61563 13.5307C8.69868 13.4751 8.77881 13.4157 8.85601 13.3523C8.93322 13.2889 9.00713 13.2219 9.07775 13.1512C9.14837 13.0806 9.21535 13.0066 9.2787 12.9294C9.34206 12.8522 9.40147 12.772 9.45694 12.6889C9.51241 12.6059 9.56368 12.5203 9.61074 12.4322C9.6578 12.344 9.70043 12.2538 9.73862 12.1615C9.77682 12.0692 9.81039 11.9753 9.83935 11.8797C9.86831 11.7841 9.89252 11.6873 9.91196 11.5893C9.93141 11.4913 9.946 11.3926 9.95575 11.2932C9.9655 11.1938 9.97034 11.0941 9.97029 10.9942C9.97029 10.8943 9.9654 10.7947 9.95561 10.6953C9.94583 10.596 9.93119 10.4973 9.91171 10.3994C9.89222 10.3014 9.86799 10.2047 9.839 10.1091C9.81001 10.0135 9.77641 9.91962 9.73819 9.82735C9.69998 9.73509 9.65733 9.64493 9.61026 9.55686C9.56318 9.46878 9.5119 9.38323 9.45642 9.3002C9.40094 9.21716 9.34152 9.13705 9.27817 9.05986C9.21482 8.98266 9.14784 8.90876 9.07722 8.83814C9.00661 8.76753 8.9327 8.70054 8.85551 8.63719C8.77831 8.57384 8.6982 8.51442 8.61516 8.45894C8.53213 8.40346 8.44658 8.35218 8.35851 8.30511C8.27044 8.25803 8.18027 8.21539 8.08801 8.17717C7.99575 8.13895 7.90183 8.10535 7.80627 8.07636C7.71071 8.04737 7.61395 8.02314 7.51601 8.00366C7.41807 7.98417 7.3194 7.96954 7.22002 7.95975C7.12064 7.94996 7.02102 7.94507 6.92115 7.94507C6.82129 7.94507 6.72167 7.94996 6.62228 7.95975C6.5229 7.96954 6.42424 7.98417 6.32629 8.00366C6.22835 8.02314 6.1316 8.04737 6.03603 8.07636C5.94047 8.10535 5.84656 8.13895 5.7543 8.17717C5.66203 8.21539 5.57187 8.25803 5.4838 8.30511C5.39573 8.35218 5.31017 8.40346 5.22714 8.45894C5.14411 8.51442 5.06399 8.57384 4.9868 8.63719C4.9096 8.70054 4.8357 8.76753 4.76508 8.83814C4.69447 8.90876 4.62749 8.98266 4.56413 9.05986C4.50078 9.13705 4.44136 9.21716 4.38588 9.3002C4.3304 9.38323 4.27912 9.46878 4.23205 9.55686C4.18497 9.64493 4.14233 9.73509 4.10411 9.82735C4.0659 9.91962 4.03229 10.0135 4.0033 10.1091C3.97432 10.2047 3.95008 10.3014 3.9306 10.3994C3.91112 10.4973 3.89648 10.596 3.88669 10.6953C3.8769 10.7947 3.87201 10.8943 3.87201 10.9942Z" fill="rgb(255,255,255)" fill-rule="nonzero" />
	<path id="path" d="M6.92113 14.1714C6.81732 14.1716 6.71374 14.1667 6.6104 14.1566C6.50707 14.1466 6.40448 14.1315 6.30263 14.1114C6.20078 14.0913 6.10016 14.0662 6.00077 14.0362C5.90138 14.0062 5.80371 13.9714 5.70774 13.9318C5.61178 13.8921 5.51799 13.8479 5.42637 13.7991C5.33476 13.7502 5.24575 13.697 5.15937 13.6394C5.07298 13.5819 4.98963 13.5202 4.90931 13.4544C4.82899 13.3886 4.75209 13.3191 4.67861 13.2457C4.60512 13.1724 4.53542 13.0956 4.46948 13.0154C4.40355 12.9352 4.3417 12.852 4.28395 12.7657C4.2262 12.6794 4.17282 12.5905 4.12381 12.499C4.07479 12.4075 4.03039 12.3138 3.99059 12.2179C3.95079 12.122 3.91579 12.0244 3.88559 11.9251C3.85538 11.8257 3.83012 11.7252 3.80981 11.6234C3.78949 11.5216 3.77422 11.419 3.76399 11.3157C3.75376 11.2124 3.74862 11.1088 3.74857 11.005C3.74852 10.9012 3.75356 10.7976 3.76369 10.6943C3.77382 10.5909 3.789 10.4884 3.80921 10.3865C3.82943 10.2847 3.85459 10.1841 3.8847 10.0847C3.91481 9.98538 3.94972 9.88774 3.98942 9.79181C4.02913 9.69589 4.07345 9.60214 4.12237 9.51057C4.17129 9.419 4.22459 9.33005 4.28226 9.24372C4.33993 9.15739 4.40169 9.0741 4.46755 8.99384C4.5334 8.91358 4.60304 8.83675 4.67645 8.76334C4.74986 8.68992 4.8267 8.62029 4.90695 8.55443C4.98721 8.48857 5.07051 8.42681 5.15684 8.36914C5.24317 8.31147 5.33211 8.25818 5.42368 8.20925C5.51525 8.16033 5.609 8.11601 5.70493 8.07631C5.80085 8.0366 5.8985 8.00169 5.99785 7.97159C6.09721 7.94148 6.19781 7.91632 6.29964 7.8961C6.40147 7.87588 6.50405 7.86071 6.60737 7.85057C6.7107 7.84044 6.81427 7.8354 6.91809 7.83545C7.02191 7.8355 7.12547 7.84064 7.22879 7.85087C7.3321 7.8611 7.43467 7.87638 7.53648 7.89669C7.63829 7.91701 7.73886 7.94227 7.83819 7.97247C7.93752 8.00267 8.03513 8.03767 8.13102 8.07747C8.22691 8.11727 8.32061 8.16168 8.41213 8.21069C8.50366 8.2597 8.59255 8.31308 8.67883 8.37084C8.7651 8.42859 8.84834 8.49043 8.92853 8.55637C9.00872 8.6223 9.08549 8.69201 9.15883 8.76549C9.23217 8.83897 9.30173 8.91587 9.36752 8.99619C9.4333 9.07652 9.49498 9.15987 9.55256 9.24625C9.61015 9.33264 9.66336 9.42164 9.7122 9.51326C9.76103 9.60487 9.80526 9.69866 9.84487 9.79463C9.88449 9.89059 9.9193 9.98827 9.94931 10.0877C9.97932 10.187 10.0044 10.2877 10.0245 10.3895C10.0446 10.4914 10.0597 10.594 10.0697 10.6973C10.0798 10.8006 10.0847 10.9042 10.0846 11.008C10.0844 11.1116 10.0792 11.2149 10.0689 11.3179C10.0586 11.421 10.0433 11.5233 10.023 11.6249C10.0027 11.7264 9.97747 11.8267 9.94732 11.9258C9.91717 12.0249 9.88224 12.1222 9.84254 12.2179C9.80284 12.3136 9.75855 12.407 9.70968 12.4983C9.66081 12.5897 9.6076 12.6784 9.55003 12.7644C9.49246 12.8505 9.43081 12.9336 9.3651 13.0136C9.29939 13.0937 9.22991 13.1703 9.15668 13.2436C9.08345 13.3168 9.00681 13.3863 8.92677 13.452C8.84672 13.5177 8.76365 13.5793 8.67756 13.6369C8.59147 13.6945 8.50277 13.7477 8.41146 13.7966C8.32015 13.8454 8.22667 13.8897 8.13102 13.9294C8.03536 13.9691 7.938 14.0041 7.83892 14.0342C7.73984 14.0644 7.63952 14.0896 7.53797 14.1099C7.43642 14.1302 7.33412 14.1455 7.23106 14.1558C7.12801 14.1661 7.0247 14.1713 6.92113 14.1714ZM6.92113 8.06859C6.82483 8.06844 6.72876 8.07301 6.6329 8.0823C6.53705 8.0916 6.44189 8.10557 6.34741 8.12421C6.25293 8.14286 6.15959 8.16609 6.06739 8.19391C5.9752 8.22174 5.88459 8.25401 5.79557 8.29073C5.70654 8.32746 5.61953 8.36846 5.53454 8.41374C5.44955 8.45902 5.36698 8.50835 5.28683 8.56175C5.20669 8.61514 5.12935 8.67233 5.05483 8.73333C4.98031 8.79432 4.90895 8.85882 4.84077 8.92683C4.77258 8.99484 4.7079 9.06602 4.64671 9.14039C4.58553 9.21475 4.52813 9.29194 4.47453 9.37195C4.42093 9.45195 4.37138 9.53439 4.32588 9.61927C4.28038 9.70414 4.23916 9.79105 4.2022 9.87997C4.16524 9.9689 4.13273 10.0594 4.10467 10.1516C4.07662 10.2437 4.05314 10.337 4.03425 10.4314C4.01536 10.5258 4.00114 10.6209 3.9916 10.7168C3.98206 10.8126 3.97724 10.9087 3.97714 11.005C3.97704 11.1013 3.98166 11.1973 3.991 11.2932C4.00034 11.389 4.01436 11.4842 4.03306 11.5787C4.05175 11.6731 4.07504 11.7665 4.1029 11.8586C4.13077 11.9508 4.16309 12.0414 4.19986 12.1304C4.23664 12.2194 4.27768 12.3064 4.32301 12.3914C4.36833 12.4763 4.41771 12.5589 4.47114 12.639C4.52458 12.7191 4.58181 12.7964 4.64284 12.8709C4.70388 12.9454 4.76841 13.0167 4.83646 13.0849C4.9045 13.153 4.97572 13.2177 5.05011 13.2788C5.12451 13.34 5.20173 13.3973 5.28176 13.4509C5.36179 13.5045 5.44426 13.554 5.52916 13.5994C5.61406 13.6449 5.70098 13.686 5.78993 13.723C5.87888 13.7599 5.96942 13.7923 6.06156 13.8203C6.1537 13.8484 6.24698 13.8718 6.34142 13.8906C6.43586 13.9095 6.531 13.9236 6.62683 13.9331C6.72267 13.9426 6.81873 13.9474 6.91504 13.9474C7.01134 13.9475 7.10741 13.9428 7.20325 13.9334C7.2991 13.924 7.39425 13.91 7.48871 13.8912C7.58317 13.8725 7.67648 13.8491 7.76865 13.8212C7.86081 13.7933 7.95139 13.7609 8.04038 13.7241C8.12936 13.6873 8.21633 13.6462 8.30127 13.6009C8.38622 13.5555 8.46874 13.5061 8.54883 13.4526C8.62892 13.3991 8.70619 13.3418 8.78065 13.2808C8.85511 13.2197 8.9264 13.1551 8.99451 13.087C9.06263 13.019 9.12724 12.9477 9.18835 12.8733C9.24946 12.7989 9.30677 12.7216 9.36029 12.6415C9.41381 12.5615 9.46327 12.479 9.50868 12.3941C9.55409 12.3091 9.59523 12.2222 9.63209 12.1332C9.66896 12.0443 9.70137 11.9537 9.72934 11.8616C9.7573 11.7694 9.78068 11.6761 9.79947 11.5817C9.81827 11.4872 9.83239 11.3921 9.84183 11.2962C9.85127 11.2004 9.85599 11.1043 9.85599 11.008C9.85629 10.9116 9.85186 10.8154 9.84271 10.7194C9.83356 10.6234 9.81973 10.5281 9.80121 10.4335C9.78269 10.3389 9.75958 10.2454 9.73188 10.153C9.70418 10.0607 9.67202 9.96989 9.6354 9.8807C9.59877 9.7915 9.55787 9.70432 9.51268 9.61914C9.46749 9.53397 9.41824 9.45121 9.36492 9.37087C9.3116 9.29054 9.25447 9.21301 9.19354 9.13828C9.1326 9.06356 9.06815 8.992 9.00018 8.92361C8.93222 8.85522 8.86106 8.79033 8.78672 8.72893C8.71237 8.66753 8.6352 8.60992 8.55519 8.5561C8.47519 8.50229 8.39274 8.45252 8.30785 8.4068C8.22296 8.36109 8.13603 8.31964 8.04706 8.28247C7.95809 8.24529 7.86752 8.21257 7.77534 8.18429C7.68316 8.15602 7.58981 8.13233 7.49531 8.11322C7.4008 8.09412 7.30558 8.07969 7.20965 8.06995C7.11373 8.0602 7.01755 8.05517 6.92113 8.05487L6.92113 8.06859Z" fill="rgb(53,29,20)" fill-rule="nonzero" />
	<path id="path" d="M4.74515 10.9942C4.74515 11.0655 4.74864 11.1366 4.75563 11.2075C4.76261 11.2784 4.77306 11.3488 4.78696 11.4187C4.80086 11.4886 4.81816 11.5577 4.83885 11.6259C4.85953 11.6941 4.88351 11.7611 4.91079 11.8269C4.93806 11.8928 4.96849 11.9571 5.00209 12.02C5.03568 12.0828 5.07228 12.1439 5.11187 12.2031C5.15146 12.2624 5.19387 12.3196 5.23908 12.3746C5.28429 12.4297 5.33209 12.4825 5.38248 12.5329C5.43288 12.5833 5.48562 12.6311 5.54071 12.6763C5.5958 12.7215 5.65297 12.7639 5.71223 12.8035C5.77148 12.8431 5.83254 12.8797 5.89539 12.9133C5.95824 12.9469 6.02259 12.9773 6.08843 13.0046C6.15427 13.0318 6.22129 13.0558 6.28949 13.0765C6.35769 13.0972 6.42673 13.1145 6.49663 13.1284C6.56653 13.1423 6.63694 13.1527 6.70786 13.1597C6.77879 13.1667 6.84988 13.1702 6.92115 13.1702C6.99241 13.1702 7.06351 13.1667 7.13443 13.1597C7.20536 13.1527 7.27577 13.1423 7.34566 13.1284C7.41556 13.1145 7.48461 13.0972 7.55281 13.0765C7.62101 13.0558 7.68803 13.0318 7.75387 13.0046C7.81971 12.9773 7.88406 12.9469 7.94691 12.9133C8.00976 12.8797 8.07081 12.8431 8.13007 12.8035C8.18933 12.7639 8.2465 12.7215 8.30159 12.6763C8.35668 12.6311 8.40942 12.5833 8.45981 12.5329C8.51021 12.4825 8.55801 12.4297 8.60322 12.3746C8.64843 12.3196 8.69083 12.2624 8.73043 12.2031C8.77002 12.1439 8.80661 12.0828 8.84021 12.02C8.8738 11.9571 8.90424 11.8928 8.93151 11.8269C8.95878 11.7611 8.98276 11.6941 9.00345 11.6259C9.02414 11.5577 9.04143 11.4886 9.05534 11.4187C9.06924 11.3488 9.07969 11.2784 9.08667 11.2075C9.09365 11.1366 9.09715 11.0655 9.09715 10.9942C9.09718 10.9229 9.09372 10.8518 9.08677 10.7808C9.07981 10.7099 9.0694 10.6395 9.05552 10.5695C9.04164 10.4996 9.02437 10.4305 9.0037 10.3623C8.98303 10.2941 8.95907 10.227 8.93182 10.1612C8.90456 10.0953 8.87414 10.0309 8.84055 9.96802C8.80697 9.90514 8.77038 9.84406 8.73079 9.78477C8.69121 9.72548 8.64881 9.66828 8.6036 9.61316C8.55839 9.55804 8.51058 9.50527 8.46019 9.45485C8.40979 9.40443 8.35704 9.3566 8.30195 9.31136C8.24685 9.26613 8.18967 9.2237 8.1304 9.18408C8.07113 9.14447 8.01007 9.10785 7.9472 9.07423C7.88433 9.04062 7.81997 9.01017 7.75411 8.98288C7.68825 8.95559 7.62122 8.93159 7.553 8.91089C7.48478 8.89019 7.41571 8.87289 7.3458 8.85898C7.27588 8.84506 7.20545 8.83461 7.1345 8.82762C7.06355 8.82063 6.99244 8.81714 6.92115 8.81714C6.84986 8.81714 6.77874 8.82063 6.7078 8.82762C6.63685 8.83461 6.56642 8.84506 6.4965 8.85898C6.42658 8.87289 6.35752 8.89019 6.2893 8.91089C6.22108 8.93159 6.15404 8.95559 6.08818 8.98288C6.02232 9.01017 5.95796 9.04062 5.8951 9.07423C5.83223 9.10785 5.77116 9.14447 5.7119 9.18408C5.65263 9.2237 5.59545 9.26613 5.54035 9.31136C5.48525 9.3566 5.4325 9.40443 5.38211 9.45485C5.33171 9.50527 5.28391 9.55804 5.2387 9.61316C5.19349 9.66828 5.15109 9.72548 5.1115 9.78477C5.07191 9.84406 5.03533 9.90514 5.00174 9.96802C4.96816 10.0309 4.93774 10.0953 4.91048 10.1612C4.88322 10.227 4.85926 10.2941 4.8386 10.3623C4.81793 10.4305 4.80066 10.4996 4.78678 10.5695C4.7729 10.6395 4.76248 10.7099 4.75553 10.7808C4.74857 10.8518 4.74511 10.9229 4.74515 10.9942Z" fill="rgb(53,29,20)" fill-rule="nonzero" />
	<path id="path" d="M6.15314 10.9898C6.15314 11.0453 6.15855 11.1003 6.16939 11.1547C6.18022 11.2092 6.19626 11.2621 6.21751 11.3134C6.23876 11.3647 6.26481 11.4134 6.29567 11.4596C6.32652 11.5058 6.36158 11.5485 6.40084 11.5878C6.44011 11.627 6.48283 11.6621 6.529 11.6929C6.57517 11.7238 6.62391 11.7498 6.67521 11.7711C6.72651 11.7923 6.7794 11.8084 6.83386 11.8192C6.88832 11.8301 6.94332 11.8355 6.99885 11.8355C7.05438 11.8355 7.10938 11.8301 7.16384 11.8192C7.21831 11.8084 7.27119 11.7923 7.32249 11.7711C7.3738 11.7498 7.42253 11.7238 7.46871 11.6929C7.51488 11.6621 7.5576 11.627 7.59686 11.5878C7.63613 11.5485 7.67119 11.5058 7.70204 11.4596C7.73289 11.4134 7.75894 11.3647 7.78019 11.3134C7.80144 11.2621 7.81748 11.2092 7.82832 11.1547C7.83915 11.1003 7.84457 11.0453 7.84457 10.9898C7.84457 10.9342 7.83915 10.8792 7.82832 10.8248C7.81748 10.7703 7.80144 10.7174 7.78019 10.6661C7.75894 10.6148 7.73289 10.5661 7.70204 10.5199C7.67119 10.4737 7.63613 10.431 7.59686 10.3917C7.5576 10.3525 7.51488 10.3174 7.46871 10.2866C7.42253 10.2557 7.3738 10.2297 7.32249 10.2084C7.27119 10.1872 7.21831 10.1711 7.16384 10.1603C7.10938 10.1495 7.05438 10.144 6.99885 10.144C6.94332 10.144 6.88832 10.1495 6.83386 10.1603C6.7794 10.1711 6.72651 10.1872 6.67521 10.2084C6.62391 10.2297 6.57517 10.2557 6.529 10.2866C6.48283 10.3174 6.44011 10.3525 6.40084 10.3917C6.36158 10.431 6.32652 10.4737 6.29567 10.5199C6.26481 10.5661 6.23876 10.6148 6.21751 10.6661C6.19626 10.7174 6.18022 10.7703 6.16939 10.8248C6.15855 10.8792 6.15314 10.9342 6.15314 10.9898Z" fill="rgb(255,255,255)" fill-rule="nonzero" />
	<path id="path" d="M5.44916 11.2868C5.44911 11.3238 5.45615 11.3594 5.47027 11.3936C5.4844 11.4279 5.50454 11.4581 5.5307 11.4842C5.55685 11.5104 5.58702 11.5306 5.62121 11.5448C5.6554 11.559 5.691 11.5661 5.72801 11.5661C5.76503 11.5661 5.80063 11.559 5.83482 11.5448C5.86901 11.5306 5.89918 11.5104 5.92533 11.4842C5.95149 11.4581 5.97163 11.4279 5.98576 11.3936C5.99988 11.3594 6.00692 11.3238 6.00687 11.2868C6.00692 11.2498 5.99988 11.2142 5.98576 11.18C5.97163 11.1458 5.95149 11.1156 5.92533 11.0894C5.89918 11.0632 5.86901 11.043 5.83482 11.0288C5.80063 11.0147 5.76503 11.0076 5.72801 11.0076C5.691 11.0076 5.6554 11.0147 5.62121 11.0288C5.58702 11.043 5.55685 11.0632 5.5307 11.0894C5.50454 11.1156 5.4844 11.1458 5.47027 11.18C5.45615 11.2142 5.44911 11.2498 5.44916 11.2868Z" fill="rgb(255,255,255)" fill-rule="nonzero" />
	<path id="path" d="M5.61827 12.8548C5.74408 12.9657 5.88601 13.0492 6.04408 13.1053C6.20214 13.1615 6.36497 13.1861 6.53256 13.1793C6.72969 13.1787 6.92473 13.1985 7.1177 13.2388C7.15929 13.2508 7.19839 13.2683 7.23499 13.2914C7.2716 13.3145 7.30426 13.3422 7.33299 13.3746C7.36172 13.407 7.38538 13.4427 7.40396 13.4818C7.42254 13.5209 7.43531 13.5618 7.44227 13.6045C7.44227 13.7553 7.44227 13.9839 7.03542 14.0205C6.84037 14.0019 6.64532 14.0019 6.45027 14.0205C6.38673 14.0462 6.33174 14.0842 6.28531 14.1347C6.23889 14.1851 6.20549 14.243 6.18513 14.3085C6.15032 14.4441 6.15032 14.5797 6.18513 14.7153C6.24565 14.8936 6.24565 15.0719 6.18513 15.2502C6.15311 15.3025 6.10913 15.3411 6.0532 15.3662C5.99727 15.3912 5.93915 15.3983 5.87884 15.3873C5.83275 15.385 5.78887 15.3739 5.7472 15.354C5.70553 15.3342 5.66926 15.3071 5.63838 15.2728C5.60751 15.2385 5.58438 15.1996 5.56902 15.156C5.55365 15.1125 5.54721 15.0677 5.5497 15.0216C5.55211 14.8944 5.57497 14.771 5.61827 14.6513C5.65042 14.5145 5.66413 14.3758 5.65942 14.2353C5.65187 14.1178 5.61377 14.0111 5.54513 13.9153C5.47275 13.833 5.38742 13.7674 5.28913 13.7188C5.06029 13.5861 4.88048 13.4047 4.7497 13.1748C4.63084 12.9462 4.4937 12.5851 4.70399 12.3839C4.73778 12.3506 4.77664 12.3249 4.82057 12.3068C4.8645 12.2888 4.91021 12.2798 4.9577 12.2798C5.00519 12.2798 5.0509 12.2888 5.09483 12.3068C5.13876 12.3249 5.17762 12.3506 5.21142 12.3839C5.33337 12.5527 5.46899 12.7096 5.61827 12.8548Z" fill="rgb(140,219,244)" fill-rule="nonzero" />
	<path id="path" d="M15.3006 17.7326C15.1458 17.7343 14.9978 17.7036 14.8565 17.6406C14.7152 17.5775 14.5935 17.4878 14.4914 17.3714C14.4722 17.3466 14.4515 17.3229 14.4296 17.3005C14.4076 17.278 14.3844 17.2568 14.36 17.237C14.3357 17.2171 14.3102 17.1987 14.2838 17.1818C14.2573 17.1648 14.2299 17.1494 14.2017 17.1356C14.1734 17.1218 14.1445 17.1096 14.1149 17.0991C14.0853 17.0885 14.0552 17.0797 14.0245 17.0726C13.9939 17.0655 13.963 17.0602 13.9317 17.0566C13.9005 17.053 13.8692 17.0513 13.8377 17.0513C13.8063 17.0513 13.7749 17.053 13.7437 17.0566C13.7125 17.0602 13.6815 17.0655 13.6509 17.0726C13.6203 17.0797 13.5902 17.0885 13.5605 17.0991C13.5309 17.1096 13.502 17.1218 13.4738 17.1356C13.4455 17.1494 13.4182 17.1648 13.3917 17.1818C13.3652 17.1987 13.3398 17.2171 13.3154 17.237C13.291 17.2568 13.2678 17.278 13.2459 17.3005C13.2239 17.3229 13.2033 17.3466 13.184 17.3714C13.1594 17.4013 13.1333 17.4297 13.1056 17.4566C13.0778 17.4836 13.0487 17.5089 13.0182 17.5327C12.9877 17.5564 12.956 17.5784 12.923 17.5986C12.8901 17.6189 12.8561 17.6372 12.8212 17.6537C12.7862 17.6702 12.7504 17.6847 12.7139 17.6973C12.6773 17.7098 12.6402 17.7203 12.6024 17.7288C12.5647 17.7372 12.5266 17.7436 12.4882 17.7478C12.4498 17.7521 12.4112 17.7542 12.3726 17.7542C12.3339 17.7542 12.2954 17.7521 12.257 17.7478C12.2185 17.7436 12.1805 17.7372 12.1427 17.7288C12.105 17.7203 12.0679 17.7098 12.0313 17.6973C11.9947 17.6847 11.959 17.6702 11.924 17.6537C11.889 17.6372 11.8551 17.6189 11.8221 17.5986C11.7892 17.5784 11.7575 17.5564 11.727 17.5327C11.6964 17.5089 11.6673 17.4836 11.6396 17.4566C11.6119 17.4297 11.5857 17.4013 11.5612 17.3714C11.542 17.3466 11.5215 17.323 11.4996 17.3005C11.4778 17.278 11.4547 17.2569 11.4304 17.237C11.4061 17.2172 11.3808 17.1988 11.3544 17.1818C11.328 17.1649 11.3008 17.1495 11.2726 17.1357C11.2445 17.1218 11.2157 17.1097 11.1861 17.0991C11.1566 17.0886 11.1266 17.0798 11.096 17.0727C11.0655 17.0656 11.0346 17.0602 11.0035 17.0567C10.9723 17.0531 10.9411 17.0513 10.9097 17.0513C10.8784 17.0513 10.8471 17.0531 10.816 17.0567C10.7848 17.0602 10.754 17.0656 10.7234 17.0727C10.6929 17.0798 10.6628 17.0886 10.6333 17.0991C10.6038 17.1097 10.5749 17.1218 10.5468 17.1357C10.5187 17.1495 10.4914 17.1649 10.465 17.1818C10.4386 17.1988 10.4133 17.2172 10.389 17.237C10.3648 17.2569 10.3417 17.278 10.3198 17.3005C10.298 17.323 10.2775 17.3466 10.2583 17.3714C10.2337 17.4013 10.2076 17.4297 10.1798 17.4566C10.1521 17.4836 10.123 17.5089 10.0925 17.5327C10.062 17.5564 10.0303 17.5784 9.99732 17.5986C9.96438 17.6189 9.93042 17.6372 9.89546 17.6537C9.86049 17.6702 9.82473 17.6847 9.78816 17.6973C9.75159 17.7098 9.71445 17.7203 9.67672 17.7288C9.639 17.7372 9.60092 17.7436 9.5625 17.7478C9.52407 17.7521 9.48553 17.7542 9.44687 17.7542C9.40821 17.7542 9.36966 17.7521 9.33124 17.7478C9.29281 17.7436 9.25474 17.7372 9.21701 17.7288C9.17929 17.7203 9.14214 17.7098 9.10557 17.6973C9.06901 17.6847 9.03324 17.6702 8.99827 17.6537C8.96331 17.6372 8.92936 17.6189 8.89642 17.5986C8.86348 17.5784 8.83175 17.5564 8.80124 17.5327C8.77073 17.5089 8.74161 17.4836 8.71389 17.4566C8.68618 17.4297 8.66002 17.4013 8.63544 17.3714C8.55648 17.2724 8.4602 17.1949 8.34661 17.1389C8.23302 17.0829 8.11292 17.0538 7.9863 17.0514C7.97114 17.0514 7.95656 17.0485 7.94256 17.0427C7.92856 17.0369 7.9162 17.0287 7.90548 17.018C7.89477 17.0073 7.88651 16.9949 7.88071 16.9809C7.87491 16.9669 7.87201 16.9523 7.87201 16.9372C7.87201 16.922 7.87491 16.9074 7.88071 16.8934C7.88651 16.8794 7.89477 16.8671 7.90548 16.8563C7.9162 16.8456 7.92856 16.8374 7.94256 16.8316C7.95656 16.8258 7.97114 16.8229 7.9863 16.8229C8.1426 16.8252 8.29137 16.8599 8.4326 16.9269C8.57382 16.994 8.69477 17.0873 8.79544 17.2069C8.81459 17.2317 8.8351 17.2553 8.85696 17.2778C8.87882 17.3003 8.90189 17.3215 8.92617 17.3413C8.95045 17.3611 8.97578 17.3795 9.00216 17.3965C9.02855 17.4134 9.05581 17.4288 9.08395 17.4426C9.11209 17.4565 9.14092 17.4687 9.17046 17.4792C9.19999 17.4897 9.23003 17.4985 9.26057 17.5056C9.29111 17.5127 9.32196 17.5181 9.35311 17.5216C9.38426 17.5252 9.41551 17.527 9.44687 17.527C9.47822 17.527 9.50947 17.5252 9.54062 17.5216C9.57178 17.5181 9.60262 17.5127 9.63316 17.5056C9.6637 17.4985 9.69374 17.4897 9.72327 17.4792C9.75281 17.4687 9.78164 17.4565 9.80978 17.4426C9.83792 17.4288 9.86519 17.4134 9.89157 17.3965C9.91795 17.3795 9.94328 17.3611 9.96756 17.3413C9.99184 17.3215 10.0149 17.3003 10.0368 17.2778C10.0586 17.2553 10.0791 17.2317 10.0983 17.2069C10.1229 17.177 10.149 17.1486 10.1767 17.1217C10.2045 17.0947 10.2336 17.0694 10.2641 17.0457C10.2946 17.0219 10.3263 16.9999 10.3593 16.9797C10.3922 16.9594 10.4262 16.9411 10.4611 16.9246C10.4961 16.9081 10.5319 16.8936 10.5684 16.881C10.605 16.8685 10.6421 16.858 10.6799 16.8495C10.7176 16.8411 10.7557 16.8347 10.7941 16.8305C10.8325 16.8262 10.8711 16.8241 10.9097 16.8241C10.9484 16.8241 10.9869 16.8262 11.0254 16.8305C11.0638 16.8347 11.1019 16.8411 11.1396 16.8495C11.1773 16.858 11.2145 16.8685 11.251 16.881C11.2876 16.8936 11.3233 16.9081 11.3583 16.9246C11.3933 16.9411 11.4272 16.9594 11.4602 16.9797C11.4931 16.9999 11.5248 17.0219 11.5554 17.0457C11.5859 17.0694 11.615 17.0947 11.6427 17.1217C11.6704 17.1486 11.6966 17.177 11.7212 17.2069C11.7403 17.2317 11.7608 17.2553 11.7827 17.2778C11.8045 17.3003 11.8276 17.3215 11.8519 17.3413C11.8762 17.3611 11.9015 17.3795 11.9279 17.3965C11.9543 17.4134 11.9815 17.4288 12.0097 17.4426C12.0378 17.4565 12.0666 17.4687 12.0962 17.4792C12.1257 17.4897 12.1557 17.4985 12.1863 17.5056C12.2168 17.5127 12.2477 17.5181 12.2788 17.5216C12.31 17.5252 12.3412 17.527 12.3726 17.527C12.4039 17.527 12.4352 17.5252 12.4663 17.5216C12.4975 17.5181 12.5283 17.5127 12.5589 17.5056C12.5894 17.4985 12.6195 17.4897 12.649 17.4792C12.6785 17.4687 12.7074 17.4565 12.7355 17.4426C12.7636 17.4288 12.7909 17.4134 12.8173 17.3965C12.8437 17.3795 12.869 17.3611 12.8933 17.3413C12.9176 17.3215 12.9406 17.3003 12.9625 17.2778C12.9843 17.2553 13.0049 17.2317 13.024 17.2069C13.0486 17.177 13.0747 17.1486 13.1025 17.1217C13.1302 17.0947 13.1593 17.0694 13.1898 17.0457C13.2203 17.0219 13.252 16.9999 13.285 16.9797C13.3179 16.9594 13.3519 16.9411 13.3868 16.9246C13.4218 16.9081 13.4576 16.8936 13.4941 16.881C13.5307 16.8685 13.5679 16.858 13.6056 16.8495C13.6433 16.8411 13.6814 16.8347 13.7198 16.8305C13.7582 16.8262 13.7968 16.8241 13.8354 16.8241C13.8741 16.8241 13.9126 16.8262 13.9511 16.8305C13.9895 16.8347 14.0276 16.8411 14.0653 16.8495C14.103 16.858 14.1402 16.8685 14.1767 16.881C14.2133 16.8936 14.2491 16.9081 14.284 16.9246C14.319 16.9411 14.3529 16.9594 14.3859 16.9797C14.4188 16.9999 14.4506 17.0219 14.4811 17.0457C14.5116 17.0694 14.5407 17.0947 14.5684 17.1217C14.5961 17.1486 14.6223 17.177 14.6469 17.2069C14.6661 17.2317 14.6868 17.2554 14.7087 17.2779C14.7307 17.3003 14.7539 17.3215 14.7783 17.3414C14.8026 17.3612 14.8281 17.3796 14.8546 17.3965C14.881 17.4135 14.9084 17.4289 14.9366 17.4427C14.9649 17.4565 14.9938 17.4687 15.0234 17.4793C15.053 17.4898 15.0832 17.4986 15.1138 17.5057C15.1444 17.5128 15.1753 17.5181 15.2066 17.5217C15.2378 17.5253 15.2691 17.5271 15.3006 17.5271C15.332 17.5271 15.3634 17.5253 15.3946 17.5217C15.4258 17.5181 15.4568 17.5128 15.4874 17.5057C15.518 17.4986 15.5481 17.4898 15.5778 17.4793C15.6074 17.4687 15.6363 17.4565 15.6645 17.4427C15.6928 17.4289 15.7201 17.4135 15.7466 17.3965C15.7731 17.3796 15.7985 17.3612 15.8229 17.3414C15.8473 17.3215 15.8705 17.3003 15.8924 17.2779C15.9144 17.2554 15.935 17.2317 15.9543 17.2069C16.0559 17.0872 16.1776 16.9938 16.3196 16.9268C16.4616 16.8598 16.611 16.8252 16.768 16.8229C16.7832 16.8229 16.7977 16.8258 16.8117 16.8316C16.8257 16.8374 16.8381 16.8456 16.8488 16.8563C16.8595 16.8671 16.8678 16.8794 16.8736 16.8934C16.8794 16.9074 16.8823 16.922 16.8823 16.9372C16.8823 16.9523 16.8794 16.9669 16.8736 16.9809C16.8678 16.9949 16.8595 17.0073 16.8488 17.018C16.8381 17.0287 16.8257 17.0369 16.8117 17.0427C16.7977 17.0485 16.7832 17.0514 16.768 17.0514C16.6408 17.054 16.5201 17.0833 16.4058 17.1393C16.2915 17.1952 16.1944 17.2726 16.1143 17.3714C16.0115 17.4881 15.8891 17.578 15.747 17.6411C15.6049 17.7042 15.4561 17.7347 15.3006 17.7326ZM17.4949 5.94287C17.6533 6.00108 17.7981 6.08336 17.9292 6.18973C18.0388 6.30257 18.1576 6.40466 18.2857 6.49601C18.4129 6.57568 18.5486 6.63663 18.6926 6.67887C18.8333 6.71862 18.9766 6.73234 19.1223 6.72001C19.3068 6.71074 19.4881 6.73055 19.6663 6.77944C19.8466 6.83354 20.0081 6.92192 20.1509 7.04459C20.2777 7.16419 20.3813 7.30134 20.4617 7.45601C20.5476 7.58862 20.6452 7.71205 20.7543 7.8263L20.7543 7.8583C20.5696 7.84429 20.402 7.78334 20.2514 7.67544C20.1006 7.56573 20 7.45601 19.8903 7.39658C19.7725 7.32215 19.6505 7.25511 19.5246 7.19544C19.4005 7.12732 19.268 7.0877 19.1269 7.07659C18.9456 7.06483 18.7718 7.02217 18.6057 6.94859C18.4393 6.87677 18.2869 6.78229 18.1486 6.66516C18.0296 6.54687 17.9244 6.41735 17.8332 6.27659C17.7309 6.15641 17.612 6.05584 17.4766 5.97487L17.4766 5.94287L17.4949 5.94287ZM7.15887 6.20801C7.01793 6.2984 6.86555 6.36087 6.70172 6.39544C6.54672 6.41494 6.39434 6.44694 6.24458 6.49144C6.10257 6.54176 5.97 6.61033 5.84687 6.69716C5.72789 6.78172 5.62884 6.88534 5.54972 7.00801C5.44378 7.15933 5.31578 7.28885 5.16572 7.39658C5.01212 7.50566 4.84298 7.5788 4.6583 7.61601C4.4861 7.6446 4.31391 7.6446 4.14172 7.61601C3.98934 7.60327 3.83696 7.60327 3.68458 7.61601C3.67602 7.61613 3.66895 7.61294 3.66337 7.60644C3.6578 7.59993 3.65572 7.59246 3.65715 7.58401C3.78292 7.44662 3.93531 7.35214 4.1143 7.30058C4.2686 7.27202 4.42098 7.23545 4.57144 7.19087C4.6903 7.14516 4.82744 7.0903 4.95544 7.03087C5.08492 6.9715 5.19768 6.88921 5.29372 6.78401C5.41699 6.65166 5.5587 6.54347 5.71887 6.45944C5.87507 6.37774 6.03964 6.31984 6.21258 6.28573C6.37868 6.2698 6.54477 6.2698 6.71087 6.28573C6.86937 6.28287 7.02175 6.25087 7.16801 6.18973C7.17868 6.18207 7.18934 6.18207 7.20001 6.18973L7.15887 6.20801Z" fill="rgb(53,29,20)" fill-rule="nonzero" />
</svg>
