<svg viewBox="0 0 64 64" xmlns="http://www.w3.org/2000/svg" xmlns:xlink="http://www.w3.org/1999/xlink" width="64.000000" height="64.000000" fill="none">
    <rect id="svg" width="64.000000" height="64.000000" x="0.000000" y="0.000000" />
    <path id="path" d="M54.5 26C54.5 25.8687 54.5128 25.7386 54.5384 25.6098C54.564 25.481 54.602 25.356 54.6522 25.2346C54.7025 25.1133 54.7641 24.998 54.8371 24.8889C54.91 24.7797 54.9929 24.6786 55.0858 24.5858C55.1786 24.4929 55.2797 24.41 55.3889 24.3371C55.4981 24.2641 55.6133 24.2025 55.7346 24.1522C55.856 24.102 55.981 24.064 56.1098 24.0384C56.2386 24.0128 56.3687 24 56.5 24C56.6313 24 56.7614 24.0128 56.8902 24.0384C57.019 24.064 57.144 24.102 57.2654 24.1522C57.3867 24.2025 57.5019 24.2641 57.6111 24.3371C57.7203 24.41 57.8214 24.4929 57.9142 24.5858C58.0071 24.6786 58.09 24.7797 58.1629 24.8889C58.2359 24.998 58.2975 25.1133 58.3478 25.2346C58.398 25.356 58.436 25.481 58.4616 25.6098C58.4872 25.7386 58.5 25.8687 58.5 26C58.6313 26 58.7614 26.0128 58.8902 26.0384C59.019 26.064 59.144 26.102 59.2654 26.1522C59.3867 26.2025 59.5019 26.2641 59.6111 26.3371C59.7203 26.41 59.8214 26.4929 59.9142 26.5858C60.0071 26.6786 60.09 26.7797 60.1629 26.8889C60.2359 26.998 60.2975 27.1133 60.3478 27.2346C60.398 27.356 60.436 27.481 60.4616 27.6098C60.4872 27.7386 60.5 27.8687 60.5 28C60.5 28.1313 60.4872 28.2614 60.4616 28.3902C60.436 28.519 60.398 28.644 60.3478 28.7654C60.2975 28.8867 60.2359 29.0019 60.1629 29.1111C60.09 29.2203 60.0071 29.3214 59.9142 29.4142C59.8214 29.5071 59.7203 29.59 59.6111 29.6629C59.5019 29.7359 59.3867 29.7975 59.2654 29.8478C59.144 29.898 59.019 29.936 58.8902 29.9616C58.7614 29.9872 58.6313 30 58.5 30L54.5 30C54.3687 30 54.2386 29.9872 54.1098 29.9616C53.981 29.936 53.856 29.898 53.7346 29.8478C53.6133 29.7975 53.4981 29.7359 53.3889 29.6629C53.2797 29.59 53.1786 29.5071 53.0858 29.4142C52.9929 29.3214 52.91 29.2203 52.8371 29.1111C52.7641 29.0019 52.7025 28.8867 52.6522 28.7654C52.602 28.644 52.564 28.519 52.5384 28.3902C52.5128 28.2614 52.5 28.1313 52.5 28C52.5 27.8687 52.5128 27.7386 52.5384 27.6098C52.564 27.481 52.602 27.356 52.6522 27.2346C52.7025 27.1133 52.7641 26.998 52.8371 26.8889C52.91 26.7797 52.9929 26.6786 53.0858 26.5858C53.1786 26.4929 53.2797 26.41 53.3889 26.3371C53.4981 26.2641 53.6133 26.2025 53.7346 26.1522C53.856 26.102 53.981 26.064 54.1098 26.0384C54.2386 26.0128 54.3687 26 54.5 26Z" fill="rgb(79,195,247)" fill-rule="nonzero" />
    <path id="path" d="M25.315 43.719C25.2328 43.469 25.1142 43.2377 24.9589 43.0252C24.8037 42.8126 24.6196 42.6292 24.4064 42.4749C24.1933 42.3205 23.9615 42.2028 23.7112 42.1217C23.4609 42.0406 23.2041 42 22.941 42L13.75 42L13.75 27.5L7.75 27.5L7.75 49C7.75 49.1642 7.76601 49.3267 7.79804 49.4877C7.83006 49.6487 7.87748 49.805 7.9403 49.9567C8.00312 50.1084 8.08013 50.2524 8.17133 50.3889C8.26252 50.5254 8.36616 50.6517 8.48223 50.7678C8.59831 50.8838 8.72459 50.9875 8.86107 51.0787C8.99756 51.1699 9.14163 51.2469 9.29329 51.3097C9.44495 51.3725 9.60128 51.4199 9.76227 51.452C9.92327 51.484 10.0858 51.5 10.25 51.5L10.75 51.5C10.75 51.2871 10.7604 51.0747 10.7813 50.8629C10.8022 50.651 10.8334 50.4407 10.8749 50.2319C10.9164 50.0231 10.9681 49.8169 11.0299 49.6131C11.0917 49.4094 11.1633 49.2092 11.2448 49.0126C11.3262 48.8159 11.4172 48.6237 11.5175 48.4359C11.6179 48.2482 11.7272 48.0658 11.8454 47.8888C11.9637 47.7118 12.0904 47.541 12.2254 47.3764C12.3605 47.2119 12.5033 47.0543 12.6538 46.9038C12.8043 46.7533 12.9619 46.6105 13.1264 46.4754C13.291 46.3404 13.4618 46.2137 13.6388 46.0954C13.8158 45.9772 13.9982 45.8679 14.1859 45.7675C14.3737 45.6672 14.5659 45.5762 14.7626 45.4948C14.9592 45.4133 15.1594 45.3417 15.3631 45.2799C15.5669 45.2181 15.7731 45.1664 15.9819 45.1249C16.1907 45.0834 16.401 45.0522 16.6129 45.0313C16.8247 45.0104 17.0371 45 17.25 45C17.4629 45 17.6753 45.0104 17.8871 45.0313C18.099 45.0522 18.3093 45.0834 18.5181 45.1249C18.7269 45.1664 18.9331 45.2181 19.1368 45.2799C19.3406 45.3417 19.5408 45.4133 19.7374 45.4948C19.9341 45.5762 20.1263 45.6672 20.3141 45.7675C20.5018 45.8679 20.6842 45.9772 20.8612 46.0954C21.0382 46.2137 21.209 46.3404 21.3736 46.4754C21.5381 46.6105 21.6957 46.7533 21.8462 46.9038C21.9967 47.0543 22.1395 47.2119 22.2746 47.3764C22.4096 47.541 22.5363 47.7118 22.6545 47.8888C22.7728 48.0658 22.8821 48.2482 22.9825 48.4359C23.0828 48.6237 23.1737 48.8159 23.2552 49.0126C23.3367 49.2092 23.4083 49.4094 23.4701 49.6131C23.5319 49.8169 23.5836 50.0231 23.6251 50.2319C23.6666 50.4407 23.6978 50.651 23.7187 50.8629C23.7396 51.0747 23.75 51.2871 23.75 51.5L27.874 51.5L25.315 43.719Z" fill="rgb(255,82,82)" fill-rule="nonzero" />
    <path id="path" d="M25 16.5L23 16.5C22.9337 16.5 22.8699 16.4873 22.8087 16.4619C22.7474 16.4366 22.6933 16.4004 22.6464 16.3536C22.5996 16.3067 22.5634 16.2526 22.5381 16.1913C22.5127 16.1301 22.5 16.0663 22.5 16C22.5 15.9337 22.5127 15.8699 22.5381 15.8087C22.5634 15.7474 22.5996 15.6933 22.6464 15.6464C22.6933 15.5996 22.7474 15.5634 22.8087 15.5381C22.8699 15.5127 22.9337 15.5 23 15.5L25 15.5C25.0663 15.5 25.1301 15.5127 25.1913 15.5381C25.2526 15.5634 25.3067 15.5996 25.3535 15.6464C25.4004 15.6933 25.4366 15.7474 25.4619 15.8087C25.4873 15.8699 25.5 15.9337 25.5 16C25.5 16.0663 25.4873 16.1301 25.4619 16.1913C25.4366 16.2526 25.4004 16.3067 25.3535 16.3536C25.3067 16.4004 25.2526 16.4366 25.1913 16.4619C25.1301 16.4873 25.0663 16.5 25 16.5ZM38 16.5L27 16.5C26.9337 16.5 26.8699 16.4873 26.8087 16.4619C26.7474 16.4366 26.6933 16.4004 26.6464 16.3536C26.5996 16.3067 26.5634 16.2526 26.5381 16.1913C26.5127 16.1301 26.5 16.0663 26.5 16C26.5 15.9337 26.5127 15.8699 26.5381 15.8087C26.5634 15.7474 26.5996 15.6933 26.6464 15.6464C26.6933 15.5996 26.7474 15.5634 26.8087 15.5381C26.8699 15.5127 26.9337 15.5 27 15.5L38 15.5C38.0663 15.5 38.1301 15.5127 38.1913 15.5381C38.2526 15.5634 38.3067 15.5996 38.3535 15.6464C38.4004 15.6933 38.4366 15.7474 38.4619 15.8087C38.4873 15.8699 38.5 15.9337 38.5 16C38.5 16.0663 38.4873 16.1301 38.4619 16.1913C38.4366 16.2526 38.4004 16.3067 38.3535 16.3536C38.3067 16.4004 38.2526 16.4366 38.1913 16.4619C38.1301 16.4873 38.0663 16.5 38 16.5ZM43 13.5L31 13.5C30.9337 13.5 30.8699 13.4873 30.8087 13.4619C30.7474 13.4366 30.6933 13.4004 30.6464 13.3536C30.5996 13.3067 30.5634 13.2526 30.5381 13.1913C30.5127 13.1301 30.5 13.0663 30.5 13C30.5 12.9337 30.5127 12.8699 30.5381 12.8087C30.5634 12.7474 30.5996 12.6933 30.6464 12.6464C30.6933 12.5996 30.7474 12.5634 30.8087 12.5381C30.8699 12.5127 30.9337 12.5 31 12.5L43 12.5C43.0663 12.5 43.1301 12.5127 43.1913 12.5381C43.2526 12.5634 43.3067 12.5996 43.3535 12.6464C43.4004 12.6933 43.4366 12.7474 43.4619 12.8087C43.4873 12.8699 43.5 12.9337 43.5 13C43.5 13.0663 43.4873 13.1301 43.4619 13.1913C43.4366 13.2526 43.4004 13.3067 43.3535 13.3536C43.3067 13.4004 43.2526 13.4366 43.1913 13.4619C43.1301 13.4873 43.0663 13.5 43 13.5ZM3.5 58.5L0.5 58.5C0.433696 58.5 0.369915 58.4873 0.308658 58.4619C0.247401 58.4366 0.193331 58.4004 0.146447 58.3536C0.0995625 58.3067 0.0634337 58.2526 0.0380602 58.1913C0.0126867 58.1301 0 58.0663 0 58C0 57.9337 0.0126867 57.8699 0.0380602 57.8087C0.0634337 57.7474 0.0995625 57.6933 0.146447 57.6464C0.193331 57.5996 0.247401 57.5634 0.308658 57.5381C0.369915 57.5127 0.433696 57.5 0.5 57.5L3.5 57.5C3.5663 57.5 3.63008 57.5127 3.69134 57.5381C3.7526 57.5634 3.80667 57.5996 3.85355 57.6464C3.90044 57.6933 3.93657 57.7474 3.96194 57.8087C3.98731 57.8699 4 57.9337 4 58C4 58.0663 3.98731 58.1301 3.96194 58.1913C3.93657 58.2526 3.90044 58.3067 3.85355 58.3536C3.80667 58.4004 3.7526 58.4366 3.69134 58.4619C3.63008 58.4873 3.5663 58.5 3.5 58.5ZM63.5 58.5L5.5 58.5C5.43369 58.5 5.36991 58.4873 5.30866 58.4619C5.2474 58.4366 5.19333 58.4004 5.14645 58.3536C5.09956 58.3067 5.06343 58.2526 5.03806 58.1913C5.01269 58.1301 5 58.0663 5 58C5 57.9337 5.01269 57.8699 5.03806 57.8087C5.06343 57.7474 5.09956 57.6933 5.14645 57.6464C5.19333 57.5996 5.2474 57.5634 5.30866 57.5381C5.36991 57.5127 5.43369 57.5 5.5 57.5L63.5 57.5C63.5663 57.5 63.6301 57.5127 63.6913 57.5381C63.7526 57.5634 63.8067 57.5996 63.8535 57.6464C63.9004 57.6933 63.9366 57.7474 63.9619 57.8087C63.9873 57.8699 64 57.9337 64 58C64 58.0663 63.9873 58.1301 63.9619 58.1913C63.9366 58.2526 63.9004 58.3067 63.8535 58.3536C63.8067 58.4004 63.7526 58.4366 63.6913 58.4619C63.6301 58.4873 63.5663 58.5 63.5 58.5Z" fill="rgb(38,50,56)" fill-rule="nonzero" />
    <path id="path" d="M8.5 9C8.5 8.80302 8.51921 8.60793 8.55764 8.41473C8.59607 8.22153 8.65298 8.03394 8.72836 7.85195C8.80374 7.66996 8.89615 7.49707 9.00559 7.33329C9.11503 7.1695 9.23939 7.01797 9.37868 6.87868C9.51797 6.73939 9.6695 6.61503 9.83329 6.50559C9.99707 6.39615 10.17 6.30374 10.3519 6.22836C10.5339 6.15298 10.7215 6.09607 10.9147 6.05764C11.1079 6.01921 11.303 6 11.5 6C11.697 6 11.8921 6.01921 12.0853 6.05764C12.2785 6.09607 12.4661 6.15298 12.648 6.22836C12.83 6.30374 13.0029 6.39615 13.1667 6.50559C13.3305 6.61503 13.482 6.73939 13.6213 6.87868C13.7606 7.01797 13.885 7.1695 13.9944 7.33329C14.1038 7.49707 14.1963 7.66996 14.2716 7.85195C14.347 8.03394 14.4039 8.22153 14.4424 8.41473C14.4808 8.60793 14.5 8.80302 14.5 9C14.697 9 14.8921 9.01921 15.0853 9.05764C15.2785 9.09607 15.4661 9.15298 15.648 9.22836C15.83 9.30374 16.0029 9.39615 16.1667 9.50559C16.3305 9.61503 16.482 9.73939 16.6213 9.87868C16.7606 10.018 16.885 10.1695 16.9944 10.3333C17.1038 10.4971 17.1963 10.67 17.2716 10.8519C17.347 11.0339 17.4039 11.2215 17.4424 11.4147C17.4808 11.6079 17.5 11.803 17.5 12C17.5 12.197 17.4808 12.3921 17.4424 12.5853C17.4039 12.7785 17.347 12.9661 17.2716 13.148C17.1963 13.33 17.1038 13.5029 16.9944 13.6667C16.885 13.8305 16.7606 13.982 16.6213 14.1213C16.482 14.2606 16.3305 14.385 16.1667 14.4944C16.0029 14.6038 15.83 14.6963 15.648 14.7716C15.4661 14.847 15.2785 14.9039 15.0853 14.9424C14.8921 14.9808 14.697 15 14.5 15L8.5 15C8.30302 15 8.10793 14.9808 7.91473 14.9424C7.72153 14.9039 7.53394 14.847 7.35195 14.7716C7.16996 14.6963 6.99707 14.6038 6.83329 14.4944C6.6695 14.385 6.51797 14.2606 6.37868 14.1213C6.23939 13.982 6.11503 13.8305 6.00559 13.6667C5.89615 13.5029 5.80374 13.33 5.72836 13.148C5.65298 12.9661 5.59607 12.7785 5.55764 12.5853C5.51921 12.3921 5.5 12.197 5.5 12C5.5 11.803 5.51921 11.6079 5.55764 11.4147C5.59607 11.2215 5.65298 11.0339 5.72836 10.8519C5.80374 10.67 5.89615 10.4971 6.00559 10.3333C6.11503 10.1695 6.23939 10.018 6.37868 9.87868C6.51797 9.73939 6.6695 9.61503 6.83329 9.50559C6.99707 9.39615 7.16996 9.30374 7.35195 9.22836C7.53394 9.15298 7.72153 9.09607 7.91473 9.05764C8.10793 9.01921 8.30302 9 8.5 9Z" fill="rgb(79,195,247)" fill-rule="nonzero" />
    <path id="path" d="M52.5 8.5L48.5 8.5C48.4337 8.5 48.3699 8.48731 48.3087 8.46194C48.2474 8.43657 48.1933 8.40044 48.1464 8.35355C48.0996 8.30667 48.0634 8.2526 48.0381 8.19134C48.0127 8.13008 48 8.0663 48 8C48 7.9337 48.0127 7.86992 48.0381 7.80866C48.0634 7.7474 48.0996 7.69333 48.1464 7.64645C48.1933 7.59956 48.2474 7.56343 48.3087 7.53806C48.3699 7.51269 48.4337 7.5 48.5 7.5L52.5 7.5C52.5663 7.5 52.6301 7.51269 52.6913 7.53806C52.7526 7.56343 52.8067 7.59956 52.8536 7.64645C52.9004 7.69333 52.9366 7.7474 52.9619 7.80866C52.9873 7.86992 53 7.9337 53 8C53 8.0663 52.9873 8.13008 52.9619 8.19134C52.9366 8.2526 52.9004 8.30667 52.8536 8.35355C52.8067 8.40044 52.7526 8.43657 52.6913 8.46194C52.6301 8.48731 52.5663 8.5 52.5 8.5Z" fill="rgb(38,50,56)" fill-rule="nonzero" />
    <path id="path" d="M50.5 10.5C50.4337 10.5 50.3699 10.4873 50.3087 10.4619C50.2474 10.4366 50.1933 10.4004 50.1464 10.3536C50.0996 10.3067 50.0634 10.2526 50.0381 10.1913C50.0127 10.1301 50 10.0663 50 10L50 6C50 5.9337 50.0127 5.86992 50.0381 5.80866C50.0634 5.7474 50.0996 5.69333 50.1464 5.64645C50.1933 5.59956 50.2474 5.56343 50.3087 5.53806C50.3699 5.51269 50.4337 5.5 50.5 5.5C50.5663 5.5 50.6301 5.51269 50.6913 5.53806C50.7526 5.56343 50.8067 5.59956 50.8536 5.64645C50.9004 5.69333 50.9366 5.7474 50.9619 5.80866C50.9873 5.86992 51 5.9337 51 6L51 10C51 10.0663 50.9873 10.1301 50.9619 10.1913C50.9366 10.2526 50.9004 10.3067 50.8536 10.3536C50.8067 10.4004 50.7526 10.4366 50.6913 10.4619C50.6301 10.4873 50.5663 10.5 50.5 10.5ZM58.5 12.5L54.5 12.5C54.4337 12.5 54.3699 12.4873 54.3087 12.4619C54.2474 12.4366 54.1933 12.4004 54.1464 12.3536C54.0996 12.3067 54.0634 12.2526 54.0381 12.1913C54.0127 12.1301 54 12.0663 54 12C54 11.9337 54.0127 11.8699 54.0381 11.8087C54.0634 11.7474 54.0996 11.6933 54.1464 11.6464C54.1933 11.5996 54.2474 11.5634 54.3087 11.5381C54.3699 11.5127 54.4337 11.5 54.5 11.5L58.5 11.5C58.5663 11.5 58.6301 11.5127 58.6913 11.5381C58.7526 11.5634 58.8067 11.5996 58.8536 11.6464C58.9004 11.6933 58.9366 11.7474 58.9619 11.8087C58.9873 11.8699 59 11.9337 59 12C59 12.0663 58.9873 12.1301 58.9619 12.1913C58.9366 12.2526 58.9004 12.3067 58.8536 12.3536C58.8067 12.4004 58.7526 12.4366 58.6913 12.4619C58.6301 12.4873 58.5663 12.5 58.5 12.5Z" fill="rgb(38,50,56)" fill-rule="nonzero" />
    <path id="path" d="M56.5 14.5C56.4337 14.5 56.3699 14.4873 56.3087 14.4619C56.2474 14.4366 56.1933 14.4004 56.1464 14.3536C56.0996 14.3067 56.0634 14.2526 56.0381 14.1913C56.0127 14.1301 56 14.0663 56 14L56 10C56 9.9337 56.0127 9.86992 56.0381 9.80866C56.0634 9.7474 56.0996 9.69333 56.1464 9.64645C56.1933 9.59956 56.2474 9.56343 56.3087 9.53806C56.3699 9.51269 56.4337 9.5 56.5 9.5C56.5663 9.5 56.6301 9.51269 56.6913 9.53806C56.7526 9.56343 56.8067 9.59956 56.8535 9.64645C56.9004 9.69333 56.9366 9.7474 56.9619 9.80866C56.9873 9.86992 57 9.9337 57 10L57 14C57 14.0663 56.9873 14.1301 56.9619 14.1913C56.9366 14.2526 56.9004 14.3067 56.8535 14.3536C56.8067 14.4004 56.7526 14.4366 56.6913 14.4619C56.6301 14.4873 56.5663 14.5 56.5 14.5ZM17.25 58.5C13.39 58.5 10.25 55.36 10.25 51.5C10.25 47.64 13.39 44.5 17.25 44.5C21.11 44.5 24.25 47.64 24.25 51.5C24.25 55.36 21.11 58.5 17.25 58.5ZM17.25 45.5C13.941 45.5 11.25 48.191 11.25 51.5C11.25 54.809 13.941 57.5 17.25 57.5C20.559 57.5 23.25 54.809 23.25 51.5C23.25 48.191 20.559 45.5 17.25 45.5Z" fill="rgb(38,50,56)" fill-rule="nonzero" />
    <path id="path" d="M17.25 55.5C15.044 55.5 13.25 53.706 13.25 51.5C13.25 49.294 15.044 47.5 17.25 47.5C19.456 47.5 21.25 49.294 21.25 51.5C21.25 53.706 19.456 55.5 17.25 55.5ZM17.25 48.5C15.596 48.5 14.25 49.846 14.25 51.5C14.25 53.154 15.596 54.5 17.25 54.5C18.904 54.5 20.25 53.154 20.25 51.5C20.25 49.846 18.904 48.5 17.25 48.5Z" fill="rgb(38,50,56)" fill-rule="nonzero" />
    <path id="path" d="M48.75 44L48.75 51.5L56.25 51.5C56.25 51.2544 56.238 51.0093 56.2139 50.7649C56.1898 50.5204 56.1538 50.2777 56.1059 50.0368C56.058 49.7959 55.9984 49.5579 55.9271 49.3229C55.8557 49.0878 55.7731 48.8568 55.6791 48.6299C55.5851 48.4029 55.4802 48.1812 55.3644 47.9645C55.2486 47.7479 55.1225 47.5375 54.986 47.3332C54.8496 47.129 54.7034 46.9319 54.5476 46.7421C54.3918 46.5522 54.227 46.3704 54.0533 46.1967C53.8796 46.023 53.6978 45.8582 53.5079 45.7024C53.3181 45.5466 53.121 45.4004 52.9168 45.264C52.7125 45.1275 52.5021 45.0014 52.2855 44.8856C52.0688 44.7698 51.8471 44.6649 51.6201 44.5709C51.3932 44.4769 51.1622 44.3943 50.9271 44.3229C50.6921 44.2516 50.4541 44.192 50.2132 44.1441C49.9723 44.0962 49.7296 44.0602 49.4851 44.0361C49.2407 44.012 48.9956 44 48.75 44Z" fill="rgb(255,82,82)" fill-rule="nonzero" />
    <path id="path" d="M56.25 52L48.75 52C48.6837 52 48.6199 51.9873 48.5587 51.9619C48.4974 51.9366 48.4433 51.9004 48.3964 51.8536C48.3496 51.8067 48.3134 51.7526 48.2881 51.6913C48.2627 51.6301 48.25 51.5663 48.25 51.5L48.25 44C48.25 43.9337 48.2627 43.8699 48.2881 43.8087C48.3134 43.7474 48.3496 43.6933 48.3965 43.6464C48.4433 43.5996 48.4974 43.5634 48.5587 43.5381C48.6199 43.5127 48.6837 43.5 48.75 43.5C53.161 43.5 56.75 47.089 56.75 51.5C56.75 51.5663 56.7373 51.6301 56.7119 51.6913C56.6866 51.7526 56.6504 51.8067 56.6035 51.8536C56.5567 51.9004 56.5026 51.9366 56.4413 51.9619C56.3801 51.9873 56.3163 52 56.25 52ZM49.25 51L55.732 51C55.7168 50.7923 55.6924 50.5856 55.6588 50.3801C55.6252 50.1745 55.5825 49.9709 55.5308 49.7691C55.479 49.5674 55.4184 49.3683 55.3489 49.172C55.2794 48.9756 55.2014 48.7828 55.1147 48.5934C55.028 48.404 54.9331 48.2188 54.8299 48.0379C54.7268 47.857 54.6157 47.681 54.4969 47.5099C54.378 47.3389 54.2518 47.1735 54.1182 47.0137C53.9846 46.8539 53.8442 46.7004 53.6969 46.5531C53.5496 46.4058 53.3961 46.2654 53.2363 46.1318C53.0765 45.9982 52.9111 45.872 52.7401 45.7531C52.569 45.6343 52.393 45.5233 52.2121 45.4201C52.0312 45.3169 51.846 45.222 51.6566 45.1353C51.4672 45.0486 51.2744 44.9706 51.078 44.9011C50.8817 44.8316 50.6826 44.771 50.4809 44.7192C50.2791 44.6675 50.0755 44.6248 49.8699 44.5912C49.6644 44.5576 49.4577 44.5332 49.25 44.518L49.25 51ZM43.75 28L7.75 28C7.6837 28 7.61992 27.9873 7.55866 27.9619C7.4974 27.9366 7.44333 27.9004 7.39645 27.8536C7.34956 27.8067 7.31343 27.7526 7.28806 27.6913C7.26269 27.6301 7.25 27.5663 7.25 27.5L7.25 26C7.25 24.346 8.596 23 10.25 23L43.75 23C44.577 23 45.25 23.673 45.25 24.5L45.25 26.5C45.25 27.327 44.577 28 43.75 28ZM8.25 27L43.75 27C43.8163 27 43.8801 26.9873 43.9413 26.9619C44.0026 26.9366 44.0567 26.9004 44.1035 26.8536C44.1504 26.8067 44.1866 26.7526 44.2119 26.6913C44.2373 26.6301 44.25 26.5663 44.25 26.5L44.25 24.5C44.25 24.4337 44.2373 24.3699 44.2119 24.3087C44.1866 24.2474 44.1504 24.1933 44.1035 24.1464C44.0567 24.0996 44.0026 24.0634 43.9413 24.0381C43.8801 24.0127 43.8163 24 43.75 24L10.25 24C9.147 24 8.25 24.897 8.25 26L8.25 27ZM32.25 52L25.75 52C25.6837 52 25.6199 51.9873 25.5587 51.9619C25.4974 51.9366 25.4433 51.9004 25.3964 51.8536C25.3496 51.8067 25.3134 51.7526 25.2881 51.6913C25.2627 51.6301 25.25 51.5663 25.25 51.5C25.25 51.4337 25.2627 51.3699 25.2881 51.3087C25.3134 51.2474 25.3496 51.1933 25.3964 51.1464C25.4433 51.0996 25.4974 51.0634 25.5587 51.0381C25.6199 51.0127 25.6837 51 25.75 51L32.25 51C32.3163 51 32.3801 51.0127 32.4413 51.0381C32.5026 51.0634 32.5567 51.0996 32.6036 51.1464C32.6504 51.1933 32.6866 51.2474 32.7119 51.3087C32.7373 51.3699 32.75 51.4337 32.75 51.5C32.75 51.5663 32.7373 51.6301 32.7119 51.6913C32.6866 51.7526 32.6504 51.8067 32.6036 51.8536C32.5567 51.9004 32.5026 51.9366 32.4413 51.9619C32.3801 51.9873 32.3163 52 32.25 52Z" fill="rgb(38,50,56)" fill-rule="nonzero" />
    <path id="path" d="M32.25 37.5L48.75 37.5L48.75 51.5L32.25 51.5L32.25 37.5Z" fill="rgb(255,82,82)" fill-rule="nonzero" />
    <path id="path" d="M48.75 52L32.25 52C32.1837 52 32.1199 51.9873 32.0587 51.9619C31.9974 51.9366 31.9433 51.9004 31.8964 51.8536C31.8496 51.8067 31.8134 51.7526 31.7881 51.6913C31.7627 51.6301 31.75 51.5663 31.75 51.5L31.75 37.5C31.75 37.4337 31.7627 37.3699 31.7881 37.3087C31.8134 37.2474 31.8496 37.1933 31.8964 37.1464C31.9433 37.0996 31.9974 37.0634 32.0587 37.0381C32.1199 37.0127 32.1837 37 32.25 37L48.75 37C48.8163 37 48.8801 37.0127 48.9413 37.0381C49.0026 37.0634 49.0567 37.0996 49.1036 37.1464C49.1504 37.1933 49.1866 37.2474 49.2119 37.3087C49.2373 37.3699 49.25 37.4337 49.25 37.5L49.25 51.5C49.25 51.5663 49.2373 51.6301 49.2119 51.6913C49.1866 51.7526 49.1504 51.8067 49.1036 51.8536C49.0567 51.9004 49.0026 51.9366 48.9413 51.9619C48.8801 51.9873 48.8163 52 48.75 52ZM32.75 51L48.25 51L48.25 38L32.75 38L32.75 51Z" fill="rgb(38,50,56)" fill-rule="nonzero" />
    <path id="path" d="M48.75 38L32.25 38C32.1837 38 32.1199 37.9873 32.0587 37.9619C31.9974 37.9366 31.9433 37.9004 31.8964 37.8536C31.8496 37.8067 31.8134 37.7526 31.7881 37.6913C31.7627 37.6301 31.75 37.5663 31.75 37.5L31.75 27.5C31.75 27.4337 31.7627 27.3699 31.7881 27.3087C31.8134 27.2474 31.8496 27.1933 31.8964 27.1464C31.9433 27.0996 31.9974 27.0634 32.0587 27.0381C32.1199 27.0127 32.1837 27 32.25 27L43.393 27C43.577 27 43.747 27.102 43.834 27.264L49.191 37.264C49.2117 37.3021 49.2272 37.3421 49.2374 37.3842C49.2477 37.4263 49.2523 37.469 49.2514 37.5124C49.2505 37.5557 49.2441 37.5981 49.2321 37.6398C49.2201 37.6814 49.203 37.7208 49.1807 37.758C49.1585 37.7951 49.1318 37.8288 49.1007 37.859C49.0697 37.8892 49.0353 37.915 48.9975 37.9362C48.9597 37.9574 48.9199 37.9734 48.8779 37.9842C48.836 37.9951 48.7933 38.0003 48.75 38ZM32.75 37L47.915 37L43.094 28L32.75 28L32.75 37Z" fill="rgb(38,50,56)" fill-rule="nonzero" />
    <path id="path" d="M43.74 35.0001C43.6478 35.0001 43.5621 34.9764 43.483 34.9291C43.4039 34.8817 43.3425 34.8174 43.299 34.7361L41.156 30.7361C41.1246 30.6776 41.1056 30.6153 41.099 30.5492C41.0924 30.4832 41.0986 30.4184 41.1178 30.3548C41.137 30.2913 41.1677 30.2338 41.2097 30.1825C41.2518 30.1311 41.3021 30.0898 41.3607 30.0584C41.4192 30.0271 41.4815 30.0082 41.5476 30.0017C41.6136 29.9952 41.6784 30.0016 41.742 30.0208C41.8055 30.0401 41.8629 30.0708 41.9142 30.113C41.9655 30.1551 42.0068 30.2055 42.038 30.2641L44.181 34.2641C44.2014 34.3022 44.2166 34.3422 44.2266 34.3843C44.2366 34.4263 44.2411 34.4689 44.2401 34.5121C44.239 34.5553 44.2325 34.5977 44.2204 34.6392C44.2084 34.6807 44.1913 34.72 44.1691 34.7571C44.1469 34.7941 44.1203 34.8278 44.0894 34.8579C44.0585 34.8881 44.0242 34.9139 43.9866 34.9351C43.949 34.9564 43.9093 34.9726 43.8675 34.9836C43.8257 34.9946 43.7832 35.0001 43.74 35.0001ZM18.75 42.5001L13.75 42.5001C13.6837 42.5001 13.6199 42.4874 13.5587 42.462C13.4974 42.4366 13.4433 42.4005 13.3964 42.3536C13.3496 42.3067 13.3134 42.2527 13.2881 42.1914C13.2627 42.1302 13.25 42.0664 13.25 42.0001L13.25 34.5001C13.25 34.4338 13.2627 34.37 13.2881 34.3087C13.3134 34.2475 13.3496 34.1934 13.3964 34.1465C13.4433 34.0996 13.4974 34.0635 13.5587 34.0381C13.6199 34.0128 13.6837 34.0001 13.75 34.0001L15.981 34.0001C16.66 34.0001 17.255 34.4581 17.43 35.1131L19.232 41.8711C19.242 41.9081 19.2476 41.9457 19.2489 41.984C19.2503 42.0223 19.2472 42.0602 19.2398 42.0978C19.2323 42.1354 19.2207 42.1717 19.2049 42.2066C19.1892 42.2415 19.1696 42.2742 19.1463 42.3046C19.123 42.335 19.0965 42.3624 19.0669 42.3867C19.0373 42.411 19.0053 42.4316 18.971 42.4486C18.9366 42.4655 18.9008 42.4784 18.8635 42.4871C18.8261 42.4958 18.7883 42.5001 18.75 42.5001ZM14.25 41.5001L18.099 41.5001L16.465 35.3711C16.4357 35.2615 16.3761 35.1722 16.2861 35.1032C16.1961 35.0343 16.0944 34.9999 15.981 35.0001L14.25 35.0001L14.25 41.5001Z" fill="rgb(38,50,56)" fill-rule="nonzero" />
    <path id="path" d="M27.875 52C27.767 52 27.6693 51.9683 27.5818 51.905C27.4943 51.8416 27.4337 51.7586 27.4 51.656L24.841 43.875C24.7754 43.6749 24.6805 43.4897 24.5563 43.3196C24.4322 43.1495 24.2847 43.0027 24.1141 42.8792C23.9435 42.7557 23.758 42.6616 23.5576 42.5968C23.3571 42.532 23.1516 42.4998 22.941 42.5L13.751 42.5C13.6847 42.5 13.6209 42.4873 13.5597 42.4619C13.4984 42.4366 13.4443 42.4004 13.3975 42.3536C13.3506 42.3067 13.3144 42.2526 13.2891 42.1913C13.2637 42.1301 13.251 42.0663 13.251 42L13.251 28L8.25101 28L8.25101 49C8.25101 49.637 8.55001 50.223 9.07201 50.606C9.12405 50.6458 9.16663 50.694 9.19974 50.7505C9.23284 50.8071 9.25401 50.8678 9.26325 50.9326C9.27249 50.9975 9.26911 51.0617 9.25311 51.1253C9.23711 51.1888 9.20968 51.2469 9.17082 51.2997C9.13195 51.3525 9.08455 51.3959 9.02861 51.43C8.97268 51.4641 8.91236 51.4864 8.84767 51.4968C8.78298 51.5072 8.71872 51.505 8.6549 51.4901C8.59109 51.4753 8.53245 51.4489 8.47901 51.411C8.28833 51.2732 8.11647 51.1149 7.96344 50.9362C7.81041 50.7575 7.68047 50.5634 7.57362 50.3538C7.46677 50.1442 7.386 49.925 7.3313 49.6961C7.2766 49.4673 7.24951 49.2353 7.25001 49L7.25001 27.5C7.25001 27.4337 7.26269 27.3699 7.28807 27.3087C7.31344 27.2474 7.34957 27.1933 7.39645 27.1464C7.44334 27.0996 7.49741 27.0634 7.55866 27.0381C7.61992 27.0127 7.6837 27 7.75001 27L13.75 27C13.8163 27 13.8801 27.0127 13.9413 27.0381C14.0026 27.0634 14.0567 27.0996 14.1036 27.1464C14.1504 27.1933 14.1866 27.2474 14.2119 27.3087C14.2373 27.3699 14.25 27.4337 14.25 27.5L14.25 41.5L22.94 41.5C24.239 41.5 25.384 42.329 25.79 43.562L28.349 51.343C28.3614 51.3805 28.3693 51.419 28.3726 51.4584C28.3759 51.4978 28.3745 51.537 28.3685 51.5761C28.3625 51.6152 28.3519 51.653 28.337 51.6896C28.322 51.7262 28.3029 51.7605 28.2798 51.7925C28.2567 51.8246 28.2301 51.8535 28.2001 51.8793C28.1701 51.905 28.1375 51.9269 28.1023 51.945C28.0672 51.963 28.0304 51.9767 27.9919 51.986C27.9535 51.9953 27.9145 51.9999 27.875 52ZM37.75 41L35.25 41C35.1837 41 35.1199 40.9873 35.0587 40.9619C34.9974 40.9366 34.9433 40.9004 34.8965 40.8536C34.8496 40.8067 34.8134 40.7526 34.7881 40.6913C34.7627 40.6301 34.75 40.5663 34.75 40.5C34.75 40.4337 34.7627 40.3699 34.7881 40.3087C34.8134 40.2474 34.8496 40.1933 34.8965 40.1464C34.9433 40.0996 34.9974 40.0634 35.0587 40.0381C35.1199 40.0127 35.1837 40 35.25 40L37.75 40C37.8163 40 37.8801 40.0127 37.9413 40.0381C38.0026 40.0634 38.0567 40.0996 38.1036 40.1464C38.1504 40.1933 38.1866 40.2474 38.2119 40.3087C38.2373 40.3699 38.25 40.4337 38.25 40.5C38.25 40.5663 38.2373 40.6301 38.2119 40.6913C38.1866 40.7526 38.1504 40.8067 38.1036 40.8536C38.0567 40.9004 38.0026 40.9366 37.9413 40.9619C37.8801 40.9873 37.8163 41 37.75 41Z" fill="rgb(38,50,56)" fill-rule="nonzero" />
    <path id="path" d="M48.75 58.4999C48.3822 58.5006 48.0166 58.4724 47.6533 58.4153C47.29 58.3582 46.9334 58.2729 46.5835 58.1595C46.2337 58.046 45.8949 57.9058 45.5672 57.7388C45.2395 57.5718 44.927 57.38 44.6296 57.1636C44.3323 56.9472 44.0537 56.7088 43.794 56.4483C43.5343 56.1879 43.2967 55.9087 43.0812 55.6107C42.8656 55.3127 42.6748 54.9996 42.5088 54.6714C42.3427 54.3432 42.2034 54.0041 42.091 53.6539C42.0678 53.5901 42.058 53.5243 42.0616 53.4565C42.0651 53.3887 42.0818 53.3243 42.1117 53.2633C42.1415 53.2023 42.1821 53.1496 42.2334 53.1051C42.2847 53.0606 42.3426 53.0279 42.4072 53.0071C42.4719 52.9862 42.538 52.9788 42.6056 52.9849C42.6732 52.991 42.737 53.0101 42.7968 53.0421C42.8567 53.0741 42.9079 53.1166 42.9505 53.1695C42.993 53.2224 43.0235 53.2816 43.042 53.3469C43.1384 53.647 43.2578 53.9378 43.4002 54.2191C43.5425 54.5003 43.7061 54.7687 43.8909 55.0241C44.0756 55.2796 44.2793 55.5189 44.5019 55.7422C44.7245 55.9654 44.9633 56.1698 45.2182 56.3553C45.4731 56.5408 45.741 56.7051 46.0218 56.8483C46.3027 56.9915 46.5931 57.1117 46.893 57.2089C47.1929 57.3062 47.4985 57.3793 47.81 57.4283C48.1214 57.4773 48.4347 57.5015 48.75 57.5009C49.0653 57.5015 49.3786 57.4773 49.6901 57.4284C50.0015 57.3795 50.3072 57.3064 50.6071 57.2091C50.907 57.1119 51.1974 56.9916 51.4782 56.8485C51.7591 56.7053 52.027 56.541 52.282 56.3555C52.5369 56.17 52.7756 55.9656 52.9982 55.7423C53.2208 55.5191 53.4245 55.2797 53.6093 55.0243C53.794 54.7688 53.9576 54.5004 54.0999 54.2191C54.2423 53.9378 54.3616 53.6471 54.458 53.3469C54.4801 53.2861 54.5128 53.2316 54.5561 53.1835C54.5994 53.1354 54.6501 53.0971 54.7082 53.0687C54.7664 53.0403 54.8277 53.0238 54.8923 53.0191C54.9568 53.0145 55.0199 53.0222 55.0815 53.0421C55.143 53.0619 55.1987 53.0926 55.2483 53.1341C55.298 53.1756 55.3381 53.2248 55.3687 53.2819C55.3992 53.3389 55.418 53.3996 55.4249 53.464C55.4319 53.5283 55.4266 53.5916 55.409 53.6539C55.2966 54.0041 55.1573 54.3432 54.9912 54.6714C54.8252 54.9996 54.6344 55.3127 54.4188 55.6107C54.2033 55.9087 53.9657 56.1879 53.706 56.4483C53.4463 56.7088 53.1677 56.9472 52.8704 57.1636C52.573 57.38 52.2604 57.5718 51.9328 57.7388C51.6051 57.9058 51.2663 58.046 50.9165 58.1595C50.5666 58.2729 50.21 58.3582 49.8467 58.4153C49.4833 58.4724 49.1178 58.5006 48.75 58.4999Z" fill="rgb(38,50,56)" fill-rule="nonzero" />
    <path id="path" d="M48.75 55.4999C48.4283 55.4992 48.1112 55.4602 47.7988 55.3831C47.4865 55.306 47.1877 55.1929 46.9026 55.0438C46.6175 54.8948 46.3541 54.7139 46.1126 54.5014C45.871 54.2889 45.6582 54.0507 45.474 53.7869C45.4384 53.7325 45.4143 53.6734 45.4016 53.6097C45.389 53.5459 45.3889 53.4821 45.4011 53.4183C45.4134 53.3545 45.4372 53.2953 45.4726 53.2407C45.5079 53.1862 45.5523 53.1403 45.6055 53.103C45.6588 53.0658 45.7171 53.0399 45.7804 53.0253C45.8438 53.0108 45.9076 53.0087 45.9717 53.0191C46.0359 53.0294 46.0958 53.0514 46.1514 53.0851C46.207 53.1188 46.2542 53.1617 46.293 53.2139C46.431 53.412 46.5905 53.5909 46.7716 53.7505C46.9527 53.9102 47.1502 54.046 47.364 54.158C47.5779 54.27 47.802 54.355 48.0364 54.413C48.2707 54.471 48.5086 54.5003 48.75 54.5009C49.726 54.5009 50.644 54.0199 51.207 53.2139C51.2459 53.1617 51.2931 53.1188 51.3487 53.0851C51.4043 53.0514 51.4641 53.0294 51.5283 53.0191C51.5925 53.0087 51.6562 53.0108 51.7196 53.0253C51.783 53.0399 51.8413 53.0658 51.8945 53.103C51.9478 53.1403 51.9921 53.1862 52.0274 53.2407C52.0628 53.2953 52.0866 53.3545 52.0989 53.4183C52.1112 53.4821 52.111 53.5459 52.0984 53.6097C52.0858 53.6734 52.0617 53.7325 52.026 53.7869C51.8419 54.0507 51.629 54.2889 51.3874 54.5014C51.1459 54.7139 50.8826 54.8948 50.5974 55.0438C50.3123 55.1929 50.0136 55.306 49.7012 55.3831C49.3888 55.4602 49.0718 55.4992 48.75 55.4999Z" fill="rgb(38,50,56)" fill-rule="nonzero" />
</svg>
