<svg viewBox="0 0 36 36" xmlns="http://www.w3.org/2000/svg" xmlns:xlink="http://www.w3.org/1999/xlink" width="36" height="36" fill="none">
    <rect id="svg 13" width="36" height="36" x="0" y="0" />
    <path id="矢量 54" d="M33.4499 5.25005C32.9999 4.05005 31.9499 3.30005 30.5999 3.30005L5.09995 3.30005C4.04995 3.45005 2.99995 4.20005 2.54995 5.25005C1.94995 6.45005 2.24995 7.80005 3.14995 8.55005L12.7499 17.55L12.7499 30C12.7499 30.6 13.0499 31.05 13.6499 31.35L19.65 34.3501C19.7999 34.5 20.0999 34.5 20.2499 34.5C20.6999 34.5 20.9999 34.35 21.2999 34.05L22.7999 32.55C23.0999 32.25 23.2499 31.95 23.2499 31.5L23.2499 17.7001L32.8499 8.70005C33.7499 7.80005 34.0499 6.45005 33.4499 5.25005L33.4499 5.25005ZM20.6999 15.9C20.3999 16.2 20.2499 16.65 20.2499 16.95L20.2499 30.75L19.9499 31.05L15.7499 28.95L15.7499 16.95C15.7499 16.5 15.5999 16.2 15.2999 15.9L5.24995 6.45005L30.7499 6.45005L20.6999 15.9L20.6999 15.9Z" fill="rgb(44,44,44)" fill-opacity="0.5" fill-rule="nonzero" />
    <path id="矢量 55" d="M30.75 17.25L26.25 17.25C25.35 17.25 24.75 17.85 24.75 18.75C24.75 19.65 25.35 20.25 26.25 20.25L30.75 20.25C31.65 20.25 32.25 19.65 32.25 18.75C32.25 17.85 31.65 17.25 30.75 17.25ZM30.75 21.75L26.25 21.75C25.35 21.75 24.75 22.35 24.75 23.25C24.75 24.15 25.35 24.75 26.25 24.75L30.75 24.75C31.65 24.75 32.25 24.15 32.25 23.25C32.25 22.35 31.65 21.75 30.75 21.75ZM30.75 26.25L26.25 26.25C25.35 26.25 24.75 26.85 24.75 27.75C24.75 28.65 25.35 29.25 26.25 29.25L30.75 29.25C31.65 29.25 32.25 28.65 32.25 27.75C32.25 26.85 31.65 26.25 30.75 26.25Z" fill="rgb(254,201,99)" fill-rule="nonzero" />
</svg>
