<svg viewBox="0 0 32.4124 32" xmlns="http://www.w3.org/2000/svg" xmlns:xlink="http://www.w3.org/1999/xlink" width="32.412354" height="32.000000" fill="none">
    <rect id="svg" width="32.412373" height="32.000000" x="0.000000" y="0.000000" />
    <path id="path" d="M24.3369 28.3824L7.96378 28.3824C5.55392 28.3824 3.60107 26.4048 3.60107 23.9632L3.60107 11.616L15.1156 3.39842C15.7298 2.93442 16.5725 2.93442 17.1867 3.39842L28.7012 11.616L28.7012 23.9632C28.6996 26.4048 26.7467 28.3824 24.3369 28.3824Z" fill="rgb(214,50,50)" fill-rule="nonzero" />
    <path id="path" d="M24.3368 28.7024L7.96368 28.7024C5.3788 28.7024 3.27686 26.576 3.27686 23.9632L3.27686 11.616C3.27686 11.5136 3.32709 11.4176 3.41137 11.3568L14.9259 3.13921C15.6454 2.59521 16.6583 2.59521 17.3843 3.14401L28.8907 11.3568C28.975 11.4176 29.0252 11.5136 29.0252 11.616L29.0252 23.9632C29.0236 26.576 26.9217 28.7024 24.3368 28.7024ZM3.92348 11.7792L3.92348 23.9632C3.92348 26.2224 5.73533 28.0624 7.96206 28.0624L24.3352 28.0624C26.5619 28.0624 28.3738 26.224 28.3738 23.9632L28.3738 11.7792L16.9938 3.65761C16.4849 3.27361 15.8107 3.27361 15.3099 3.65281L3.92348 11.7792Z" fill="rgb(75,34,84)" fill-rule="nonzero" />
    <path id="path" d="M24.768 22.6673L7.83411 22.6673L7.83411 8.14085C7.83411 7.10245 8.68655 6.26245 9.73671 6.26245L21.645 6.26245C23.371 6.26245 24.7696 7.64325 24.7696 9.34725L24.768 22.6673Z" fill="rgb(255,255,255)" fill-rule="nonzero" />
    <path id="path" d="M7.7676 13.8415L12.9487 19.0799C12.9487 19.0799 14.1707 17.2255 16.1511 17.2255C18.1315 17.2255 19.4976 19.0799 19.4976 19.0799L24.7711 14.0207L24.7646 16.0079L19.5041 21.2159L12.7526 21.2159L7.74329 16.2111L7.7676 13.8415ZM24.7679 9.13434C24.7679 9.13434 23.3952 7.46234 21.4715 7.46234C19.5479 7.46234 19.1541 9.97594 19.1541 11.0447L7.83404 11.0447L7.83404 9.67994L17.8106 9.67994C17.8106 9.67994 17.6599 6.26074 21.645 6.26074C22.3499 6.26074 24.2995 6.49114 24.7679 9.13434Z" fill="rgb(242,240,231)" fill-rule="nonzero" />
    <path id="path" d="M24.7679 22.84L7.48562 22.84C7.30735 22.84 7.1615 22.696 7.1615 22.52L7.1615 8.12797C7.1615 6.85917 8.19545 5.86557 9.51464 5.86557L21.4375 5.79517C23.4536 5.79517 25.092 7.42077 25.092 9.41757L25.092 22.52C25.092 22.6976 24.9478 22.84 24.7679 22.84ZM7.80975 22.2L24.4438 22.2L24.4438 9.41757C24.4438 7.77277 23.0954 6.43517 21.4391 6.43517L9.51626 6.50557C8.55847 6.50557 7.80975 7.21757 7.80975 8.12797L7.80975 22.2Z" fill="rgb(75,34,84)" fill-rule="nonzero" />
    <path id="path" d="M4.3562 9.68L17.8997 9.68C17.8997 9.68 17.9305 6.0176 22.008 6.1536L8.37372 6.1536C6.9265 6.1536 4.70139 6.6176 4.3562 9.68Z" fill="rgb(255,255,255)" fill-rule="nonzero" />
    <path id="path" d="M17.8997 9.99997L4.35616 9.99997C4.30999 9.99974 4.26586 9.99026 4.22377 9.97152C4.18168 9.95278 4.14526 9.9264 4.11452 9.89239C4.08378 9.85838 4.06137 9.81967 4.04728 9.77626C4.0332 9.73285 4.02866 9.68849 4.03366 9.64317C4.31078 7.18557 5.85199 5.83197 8.37368 5.83197L21.5688 5.83197C21.7162 5.82717 21.8653 5.82717 22.0193 5.83197C22.1959 5.83837 22.3353 5.98237 22.3321 6.15677C22.3288 6.33117 22.1846 6.47197 22.0079 6.47197L21.5817 6.47197C20.598 6.50717 19.812 6.79837 19.2399 7.33917C18.2465 8.27997 18.2222 9.66717 18.2222 9.68157C18.2222 9.85917 18.0779 9.99997 17.8997 9.99997ZM4.7289 9.35997L17.5999 9.35997C17.6647 8.82397 17.9062 7.71837 18.7926 6.87837C18.9531 6.72637 19.1249 6.59197 19.3112 6.47357L8.37368 6.47357C6.28956 6.47357 5.06437 7.44477 4.7289 9.35997ZM16.749 12.976L16.2272 12.976C16.0489 12.976 15.9031 12.832 15.9031 12.656C15.9031 12.48 16.0489 12.336 16.2272 12.336L16.749 12.336C16.792 12.336 16.8334 12.3441 16.8731 12.3603C16.9128 12.3766 16.9478 12.3997 16.9782 12.4297C17.0086 12.4597 17.032 12.4943 17.0485 12.5335C17.0649 12.5727 17.0732 12.6135 17.0732 12.656C17.0732 12.6984 17.0649 12.7392 17.0485 12.7784C17.032 12.8176 17.0086 12.8522 16.9782 12.8822C16.9478 12.9122 16.9128 12.9354 16.8731 12.9516C16.8334 12.9678 16.792 12.976 16.749 12.976ZM14.7006 12.976L11.7332 12.976C11.5549 12.976 11.4091 12.832 11.4091 12.656C11.4091 12.48 11.5549 12.336 11.7332 12.336L14.7022 12.336C14.8805 12.336 15.0263 12.48 15.0263 12.656C15.0263 12.832 14.8805 12.976 14.7006 12.976ZM20.7244 14.8624L14.2517 14.8624C14.0734 14.8624 13.9275 14.7184 13.9275 14.5424C13.9275 14.3664 14.0734 14.2224 14.2517 14.2224L20.7244 14.2224C20.9027 14.2224 21.0485 14.3664 21.0485 14.5424C21.0485 14.7184 20.9027 14.8624 20.7244 14.8624ZM12.5759 14.8624L11.7332 14.8624C11.555 14.8624 11.4091 14.7184 11.4091 14.5424C11.4091 14.3664 11.555 14.2224 11.7332 14.2224L12.5759 14.2224C12.7542 14.2224 12.9001 14.3664 12.9001 14.5424C12.9001 14.7184 12.7542 14.8624 12.5759 14.8624ZM20.7244 16.8144L18.368 16.8144C18.1898 16.8144 18.0439 16.6704 18.0439 16.4944C18.0439 16.3184 18.1898 16.1744 18.368 16.1744L20.7244 16.1744C20.9027 16.1744 21.0485 16.3184 21.0485 16.4944C21.0485 16.6704 20.9027 16.8144 20.7244 16.8144ZM16.8365 16.8144L11.7332 16.8144C11.5549 16.8144 11.4091 16.6704 11.4091 16.4944C11.4091 16.3184 11.5549 16.1744 11.7332 16.1744L16.8382 16.1744C17.0164 16.1744 17.1623 16.3184 17.1623 16.4944C17.1623 16.6704 17.0164 16.8144 16.8365 16.8144Z" fill="rgb(75,34,84)" fill-rule="nonzero" />
    <path id="path" d="M24.3369 28.3824L7.96378 28.3824C5.55392 28.3824 3.60107 26.4048 3.60107 23.9632L3.60107 11.616L16.1511 24.5328L28.7012 11.616L28.7012 23.9632C28.6996 26.4048 26.7467 28.3824 24.3369 28.3824Z" fill="rgb(245,86,81)" fill-rule="nonzero" />
    <path id="path" d="M5.26374 13.264L5.26374 23.04C5.26374 24.5168 4.97203 26.4336 6.77254 27.3456C6.369 27.7856 6.11943 27.9696 6.11943 27.9696C6.11943 27.9696 3.63016 26.8368 3.61557 24.3264C3.60099 21.816 3.59937 11.616 3.59937 11.616L5.26374 13.264ZM27.4403 14.9728L21.4197 21.5312L20.4797 20.2448L27.2345 13.0672L27.4403 14.9728Z" fill="rgb(246,121,105)" fill-rule="nonzero" />
    <path id="path" d="M27.0579 13.2416L27.0579 23.1536C27.0579 24.536 26.6852 25.0384 25.9818 25.6672C24.5638 24.2048 22.1409 21.648 20.6532 20.0736L16.1495 24.5312L11.7431 20.168L6.43715 25.4C5.23303 26.5872 4.51671 26.1344 4.18125 25.7232L4.90728 26.9088L4.80518 27.0096C5.59929 27.8544 6.72076 28.3808 7.96377 28.3808L24.3369 28.3808C26.7467 28.3808 28.6996 26.4032 28.6996 23.9616L28.6996 11.616L27.0579 13.2416ZM4.18125 25.7232L3.94788 25.3424C3.94788 25.344 4.02243 25.5296 4.18125 25.7232Z" fill="rgb(227,65,63)" fill-rule="nonzero" />
    <path id="path" d="M24.3368 28.7024L7.96368 28.7024C5.3788 28.7024 3.27686 26.576 3.27686 23.9632L3.27686 11.616C3.27686 11.4848 3.35789 11.368 3.47943 11.3184C3.6026 11.2704 3.74197 11.2992 3.83435 11.3936L16.1511 24.0688L28.4678 11.3936C28.5585 11.2992 28.6995 11.2688 28.8227 11.3184C28.9458 11.3664 29.0252 11.4848 29.0252 11.616L29.0252 23.9632C29.0236 26.576 26.9217 28.7024 24.3368 28.7024ZM3.92348 12.4112L3.92348 23.9632C3.92348 26.2224 5.73533 28.0624 7.96206 28.0624L24.3352 28.0624C26.5619 28.0624 28.3738 26.224 28.3738 23.9632L28.3738 12.4112L16.3812 24.7536C16.2596 24.88 16.036 24.88 15.9128 24.7536L3.92348 12.4112Z" fill="rgb(75,34,84)" fill-rule="nonzero" />
    <path id="path" d="M17.6291 19.3376C16.7832 18.4912 15.4219 18.496 14.584 19.3504L6.11951 27.968C6.70231 28.2447 7.31706 28.3829 7.96377 28.3824L24.3369 28.3824C25.0127 28.3824 25.6544 28.2272 26.2249 27.9488L17.6291 19.3376Z" fill="rgb(245,86,81)" fill-rule="nonzero" />
    <path id="path" d="M17.6291 19.3376C16.7832 18.4912 15.4219 18.496 14.584 19.3504L6.11951 27.968C6.70231 28.2447 7.31706 28.3829 7.96377 28.3824L8.11449 28.3824C10.5227 25.8624 15.2711 20.904 15.8303 20.36C16.5855 19.6272 18.4054 20.36 18.4054 20.36L18.5043 20.216L17.6291 19.3376Z" fill="rgb(246,121,105)" fill-rule="nonzero" />
    <path id="path" d="M24.6788 26.5905L7.52782 26.5905L6.11951 28.0129C6.11951 28.0129 6.78234 28.4337 8.31382 28.4337L24.0792 28.4337C25.1553 28.4337 26.3853 27.9201 26.3853 27.9201L24.6788 26.5905Z" fill="rgb(227,65,63)" fill-rule="nonzero" />
    <path id="path" d="M24.3369 28.7024L7.96376 28.7024C7.27175 28.7024 6.60568 28.552 5.98012 28.2576C5.88612 28.2128 5.81968 28.1264 5.80023 28.0256C5.7824 27.9248 5.8132 27.8208 5.88612 27.7456L14.349 19.128C14.8157 18.6528 15.438 18.3904 16.1009 18.3872L16.1106 18.3872C16.7702 18.3872 17.3893 18.6448 17.8576 19.1136L26.4534 27.7232C26.5263 27.7968 26.5587 27.8992 26.5425 28.0016C26.5247 28.1024 26.4599 28.1904 26.3659 28.2352C25.7322 28.5456 25.0483 28.7024 24.3369 28.7024ZM6.68509 27.8528C7.09511 27.992 7.52295 28.0624 7.96376 28.0624L24.3369 28.0624C24.7939 28.0624 25.2363 27.9872 25.6609 27.8384L17.399 19.5632C17.0538 19.2176 16.5968 19.0272 16.1138 19.0272L16.1057 19.0272C15.6196 19.0288 15.1609 19.224 14.8174 19.5744L6.68509 27.8528Z" fill="rgb(75,34,84)" fill-rule="nonzero" />
</svg>
