<svg viewBox="0 0 16 16" xmlns="http://www.w3.org/2000/svg" xmlns:xlink="http://www.w3.org/1999/xlink" width="16" height="16" fill="none">
    <rect id="svg 4" width="16" height="16" x="0" y="0" />
    <path id="矢量 22" d="M3.27124 8.44317C3.27124 8.5376 3.27356 8.63197 3.27819 8.72628C3.28282 8.8206 3.28977 8.91474 3.29902 9.00871C3.30828 9.10269 3.31983 9.19637 3.33369 9.28978C3.34755 9.38319 3.36368 9.47619 3.38211 9.56881C3.40053 9.66142 3.42121 9.75353 3.44415 9.84512C3.4671 9.93672 3.49228 10.0277 3.51969 10.1181C3.5471 10.2084 3.57671 10.2981 3.60852 10.387C3.64033 10.4759 3.67431 10.5639 3.71044 10.6512C3.74658 10.7384 3.78483 10.8247 3.82521 10.9101C3.86558 10.9955 3.90802 11.0798 3.95253 11.163C3.99705 11.2463 4.04358 11.3285 4.09212 11.4095C4.14067 11.4904 4.19117 11.5702 4.24363 11.6487C4.29609 11.7272 4.35045 11.8044 4.4067 11.8803C4.46295 11.9561 4.52103 12.0305 4.58093 12.1035C4.64084 12.1765 4.70249 12.248 4.76591 12.318C4.82932 12.3879 4.89441 12.4563 4.96118 12.5231C5.02796 12.5898 5.09632 12.6549 5.16629 12.7183C5.23626 12.7817 5.30774 12.8434 5.38073 12.9033C5.45372 12.9632 5.52814 13.0213 5.60399 13.0775C5.67983 13.1338 5.75701 13.1881 5.83552 13.2406C5.91404 13.2931 5.99379 13.3436 6.07479 13.3921C6.15578 13.4407 6.23791 13.4872 6.32119 13.5317C6.40447 13.5762 6.48879 13.6187 6.57415 13.659C6.65951 13.6994 6.74581 13.7377 6.83305 13.7738C6.92029 13.8099 7.00837 13.8439 7.09727 13.8757C7.18618 13.9075 7.27582 13.9371 7.36618 13.9646C7.45654 13.992 7.54752 14.0171 7.63912 14.0401C7.73071 14.063 7.82282 14.0837 7.91543 14.1021C8.00805 14.1206 8.10106 14.1367 8.19446 14.1506C8.28787 14.1644 8.38156 14.176 8.47553 14.1852C8.5695 14.1945 8.66364 14.2014 8.75796 14.2061C8.85227 14.2107 8.94664 14.213 9.04107 14.213C9.1355 14.213 9.22987 14.2107 9.32418 14.2061C9.4185 14.2014 9.51264 14.1945 9.60661 14.1852C9.70059 14.176 9.79428 14.1644 9.88768 14.1506C9.98109 14.1367 10.0741 14.1206 10.1667 14.1021C10.2593 14.0837 10.3514 14.063 10.443 14.0401C10.5346 14.0171 10.6256 13.992 10.716 13.9646C10.8063 13.9371 10.896 13.9075 10.9849 13.8757C11.0738 13.8439 11.1618 13.8099 11.2491 13.7738C11.3363 13.7377 11.4226 13.6994 11.508 13.659C11.5934 13.6187 11.6777 13.5762 11.761 13.5317C11.8442 13.4872 11.9264 13.4407 12.0074 13.3921C12.0884 13.3436 12.1681 13.2931 12.2466 13.2406C12.3251 13.1881 12.4023 13.1338 12.4782 13.0775C12.554 13.0213 12.6284 12.9632 12.7014 12.9033C12.7744 12.8434 12.8459 12.7817 12.9159 12.7183C12.9858 12.6549 13.0542 12.5898 13.121 12.5231C13.1877 12.4563 13.2528 12.3879 13.3162 12.318C13.3796 12.248 13.4413 12.1765 13.5012 12.1035C13.5611 12.0305 13.6192 11.9561 13.6754 11.8803C13.7317 11.8044 13.786 11.7272 13.8385 11.6487C13.891 11.5702 13.9415 11.4905 13.99 11.4095C14.0386 11.3285 14.0851 11.2463 14.1296 11.1631C14.1741 11.0798 14.2166 10.9955 14.2569 10.9101C14.2973 10.8247 14.3356 10.7384 14.3717 10.6512C14.4078 10.5639 14.4418 10.4759 14.4736 10.387C14.5054 10.2981 14.535 10.2084 14.5625 10.1181C14.5899 10.0277 14.615 9.93672 14.638 9.84512C14.6609 9.75353 14.6816 9.66142 14.7 9.56881C14.7185 9.47619 14.7346 9.38319 14.7485 9.28978C14.7623 9.19637 14.7739 9.10269 14.7831 9.00871C14.7924 8.91474 14.7993 8.8206 14.804 8.72628C14.8086 8.63197 14.8109 8.5376 14.8109 8.44317C14.8109 8.34874 14.8086 8.25437 14.804 8.16006C14.7993 8.06574 14.7924 7.9716 14.7831 7.87763C14.7739 7.78366 14.7623 7.68997 14.7485 7.59656C14.7346 7.50316 14.7185 7.41015 14.7 7.31753C14.6816 7.22492 14.6609 7.13281 14.638 7.04122C14.615 6.94962 14.5899 6.85864 14.5625 6.76828C14.535 6.67792 14.5054 6.58828 14.4736 6.49937C14.4418 6.41047 14.4078 6.32239 14.3717 6.23515C14.3356 6.14791 14.2973 6.06161 14.2569 5.97625C14.2166 5.89089 14.1741 5.80657 14.1296 5.72329C14.0851 5.64001 14.0386 5.55788 13.99 5.47688C13.9415 5.39589 13.891 5.31614 13.8385 5.23762C13.786 5.15911 13.7317 5.08193 13.6754 5.00609C13.6192 4.93024 13.5611 4.85582 13.5012 4.78283C13.4413 4.70984 13.3796 4.63836 13.3162 4.56839C13.2528 4.49842 13.1877 4.43005 13.121 4.36328C13.0542 4.29651 12.9858 4.23142 12.9159 4.16801C12.8459 4.10459 12.7744 4.04294 12.7014 3.98303C12.6284 3.92313 12.554 3.86505 12.4782 3.8088C12.4023 3.75255 12.3251 3.69819 12.2466 3.64573C12.1681 3.59327 12.0884 3.54277 12.0074 3.49422C11.9264 3.44568 11.8442 3.39915 11.761 3.35463C11.6777 3.31012 11.5934 3.26768 11.508 3.22731C11.4226 3.18693 11.3363 3.14868 11.2491 3.11254C11.1618 3.07641 11.0738 3.04243 10.9849 3.01062C10.896 2.97881 10.8063 2.9492 10.716 2.92179C10.6256 2.89438 10.5346 2.8692 10.443 2.84625C10.3514 2.82331 10.2593 2.80263 10.1667 2.78421C10.0741 2.76578 9.98109 2.74964 9.88768 2.73579C9.79428 2.72193 9.70059 2.71038 9.60661 2.70112C9.51264 2.69187 9.4185 2.68492 9.32418 2.68029C9.22987 2.67566 9.1355 2.67334 9.04107 2.67334C8.94664 2.67334 8.85227 2.67566 8.75796 2.68029C8.66365 2.68492 8.5695 2.69187 8.47553 2.70112C8.38156 2.71038 8.28787 2.72193 8.19446 2.73579C8.10106 2.74964 8.00805 2.76578 7.91543 2.78421C7.82282 2.80263 7.73071 2.82331 7.63912 2.84625C7.54752 2.8692 7.45654 2.89438 7.36618 2.92179C7.27582 2.9492 7.18618 2.97881 7.09727 3.01062C7.00837 3.04243 6.92029 3.07641 6.83305 3.11254C6.74581 3.14868 6.65951 3.18693 6.57415 3.22731C6.48879 3.26768 6.40447 3.31012 6.32119 3.35463C6.23791 3.39915 6.15578 3.44568 6.07479 3.49422C5.99379 3.54277 5.91404 3.59327 5.83552 3.64573C5.75701 3.69819 5.67983 3.75255 5.60399 3.8088C5.52814 3.86505 5.45372 3.92313 5.38073 3.98303C5.30774 4.04294 5.23626 4.10459 5.16629 4.16801C5.09632 4.23142 5.02796 4.29651 4.96118 4.36328C4.89441 4.43005 4.82932 4.49842 4.76591 4.56839C4.70249 4.63836 4.64084 4.70984 4.58093 4.78283C4.52103 4.85582 4.46295 4.93024 4.4067 5.00609C4.35045 5.08193 4.29609 5.15911 4.24363 5.23762C4.19117 5.31614 4.14067 5.39589 4.09212 5.47688C4.04358 5.55788 3.99705 5.64001 3.95253 5.72329C3.90802 5.80657 3.86558 5.89089 3.82521 5.97625C3.78483 6.06161 3.74658 6.14791 3.71044 6.23515C3.67431 6.32239 3.64033 6.41047 3.60852 6.49937C3.57671 6.58828 3.5471 6.67792 3.51969 6.76828C3.49228 6.85864 3.4671 6.94962 3.44415 7.04122C3.42121 7.13281 3.40053 7.22492 3.38211 7.31753C3.36368 7.41015 3.34755 7.50315 3.33369 7.59656C3.31983 7.68997 3.30828 7.78366 3.29902 7.87763C3.28977 7.9716 3.28282 8.06574 3.27819 8.16006C3.27356 8.25437 3.27124 8.34874 3.27124 8.44317Z" fill="rgb(254,201,99)" fill-rule="nonzero" />
    <path id="矢量 23" d="M2.23438 7.40643C2.23438 7.50086 2.23669 7.59523 2.24132 7.68954C2.24596 7.78385 2.2529 7.878 2.26216 7.97197C2.27141 8.06594 2.28297 8.15963 2.29682 8.25304C2.31068 8.34644 2.32682 8.43945 2.34524 8.53207C2.36366 8.62468 2.38435 8.71678 2.40729 8.80838C2.43023 8.89998 2.45541 8.99096 2.48282 9.08132C2.51023 9.17168 2.53984 9.26132 2.57166 9.35022C2.60347 9.43913 2.63744 9.52721 2.67358 9.61445C2.70971 9.70169 2.74797 9.78799 2.78834 9.87335C2.82871 9.95871 2.87116 10.043 2.91567 10.1263C2.96018 10.2096 3.00671 10.2917 3.05526 10.3727C3.1038 10.4537 3.15431 10.5335 3.20677 10.612C3.25923 10.6905 3.31358 10.7677 3.36983 10.8435C3.42608 10.9194 3.48416 10.9938 3.54407 11.0668C3.60397 11.1398 3.66563 11.2112 3.72904 11.2812C3.79246 11.3512 3.85755 11.4195 3.92432 11.4863C3.99109 11.5531 4.05946 11.6182 4.12942 11.6816C4.19939 11.745 4.27087 11.8067 4.34386 11.8666C4.41686 11.9265 4.49128 11.9846 4.56712 12.0408C4.64297 12.097 4.72015 12.1514 4.79866 12.2039C4.87717 12.2563 4.95693 12.3068 5.03792 12.3554C5.11891 12.4039 5.20105 12.4505 5.28433 12.495C5.3676 12.5395 5.45192 12.5819 5.53728 12.6223C5.62265 12.6627 5.70895 12.7009 5.79619 12.7371C5.88343 12.7732 5.9715 12.8072 6.06041 12.839C6.14932 12.8708 6.23895 12.9004 6.32931 12.9278C6.41967 12.9552 6.51065 12.9804 6.60225 13.0033C6.69385 13.0263 6.78595 13.047 6.87857 13.0654C6.97118 13.0838 7.06419 13.1 7.1576 13.1138C7.251 13.1277 7.34469 13.1392 7.43866 13.1485C7.53264 13.1577 7.62678 13.1647 7.72109 13.1693C7.81541 13.1739 7.90978 13.1763 8.00421 13.1763C8.09863 13.1763 8.193 13.1739 8.28732 13.1693C8.38163 13.1647 8.47578 13.1577 8.56975 13.1485C8.66372 13.1392 8.75741 13.1277 8.85082 13.1138C8.94422 13.1 9.03723 13.0838 9.12984 13.0654C9.22246 13.047 9.31456 13.0263 9.40616 13.0033C9.49776 12.9804 9.58874 12.9552 9.6791 12.9278C9.76946 12.9004 9.8591 12.8708 9.948 12.839C10.0369 12.8072 10.125 12.7732 10.2122 12.7371C10.2995 12.7009 10.3858 12.6627 10.4711 12.6223C10.5565 12.5819 10.6408 12.5395 10.7241 12.495C10.8074 12.4505 10.8895 12.4039 10.9705 12.3554C11.0515 12.3068 11.1312 12.2563 11.2098 12.2039C11.2883 12.1514 11.3654 12.097 11.4413 12.0408C11.5171 11.9846 11.5916 11.9265 11.6645 11.8666C11.7375 11.8067 11.809 11.745 11.879 11.6816C11.949 11.6182 12.0173 11.5531 12.0841 11.4863C12.1509 11.4195 12.216 11.3512 12.2794 11.2812C12.3428 11.2112 12.4044 11.1398 12.4643 11.0668C12.5243 10.9938 12.5823 10.9194 12.6386 10.8435C12.6948 10.7677 12.7492 10.6905 12.8016 10.612C12.8541 10.5335 12.9046 10.4537 12.9532 10.3727C13.0017 10.2917 13.0482 10.2096 13.0927 10.1263C13.1373 10.043 13.1797 9.95871 13.2201 9.87335C13.2604 9.78799 13.2987 9.70169 13.3348 9.61445C13.371 9.52721 13.4049 9.43913 13.4368 9.35022C13.4686 9.26132 13.4982 9.17168 13.5256 9.08132C13.553 8.99096 13.5782 8.89998 13.6011 8.80838C13.6241 8.71678 13.6447 8.62468 13.6632 8.53207C13.6816 8.43945 13.6977 8.34644 13.7116 8.25304C13.7254 8.15963 13.737 8.06594 13.7463 7.97197C13.7555 7.878 13.7625 7.78385 13.7671 7.68954C13.7717 7.59523 13.774 7.50086 13.774 7.40643C13.774 7.312 13.7717 7.21763 13.7671 7.12332C13.7625 7.029 13.7555 6.93486 13.7463 6.84089C13.737 6.74691 13.7254 6.65322 13.7116 6.55982C13.6977 6.46641 13.6816 6.3734 13.6632 6.28079C13.6447 6.18818 13.6241 6.09607 13.6011 6.00447C13.5782 5.91288 13.553 5.8219 13.5256 5.73153C13.4982 5.64117 13.4686 5.55154 13.4368 5.46263C13.4049 5.37372 13.371 5.28565 13.3348 5.19841C13.2987 5.11117 13.2604 5.02487 13.2201 4.93951C13.1797 4.85415 13.1373 4.76983 13.0927 4.68655C13.0482 4.60327 13.0017 4.52113 12.9532 4.44014C12.9046 4.35915 12.8541 4.2794 12.8016 4.20088C12.7492 4.12237 12.6948 4.04519 12.6386 3.96934C12.5823 3.8935 12.5243 3.81908 12.4643 3.74609C12.4044 3.67309 12.3428 3.60161 12.2794 3.53165C12.216 3.46168 12.1509 3.39331 12.0841 3.32654C12.0173 3.25977 11.949 3.19468 11.879 3.13126C11.809 3.06785 11.7375 3.00619 11.6645 2.94629C11.5916 2.88638 11.5171 2.82831 11.4413 2.77206C11.3654 2.71581 11.2883 2.66145 11.2098 2.60899C11.1312 2.55653 11.0515 2.50602 10.9705 2.45748C10.8895 2.40893 10.8074 2.3624 10.7241 2.31789C10.6408 2.27338 10.5565 2.23094 10.4711 2.19056C10.3858 2.15019 10.2995 2.11193 10.2122 2.0758C10.125 2.03966 10.0369 2.00569 9.948 1.97388C9.8591 1.94207 9.76946 1.91245 9.6791 1.88504C9.58874 1.85763 9.49776 1.83246 9.40616 1.80951C9.31456 1.78657 9.22246 1.76588 9.12984 1.74746C9.03723 1.72904 8.94422 1.7129 8.85082 1.69905C8.75741 1.68519 8.66372 1.67364 8.56975 1.66438C8.47577 1.65512 8.38163 1.64818 8.28732 1.64355C8.193 1.63891 8.09863 1.6366 8.00421 1.6366C7.90978 1.6366 7.81541 1.63891 7.72109 1.64355C7.62678 1.64818 7.53264 1.65512 7.43866 1.66438C7.34469 1.67364 7.251 1.68519 7.1576 1.69905C7.06419 1.7129 6.97118 1.72904 6.87857 1.74746C6.78595 1.76588 6.69385 1.78657 6.60225 1.80951C6.51065 1.83246 6.41967 1.85763 6.32931 1.88504C6.23895 1.91245 6.14932 1.94207 6.06041 1.97388C5.9715 2.00569 5.88343 2.03966 5.79619 2.0758C5.70895 2.11193 5.62265 2.15019 5.53728 2.19056C5.45192 2.23094 5.3676 2.27338 5.28433 2.31789C5.20105 2.3624 5.11891 2.40893 5.03792 2.45748C4.95693 2.50602 4.87717 2.55653 4.79866 2.60899C4.72015 2.66145 4.64297 2.71581 4.56712 2.77206C4.49128 2.82831 4.41686 2.88638 4.34386 2.94629C4.27087 3.00619 4.19939 3.06785 4.12942 3.13126C4.05946 3.19468 3.99109 3.25977 3.92432 3.32654C3.85755 3.39331 3.79246 3.46168 3.72904 3.53165C3.66563 3.60161 3.60397 3.67309 3.54407 3.74609C3.48416 3.81908 3.42608 3.8935 3.36983 3.96934C3.31358 4.04519 3.25923 4.12237 3.20677 4.20088C3.15431 4.2794 3.1038 4.35915 3.05526 4.44014C3.00671 4.52113 2.96018 4.60327 2.91567 4.68655C2.87116 4.76983 2.82871 4.85415 2.78834 4.93951C2.74797 5.02487 2.70971 5.11117 2.67358 5.19841C2.63744 5.28565 2.60347 5.37372 2.57166 5.46263C2.53984 5.55154 2.51023 5.64117 2.48282 5.73153C2.45541 5.8219 2.43023 5.91288 2.40729 6.00447C2.38435 6.09607 2.36366 6.18818 2.34524 6.28079C2.32682 6.3734 2.31068 6.46641 2.29682 6.55982C2.28297 6.65322 2.27141 6.74691 2.26216 6.84089C2.2529 6.93486 2.24596 7.029 2.24132 7.12332C2.23669 7.21763 2.23438 7.312 2.23438 7.40643Z" fill="rgb(254,201,99)" fill-rule="nonzero" />
    <path id="矢量 24" d="M8.00417 11.4706C7.97363 11.4704 7.94469 11.4635 7.91737 11.4498C7.89005 11.4362 7.86714 11.4172 7.84865 11.3929C7.69831 11.1855 4.18872 6.39028 4.18872 4.34777C4.18878 4.22285 4.19496 4.09823 4.20727 3.97391C4.21957 3.8496 4.23793 3.72618 4.26235 3.60367C4.28678 3.48116 4.31714 3.36014 4.35345 3.24061C4.38976 3.12109 4.43184 3.00362 4.47969 2.88823C4.52754 2.77283 4.58092 2.66006 4.63985 2.54991C4.69877 2.43976 4.76295 2.33276 4.83239 2.22891C4.90182 2.12506 4.97618 2.02487 5.05545 1.92832C5.13473 1.83178 5.21855 1.73935 5.3069 1.65104C5.39525 1.56273 5.48772 1.47896 5.58431 1.39973C5.68089 1.3205 5.78112 1.24619 5.885 1.17681C5.98888 1.10743 6.09591 1.0433 6.20609 0.984429C6.31627 0.925558 6.42907 0.872227 6.54449 0.824435C6.65991 0.776644 6.77739 0.734622 6.89694 0.69837C7.01649 0.662118 7.13752 0.631811 7.26004 0.607447C7.38257 0.583084 7.50599 0.564781 7.63031 0.552541C7.75463 0.5403 7.87925 0.53418 8.00417 0.53418C8.12909 0.53418 8.25372 0.5403 8.37804 0.552541C8.50236 0.564781 8.62578 0.583084 8.7483 0.607447C8.87082 0.631811 8.99186 0.662118 9.1114 0.69837C9.23095 0.734622 9.34843 0.776644 9.46385 0.824435C9.57927 0.872227 9.69207 0.925558 9.80225 0.984429C9.91243 1.0433 10.0195 1.10743 10.1233 1.17681C10.2272 1.24619 10.3275 1.3205 10.424 1.39973C10.5206 1.47896 10.6131 1.56273 10.7014 1.65104C10.7898 1.73935 10.8736 1.83178 10.9529 1.92832C11.0322 2.02487 11.1065 2.12506 11.176 2.22891C11.2454 2.33276 11.3096 2.43976 11.3685 2.54991C11.4274 2.66006 11.4808 2.77283 11.5287 2.88823C11.5765 3.00362 11.6186 3.12109 11.6549 3.24061C11.6912 3.36014 11.7216 3.48116 11.746 3.60367C11.7704 3.72618 11.7888 3.8496 11.8011 3.97391C11.8134 4.09823 11.8196 4.22285 11.8196 4.34777C11.8196 6.39028 8.29448 11.1855 8.15969 11.4188C8.11576 11.4598 8.06392 11.4771 8.00417 11.4706L8.00417 11.4706ZM8.00417 0.92112C7.89199 0.921289 7.78009 0.926945 7.66846 0.938088C7.55684 0.949232 7.44602 0.965808 7.33603 0.987818C7.22603 1.00983 7.11737 1.03717 7.01005 1.06983C6.90273 1.1025 6.79726 1.14033 6.69365 1.18334C6.59005 1.22635 6.48879 1.27432 6.38988 1.32726C6.29098 1.3802 6.1949 1.43784 6.10165 1.5002C6.0084 1.56256 5.91842 1.62933 5.83172 1.70052C5.74502 1.7717 5.662 1.84695 5.58268 1.92628C5.50336 2.0056 5.4281 2.08861 5.35692 2.17532C5.28574 2.26202 5.21897 2.352 5.15661 2.44525C5.09425 2.5385 5.0366 2.63458 4.98366 2.73348C4.93073 2.83238 4.88275 2.93364 4.83975 3.03725C4.79674 3.14086 4.7589 3.24632 4.72624 3.35364C4.69357 3.46096 4.66623 3.56962 4.64422 3.67962C4.62221 3.78962 4.60564 3.90043 4.59449 4.01206C4.58335 4.12368 4.57769 4.23559 4.57752 4.34777C4.57752 6.02739 7.3147 9.97245 8.00417 10.9419C8.69365 9.97245 11.4308 6.02739 11.4308 4.34777C11.4307 4.23559 11.425 4.12368 11.4139 4.01206C11.4027 3.90043 11.3861 3.78962 11.3641 3.67962C11.3421 3.56962 11.3148 3.46096 11.2821 3.35364C11.2494 3.24632 11.2116 3.14086 11.1686 3.03725C11.1256 2.93364 11.0776 2.83238 11.0247 2.73348C10.9717 2.63458 10.9141 2.5385 10.8517 2.44525C10.7894 2.352 10.7226 2.26202 10.6514 2.17532C10.5802 2.08861 10.505 2.0056 10.4257 1.92628C10.3463 1.84695 10.2633 1.7717 10.1766 1.70052C10.0899 1.62933 9.99994 1.56256 9.90669 1.5002C9.81344 1.43784 9.71736 1.3802 9.61846 1.32726C9.51956 1.27432 9.4183 1.22635 9.31469 1.18334C9.21108 1.14033 9.10562 1.1025 8.9983 1.06983C8.89098 1.03717 8.78232 1.00983 8.67232 0.987818C8.56232 0.965808 8.45151 0.949231 8.33988 0.938088C8.22826 0.926945 8.11635 0.921289 8.00417 0.92112L8.00417 0.92112Z" fill="rgb(0,0,0)" fill-rule="nonzero" />
    <path id="矢量 25" d="M8.00415 6.19333C7.94474 6.19248 7.88552 6.18874 7.82648 6.18209C7.76744 6.17544 7.70887 6.16592 7.65076 6.15354C7.59265 6.14115 7.53529 6.12596 7.47867 6.10796C7.42205 6.08995 7.36645 6.06922 7.31186 6.04577C7.25727 6.02232 7.20396 5.99626 7.15193 5.96759C7.09989 5.93892 7.04938 5.90777 7.0004 5.87415C6.95141 5.84053 6.90419 5.8046 6.85872 5.76635C6.81326 5.7281 6.76977 5.68773 6.72826 5.64522C6.68675 5.60272 6.64742 5.55828 6.61026 5.51193C6.5731 5.46557 6.5383 5.4175 6.50585 5.36774C6.4734 5.31797 6.44346 5.26673 6.41603 5.21403C6.3886 5.16133 6.36381 5.10742 6.34166 5.05229C6.31951 4.99716 6.3001 4.94108 6.28345 4.88405C6.26679 4.82702 6.25296 4.76931 6.24196 4.71093C6.23095 4.65254 6.22283 4.59376 6.21758 4.53458C6.21234 4.4754 6.20999 4.41611 6.21056 4.3567C6.21112 4.29729 6.21458 4.23805 6.22095 4.17898C6.22731 4.11991 6.23655 4.06129 6.24866 4.00312C6.26076 3.94496 6.27568 3.88752 6.29341 3.83082C6.31115 3.77411 6.33161 3.71841 6.3548 3.66371C6.37799 3.60901 6.40379 3.55558 6.43222 3.5034C6.46064 3.45123 6.49154 3.40057 6.52493 3.35143C6.55832 3.30228 6.59402 3.25489 6.63205 3.20924C6.67008 3.16359 6.71025 3.11991 6.75255 3.0782C6.79486 3.03649 6.8391 2.99694 6.88528 2.95956C6.93147 2.92219 6.97936 2.88715 7.02897 2.85447C7.07859 2.82178 7.12968 2.79159 7.18225 2.76391C7.23481 2.73623 7.28861 2.71118 7.34363 2.68877C7.39865 2.66635 7.45464 2.64668 7.51159 2.62975C7.56854 2.61282 7.62618 2.59872 7.68451 2.58744C7.74284 2.57615 7.80158 2.56775 7.86074 2.56222C7.91989 2.55669 7.97918 2.55406 8.03859 2.55434C8.098 2.55462 8.15726 2.5578 8.21636 2.56388C8.27546 2.56996 8.33412 2.57892 8.39234 2.59075C8.45056 2.60258 8.50807 2.61722 8.56486 2.63468C8.62165 2.65215 8.67745 2.67234 8.73226 2.69527C8.78707 2.71819 8.84062 2.74374 8.89293 2.77192C8.94524 2.80009 8.99605 2.83075 9.04535 2.8639C9.09465 2.89705 9.14222 2.93253 9.18805 2.97034C9.23388 3.00815 9.27775 3.04811 9.31966 3.09022C9.36158 3.13233 9.40133 3.17638 9.43893 3.22238C9.47653 3.26838 9.51179 3.31611 9.54472 3.36557C9.57764 3.41502 9.60807 3.46597 9.63601 3.5184C9.66394 3.57084 9.68924 3.62451 9.71192 3.67943C9.7346 3.73434 9.75453 3.79023 9.77174 3.8471C9.78894 3.90397 9.80332 3.96154 9.81488 4.01982C9.82644 4.07809 9.83513 4.1368 9.84094 4.19592C9.84675 4.25505 9.84966 4.31432 9.84967 4.37373C9.84967 4.43387 9.84671 4.49386 9.84076 4.55371C9.83482 4.61355 9.82593 4.67296 9.8141 4.73192C9.80227 4.79089 9.78755 4.84912 9.76994 4.90662C9.75234 4.96413 9.73193 5.02062 9.70872 5.0761C9.68551 5.13158 9.65962 5.18578 9.63104 5.23869C9.60246 5.29161 9.57133 5.34298 9.53765 5.3928C9.50398 5.44263 9.46792 5.49067 9.42948 5.53692C9.39105 5.58317 9.35042 5.62741 9.30759 5.66963C9.26477 5.71186 9.21996 5.75186 9.17317 5.78964C9.12638 5.82742 9.07783 5.86279 9.02753 5.89576C8.97723 5.92873 8.92543 5.95912 8.87212 5.98695C8.8188 6.01478 8.76425 6.03991 8.70844 6.06233C8.65264 6.08475 8.59586 6.10436 8.53812 6.12115C8.48037 6.13794 8.42193 6.15184 8.36281 6.16283C8.30368 6.17383 8.24416 6.18188 8.18424 6.18697C8.12431 6.19207 8.06428 6.19419 8.00415 6.19333L8.00415 6.19333ZM8.00415 2.94294C7.95729 2.94294 7.91054 2.94524 7.86391 2.94983C7.81727 2.95442 7.77098 2.96129 7.72502 2.97043C7.67906 2.97957 7.63366 2.99095 7.58881 3.00455C7.54397 3.01815 7.4999 3.03392 7.45661 3.05185C7.41332 3.06978 7.37101 3.0898 7.32968 3.11189C7.28835 3.13398 7.24821 3.15804 7.20924 3.18407C7.17028 3.21011 7.13269 3.23799 7.09646 3.26771C7.06024 3.29744 7.02556 3.32887 6.99243 3.36201C6.95929 3.39514 6.92786 3.42982 6.89813 3.46605C6.8684 3.50227 6.84052 3.53986 6.81449 3.57883C6.78845 3.61779 6.76439 3.65793 6.7423 3.69926C6.72021 3.74059 6.7002 3.7829 6.68227 3.82619C6.66434 3.86948 6.64857 3.91355 6.63497 3.9584C6.62136 4.00324 6.60999 4.04864 6.60085 4.0946C6.59171 4.14056 6.58484 4.18686 6.58025 4.23349C6.57565 4.28013 6.57336 4.32687 6.57336 4.37373C6.57336 4.42059 6.57565 4.46734 6.58025 4.51398C6.58484 4.56061 6.59171 4.60691 6.60085 4.65287C6.60999 4.69883 6.62136 4.74423 6.63497 4.78907C6.64857 4.83391 6.66434 4.87798 6.68227 4.92127C6.7002 4.96457 6.72021 5.00688 6.7423 5.0482C6.76439 5.08953 6.78845 5.12968 6.81449 5.16864C6.84052 5.2076 6.8684 5.24519 6.89813 5.28142C6.92786 5.31764 6.95929 5.35232 6.99243 5.38546C7.02556 5.41859 7.06024 5.45002 7.09646 5.47975C7.13269 5.50948 7.17028 5.53736 7.20924 5.56339C7.24821 5.58943 7.28835 5.61349 7.32968 5.63558C7.37101 5.65767 7.41332 5.67768 7.45661 5.69561C7.4999 5.71355 7.54397 5.72931 7.58881 5.74292C7.63366 5.75652 7.67906 5.76789 7.72502 5.77703C7.77098 5.78618 7.81727 5.79304 7.86391 5.79764C7.91054 5.80223 7.95729 5.80453 8.00415 5.80453C8.05101 5.80453 8.09776 5.80223 8.14439 5.79764C8.19103 5.79304 8.23732 5.78618 8.28328 5.77703C8.32924 5.76789 8.37465 5.75652 8.41949 5.74292C8.46433 5.72931 8.5084 5.71355 8.55169 5.69561C8.59499 5.67768 8.63729 5.65767 8.67862 5.63558C8.71995 5.61349 8.76009 5.58943 8.79906 5.56339C8.83802 5.53736 8.87561 5.50948 8.91184 5.47975C8.94806 5.45002 8.98274 5.41859 9.01587 5.38546C9.04901 5.35232 9.08044 5.31764 9.11017 5.28142C9.1399 5.24519 9.16778 5.2076 9.19381 5.16864C9.21985 5.12968 9.24391 5.08953 9.266 5.0482C9.28809 5.00688 9.3081 4.96457 9.32603 4.92127C9.34396 4.87798 9.35973 4.83391 9.37333 4.78907C9.38694 4.74423 9.39831 4.69883 9.40745 4.65287C9.41659 4.60691 9.42346 4.56061 9.42806 4.51398C9.43265 4.46734 9.43495 4.42059 9.43495 4.37373C9.43478 4.32692 9.43232 4.28023 9.42759 4.23365C9.42285 4.18708 9.41586 4.14085 9.4066 4.09496C9.39734 4.04907 9.38587 4.00374 9.37218 3.95897C9.35849 3.9142 9.34265 3.87021 9.32466 3.82699C9.30666 3.78377 9.2866 3.74154 9.26448 3.70028C9.24236 3.65903 9.21827 3.61895 9.19223 3.58005C9.16619 3.54114 9.13831 3.50361 9.10859 3.46743C9.07888 3.43126 9.04747 3.39662 9.01437 3.36352C8.98126 3.33042 8.94663 3.29901 8.91045 3.26929C8.87428 3.23958 8.83674 3.2117 8.79784 3.18565C8.75894 3.15961 8.71886 3.13553 8.6776 3.1134C8.63635 3.09128 8.59411 3.07122 8.55089 3.05323C8.50767 3.03524 8.46368 3.01939 8.41891 3.0057C8.37415 2.99201 8.32882 2.98054 8.28293 2.97128C8.23704 2.96203 8.19081 2.95503 8.14423 2.9503C8.09766 2.94556 8.05096 2.94311 8.00415 2.94294L8.00415 2.94294ZM15.8165 15.4676L0.196993 15.4676C0.171112 15.4683 0.146113 15.4639 0.121998 15.4545C0.0978828 15.4451 0.07655 15.4313 0.0579999 15.4133C0.0394497 15.3952 0.0251431 15.3742 0.0150802 15.3504C0.00501725 15.3265 -9.47144e-06 15.3016 1.39117e-08 15.2758C1.07976e-08 15.2496 0.00499842 15.2245 0.0149952 15.2004C0.0249921 15.1762 0.0392263 15.1549 0.057698 15.1365C0.0761697 15.118 0.0974728 15.1038 0.121607 15.0938C0.145742 15.0838 0.17087 15.0788 0.196993 15.0788L15.8165 15.0788C15.8422 15.0794 15.8668 15.0849 15.8903 15.0952C15.9138 15.1055 15.9345 15.1199 15.9524 15.1383C15.9704 15.1567 15.9842 15.1778 15.9938 15.2016C16.0035 15.2253 16.0083 15.2501 16.0083 15.2758C16.0083 15.3012 16.0034 15.3257 15.9937 15.3492C15.984 15.3727 15.9701 15.3934 15.9521 15.4114C15.9341 15.4294 15.9134 15.4432 15.8899 15.453C15.8664 15.4627 15.8419 15.4676 15.8165 15.4676Z" fill="rgb(0,0,0)" fill-rule="nonzero" />
    <path id="矢量 26" d="M4.38041 15.4675L2.22385 15.4675C2.19797 15.4682 2.17297 15.4639 2.14885 15.4544C2.12474 15.445 2.10341 15.4313 2.08486 15.4132C2.06631 15.3951 2.052 15.3742 2.04194 15.3503C2.03187 15.3265 2.02685 15.3016 2.02686 15.2757L2.02686 11.9372C2.02686 11.9111 2.03185 11.8859 2.04185 11.8618C2.05185 11.8377 2.06608 11.8164 2.08455 11.7979C2.10303 11.7794 2.12433 11.7652 2.14846 11.7552C2.1726 11.7452 2.19773 11.7402 2.22385 11.7402L4.38041 11.7402C4.40653 11.7402 4.43166 11.7452 4.45579 11.7552C4.47993 11.7652 4.50123 11.7794 4.5197 11.7979C4.53817 11.8164 4.55241 11.8377 4.56241 11.8618C4.5724 11.8859 4.5774 11.9111 4.5774 11.9372L4.5774 15.2705C4.57812 15.2969 4.57361 15.3223 4.56386 15.3468C4.55411 15.3712 4.53992 15.3928 4.52129 15.4114C4.50266 15.43 4.48111 15.4442 4.45663 15.454C4.43215 15.4637 4.40674 15.4682 4.38041 15.4675L4.38041 15.4675ZM2.41566 15.0787L4.1886 15.0787L4.1886 12.1342L2.41566 12.1342L2.41566 15.0787ZM14.8677 15.4675L13.0948 15.4675C13.0689 15.4682 13.0439 15.4639 13.0198 15.4544C12.9957 15.445 12.9743 15.4313 12.9558 15.4132C12.9372 15.3952 12.9229 15.3742 12.9129 15.3503C12.9028 15.3265 12.8978 15.3016 12.8978 15.2757L12.8978 10.4546C12.8978 10.4284 12.9028 10.4033 12.9128 10.3792C12.9228 10.355 12.937 10.3337 12.9555 10.3153C12.9739 10.2968 12.9953 10.2826 13.0194 10.2726C13.0435 10.2626 13.0687 10.2576 13.0948 10.2576L14.0901 10.2576C14.1539 10.2579 14.217 10.2644 14.2795 10.2772C14.342 10.2899 14.4027 10.3086 14.4615 10.3332C14.5203 10.3579 14.5762 10.388 14.6291 10.4236C14.682 10.4592 14.7309 10.4996 14.7759 10.5448C14.8209 10.5901 14.861 10.6392 14.8963 10.6923C14.9317 10.7454 14.9615 10.8014 14.9858 10.8604C15.0102 10.9193 15.0285 10.9801 15.0409 11.0427C15.0533 11.1052 15.0595 11.1684 15.0595 11.2322L15.0595 15.2757C15.0602 15.3014 15.0559 15.3261 15.0464 15.35C15.0369 15.3738 15.0231 15.3948 15.0049 15.4129C14.9868 15.4311 14.9658 15.4449 14.942 15.4544C14.9181 15.4639 14.8934 15.4682 14.8677 15.4675ZM13.2866 15.0787L14.6707 15.0787L14.6707 11.2322C14.6707 11.1939 14.667 11.156 14.6596 11.1185C14.6522 11.081 14.6412 11.0446 14.6266 11.0092C14.6121 10.9738 14.5942 10.9402 14.5731 10.9083C14.5519 10.8765 14.5279 10.8469 14.501 10.8198C14.4741 10.7926 14.4448 10.7683 14.4131 10.7469C14.3814 10.7255 14.3479 10.7073 14.3127 10.6924C14.2774 10.6776 14.2411 10.6663 14.2037 10.6585C14.1662 10.6508 14.1284 10.6467 14.0901 10.6464L13.2866 10.6464L13.2866 15.0787Z" fill="rgb(0,0,0)" fill-rule="nonzero" />
    <path id="矢量 27" d="M2.22398 15.4676L1.03684 15.4676C1.01096 15.4683 0.985957 15.4639 0.961842 15.4545C0.937727 15.4451 0.916394 15.4313 0.897844 15.4133C0.879293 15.3952 0.864987 15.3743 0.854924 15.3504C0.844861 15.3265 0.839834 15.3017 0.839844 15.2758L0.839844 11.5848C0.839843 11.5287 0.845329 11.4732 0.856304 11.4183C0.867278 11.3633 0.883528 11.3099 0.905052 11.2582C0.926577 11.2065 0.95296 11.1573 0.984201 11.1108C1.01544 11.0643 1.05094 11.0213 1.09069 10.9817C1.13043 10.9422 1.17367 10.907 1.22038 10.876C1.2671 10.8451 1.31639 10.819 1.36827 10.7978C1.42014 10.7766 1.47359 10.7607 1.52861 10.75C1.58364 10.7394 1.63917 10.7342 1.69521 10.7346L2.21361 10.7346C2.23926 10.7338 2.26401 10.7382 2.28785 10.7477C2.3117 10.7572 2.33269 10.771 2.35084 10.7892C2.36898 10.8073 2.38279 10.8283 2.39228 10.8521C2.40176 10.876 2.40615 10.9007 2.40542 10.9264L2.40542 15.2758C2.40612 15.3005 2.40205 15.3245 2.39322 15.3476C2.38439 15.3707 2.37146 15.3913 2.35445 15.4093C2.33743 15.4273 2.31762 15.4413 2.29502 15.4514C2.27241 15.4615 2.24873 15.4669 2.22398 15.4676ZM1.23383 15.0788L2.02699 15.0788L2.02699 11.1234L1.70039 11.1234C1.66988 11.123 1.63963 11.1257 1.60965 11.1313C1.57966 11.137 1.55053 11.1456 1.52224 11.157C1.49395 11.1684 1.46706 11.1825 1.44157 11.1993C1.41608 11.2161 1.39249 11.2352 1.37079 11.2567C1.3491 11.2781 1.32972 11.3015 1.31266 11.3268C1.2956 11.3521 1.2812 11.3788 1.26944 11.407C1.25769 11.4351 1.24881 11.4642 1.24282 11.4941C1.23682 11.524 1.23383 11.5542 1.23383 11.5848L1.23383 15.0788ZM12.338 15.4676L9.25353 15.4676C9.2281 15.4676 9.20363 15.4627 9.18013 15.453C9.15663 15.4433 9.13589 15.4294 9.1179 15.4114C9.09992 15.3934 9.08606 15.3727 9.07632 15.3492C9.06659 15.3257 9.06172 15.3012 9.06172 15.2758L9.06172 13.114C9.06238 13.0888 9.06769 13.0646 9.07765 13.0414C9.08761 13.0182 9.10151 12.9977 9.11936 12.9799C9.1372 12.962 9.15772 12.9481 9.18091 12.9382C9.2041 12.9282 9.2283 12.9229 9.25353 12.9222L10.1815 12.9222C10.2585 12.9224 10.3354 12.9263 10.412 12.934C10.4887 12.9417 10.5647 12.9532 10.6403 12.9683C10.7158 12.9835 10.7904 13.0023 10.8641 13.0247C10.9378 13.0472 11.0102 13.0732 11.0813 13.1028C11.1525 13.1323 11.222 13.1653 11.2899 13.2017C11.3578 13.238 11.4238 13.2776 11.4878 13.3205C11.5518 13.3633 11.6136 13.4092 11.6732 13.458C11.7327 13.5069 11.7897 13.5586 11.8442 13.6131C11.8986 13.6676 11.9503 13.7246 11.9992 13.7841C12.0481 13.8436 12.094 13.9054 12.1368 13.9694C12.1796 14.0335 12.2192 14.0994 12.2556 14.1674C12.292 14.2353 12.3249 14.3048 12.3545 14.3759C12.3841 14.4471 12.4101 14.5195 12.4325 14.5932C12.455 14.6669 12.4738 14.7415 12.489 14.817C12.5041 14.8925 12.5155 14.9686 12.5232 15.0453C12.5309 15.1219 12.5349 15.1988 12.535 15.2758C12.535 15.3017 12.53 15.3265 12.5199 15.3504C12.5099 15.3743 12.4956 15.3952 12.477 15.4133C12.4585 15.4313 12.4371 15.4451 12.413 15.4545C12.3889 15.4639 12.3639 15.4683 12.338 15.4676L12.338 15.4676ZM9.45053 15.0788L12.1359 15.0788C12.1297 15.0189 12.1208 14.9595 12.1092 14.9004C12.0975 14.8414 12.0832 14.783 12.0663 14.7252C12.0493 14.6675 12.0297 14.6107 12.0075 14.5547C11.9853 14.4988 11.9606 14.444 11.9334 14.3903C11.9062 14.3366 11.8766 14.2843 11.8446 14.2333C11.8126 14.1824 11.7783 14.133 11.7418 14.0851C11.7053 14.0373 11.6666 13.9913 11.6259 13.947C11.5851 13.9027 11.5424 13.8604 11.4978 13.82C11.4531 13.7796 11.4068 13.7414 11.3586 13.7053C11.3105 13.6691 11.2608 13.6353 11.2096 13.6037C11.1583 13.5722 11.1057 13.543 11.0518 13.5163C10.9979 13.4895 10.9429 13.4653 10.8868 13.4436C10.8306 13.4219 10.7736 13.4028 10.7158 13.3863C10.6579 13.3698 10.5994 13.356 10.5402 13.3449C10.4811 13.3338 10.4215 13.3254 10.3616 13.3198C10.3017 13.3141 10.2417 13.3112 10.1815 13.311L9.45053 13.311L9.45053 15.0788ZM8.00418 14.3893L5.46919 14.3893C5.45509 14.3916 5.44092 14.3924 5.42665 14.3916C5.41239 14.3908 5.39838 14.3885 5.38462 14.3847C5.37086 14.3809 5.35767 14.3756 5.34505 14.369C5.33243 14.3623 5.32068 14.3543 5.3098 14.345C5.29891 14.3358 5.28915 14.3255 5.28051 14.3141C5.27187 14.3028 5.26455 14.2906 5.25855 14.2776C5.25255 14.2647 5.24802 14.2512 5.24495 14.2373C5.24188 14.2233 5.24034 14.2092 5.24034 14.1949C5.24034 14.1806 5.24188 14.1665 5.24495 14.1526C5.24802 14.1386 5.25255 14.1252 5.25855 14.1122C5.26455 14.0992 5.27187 14.0871 5.28051 14.0757C5.28915 14.0643 5.29891 14.054 5.3098 14.0448C5.32068 14.0355 5.33243 14.0276 5.34505 14.0209C5.35767 14.0142 5.37086 14.0089 5.38462 14.0051C5.39838 14.0013 5.41239 13.999 5.42665 13.9982C5.44092 13.9974 5.45509 13.9982 5.46919 14.0005L8.00418 14.0005C8.02724 14.0043 8.04893 14.0119 8.06927 14.0234C8.08961 14.0349 8.10734 14.0496 8.12247 14.0674C8.13759 14.0852 8.14918 14.105 8.15724 14.127C8.1653 14.1489 8.16932 14.1716 8.16932 14.1949C8.16932 14.2183 8.1653 14.2409 8.15724 14.2629C8.14918 14.2848 8.13759 14.3046 8.12247 14.3225C8.10734 14.3403 8.08961 14.3549 8.06927 14.3664C8.04893 14.3779 8.02724 14.3855 8.00418 14.3893Z" fill="rgb(0,0,0)" fill-rule="nonzero" />
</svg>
