<svg viewBox="0 0 24 24" xmlns="http://www.w3.org/2000/svg" xmlns:xlink="http://www.w3.org/1999/xlink" width="24" height="24" fill="none">
    <rect id="svg" width="24" height="24" x="0" y="0" />
    <path id="path" d="M10.0801 13.08C10.08 13.188 10.0827 13.296 10.0879 13.4039C10.0932 13.5118 10.1011 13.6195 10.1117 13.727C10.1222 13.8346 10.1354 13.9418 10.1512 14.0486C10.167 14.1555 10.1855 14.2619 10.2065 14.3679C10.2276 14.4739 10.2512 14.5793 10.2774 14.6841C10.3036 14.7889 10.3324 14.893 10.3637 14.9964C10.3951 15.0998 10.4289 15.2023 10.4653 15.3041C10.5017 15.4058 10.5405 15.5066 10.5818 15.6064C10.6231 15.7062 10.6669 15.805 10.713 15.9026C10.7592 16.0003 10.8078 16.0968 10.8587 16.1921C10.9096 16.2874 10.9628 16.3814 11.0183 16.4741C11.0738 16.5667 11.1316 16.658 11.1916 16.7478C11.2516 16.8377 11.3138 16.926 11.3781 17.0128C11.4424 17.0996 11.5089 17.1847 11.5774 17.2683C11.6459 17.3518 11.7164 17.4336 11.789 17.5137C11.8615 17.5937 11.936 17.672 12.0124 17.7484C12.0887 17.8248 12.167 17.8993 12.247 17.9718C12.327 18.0444 12.4088 18.1149 12.4923 18.1835C12.5758 18.252 12.661 18.3185 12.7477 18.3829C12.8345 18.4473 12.9228 18.5095 13.0126 18.5695C13.1024 18.6295 13.1937 18.6873 13.2863 18.7429C13.379 18.7984 13.473 18.8517 13.5682 18.9026C13.6635 18.9535 13.76 19.0021 13.8576 19.0483C13.9553 19.0945 14.054 19.1383 14.1538 19.1796C14.2537 19.221 14.3544 19.2599 14.4561 19.2963C14.5579 19.3327 14.6604 19.3666 14.7638 19.3979C14.8672 19.4293 14.9713 19.4581 15.0761 19.4844C15.1809 19.5106 15.2862 19.5343 15.3922 19.5554C15.4982 19.5765 15.6046 19.5949 15.7114 19.6108C15.8183 19.6267 15.9255 19.6399 16.033 19.6505C16.1405 19.6611 16.2483 19.669 16.3562 19.6743C16.4641 19.6796 16.572 19.6823 16.6801 19.6823C16.7881 19.6823 16.8961 19.6796 17.004 19.6743C17.1119 19.669 17.2196 19.6611 17.3271 19.6505C17.4347 19.6399 17.5418 19.6267 17.6487 19.6108C17.7556 19.5949 17.862 19.5765 17.968 19.5554C18.0739 19.5343 18.1793 19.5106 18.2841 19.4844C18.3889 19.4581 18.493 19.4293 18.5964 19.3979C18.6998 19.3666 18.8023 19.3327 18.904 19.2963C19.0057 19.2599 19.1065 19.221 19.2063 19.1796C19.3061 19.1383 19.4049 19.0945 19.5025 19.0483C19.6002 19.0021 19.6967 18.9535 19.7919 18.9026C19.8872 18.8517 19.9812 18.7984 20.0738 18.7429C20.1665 18.6873 20.2577 18.6295 20.3476 18.5695C20.4374 18.5095 20.5257 18.4473 20.6124 18.3829C20.6992 18.3185 20.7843 18.252 20.8678 18.1835C20.9513 18.1149 21.0331 18.0444 21.1132 17.9718C21.1932 17.8993 21.2714 17.8248 21.3478 17.7484C21.4242 17.672 21.4986 17.5937 21.5712 17.5137C21.6437 17.4336 21.7142 17.3518 21.7828 17.2683C21.8513 17.1847 21.9177 17.0996 21.9821 17.0128C22.0464 16.926 22.1086 16.8377 22.1686 16.7478C22.2286 16.658 22.2863 16.5667 22.3419 16.4741C22.3974 16.3814 22.4506 16.2874 22.5015 16.1921C22.5524 16.0968 22.6009 16.0003 22.6471 15.9026C22.6933 15.805 22.737 15.7062 22.7783 15.6064C22.8197 15.5066 22.8585 15.4058 22.8949 15.3041C22.9312 15.2023 22.9651 15.0998 22.9964 14.9964C23.0278 14.893 23.0565 14.7889 23.0828 14.6841C23.109 14.5793 23.1326 14.4739 23.1537 14.3679C23.1747 14.2619 23.1931 14.1555 23.209 14.0486C23.2248 13.9418 23.238 13.8346 23.2485 13.727C23.2591 13.6195 23.267 13.5118 23.2722 13.4039C23.2775 13.296 23.2801 13.188 23.2801 13.08C23.2801 12.972 23.2774 12.864 23.2721 12.7561C23.2668 12.6483 23.2589 12.5406 23.2483 12.4331C23.2377 12.3256 23.2245 12.2184 23.2086 12.1116C23.1928 12.0047 23.1743 11.8983 23.1533 11.7924C23.1322 11.6864 23.1085 11.5811 23.0823 11.4763C23.056 11.3715 23.0272 11.2675 22.9959 11.1641C22.9645 11.0607 22.9307 10.9582 22.8943 10.8565C22.8579 10.7548 22.819 10.6541 22.7777 10.5543C22.7363 10.4545 22.6926 10.3558 22.6464 10.2581C22.6002 10.1605 22.5517 10.064 22.5008 9.96876C22.4498 9.8735 22.3966 9.77955 22.3411 9.6869C22.2856 9.59426 22.2278 9.50303 22.1678 9.41322C22.1078 9.32341 22.0456 9.23512 21.9812 9.14837C21.9169 9.06161 21.8505 8.97648 21.7819 8.89298C21.7134 8.80949 21.6429 8.72772 21.5704 8.64769C21.4978 8.56766 21.4234 8.48945 21.347 8.41308C21.2706 8.3367 21.1924 8.26224 21.1124 8.1897C21.0323 8.11717 20.9506 8.04663 20.8671 7.97811C20.7836 7.90959 20.6985 7.84315 20.6117 7.77881C20.5249 7.71447 20.4367 7.65229 20.3468 7.59228C20.257 7.53227 20.1658 7.4745 20.0732 7.41897C19.9805 7.36344 19.8866 7.31022 19.7913 7.2593C19.696 7.20838 19.5996 7.15983 19.5019 7.11365C19.4043 7.06747 19.3056 7.02371 19.2058 6.98238C19.106 6.94104 19.0053 6.90218 18.9036 6.86579C18.8019 6.8294 18.6993 6.79553 18.596 6.76417C18.4926 6.73282 18.3885 6.70402 18.2837 6.67777C18.179 6.65153 18.0736 6.62787 17.9677 6.6068C17.8617 6.58573 17.7553 6.56726 17.6485 6.55142C17.5417 6.53557 17.4345 6.52235 17.327 6.51176C17.2195 6.50117 17.1118 6.49323 17.0039 6.48793C16.896 6.48263 16.7881 6.47998 16.6801 6.47998C16.5721 6.47998 16.4641 6.48263 16.3562 6.48793C16.2483 6.49323 16.1407 6.50117 16.0332 6.51176C15.9257 6.52235 15.8185 6.53557 15.7117 6.55142C15.6048 6.56726 15.4984 6.58573 15.3925 6.6068C15.2865 6.62787 15.1812 6.65153 15.0764 6.67777C14.9716 6.70402 14.8676 6.73282 14.7642 6.76417C14.6608 6.79553 14.5583 6.8294 14.4566 6.86579C14.3549 6.90218 14.2542 6.94104 14.1544 6.98238C14.0546 7.02371 13.9559 7.06747 13.8582 7.11365C13.7606 7.15983 13.6641 7.20838 13.5689 7.2593C13.4736 7.31022 13.3796 7.36344 13.287 7.41897C13.1944 7.4745 13.1031 7.53227 13.0133 7.59228C12.9235 7.65229 12.8352 7.71447 12.7485 7.77881C12.6617 7.84315 12.5766 7.90959 12.4931 7.97811C12.4096 8.04663 12.3278 8.11717 12.2478 8.1897C12.1678 8.26224 12.0896 8.3367 12.0132 8.41308C11.9368 8.48945 11.8623 8.56766 11.7898 8.64769C11.7173 8.72772 11.6467 8.80949 11.5782 8.89298C11.5097 8.97648 11.4433 9.06161 11.3789 9.14837C11.3146 9.23512 11.2524 9.32341 11.1924 9.41322C11.1324 9.50303 11.0746 9.59426 11.0191 9.6869C10.9635 9.77955 10.9103 9.8735 10.8594 9.96876C10.8085 10.064 10.7599 10.1605 10.7137 10.2581C10.6676 10.3558 10.6238 10.4545 10.5825 10.5543C10.5411 10.6541 10.5023 10.7548 10.4659 10.8565C10.4295 10.9582 10.3956 11.0607 10.3643 11.1641C10.3329 11.2675 10.3041 11.3715 10.2779 11.4763C10.2516 11.5811 10.228 11.6864 10.2069 11.7924C10.1858 11.8983 10.1674 12.0047 10.1515 12.1116C10.1357 12.2184 10.1224 12.3256 10.1119 12.4331C10.1013 12.5406 10.0933 12.6483 10.088 12.7561C10.0827 12.864 10.0801 12.972 10.0801 13.08Z" fill="rgb(246,187,66)" fill-rule="nonzero" />
    <path id="path" d="M20.9392 19.6519L3.24596 19.6519C3.171 19.6517 3.09622 19.6478 3.02163 19.6403C2.94705 19.6327 2.87301 19.6216 2.79952 19.6068C2.72603 19.592 2.65344 19.5736 2.58175 19.5517C2.51006 19.5298 2.43962 19.5044 2.37042 19.4756C2.30122 19.4467 2.2336 19.4146 2.16755 19.3791C2.10151 19.3436 2.03736 19.305 1.9751 19.2633C1.91285 19.2215 1.85279 19.1768 1.79492 19.1291C1.73705 19.0815 1.68165 19.0311 1.62873 18.978C1.5758 18.9249 1.5256 18.8694 1.47813 18.8113C1.43065 18.7533 1.38613 18.6931 1.34457 18.6307C1.303 18.5684 1.26458 18.5041 1.22932 18.4379C1.19406 18.3718 1.16213 18.3041 1.13351 18.2348C1.10489 18.1655 1.07974 18.0949 1.05804 18.0232C1.03635 17.9514 1.01822 17.8788 1.00365 17.8053C0.989082 17.7317 0.978149 17.6576 0.97085 17.583C0.963551 17.5084 0.959922 17.4336 0.959961 17.3587L0.959961 8.48371C0.959961 8.45192 0.963062 8.42044 0.969263 8.38927C0.975464 8.35809 0.984646 8.32782 0.99681 8.29846C1.00897 8.26909 1.02388 8.24119 1.04154 8.21477C1.0592 8.18834 1.07927 8.16389 1.10174 8.14141C1.12422 8.11893 1.14867 8.09887 1.1751 8.08121C1.20153 8.06355 1.22943 8.04864 1.25879 8.03647C1.28816 8.02431 1.31843 8.01513 1.3496 8.00893C1.38078 8.00273 1.41226 7.99963 1.44404 7.99963C1.47583 7.99963 1.50731 8.00273 1.53848 8.00893C1.56965 8.01513 1.59992 8.02431 1.62929 8.03647C1.65866 8.04864 1.68655 8.06355 1.71298 8.08121C1.73941 8.09887 1.76386 8.11893 1.78634 8.14141C1.80881 8.16389 1.82888 8.18834 1.84654 8.21477C1.8642 8.24119 1.87911 8.26909 1.89127 8.29846C1.90344 8.32782 1.91262 8.35809 1.91882 8.38927C1.92502 8.42044 1.92812 8.45192 1.92812 8.48371L1.92812 17.3587C1.92809 17.4453 1.9365 17.5311 1.95334 17.6161C1.97019 17.7011 1.99515 17.7836 2.02822 17.8637C2.0613 17.9438 2.10186 18.0199 2.1499 18.092C2.19794 18.1641 2.25254 18.2308 2.3137 18.2922C2.37487 18.3536 2.44142 18.4084 2.51337 18.4566C2.58531 18.5049 2.66127 18.5457 2.74124 18.5791C2.82122 18.6124 2.90367 18.6376 2.9886 18.6548C3.07353 18.6719 3.15932 18.6806 3.24596 18.6808L20.9392 18.6808C21.0259 18.6806 21.1117 18.6719 21.1966 18.6548C21.2815 18.6376 21.364 18.6124 21.444 18.5791C21.5239 18.5457 21.5999 18.5049 21.6718 18.4566C21.7438 18.4084 21.8103 18.3536 21.8715 18.2922C21.9327 18.2308 21.9873 18.1641 22.0353 18.092C22.0833 18.0199 22.1239 17.9438 22.157 17.8637C22.1901 17.7836 22.215 17.7011 22.2319 17.6161C22.2487 17.5311 22.2571 17.4453 22.2571 17.3587L22.2571 6.40795C22.2571 6.3213 22.2487 6.23549 22.2319 6.1505C22.215 6.06551 22.1901 5.98298 22.157 5.9029C22.1239 5.82282 22.0833 5.74673 22.0353 5.67462C21.9873 5.60252 21.9327 5.53579 21.8715 5.47442C21.8103 5.41306 21.7438 5.35824 21.6718 5.30996C21.5999 5.26168 21.5239 5.22088 21.444 5.18754C21.364 5.1542 21.2815 5.12897 21.1966 5.11185C21.1117 5.09473 21.0259 5.08604 20.9392 5.08579L3.24596 5.08579C3.0629 5.08507 2.88748 5.12133 2.7197 5.19456C2.55192 5.2678 2.40606 5.37178 2.28212 5.50651C2.26058 5.53053 2.23688 5.55218 2.21101 5.57147C2.18514 5.59076 2.15763 5.6073 2.12846 5.6211C2.09929 5.63489 2.06904 5.64567 2.03772 5.65343C2.0064 5.66118 1.97462 5.66576 1.94239 5.66718C1.91015 5.66859 1.87809 5.6668 1.84622 5.66181C1.81434 5.65682 1.78327 5.64872 1.753 5.63753C1.72274 5.62634 1.69388 5.61226 1.66643 5.59531C1.63898 5.57835 1.61347 5.55885 1.58992 5.5368C1.56636 5.51475 1.54521 5.49059 1.52648 5.46432C1.50774 5.43805 1.49179 5.41019 1.47862 5.38073C1.46545 5.35127 1.45532 5.32081 1.44823 5.28933C1.44114 5.25785 1.43724 5.22598 1.43651 5.19372C1.43579 5.16146 1.43826 5.12945 1.44393 5.09769C1.4496 5.06592 1.45835 5.03503 1.47018 5.00501C1.48202 4.975 1.4967 4.94644 1.51424 4.91936C1.53178 4.89227 1.55182 4.86719 1.57436 4.84411C1.68128 4.7293 1.79876 4.62656 1.92679 4.53589C2.05482 4.44523 2.19074 4.36853 2.33453 4.3058C2.47833 4.24306 2.627 4.19561 2.78055 4.16343C2.9341 4.13125 3.08932 4.11502 3.2462 4.11475L20.9395 4.11475C22.2036 4.11811 23.2262 5.14435 23.2252 6.40819L23.2252 17.3601C23.2252 17.435 23.2216 17.5098 23.2142 17.5844C23.2069 17.6589 23.1959 17.733 23.1813 17.8065C23.1667 17.88 23.1485 17.9526 23.1268 18.0243C23.1051 18.096 23.0799 18.1665 23.0513 18.2358C23.0226 18.305 22.9907 18.3727 22.9554 18.4388C22.9201 18.5049 22.8817 18.5691 22.8401 18.6315C22.7986 18.6938 22.754 18.754 22.7066 18.812C22.6591 18.8699 22.6089 18.9255 22.556 18.9785C22.503 19.0316 22.4477 19.0819 22.3898 19.1295C22.3319 19.1772 22.2719 19.2218 22.2097 19.2636C22.1474 19.3053 22.0833 19.3439 22.0173 19.3793C21.9512 19.4148 21.8836 19.4469 21.8145 19.4757C21.7453 19.5045 21.6749 19.5299 21.6032 19.5518C21.5315 19.5737 21.459 19.592 21.3855 19.6068C21.312 19.6216 21.238 19.6328 21.1635 19.6403C21.0889 19.6478 21.0142 19.6517 20.9392 19.6519ZM12.144 12.6211C11.7548 12.6214 11.3752 12.5617 11.0049 12.4419C10.6347 12.3221 10.292 12.1482 9.97676 11.92L1.63196 5.46907C1.60548 5.45014 1.58116 5.42876 1.55898 5.40493C1.53681 5.3811 1.51723 5.3553 1.50026 5.32753C1.48328 5.29976 1.46924 5.27057 1.45815 5.23997C1.44705 5.20937 1.43911 5.17797 1.43434 5.14578C1.42956 5.11358 1.42805 5.08123 1.42979 5.04872C1.43153 5.01622 1.4365 4.98422 1.44469 4.95272C1.45288 4.92121 1.46412 4.89084 1.47843 4.86161C1.49273 4.83237 1.50981 4.80485 1.52966 4.77905C1.54951 4.75326 1.57173 4.7297 1.59632 4.70837C1.62092 4.68705 1.64739 4.6684 1.67574 4.65241C1.70409 4.63642 1.73375 4.62341 1.76472 4.6134C1.79569 4.60338 1.82735 4.59655 1.8597 4.59292C1.89204 4.58928 1.92442 4.5889 1.95685 4.59178C1.98927 4.59467 2.02108 4.60075 2.05227 4.61004C2.08347 4.61933 2.11342 4.63164 2.14214 4.64697C2.17086 4.66229 2.19776 4.68032 2.22284 4.70107L10.5559 11.1429C10.669 11.2239 10.7876 11.2957 10.9117 11.3585C11.0358 11.4213 11.164 11.4743 11.2962 11.5174C11.4284 11.5606 11.5632 11.5934 11.7004 11.616C11.8377 11.6385 11.9758 11.6505 12.1149 11.6519C12.254 11.6533 12.3924 11.6441 12.5301 11.6243C12.6677 11.6045 12.8031 11.5743 12.9361 11.5338C13.0692 11.4933 13.1984 11.4429 13.3237 11.3826C13.4491 11.3223 13.5691 11.2528 13.6838 11.1741L20.5377 6.62299C20.5643 6.60658 20.5922 6.59286 20.6215 6.58185C20.6507 6.57083 20.6807 6.56271 20.7115 6.5575C20.7423 6.55228 20.7734 6.55006 20.8046 6.55083C20.8358 6.55161 20.8667 6.55536 20.8972 6.5621C20.9277 6.56884 20.9573 6.57843 20.986 6.59089C21.0146 6.60334 21.0418 6.61842 21.0676 6.63612C21.0933 6.65383 21.1171 6.67383 21.139 6.69614C21.1609 6.71845 21.1804 6.74264 21.1976 6.76872C21.2148 6.7948 21.2294 6.82229 21.2413 6.85118C21.2532 6.88007 21.2622 6.90983 21.2684 6.94047C21.2745 6.9711 21.2777 7.00204 21.2778 7.03329C21.278 7.06453 21.2752 7.09551 21.2694 7.12621C21.2636 7.15691 21.2549 7.18677 21.2433 7.21579C21.2317 7.24481 21.2175 7.27245 21.2006 7.29872C21.1836 7.32499 21.1644 7.3494 21.1427 7.37194C21.1211 7.39449 21.0975 7.41476 21.072 7.43275L14.2248 11.9788C13.9184 12.1886 13.5878 12.3482 13.233 12.4577C12.8783 12.5672 12.5152 12.6216 12.144 12.6211ZM12.0924 17.7091C12.0402 17.7091 11.9894 17.7009 11.94 17.6846C11.8905 17.6682 11.8448 17.6445 11.803 17.6135C11.7611 17.5824 11.7252 17.5456 11.6952 17.5029C11.6652 17.4603 11.6427 17.4141 11.6276 17.3642C11.6126 17.3143 11.6057 17.2633 11.6071 17.2112C11.6084 17.1591 11.6179 17.1085 11.6355 17.0595C11.6532 17.0105 11.6781 16.9654 11.7102 16.9244C11.7424 16.8834 11.7802 16.8485 11.8236 16.8196L16.1798 13.9058C16.2063 13.889 16.2342 13.8749 16.2635 13.8636C16.2928 13.8522 16.3229 13.8438 16.3538 13.8383C16.3847 13.8327 16.4158 13.8302 16.4472 13.8308C16.4786 13.8313 16.5097 13.8348 16.5404 13.8414C16.5711 13.8479 16.6009 13.8574 16.6297 13.8697C16.6586 13.882 16.686 13.897 16.712 13.9147C16.738 13.9323 16.762 13.9523 16.7841 13.9746C16.8061 13.997 16.8259 14.0212 16.8433 14.0473C16.8606 14.0735 16.8753 14.1011 16.8874 14.1301C16.8994 14.1591 16.9085 14.189 16.9147 14.2197C16.921 14.2505 16.9242 14.2816 16.9244 14.313C16.9246 14.3444 16.9217 14.3755 16.9159 14.4063C16.9101 14.4372 16.9013 14.4672 16.8896 14.4963C16.878 14.5255 16.8636 14.5532 16.8465 14.5796C16.8295 14.606 16.8101 14.6304 16.7882 14.653C16.7664 14.6756 16.7427 14.6959 16.7169 14.7139L12.36 17.6279C12.2793 17.6822 12.1896 17.7089 12.0924 17.7091ZM15.9648 17.7091C15.9126 17.7091 15.8618 17.701 15.8123 17.6846C15.7628 17.6683 15.7171 17.6446 15.6753 17.6136C15.6334 17.5825 15.5975 17.5457 15.5675 17.5031C15.5375 17.4604 15.5149 17.4142 15.4998 17.3643C15.4847 17.3144 15.4779 17.2634 15.4792 17.2113C15.4806 17.1592 15.49 17.1086 15.5077 17.0596C15.5253 17.0105 15.5502 16.9655 15.5824 16.9244C15.6145 16.8834 15.6523 16.8485 15.6957 16.8196L20.0517 13.9058C20.0783 13.8887 20.1062 13.8744 20.1355 13.8628C20.1649 13.8512 20.195 13.8425 20.226 13.8368C20.2571 13.8311 20.2883 13.8284 20.3199 13.8288C20.3514 13.8292 20.3826 13.8326 20.4135 13.8391C20.4444 13.8456 20.4743 13.8549 20.5034 13.8673C20.5324 13.8796 20.56 13.8946 20.5861 13.9122C20.6122 13.9299 20.6364 13.95 20.6586 13.9724C20.6808 13.9948 20.7006 14.0191 20.7181 14.0454C20.7356 14.0716 20.7503 14.0993 20.7624 14.1285C20.7745 14.1576 20.7836 14.1876 20.7898 14.2186C20.796 14.2495 20.7992 14.2807 20.7993 14.3123C20.7994 14.3438 20.7965 14.3751 20.7905 14.406C20.7845 14.437 20.7756 14.4671 20.7638 14.4963C20.7519 14.5256 20.7374 14.5534 20.7201 14.5798C20.7028 14.6062 20.6832 14.6306 20.6611 14.6532C20.6391 14.6758 20.6151 14.696 20.5891 14.7139L16.2333 17.6279C16.1523 17.6824 16.0624 17.7091 15.9648 17.7091Z" fill="rgb(0,0,0)" fill-rule="nonzero" />
</svg>
