<svg viewBox="0 0 16 16" xmlns="http://www.w3.org/2000/svg" xmlns:xlink="http://www.w3.org/1999/xlink" width="16.000000" height="16.000000" fill="none">
    <rect id="svg 22" width="16.000000" height="16.000000" x="0.000000" y="0.000000" />
    <path id="矢量 1194" d="M6.2359 4.19845C6.2359 4.19845 1.52809 6.83438 3.37965 11.1266C4.7484 14.2984 10.2406 13.8 10.2406 13.8C10.4156 13.7828 15.5875 13.5219 14.7015 8.67032C14.1109 5.43751 11.3406 4.21251 11.0422 4.15626C10.7437 4.10157 6.2359 4.19845 6.2359 4.19845Z" fill="rgb(255,106,72)" fill-rule="nonzero" />
    <path id="矢量 1195" d="M9.38434 13.989C7.7359 13.989 4.30622 13.6781 3.23278 11.189C1.3484 6.81713 6.10934 4.08744 6.15778 4.06088C6.17965 4.04838 6.20622 4.04056 6.23122 4.04056C6.69372 4.03119 10.7656 3.94525 11.0687 4.0015C11.4484 4.07181 14.2578 5.37494 14.8547 8.64213C15.1125 10.0546 14.8922 11.2265 14.1984 12.1265C13.039 13.6312 10.9031 13.9062 10.275 13.9546C10.2187 13.9593 9.88278 13.989 9.38434 13.989ZM6.27965 4.35619C6.08434 4.47181 5.05934 5.10931 4.23122 6.15931C3.02028 7.69525 2.78278 9.34525 3.5234 11.064C4.83122 14.0968 10.1718 13.6468 10.225 13.6421C10.8484 13.5937 12.8703 13.3343 13.95 11.9328C14.5859 11.1077 14.7859 10.0187 14.5453 8.69838C13.9797 5.60306 11.3656 4.3765 11.0125 4.31244C10.8047 4.27338 8.08434 4.31713 6.27965 4.35619Z" fill="rgb(127,5,24)" fill-rule="nonzero" />
    <path id="矢量 1196" d="M5.55933 4.63123C5.55933 4.63123 5.63901 5.44216 6.97339 6.04373C8.30776 6.64529 10.4625 6.54998 11.3984 5.4156C12.3328 4.28123 11.9484 4.13904 11.9484 4.13904L5.55933 4.63123L5.55933 4.63123Z" fill="rgb(255,200,49)" fill-rule="nonzero" />
    <path id="矢量 1197" d="M8.79528 6.56404C8.12184 6.56404 7.45153 6.43279 6.90778 6.18748C5.50621 5.55623 5.40465 4.68279 5.40153 4.64685C5.39684 4.60466 5.4109 4.56248 5.43746 4.52966C5.46403 4.49685 5.50465 4.47654 5.54684 4.47341L11.9343 3.98123C11.9562 3.97966 11.9797 3.98279 12.0015 3.9906C12.0625 4.01248 12.139 4.0781 12.1687 4.19216C12.2422 4.46404 12.0297 4.89685 11.5187 5.51716C10.9234 6.23904 9.85621 6.56404 8.79528 6.56404L8.79528 6.56404ZM5.7609 4.77498C5.85778 5.02029 6.15153 5.50154 7.03746 5.90154C8.33278 6.48435 10.3906 6.38748 11.275 5.31716C11.8093 4.66873 11.8672 4.39373 11.8672 4.30466L5.7609 4.77498L5.7609 4.77498ZM5.55934 4.63123L5.56403 4.63123L5.55934 4.63123Z" fill="rgb(127,5,24)" fill-rule="nonzero" />
    <path id="矢量 1198" d="M3.72027 9.88274C3.25152 6.89836 5.54215 4.6968 5.64058 4.60461L6.04527 5.03274C6.0234 5.05305 3.88277 7.11868 4.30308 9.79211L3.72027 9.88274L3.72027 9.88274Z" fill="rgb(255,200,49)" fill-rule="nonzero" />
    <path id="矢量 1199" d="M3.72028 10.0406C3.64372 10.0406 3.57653 9.98437 3.56403 9.90781C3.08122 6.82812 5.43278 4.58437 5.53278 4.48906C5.59684 4.42968 5.69528 4.43281 5.75622 4.49531L6.16091 4.92343C6.22028 4.98593 6.21716 5.08593 6.15466 5.14687C6.13434 5.16718 4.05466 7.19062 4.45934 9.76718C4.46559 9.80781 4.45622 9.85156 4.43122 9.88437C4.40622 9.91874 4.36872 9.94062 4.32809 9.94687L3.74528 10.0375C3.73591 10.0391 3.72809 10.0406 3.72028 10.0406L3.72028 10.0406ZM5.63747 4.82968C5.18278 5.30156 3.54059 7.19999 3.85466 9.70156L4.12653 9.65937C3.84216 7.34531 5.39372 5.49687 5.82653 5.03124L5.63747 4.82968L5.63747 4.82968Z" fill="rgb(127,5,24)" fill-rule="nonzero" />
    <path id="矢量 1200" d="M4.77974 10.4391C4.74849 10.8453 4.39381 11.15 3.98756 11.1188C3.58131 11.0875 3.27662 10.7328 3.30787 10.3281C3.33912 9.92188 3.69224 9.6172 4.09849 9.64845C4.50631 9.67813 4.81099 10.0328 4.77974 10.4391Z" fill="rgb(255,255,255)" fill-rule="nonzero" />
    <path id="矢量 1201" d="M4.04375 11.2797C4.02187 11.2797 3.99843 11.2782 3.975 11.2766C3.73593 11.2579 3.51875 11.1485 3.36406 10.9672C3.20781 10.786 3.13281 10.5547 3.15 10.3157C3.16875 10.0766 3.27812 9.85942 3.45937 9.70317C3.64062 9.54692 3.87187 9.47192 4.11093 9.48911C4.35 9.50786 4.56718 9.61723 4.72343 9.79848C4.87968 9.97973 4.95468 10.211 4.9375 10.45C4.90156 10.9204 4.50781 11.2797 4.04375 11.2797L4.04375 11.2797ZM4.04218 9.80317C3.90312 9.80317 3.77187 9.85161 3.66562 9.94379C3.54843 10.0438 3.47656 10.186 3.46562 10.3407C3.45312 10.4954 3.50312 10.6454 3.60312 10.7625C3.70468 10.8797 3.84375 10.9516 3.99843 10.9625C4.31718 10.9907 4.59687 10.7469 4.62031 10.4282C4.63281 10.2735 4.58281 10.1235 4.48281 10.0063C4.38125 9.88911 4.24062 9.81723 4.08593 9.80629C4.07187 9.80473 4.05781 9.80317 4.04218 9.80317L4.04218 9.80317Z" fill="rgb(127,5,24)" fill-rule="nonzero" />
    <path id="矢量 1202" d="M1.78906 8.29851C2.69219 5.4157 5.72188 4.45789 5.85 4.41882L6.02344 4.98289C5.99531 4.99226 3.15937 5.89382 2.35156 8.47507L1.78906 8.29851L1.78906 8.29851Z" fill="rgb(255,200,49)" fill-rule="nonzero" />
    <path id="矢量 1203" d="M2.35154 8.63443C2.33591 8.63443 2.32029 8.63131 2.30466 8.62662L1.74216 8.45006C1.65935 8.4235 1.61247 8.336 1.63904 8.25162C2.56872 5.28131 5.67185 4.30787 5.8031 4.26881C5.88591 4.24381 5.97341 4.29068 5.99997 4.3735L6.17341 4.93756C6.19841 5.02037 6.15154 5.10943 6.06872 5.13443C6.0406 5.14381 3.28122 6.03287 2.49997 8.5235C2.48747 8.56412 2.45935 8.59693 2.42185 8.61568C2.40154 8.62818 2.37654 8.63443 2.35154 8.63443L2.35154 8.63443ZM1.98904 8.19693L2.25154 8.27975C3.02497 6.07662 5.23435 5.111 5.82966 4.88756L5.74841 4.6235C5.1281 4.84225 2.8156 5.81725 1.98904 8.19693L1.98904 8.19693Z" fill="rgb(127,5,24)" fill-rule="nonzero" />
    <path id="矢量 1204" d="M2.49059 9.26881C2.28278 9.61881 1.82965 9.73444 1.47965 9.52819C1.12965 9.32038 1.01403 8.86725 1.22184 8.51725C1.42965 8.16725 1.88278 8.05163 2.23278 8.25944C2.58278 8.46412 2.6984 8.91725 2.49059 9.26881L2.49059 9.26881Z" fill="rgb(255,255,255)" fill-rule="nonzero" />
    <path id="矢量 1205" d="M1.85306 9.78751C1.69837 9.78751 1.54056 9.74688 1.39837 9.66251C0.973371 9.40938 0.832746 8.85938 1.08431 8.43438C1.33587 8.00938 1.88587 7.86876 2.31243 8.12032C2.73743 8.37188 2.87806 8.92344 2.6265 9.34844C2.45931 9.62969 2.16087 9.78751 1.85306 9.78751L1.85306 9.78751ZM1.85775 8.31251C1.65931 8.31251 1.46556 8.41407 1.35775 8.59688C1.19525 8.87188 1.28587 9.22813 1.56087 9.39219C1.83743 9.55469 2.19368 9.46407 2.35618 9.18907C2.51868 8.91407 2.42806 8.55782 2.15306 8.39376C2.05931 8.33751 1.95775 8.31251 1.85775 8.31251ZM2.49056 9.26876L2.49525 9.26876L2.49056 9.26876Z" fill="rgb(127,5,24)" fill-rule="nonzero" />
    <path id="矢量 1206" d="M12.5625 2.50472C14.1953 1.87972 11.5547 4.63128 11.5547 4.63128C8.08594 6.97972 5.65781 4.42191 5.65781 4.42191L4.25781 2.58128C4.25781 2.58128 9.07969 3.83909 12.5625 2.50472L12.5625 2.50472Z" fill="rgb(255,106,72)" fill-rule="nonzero" />
    <path id="矢量 1207" d="M8.63912 5.76874C6.75006 5.76874 5.56099 4.54843 5.54381 4.53124L4.13287 2.67812C4.09224 2.62499 4.08912 2.55155 4.12662 2.4953C4.16412 2.43905 4.23287 2.41249 4.29849 2.42968C4.34693 2.44218 9.11099 3.65937 12.5063 2.35937C12.7594 2.26249 13.0704 2.17655 13.2063 2.38124C13.4516 2.75155 12.5063 3.86874 11.6688 4.74218C10.5407 5.50624 9.51412 5.76874 8.63912 5.76874ZM4.65006 2.83437L5.78443 4.32499C5.86881 4.41249 8.15631 6.74218 11.4672 4.49999C12.2501 3.67968 12.911 2.81249 12.9376 2.5703L12.936 2.5703C12.8954 2.5703 12.8032 2.5828 12.6188 2.65312C9.69693 3.77187 5.91881 3.11093 4.65006 2.83437L4.65006 2.83437ZM12.5626 2.50468L12.5672 2.50468L12.5626 2.50468Z" fill="rgb(127,5,24)" fill-rule="nonzero" />
    <path id="矢量 1208" d="M4.20306 2.16723C4.37494 1.76098 5.439 1.44535 6.16556 1.66254C7.84994 2.16723 7.79213 1.64067 8.12025 1.45473C8.44838 1.26723 9.22963 1.24692 10.3171 1.71567C11.3671 2.16723 12.1406 1.59379 12.3531 1.59848C14.0218 1.63598 13.0718 2.81567 12.6953 3.17192C11.5687 4.23442 10.3781 3.52192 10.3781 3.52192C10.3781 3.52192 9.79525 3.0266 9.09525 3.46567C8.3515 3.93129 7.69525 4.48442 6.88119 3.76879C6.21088 3.17817 5.86713 3.46567 5.339 3.3391C5.06713 3.27192 3.82338 3.06098 4.20306 2.16723L4.20306 2.16723Z" fill="rgb(238,62,43)" fill-rule="nonzero" />
    <path id="矢量 1209" d="M7.67497 4.27029C7.39059 4.27029 7.09216 4.16404 6.77497 3.88435C6.36559 3.52341 6.10778 3.5281 5.80778 3.53122C5.65153 3.53435 5.48903 3.53591 5.30153 3.4906L5.24216 3.47654C4.95622 3.41247 4.28591 3.26404 4.05309 2.81247C3.94528 2.6031 3.94684 2.3656 4.05778 2.10466C4.27184 1.60154 5.43903 1.27966 6.21091 1.51091C7.45466 1.88435 7.65622 1.67497 7.83278 1.49216C7.89215 1.43122 7.95309 1.36716 8.04059 1.31716C8.38747 1.11872 9.20778 1.0656 10.3781 1.57029C11.114 1.88747 11.6984 1.66091 12.0468 1.52654C12.1843 1.47341 12.2593 1.44685 12.3562 1.4406C12.95 1.45466 13.3109 1.61404 13.4265 1.9156C13.6406 2.47341 12.889 3.20466 12.8031 3.28591C11.6015 4.41716 10.3078 3.66404 10.2953 3.65622C10.2547 3.62497 9.76715 3.2281 9.17653 3.59841L8.96872 3.73122C8.55465 3.99685 8.13122 4.27029 7.67497 4.27029L7.67497 4.27029ZM5.90153 3.21404C6.19684 3.21404 6.53434 3.24997 6.98434 3.64685C7.63122 4.21716 8.14684 3.88435 8.7984 3.46404L9.00934 3.32966C9.64215 2.93279 10.2468 3.2031 10.4781 3.39997C10.5015 3.41091 11.5609 4.02029 12.5859 3.05622C12.8531 2.80466 13.2375 2.3031 13.1312 2.0281C13.0672 1.86247 12.7906 1.7656 12.3484 1.75622C12.3234 1.75779 12.2328 1.79216 12.1609 1.82029C11.7937 1.96247 11.1078 2.2281 10.2531 1.85935C9.11559 1.37029 8.42653 1.46091 8.19684 1.5906C8.14841 1.61872 8.10778 1.66091 8.05934 1.71091C7.77966 2.00154 7.44059 2.20779 6.11872 1.81247C5.42966 1.60622 4.47184 1.93435 4.34684 2.22654C4.27341 2.39997 4.26872 2.54372 4.33278 2.66716C4.49684 2.98747 5.08747 3.11872 5.30934 3.16716L5.37341 3.18122C5.52341 3.21716 5.65934 3.21716 5.80153 3.21404C5.83591 3.2156 5.86872 3.21404 5.90153 3.21404L5.90153 3.21404Z" fill="rgb(127,5,24)" fill-rule="nonzero" />
    <path id="矢量 1210" d="M8.67815 12.2906C8.59065 12.2906 8.52034 12.2203 8.52034 12.1328L8.52034 11.375L7.46721 11.375C7.37971 11.375 7.3094 11.3047 7.3094 11.2172L7.3094 10.6781C7.3094 10.5906 7.37971 10.5203 7.46721 10.5203L8.52034 10.5203L8.52034 10.4594L7.46721 10.4594C7.37971 10.4594 7.3094 10.3891 7.3094 10.3016L7.3094 9.76252C7.3094 9.67502 7.37971 9.60471 7.46721 9.60471L8.1594 9.60471L6.85628 7.52659C6.82659 7.47815 6.82346 7.41721 6.85159 7.36565C6.87971 7.31565 6.93284 7.2844 6.98909 7.2844L8.30628 7.2844C8.36878 7.2844 8.42502 7.32034 8.45003 7.37659L8.92659 8.42971C9.07815 8.76252 9.15628 8.93909 9.23284 9.1094L9.24846 9.14534C9.30784 9.01565 10.0297 7.37659 10.0297 7.37659C10.0547 7.31877 10.1125 7.28284 10.175 7.28284L11.4688 7.28284C11.5266 7.28284 11.5797 7.31409 11.6063 7.36409C11.6344 7.41409 11.6328 7.47502 11.6016 7.52502L10.2985 9.60315L10.9906 9.60315C11.0781 9.60315 11.1485 9.67346 11.1485 9.76096L11.1485 10.3C11.1485 10.3875 11.0781 10.4578 10.9906 10.4578L9.95002 10.4578L9.95002 10.5188L10.9906 10.5188C11.0781 10.5188 11.1485 10.5891 11.1485 10.6766L11.1485 11.2156C11.1485 11.3031 11.0781 11.3735 10.9906 11.3735L9.95002 11.3735L9.95002 12.1313C9.95002 12.2188 9.87971 12.2891 9.79221 12.2891L8.67815 12.2891L8.67815 12.2906Z" fill="rgb(255,255,255)" fill-rule="nonzero" />
    <path id="矢量 1211" d="M11.4688 7.44221L10.0141 9.76252L10.9922 9.76252L10.9922 10.3016L9.79379 10.3016L9.79379 10.6781L10.9922 10.6781L10.9922 11.2172L9.79379 11.2172L9.79379 12.1328L8.67816 12.1328L8.67816 11.2172L7.46722 11.2172L7.46722 10.6781L8.67816 10.6781L8.67816 10.3016L7.46722 10.3016L7.46722 9.76252L8.44535 9.76252L6.99066 7.44221L8.30785 7.44221L8.78441 8.49534C9.02191 9.01565 9.07972 9.15315 9.22972 9.48596L9.26722 9.48596C9.42347 9.15315 9.49222 8.99065 9.71254 8.49534L10.1766 7.44221L11.4688 7.44221M11.4703 7.12659L10.1766 7.12659C10.0516 7.12659 9.93754 7.20003 9.88754 7.31565L9.42347 8.36878L9.29691 8.65627C9.28129 8.69221 9.26566 8.72659 9.2516 8.7594C9.20472 8.65315 9.14691 8.52815 9.07191 8.36409L8.59535 7.31252C8.54379 7.20002 8.43129 7.12659 8.30785 7.12659L6.99066 7.12659C6.87504 7.12659 6.77035 7.18909 6.7141 7.28909C6.65785 7.38909 6.66254 7.51252 6.72347 7.6094L7.87504 9.4469L7.46722 9.4469C7.29222 9.4469 7.1516 9.58752 7.1516 9.76252L7.1516 10.3016C7.1516 10.3719 7.17504 10.4375 7.2141 10.4891C7.17504 10.5422 7.1516 10.6063 7.1516 10.6766L7.1516 11.2156C7.1516 11.3906 7.29222 11.5313 7.46722 11.5313L8.36254 11.5313L8.36254 12.1313C8.36254 12.3063 8.50316 12.4469 8.67816 12.4469L9.79379 12.4469C9.96879 12.4469 10.1094 12.3063 10.1094 12.1313L10.1094 11.5313L10.9907 11.5313C11.1657 11.5313 11.3063 11.3906 11.3063 11.2156L11.3063 10.6766C11.3063 10.6063 11.2829 10.5406 11.2438 10.4891C11.2829 10.436 11.3063 10.3719 11.3063 10.3016L11.3063 9.76252C11.3063 9.58752 11.1657 9.4469 10.9907 9.4469L10.5829 9.4469L11.725 7.62659C11.7625 7.57502 11.7844 7.51096 11.7844 7.44221C11.786 7.26877 11.6454 7.12659 11.4704 7.12659L11.4703 7.12659ZM11.4688 7.75784L11.4703 7.75784L11.4688 7.75784Z" fill="rgb(127,5,24)" fill-rule="nonzero" />
</svg>
