<svg viewBox="0 0 24 24" xmlns="http://www.w3.org/2000/svg" xmlns:xlink="http://www.w3.org/1999/xlink" width="24" height="24" fill="none">
    <rect id="svg" width="24" height="24" x="0" y="0" />
    <path id="path" d="M9.73804 15.3084C9.73804 15.4459 9.74477 15.5831 9.75825 15.7199C9.77172 15.8567 9.79187 15.9925 9.81869 16.1273C9.84551 16.2622 9.87888 16.3954 9.91878 16.5269C9.95869 16.6585 10.005 16.7878 10.0576 16.9148C10.1102 17.0418 10.1689 17.1659 10.2337 17.2872C10.2985 17.4084 10.3691 17.5262 10.4455 17.6405C10.5218 17.7548 10.6036 17.8651 10.6908 17.9714C10.7781 18.0776 10.8703 18.1794 10.9675 18.2766C11.0647 18.3738 11.1664 18.466 11.2727 18.5532C11.379 18.6404 11.4893 18.7222 11.6036 18.7986C11.7179 18.875 11.8357 18.9456 11.9569 19.0104C12.0781 19.0752 12.2023 19.1339 12.3293 19.1865C12.4563 19.2391 12.5856 19.2854 12.7171 19.3253C12.8487 19.3652 12.9819 19.3986 13.1167 19.4254C13.2516 19.4522 13.3874 19.4724 13.5242 19.4858C13.661 19.4993 13.7982 19.506 13.9356 19.506C14.0731 19.506 14.2103 19.4993 14.3471 19.4858C14.4839 19.4724 14.6197 19.4522 14.7545 19.4254C14.8894 19.3986 15.0226 19.3652 15.1541 19.3253C15.2857 19.2854 15.415 19.2391 15.542 19.1865C15.669 19.1339 15.7931 19.0752 15.9144 19.0104C16.0356 18.9456 16.1534 18.875 16.2677 18.7986C16.382 18.7222 16.4923 18.6404 16.5986 18.5532C16.7048 18.466 16.8066 18.3738 16.9038 18.2766C17.001 18.1794 17.0932 18.0776 17.1804 17.9714C17.2676 17.8651 17.3494 17.7548 17.4258 17.6405C17.5022 17.5262 17.5728 17.4084 17.6376 17.2872C17.7024 17.1659 17.7611 17.0418 17.8137 16.9148C17.8663 16.7878 17.9126 16.6585 17.9525 16.5269C17.9924 16.3954 18.0258 16.2622 18.0526 16.1273C18.0794 15.9925 18.0996 15.8567 18.113 15.7199C18.1265 15.5831 18.1332 15.4459 18.1332 15.3084C18.1332 15.171 18.1265 15.0338 18.113 14.897C18.0996 14.7602 18.0794 14.6244 18.0526 14.4895C18.0258 14.3547 17.9924 14.2215 17.9525 14.0899C17.9126 13.9584 17.8663 13.8291 17.8137 13.7021C17.7611 13.5751 17.7024 13.4509 17.6376 13.3297C17.5728 13.2085 17.5022 13.0907 17.4258 12.9764C17.3494 12.8621 17.2676 12.7518 17.1804 12.6455C17.0932 12.5392 17.001 12.4375 16.9038 12.3403C16.8066 12.2431 16.7048 12.1509 16.5986 12.0637C16.4923 11.9764 16.382 11.8946 16.2677 11.8183C16.1534 11.7419 16.0356 11.6713 15.9144 11.6065C15.7931 11.5417 15.669 11.483 15.542 11.4304C15.415 11.3778 15.2857 11.3315 15.1541 11.2916C15.0226 11.2517 14.8894 11.2183 14.7545 11.1915C14.6197 11.1647 14.4839 11.1445 14.3471 11.1311C14.2103 11.1176 14.0731 11.1108 13.9356 11.1108C13.7982 11.1108 13.661 11.1176 13.5242 11.1311C13.3874 11.1445 13.2516 11.1647 13.1167 11.1915C12.9819 11.2183 12.8487 11.2517 12.7171 11.2916C12.5856 11.3315 12.4563 11.3778 12.3293 11.4304C12.2023 11.483 12.0781 11.5417 11.9569 11.6065C11.8357 11.6713 11.7179 11.7419 11.6036 11.8183C11.4893 11.8946 11.379 11.9764 11.2727 12.0637C11.1664 12.1509 11.0647 12.2431 10.9675 12.3403C10.8703 12.4375 10.7781 12.5392 10.6908 12.6455C10.6036 12.7518 10.5218 12.8621 10.4455 12.9764C10.3691 13.0907 10.2985 13.2085 10.2337 13.3297C10.1689 13.4509 10.1102 13.5751 10.0576 13.7021C10.005 13.8291 9.95869 13.9584 9.91878 14.0899C9.87888 14.2215 9.84551 14.3547 9.81869 14.4895C9.79187 14.6244 9.77172 14.7602 9.75825 14.897C9.74477 15.0338 9.73804 15.171 9.73804 15.3084Z" fill="rgb(196,196,196)" fill-rule="nonzero" />
    <path id="path" d="M12.0443 21.5833C6.72712 21.5833 2.40112 17.2573 2.40112 11.9401C2.40112 6.62287 6.72712 2.29688 12.0443 2.29688C17.3615 2.29688 21.6875 6.62287 21.6875 11.9401C21.6875 17.2573 17.3615 21.5833 12.0443 21.5833ZM12.0443 3.97687C7.65352 3.97687 4.08112 7.54927 4.08112 11.9401C4.08112 16.3309 7.65352 19.9033 12.0443 19.9033C16.4351 19.9033 20.0075 16.3309 20.0075 11.9401C20.0075 7.54927 16.4351 3.97687 12.0443 3.97687Z" fill="rgb(52,51,46)" fill-rule="nonzero" />
    <path id="path" d="M8.35812 16.548C8.13972 16.548 7.92492 16.4628 7.76412 16.302C7.70711 16.2451 7.6593 16.1813 7.62066 16.1106C7.58203 16.0399 7.55415 15.9651 7.53702 15.8864C7.51989 15.8077 7.51421 15.7281 7.51998 15.6478C7.52574 15.5674 7.54272 15.4895 7.57092 15.414L9.57972 10.0428C9.62118 9.93143 9.68351 9.8333 9.76671 9.74843C9.84991 9.66356 9.94678 9.59929 10.0573 9.55562L15.5413 7.38962C15.6169 7.35973 15.6952 7.34121 15.7762 7.33406C15.8572 7.32691 15.9375 7.33144 16.0172 7.34763C16.0969 7.36381 16.1726 7.391 16.2443 7.42919C16.3161 7.46738 16.381 7.51499 16.4389 7.57202C16.4969 7.6291 16.5455 7.69324 16.5849 7.76445C16.6242 7.83565 16.6526 7.91098 16.6701 7.99043C16.6876 8.06989 16.6934 8.15018 16.6875 8.23132C16.6817 8.31246 16.6644 8.3911 16.6357 8.46722L14.5597 13.974C14.5173 14.0874 14.4532 14.1867 14.3676 14.2722C14.2819 14.3577 14.1824 14.4215 14.0689 14.4636L8.65332 16.494C8.55732 16.5312 8.45772 16.548 8.35812 16.548ZM11.0233 10.9812L9.79212 14.274L13.1233 13.0248L14.3965 9.64922L11.0233 10.9812Z" fill="rgb(52,51,46)" fill-rule="nonzero" />
</svg>
