<svg viewBox="0 0 24 24" xmlns="http://www.w3.org/2000/svg" xmlns:xlink="http://www.w3.org/1999/xlink" width="24" height="24" fill="none">
    <rect id="svg" width="24" height="24" x="0" y="0" />
    <path id="path" d="M8.30005 18.3761C8.30005 18.3761 9.11605 19.4361 12 19.4361C14.884 19.4361 15.656 18.3761 15.656 18.3761L14.426 17.3921L9.13005 17.3921L8.30005 18.3761Z" fill="rgb(246,187,66)" fill-rule="nonzero" />
    <path id="path" d="M6.52002 11.5561C6.52002 11.7356 6.52882 11.9146 6.54641 12.0932C6.564 12.2719 6.5903 12.4492 6.62532 12.6252C6.66033 12.8012 6.70389 12.9751 6.75599 13.1469C6.80809 13.3186 6.86848 13.4874 6.93716 13.6532C7.00584 13.819 7.08249 13.9811 7.16709 14.1394C7.2517 14.2976 7.34385 14.4514 7.44357 14.6006C7.54328 14.7499 7.65006 14.8938 7.76392 15.0326C7.87778 15.1713 7.99817 15.3041 8.12507 15.4311C8.25198 15.558 8.38481 15.6784 8.52354 15.7922C8.66228 15.9061 8.80626 16.0129 8.95549 16.1126C9.10472 16.2123 9.25848 16.3044 9.41677 16.389C9.57505 16.4736 9.7371 16.5503 9.90291 16.619C10.0687 16.6877 10.2375 16.748 10.4093 16.8001C10.581 16.8522 10.7549 16.8958 10.9309 16.9308C11.107 16.9658 11.2843 16.9921 11.4629 17.0097C11.6415 17.0273 11.8205 17.0361 12 17.0361C12.1795 17.0361 12.3585 17.0273 12.5372 17.0097C12.7158 16.9921 12.8931 16.9658 13.0691 16.9308C13.2451 16.8958 13.419 16.8522 13.5908 16.8001C13.7625 16.748 13.9313 16.6877 14.0971 16.619C14.2629 16.5503 14.425 16.4736 14.5833 16.389C14.7416 16.3044 14.8953 16.2123 15.0445 16.1126C15.1938 16.0129 15.3378 15.9061 15.4765 15.7922C15.6152 15.6784 15.7481 15.558 15.875 15.4311C16.0019 15.3041 16.1223 15.1713 16.2361 15.0326C16.35 14.8938 16.4568 14.7499 16.5565 14.6006C16.6562 14.4514 16.7483 14.2976 16.8329 14.1394C16.9176 13.9811 16.9942 13.819 17.0629 13.6532C17.1316 13.4874 17.192 13.3186 17.2441 13.1469C17.2962 12.9751 17.3397 12.8012 17.3747 12.6252C17.4097 12.4492 17.436 12.2719 17.4536 12.0932C17.4712 11.9146 17.48 11.7356 17.48 11.5561C17.4801 11.3766 17.4713 11.1975 17.4538 11.0189C17.4363 10.8402 17.41 10.6628 17.375 10.4867C17.3401 10.3107 17.2966 10.1367 17.2445 9.96493C17.1924 9.79313 17.1321 9.62429 17.0634 9.45842C16.9948 9.29256 16.9181 9.13045 16.8336 8.97211C16.749 8.81377 16.6568 8.65996 16.5571 8.51068C16.4574 8.36139 16.3506 8.21736 16.2368 8.07857C16.1229 7.93978 16.0025 7.8069 15.8756 7.67994C15.7487 7.55298 15.6159 7.43255 15.4771 7.31865C15.3384 7.20474 15.1944 7.09791 15.0451 6.99816C14.8959 6.89841 14.7421 6.80621 14.5838 6.72157C14.4255 6.63693 14.2634 6.56025 14.0976 6.49154C13.9317 6.42283 13.7629 6.36241 13.5911 6.31029C13.4193 6.25817 13.2454 6.21459 13.0693 6.17956C12.8933 6.14453 12.7159 6.11822 12.5373 6.10062C12.3586 6.08302 12.1795 6.07422 12 6.07422C11.8205 6.07422 11.6414 6.08302 11.4628 6.10062C11.2841 6.11822 11.1068 6.14453 10.9307 6.17956C10.7546 6.21459 10.5807 6.25817 10.4089 6.31029C10.2371 6.36241 10.0683 6.42283 9.90248 6.49154C9.73663 6.56025 9.57455 6.63693 9.41624 6.72157C9.25793 6.80621 9.10415 6.89841 8.9549 6.99816C8.80566 7.09791 8.66166 7.20474 8.5229 7.31865C8.38415 7.43255 8.25132 7.55298 8.12441 7.67994C7.99749 7.8069 7.8771 7.93978 7.76325 8.07857C7.64939 8.21736 7.54261 8.36139 7.44291 8.51068C7.34321 8.65996 7.25106 8.81377 7.16648 8.97211C7.08189 9.13045 7.00527 9.29256 6.93662 9.45842C6.86796 9.62429 6.8076 9.79313 6.75554 9.96493C6.70348 10.1367 6.65996 10.3107 6.62499 10.4867C6.59002 10.6628 6.56377 10.8402 6.54623 11.0189C6.5287 11.1975 6.51996 11.3766 6.52002 11.5561Z" fill="rgb(246,187,66)" fill-rule="nonzero" />
    <path id="path" d="M9.98401 10.88L9.81001 10.88C9.37001 10.88 9.01001 10.52 9.01001 10.08L9.01001 9.01802C9.01001 8.57802 9.37001 8.21802 9.81001 8.21802L9.98401 8.21802C10.424 8.21802 10.784 8.57802 10.784 9.01802L10.784 10.08C10.784 10.52 10.424 10.88 9.98401 10.88ZM14.19 10.88L14.016 10.88C13.576 10.88 13.216 10.52 13.216 10.08L13.216 9.01802C13.216 8.57802 13.576 8.21802 14.016 8.21802L14.19 8.21802C14.63 8.21802 14.99 8.57802 14.99 9.01802L14.99 10.08C14.99 10.52 14.63 10.88 14.19 10.88Z" fill="rgb(51,60,79)" fill-rule="nonzero" />
    <path id="path" d="M16.422 16.8559C18.582 15.4199 20.01 12.9639 20.01 10.1819C20.01 5.76587 16.416 2.17188 12 2.17188C7.58399 2.17188 3.98999 5.76587 3.98999 10.1819C3.98999 12.9639 5.41799 15.4199 7.57799 16.8559C7.32029 16.996 7.08229 17.164 6.86399 17.3599C5.94999 18.1879 5.48799 19.4219 5.48799 21.0259C5.48799 21.4679 5.84599 21.8259 6.28799 21.8259C6.72999 21.8259 7.08799 21.4679 7.08799 21.0259C7.08799 19.8979 7.36999 19.0679 7.92799 18.5539C8.69599 17.8479 9.79199 17.9239 9.82199 17.9279C9.86999 17.9319 9.91799 17.9319 9.96399 17.9279C10.6304 18.1026 11.3081 18.19 11.997 18.19C12.6859 18.19 13.3636 18.1026 14.03 17.9279C14.08 17.9319 14.13 17.9339 14.18 17.9279C14.192 17.9279 15.284 17.8419 16.06 18.5439C16.624 19.0559 16.91 19.8899 16.91 21.0259C16.91 21.4679 17.268 21.8259 17.71 21.8259C18.152 21.8259 18.51 21.4679 18.51 21.0259C18.51 19.4199 18.048 18.1879 17.134 17.3599C16.9167 17.1635 16.6794 16.9955 16.422 16.8559ZM5.58999 10.1819C5.58999 6.64788 8.46599 3.77187 12 3.77187C15.534 3.77187 18.41 6.64788 18.41 10.1819C18.41 13.7159 15.534 16.5919 12 16.5919C8.46599 16.5919 5.58999 13.7159 5.58999 10.1819Z" fill="rgb(51,60,79)" fill-rule="nonzero" />
</svg>
