<svg viewBox="0 0 24 24" xmlns="http://www.w3.org/2000/svg" xmlns:xlink="http://www.w3.org/1999/xlink" width="24" height="24" fill="none">
    <rect id="svg" width="24" height="24" x="0" y="0" />
    <path id="path" d="M10.1424 11.0208L19.3848 11.0208C20.5904 11.0208 21.1932 11.6236 21.1932 12.8292L21.1932 19.542C21.1932 20.7476 20.5904 21.3504 19.3848 21.3504L10.1424 21.3504C8.93678 21.3504 8.33399 20.7476 8.33399 19.542L8.33399 12.8292C8.33399 11.6236 8.93678 11.0208 10.1424 11.0208Z" fill="rgb(246,187,66)" fill-rule="nonzero" />
    <path id="path" d="M19.1593 21.9503L4.86007 21.9503C4.77394 21.9501 4.68801 21.9457 4.60231 21.9371C4.5166 21.9285 4.43152 21.9157 4.34706 21.8988C4.2626 21.8818 4.17918 21.8608 4.09678 21.8357C4.01438 21.8106 3.9334 21.7816 3.85384 21.7485C3.77429 21.7155 3.69654 21.6787 3.62059 21.638C3.54464 21.5974 3.47085 21.5531 3.39923 21.5053C3.32762 21.4574 3.2585 21.4062 3.1919 21.3516C3.1253 21.2969 3.06152 21.2392 3.00057 21.1783C2.93962 21.1175 2.88179 21.0538 2.82707 20.9872C2.77236 20.9207 2.72102 20.8517 2.67306 20.7801C2.62511 20.7086 2.58076 20.6348 2.54002 20.5589C2.49928 20.483 2.46234 20.4053 2.4292 20.3258C2.39607 20.2463 2.36689 20.1654 2.34168 20.083C2.31647 20.0007 2.29534 19.9173 2.27829 19.8328C2.26124 19.7484 2.24835 19.6633 2.23963 19.5776C2.23091 19.4919 2.22639 19.406 2.22607 19.3199L2.22607 9.85668C2.22623 9.64839 2.25069 9.44301 2.29946 9.24051C2.34823 9.03802 2.41996 8.84402 2.51465 8.6585C2.60933 8.47298 2.72437 8.30108 2.85974 8.14279C2.99511 7.9845 3.14709 7.8442 3.31567 7.72188L10.4653 2.54868C10.577 2.46809 10.6943 2.39669 10.8172 2.33446C10.9401 2.27224 11.0671 2.21996 11.1982 2.17762C11.3293 2.13527 11.4629 2.10339 11.5989 2.08195C11.735 2.06052 11.8719 2.0498 12.0097 2.0498C12.1474 2.0498 12.2843 2.06052 12.4204 2.08195C12.5565 2.10339 12.6901 2.13527 12.8212 2.17762C12.9522 2.21996 13.0792 2.27224 13.2021 2.33446C13.325 2.39669 13.4424 2.46809 13.5541 2.54868L20.7037 7.72188C20.8723 7.8442 21.0242 7.9845 21.1596 8.14279C21.295 8.30108 21.41 8.47298 21.5047 8.6585C21.5994 8.84402 21.6711 9.03802 21.7199 9.24051C21.7687 9.44301 21.7931 9.64839 21.7933 9.85668L21.7933 11.6747C21.7933 11.7141 21.7894 11.7531 21.7817 11.7917C21.7741 11.8304 21.7627 11.8679 21.7476 11.9043C21.7325 11.9407 21.714 11.9753 21.6922 12.008C21.6703 12.0408 21.6454 12.0711 21.6175 12.0989C21.5897 12.1268 21.5594 12.1517 21.5266 12.1736C21.4939 12.1954 21.4593 12.2139 21.4229 12.229C21.3865 12.2441 21.349 12.2555 21.3103 12.2631C21.2717 12.2708 21.2327 12.2747 21.1933 12.2747C21.1539 12.2747 21.1149 12.2708 21.0762 12.2631C21.0376 12.2555 21.0001 12.2441 20.9637 12.229C20.9273 12.2139 20.8927 12.1954 20.8599 12.1736C20.8272 12.1517 20.7969 12.1268 20.769 12.0989C20.7411 12.0711 20.7163 12.0408 20.6944 12.008C20.6725 11.9753 20.654 11.9407 20.6389 11.9043C20.6239 11.8679 20.6125 11.8304 20.6048 11.7917C20.5971 11.7531 20.5933 11.7141 20.5933 11.6747L20.5933 9.85668C20.5927 9.74296 20.5789 9.63088 20.5518 9.52044C20.5247 9.41 20.4851 9.30425 20.433 9.20319C20.3808 9.10214 20.3176 9.00857 20.2433 8.92249C20.169 8.83641 20.0856 8.76021 19.9933 8.69388L12.8449 3.52188C12.7842 3.47789 12.7204 3.43892 12.6536 3.40495C12.5868 3.37098 12.5177 3.34244 12.4464 3.31932C12.3751 3.2962 12.3024 3.27879 12.2284 3.26709C12.1543 3.25539 12.0798 3.24954 12.0049 3.24954C11.9299 3.24954 11.8554 3.25539 11.7814 3.26709C11.7073 3.27879 11.6347 3.2962 11.5634 3.31932C11.492 3.34244 11.423 3.37098 11.3562 3.40495C11.2893 3.43892 11.2256 3.47789 11.1649 3.52188L4.01888 8.69388C3.92717 8.7606 3.84451 8.83708 3.77088 8.92333C3.69725 9.00958 3.63468 9.10323 3.58317 9.20426C3.53166 9.30529 3.49264 9.41094 3.46609 9.52119C3.43954 9.63144 3.4262 9.74327 3.42608 9.85668L3.42608 19.3199C3.42647 19.4142 3.43603 19.5075 3.45476 19.6C3.4735 19.6924 3.50104 19.7821 3.5374 19.8691C3.57376 19.9561 3.61824 20.0387 3.67083 20.117C3.72343 20.1953 3.78313 20.2677 3.84995 20.3342C3.91677 20.4008 3.98943 20.4602 4.06792 20.5124C4.14641 20.5647 4.22923 20.6088 4.31639 20.6448C4.40355 20.6808 4.49338 20.708 4.58588 20.7264C4.67838 20.7447 4.77178 20.7539 4.86608 20.7539L19.1593 20.7539C19.2536 20.7539 19.347 20.7447 19.4395 20.7264C19.532 20.708 19.6218 20.6808 19.709 20.6448C19.7961 20.6088 19.8789 20.5647 19.9574 20.5124C20.0359 20.4602 20.1086 20.4008 20.1754 20.3342C20.2422 20.2677 20.3019 20.1953 20.3545 20.117C20.4071 20.0387 20.4516 19.9561 20.4879 19.8691C20.5243 19.7821 20.5519 19.6924 20.5706 19.6C20.5893 19.5075 20.5989 19.4142 20.5993 19.3199L20.5993 16.3787C20.5993 16.3393 20.6031 16.3003 20.6108 16.2616C20.6185 16.223 20.6299 16.1855 20.6449 16.1491C20.66 16.1127 20.6785 16.0781 20.7004 16.0453C20.7223 16.0126 20.7472 15.9823 20.775 15.9544C20.8029 15.9266 20.8332 15.9017 20.8659 15.8798C20.8987 15.8579 20.9333 15.8394 20.9697 15.8243C21.0061 15.8093 21.0436 15.7979 21.0822 15.7902C21.1209 15.7825 21.1599 15.7787 21.1993 15.7787C21.2387 15.7787 21.2777 15.7825 21.3163 15.7902C21.355 15.7979 21.3925 15.8093 21.4289 15.8243C21.4653 15.8394 21.4999 15.8579 21.5326 15.8798C21.5654 15.9017 21.5957 15.9266 21.6235 15.9544C21.6514 15.9823 21.6763 16.0126 21.6982 16.0453C21.72 16.0781 21.7385 16.1127 21.7536 16.1491C21.7687 16.1855 21.7801 16.223 21.7877 16.2616C21.7954 16.3003 21.7993 16.3393 21.7993 16.3787L21.7993 19.3199C21.799 19.4061 21.7944 19.4922 21.7857 19.578C21.7769 19.6638 21.764 19.749 21.7469 19.8335C21.7298 19.9181 21.7086 20.0016 21.6833 20.0841C21.6581 20.1666 21.6288 20.2476 21.5956 20.3272C21.5623 20.4068 21.5253 20.4846 21.4845 20.5606C21.4436 20.6366 21.3991 20.7104 21.351 20.782C21.3029 20.8536 21.2515 20.9227 21.1966 20.9892C21.1418 21.0558 21.0838 21.1195 21.0227 21.1804C20.9616 21.2413 20.8976 21.2991 20.8308 21.3537C20.7641 21.4083 20.6948 21.4595 20.623 21.5074C20.5512 21.5552 20.4773 21.5994 20.4011 21.64C20.325 21.6805 20.2471 21.7173 20.1674 21.7502C20.0876 21.7832 20.0065 21.8121 19.9239 21.8371C19.8413 21.8621 19.7578 21.883 19.6731 21.8998C19.5885 21.9166 19.5033 21.9292 19.4174 21.9376C19.3316 21.9461 19.2455 21.9503 19.1593 21.9503Z" fill="rgb(71,71,71)" fill-rule="nonzero" />
    <path id="path" d="M15.4427 18.6769C15.4033 18.6769 15.3643 18.673 15.3257 18.6653C15.287 18.6576 15.2495 18.6463 15.2131 18.6312C15.1767 18.6161 15.1421 18.5976 15.1094 18.5757C15.0766 18.5538 15.0463 18.529 15.0185 18.5011C14.9906 18.4733 14.9657 18.443 14.9438 18.4102C14.9219 18.3774 14.9035 18.3429 14.8884 18.3065C14.8733 18.2701 14.8619 18.2325 14.8542 18.1939C14.8466 18.1553 14.8427 18.1162 14.8427 18.0769L14.8427 15.1741C14.8427 15.0813 14.8382 14.9887 14.8291 14.8964C14.82 14.804 14.8064 14.7123 14.7883 14.6213C14.7702 14.5303 14.7477 14.4404 14.7207 14.3516C14.6938 14.2628 14.6626 14.1756 14.6271 14.0898C14.5915 14.0041 14.5519 13.9203 14.5082 13.8385C14.4644 13.7567 14.4168 13.6772 14.3652 13.6C14.3137 13.5229 14.2585 13.4484 14.1996 13.3767C14.1407 13.305 14.0785 13.2363 14.0129 13.1707C13.9473 13.1051 13.8786 13.0428 13.8069 12.984C13.7352 12.9251 13.6607 12.8699 13.5836 12.8183C13.5064 12.7668 13.4269 12.7191 13.3451 12.6754C13.2632 12.6317 13.1795 12.592 13.0937 12.5565C13.008 12.521 12.9207 12.4898 12.832 12.4628C12.7432 12.4359 12.6533 12.4134 12.5622 12.3953C12.4712 12.3772 12.3796 12.3636 12.2872 12.3545C12.1949 12.3454 12.1023 12.3409 12.0095 12.3409C11.9167 12.3409 11.8242 12.3454 11.7318 12.3545C11.6395 12.3636 11.5478 12.3772 11.4568 12.3953C11.3658 12.4134 11.2759 12.4359 11.1871 12.4628C11.0983 12.4898 11.011 12.521 10.9253 12.5565C10.8396 12.592 10.7558 12.6317 10.674 12.6754C10.5921 12.7191 10.5126 12.7668 10.4355 12.8183C10.3583 12.8699 10.2839 12.9251 10.2122 12.984C10.1404 13.0428 10.0718 13.1051 10.0061 13.1707C9.94053 13.2363 9.87829 13.305 9.81943 13.3767C9.76056 13.4484 9.70535 13.5229 9.6538 13.6C9.60225 13.6772 9.5546 13.7567 9.51086 13.8385C9.46712 13.9203 9.42749 14.0041 9.39198 14.0898C9.35647 14.1756 9.32525 14.2628 9.29832 14.3516C9.27138 14.4404 9.24886 14.5303 9.23076 14.6213C9.21266 14.7123 9.19906 14.804 9.18996 14.8964C9.18087 14.9887 9.17632 15.0813 9.17632 15.1741L9.17632 18.0769C9.17632 18.1162 9.17248 18.1553 9.16479 18.1939C9.1571 18.2325 9.14572 18.2701 9.13065 18.3065C9.11557 18.3429 9.09709 18.3774 9.0752 18.4102C9.05331 18.443 9.02844 18.4733 9.00058 18.5011C8.97272 18.529 8.94242 18.5538 8.90966 18.5757C8.8769 18.5976 8.84233 18.6161 8.80593 18.6312C8.76953 18.6463 8.73201 18.6576 8.69337 18.6653C8.65473 18.673 8.61571 18.6769 8.57632 18.6769C8.53692 18.6769 8.4979 18.673 8.45926 18.6653C8.42062 18.6576 8.38311 18.6463 8.34671 18.6312C8.31031 18.6161 8.27573 18.5976 8.24298 18.5757C8.21022 18.5538 8.17991 18.529 8.15205 18.5011C8.1242 18.4733 8.09932 18.443 8.07744 18.4102C8.05555 18.3774 8.03707 18.3429 8.02199 18.3065C8.00691 18.2701 7.99553 18.2325 7.98785 18.1939C7.98016 18.1553 7.97632 18.1162 7.97632 18.0769L7.97632 15.1741C7.97638 15.042 7.98292 14.9103 7.99592 14.7789C8.00892 14.6475 8.02833 14.517 8.05415 14.3875C8.07997 14.258 8.11207 14.1301 8.15045 14.0037C8.18883 13.8774 8.23331 13.7532 8.28389 13.6312C8.33447 13.5092 8.3909 13.39 8.45319 13.2736C8.51548 13.1572 8.58332 13.044 8.65672 12.9343C8.73012 12.8245 8.80871 12.7186 8.89252 12.6165C8.97632 12.5145 9.06491 12.4168 9.15831 12.3234C9.25171 12.2301 9.34945 12.1415 9.45155 12.0578C9.55364 11.974 9.6596 11.8955 9.76941 11.8221C9.87922 11.7488 9.99236 11.681 10.1088 11.6188C10.2253 11.5565 10.3445 11.5002 10.4665 11.4496C10.5885 11.3991 10.7127 11.3547 10.8391 11.3164C10.9655 11.2781 11.0934 11.246 11.2229 11.2203C11.3524 11.1945 11.4829 11.1752 11.6143 11.1622C11.7457 11.1493 11.8775 11.1428 12.0095 11.1428C12.1416 11.1428 12.2733 11.1493 12.4047 11.1622C12.5361 11.1752 12.6666 11.1945 12.7961 11.2203C12.9256 11.246 13.0536 11.2781 13.1799 11.3164C13.3063 11.3547 13.4305 11.3991 13.5525 11.4496C13.6745 11.5002 13.7937 11.5565 13.9102 11.6188C14.0267 11.681 14.1398 11.7488 14.2496 11.8221C14.3594 11.8955 14.4654 11.974 14.5675 12.0578C14.6696 12.1415 14.7673 12.2301 14.8607 12.3234C14.9541 12.4168 15.0427 12.5145 15.1265 12.6165C15.2103 12.7186 15.2889 12.8245 15.3623 12.9343C15.4357 13.044 15.5036 13.1572 15.5658 13.2736C15.6281 13.39 15.6846 13.5092 15.7351 13.6312C15.7857 13.7532 15.8302 13.8774 15.8686 14.0037C15.907 14.1301 15.9391 14.258 15.9649 14.3875C15.9907 14.517 16.0101 14.6475 16.0231 14.7789C16.0361 14.9103 16.0427 15.042 16.0427 15.1741L16.0427 18.0769C16.0427 18.1162 16.0389 18.1553 16.0312 18.1939C16.0235 18.2325 16.0121 18.2701 15.997 18.3065C15.982 18.3429 15.9635 18.3774 15.9416 18.4102C15.9197 18.443 15.8948 18.4733 15.867 18.5011C15.8391 18.529 15.8088 18.5538 15.7761 18.5757C15.7433 18.5976 15.7087 18.6161 15.6723 18.6312C15.6359 18.6463 15.5984 18.6576 15.5598 18.6653C15.5211 18.673 15.4821 18.6769 15.4427 18.6769Z" fill="rgb(0,0,0)" fill-rule="nonzero" />
</svg>
