<svg viewBox="0 0 32 32" xmlns="http://www.w3.org/2000/svg" xmlns:xlink="http://www.w3.org/1999/xlink" width="32" height="32" fill="none">
    <rect id="svg" width="32" height="32" x="0" y="0" />
    <path id="path" d="M0 0L32 0L32 32L0 32L0 0ZM16.1422 7.31378C14.304 8.38756 12.6436 10.1973 12.5973 12.4373C12.416 14.2044 13.2587 15.9004 14.5102 17.1022C11.3956 18.7698 9.24089 22.1404 9.47555 25.7244C10.1227 25.9698 10.8124 25.9698 11.4916 25.9413C11.7724 24.6044 11.7618 23.1644 12.4622 21.9484C13.28 20.48 14.6347 19.2889 16.2489 18.7804C17.8738 18.3573 19.7227 18.6276 21.1733 17.6356C23.264 16.4018 24.3342 13.6889 23.6764 11.3564C23.3387 9.84533 22.2507 8.62578 21.0596 7.70133C19.6089 6.78044 17.7316 6.80178 16.1422 7.31378ZM9.05955 9.42578C6.97244 11.1787 7.07911 14.7307 9.19466 16.4267C7.88266 17.5289 6.30044 18.4391 5.55377 20.064C4.74311 21.4009 4.97066 23.0222 5.03822 24.5084C5.52889 24.4693 6.016 24.4018 6.49955 24.3022C6.79466 22.8409 6.87644 21.2089 7.97155 20.0676C8.83911 18.9049 10.2329 18.4107 11.488 17.7991C11.8222 17.1342 12 16.2809 11.3778 15.712C10.4604 15.0009 9.34044 14.1298 9.44711 12.8213C9.42577 11.2569 10.9689 10.4924 12.0178 9.63911C11.8684 9.39733 11.5733 8.91022 11.424 8.66844C10.5422 8.45866 9.66755 8.76089 9.05955 9.42578ZM22.7769 20.2027C24.0818 21.76 24.9351 23.6942 24.8 25.76C25.4044 25.9342 26.0338 25.9698 26.6596 25.984C26.6311 24.3911 26.9084 22.6702 26.0658 21.2231C25.4436 20.1351 24.7076 18.8729 23.4027 18.5458C22.9831 18.9511 22.1796 19.5911 22.7769 20.2027Z" fill="rgb(255,255,255)" fill-opacity="0" fill-rule="nonzero" />
    <path id="path" d="M16.1421 7.31388C17.7315 6.80188 19.6088 6.78054 21.0595 7.70143C22.2506 8.62588 23.3386 9.84543 23.6764 11.3565C24.3341 13.689 23.2639 16.4019 21.1732 17.6357C19.7226 18.6277 17.8737 18.3574 16.2488 18.7805C14.6346 19.289 13.2799 20.4801 12.4621 21.9485C11.7617 23.1645 11.7724 24.6045 11.4915 25.9414C10.8124 25.9699 10.1226 25.9699 9.47547 25.7245C9.2408 22.1405 11.3955 18.7699 14.5101 17.1023C13.2586 15.9005 12.4159 14.2045 12.5972 12.4374C12.6435 10.1974 14.3039 8.38766 16.1421 7.31388ZM17.8239 9.17699C16.1101 9.45432 14.5101 10.9725 14.6701 12.8001C14.5244 14.9157 16.7004 16.6757 18.7341 16.3805C20.5546 16.0854 22.0444 14.2828 21.8452 12.4232C21.6284 10.5174 19.7475 8.94588 17.8239 9.17699Z" fill="rgb(39,26,96)" fill-rule="nonzero" />
    <path id="path" d="M9.05958 9.42568C9.66758 8.76079 10.5422 8.45857 11.424 8.66835C11.5734 8.91012 11.8685 9.39724 12.0178 9.63901C10.9689 10.4923 9.4258 11.2568 9.44713 12.8212C9.34047 14.1297 10.4605 15.0008 11.3778 15.7119C12 16.2808 11.8222 17.1341 11.488 17.799C10.2329 18.4106 8.83914 18.9048 7.97158 20.0675C6.87647 21.2088 6.79469 22.8408 6.49958 24.3021C6.01602 24.4017 5.52891 24.4692 5.03825 24.5083C4.97069 23.0221 4.74313 21.4008 5.5538 20.0639C6.30047 18.439 7.88269 17.5288 9.19469 16.4266C7.07913 14.7306 6.97247 11.1786 9.05958 9.42568ZM22.7769 20.2026C22.1796 19.591 22.9831 18.951 23.4027 18.5457C24.7076 18.8728 25.4436 20.135 26.0658 21.223C26.9085 22.6701 26.6311 24.391 26.6596 25.9839C26.0338 25.9697 25.4045 25.9341 24.8 25.7599C24.9351 23.6941 24.0818 21.7599 22.7769 20.2026Z" fill="rgb(39,26,96)" fill-rule="nonzero" />
    <path id="path" d="M17.824 9.17692C19.7476 8.94581 21.6285 10.5174 21.8454 12.4231C22.0445 14.2827 20.5547 16.0854 18.7342 16.3805C16.7005 16.6756 14.5245 14.9156 14.6702 12.8C14.5102 10.9725 16.1102 9.45426 17.824 9.17692Z" fill="rgb(246,187,66)" fill-rule="nonzero" />
</svg>
