<svg viewBox="0 0 48 48" xmlns="http://www.w3.org/2000/svg" xmlns:xlink="http://www.w3.org/1999/xlink" width="48.000000" height="48.000000" fill="none">
	<rect id="旅行-11" width="48.000000" height="48.000000" x="0.000000" y="0.000000" />
	<path id="path" d="M30.65 6.05C30.8 6.45 30.85 6.9 30.85 7.35C30.85 9.75 28.9 11.7 26.5 11.7C24.1 11.7 22.15 9.75 22.15 7.35C22.15 4.95 24.1 3 26.5 3C27.45 3 28.35 3.3 29.05 3.85L30.65 6.05Z" fill="rgb(245,122,122)" fill-rule="nonzero" />
	<path id="path" d="M26.5 12.45C23.7 12.45 21.4 10.15 21.4 7.35C21.4 4.55 23.7 2.25 26.5 2.25C27.6 2.25 28.6 2.6 29.5 3.2C29.85 3.45 29.9 3.9 29.65 4.25C29.4 4.6 28.95 4.65 28.6 4.4C28 4 27.25 3.75 26.5 3.75C24.5 3.75 22.9 5.35 22.9 7.35C22.9 9.35 24.5 10.95 26.5 10.95C28.5 10.95 30.1 9.35 30.1 7.35C30.1 7 30.05 6.65 29.95 6.3C29.85 5.9 30.05 5.5 30.45 5.35C30.85 5.25 31.25 5.45 31.4 5.85C31.55 6.35 31.65 6.85 31.65 7.35C31.6 10.15 29.3 12.45 26.5 12.45Z" fill="rgb(39,38,54)" fill-rule="nonzero" />
	<path id="path" d="M10.6 14.5C10.65 14.25 10.7 14.2 10.7 14.2C10.9 13.1501 11.8 12.55 12.85 12.55L16.95 12.55C18.3 12.55 19.35 13.65 19.1 15L17.5 24.1001C17.3 25.1501 16.4 25.8001 15.35 25.8001L11.25 25.8001C9.89999 25.8001 8.84999 24.6001 9.09999 23.3001C9.09999 23.3001 9.64999 20.1501 10.1 17.5501L10.6 14.5Z" fill="rgb(245,122,122)" fill-rule="nonzero" />
	<path id="path" d="M10.7 23C10.7 23 11.2 19.7 11.75 16.85L12.35 13.6C12.4 13.3 12.45 13.3 12.45 13.3C12.5 12.9 12.75 12.6 13.05 12.3C11.8 12.55 10.85 13.2 10.7 14.1C10.7 14.1 10.65 14.15 10.6 14.4L10.05 17.5C9.54996 20.2001 8.89996 23.1 8.89996 23.1C8.64996 24.4501 10.75 25.3501 12.8 25.25L13.1 25.25C11.8 25.3 10.5 24.1 10.7 23Z" fill="rgb(6,139,191)" fill-rule="nonzero" />
	<path id="path" d="M15.35 26.65L11.25 26.65C10.35 26.65 9.50002 26.25 8.90002 25.55C8.35002 24.9 8.10002 24 8.25002 23.15C8.25002 23.15 8.80002 20 9.25002 17.4C9.35002 16.95 9.75002 16.65 10.2 16.75C10.65 16.85 10.95 17.25 10.85 17.7C10.4 20.35 9.85002 23.45 9.85002 23.45C9.80002 23.85 9.90002 24.2 10.15 24.5C10.4 24.8 10.8 25 11.2 25L15.3 25C16 25 16.55 24.6 16.65 24L18.3 14.85C18.4 14.4 18.2 14.05 18.05 13.85C17.8 13.55 17.4 13.4 16.95 13.4L12.85 13.4C12.3 13.4 11.65 13.65 11.5 14.4C11.5 14.45 11.45 14.55 11.45 14.6L11.45 14.7C11.35 15.15 10.95 15.45 10.5 15.35C10.05 15.25 9.75002 14.85 9.85002 14.4C9.85002 14.25 9.90002 14.15 9.95002 14C10.25 12.65 11.45 11.75 12.9 11.75L17 11.75C17.95 11.75 18.8 12.15 19.35 12.8C19.9 13.45 20.1 14.3 19.95 15.15L18.3 24.3C18.05 25.65 16.85 26.65 15.35 26.65Z" fill="rgb(39,38,54)" fill-rule="nonzero" />
	<path id="path" d="M16.6 38.6C15.9 42.15 15.35 44.95 15.35 44.95L19.85 44.95L22.3 32.5L27 45L31.35 45L23.75 24.85L19.35 24.7C19.35 24.7 18.2 30.4 17.15 35.75L16.6 38.6Z" fill="rgb(254,201,99)" fill-rule="nonzero" />
	<path id="path" d="M31.35 45.75L27 45.75C26.7 45.75 26.4 45.5499 26.3 45.25L22.5 35.25L20.6 45.1C20.55 45.45 20.2 45.7 19.85 45.7L15.35 45.7C15.15 45.7 14.9 45.5999 14.75 45.3999C14.6 45.25 14.55 45 14.6 44.7999L15.85 38.4499C15.95 38.0499 16.3 37.7999 16.75 37.8499C17.15 37.95 17.4 38.2999 17.35 38.75L16.25 44.2L19.2 44.2L21.5 32.35C21.55 32 21.85 31.75 22.15 31.75C22.5 31.75 22.8 31.9 22.9 32.25L27.45 44.25L30.2 44.25L23.2 25.6L19.95 25.5L17.9 35.9C17.8 36.3 17.45 36.5499 17 36.5C16.6 36.4 16.35 36.05 16.4 35.6L18.6 24.5499C18.65 24.2 19 23.95 19.35 23.95L23.75 24.1C24.05 24.1 24.3 24.3 24.4 24.6L31.95 44.75C32.05 45 32 45.25 31.85 45.45C31.8 45.65 31.6 45.75 31.35 45.75Z" fill="rgb(39,38,54)" fill-rule="nonzero" />
	<path id="path" d="M39.75 45.25C39.35 45.25 39 44.9 39 44.5L39 12.5C39 12.1 39.35 11.75 39.75 11.75C40.15 11.75 40.5 12.1 40.5 12.5L40.5 44.5C40.5 44.9 40.2 45.25 39.75 45.25Z" fill="rgb(0,0,0)" fill-rule="nonzero" />
	<path id="path" d="M24.95 27.4501L18.8 27.4501L21.2 13.6001L27.35 13.6001L24.95 27.4501Z" fill="rgb(254,201,99)" fill-rule="nonzero" />
	<path id="path" d="M24.95 28.1999L18.8 28.1999C18.6 28.1999 18.35 28.0999 18.25 27.9499C18.1 27.7999 18.05 27.5499 18.1 27.3499L20.45 13.4999C20.5 13.1499 20.8 12.8999 21.2 12.8999L27.35 12.8999C27.55 12.8999 27.8 12.9999 27.9 13.1499C28.05 13.2999 28.1 13.5499 28.05 13.7499L25.65 27.5999C25.6 27.9499 25.3 28.1999 24.95 28.1999ZM19.7 26.6999L24.3 26.6999L26.45 14.3499L21.85 14.3499L19.7 26.6999Z" fill="rgb(39,38,54)" fill-rule="nonzero" />
	<path id="path" d="M38.4 15.7001L32.25 17.9501L27.35 13.6001L22.4 13.6001L31.25 22.0001L38.4 18.8501L38.4 15.7001Z" fill="rgb(87,193,38)" fill-rule="nonzero" />
	<path id="path" d="M31.25 22.7499C31.05 22.7499 30.9 22.6999 30.75 22.5499L21.85 14.1499C21.65 13.9499 21.55 13.5999 21.65 13.3499C21.75 13.0499 22.05 12.8999 22.35 12.8999L27.3 12.8999C27.5 12.8999 27.65 12.9499 27.8 13.0999L32.4 17.0999L38.15 14.9999C38.4 14.8999 38.65 14.9499 38.85 15.0999C39.05 15.2499 39.15 15.4499 39.15 15.6999L39.15 18.8499C39.15 19.1499 38.95 19.3999 38.7 19.5499L31.5 22.6999C31.45 22.7499 31.35 22.7499 31.25 22.7499ZM24.25 14.3499L31.35 21.0999L37.65 18.3499L37.65 16.7499L32.5 18.6499C32.25 18.7499 31.95 18.6999 31.75 18.4999L27.05 14.3999L24.25 14.3999L24.25 14.3499Z" fill="rgb(39,38,54)" fill-rule="nonzero" />
	<path id="path" d="M16.5 19.0499L16.4 19.0499C16.15 18.9999 15.95 18.7499 16 18.4499L16.65 15.1499C16.7 14.8999 16.95 14.6999 17.25 14.7499C17.5 14.7999 17.7 15.0499 17.65 15.3499L17 18.6499C16.9 18.8499 16.7 19.0499 16.5 19.0499Z" fill="rgb(255,255,255)" fill-rule="nonzero" />
	<path id="path" d="M28.65 6.19988C28.5 6.19988 28.3 6.09988 28.2 5.94988C27.4 4.54988 25.55 5.24988 25.5 5.29988C25.25 5.39988 24.95 5.29988 24.85 4.99988C24.75 4.74988 24.85 4.44988 25.15 4.34988C26.1 3.94988 28.1 3.69988 29.1 5.44988C29.25 5.69988 29.15 5.99988 28.9 6.14988C28.8 6.19988 28.7 6.19988 28.65 6.19988Z" fill="rgb(255,255,255)" fill-rule="nonzero" />
</svg>
