<svg viewBox="0 0 14 14" xmlns="http://www.w3.org/2000/svg" xmlns:xlink="http://www.w3.org/1999/xlink" width="14" height="14" fill="none">
    <rect id="svg" width="14" height="14" x="0" y="0" />
    <path id="path" d="M7.51842 11.2C7.85533 11.0124 8.21044 10.8703 8.58375 10.7737C8.95706 10.677 9.33651 10.629 9.72212 10.6296C10.5219 10.6296 11.2733 10.8365 11.9258 11.2L11.9258 12.1851C11.9258 12.5214 11.5312 12.9629 11.148 12.9629L8.2962 12.9629C7.91301 12.9629 7.51842 12.5214 7.51842 12.1851L7.51842 11.2ZM6.48138 10.1751L6.48138 11.9259C6.48138 12.0146 6.48138 12.6106 6.74583 12.9629L2.85175 12.9629C2.56138 12.9629 2.07397 12.6171 2.07397 12.4444L2.07397 10.759C2.26886 10.6124 2.47427 10.4824 2.69021 10.3691C2.90614 10.2558 3.12979 10.1606 3.36114 10.0835C3.59249 10.0064 3.82854 9.94841 4.06929 9.90954C4.31003 9.87068 4.55234 9.85143 4.7962 9.85181C5.39172 9.85181 5.96027 9.96666 6.48138 10.1751Z" fill="rgb(254,209,92)" fill-rule="nonzero" />
    <path id="path" d="M9.85179 7.25926C8.70327 7.25926 7.77771 8.53015 7.77771 10.1111L7.77771 12.1852C7.77771 12.396 8.07353 12.7037 8.29623 12.7037L11.1481 12.7037C11.3708 12.7037 11.6666 12.396 11.6666 12.1852L11.6666 10.1111C11.6666 8.58512 10.7763 7.25926 9.85179 7.25926ZM9.85179 6.74074C11.1167 6.74074 12.1851 8.3326 12.1851 10.1111L12.1851 12.1852C12.1851 12.6778 11.6617 13.2222 11.1481 13.2222L8.29623 13.2222C7.78264 13.2222 7.2592 12.6778 7.2592 12.1852L7.2592 10.1111C7.2592 8.27297 8.37479 6.74074 9.85179 6.74074ZM4.89346 6.41667C4.8181 6.41667 4.74292 6.41298 4.66793 6.40559C4.59293 6.3982 4.51848 6.38716 4.44457 6.37246C4.37066 6.35776 4.29765 6.33947 4.22553 6.31759C4.15342 6.29572 4.08255 6.27036 4.01293 6.24152C3.94331 6.21268 3.87527 6.1805 3.80881 6.14498C3.74235 6.10946 3.67779 6.07076 3.61513 6.02889C3.55247 5.98703 3.49202 5.94219 3.43376 5.89438C3.37551 5.84658 3.31974 5.79603 3.26645 5.74275C3.21317 5.68946 3.16262 5.63369 3.11482 5.57544C3.06701 5.51718 3.02217 5.45673 2.98031 5.39407C2.93844 5.33141 2.89974 5.26685 2.86422 5.20039C2.8287 5.13393 2.79652 5.06589 2.76768 4.99627C2.73884 4.92665 2.71348 4.85578 2.69161 4.78367C2.66973 4.71155 2.65144 4.63854 2.63674 4.56463C2.62204 4.49072 2.611 4.41627 2.60361 4.34128C2.59622 4.26628 2.59253 4.1911 2.59253 4.11575C2.59253 4.04039 2.59622 3.96521 2.60361 3.89021C2.611 3.81522 2.62204 3.74077 2.63674 3.66686C2.65144 3.59295 2.66973 3.51993 2.69161 3.44782C2.71348 3.37571 2.73884 3.30484 2.76768 3.23522C2.79652 3.1656 2.8287 3.09756 2.86422 3.0311C2.89974 2.96464 2.93844 2.90008 2.98031 2.83742C3.02217 2.77476 3.06701 2.71431 3.11482 2.65605C3.16262 2.5978 3.21317 2.54203 3.26645 2.48874C3.31974 2.43546 3.37551 2.38491 3.43376 2.33711C3.49202 2.2893 3.55247 2.24446 3.61513 2.2026C3.67779 2.16073 3.74235 2.12203 3.80881 2.08651C3.87527 2.05099 3.94331 2.01881 4.01293 1.98997C4.08255 1.96113 4.15342 1.93577 4.22553 1.9139C4.29765 1.89202 4.37066 1.87373 4.44457 1.85903C4.51848 1.84433 4.59293 1.83329 4.66793 1.8259C4.74292 1.81851 4.8181 1.81482 4.89346 1.81482C4.96881 1.81482 5.04399 1.81851 5.11899 1.8259C5.19398 1.83329 5.26843 1.84433 5.34234 1.85903C5.41625 1.87373 5.48927 1.89202 5.56138 1.9139C5.63349 1.93577 5.70436 1.96113 5.77398 1.98997C5.8436 2.01881 5.91164 2.05099 5.9781 2.08651C6.04456 2.12203 6.10912 2.16073 6.17178 2.2026C6.23444 2.24446 6.29489 2.2893 6.35315 2.33711C6.4114 2.38491 6.46717 2.43546 6.52046 2.48874C6.57374 2.54203 6.62429 2.5978 6.67209 2.65605C6.7199 2.71431 6.76474 2.77476 6.8066 2.83742C6.84847 2.90008 6.88717 2.96464 6.92269 3.0311C6.95821 3.09756 6.9904 3.1656 7.01923 3.23522C7.04807 3.30484 7.07343 3.37571 7.0953 3.44782C7.11718 3.51993 7.13547 3.59295 7.15017 3.66686C7.16487 3.74077 7.17592 3.81522 7.1833 3.89021C7.19069 3.96521 7.19438 4.04039 7.19438 4.11575C7.19438 4.1911 7.19069 4.26628 7.1833 4.34128C7.17592 4.41627 7.16487 4.49072 7.15017 4.56463C7.13547 4.63854 7.11718 4.71155 7.0953 4.78367C7.07343 4.85578 7.04807 4.92665 7.01923 4.99627C6.9904 5.06589 6.95821 5.13393 6.92269 5.20039C6.88717 5.26685 6.84847 5.33141 6.8066 5.39407C6.76474 5.45673 6.7199 5.51718 6.67209 5.57544C6.62429 5.63369 6.57374 5.68946 6.52046 5.74274C6.46717 5.79603 6.4114 5.84658 6.35315 5.89438C6.29489 5.94219 6.23444 5.98703 6.17178 6.02889C6.10912 6.07076 6.04456 6.10946 5.9781 6.14498C5.91164 6.1805 5.8436 6.21268 5.77398 6.24152C5.70436 6.27036 5.63349 6.29572 5.56138 6.31759C5.48927 6.33947 5.41625 6.35776 5.34234 6.37246C5.26843 6.38716 5.19398 6.3982 5.11899 6.40559C5.04399 6.41298 4.96881 6.41667 4.89346 6.41667ZM4.89346 5.89815C4.95183 5.89815 5.01007 5.89529 5.06816 5.88957C5.12626 5.88385 5.18393 5.87529 5.24119 5.8639C5.29844 5.85252 5.355 5.83835 5.41086 5.8214C5.46672 5.80446 5.52162 5.78481 5.57555 5.76247C5.62949 5.74013 5.68219 5.71521 5.73368 5.68769C5.78516 5.66017 5.83517 5.63019 5.88371 5.59776C5.93225 5.56533 5.97908 5.5306 6.0242 5.49356C6.06933 5.45653 6.11253 5.41737 6.15381 5.3761C6.19509 5.33482 6.23424 5.29162 6.27128 5.24649C6.30831 5.20137 6.34304 5.15454 6.37547 5.106C6.4079 5.05746 6.43788 5.00745 6.4654 4.95597C6.49292 4.90448 6.51785 4.85177 6.54018 4.79784C6.56252 4.74391 6.58217 4.68901 6.59911 4.63315C6.61606 4.57729 6.63023 4.52073 6.64161 4.46348C6.653 4.40622 6.66156 4.34855 6.66728 4.29045C6.673 4.23236 6.67586 4.17412 6.67586 4.11575C6.67586 4.05737 6.673 3.99913 6.66728 3.94104C6.66156 3.88294 6.653 3.82527 6.64161 3.76801C6.63023 3.71076 6.61606 3.6542 6.59911 3.59834C6.58217 3.54248 6.56252 3.48758 6.54018 3.43365C6.51785 3.37971 6.49292 3.32701 6.4654 3.27552C6.43788 3.22404 6.4079 3.17403 6.37547 3.12549C6.34304 3.07695 6.30831 3.03012 6.27127 2.985C6.23424 2.93987 6.19509 2.89667 6.15381 2.85539C6.11253 2.81411 6.06933 2.77496 6.0242 2.73793C5.97908 2.70089 5.93225 2.66616 5.88371 2.63373C5.83517 2.6013 5.78516 2.57132 5.73368 2.5438C5.68219 2.51628 5.62949 2.49135 5.57555 2.46902C5.52162 2.44668 5.46672 2.42703 5.41086 2.41009C5.355 2.39314 5.29844 2.37897 5.24119 2.36759C5.18393 2.3562 5.12626 2.34764 5.06816 2.34192C5.01007 2.3362 4.95183 2.33334 4.89346 2.33334C4.83508 2.33334 4.77684 2.3362 4.71875 2.34192C4.66065 2.34764 4.60298 2.3562 4.54572 2.36759C4.48847 2.37897 4.43191 2.39314 4.37605 2.41009C4.32019 2.42703 4.26529 2.44668 4.21136 2.46902C4.15742 2.49135 4.10472 2.51628 4.05323 2.5438C4.00175 2.57132 3.95174 2.6013 3.9032 2.63373C3.85466 2.66616 3.80783 2.70089 3.76271 2.73793C3.71758 2.77496 3.67438 2.81411 3.6331 2.85539C3.59183 2.89667 3.55267 2.93987 3.51564 2.985C3.4786 3.03012 3.44387 3.07695 3.41144 3.12549C3.37901 3.17403 3.34903 3.22404 3.32151 3.27552C3.29399 3.32701 3.26907 3.37971 3.24673 3.43365C3.22439 3.48758 3.20474 3.54248 3.1878 3.59834C3.17085 3.6542 3.15669 3.71076 3.1453 3.76801C3.13391 3.82527 3.12535 3.88294 3.11963 3.94104C3.11391 3.99913 3.11105 4.05737 3.11105 4.11575C3.11105 4.17412 3.11391 4.23236 3.11963 4.29045C3.12535 4.34855 3.13391 4.40622 3.1453 4.46348C3.15669 4.52073 3.17085 4.57729 3.1878 4.63315C3.20474 4.68901 3.22439 4.74391 3.24673 4.79784C3.26907 4.85177 3.29399 4.90448 3.32151 4.95597C3.34903 5.00745 3.37901 5.05746 3.41144 5.106C3.44387 5.15454 3.4786 5.20137 3.51564 5.24649C3.55267 5.29162 3.59183 5.33482 3.6331 5.3761C3.67438 5.41737 3.71758 5.45653 3.76271 5.49356C3.80783 5.5306 3.85466 5.56533 3.9032 5.59776C3.95174 5.63019 4.00175 5.66017 4.05323 5.68769C4.10472 5.71521 4.15742 5.74013 4.21136 5.76247C4.26529 5.78481 4.32019 5.80446 4.37605 5.8214C4.43191 5.83835 4.48847 5.85252 4.54572 5.8639C4.60298 5.87529 4.66065 5.88385 4.71875 5.88957C4.77684 5.89529 4.83508 5.89815 4.89346 5.89815Z" fill="rgb(32,32,32)" fill-rule="nonzero" />
    <path id="path" d="M4.92605 6.48144C3.68368 6.48144 2.33346 8.23844 2.33346 9.33329L2.33346 12.4444C2.33346 12.4078 2.33502 12.4104 2.34902 12.4262C2.3835 12.4651 2.43716 12.511 2.50042 12.5543C2.63316 12.6451 2.77783 12.7037 2.85198 12.7037L6.33279 12.7037C6.32593 12.682 6.31945 12.6602 6.31335 12.6383C6.27265 12.489 6.24604 12.3371 6.2335 12.1828C6.22582 12.0973 6.22211 12.0117 6.22235 11.9259L6.22235 9.59255C6.22235 8.97551 6.3805 8.3411 6.67087 7.79329C6.16142 6.99658 5.5112 6.48144 4.92605 6.48144ZM7.19483 7.91799C7.04734 8.17247 6.93512 8.44165 6.85816 8.72553C6.7812 9.00942 6.74211 9.29842 6.74087 9.59255L6.74087 11.9259C6.74087 12.1097 6.75746 12.3013 6.81268 12.4988C6.84794 12.6251 6.89539 12.7301 6.9532 12.8074L7.25939 13.2152L6.74968 13.2222L2.85198 13.2222C2.44416 13.2222 1.81494 12.7923 1.81494 12.4444L1.81494 9.33329C1.81494 7.97736 3.36324 5.96292 4.92605 5.96292C5.76761 5.96292 6.5905 6.64477 7.19379 7.65381L7.27261 7.78551L7.19483 7.91799ZM9.67387 7.16199C9.60329 7.16199 9.53287 7.15853 9.46263 7.15161C9.39239 7.1447 9.32266 7.13435 9.25343 7.12058C9.18421 7.10681 9.11582 7.08968 9.04828 7.06919C8.98074 7.04871 8.91436 7.02496 8.84915 6.99794C8.78394 6.97093 8.72021 6.94079 8.65796 6.90752C8.59572 6.87425 8.53525 6.83801 8.47656 6.79879C8.41788 6.75958 8.36125 6.71759 8.30669 6.67281C8.25213 6.62803 8.1999 6.58069 8.14999 6.53078C8.10008 6.48087 8.05274 6.42864 8.00796 6.37408C7.96318 6.31951 7.92119 6.26289 7.88197 6.2042C7.84276 6.14552 7.80652 6.08505 7.77325 6.0228C7.73997 5.96056 7.70983 5.89683 7.68282 5.83162C7.65581 5.76641 7.63206 5.70003 7.61157 5.63249C7.59108 5.56495 7.57395 5.49656 7.56018 5.42734C7.54642 5.35811 7.53607 5.28838 7.52915 5.21814C7.52223 5.14789 7.51878 5.07748 7.51878 5.0069C7.51878 4.93632 7.52224 4.86591 7.52915 4.79566C7.53607 4.72542 7.54642 4.65569 7.56018 4.58646C7.57395 4.51724 7.59108 4.44885 7.61157 4.38131C7.63206 4.31377 7.65581 4.24739 7.68282 4.18218C7.70983 4.11697 7.73997 4.05324 7.77325 3.991C7.80652 3.92875 7.84276 3.86828 7.88197 3.80959C7.92119 3.75091 7.96318 3.69428 8.00796 3.63972C8.05274 3.58516 8.10008 3.53293 8.14999 3.48302C8.1999 3.43311 8.25213 3.38577 8.30669 3.34099C8.36125 3.29621 8.41788 3.25422 8.47656 3.21501C8.53525 3.17579 8.59572 3.13955 8.65796 3.10628C8.72021 3.07301 8.78394 3.04286 8.84915 3.01585C8.91436 2.98884 8.98074 2.96509 9.04828 2.9446C9.11582 2.92412 9.18421 2.90699 9.25343 2.89322C9.32266 2.87945 9.39239 2.8691 9.46263 2.86218C9.53287 2.85527 9.60329 2.85181 9.67387 2.85181C9.74445 2.85181 9.81486 2.85527 9.8851 2.86218C9.95535 2.8691 10.0251 2.87945 10.0943 2.89322C10.1635 2.90699 10.2319 2.92412 10.2995 2.9446C10.367 2.96509 10.4334 2.98884 10.4986 3.01585C10.5638 3.04286 10.6275 3.07301 10.6898 3.10628C10.752 3.13955 10.8125 3.17579 10.8712 3.21501C10.9299 3.25422 10.9865 3.29621 11.041 3.34099C11.0956 3.38577 11.1478 3.43311 11.1977 3.48302C11.2477 3.53293 11.295 3.58516 11.3398 3.63972C11.3846 3.69428 11.4265 3.75091 11.4658 3.80959C11.505 3.86828 11.5412 3.92875 11.5745 3.991C11.6078 4.05324 11.6379 4.11697 11.6649 4.18218C11.6919 4.24739 11.7157 4.31377 11.7362 4.38131C11.7567 4.44885 11.7738 4.51724 11.7876 4.58646C11.8013 4.65569 11.8117 4.72542 11.8186 4.79566C11.8255 4.86591 11.829 4.93632 11.829 5.0069C11.829 5.07748 11.8255 5.14789 11.8186 5.21814C11.8117 5.28838 11.8013 5.35811 11.7876 5.42734C11.7738 5.49656 11.7567 5.56495 11.7362 5.63249C11.7157 5.70003 11.6919 5.76641 11.6649 5.83162C11.6379 5.89683 11.6078 5.96056 11.5745 6.0228C11.5412 6.08505 11.505 6.14552 11.4658 6.20421C11.4265 6.26289 11.3846 6.31952 11.3398 6.37408C11.295 6.42864 11.2477 6.48087 11.1977 6.53078C11.1478 6.58069 11.0956 6.62803 11.041 6.67281C10.9865 6.71759 10.9299 6.75958 10.8712 6.79879C10.8125 6.83801 10.752 6.87425 10.6898 6.90752C10.6275 6.94079 10.5638 6.97093 10.4986 6.99794C10.4334 7.02496 10.367 7.04871 10.2995 7.06919C10.2319 7.08968 10.1635 7.10681 10.0943 7.12058C10.0251 7.13435 9.95535 7.1447 9.8851 7.15161C9.81486 7.15853 9.74445 7.16199 9.67387 7.16199ZM9.67387 6.64347C9.72747 6.64347 9.78094 6.64085 9.83428 6.63559C9.88762 6.63034 9.94058 6.62248 9.99315 6.61203C10.0457 6.60157 10.0976 6.58856 10.1489 6.573C10.2002 6.55744 10.2506 6.53941 10.3002 6.5189C10.3497 6.49838 10.3981 6.4755 10.4453 6.45023C10.4926 6.42496 10.5385 6.39744 10.5831 6.36766C10.6277 6.33788 10.6707 6.30599 10.7121 6.27199C10.7535 6.23798 10.7932 6.20203 10.8311 6.16413C10.869 6.12623 10.905 6.08656 10.939 6.04513C10.973 6.0037 11.0049 5.9607 11.0346 5.91613C11.0644 5.87156 11.0919 5.82565 11.1172 5.77837C11.1425 5.7311 11.1654 5.68271 11.1859 5.63319C11.2064 5.58367 11.2244 5.53326 11.24 5.48197C11.2555 5.43068 11.2685 5.37875 11.279 5.32618C11.2895 5.27361 11.2973 5.22065 11.3026 5.16731C11.3078 5.11397 11.3104 5.0605 11.3104 5.0069C11.3104 4.9533 11.3078 4.89983 11.3026 4.84649C11.2973 4.79315 11.2895 4.74019 11.279 4.68762C11.2685 4.63505 11.2555 4.58312 11.24 4.53183C11.2244 4.48053 11.2064 4.43013 11.1859 4.38061C11.1654 4.33109 11.1425 4.28269 11.1172 4.23542C11.0919 4.18815 11.0644 4.14223 11.0346 4.09767C11.0049 4.0531 10.973 4.0101 10.939 3.96867C10.905 3.92723 10.869 3.88757 10.8311 3.84967C10.7932 3.81177 10.7535 3.77581 10.7121 3.74181C10.6707 3.70781 10.6277 3.67592 10.5831 3.64614C10.5385 3.61636 10.4926 3.58884 10.4453 3.56357C10.3981 3.5383 10.3497 3.51541 10.3002 3.4949C10.2506 3.47439 10.2002 3.45635 10.1489 3.4408C10.0976 3.42524 10.0457 3.41223 9.99315 3.40177C9.94058 3.39131 9.88762 3.38346 9.83428 3.37821C9.78094 3.37295 9.72747 3.37032 9.67387 3.37032C9.62027 3.37032 9.5668 3.37295 9.51346 3.37821C9.46011 3.38346 9.40716 3.39131 9.35459 3.40177C9.30202 3.41223 9.25009 3.42524 9.1988 3.4408C9.1475 3.45635 9.0971 3.47439 9.04758 3.4949C8.99806 3.51541 8.94966 3.5383 8.90239 3.56357C8.85512 3.58884 8.8092 3.61636 8.76464 3.64614C8.72007 3.67592 8.67707 3.70781 8.63564 3.74181C8.5942 3.77581 8.55453 3.81177 8.51663 3.84967C8.47873 3.88757 8.44278 3.92723 8.40878 3.96867C8.37477 4.0101 8.34288 4.0531 8.31311 4.09767C8.28333 4.14223 8.25581 4.18815 8.23054 4.23542C8.20527 4.28269 8.18238 4.33109 8.16187 4.38061C8.14136 4.43013 8.12332 4.48053 8.10776 4.53183C8.09221 4.58312 8.0792 4.63505 8.06874 4.68762C8.05828 4.74019 8.05043 4.79314 8.04517 4.84649C8.03992 4.89983 8.03729 4.9533 8.03729 5.0069C8.03729 5.0605 8.03992 5.11397 8.04517 5.16731C8.05043 5.22065 8.05828 5.27361 8.06874 5.32618C8.0792 5.37875 8.09221 5.43068 8.10776 5.48197C8.12332 5.53326 8.14136 5.58367 8.16187 5.63319C8.18238 5.68271 8.20527 5.7311 8.23054 5.77837C8.25581 5.82565 8.28333 5.87156 8.31311 5.91613C8.34288 5.9607 8.37477 6.0037 8.40878 6.04513C8.44278 6.08656 8.47873 6.12623 8.51663 6.16413C8.55453 6.20203 8.5942 6.23798 8.63564 6.27199C8.67707 6.30599 8.72007 6.33788 8.76464 6.36766C8.8092 6.39744 8.85512 6.42496 8.90239 6.45023C8.94966 6.47549 8.99806 6.49838 9.04758 6.5189C9.0971 6.53941 9.1475 6.55744 9.1988 6.573C9.25009 6.58856 9.30202 6.60157 9.35459 6.61203C9.40716 6.62248 9.46011 6.63034 9.51346 6.63559C9.5668 6.64085 9.62027 6.64347 9.67387 6.64347Z" fill="rgb(32,32,32)" fill-rule="nonzero" />
</svg>
