<svg viewBox="0 0 32 32" xmlns="http://www.w3.org/2000/svg" xmlns:xlink="http://www.w3.org/1999/xlink" width="32" height="32" opacity="0.600000024" fill="none">
    <rect id="svg" width="32" height="32" x="0" y="0" />
    <path id="path" d="M5.56904 15.5303C5.56904 12.7907 5.56919 10.0512 5.56948 7.31157C5.56979 6.53436 6.03914 5.91945 6.76417 5.73889C6.91718 5.70454 7.07206 5.68932 7.22883 5.69323C9.13508 5.69423 11.0413 5.69534 12.9476 5.69657C13.0655 5.69682 13.1126 5.67107 13.1438 5.54726C13.175 5.42048 13.2165 5.29716 13.2683 5.1773C13.3201 5.05743 13.3814 4.94267 13.4523 4.83301C13.5232 4.72335 13.6026 4.62031 13.6907 4.52388C13.7787 4.42745 13.8741 4.33896 13.9769 4.25842C14.0797 4.17787 14.1884 4.10637 14.303 4.04392C14.4177 3.98147 14.5368 3.92893 14.6602 3.88629C14.7836 3.84366 14.9097 3.81152 15.0384 3.78988C15.1672 3.76823 15.2969 3.75738 15.4275 3.75732C15.558 3.75727 15.6877 3.768 15.8165 3.78953C15.9453 3.81106 16.0714 3.84309 16.1948 3.88561C16.3183 3.92813 16.4374 3.98057 16.5521 4.04292C16.6668 4.10527 16.7756 4.17667 16.8785 4.25712C16.9813 4.33758 17.0768 4.42599 17.1649 4.52234C17.253 4.61869 17.3326 4.72166 17.4036 4.83125C17.4745 4.94085 17.536 5.05555 17.5879 5.17537C17.6397 5.2952 17.6814 5.41848 17.7127 5.54523C17.7434 5.66664 17.7868 5.69707 17.9072 5.69682C19.803 5.69266 21.6989 5.69173 23.5947 5.69404C24.5964 5.69423 25.2564 6.35435 25.2565 7.35654C25.2567 10.6117 25.2558 13.8669 25.2538 17.1222C25.2538 17.2455 25.293 17.3133 25.3944 17.3834C26.8898 18.4176 27.8038 19.827 28.0381 21.6353C28.4214 24.5943 26.72 27.2867 23.9014 28.2344C21.226 29.134 18.1826 27.9909 16.7679 25.5482C16.691 25.4154 16.6112 25.3779 16.4644 25.3781C13.3707 25.3826 10.2769 25.3836 7.18317 25.381C6.41245 25.3807 5.80402 24.9176 5.6178 24.1976C5.58095 24.0398 5.5646 23.8799 5.56873 23.7179C5.56936 20.9887 5.56946 18.2595 5.56904 15.5303ZM21.9753 27.9074C22.3833 27.9222 22.7852 27.8705 23.1823 27.7847C25.9131 27.1946 27.7823 24.5801 27.4352 21.803C27.2277 20.1434 26.4206 18.8309 25.0275 17.8951C24.1069 17.2766 23.0838 16.9807 21.9751 16.9809C21.3886 16.9815 20.8176 17.076 20.2622 17.2644C17.7409 18.1175 16.1898 20.6509 16.6081 23.2831C16.8558 24.8422 17.642 26.0861 18.9525 26.978C19.3964 27.2848 19.8763 27.5174 20.3921 27.676C20.9079 27.8346 21.4357 27.9117 21.9753 27.9074ZM15.7549 8.97892C14.6979 8.97761 13.6409 8.97911 12.5839 8.97404C12.4791 8.97318 12.375 8.96371 12.2717 8.94564C12.1685 8.92757 12.0674 8.90114 11.9685 8.86635C11.8696 8.83157 11.7742 8.7889 11.6824 8.73835C11.5905 8.6878 11.5034 8.63004 11.4211 8.5651C11.3388 8.50015 11.2624 8.42888 11.1919 8.3513C11.1214 8.27372 11.0578 8.19087 11.0009 8.10276C10.9441 8.01466 10.8949 7.92248 10.8533 7.82624C10.8118 7.73 10.7784 7.63099 10.7532 7.52923C10.6671 7.18482 10.6963 6.83623 10.698 6.48907C10.6987 6.35207 10.6641 6.31485 10.5251 6.31554C9.37436 6.32132 8.22357 6.31804 7.07279 6.31882C6.61839 6.31914 6.19401 6.74592 6.19398 7.2021C6.19367 12.7581 6.19367 18.3141 6.19398 23.8701C6.19398 24.3348 6.61864 24.7566 7.08536 24.7566C9.92323 24.7566 12.7611 24.7565 15.599 24.7562C15.651 24.7562 15.703 24.7539 15.7551 24.7527C15.9008 24.7539 16.0468 24.7503 16.1922 24.7578C16.3222 24.7646 16.3665 24.7487 16.3085 24.5978C16.2283 24.3873 16.16 24.173 16.1036 23.9548C16.0473 23.7367 16.0032 23.5161 15.9715 23.2931C15.9398 23.07 15.9205 22.8459 15.9138 22.6207C15.9071 22.3955 15.9129 22.1706 15.9313 21.9461C15.9496 21.7216 15.9804 21.4987 16.0236 21.2776C16.0669 21.0565 16.1223 20.8385 16.1898 20.6236C16.2574 20.4087 16.3366 20.1982 16.4277 19.9921C16.5187 19.786 16.6209 19.5856 16.7343 19.3909C17.322 18.3888 18.1233 17.6068 19.1489 17.0638C20.197 16.5088 21.3135 16.2752 22.5016 16.3758C23.1001 16.4233 23.6788 16.5566 24.2377 16.7758C24.3645 16.826 24.4916 16.8754 24.6185 16.9252C24.6233 16.9152 24.6271 16.9048 24.6298 16.8941C24.6308 13.6453 24.6311 10.3964 24.6305 7.14764C24.6302 6.74876 24.1939 6.32079 23.7946 6.31951C22.6284 6.31585 21.4621 6.31951 20.2959 6.31701C20.1956 6.31679 20.1581 6.34417 20.1609 6.44867C20.1671 6.68798 20.1744 6.92835 20.1595 7.16695C20.1271 7.68682 19.923 8.13539 19.5345 8.48376C19.1424 8.83532 18.6719 8.98204 18.1448 8.97726C17.348 8.97014 16.5515 8.97767 15.7549 8.97892ZM15.4157 8.31876C16.363 8.31876 17.3104 8.32189 18.2577 8.3177C18.3301 8.31805 18.4019 8.3121 18.4733 8.29984C18.5446 8.28759 18.6143 8.26922 18.6824 8.24474C18.7505 8.22025 18.8159 8.19002 18.8787 8.15406C18.9415 8.11809 19.0007 8.07693 19.0563 8.03058C19.1118 7.98423 19.1629 7.93339 19.2096 7.87807C19.2562 7.82276 19.2977 7.7638 19.334 7.7012C19.3703 7.63861 19.4009 7.57333 19.4258 7.50536C19.4506 7.4374 19.4694 7.36779 19.482 7.29654C19.5304 7.04342 19.4883 6.78717 19.5095 6.53386C19.5223 6.38195 19.4746 6.34439 19.3234 6.34636C18.6312 6.35523 17.9388 6.34786 17.2465 6.3526C17.1356 6.35339 17.1043 6.33032 17.1242 6.21511C17.1482 6.07673 17.125 5.93573 17.1009 5.79657C16.9555 4.95579 16.1126 4.32042 15.2701 4.41814C14.3464 4.52529 13.6595 5.31564 13.734 6.20423C13.746 6.34854 13.6987 6.35211 13.5892 6.35161C12.8865 6.34848 12.1838 6.35176 11.4811 6.34801C11.3821 6.34748 11.343 6.37067 11.348 6.47661C11.3565 6.65317 11.3499 6.83045 11.3504 7.00745C11.3526 7.78648 11.8853 8.3177 12.6673 8.31854C13.5833 8.3196 14.4995 8.31968 15.4157 8.31876Z" fill="rgb(52,55,65)" fill-rule="nonzero" />
    <path id="path" d="M15.7549 24.7527C15.7028 24.7539 15.6508 24.7562 15.5988 24.7562C12.7609 24.7565 9.92304 24.7567 7.08517 24.7567C6.61845 24.7567 6.19382 24.3348 6.19379 23.8701C6.19354 18.3141 6.19354 12.7581 6.19379 7.20212C6.19379 6.74587 6.61817 6.31915 7.0726 6.31884C8.22338 6.31806 9.37417 6.32134 10.5249 6.31556C10.6639 6.31487 10.6985 6.35209 10.6979 6.48909C10.6961 6.83625 10.6669 7.18484 10.753 7.52925C10.7782 7.63102 10.8116 7.73003 10.8532 7.82627C10.8947 7.92252 10.9439 8.0147 11.0008 8.10282C11.0576 8.19093 11.1213 8.27378 11.1918 8.35136C11.2623 8.42895 11.3387 8.50021 11.421 8.56516C11.5033 8.63011 11.5904 8.68786 11.6823 8.73841C11.7741 8.78897 11.8695 8.83163 11.9684 8.86641C12.0673 8.90119 12.1684 8.92761 12.2717 8.94568C12.375 8.96374 12.479 8.9732 12.5839 8.97406C13.6408 8.97912 14.6979 8.97759 15.7549 8.9789L15.7553 11.5349C14.9535 11.5362 14.1516 11.5371 13.3498 11.5378C13.191 11.5378 13.0498 11.5781 12.9432 11.6989C12.815 11.8439 12.7772 12.013 12.8571 12.1919C12.9411 12.38 13.0933 12.4757 13.3022 12.476C14.1196 12.4773 14.9371 12.4787 15.7545 12.4804L15.7549 15.9402C15.7237 15.9414 15.6924 15.9437 15.6612 15.9437C14.8799 15.944 14.0987 15.9441 13.3174 15.944C13.1391 15.944 12.9896 16.005 12.896 16.1629C12.6984 16.4961 12.9126 16.8779 13.3018 16.8802C14.1194 16.8849 14.9371 16.8838 15.7547 16.8851C15.7549 19.5076 15.7549 22.1301 15.7549 24.7527ZM8.10548 20.1255C7.8771 20.1298 7.73895 20.2112 7.65504 20.3719C7.56198 20.55 7.56979 20.7324 7.70598 20.8811C8.07835 21.2878 8.46688 21.6797 8.87538 22.0498C9.06642 22.2229 9.31517 22.2075 9.49617 22.0283C10.1618 21.3692 10.8244 20.7072 11.4839 20.042C11.5999 19.9254 11.6557 19.7816 11.6176 19.6144C11.5333 19.2443 11.1012 19.1141 10.8265 19.3837C10.3177 19.883 9.81667 20.3903 9.31238 20.8942C9.17273 21.0337 9.17263 21.0337 9.02801 20.8891C8.82557 20.6868 8.6232 20.4844 8.42088 20.282C8.32107 20.1819 8.20595 20.1188 8.10548 20.1255ZM8.05104 15.7228C7.95782 15.713 7.86704 15.7504 7.78585 15.8103C7.54229 15.9904 7.53329 16.3115 7.77335 16.5575C8.10413 16.8963 8.44045 17.2298 8.7772 17.5627C9.04595 17.8283 9.29526 17.8257 9.56235 17.5591C10.0559 17.0665 10.549 16.5734 11.0417 16.08C11.1925 15.9291 11.3488 15.7831 11.4924 15.6257C11.7238 15.3718 11.6479 15.0062 11.3431 14.8738C11.1537 14.7915 10.9723 14.8298 10.8047 14.9964C10.2957 15.503 9.7866 16.0095 9.28285 16.5212C9.19551 16.6099 9.14479 16.6084 9.0607 16.5195C8.85338 16.3003 8.6357 16.0911 8.42251 15.8773C8.32288 15.7773 8.20845 15.7131 8.05104 15.7228ZM8.07763 11.3153C7.84885 11.3146 7.67935 11.4417 7.61745 11.6528C7.55926 11.8511 7.63357 12.0108 7.76898 12.1477C8.10938 12.4916 8.44992 12.8356 8.79582 13.174C9.0456 13.4183 9.30101 13.4135 9.54717 13.1679C10.1809 12.5358 10.8137 11.9029 11.4456 11.269C11.4868 11.2291 11.5231 11.1852 11.5546 11.1373C11.5741 11.1064 11.5898 11.0737 11.6016 11.0392C11.6133 11.0046 11.6209 10.9692 11.6242 10.9328C11.6275 10.8964 11.6265 10.8602 11.6212 10.8241C11.6159 10.788 11.6064 10.753 11.5928 10.7191C11.5791 10.6852 11.5617 10.6534 11.5405 10.6237C11.5192 10.594 11.4948 10.5672 11.4672 10.5433C11.4396 10.5194 11.4096 10.4991 11.3771 10.4824C11.3447 10.4656 11.3107 10.453 11.2752 10.4443C11.0857 10.3974 10.9322 10.459 10.7965 10.596C10.3019 11.0949 9.7996 11.5861 9.31029 12.0902C9.1951 12.2089 9.13454 12.197 9.03117 12.0848C8.83382 11.8707 8.62179 11.6702 8.41554 11.4644C8.31954 11.3688 8.20804 11.3084 8.07763 11.3153ZM13.757 21.5375C13.9077 21.5375 14.0585 21.5394 14.2091 21.5371C14.4851 21.5329 14.6916 21.3334 14.6933 21.0723C14.6949 20.8112 14.4885 20.6043 14.2159 20.6012C13.9093 20.5978 13.6027 20.5978 13.296 20.6012C13.0235 20.6043 12.8175 20.8119 12.8196 21.0733C12.8206 21.135 12.8333 21.1942 12.8575 21.2509C12.8818 21.3076 12.9159 21.3576 12.9598 21.401C13.0037 21.4443 13.0542 21.4777 13.1112 21.5012C13.1683 21.5247 13.2276 21.5365 13.2893 21.5367C13.4451 21.5402 13.6011 21.5373 13.757 21.5375Z" fill="rgb(112,122,154)" fill-rule="nonzero" />
    <path id="path" d="M15.7552 11.535L15.7548 8.97892C16.5513 8.9777 17.3479 8.97017 18.1444 8.97739C18.6715 8.98217 19.142 8.83545 19.5341 8.48389C19.9228 8.13552 20.1269 7.68702 20.1591 7.16708C20.174 6.92848 20.1667 6.68811 20.1605 6.4488C20.1577 6.34433 20.1952 6.31692 20.2955 6.31714C21.4617 6.31977 22.628 6.31595 23.7942 6.31964C24.1935 6.32089 24.6298 6.74883 24.6301 7.14777C24.6326 10.3966 24.6324 13.6454 24.6294 16.8942C24.6267 16.905 24.6229 16.9153 24.6181 16.9253C24.4912 16.8756 24.3641 16.8262 24.2373 16.776C23.6784 16.5568 23.0997 16.4234 22.5012 16.376C21.3131 16.2754 20.1966 16.5089 19.1485 17.0639C18.1229 17.6069 17.3216 18.3889 16.7339 19.3911C16.6205 19.5858 16.5183 19.7861 16.4273 19.9922C16.3363 20.1983 16.257 20.4088 16.1894 20.6237C16.1219 20.8386 16.0665 21.0567 16.0233 21.2778C15.9801 21.4989 15.9493 21.7217 15.9309 21.9462C15.9126 22.1708 15.9068 22.3956 15.9135 22.6208C15.9202 22.846 15.9395 23.0701 15.9712 23.2932C16.003 23.5162 16.047 23.7368 16.1034 23.9549C16.1597 24.173 16.228 24.3874 16.3083 24.5979C16.3662 24.7488 16.3219 24.7646 16.1919 24.7579C16.0465 24.7504 15.9005 24.754 15.7548 24.7527L15.7548 16.8851C16.0978 16.8839 16.4407 16.8831 16.7837 16.8812C17.0736 16.8796 17.2837 16.6868 17.2871 16.4205C17.2908 16.1461 17.0798 15.9458 16.7837 15.9441C16.4407 15.9422 16.0978 15.9415 15.7548 15.9402L15.7544 12.4804C15.8169 12.4788 15.8791 12.476 15.9415 12.4759C16.8207 12.4756 17.7 12.4771 18.5792 12.4749C18.9412 12.474 19.175 12.1093 19.0101 11.8011C18.9105 11.615 18.7453 11.5366 18.5333 11.537C17.6073 11.5387 16.6812 11.536 15.7552 11.535ZM21.3757 12.4756L22.0303 12.4756C22.3004 12.4699 22.4997 12.2798 22.506 12.0217C22.5069 11.9599 22.4961 11.9003 22.4736 11.8427C22.4511 11.7852 22.4186 11.734 22.3762 11.6892C22.3337 11.6444 22.2843 11.6092 22.2281 11.5837C22.1719 11.5581 22.1129 11.5441 22.0512 11.5417C21.6046 11.5318 21.1578 11.5318 20.7109 11.5417C20.446 11.5479 20.2447 11.7831 20.2573 12.0396C20.2694 12.2865 20.472 12.4721 20.7367 12.475C20.9496 12.4775 21.1626 12.4755 21.3757 12.4756Z" fill="rgb(90,98,134)" fill-rule="nonzero" />
    <path id="path" d="M21.9752 27.9074C21.4355 27.9117 20.9078 27.8345 20.392 27.6759C19.8762 27.5173 19.3963 27.2846 18.9523 26.9779C17.6419 26.0859 16.8557 24.842 16.6079 23.283C16.1897 20.6508 17.7407 18.1173 20.2621 17.2642C20.8175 17.0758 21.3884 16.9813 21.9749 16.9807L21.9749 17.596C21.8452 17.6208 21.728 17.6683 21.6428 17.7757C21.4168 18.0603 21.5729 18.4873 21.9749 18.5414C21.9749 18.6495 21.9809 18.758 21.9736 18.8657C21.9629 19.023 22.0096 19.184 21.945 19.3379C21.7372 19.4201 21.6817 19.4972 21.6809 19.7248C21.6792 20.2285 21.6769 20.7323 21.683 21.236C21.6843 21.349 21.6545 21.4054 21.546 21.4568C21.1517 21.6439 20.935 21.9662 20.916 22.4023C20.8896 23.0125 21.3211 23.4687 21.9749 23.5422L21.9749 26.3461C21.8452 26.3709 21.7281 26.4184 21.6428 26.5258C21.4169 26.8104 21.573 27.2374 21.9749 27.2915C21.975 27.4968 21.9751 27.7021 21.9752 27.9074ZM17.6353 21.9761C17.5732 21.9756 17.5133 21.987 17.4557 22.0103C17.3981 22.0336 17.3471 22.0671 17.3029 22.1108C17.2586 22.1544 17.2244 22.2048 17.2002 22.2621C17.1761 22.3194 17.1638 22.3791 17.1635 22.4412C17.1631 22.5034 17.1747 22.5632 17.1982 22.6208C17.2217 22.6783 17.2553 22.7292 17.2991 22.7733C17.3428 22.8174 17.3934 22.8515 17.4507 22.8755C17.5081 22.8995 17.5678 22.9116 17.63 22.9117C17.6921 22.9119 17.7519 22.9002 17.8094 22.8765C17.8669 22.8528 17.9176 22.8191 17.9616 22.7752C18.0056 22.7313 18.0395 22.6806 18.0634 22.6232C18.0872 22.5658 18.0991 22.506 18.0991 22.4439C18.0987 22.3823 18.0867 22.3231 18.063 22.2663C18.0394 22.2094 18.0059 22.1591 17.9626 22.1154C17.9192 22.0717 17.8693 22.0378 17.8126 22.0137C17.756 21.9896 17.6969 21.9771 17.6353 21.9761ZM17.7533 20.2496C17.7519 20.3115 17.7623 20.3713 17.7848 20.429C17.8073 20.4866 17.84 20.5377 17.883 20.5823C17.9259 20.6269 17.9758 20.6614 18.0327 20.686C18.0895 20.7105 18.1488 20.7232 18.2107 20.7239C18.273 20.7253 18.3332 20.7147 18.3912 20.692C18.4493 20.6693 18.5007 20.6363 18.5456 20.5931C18.5904 20.5498 18.6253 20.4996 18.6501 20.4424C18.6748 20.3853 18.6877 20.3255 18.6886 20.2632C18.6895 20.2009 18.6784 20.1408 18.6553 20.083C18.6321 20.0251 18.5988 19.9739 18.5552 19.9294C18.5116 19.8848 18.4611 19.8504 18.4038 19.826C18.3464 19.8017 18.2866 19.7893 18.2243 19.7889C18.1624 19.7878 18.1027 19.7987 18.0452 19.8216C17.9876 19.8445 17.9368 19.8776 17.8925 19.9208C17.8483 19.9641 17.8141 20.0143 17.79 20.0713C17.7658 20.1283 17.7536 20.1877 17.7533 20.2496ZM19.8261 18.1906C19.7642 18.1891 19.7044 18.1996 19.6467 18.222C19.589 18.2445 19.5379 18.2772 19.4933 18.3201C19.4487 18.363 19.4141 18.4129 19.3895 18.4697C19.3648 18.5265 19.3521 18.5858 19.3512 18.6477C19.3502 18.7098 19.3612 18.7696 19.384 18.8273C19.4068 18.885 19.4398 18.9362 19.483 18.9807C19.5262 19.0253 19.5763 19.0599 19.6333 19.0845C19.6902 19.1091 19.7497 19.1219 19.8118 19.1229C19.8738 19.1238 19.9337 19.1129 19.9914 19.09C20.049 19.0671 20.1001 19.034 20.1447 18.9908C20.1892 18.9476 20.2238 18.8975 20.2483 18.8405C20.2729 18.7835 20.2857 18.724 20.2866 18.662C20.2876 18.6001 20.2767 18.5404 20.2539 18.4829C20.231 18.4253 20.198 18.3744 20.1547 18.3302C20.1115 18.2859 20.0613 18.2516 20.0044 18.2275C19.9474 18.2033 19.888 18.191 19.8261 18.1906ZM17.7533 24.6241C17.7518 24.686 17.7623 24.7458 17.7847 24.8035C17.8072 24.8612 17.8399 24.9123 17.8828 24.9569C17.9257 25.0015 17.9756 25.0361 18.0324 25.0607C18.0892 25.0853 18.1485 25.0981 18.2104 25.0989C18.2727 25.1003 18.3328 25.0896 18.3908 25.0669C18.4488 25.0442 18.5002 25.0112 18.545 24.968C18.5898 24.9248 18.6246 24.8746 18.6494 24.8175C18.6742 24.7604 18.687 24.7007 18.688 24.6384C18.6889 24.5762 18.6779 24.5161 18.6549 24.4583C18.6318 24.4004 18.5986 24.3492 18.5551 24.3047C18.5116 24.2601 18.4612 24.2256 18.4039 24.2011C18.3467 24.1767 18.2869 24.1642 18.2246 24.1636C18.1627 24.1626 18.103 24.1735 18.0455 24.1963C17.988 24.2192 17.9371 24.2522 17.8928 24.2955C17.8485 24.3388 17.8143 24.3889 17.7901 24.4459C17.7659 24.5029 17.7536 24.5622 17.7533 24.6241ZM19.8151 26.6968C19.877 26.698 19.9367 26.6871 19.9942 26.6643C20.0517 26.6414 20.1026 26.6084 20.1469 26.5652C20.1912 26.5219 20.2254 26.4718 20.2496 26.4148C20.2738 26.3579 20.2861 26.2984 20.2865 26.2365C20.2875 26.1742 20.2765 26.1141 20.2535 26.0562C20.2304 25.9982 20.1972 25.947 20.1536 25.9023C20.1101 25.8577 20.0597 25.8232 20.0023 25.7988C19.945 25.7743 19.8851 25.7618 19.8228 25.7613C19.7605 25.7608 19.7004 25.7723 19.6427 25.7958C19.5849 25.8193 19.5339 25.853 19.4897 25.8969C19.4454 25.9408 19.4113 25.9915 19.3873 26.049C19.3633 26.1065 19.3513 26.1665 19.3513 26.2288C19.3507 26.2907 19.3619 26.3503 19.3852 26.4077C19.4084 26.4651 19.4418 26.5158 19.4854 26.5597C19.5289 26.6037 19.5793 26.6376 19.6365 26.6614C19.6936 26.6851 19.7532 26.697 19.8151 26.6968Z" fill="rgb(254,225,128)" fill-rule="nonzero" />
    <path id="path" d="M21.9751 27.9074L21.9751 27.2917C22.2841 27.263 22.4699 27.0899 22.4742 26.8267C22.4786 26.5573 22.2898 26.3755 21.9751 26.3461L21.9751 23.5422C22.4343 23.5266 22.7876 23.3319 22.989 22.9115C23.0439 22.7968 23.1029 22.7653 23.2218 22.7667C23.7419 22.7727 24.2624 22.7717 24.7824 22.768C25.0299 22.7663 25.1731 22.6049 25.1365 22.3831C25.109 22.2164 24.9802 22.12 24.7696 22.1191C24.2493 22.117 23.7289 22.1164 23.2088 22.1201C23.1055 22.1209 23.0425 22.1033 22.9972 21.9922C22.9484 21.8695 22.8774 21.7614 22.7842 21.6679C22.6909 21.5744 22.583 21.5031 22.4604 21.4539C22.3523 21.4091 22.3292 21.3494 22.33 21.244C22.3345 20.7394 22.3333 20.2346 22.3315 19.7301C22.3304 19.4508 22.2275 19.3488 21.9453 19.3381C22.0099 19.1842 21.9632 19.0233 21.9739 18.8659C21.9812 18.7583 21.9752 18.6498 21.9752 18.5416C22.2842 18.5129 22.4699 18.3398 22.4742 18.0766C22.4787 17.8072 22.2899 17.6254 21.9752 17.5961L21.9752 16.9808C23.084 16.9807 24.1069 17.2766 25.0277 17.895C26.4207 18.8308 27.2278 20.1433 27.4353 21.803C27.7825 24.5801 25.9133 27.1946 23.1824 27.7846C22.785 27.8704 22.3831 27.9221 21.9751 27.9074ZM26.849 22.437C26.8481 22.3749 26.8353 22.3153 26.8106 22.2583C26.786 22.2012 26.7513 22.1511 26.7067 22.1079C26.662 22.0647 26.6108 22.0317 26.553 22.0089C26.4952 21.9861 26.4353 21.9752 26.3731 21.9763C26.311 21.9774 26.2515 21.9904 26.1945 22.0152C26.1376 22.04 26.0875 22.0748 26.0444 22.1195C26.0013 22.1643 25.9685 22.2156 25.9458 22.2735C25.9232 22.3313 25.9125 22.3913 25.9137 22.4534C25.915 22.5155 25.9281 22.5751 25.9531 22.6319C25.9781 22.6888 26.013 22.7388 26.0579 22.7817C26.1027 22.8247 26.1541 22.8575 26.212 22.8799C26.27 22.9024 26.33 22.913 26.3921 22.9116C26.4536 22.9097 26.5126 22.8964 26.5689 22.8714C26.6252 22.8465 26.6747 22.8118 26.7174 22.7675C26.7601 22.7231 26.7928 22.6724 26.8156 22.6152C26.8384 22.558 26.8495 22.4986 26.849 22.437ZM26.2593 20.2492C26.259 20.1874 26.2467 20.1279 26.2226 20.0709C26.1984 20.014 26.1642 19.9639 26.1199 19.9206C26.0757 19.8773 26.0248 19.8443 25.9673 19.8215C25.9097 19.7986 25.85 19.7877 25.7882 19.7888C25.7261 19.7897 25.6666 19.8024 25.6097 19.827C25.5527 19.8516 25.5026 19.8861 25.4594 19.9306C25.4161 19.9751 25.3831 20.0262 25.3602 20.0839C25.3373 20.1416 25.3263 20.2014 25.3273 20.2635C25.3282 20.3255 25.341 20.385 25.3656 20.4419C25.3902 20.4989 25.4248 20.5489 25.4694 20.5921C25.5139 20.6353 25.565 20.6683 25.6227 20.6912C25.6804 20.714 25.7402 20.7249 25.8023 20.7239C25.8642 20.7231 25.9235 20.7104 25.9803 20.6858C26.0371 20.6612 26.087 20.6266 26.1299 20.582C26.1728 20.5374 26.2055 20.4863 26.228 20.4286C26.2504 20.3709 26.2608 20.3111 26.2593 20.2492ZM24.1922 18.1908C24.1303 18.1904 24.0707 18.202 24.0135 18.2254C23.9562 18.2489 23.9057 18.2825 23.8619 18.3263C23.8181 18.37 23.7845 18.4205 23.7609 18.4778C23.7374 18.535 23.7258 18.5946 23.7262 18.6565C23.7263 18.7185 23.7384 18.7781 23.7623 18.8354C23.7862 18.8926 23.8201 18.9431 23.8641 18.9868C23.9081 19.0306 23.9588 19.0642 24.0162 19.0878C24.0736 19.1113 24.1333 19.123 24.1953 19.1228C24.2574 19.1226 24.317 19.1105 24.3742 19.0866C24.4315 19.0626 24.4819 19.0287 24.5256 18.9846C24.5694 18.9406 24.603 18.8899 24.6265 18.8325C24.65 18.7751 24.6617 18.7154 24.6614 18.6533C24.6614 18.5914 24.6494 18.532 24.6255 18.4749C24.6015 18.4178 24.5676 18.3675 24.5235 18.3241C24.4794 18.2806 24.4287 18.2474 24.3713 18.2243C24.3138 18.2012 24.2541 18.19 24.1922 18.1908ZM26.2593 24.6334C26.2602 24.5715 26.2491 24.5118 26.2261 24.4544C26.203 24.3969 26.1698 24.3461 26.1264 24.302C26.083 24.2579 26.0327 24.2238 25.9757 24.1999C25.9186 24.1759 25.8591 24.1639 25.7972 24.1637C25.7352 24.1634 25.6754 24.175 25.618 24.1984C25.5605 24.2219 25.5098 24.2555 25.4657 24.2991C25.4216 24.3428 25.3876 24.3932 25.3636 24.4505C25.3396 24.5077 25.3274 24.5673 25.3272 24.6294C25.3269 24.6914 25.3385 24.7511 25.362 24.8086C25.3856 24.866 25.4192 24.9167 25.4629 24.9607C25.5066 25.0048 25.5571 25.0388 25.6143 25.0627C25.6716 25.0867 25.7312 25.0987 25.7933 25.0989C25.8552 25.0994 25.9147 25.0879 25.972 25.0645C26.0293 25.041 26.0799 25.0074 26.1237 24.9637C26.1674 24.9199 26.2011 24.8694 26.2246 24.8121C26.2481 24.7549 26.2597 24.6953 26.2593 24.6334ZM24.1913 26.6968C24.2532 26.6978 24.3129 26.6867 24.3703 26.6637C24.4278 26.6408 24.4786 26.6076 24.5228 26.5642C24.5669 26.5209 24.6011 26.4707 24.6251 26.4136C24.6492 26.3566 24.6613 26.2972 24.6615 26.2353C24.6622 26.173 24.6509 26.113 24.6277 26.0553C24.6044 25.9975 24.571 25.9465 24.5273 25.9021C24.4837 25.8577 24.4332 25.8234 24.3759 25.7992C24.3185 25.7749 24.2587 25.7626 24.1965 25.7623C24.1342 25.762 24.0743 25.7736 24.0167 25.7972C23.9591 25.8208 23.9082 25.8545 23.8641 25.8984C23.8199 25.9423 23.7859 25.993 23.762 26.0505C23.7381 26.108 23.7262 26.1678 23.7262 26.2301C23.7257 26.292 23.7372 26.3516 23.7606 26.4089C23.784 26.4662 23.8176 26.5168 23.8613 26.5606C23.9049 26.6045 23.9554 26.6382 24.0126 26.6618C24.0698 26.6854 24.1294 26.6971 24.1913 26.6968Z" fill="rgb(254,216,90)" fill-rule="nonzero" />
    <path id="path" d="M15.4157 8.31879C14.4996 8.31892 13.5834 8.31892 12.6673 8.31879C11.8853 8.31795 11.3527 7.78673 11.3505 7.0077C11.35 6.83073 11.3565 6.65345 11.3481 6.47685C11.343 6.37092 11.3821 6.34773 11.4811 6.34826C12.1838 6.35204 12.8865 6.34873 13.5892 6.35185C13.6986 6.35236 13.7461 6.34873 13.734 6.20448C13.6596 5.31589 14.3465 4.52554 15.2702 4.41839C16.1127 4.32064 16.9555 4.95589 17.1009 5.79682C17.125 5.93598 17.1482 6.07695 17.1243 6.21535C17.1044 6.33045 17.1356 6.35351 17.2466 6.35285C17.9388 6.34801 18.6312 6.35539 19.3234 6.3466C19.4747 6.34467 19.5223 6.3822 19.5095 6.5341C19.4882 6.78742 19.5304 7.04364 19.4821 7.29679C19.4694 7.36804 19.4507 7.43765 19.4258 7.50561C19.401 7.57357 19.3704 7.63885 19.3341 7.70145C19.2978 7.76405 19.2563 7.823 19.2096 7.87832C19.163 7.93364 19.1119 7.98448 19.0563 8.03083C19.0007 8.07718 18.9415 8.11834 18.8788 8.15431C18.816 8.19027 18.7505 8.2205 18.6824 8.24498C18.6143 8.26947 18.5446 8.28784 18.4733 8.30009C18.402 8.31235 18.3301 8.3183 18.2578 8.31795C17.3103 8.32167 16.3629 8.31879 15.4157 8.31879Z" fill="rgb(245,113,90)" fill-rule="nonzero" />
    <path id="path" d="M15.7552 11.5349C16.6812 11.536 17.6073 11.5387 18.5333 11.537C18.7453 11.5366 18.9105 11.6151 19.0101 11.8011C19.175 12.1093 18.9413 12.474 18.5793 12.4749C17.7 12.4771 16.8208 12.4756 15.9415 12.4759C15.879 12.4759 15.8168 12.4788 15.7544 12.4803L13.3021 12.4759C13.0931 12.4756 12.9409 12.3799 12.857 12.1919C12.7771 12.013 12.8149 11.8439 12.943 11.6989C13.0498 11.578 13.1909 11.5377 13.3496 11.5378C14.1515 11.5383 14.9533 11.5373 15.7552 11.5349Z" fill="rgb(52,55,65)" fill-rule="nonzero" />
    <path id="path" d="M8.10537 20.1254C8.20584 20.1188 8.321 20.1818 8.42078 20.2819C8.62286 20.4846 8.82524 20.687 9.02791 20.8891C9.17256 21.0337 9.17266 21.0337 9.31228 20.8942C9.81656 20.3902 10.3176 19.883 10.8264 19.3837C11.1011 19.1141 11.533 19.2443 11.6175 19.6144C11.6557 19.7816 11.5997 19.9254 11.4837 20.042C10.823 20.7059 10.1605 21.368 9.49606 22.0282C9.31503 22.2074 9.06631 22.2229 8.87528 22.0498C8.46678 21.6797 8.07841 21.2877 7.70587 20.8811C7.56969 20.7323 7.56187 20.5501 7.65494 20.3719C7.73884 20.2112 7.877 20.1298 8.10537 20.1254ZM8.05094 15.7228C8.20834 15.7131 8.32281 15.7773 8.42247 15.8773C8.6355 16.0911 8.85334 16.3004 9.06066 16.5196C9.14478 16.6085 9.1955 16.61 9.28281 16.5213C9.78662 16.0096 10.2957 15.503 10.8047 14.9965C10.9722 14.8298 11.1537 14.7916 11.3431 14.8739C11.6478 15.0062 11.7238 15.3718 11.4923 15.6257C11.3486 15.7832 11.1923 15.9292 11.0416 16.0801C10.5486 16.5732 10.0556 17.0662 9.56241 17.5592C9.29531 17.8258 9.04591 17.8283 8.77725 17.5627C8.44047 17.2298 8.10419 16.8964 7.77341 16.5576C7.53325 16.3116 7.54216 15.9905 7.78591 15.8104C7.86694 15.7503 7.95772 15.7129 8.05094 15.7228ZM8.07753 11.3152C8.20794 11.3084 8.31944 11.3686 8.41534 11.4643C8.62159 11.6702 8.83372 11.8706 9.03097 12.0847C9.13437 12.1969 9.19491 12.2088 9.31009 12.0901C9.79928 11.586 10.3018 11.0948 10.7963 10.5959C10.932 10.4589 11.0855 10.3974 11.275 10.4442C11.3105 10.4529 11.3445 10.4656 11.3769 10.4823C11.4094 10.499 11.4394 10.5193 11.467 10.5432C11.4946 10.5671 11.519 10.5939 11.5403 10.6236C11.5615 10.6533 11.5789 10.6851 11.5926 10.719C11.6062 10.7529 11.6157 10.7879 11.621 10.824C11.6263 10.8601 11.6273 10.8963 11.624 10.9327C11.6207 10.9691 11.6131 11.0045 11.6014 11.0391C11.5896 11.0737 11.5739 11.1064 11.5544 11.1372C11.5229 11.1851 11.4866 11.229 11.4454 11.2689C10.8132 11.9025 10.1804 12.5355 9.54697 13.1678C9.30078 13.4134 9.04537 13.4182 8.79562 13.1739C8.44991 12.8355 8.10928 12.4916 7.76887 12.1476C7.63347 12.0108 7.55919 11.851 7.61734 11.6527C7.67928 11.4416 7.84878 11.3146 8.07753 11.3152Z" fill="rgb(254,225,128)" fill-rule="nonzero" />
    <path id="path" d="M15.7549 15.9402C16.0979 15.9414 16.4408 15.9422 16.7838 15.9441C17.08 15.9458 17.2909 16.1461 17.2873 16.4205C17.2837 16.6868 17.0738 16.8796 16.7838 16.8812C16.4408 16.8832 16.0979 16.8839 15.7549 16.8851C14.9373 16.8838 14.1196 16.885 13.302 16.8802C12.9128 16.8779 12.6986 16.4961 12.8962 16.1629C12.9899 16.005 13.1393 15.9442 13.3177 15.944C14.0989 15.944 14.8802 15.9439 15.6614 15.9437C15.6925 15.9438 15.7237 15.9414 15.7549 15.9402ZM13.757 21.5375C13.6011 21.5375 13.4451 21.5403 13.2893 21.5368C13.2276 21.5366 13.1682 21.5248 13.1112 21.5013C13.0541 21.4778 13.0037 21.4444 12.9598 21.4011C12.9159 21.3578 12.8818 21.3078 12.8575 21.251C12.8332 21.1943 12.8206 21.1351 12.8196 21.0735C12.8175 20.8121 13.0234 20.6045 13.296 20.6013C13.6026 20.5978 13.9092 20.5978 14.2158 20.6013C14.4885 20.6045 14.6949 20.8114 14.6933 21.0724C14.6916 21.3335 14.4851 21.533 14.2091 21.5373C14.0584 21.5394 13.9077 21.5375 13.757 21.5375ZM21.3757 12.4756C21.1627 12.4756 20.9497 12.4774 20.7367 12.4751C20.472 12.4721 20.2694 12.2864 20.2573 12.0397C20.2448 11.7832 20.4461 11.5479 20.7109 11.5417C21.1575 11.5313 21.6042 11.5313 22.0512 11.5417C22.1129 11.5442 22.1719 11.5582 22.2281 11.5837C22.2843 11.6093 22.3337 11.6445 22.3762 11.6893C22.4187 11.7341 22.4511 11.7853 22.4736 11.8428C22.4961 11.9004 22.5069 11.96 22.506 12.0217C22.4998 12.2798 22.3005 12.47 22.0303 12.4757L22.0147 12.4757L21.3757 12.4756ZM21.9452 19.3382C22.2274 19.349 22.3303 19.4509 22.3313 19.7301C22.3332 20.2347 22.3345 20.7395 22.3299 21.244C22.3289 21.3495 22.3522 21.4092 22.4603 21.454C22.5829 21.5031 22.6908 21.5745 22.784 21.668C22.8773 21.7615 22.9483 21.8696 22.9971 21.9923C23.0423 22.1034 23.1054 22.1209 23.2087 22.1202C23.7289 22.1165 24.2493 22.1171 24.7694 22.1192C24.9801 22.1201 25.1089 22.2164 25.1363 22.3832C25.1729 22.605 25.0298 22.7663 24.7823 22.7681C24.2621 22.7718 23.7417 22.7728 23.2216 22.7667C23.1029 22.7654 23.0438 22.7969 22.9888 22.9116C22.7876 23.332 22.4342 23.5267 21.975 23.5423C21.3211 23.4689 20.8896 23.0126 20.9162 22.4026C20.9351 21.9667 21.1518 21.6442 21.5462 21.4572C21.6547 21.4057 21.6845 21.3494 21.6831 21.2363C21.6771 20.7327 21.6793 20.2288 21.6811 19.7251C21.6819 19.4977 21.7373 19.4204 21.9452 19.3382ZM21.975 26.3461C22.2896 26.3754 22.4784 26.5572 22.474 26.8267C22.4698 27.0898 22.284 27.2629 21.975 27.2917C21.573 27.2375 21.4169 26.8105 21.6429 26.5261C21.7283 26.4185 21.8453 26.371 21.975 26.3461ZM17.6353 21.9762C17.6975 21.9767 17.7572 21.9891 17.8144 22.0134C17.8716 22.0377 17.9219 22.072 17.9655 22.1164C18.009 22.1608 18.0423 22.2118 18.0655 22.2695C18.0887 22.3271 18.0999 22.387 18.0993 22.4492C18.0986 22.5113 18.086 22.571 18.0615 22.6281C18.0371 22.6852 18.0026 22.7355 17.9581 22.7789C17.9136 22.8223 17.8625 22.8555 17.8047 22.8785C17.747 22.9015 17.6871 22.9126 17.6249 22.9117C17.5628 22.9109 17.5032 22.8981 17.4461 22.8735C17.3891 22.8489 17.3389 22.8143 17.2956 22.7696C17.2524 22.725 17.2193 22.6738 17.1964 22.616C17.1736 22.5582 17.1627 22.4983 17.1637 22.4361C17.1652 22.3746 17.1782 22.3156 17.2028 22.2591C17.2274 22.2027 17.2617 22.153 17.3058 22.11C17.3498 22.067 17.4004 22.034 17.4574 22.0108C17.5145 21.9876 17.5738 21.9761 17.6353 21.9762ZM21.975 17.5961C22.2896 17.6254 22.4784 17.8072 22.474 18.0767C22.4698 18.3398 22.284 18.5129 21.975 18.5417C21.573 18.4875 21.4169 18.0604 21.6429 17.7761C21.7283 17.6685 21.8453 17.621 21.975 17.5961ZM17.7534 20.2497C17.7537 20.1878 17.7659 20.1283 17.79 20.0713C17.8141 20.0143 17.8483 19.9642 17.8926 19.9209C17.9368 19.8776 17.9877 19.8445 18.0452 19.8217C18.1027 19.7988 18.1624 19.7879 18.2243 19.7889C18.2866 19.7894 18.3464 19.8018 18.4038 19.8261C18.4612 19.8505 18.5116 19.8849 18.5552 19.9294C18.5988 19.974 18.6322 20.0252 18.6553 20.083C18.6784 20.1409 18.6895 20.201 18.6886 20.2633C18.6877 20.3256 18.6749 20.3853 18.6501 20.4425C18.6253 20.4997 18.5905 20.5499 18.5456 20.5931C18.5008 20.6364 18.4493 20.6694 18.3913 20.692C18.3332 20.7147 18.2731 20.7254 18.2108 20.724C18.1489 20.7232 18.0895 20.7106 18.0327 20.686C17.9759 20.6615 17.926 20.6269 17.883 20.5824C17.84 20.5378 17.8073 20.4867 17.7849 20.429C17.7624 20.3713 17.7519 20.3116 17.7534 20.2497ZM19.8261 18.1907C19.888 18.191 19.9474 18.2033 20.0044 18.2275C20.0614 18.2517 20.1115 18.2859 20.1547 18.3302C20.198 18.3745 20.231 18.4254 20.2539 18.4829C20.2768 18.5404 20.2877 18.6001 20.2866 18.662C20.2857 18.7241 20.273 18.7836 20.2484 18.8406C20.2238 18.8975 20.1892 18.9476 20.1447 18.9909C20.1002 19.0341 20.0491 19.0671 19.9914 19.09C19.9337 19.1129 19.8738 19.1239 19.8118 19.1229C19.7497 19.122 19.6902 19.1092 19.6333 19.0846C19.5763 19.0599 19.5262 19.0254 19.4831 18.9808C19.4399 18.9362 19.4069 18.8851 19.384 18.8274C19.3612 18.7697 19.3503 18.7098 19.3513 18.6478C19.3521 18.5859 19.3649 18.5265 19.3895 18.4697C19.4141 18.413 19.4487 18.3631 19.4933 18.3202C19.5379 18.2772 19.5891 18.2445 19.6467 18.2221C19.7044 18.1996 19.7642 18.1892 19.8261 18.1907ZM17.7533 24.6243C17.7537 24.5624 17.7659 24.5029 17.7901 24.446C17.8143 24.389 17.8486 24.3389 17.8928 24.2956C17.9371 24.2524 17.988 24.2193 18.0455 24.1964C18.103 24.1736 18.1627 24.1627 18.2246 24.1637C18.2869 24.1643 18.3467 24.1768 18.4039 24.2013C18.4612 24.2257 18.5116 24.2602 18.5551 24.3048C18.5986 24.3493 18.6318 24.4005 18.6549 24.4584C18.6779 24.5162 18.6889 24.5763 18.688 24.6386C18.687 24.7008 18.6742 24.7605 18.6494 24.8176C18.6246 24.8747 18.5898 24.9249 18.545 24.9681C18.5002 25.0114 18.4488 25.0443 18.3908 25.067C18.3328 25.0897 18.2727 25.1004 18.2104 25.0991C18.1485 25.0982 18.0892 25.0855 18.0324 25.0608C17.9756 25.0362 17.9257 25.0016 17.8828 24.957C17.8399 24.9124 17.8072 24.8613 17.7847 24.8036C17.7623 24.7459 17.7518 24.6862 17.7533 24.6243ZM19.8151 26.6969C19.7532 26.697 19.6937 26.6852 19.6365 26.6614C19.5793 26.6377 19.529 26.6038 19.4854 26.5598C19.4418 26.5158 19.4084 26.4651 19.3852 26.4078C19.362 26.3504 19.3507 26.2907 19.3514 26.2288C19.3514 26.1665 19.3634 26.1066 19.3874 26.049C19.4114 25.9915 19.4455 25.9408 19.4897 25.8969C19.534 25.853 19.585 25.8193 19.6427 25.7958C19.7005 25.7723 19.7605 25.7609 19.8228 25.7614C19.8852 25.7619 19.945 25.7744 20.0024 25.7988C20.0597 25.8233 20.1101 25.8578 20.1537 25.9024C20.1972 25.947 20.2305 25.9983 20.2535 26.0562C20.2765 26.1141 20.2875 26.1743 20.2865 26.2366C20.2861 26.2985 20.2739 26.3579 20.2497 26.4149C20.2255 26.4719 20.1912 26.522 20.147 26.5652C20.1027 26.6085 20.0518 26.6415 19.9942 26.6643C19.9367 26.6872 19.877 26.698 19.8151 26.6969ZM26.8491 22.4371C26.85 22.4992 26.839 22.5591 26.816 22.6169C26.793 22.6746 26.7599 22.7257 26.7165 22.7702C26.6732 22.8147 26.623 22.8493 26.5658 22.8738C26.5087 22.8983 26.4491 22.9109 26.387 22.9116C26.3249 22.9124 26.265 22.9012 26.2073 22.878C26.1496 22.8549 26.0986 22.8216 26.0542 22.7781C26.0098 22.7346 25.9754 22.6843 25.9511 22.6272C25.9268 22.57 25.9143 22.5103 25.9137 22.4482C25.9132 22.3861 25.9245 22.3262 25.9478 22.2686C25.9711 22.211 26.0045 22.1601 26.0481 22.1158C26.0917 22.0715 26.1422 22.0373 26.1994 22.0131C26.2566 21.9889 26.3163 21.9766 26.3784 21.9762C26.44 21.9762 26.4993 21.9879 26.5563 22.0112C26.6133 22.0344 26.6637 22.0676 26.7077 22.1107C26.7517 22.1537 26.7859 22.2035 26.8104 22.26C26.8349 22.3165 26.8478 22.3755 26.8491 22.4371ZM26.2593 20.2493C26.2609 20.3112 26.2504 20.371 26.228 20.4287C26.2056 20.4864 26.1729 20.5375 26.13 20.5821C26.087 20.6267 26.0372 20.6613 25.9804 20.6859C25.9236 20.7105 25.8642 20.7232 25.8023 20.724C25.7403 20.725 25.6805 20.7141 25.6228 20.6912C25.5651 20.6684 25.514 20.6354 25.4694 20.5922C25.4249 20.549 25.3903 20.4989 25.3657 20.442C25.3411 20.385 25.3283 20.3256 25.3273 20.2635C25.3264 20.2015 25.3374 20.1416 25.3603 20.084C25.3831 20.0263 25.4162 19.9752 25.4594 19.9307C25.5026 19.8862 25.5527 19.8517 25.6097 19.8271C25.6667 19.8025 25.7262 19.7898 25.7882 19.7889C25.8501 19.7878 25.9098 19.7987 25.9673 19.8215C26.0248 19.8444 26.0757 19.8774 26.12 19.9207C26.1642 19.9639 26.1985 20.014 26.2226 20.071C26.2468 20.128 26.259 20.1874 26.2593 20.2493ZM24.1924 18.1909C24.2543 18.1901 24.3139 18.2012 24.3714 18.2243C24.4288 18.2474 24.4795 18.2807 24.5236 18.3241C24.5677 18.3676 24.6017 18.4178 24.6256 18.4749C24.6495 18.532 24.6615 18.5915 24.6616 18.6534C24.6618 18.7154 24.6502 18.7752 24.6266 18.8326C24.6031 18.89 24.5695 18.9407 24.5258 18.9847C24.4821 19.0287 24.4316 19.0627 24.3744 19.0867C24.3172 19.1106 24.2575 19.1227 24.1955 19.1229C24.1335 19.1231 24.0738 19.1114 24.0164 19.0878C23.959 19.0643 23.9083 19.0306 23.8643 18.9869C23.8203 18.9432 23.7863 18.8927 23.7624 18.8354C23.7385 18.7782 23.7265 18.7186 23.7263 18.6565C23.726 18.5946 23.7375 18.5351 23.7611 18.4778C23.7846 18.4206 23.8183 18.3701 23.8621 18.3263C23.9058 18.2826 23.9564 18.249 24.0136 18.2255C24.0709 18.202 24.1305 18.1905 24.1924 18.1909ZM26.2593 24.6335C26.2598 24.6954 26.2482 24.755 26.2247 24.8122C26.2012 24.8695 26.1675 24.92 26.1237 24.9638C26.08 25.0075 26.0294 25.0412 25.9721 25.0646C25.9148 25.0881 25.8552 25.0996 25.7933 25.0991C25.7313 25.0989 25.6716 25.0868 25.6144 25.0629C25.5571 25.0389 25.5067 25.0049 25.4629 24.9609C25.4192 24.9169 25.3856 24.8661 25.3621 24.8087C25.3386 24.7513 25.327 24.6916 25.3272 24.6295C25.3275 24.5675 25.3396 24.5078 25.3636 24.4506C25.3876 24.3934 25.4217 24.343 25.4658 24.2993C25.5098 24.2556 25.5606 24.2221 25.618 24.1986C25.6755 24.1751 25.7352 24.1636 25.7973 24.1639C25.8592 24.164 25.9187 24.1761 25.9757 24.2C26.0328 24.224 26.083 24.258 26.1264 24.3021C26.1698 24.3463 26.2031 24.397 26.2261 24.4545C26.2492 24.5119 26.2602 24.5716 26.2593 24.6335ZM24.1914 26.6969C24.1295 26.6972 24.0699 26.6855 24.0127 26.6619C23.9555 26.6383 23.905 26.6045 23.8613 26.5607C23.8176 26.5168 23.7841 26.4663 23.7607 26.409C23.7372 26.3517 23.7258 26.2921 23.7263 26.2302C23.7263 26.1679 23.7382 26.108 23.7621 26.0506C23.786 25.9931 23.82 25.9424 23.8641 25.8985C23.9083 25.8546 23.9591 25.8208 24.0167 25.7972C24.0744 25.7736 24.1343 25.762 24.1965 25.7624C24.2588 25.7627 24.3186 25.775 24.3759 25.7992C24.4333 25.8235 24.4838 25.8578 24.5274 25.9021C24.5711 25.9465 24.6045 25.9976 24.6278 26.0554C24.651 26.1131 24.6623 26.1731 24.6616 26.2353C24.6613 26.2972 24.6492 26.3567 24.6252 26.4137C24.6011 26.4707 24.567 26.5209 24.5228 26.5643C24.4787 26.6077 24.4279 26.6408 24.3704 26.6638C24.3129 26.6868 24.2533 26.6978 24.1914 26.6969Z" fill="rgb(52,55,65)" fill-rule="nonzero" />
</svg>
