<svg viewBox="0 0 128 128" xmlns="http://www.w3.org/2000/svg" xmlns:xlink="http://www.w3.org/1999/xlink" width="128" height="128" fill="none">
    <rect id="svg 6" width="128" height="128" x="0" y="0" />
    <path id="矢量 32" d="M102.784 20.544L102.592 20.352C91.52 9.34403 73.6 9.28003 62.528 20.288L3.96796 78.592L3.32796 79.232C1.91996 80.704 1.85596 81.6 1.85596 82.688L1.85596 118.848C1.85596 120.256 2.62396 121.28 4.03196 121.28L40.32 121.28C41.088 121.28 41.856 121.152 42.432 120.64L102.912 60.416C113.92 49.472 113.856 31.552 102.784 20.544L102.784 20.544ZM11.904 110.976C10.56 109.632 9.66396 109.248 7.03996 109.632L7.03996 87.232L19.84 87.68L20.16 99.968L19.968 102.784L20.16 102.784L20.16 102.976L22.976 102.848L35.328 103.168L35.776 116.032L13.12 116.032C13.632 113.536 13.312 112.448 11.904 110.976L11.904 110.976ZM77.056 56.96L35.648 98.24L25.28 97.856L24.896 87.04L66.048 46.016L77.056 56.96ZM42.368 113.408C42.304 113.472 42.24 113.6 42.176 113.664C41.792 114.048 41.408 114.432 40.96 114.816L40.448 101.184L40.448 100.608L80.64 60.672L87.936 67.968L42.368 113.408L42.368 113.408ZM58.752 31.36L62.464 27.712L95.36 60.608L91.648 64.256L58.752 31.36ZM9.34396 80.576L9.53596 80.384L55.04 35.008L62.336 42.24L21.952 82.496L21.888 82.496L7.74396 82.048C8.25596 81.6 8.83196 81.088 9.34396 80.576L9.34396 80.576ZM99.2 56.768L99.0079 56.96L66.048 24.064L66.24 23.872C75.264 14.912 89.92 14.912 98.944 23.936L99.136 24.128C108.16 33.152 108.224 47.808 99.2 56.768L99.2 56.768Z" fill="rgb(0,0,0)" fill-rule="nonzero" />
    <path id="矢量 33" d="M67.3281 113.728C67.3281 114.194 67.3736 114.656 67.4646 115.114C67.5556 115.571 67.6904 116.016 67.8689 116.447C68.0474 116.878 68.2662 117.287 68.5254 117.675C68.7845 118.063 69.079 118.421 69.4088 118.751C69.7387 119.081 70.0975 119.376 70.4854 119.635C70.8732 119.894 71.2826 120.113 71.7135 120.291C72.1445 120.47 72.5887 120.605 73.0462 120.696C73.5037 120.787 73.9657 120.832 74.4321 120.832C74.8986 120.832 75.3606 120.787 75.818 120.696C76.2755 120.605 76.7198 120.47 77.1507 120.291C77.5817 120.113 77.9911 119.894 78.3789 119.635C78.7667 119.376 79.1256 119.081 79.4554 118.751C79.7852 118.421 80.0797 118.063 80.3389 117.675C80.598 117.287 80.8169 116.878 80.9954 116.447C81.1739 116.016 81.3086 115.571 81.3996 115.114C81.4906 114.656 81.5361 114.194 81.5361 113.728C81.5361 113.262 81.4906 112.8 81.3996 112.342C81.3086 111.885 81.1739 111.44 80.9954 111.009C80.8169 110.578 80.598 110.169 80.3389 109.781C80.0797 109.393 79.7852 109.035 79.4554 108.705C79.1256 108.375 78.7667 108.08 78.3789 107.821C77.9911 107.562 77.5817 107.343 77.1507 107.165C76.7198 106.986 76.2755 106.852 75.818 106.761C75.3606 106.67 74.8986 106.624 74.4321 106.624C73.9657 106.624 73.5037 106.67 73.0462 106.761C72.5887 106.852 72.1445 106.986 71.7135 107.165C71.2826 107.343 70.8732 107.562 70.4854 107.821C70.0975 108.08 69.7387 108.375 69.4088 108.705C69.079 109.035 68.7845 109.393 68.5254 109.781C68.2662 110.169 68.0474 110.578 67.8689 111.009C67.6904 111.44 67.5556 111.885 67.4646 112.342C67.3736 112.8 67.3281 113.262 67.3281 113.728Z" fill="rgb(254,201,99)" fill-rule="nonzero" />
    <path id="矢量 34" d="M90.176 113.728C90.176 114.194 90.2215 114.656 90.3125 115.114C90.4035 115.571 90.5383 116.016 90.7168 116.447C90.8953 116.878 91.1141 117.287 91.3733 117.675C91.6324 118.063 91.9269 118.421 92.2567 118.751C92.5866 119.081 92.9454 119.376 93.3333 119.635C93.7211 119.894 94.1305 120.113 94.5614 120.291C94.9924 120.47 95.4366 120.605 95.8941 120.696C96.3516 120.787 96.8136 120.832 97.28 120.832C97.7465 120.832 98.2085 120.787 98.6659 120.696C99.1234 120.605 99.5677 120.47 99.9986 120.291C100.43 120.113 100.839 119.894 101.227 119.635C101.615 119.376 101.973 119.081 102.303 118.751C102.633 118.421 102.928 118.063 103.187 117.675C103.446 117.287 103.665 116.878 103.843 116.447C104.022 116.016 104.157 115.571 104.248 115.114C104.339 114.656 104.384 114.194 104.384 113.728C104.384 113.262 104.339 112.8 104.248 112.342C104.157 111.885 104.022 111.44 103.843 111.009C103.665 110.578 103.446 110.169 103.187 109.781C102.928 109.393 102.633 109.035 102.303 108.705C101.973 108.375 101.615 108.08 101.227 107.821C100.839 107.562 100.43 107.343 99.9986 107.165C99.5677 106.986 99.1234 106.852 98.6659 106.761C98.2085 106.67 97.7465 106.624 97.28 106.624C96.8136 106.624 96.3516 106.67 95.8941 106.761C95.4366 106.852 94.9924 106.986 94.5614 107.165C94.1305 107.343 93.7211 107.562 93.3333 107.821C92.9454 108.08 92.5866 108.375 92.2567 108.705C91.9269 109.035 91.6324 109.393 91.3733 109.781C91.1141 110.169 90.8953 110.578 90.7168 111.009C90.5383 111.44 90.4035 111.885 90.3125 112.342C90.2215 112.8 90.176 113.262 90.176 113.728Z" fill="rgb(254,201,99)" fill-rule="nonzero" />
    <path id="矢量 35" d="M112.96 113.728C112.96 114.195 113.005 114.657 113.095 115.115C113.186 115.573 113.32 116.017 113.499 116.449C113.677 116.88 113.896 117.29 114.155 117.678C114.414 118.066 114.708 118.425 115.038 118.756C115.368 119.086 115.727 119.381 116.115 119.64C116.503 119.9 116.913 120.119 117.344 120.297C117.775 120.476 118.219 120.611 118.677 120.702C119.135 120.793 119.597 120.839 120.064 120.839C120.531 120.839 120.993 120.793 121.451 120.702C121.909 120.611 122.353 120.476 122.784 120.297C123.215 120.119 123.625 119.9 124.013 119.64C124.401 119.381 124.76 119.086 125.09 118.756C125.42 118.425 125.714 118.066 125.973 117.678C126.232 117.29 126.451 116.88 126.629 116.449C126.808 116.017 126.942 115.573 127.033 115.115C127.123 114.657 127.168 114.195 127.168 113.728C127.168 113.261 127.123 112.799 127.033 112.341C126.942 111.883 126.808 111.439 126.629 111.007C126.451 110.576 126.232 110.166 125.973 109.778C125.714 109.39 125.42 109.03 125.09 108.7C124.76 108.37 124.401 108.075 124.013 107.816C123.625 107.556 123.215 107.337 122.784 107.158C122.353 106.98 121.909 106.845 121.451 106.754C120.993 106.662 120.531 106.617 120.064 106.617C119.597 106.617 119.135 106.662 118.677 106.754C118.219 106.845 117.775 106.98 117.344 107.158C116.913 107.337 116.503 107.556 116.115 107.816C115.727 108.075 115.368 108.37 115.038 108.7C114.708 109.03 114.414 109.39 114.155 109.778C113.896 110.166 113.677 110.576 113.499 111.007C113.32 111.439 113.186 111.883 113.095 112.341C113.005 112.799 112.96 113.261 112.96 113.728Z" fill="rgb(254,201,99)" fill-rule="nonzero" />
</svg>
