<svg viewBox="0 0 24 24" xmlns="http://www.w3.org/2000/svg" xmlns:xlink="http://www.w3.org/1999/xlink" width="24.000000" height="24.000000" fill="none">
    <rect id="svg" width="24.000000" height="24.000000" x="0.000000" y="0.000000" />
    <path id="path" d="M16.4391 17.0438C15.5484 17.0438 14.8242 16.3196 14.8242 15.4289C14.8242 14.5383 15.5484 13.8141 16.4391 13.8141C17.3297 13.8141 18.0539 14.5383 18.0539 15.4289C18.0516 16.3196 17.3273 17.0438 16.4391 17.0438Z" fill="rgb(145,156,176)" fill-rule="nonzero" />
    <path id="path" d="M18.0891 15.4289L18.0188 15.1148C17.8805 14.5078 17.4891 14.0742 16.9196 13.8961C16.7531 13.8422 16.5867 13.8141 16.4508 13.8141C15.6774 13.8141 15.0235 14.3484 14.8571 15.1125L14.7891 15.4313L9.20627 15.4313L9.14065 15.1078C9.01877 14.5055 8.55706 14.0203 7.96643 13.868C7.84924 13.8375 7.78362 13.8305 7.63596 13.8188C7.60784 13.8164 7.58206 13.8164 7.55627 13.8164C7.48362 13.8164 7.40159 13.8234 7.31721 13.8375C6.65627 13.9383 6.11018 14.4586 5.98362 15.1055L5.92034 15.4336L4.33362 15.4336L4.33362 12.2016C4.33362 11.1656 5.31331 10.1836 6.35159 10.1836L17.6485 10.1836C18.3211 10.2047 18.9328 10.5656 19.3453 11.1773L19.8891 11.9906L18.9328 11.8031C18.9282 11.8008 18.9 11.8008 18.8391 11.7984C18.4149 11.7984 18.0539 12.1617 18.0539 12.6047C18.0539 13.05 18.4149 13.4109 18.8602 13.4109C18.9469 13.4063 19.0407 13.4016 19.0875 13.3781L19.6664 13.0945L19.6664 15.4266L18.0891 15.4289Z" fill="rgb(255,135,127)" fill-rule="nonzero" />
    <path id="path" d="M7.55396 10.1835L7.56333 9.70776C7.56567 9.56011 7.56567 9.3937 7.61724 9.21792L7.63599 9.14995C7.71567 8.86636 7.80239 8.54292 7.99224 8.25698C8.21724 7.9312 8.45864 7.68979 8.73755 7.50933C9.29536 7.14839 9.98442 6.96089 10.7907 6.95386L13.2141 6.95386L13.6172 6.96792L13.8727 7.00776C14.318 7.07339 14.7376 7.13667 15.2227 7.47183C15.9961 8.0062 16.418 8.80073 16.4415 9.7687L16.4508 10.1812L7.55396 10.1835Z" fill="rgb(169,208,211)" fill-rule="nonzero" />
    <path id="path" d="M7.56089 17.0438C6.67026 17.0438 5.94604 16.3196 5.94604 15.4289C5.94604 14.5383 6.67026 13.8141 7.56089 13.8141C8.45151 13.8141 9.17573 14.5383 9.17573 15.4289C9.17573 16.3196 8.45151 17.0438 7.56089 17.0438Z" fill="rgb(145,156,176)" fill-rule="nonzero" />
    <path id="path" d="M18.8578 13.411C18.4125 13.411 18.0515 13.05 18.0515 12.6047C18.0515 12.1594 18.4125 11.7985 18.8578 11.7985C19.3031 11.7985 19.664 12.1594 19.664 12.6047C19.6664 13.05 19.3031 13.411 18.8578 13.411Z" fill="rgb(254,222,161)" fill-rule="nonzero" />
    <path id="path" d="M18.4125 15.832L19.2632 15.832C19.7085 15.832 20.0695 15.4711 20.0695 15.0258L20.0695 12.2015C20.0695 10.95 18.9023 9.78045 17.6484 9.78045L16.8421 9.78045C16.8421 7.92185 15.471 6.5531 13.2117 6.5531L10.7906 6.5531C8.52886 6.5531 7.16011 7.92185 7.16011 9.78045L6.35151 9.78045C5.09526 9.78045 3.93042 10.9383 3.93042 12.2015L3.93042 15.0258C3.93042 15.4711 4.29136 15.832 4.73667 15.832L5.58511 15.832C5.77495 16.7625 6.60933 17.4422 7.55855 17.4469C8.52886 17.4211 9.33511 16.7953 9.53433 15.832L14.4609 15.832C14.6742 16.7695 15.4687 17.4304 16.4367 17.4469C17.4093 17.4023 18.2062 16.8047 18.4125 15.832ZM19.2632 12.6047C19.2632 12.8273 19.0828 13.0078 18.8601 13.0078C18.6375 13.0078 18.457 12.8273 18.457 12.6047C18.457 12.382 18.6375 12.2015 18.8601 12.2015C19.0804 12.2015 19.2632 12.382 19.2632 12.6047ZM8.00386 9.33045C8.08589 9.03982 8.16089 8.73748 8.3273 8.48435C8.49839 8.23826 8.7023 8.01795 8.95542 7.85154C9.50386 7.49529 10.1437 7.36638 10.7906 7.3617L13.2117 7.3617L13.5773 7.37576C14.114 7.46482 14.5125 7.47654 14.9929 7.80935C15.6796 8.28279 16.0171 8.96716 16.0382 9.78279L12.4031 9.78279L12.4031 8.57341C12.4031 8.35076 12.2226 8.17029 12 8.17029C11.7773 8.17029 11.5968 8.35076 11.5968 8.57341L11.5968 9.78279L7.96636 9.78279C7.9687 9.63045 7.96401 9.47576 8.00386 9.33045ZM7.56089 16.6406C6.89292 16.6406 6.35151 16.0992 6.35151 15.4312C6.35151 14.7633 6.89292 14.2219 7.56089 14.2219C8.22886 14.2219 8.77026 14.7633 8.77026 15.4312C8.77261 16.0969 8.2312 16.6406 7.56089 16.6406ZM16.439 16.6406C15.7687 16.6406 15.2296 16.0992 15.2296 15.4312C15.2296 14.7633 15.771 14.2219 16.439 14.2219C17.107 14.2219 17.6484 14.7633 17.6484 15.4312C17.6484 16.0969 17.107 16.6406 16.439 16.6406ZM17.0414 13.5094C16.8585 13.4508 16.6453 13.4086 16.4507 13.4086C15.4781 13.4086 14.6671 14.0765 14.4632 15.0234L9.53667 15.0234C9.38433 14.2758 8.80776 13.664 8.06714 13.4719C7.91714 13.4344 7.82104 13.4226 7.66636 13.4109C7.53276 13.4015 7.38745 13.4109 7.2562 13.432C6.43589 13.5562 5.74683 14.2054 5.58745 15.0234L4.73901 15.0234L4.73901 12.2015C4.73901 11.3812 5.54526 10.5867 6.35386 10.5867L17.6507 10.5867C18.2156 10.6031 18.7031 10.9406 19.0125 11.4023L19.0148 11.407C18.9445 11.3929 18.996 11.4023 18.8624 11.3953C18.1921 11.3953 17.6531 11.9367 17.6531 12.6047C17.6531 13.2726 18.1945 13.814 18.8624 13.814C18.9984 13.807 19.1414 13.8023 19.2656 13.7414L19.2656 15.0234L18.4148 15.0234C18.246 14.2945 17.7632 13.739 17.0414 13.5094Z" fill="rgb(87,58,50)" fill-rule="nonzero" />
</svg>
