<svg viewBox="0 0 28.3608 28" xmlns="http://www.w3.org/2000/svg" xmlns:xlink="http://www.w3.org/1999/xlink" width="28.360840" height="28.000000" fill="none">
	<rect id="svg" width="28.360826" height="28.000000" x="0.000000" y="0.000000" />
	<path id="path" d="M15.8591 11.9365L24.2209 11.9365L26.7908 15.8542L24.2209 19.499L15.8591 19.499" fill="rgb(92,230,143)" fill-rule="nonzero" />
	<path id="path" d="M24.2209 20.3332L15.8591 20.3332C15.3924 20.3332 15.0142 19.9598 15.0142 19.499C15.0142 19.0381 15.3924 18.6647 15.8591 18.6647L23.7796 18.6647L25.773 15.8374L23.7615 12.7708L15.8591 12.7708C15.3924 12.7708 15.0142 12.3973 15.0142 11.9365C15.0142 11.4758 15.3924 11.1023 15.8591 11.1023L24.2209 11.1023C24.2914 11.1023 24.3609 11.1109 24.4292 11.128C24.4975 11.1452 24.5627 11.1704 24.6246 11.2036C24.6865 11.2369 24.7434 11.2772 24.7951 11.3245C24.8468 11.3718 24.8918 11.4246 24.9302 11.483L27.5001 15.4007C27.5457 15.4703 27.58 15.5449 27.6031 15.6245C27.6262 15.7041 27.6371 15.7853 27.6357 15.8682C27.6343 15.951 27.6207 16.0318 27.5949 16.1106C27.5691 16.1895 27.5322 16.2629 27.4843 16.3309L24.9144 19.9756C24.8354 20.0876 24.7346 20.1752 24.6121 20.2384C24.4896 20.3016 24.3592 20.3332 24.2209 20.3332Z" fill="rgb(110,110,150)" fill-rule="nonzero" />
	<path id="path" d="M12.9312 3.57211L12.9312 1.3092L15.8591 1.3092L15.8591 26.645L12.9312 26.645L12.9312 11.1304" fill="rgb(255,166,7)" fill-rule="nonzero" />
	<path id="path" d="M15.8592 27.4793L12.9312 27.4793C12.8757 27.4793 12.8207 27.474 12.7663 27.4633C12.7119 27.4526 12.6591 27.4368 12.6078 27.4158C12.5565 27.3948 12.5079 27.3691 12.4617 27.3387C12.4156 27.3083 12.3729 27.2737 12.3337 27.235C12.2944 27.1962 12.2594 27.1541 12.2286 27.1085C12.1978 27.063 12.1717 27.0149 12.1505 26.9643C12.1293 26.9137 12.1132 26.8615 12.1024 26.8078C12.0916 26.7541 12.0862 26.6998 12.0862 26.6451L12.0862 11.1304C12.0862 11.0757 12.0917 11.0215 12.1026 10.9678C12.1134 10.9141 12.1295 10.862 12.1507 10.8114C12.172 10.7609 12.198 10.7128 12.2289 10.6673C12.2597 10.6219 12.2947 10.5798 12.334 10.5411C12.3732 10.5024 12.4159 10.4678 12.462 10.4374C12.5081 10.407 12.5568 10.3814 12.608 10.3604C12.6592 10.3395 12.712 10.3237 12.7664 10.313C12.8208 10.3023 12.8757 10.297 12.9312 10.297C12.9866 10.297 13.0415 10.3023 13.0959 10.313C13.1503 10.3237 13.2031 10.3395 13.2543 10.3604C13.3056 10.3814 13.3542 10.407 13.4004 10.4374C13.4465 10.4678 13.4892 10.5024 13.5284 10.5411C13.5676 10.5798 13.6026 10.6219 13.6335 10.6673C13.6643 10.7128 13.6903 10.7609 13.7116 10.8114C13.7329 10.862 13.7489 10.9141 13.7598 10.9678C13.7706 11.0215 13.7761 11.0757 13.7762 11.1304L13.7762 25.8108L15.0142 25.8108L15.0142 2.14345L13.7762 2.14345L13.7762 3.57212C13.7762 3.62689 13.7708 3.68114 13.7599 3.73487C13.7491 3.78859 13.7331 3.84076 13.7118 3.89137C13.6906 3.94197 13.6646 3.99005 13.6338 4.03559C13.6029 4.08114 13.5679 4.12328 13.5287 4.16201C13.4894 4.20075 13.4468 4.23533 13.4006 4.26576C13.3545 4.29619 13.3058 4.32189 13.2545 4.34285C13.2033 4.36381 13.1504 4.37964 13.096 4.39033C13.0416 4.40101 12.9867 4.40636 12.9312 4.40636C12.8757 4.40636 12.8207 4.40101 12.7663 4.39033C12.7119 4.37964 12.6591 4.36382 12.6078 4.34285C12.5565 4.32189 12.5079 4.29619 12.4617 4.26576C12.4156 4.23533 12.3729 4.20075 12.3337 4.16201C12.2944 4.12328 12.2594 4.08114 12.2286 4.03559C12.1978 3.99005 12.1717 3.94197 12.1505 3.89137C12.1293 3.84076 12.1132 3.78859 12.1024 3.73487C12.0916 3.68114 12.0862 3.62689 12.0862 3.57212L12.0862 1.30921C12.0862 1.25444 12.0916 1.20019 12.1024 1.14646C12.1132 1.09274 12.1293 1.04057 12.1505 0.989965C12.1717 0.939358 12.1978 0.891282 12.2286 0.845736C12.2594 0.800191 12.2944 0.758052 12.3337 0.719319C12.3729 0.680585 12.4156 0.646003 12.4617 0.61557C12.5079 0.585138 12.5565 0.55944 12.6078 0.538478C12.6591 0.517516 12.7119 0.501692 12.7663 0.491005C12.8207 0.480319 12.8757 0.474976 12.9312 0.474976L15.8592 0.474976C15.9147 0.474976 15.9697 0.480319 16.0241 0.491005C16.0785 0.501692 16.1313 0.517516 16.1826 0.538478C16.2339 0.55944 16.2825 0.585138 16.3287 0.61557C16.3748 0.646003 16.4175 0.680585 16.4567 0.719319C16.496 0.758052 16.531 0.800191 16.5618 0.845736C16.5926 0.891282 16.6187 0.939358 16.6399 0.989965C16.6611 1.04057 16.6772 1.09274 16.688 1.14646C16.6988 1.20019 16.7042 1.25444 16.7042 1.30921L16.7042 26.6451C16.7042 27.1059 16.326 27.4793 15.8592 27.4793Z" fill="rgb(110,110,150)" fill-rule="nonzero" />
	<path id="path" d="M15.3338 4.40198L4.15521 4.40198L1.58521 8.3179L4.15521 11.9604L15.3338 11.9604" fill="rgb(255,204,113)" fill-rule="nonzero" />
	<path id="path" d="M15.3337 12.7947L4.1551 12.7947C4.01689 12.7947 3.88653 12.7631 3.76401 12.6999C3.6415 12.6368 3.54074 12.5492 3.46175 12.4373L0.891857 8.79476C0.843881 8.72676 0.806988 8.65333 0.781177 8.57448C0.755365 8.49562 0.741757 8.41476 0.740353 8.3319C0.738948 8.24904 0.749808 8.16778 0.772932 8.08812C0.796056 8.00846 0.83044 7.93385 0.876084 7.8643L3.44609 3.94838C3.48443 3.88998 3.52946 3.83713 3.58118 3.78985C3.63291 3.74256 3.68974 3.7023 3.75166 3.66906C3.81359 3.63582 3.87871 3.61062 3.94702 3.59347C4.01533 3.57632 4.08473 3.56775 4.15521 3.56775L15.3339 3.56775C15.8006 3.56775 16.1788 3.94127 16.1788 4.40199C16.1788 4.86271 15.8006 5.23623 15.3339 5.23623L4.61454 5.23623L2.60313 8.30111L4.5964 11.1262L15.3337 11.1262C15.8005 11.1262 16.1787 11.4997 16.1787 11.9604C16.1787 12.4211 15.8005 12.7947 15.3337 12.7947Z" fill="rgb(110,110,150)" fill-rule="nonzero" />
</svg>
