<svg viewBox="0 0 20 20" xmlns="http://www.w3.org/2000/svg" xmlns:xlink="http://www.w3.org/1999/xlink" width="20" height="20" fill="none">
    <rect id="svg 1" width="20" height="20" x="0" y="0" />
    <path id="矢量 20" d="M6.85898 1.15804C7.06056 1.11833 7.26331 1.08598 7.46723 1.06098C7.67115 1.03598 7.87571 1.01839 8.0809 1.00822C8.2861 0.998052 8.49139 0.995326 8.69678 1.00004C8.90218 1.00476 9.10713 1.01691 9.31164 1.03649C9.51616 1.05606 9.71969 1.08302 9.92225 1.11736C10.1248 1.1517 10.3259 1.19332 10.5254 1.24224C10.7249 1.29115 10.9224 1.34723 11.1179 1.41046C11.3134 1.4737 11.5063 1.54393 11.6967 1.62116C11.8871 1.69838 12.0744 1.7824 12.2587 1.87321C12.443 1.96402 12.6237 2.06138 12.801 2.1653C12.9782 2.26922 13.1514 2.37941 13.3207 2.49589C13.4899 2.61237 13.6547 2.73482 13.8151 2.86325C13.9754 2.99168 14.1309 3.12574 14.2816 3.26544C14.4322 3.40515 14.5776 3.55012 14.7177 3.70037C14.8578 3.85061 14.9923 4.00573 15.1212 4.16573C15.2501 4.32573 15.373 4.49018 15.49 4.65909C15.6069 4.828 15.7176 5.00093 15.822 5.17786C15.9264 5.3548 16.0243 5.53528 16.1156 5.71931C16.207 5.90335 16.2915 6.09044 16.3693 6.28061C16.447 6.47077 16.5178 6.6635 16.5816 6.8588C16.6454 7.05409 16.702 7.25144 16.7515 7.45084C16.8009 7.65024 16.8431 7.85117 16.878 8.05363C16.9129 8.25609 16.9405 8.45955 16.9606 8.66401C16.9808 8.86846 16.9935 9.07338 16.9988 9.27876C17.0041 9.48414 17.0019 9.68944 16.9924 9.89467C16.9828 10.0999 16.9658 10.3045 16.9413 10.5085C16.9169 10.7125 16.8851 10.9153 16.846 11.117C16.8068 11.3187 16.7605 11.5187 16.7068 11.717C16.6532 11.9153 16.5924 12.1115 16.5246 12.3054C16.4567 12.4993 16.3819 12.6905 16.3002 12.879C16.2185 13.0675 16.13 13.2528 16.0349 13.4348C15.9397 13.6169 15.8381 13.7953 15.73 13.97C15.5343 13.986 15.3384 13.9955 15.1421 13.9987C14.9458 14.0018 14.7497 13.9985 14.5536 13.9888C14.3576 13.9791 14.162 13.963 13.967 13.9405C13.772 13.9181 13.578 13.8892 13.3848 13.854C13.1917 13.8188 13 13.7774 12.8096 13.7296C12.6192 13.6819 12.4305 13.628 12.2436 13.5679C12.0568 13.5078 11.872 13.4417 11.6895 13.3695C11.507 13.2974 11.327 13.2193 11.1495 13.1354C10.9721 13.0514 10.7976 12.9618 10.626 12.8664C10.4544 12.771 10.2861 12.6702 10.1212 12.5638C9.95618 12.4574 9.79486 12.3458 9.63719 12.2288C9.47952 12.1119 9.32584 11.99 9.17615 11.863C9.02646 11.736 8.88108 11.6042 8.74001 11.4677C8.59894 11.3312 8.46248 11.1903 8.33063 11.0449C8.19879 10.8994 8.07183 10.7498 7.94977 10.5961C7.82771 10.4424 7.71081 10.2848 7.59906 10.1234C7.48731 9.96206 7.38095 9.79719 7.27999 9.62885C7.17903 9.46051 7.08368 9.28905 6.99393 9.11447C6.90419 8.93989 6.82025 8.76256 6.74211 8.58249C6.66397 8.40241 6.59179 8.21998 6.52559 8.03518C6.45939 7.85038 6.3993 7.66362 6.34531 7.47489C6.29133 7.28617 6.24357 7.09588 6.20204 6.90402C6.16051 6.71217 6.12529 6.51916 6.09639 6.32501C6.06748 6.13085 6.04496 5.93596 6.02881 5.74032C6.01266 5.54469 6.00292 5.34874 5.99959 5.15247C5.99626 4.95621 5.99935 4.76004 6.00885 4.56397C6.01836 4.3679 6.03426 4.17236 6.05656 3.97733C6.07886 3.78231 6.10752 3.58822 6.14252 3.39507C6.17752 3.20192 6.21879 3.01011 6.26635 2.81966C6.3139 2.62921 6.36762 2.44052 6.42752 2.25359C6.48742 2.06665 6.55336 1.88187 6.62535 1.69925C6.69733 1.51663 6.77521 1.33656 6.85898 1.15904L6.85898 1.15804Z" fill="rgb(254,201,99)" fill-rule="nonzero" />
    <path id="矢量 21" d="M14.734 14.106C14.8219 14.0072 14.9069 13.9059 14.9891 13.8023C15.0712 13.6987 15.1504 13.5928 15.2265 13.4847C15.3027 13.3766 15.3757 13.2664 15.4456 13.1541C15.5155 13.0419 15.5821 12.9277 15.6456 12.8117C15.709 12.6957 15.7691 12.5779 15.8259 12.4585C15.8826 12.3391 15.936 12.2181 15.9859 12.0956C16.0358 11.9732 16.0822 11.8494 16.1251 11.7243C16.1679 11.5992 16.2073 11.473 16.243 11.3457C16.2787 11.2184 16.3108 11.0902 16.3393 10.961C16.3678 10.8319 16.3926 10.702 16.4137 10.5715C16.4348 10.441 16.4522 10.3099 16.4659 10.1784C16.4796 10.0469 16.4895 9.91505 16.4957 9.78295C16.5019 9.65086 16.5044 9.5187 16.5031 9.38647C16.5019 9.25423 16.4968 9.12214 16.4881 8.99019C16.4793 8.85824 16.4668 8.72665 16.4506 8.59541C16.4344 8.46417 16.4145 8.33349 16.3908 8.20338C16.3672 8.07327 16.3399 7.94393 16.309 7.81536C16.278 7.6868 16.2434 7.55921 16.2053 7.43261C16.1671 7.306 16.1253 7.18058 16.08 7.05634C16.0347 6.9321 15.986 6.80924 15.9337 6.68776C15.8814 6.56629 15.8258 6.44639 15.7667 6.32807C15.7077 6.20975 15.6453 6.09319 15.5797 5.9784C15.514 5.86362 15.4452 5.75078 15.3731 5.63989C15.3011 5.52901 15.2259 5.42025 15.1477 5.31362C15.0695 5.207 14.9883 5.10267 14.9042 5.00064C14.8201 4.89862 14.7331 4.79905 14.6433 4.70195C14.5536 4.60486 14.4611 4.51038 14.366 4.41852C14.2709 4.32666 14.1732 4.23756 14.073 4.15124C13.9729 4.06491 13.8703 3.98149 13.7654 3.90098C13.6605 3.82047 13.5534 3.74299 13.4441 3.66854C13.3348 3.5941 13.2235 3.52281 13.1102 3.45467C12.9968 3.38654 12.8817 3.32167 12.7647 3.26006C12.6476 3.19845 12.529 3.1402 12.4087 3.08532C12.2884 3.03044 12.1666 2.97901 12.0434 2.93102C11.9201 2.88304 11.7956 2.83859 11.6699 2.79766C11.5441 2.75673 11.4173 2.7194 11.2895 2.68566C11.1616 2.65192 11.0329 2.62183 10.9033 2.59538C10.7738 2.56893 10.6436 2.54618 10.5127 2.52711C10.3818 2.50805 10.2505 2.4927 10.1188 2.48108C9.98709 2.46945 9.85514 2.46157 9.72297 2.45742C9.59079 2.45327 9.4586 2.45287 9.32641 2.45622C9.19421 2.45956 9.06221 2.46665 8.93042 2.47747C8.79862 2.4883 8.66724 2.50285 8.53627 2.52112C8.4053 2.53939 8.27495 2.56135 8.14522 2.58701C8.0155 2.61267 7.8866 2.64198 7.75854 2.67495C7.63047 2.70791 7.50344 2.74447 7.37745 2.78464C7.25146 2.8248 7.1267 2.8685 7.00319 2.91573C6.87967 2.96297 6.75759 3.01366 6.63695 3.06781C6.51631 3.12196 6.39729 3.17949 6.27991 3.24038C6.16253 3.30128 6.04696 3.36545 5.93322 3.4329C5.81947 3.50035 5.70773 3.57096 5.59798 3.64474C5.48824 3.71852 5.38067 3.79535 5.27528 3.87522C5.16989 3.9551 5.06684 4.0379 4.96615 4.12361C4.86545 4.20933 4.76726 4.29782 4.67158 4.38911C4.5759 4.48039 4.48287 4.5743 4.39252 4.67086C4.30216 4.76741 4.2146 4.86644 4.12986 4.96796C4.04511 5.06947 3.9633 5.1733 3.88444 5.27945C3.80558 5.38561 3.72979 5.4939 3.65706 5.60435C3.58434 5.7148 3.5148 5.82721 3.44844 5.9416C3.38209 6.05599 3.31903 6.17216 3.25926 6.29012C3.19949 6.40808 3.14311 6.52764 3.09012 6.6488C3.03712 6.76996 2.9876 6.89252 2.94155 7.01648C2.89551 7.14044 2.85301 7.26561 2.81405 7.39198C2.7751 7.51835 2.73975 7.64573 2.70802 7.7741C2.67628 7.90248 2.64821 8.03165 2.62379 8.16161C2.59938 8.29158 2.57866 8.42213 2.56165 8.55327C2.54463 8.68441 2.53135 8.81593 2.52178 8.94782C2.51222 9.07972 2.5064 9.21177 2.50432 9.344C2.50225 9.47622 2.50391 9.6084 2.50933 9.74052C2.51474 9.87265 2.52389 10.0045 2.53678 10.1361C2.54966 10.2677 2.56627 10.3989 2.58659 10.5295C2.6069 10.6602 2.63091 10.7902 2.65859 10.9195C2.68628 11.0488 2.7176 11.1772 2.75257 11.3048C2.78753 11.4323 2.82608 11.5588 2.86821 11.6841C2.91034 11.8095 2.95598 11.9335 3.00515 12.0563C3.05431 12.179 3.1069 12.3003 3.16294 12.4201C3.21897 12.5399 3.27835 12.658 3.34108 12.7744C3.4038 12.8908 3.46978 13.0053 3.539 13.118C3.60821 13.2307 3.68057 13.3413 3.75606 13.4499C3.83154 13.5585 3.91005 13.6648 3.99156 13.7689C4.07308 13.8731 4.15748 13.9748 4.24476 14.0742C4.33204 14.1735 4.42206 14.2703 4.51483 14.3645C4.6076 14.4588 4.70296 14.5503 4.80091 14.6392C4.89887 14.728 4.99926 14.814 5.10209 14.8971C5.20492 14.9803 5.31002 15.0604 5.41739 15.1376C5.52476 15.2148 5.63423 15.2889 5.7458 15.3599C5.85737 15.4309 5.97087 15.4987 6.08628 15.5632C6.20169 15.6278 6.31884 15.689 6.43772 15.7469C6.5566 15.8048 6.67703 15.8593 6.799 15.9104C6.92097 15.9615 7.04429 16.0091 7.16896 16.0532C7.29363 16.0973 7.41944 16.1379 7.54641 16.1748C7.67338 16.2118 7.80129 16.2452 7.93014 16.2749C8.059 16.3046 8.18859 16.3306 8.31892 16.353C8.44926 16.3754 8.58012 16.3941 8.71151 16.409C8.8429 16.424 8.97461 16.4352 9.10663 16.4427C9.23866 16.4502 9.37079 16.454 9.50303 16.454C9.56869 16.454 9.63372 16.4604 9.69812 16.4732C9.76252 16.486 9.82505 16.505 9.88572 16.5301C9.94638 16.5552 10.004 16.586 10.0586 16.6225C10.1132 16.659 10.1637 16.7004 10.2101 16.7469C10.2566 16.7933 10.298 16.8438 10.3345 16.8984C10.371 16.953 10.4018 17.0106 10.4269 17.0713C10.452 17.132 10.471 17.1945 10.4838 17.2589C10.4966 17.3233 10.503 17.3883 10.503 17.454C10.503 17.5196 10.4966 17.5847 10.4838 17.6491C10.471 17.7135 10.452 17.776 10.4269 17.8367C10.4018 17.8973 10.371 17.955 10.3345 18.0095C10.298 18.0641 10.2566 18.1147 10.2101 18.1611C10.1637 18.2075 10.1132 18.249 10.0586 18.2854C10.004 18.3219 9.94638 18.3527 9.88572 18.3779C9.82505 18.403 9.76252 18.422 9.69812 18.4348C9.63372 18.4476 9.56869 18.454 9.50303 18.454C9.33523 18.454 9.16755 18.4493 9.00001 18.4399C8.83246 18.4305 8.66531 18.4164 8.49856 18.3977C8.3318 18.379 8.1657 18.3556 8.00025 18.3276C7.8348 18.2995 7.67026 18.2669 7.50664 18.2297C7.34301 18.1924 7.18056 18.1507 7.01927 18.1044C6.85798 18.058 6.69811 18.0072 6.53967 17.952C6.38122 17.8967 6.22444 17.8371 6.06933 17.7731C5.91422 17.709 5.76102 17.6407 5.60973 17.5681C5.45844 17.4955 5.3093 17.4187 5.1623 17.3378C5.01531 17.2569 4.87069 17.1719 4.72845 17.0828C4.58621 16.9938 4.44656 16.9009 4.30952 16.804C4.17248 16.7072 4.03825 16.6066 3.90683 16.5023C3.77542 16.3979 3.64702 16.29 3.52164 16.1784C3.39626 16.0669 3.2741 15.952 3.15515 15.8336C3.0362 15.7152 2.92065 15.5936 2.8085 15.4688C2.69636 15.344 2.58779 15.2161 2.48279 15.0852C2.37779 14.9543 2.27654 14.8206 2.17902 14.684C2.08151 14.5474 1.98789 14.4083 1.89816 14.2665C1.80843 14.1247 1.72273 13.9805 1.64107 13.8339C1.5594 13.6873 1.4819 13.5385 1.40856 13.3876C1.33522 13.2367 1.26615 13.0838 1.20136 12.929C1.13656 12.7742 1.07615 12.6177 1.02011 12.4596C0.964069 12.3014 0.912494 12.1418 0.865383 11.9807C0.818272 11.8196 0.775698 11.6574 0.737662 11.494C0.699626 11.3305 0.666188 11.1661 0.637346 11.0008C0.608505 10.8355 0.584306 10.6695 0.564749 10.5029C0.545192 10.3362 0.530308 10.1691 0.520097 10.0016C0.509885 9.83415 0.504363 9.6665 0.503529 9.49869C0.502696 9.33089 0.506552 9.16319 0.515099 8.9956C0.523645 8.82801 0.536868 8.66079 0.554768 8.49395C0.572668 8.3271 0.595217 8.16088 0.622414 7.99529C0.649612 7.8297 0.681416 7.665 0.717826 7.50119C0.754236 7.33739 0.795195 7.17472 0.840703 7.01321C0.886212 6.85169 0.936199 6.69157 0.990664 6.53285C1.04513 6.37413 1.10399 6.21705 1.16724 6.06162C1.23049 5.90619 1.29803 5.75265 1.36987 5.601C1.44171 5.44935 1.51773 5.29982 1.59794 5.15242C1.67814 5.00502 1.7624 4.85998 1.85072 4.7173C1.93903 4.57461 2.03127 4.4345 2.12742 4.29698C2.22357 4.15945 2.32349 4.02472 2.42718 3.89278C2.53087 3.76084 2.63817 3.63191 2.74907 3.50597C2.85997 3.38004 2.97431 3.2573 3.09207 3.13776C3.20984 3.01822 3.33086 2.90206 3.45512 2.78929C3.57938 2.67652 3.7067 2.56731 3.83708 2.46166C3.96745 2.35601 4.10067 2.25408 4.23675 2.15589C4.37282 2.05769 4.51153 1.96337 4.65288 1.87293C4.79423 1.78249 4.938 1.69607 5.08418 1.61368C5.23037 1.53128 5.37874 1.45303 5.5293 1.37893C5.67986 1.30483 5.83237 1.235 5.98684 1.16943C6.14131 1.10387 6.29748 1.04267 6.45538 0.985837C6.61327 0.929005 6.77262 0.876631 6.93344 0.828713C7.09426 0.780796 7.25629 0.73741 7.41954 0.698555C7.58278 0.659701 7.74699 0.625439 7.91215 0.59577C8.07731 0.5661 8.24318 0.54107 8.40974 0.520678C8.5763 0.500286 8.7433 0.484565 8.91075 0.473514C9.07819 0.462464 9.24581 0.456101 9.41361 0.454427C9.58141 0.452752 9.74912 0.455768 9.91675 0.463475C10.0844 0.471182 10.2517 0.483567 10.4186 0.50063C10.5855 0.517694 10.7519 0.53941 10.9176 0.565777C11.0833 0.592144 11.2482 0.623122 11.4122 0.658711C11.5761 0.6943 11.739 0.734443 11.9008 0.779142C12.0625 0.82384 12.2229 0.873024 12.3819 0.926693C12.5408 0.980362 12.6982 1.03843 12.854 1.1009C13.0097 1.16338 13.1636 1.23015 13.3156 1.30123C13.4676 1.37231 13.6175 1.44758 13.7653 1.52704C13.9131 1.60651 14.0586 1.69004 14.2017 1.77764C14.3448 1.86524 14.4854 1.95677 14.6234 2.05223C14.7614 2.14769 14.8966 2.24694 15.0291 2.34997C15.1615 2.45299 15.291 2.55964 15.4175 2.66991C15.544 2.78018 15.6673 2.8939 15.7874 3.01106C15.9076 3.12823 16.0243 3.24866 16.1377 3.37236C16.2511 3.49606 16.361 3.62283 16.4673 3.75267C16.5736 3.88251 16.6762 4.01522 16.775 4.1508C16.8739 4.28638 16.9689 4.42462 17.0601 4.56551C17.1512 4.70641 17.2384 4.84974 17.3215 4.99551C17.4046 5.14128 17.4836 5.28926 17.5585 5.43944C17.6333 5.58963 17.7039 5.74179 17.7702 5.89593C17.8366 6.05006 17.8986 6.20593 17.9562 6.36354C18.0138 6.52114 18.067 6.68023 18.1157 6.84081C18.1644 7.00139 18.2086 7.1632 18.2483 7.32625C18.288 7.4893 18.323 7.65333 18.3535 7.81834C18.384 7.98335 18.4099 8.14909 18.4311 8.31555C18.4524 8.48201 18.4689 8.64893 18.4808 8.81631C18.4927 8.9837 18.4999 9.15128 18.5024 9.31907C18.5049 9.48686 18.5027 9.65458 18.4959 9.82225C18.489 9.98992 18.4775 10.1573 18.4612 10.3243C18.445 10.4913 18.4241 10.6577 18.3986 10.8236C18.3731 10.9894 18.3429 11.1544 18.3081 11.3186C18.2734 11.4828 18.234 11.6458 18.1902 11.8078C18.1463 11.9698 18.0979 12.1304 18.045 12.2896C17.9921 12.4489 17.9349 12.6066 17.8732 12.7626C17.8115 12.9187 17.7455 13.0729 17.6752 13.2253C17.6049 13.3776 17.5303 13.5279 17.4516 13.6761C17.3729 13.8243 17.2901 13.9702 17.2032 14.1137C17.1163 14.2573 17.0255 14.3983 16.9307 14.5368C16.836 14.6753 16.7374 14.811 16.635 14.944L18.957 17.312C19.421 17.785 19.417 18.543 18.949 19.012L18.941 19.02C18.8852 19.0758 18.8244 19.1257 18.7586 19.1695C18.6929 19.2133 18.6235 19.2502 18.5504 19.2803C18.4773 19.3103 18.402 19.3329 18.3245 19.348C18.2469 19.3631 18.1687 19.3704 18.0897 19.37C18.0106 19.3696 17.9325 19.3614 17.8551 19.3455C17.7777 19.3296 17.7026 19.3062 17.6299 19.2754C17.5571 19.2446 17.4881 19.2069 17.4228 19.1624C17.3576 19.1179 17.2973 19.0674 17.242 19.011L14.351 16.063C14.2958 16.0068 14.2466 15.9457 14.2034 15.8798C14.1602 15.814 14.1237 15.7446 14.0941 15.6716C14.0645 15.5986 14.0422 15.5234 14.0273 15.446C14.0124 15.3687 14.0051 15.2906 14.0055 15.2118C14.0058 15.133 14.0138 15.0551 14.0295 14.9778C14.0451 14.9006 14.0681 14.8257 14.0984 14.753C14.1288 14.6802 14.1658 14.6112 14.2097 14.5457C14.2535 14.4803 14.3033 14.4197 14.359 14.364L14.367 14.356C14.477 14.247 14.601 14.164 14.734 14.106L14.734 14.106ZM5.59403 6.98498L13.594 6.98498C13.6597 6.98493 13.7248 6.9913 13.7892 7.00407C13.8537 7.01685 13.9162 7.03579 13.9769 7.0609C14.0376 7.08601 14.0953 7.11679 14.1499 7.15327C14.2046 7.18974 14.2551 7.23119 14.3016 7.27763C14.3481 7.32406 14.3895 7.37458 14.426 7.42919C14.4626 7.4838 14.4934 7.54145 14.5185 7.60213C14.5437 7.66282 14.5627 7.72537 14.5755 7.7898C14.5883 7.85423 14.5947 7.91929 14.5947 7.98498C14.5947 8.05067 14.5883 8.11572 14.5755 8.18015C14.5627 8.24458 14.5437 8.30713 14.5185 8.36782C14.4934 8.4285 14.4626 8.48615 14.426 8.54076C14.3895 8.59537 14.3481 8.64589 14.3016 8.69233C14.2551 8.73876 14.2046 8.78021 14.1499 8.81669C14.0953 8.85316 14.0376 8.88395 13.9769 8.90905C13.9162 8.93416 13.8537 8.9531 13.7892 8.96588C13.7248 8.97866 13.6597 8.98502 13.594 8.98498L5.59403 8.98498C5.52834 8.98502 5.46328 8.97866 5.39884 8.96588C5.33441 8.9531 5.27184 8.93416 5.21114 8.90905C5.15043 8.88395 5.09277 8.85316 5.03813 8.81668C4.9835 8.78021 4.93295 8.73876 4.88648 8.69233C4.84001 8.64589 4.79853 8.59537 4.76202 8.54076C4.72551 8.48615 4.69468 8.4285 4.66953 8.36782C4.64438 8.30713 4.6254 8.24458 4.61257 8.18015C4.59975 8.11572 4.59334 8.05067 4.59334 7.98498C4.59334 7.91929 4.59975 7.85423 4.61257 7.7898C4.6254 7.72537 4.64438 7.66282 4.66953 7.60213C4.69468 7.54145 4.72551 7.4838 4.76202 7.42919C4.79853 7.37458 4.84001 7.32406 4.88648 7.27763C4.93295 7.23119 4.9835 7.18974 5.03813 7.15327C5.09277 7.11679 5.15043 7.08601 5.21114 7.0609C5.27184 7.03579 5.33441 7.01685 5.39884 7.00407C5.46328 6.9913 5.52834 6.98493 5.59403 6.98498ZM5.59403 10.985L10.594 10.985C10.6597 10.985 10.7247 10.9914 10.7891 11.0042C10.8535 11.017 10.9161 11.036 10.9767 11.0611C11.0374 11.0862 11.095 11.117 11.1496 11.1535C11.2042 11.19 11.2547 11.2314 11.3011 11.2779C11.3476 11.3243 11.389 11.3748 11.4255 11.4294C11.462 11.484 11.4928 11.5416 11.5179 11.6023C11.543 11.663 11.562 11.7255 11.5748 11.7899C11.5876 11.8543 11.594 11.9193 11.594 11.985C11.594 12.0506 11.5876 12.1157 11.5748 12.1801C11.562 12.2445 11.543 12.307 11.5179 12.3677C11.4928 12.4283 11.462 12.4859 11.4255 12.5405C11.389 12.5951 11.3476 12.6457 11.3011 12.6921C11.2547 12.7385 11.2042 12.78 11.1496 12.8164C11.095 12.8529 11.0374 12.8837 10.9767 12.9089C10.9161 12.934 10.8535 12.953 10.7891 12.9658C10.7247 12.9786 10.6597 12.985 10.594 12.985L5.59403 12.985C5.52837 12.985 5.46334 12.9786 5.39894 12.9658C5.33454 12.953 5.27201 12.934 5.21135 12.9089C5.15069 12.8837 5.09306 12.8529 5.03846 12.8164C4.98387 12.78 4.93336 12.7385 4.88693 12.6921C4.8405 12.6457 4.79904 12.5951 4.76256 12.5405C4.72608 12.486 4.69528 12.4283 4.67015 12.3677C4.64503 12.307 4.62606 12.2445 4.61325 12.1801C4.60044 12.1157 4.59403 12.0506 4.59403 11.985C4.59403 11.9193 4.60044 11.8543 4.61325 11.7899C4.62606 11.7255 4.64503 11.663 4.67015 11.6023C4.69528 11.5416 4.72608 11.484 4.76256 11.4294C4.79904 11.3748 4.8405 11.3243 4.88693 11.2779C4.93336 11.2314 4.98387 11.19 5.03846 11.1535C5.09306 11.117 5.15069 11.0862 5.21135 11.0611C5.27201 11.036 5.33454 11.017 5.39894 11.0042C5.46334 10.9914 5.52837 10.985 5.59403 10.985L5.59403 10.985Z" fill="rgb(44,44,44)" fill-opacity="0.5" fill-rule="nonzero" />
</svg>
