<svg viewBox="0 0 28 28" xmlns="http://www.w3.org/2000/svg" xmlns:xlink="http://www.w3.org/1999/xlink" width="28" height="28" fill="none">
    <rect id="svg" width="28" height="28" x="0" y="0" />
    <path id="path" d="M8.41357 14.6891C8.41357 14.8121 8.41665 14.9351 8.42279 15.0581C8.42893 15.181 8.43814 15.3037 8.45041 15.4261C8.46269 15.5486 8.47801 15.6707 8.49638 15.7924C8.51475 15.9142 8.53615 16.0354 8.56058 16.1561C8.58501 16.2768 8.61244 16.3968 8.64286 16.5162C8.67328 16.6356 8.70667 16.7541 8.74301 16.8719C8.77936 16.9897 8.81863 17.1065 8.86081 17.2223C8.90299 17.3382 8.94804 17.453 8.99596 17.5667C9.04387 17.6804 9.0946 17.7929 9.14813 17.9041C9.20167 18.0153 9.25795 18.1252 9.31697 18.2338C9.37599 18.3423 9.43769 18.4493 9.50206 18.5549C9.56643 18.6604 9.6334 18.7644 9.70296 18.8667C9.77253 18.969 9.8446 19.0696 9.91919 19.1685C9.99378 19.2673 10.0708 19.3643 10.1502 19.4594C10.2297 19.5546 10.3114 19.6477 10.3955 19.7389C10.4796 19.8301 10.5659 19.9192 10.6544 20.0062C10.743 20.0932 10.8336 20.178 10.9264 20.2607C11.0192 20.3433 11.114 20.4237 11.2108 20.5018C11.3075 20.5798 11.4062 20.6555 11.5068 20.7288C11.6074 20.8021 11.7097 20.873 11.8138 20.9413C11.9179 21.0097 12.0237 21.0755 12.1311 21.1388C12.2385 21.2021 12.3474 21.2627 12.4578 21.3207C12.5682 21.3787 12.68 21.434 12.7932 21.4867C12.9064 21.5393 13.0208 21.5891 13.1365 21.6362C13.2522 21.6833 13.369 21.7276 13.4869 21.7691C13.6048 21.8105 13.7236 21.8491 13.8435 21.8848C13.9633 21.9206 14.0839 21.9534 14.2054 21.9833C14.3268 22.0132 14.449 22.0401 14.5718 22.0641C14.6946 22.0881 14.8179 22.1092 14.9418 22.1272C15.0656 22.1453 15.1898 22.1603 15.3144 22.1724C15.4391 22.1845 15.5639 22.1935 15.6889 22.1996C15.814 22.2056 15.9391 22.2086 16.0644 22.2086C16.1896 22.2086 16.3147 22.2056 16.4398 22.1996C16.5648 22.1935 16.6897 22.1845 16.8143 22.1724C16.9389 22.1603 17.0631 22.1453 17.187 22.1272C17.3108 22.1092 17.4341 22.0881 17.5569 22.0641C17.6798 22.0401 17.8019 22.0132 17.9233 21.9833C18.0448 21.9534 18.1654 21.9206 18.2853 21.8848C18.4051 21.8491 18.5239 21.8105 18.6418 21.7691C18.7597 21.7276 18.8765 21.6833 18.9922 21.6362C19.1079 21.5891 19.2223 21.5393 19.3355 21.4867C19.4487 21.434 19.5605 21.3787 19.6709 21.3207C19.7813 21.2627 19.8902 21.2021 19.9976 21.1388C20.105 21.0755 20.2108 21.0097 20.3149 20.9413C20.419 20.873 20.5213 20.8021 20.6219 20.7288C20.7225 20.6555 20.8212 20.5798 20.918 20.5018C21.0147 20.4237 21.1095 20.3433 21.2023 20.2607C21.2951 20.178 21.3857 20.0932 21.4743 20.0062C21.5628 19.9192 21.6491 19.8301 21.7332 19.7389C21.8173 19.6477 21.8991 19.5546 21.9785 19.4594C22.0579 19.3643 22.1349 19.2673 22.2095 19.1685C22.2841 19.0696 22.3562 18.969 22.4257 18.8667C22.4953 18.7644 22.5623 18.6604 22.6266 18.5549C22.691 18.4493 22.7527 18.3423 22.8117 18.2338C22.8708 18.1252 22.927 18.0153 22.9806 17.9041C23.0341 17.7929 23.0848 17.6804 23.1328 17.5667C23.1807 17.453 23.2257 17.3382 23.2679 17.2223C23.3101 17.1065 23.3493 16.9897 23.3857 16.8719C23.422 16.7541 23.4554 16.6356 23.4858 16.5162C23.5163 16.3968 23.5437 16.2768 23.5681 16.1561C23.5926 16.0354 23.614 15.9142 23.6323 15.7924C23.6507 15.6707 23.666 15.5486 23.6783 15.4261C23.6906 15.3037 23.6998 15.181 23.7059 15.0581C23.7121 14.9351 23.7151 14.8121 23.7151 14.6891C23.7151 14.566 23.7121 14.443 23.7059 14.3201C23.6998 14.1972 23.6906 14.0745 23.6783 13.952C23.666 13.8296 23.6507 13.7075 23.6323 13.5857C23.614 13.464 23.5926 13.3428 23.5681 13.2221C23.5437 13.1014 23.5163 12.9814 23.4858 12.862C23.4554 12.7426 23.422 12.624 23.3857 12.5063C23.3493 12.3885 23.3101 12.2717 23.2679 12.1558C23.2257 12.04 23.1807 11.9252 23.1328 11.8115C23.0848 11.6978 23.0341 11.5853 22.9806 11.4741C22.927 11.3628 22.8708 11.2529 22.8117 11.1444C22.7527 11.0359 22.691 10.9288 22.6266 10.8233C22.5623 10.7177 22.4953 10.6138 22.4257 10.5115C22.3562 10.4091 22.2841 10.3086 22.2095 10.2097C22.1349 10.1109 22.0579 10.0139 21.9785 9.91875C21.8991 9.82362 21.8173 9.73046 21.7332 9.63928C21.6491 9.54809 21.5628 9.45899 21.4743 9.37197C21.3857 9.28496 21.2951 9.20012 21.2023 9.11748C21.1095 9.03484 21.0147 8.95448 20.918 8.87641C20.8212 8.79834 20.7225 8.72265 20.6219 8.64934C20.5213 8.57603 20.419 8.50519 20.3149 8.43682C20.2108 8.36845 20.105 8.30264 19.9976 8.23937C19.8902 8.1761 19.7813 8.11546 19.6709 8.05745C19.5605 7.99944 19.4487 7.94413 19.3355 7.89151C19.2223 7.83889 19.1079 7.78904 18.9922 7.74195C18.8765 7.69485 18.7597 7.65058 18.6418 7.60912C18.5239 7.56766 18.4051 7.52907 18.2853 7.49334C18.1654 7.45762 18.0448 7.42481 17.9233 7.39491C17.8019 7.365 17.6798 7.33805 17.5569 7.31404C17.4341 7.29003 17.3108 7.269 17.187 7.25094C17.0631 7.23289 16.9389 7.21783 16.8143 7.20576C16.6897 7.1937 16.5648 7.18465 16.4398 7.17861C16.3147 7.17257 16.1896 7.16956 16.0644 7.16956C15.9391 7.16956 15.814 7.17257 15.6889 7.17861C15.5639 7.18465 15.4391 7.1937 15.3144 7.20576C15.1898 7.21783 15.0656 7.23289 14.9418 7.25094C14.8179 7.269 14.6946 7.29003 14.5718 7.31404C14.449 7.33805 14.3268 7.365 14.2054 7.39491C14.0839 7.42481 13.9633 7.45762 13.8435 7.49334C13.7236 7.52907 13.6048 7.56766 13.4869 7.60912C13.369 7.65058 13.2522 7.69485 13.1365 7.74195C13.0208 7.78904 12.9064 7.83889 12.7932 7.89151C12.68 7.94413 12.5682 7.99944 12.4578 8.05745C12.3474 8.11546 12.2385 8.1761 12.1311 8.23937C12.0237 8.30264 11.9179 8.36845 11.8138 8.43682C11.7097 8.50519 11.6074 8.57603 11.5068 8.64934C11.4062 8.72265 11.3075 8.79834 11.2108 8.87641C11.114 8.95448 11.0192 9.03484 10.9264 9.11748C10.8336 9.20012 10.743 9.28496 10.6544 9.37197C10.5659 9.45899 10.4796 9.54809 10.3955 9.63928C10.3114 9.73046 10.2297 9.82362 10.1502 9.91875C10.0708 10.0139 9.99378 10.1109 9.91919 10.2097C9.8446 10.3086 9.77253 10.4091 9.70296 10.5115C9.6334 10.6138 9.56643 10.7177 9.50206 10.8233C9.43769 10.9288 9.37599 11.0359 9.31697 11.1444C9.25795 11.2529 9.20167 11.3628 9.14813 11.4741C9.0946 11.5853 9.04387 11.6978 8.99596 11.8115C8.94804 11.9252 8.90299 12.04 8.86081 12.1558C8.81863 12.2717 8.77936 12.3885 8.74301 12.5063C8.70667 12.624 8.67328 12.7426 8.64286 12.862C8.61244 12.9814 8.58501 13.1014 8.56058 13.2221C8.53615 13.3428 8.51475 13.464 8.49638 13.5857C8.47801 13.7075 8.46269 13.8296 8.45041 13.952C8.43814 14.0745 8.42893 14.1972 8.42279 14.3201C8.41665 14.443 8.41357 14.566 8.41357 14.6891Z" fill="rgb(246,187,66)" fill-rule="nonzero" />
    <path id="path" d="M24.1828 14.402C23.9859 15.5887 23.0863 16.2915 21.782 16.3762C21.6617 15.8458 21.5769 15.4383 22.2878 15.2606C22.9168 15.102 23.2777 14.3774 23.1902 13.754C23.0945 13.0704 22.5777 12.5536 21.8996 12.4797C21.6644 12.4551 21.4265 12.4551 21.2078 12.4469C20.7949 11.4571 20.3902 10.4836 19.9718 9.47466C20.8851 8.2606 20.9781 7.60982 20.2945 6.95631C19.6246 6.31646 18.8644 6.44224 17.85 7.33638C16.8546 6.92349 15.8785 6.51607 14.8613 6.09498C14.8531 5.91724 14.8503 5.67935 14.8285 5.4442C14.7546 4.6649 14.1203 4.08795 13.3574 4.09615C12.6246 4.10162 11.9273 4.67584 11.9464 5.41959C11.9656 6.08404 11.6976 6.31373 11.1125 6.42857C10.7296 6.5024 10.3632 6.6774 10.005 6.84146C9.64683 7.00279 9.30777 7.20513 8.96871 7.3856C7.8148 6.4313 7.09019 6.32193 6.42847 6.98365C5.76402 7.64537 5.87613 8.36724 6.75933 9.43912C6.40113 10.3797 6.04019 11.2739 5.723 12.1817C5.57261 12.6137 5.24722 12.4387 4.98472 12.4633C4.28199 12.5262 3.77886 12.9118 3.60113 13.5626C3.4398 14.1559 3.65035 14.7848 4.17808 15.1184C4.4023 15.2606 4.68394 15.3262 4.94918 15.3809C5.15699 15.4219 5.37847 15.3891 5.5316 15.3891C5.95543 16.4118 6.35465 17.3743 6.69644 18.2001C6.45035 18.8426 6.15777 19.4086 6.03746 20.0102C5.98551 20.2672 6.23433 20.6501 6.45035 20.8797C7.07379 21.5442 7.74371 21.4211 8.89215 20.5461C9.82183 20.9016 10.6941 21.2626 11.5855 21.5633C11.9738 21.6946 11.8918 21.9571 11.9027 22.2196C11.9546 23.3489 12.9035 24.0407 13.8906 23.6497C14.5277 23.3981 14.864 22.8977 14.823 22.2141C14.7957 21.7657 14.9625 21.5961 15.389 21.5086C15.8101 21.4239 16.2148 21.2434 16.6113 21.0684C17.0078 20.8961 17.3824 20.6774 17.7652 20.4833C18.9218 21.3856 19.507 21.5114 20.166 21.0055C20.8386 20.4887 20.8414 19.9665 20.1878 18.4899C21.0164 18.0223 21.2324 18.0961 21.5632 18.9629C21.9351 19.9336 21.6535 21.0329 20.8578 21.7137C20.1031 22.359 18.9464 22.5012 18.0878 21.9735C17.716 21.7438 17.4261 21.7001 17.0789 21.9461C16.9832 22.0145 16.8683 22.0665 16.7562 22.0938C16.1492 22.2442 15.7691 22.534 15.6023 23.2204C15.3918 24.0762 14.6644 24.604 13.8414 24.7461C13.5296 24.8008 13.2043 24.8008 12.8898 24.7461C12.1324 24.6122 11.3996 24.1555 11.2054 23.3817C10.9894 22.5149 10.4398 22.1895 9.70152 21.979C9.66324 21.968 9.63042 21.9461 9.59761 21.9243C9.29136 21.7219 9.03707 21.7274 8.69527 21.9434C7.823 22.5012 6.64722 22.3754 5.87613 21.7192C5.08043 21.0411 4.70035 19.8899 5.198 18.9903C5.57261 18.3149 5.48785 17.8036 5.16519 17.2157C5.07222 17.0434 5.04214 16.8356 4.94644 16.6661C4.87808 16.5458 4.75777 16.3899 4.64019 16.3708C3.51363 16.1684 2.7316 15.4766 2.5566 14.4129C2.50465 14.1012 2.50191 13.7758 2.5566 13.4614C2.69058 12.704 3.14722 11.9711 3.92105 11.7797C4.79058 11.5637 5.10777 11.0114 5.32652 10.2758C5.35386 10.1829 5.44136 10.0981 5.44683 10.0079C5.4523 9.79732 5.49332 9.54849 5.40035 9.3817C4.80425 8.32076 4.90816 7.13131 5.7066 6.31646C6.52144 5.48248 7.73003 5.36216 8.81285 5.9692C8.97964 6.06216 9.24488 6.06763 9.43628 6.01021C9.83003 5.89263 10.2128 5.72037 10.5847 5.5399C10.7242 5.47154 10.9074 5.34029 10.932 5.20904C11.1398 4.08521 11.8289 3.30045 12.8925 3.12545C13.2043 3.07349 13.5296 3.07076 13.8441 3.12545C14.6015 3.25943 15.3343 3.71607 15.5257 4.4899C15.7445 5.3567 16.2886 5.68209 17.0296 5.89263C17.0679 5.90357 17.1007 5.92545 17.1336 5.94732C17.4398 6.1524 17.6941 6.14693 18.0359 5.92818C18.9109 5.37037 20.0839 5.49615 20.855 6.1524C21.648 6.82779 22.0363 7.98716 21.5332 8.88131C21.1367 9.58404 21.2679 10.109 21.5851 10.7133C21.6671 10.8692 21.6945 11.0551 21.7847 11.2055C21.8558 11.3258 21.9734 11.479 22.0937 11.5008C23.2175 11.7032 24.0023 12.395 24.1773 13.4586C24.2347 13.7649 24.2347 14.0903 24.1828 14.402Z" fill="rgb(0,0,0)" fill-rule="nonzero" />
    <path id="path" d="M13.393 18.3012L13.393 17.4016C14.3801 17.2977 15.2879 16.9641 15.7719 16.0754C16.0781 15.5122 16.3078 14.8122 16.286 14.1833C16.234 12.6629 14.9461 11.5118 13.4395 11.4653C11.8781 11.4133 10.7434 12.4852 10.3824 14.3747L9.52932 14.3747C9.2176 12.6766 10.9403 10.7352 12.9664 10.5028C15.1703 10.2512 17.2293 12.0286 17.2977 14.2407C17.366 16.4965 15.5586 18.4024 13.393 18.3012ZM11.8344 16.9805C11.6703 17.2485 11.5172 17.4946 11.3149 17.8255C10.8965 17.4372 10.5274 17.0954 10.109 16.7044C10.4125 16.4883 10.6504 16.3215 10.9074 16.1383C11.2082 16.4118 11.4953 16.6743 11.8344 16.9805Z" fill="rgb(0,0,0)" fill-rule="nonzero" />
</svg>
