<svg viewBox="0 0 32 32" xmlns="http://www.w3.org/2000/svg" xmlns:xlink="http://www.w3.org/1999/xlink" width="32.000000" height="32.000000" fill="none">
	<rect id="svg" width="32.000000" height="32.000000" x="0.000000" y="0.000000" />
	<path id="path" d="M22.4107 26.8747L10.2827 26.8747C8.42134 26.8747 6.90134 25.3547 6.90134 23.4933L6.90134 10.5547C6.90134 8.69334 8.42134 7.17334 10.2827 7.17334L22.4107 7.17334C24.272 7.17334 25.792 8.69334 25.792 10.5547L25.792 23.488C25.7973 25.3493 24.272 26.8747 22.4107 26.8747Z" fill="rgb(238,152,188)" fill-rule="nonzero" />
	<path id="path" d="M10.112 27.1946C7.90401 27.1946 6.11734 25.408 6.11734 23.2L6.11734 8.78397C6.11734 6.57597 7.90401 4.78931 10.112 4.78931L14.496 4.78931C14.864 4.78931 15.1627 5.08797 15.1627 5.45597C15.1627 5.82397 14.864 6.12264 14.496 6.12264L10.112 6.12264C8.64534 6.12264 7.45067 7.32264 7.45067 8.78397L7.45067 23.2C7.45067 24.6666 8.65067 25.8613 10.112 25.8613L24.5333 25.8613C26 25.8613 27.1947 24.6613 27.1947 23.2L27.1947 16.8106C27.1947 16.4426 27.4933 16.144 27.8613 16.144C28.2293 16.144 28.528 16.4426 28.528 16.8106L28.528 23.2C28.528 25.408 26.7413 27.1946 24.5333 27.1946L10.112 27.1946Z" fill="rgb(51,51,51)" fill-rule="nonzero" />
	<path id="path" d="M14.4907 4.90137C14.8 4.90137 15.0453 5.1467 15.0453 5.45603C15.0453 5.76537 14.8 6.0107 14.4907 6.0107L10.1067 6.0107C8.576 6.0107 7.33333 7.25337 7.33333 8.78403L7.33333 23.2C7.33333 24.7307 8.576 25.9734 10.1067 25.9734L24.528 25.9734C26.0587 25.9734 27.3013 24.7307 27.3013 23.2L27.3013 16.8107C27.3013 16.5014 27.5467 16.256 27.856 16.256C28.1653 16.256 28.4107 16.5014 28.4107 16.8107L28.4107 23.2C28.4107 25.3387 26.6667 27.0827 24.528 27.0827L10.112 27.0827C7.97333 27.0827 6.22933 25.3387 6.22933 23.2L6.22933 8.78404C6.22933 6.64537 7.97333 4.90137 10.112 4.90137L14.4907 4.90137ZM14.4907 4.67737L10.1067 4.67737C7.84533 4.67737 6 6.51737 6 8.78404L6 23.2C6 25.4614 7.84 27.3067 10.1067 27.3067L24.528 27.3067C26.7893 27.3067 28.6347 25.4667 28.6347 23.2L28.6347 16.8107C28.6347 16.3787 28.2933 16.032 27.856 16.032C27.424 16.032 27.0773 16.3734 27.0773 16.8107L27.0773 23.2C27.0773 24.608 25.936 25.7494 24.528 25.7494L10.112 25.7494C8.704 25.7494 7.56267 24.608 7.56267 23.2L7.56267 8.78404C7.56267 7.37604 8.704 6.2347 10.112 6.2347L14.496 6.2347C14.7093 6.2347 14.896 6.1547 15.04 6.00003C15.184 5.85603 15.264 5.6587 15.264 5.44537C15.2693 5.0347 14.9227 4.67737 14.4907 4.67737Z" fill="rgb(51,51,51)" fill-rule="nonzero" />
	<path id="path" d="M13.7173 22.2027C13.3493 22.2027 13.0507 21.904 13.0507 21.536C13.0507 13.824 19.3173 7.55737 27.0293 7.55737C27.3973 7.55737 27.696 7.85604 27.696 8.22404C27.696 8.59204 27.3973 8.89071 27.0293 8.89071C20.0533 8.89071 14.384 14.56 14.384 21.536C14.3787 21.904 14.08 22.2027 13.7173 22.2027Z" fill="rgb(51,51,51)" fill-rule="nonzero" />
	<path id="path" d="M27.024 7.67469C27.3333 7.67469 27.5787 7.92002 27.5787 8.22935C27.5787 8.53869 27.3333 8.78402 27.024 8.78402C19.9787 8.78402 14.2667 14.496 14.2667 21.5414C14.2667 21.8507 14.0213 22.096 13.712 22.096C13.4027 22.096 13.1573 21.8507 13.1573 21.5414C13.1627 13.8827 19.3707 7.67469 27.024 7.67469ZM27.024 7.45069C23.264 7.45069 19.7227 8.91735 17.0613 11.5787C14.4 14.24 12.9333 17.7814 12.9333 21.5414C12.9333 21.9734 13.2747 22.32 13.712 22.32C14.1493 22.32 14.4907 21.9787 14.4907 21.5414C14.4907 14.6294 20.1173 9.00802 27.024 9.00802C27.2373 9.00802 27.424 8.92802 27.568 8.77335C27.712 8.62935 27.792 8.43202 27.792 8.21868C27.8027 7.80802 27.4613 7.45069 27.024 7.45069Z" fill="rgb(51,51,51)" fill-rule="nonzero" />
	<path id="path" d="M27.5573 8.61339C27.4773 8.61339 27.4027 8.60273 27.3333 8.57073L21.7866 6.35206C21.4667 6.20806 21.312 5.84006 21.4186 5.52006C21.52 5.25339 21.76 5.07739 22.0373 5.07739C22.1173 5.07739 22.192 5.08806 22.2613 5.12006L27.808 7.33873C28.128 7.48273 28.2827 7.85073 28.176 8.17072C28.0907 8.43739 27.8453 8.61339 27.5573 8.61339Z" fill="rgb(51,51,51)" fill-rule="nonzero" />
	<path id="path" d="M22.0587 5.18933C22.1227 5.18933 22.1813 5.2 22.2453 5.22133L27.792 7.44C28.0587 7.56266 28.192 7.86133 28.0907 8.13866C28.0107 8.36267 27.792 8.50666 27.568 8.50666C27.504 8.50666 27.4453 8.496 27.3813 8.47466L21.8347 6.256C21.568 6.13333 21.4347 5.83467 21.536 5.55733C21.6107 5.33333 21.824 5.18933 22.0587 5.18933ZM22.0587 4.96533C21.7387 4.96533 21.44 5.17867 21.328 5.47733C21.1947 5.856 21.3707 6.288 21.7493 6.45333L27.296 8.672C27.3867 8.704 27.472 8.71466 27.5627 8.71466C27.8827 8.71466 28.1813 8.50133 28.2933 8.20267C28.4267 7.824 28.2507 7.392 27.872 7.22667L22.3253 5.008C22.2347 4.976 22.144 4.96533 22.0587 4.96533Z" fill="rgb(51,51,51)" fill-rule="nonzero" />
	<path id="path" d="M23.3653 12.72C23.1787 12.72 23.008 12.64 22.8907 12.5067C22.768 12.3733 22.704 12.208 22.704 12.032C22.704 11.856 22.784 11.6907 22.9173 11.568L27.1413 7.46132C27.264 7.33866 27.4293 7.27466 27.5947 7.27466C27.7813 7.27466 27.952 7.35466 28.0693 7.48799C28.192 7.62132 28.256 7.78666 28.256 7.96266C28.256 8.13866 28.176 8.30399 28.0427 8.42666L23.8187 12.5333C23.696 12.6507 23.5307 12.72 23.3653 12.72Z" fill="rgb(51,51,51)" fill-rule="nonzero" />
	<path id="path" d="M27.5787 7.39734C27.7227 7.39734 27.8667 7.45067 27.9787 7.57334C28.192 7.79734 28.176 8.14934 27.9573 8.36267L23.744 12.4693L23.7333 12.48C23.6213 12.5813 23.488 12.6347 23.3547 12.6347C23.2107 12.6347 23.0667 12.5813 22.9547 12.4587C22.7413 12.2347 22.7573 11.8827 22.976 11.6693L27.1893 7.56267L27.2 7.55201C27.312 7.44001 27.4453 7.39734 27.5787 7.39734ZM27.5787 7.17334C27.3813 7.17334 27.1893 7.25334 27.0453 7.38667L27.0347 7.39734L22.8213 11.504C22.512 11.792 22.5013 12.2933 22.8 12.6027C22.944 12.7573 23.1573 12.848 23.3653 12.848C23.5627 12.848 23.7547 12.768 23.8987 12.6347L23.9093 12.624L28.1227 8.51734C28.2667 8.37334 28.3573 8.18667 28.368 7.97334C28.3787 7.76001 28.304 7.57334 28.1547 7.41867C28 7.26401 27.792 7.17334 27.5787 7.17334Z" fill="rgb(51,51,51)" fill-rule="nonzero" />
</svg>
