<svg viewBox="0 0 500 500" xmlns="http://www.w3.org/2000/svg" xmlns:xlink="http://www.w3.org/1999/xlink" width="500" height="500" fill="none">
    <rect id="Questions-cuate 1" width="500" height="500" x="0" y="0" />
    <g id="freepik--Floor--inject-16">
        <path id="矢量 701" d="M38.3701 409.52L91.2801 409.28L144.19 409.19L250 409.02L355.81 409.19L408.72 409.28L461.63 409.52L408.72 409.77L355.81 409.86L250 410.02L144.19 409.86L91.2801 409.77L38.3701 409.52Z" fill="rgb(38,50,56)" fill-rule="nonzero" />
    </g>
    <g id="freepik--question-mark--inject-16">
        <path id="矢量 735" d="M214 324.13C214 308.13 216.613 293.753 221.84 281C227.067 268.247 237.847 257.137 254.18 247.67C259.087 244.73 265.133 241.397 272.32 237.67C279.729 233.779 286.752 229.286 293.39 224.19C300.21 219.033 306.01 212.909 310.79 205.82C315.69 198.471 318.06 190.381 317.9 181.55C318.045 175.18 316.745 169.12 314 163.37C311.477 158.255 308.047 153.845 303.71 150.14C299.257 146.429 294.257 143.732 288.71 142.05C283.048 140.263 277.248 139.366 271.31 139.36C264.553 139.268 258.04 140.481 251.77 143C246.031 145.365 240.725 148.468 235.85 152.31C231.106 156.066 226.856 160.316 223.1 165.06C219.651 169.362 216.468 173.852 213.55 178.53L206.17 178.53L170.9 149.13C175.009 139.173 180.645 130.173 187.81 122.13C194.805 114.299 202.805 107.682 211.81 102.28C220.963 96.8381 230.693 92.7781 241 90.1C251.601 87.2998 262.385 85.9098 273.35 85.93C285.866 85.9371 298.119 87.7337 310.11 91.32C322.123 94.8557 332.987 100.576 342.7 108.48C352.753 116.802 360.596 126.848 366.23 138.62C372.27 150.873 375.29 165.497 375.29 182.49C375.442 191.902 374.219 201.132 371.62 210.18C369.259 218.012 365.742 225.285 361.07 232C356.452 238.588 351.062 244.468 344.9 249.64C338.229 255.197 331.202 260.261 323.82 264.83C317.28 268.763 310.747 272.523 304.22 276.11C297.89 279.563 291.927 283.563 286.33 288.11C281.031 292.405 276.617 297.472 273.09 303.31C269.663 309.03 267.95 315.973 267.95 324.14L214 324.13ZM215 438.32L215 370.69L269.4 370.69L269.4 438.32L215 438.32Z" fill="rgb(255,199,39)" fill-rule="nonzero" />
        <g id="组合 14" opacity="0.200000003">
            <path id="矢量 736" d="M214 324.13C214 308.13 216.613 293.753 221.84 281C227.067 268.247 237.847 257.137 254.18 247.67C259.087 244.73 265.133 241.397 272.32 237.67C279.729 233.779 286.752 229.286 293.39 224.19C300.21 219.033 306.01 212.909 310.79 205.82C315.69 198.471 318.06 190.381 317.9 181.55C318.045 175.18 316.745 169.12 314 163.37C311.477 158.255 308.047 153.845 303.71 150.14C299.257 146.429 294.257 143.732 288.71 142.05C283.048 140.263 277.248 139.366 271.31 139.36C264.553 139.268 258.04 140.481 251.77 143C246.031 145.365 240.725 148.468 235.85 152.31C231.106 156.066 226.856 160.316 223.1 165.06C219.651 169.362 216.468 173.852 213.55 178.53L206.17 178.53L170.9 149.13C175.009 139.173 180.645 130.173 187.81 122.13C194.805 114.299 202.805 107.682 211.81 102.28C220.963 96.8381 230.693 92.7781 241 90.1C251.601 87.2998 262.385 85.9098 273.35 85.93C285.866 85.9371 298.119 87.7337 310.11 91.32C322.123 94.8557 332.987 100.576 342.7 108.48C352.753 116.802 360.596 126.848 366.23 138.62C372.27 150.873 375.29 165.497 375.29 182.49C375.442 191.902 374.219 201.132 371.62 210.18C369.259 218.012 365.742 225.285 361.07 232C356.452 238.588 351.062 244.468 344.9 249.64C338.229 255.197 331.202 260.261 323.82 264.83C317.28 268.763 310.747 272.523 304.22 276.11C297.89 279.563 291.927 283.563 286.33 288.11C281.031 292.405 276.617 297.472 273.09 303.31C269.663 309.03 267.95 315.973 267.95 324.14L214 324.13ZM215 438.32L215 370.69L269.4 370.69L269.4 438.32L215 438.32Z" fill="rgb(0,0,0)" fill-rule="nonzero" />
        </g>
        <path id="矢量 737" d="M206.66 324.13C206.66 308.13 209.273 293.753 214.5 281C219.727 268.247 230.51 257.137 246.85 247.67C251.75 244.73 257.793 241.397 264.98 237.67C272.394 233.782 279.42 229.288 286.06 224.19C292.878 219.03 298.678 212.907 303.46 205.82C308.352 198.469 310.719 190.379 310.56 181.55C310.691 175.196 309.384 169.153 306.64 163.42C304.117 158.305 300.687 153.895 296.35 150.19C291.897 146.479 286.897 143.782 281.35 142.1C275.688 140.313 269.888 139.416 263.95 139.41C257.193 139.298 250.676 140.495 244.4 143C238.659 145.365 233.349 148.468 228.47 152.31C223.729 156.066 219.482 160.316 215.73 165.06C212.278 169.362 209.091 173.852 206.17 178.53L163.53 149.13C167.636 139.171 173.273 130.171 180.44 122.13C187.433 114.296 195.433 107.679 204.44 102.28C213.591 96.8397 223.317 92.7797 233.62 90.1C244.231 87.2962 255.025 85.9062 266 85.93C278.516 85.9363 290.769 87.733 302.76 91.32C314.775 94.8534 325.638 100.573 335.35 108.48C345.406 116.799 353.249 126.846 358.88 138.62C364.92 150.873 367.943 165.497 367.95 182.49C368.099 191.903 366.872 201.133 364.27 210.18C361.903 218.016 358.376 225.289 353.69 232C349.072 238.588 343.682 244.468 337.52 249.64C330.853 255.202 323.826 260.265 316.44 264.83C309.913 268.763 303.38 272.523 296.84 276.11C290.51 279.563 284.547 283.563 278.95 288.11C273.654 292.405 269.244 297.472 265.72 303.31C262.293 309.03 260.577 315.973 260.57 324.14L206.66 324.13ZM207.66 438.32L207.66 370.69L262 370.69L262 438.32L207.66 438.32Z" fill="rgb(255,199,39)" fill-rule="nonzero" />
    </g>
    <g id="freepik--Character--inject-16">
        <path id="矢量 738" d="M184.24 443.73C182.11 444.41 121.38 443.63 119.09 442.13C118.21 441.57 117.81 432.72 117.63 422L117.63 421.67C117.63 419.46 117.56 417.18 117.55 414.88C117.55 414.56 117.55 414.24 117.55 413.93C117.47 398.47 117.71 382.42 117.71 382.42L158.34 382.83L157.11 414L157.06 415.24L156.81 421.7L156.81 422.36C156.81 422.36 179.9 433.1 182.25 435C184.6 436.9 186.37 443.05 184.24 443.73Z" fill="rgb(173,99,89)" fill-rule="nonzero" />
        <path id="矢量 739" d="M184.24 443.73C182.11 444.41 121.38 443.63 119.09 442.13C118.21 441.57 117.81 432.72 117.63 422L117.63 421.67C117.63 419.46 117.56 417.18 117.55 414.88C117.55 414.56 117.55 414.24 117.55 413.93L157.12 414.04L157.07 415.28L156.82 421.74L156.82 422.4C156.82 422.4 179.9 433.1 182.25 435C184.6 436.9 186.37 443.05 184.24 443.73Z" fill="rgb(235,235,235)" fill-rule="nonzero" />
        <path id="矢量 740" d="M184.24 443.73C182.93 444.15 159.4 444.01 140.98 443.49C129.48 443.18 119.98 442.7 119.09 442.13C118.2 441.56 117.82 432.97 117.64 422.45C117.64 422.3 117.64 422.15 117.64 422C117.64 421.85 117.64 421.77 117.64 421.66L156.83 421.74L156.83 422.4C156.83 422.4 179.95 433.1 182.29 435.01C184.63 436.92 186.37 443.05 184.24 443.73Z" fill="rgb(255,199,39)" fill-rule="nonzero" />
        <path id="矢量 741" d="M183.59 441.36C173.35 440.98 132.04 440.36 121.89 440.79C121.81 440.79 121.81 440.85 121.89 440.86C132.03 441.46 173.34 441.71 183.58 441.53C183.8 441.53 183.8 441.37 183.59 441.36Z" fill="rgb(38,50,56)" fill-rule="nonzero" />
        <path id="矢量 742" d="M161.17 421.9C157.17 421.1 152.22 421.65 149.1 424.48C148.98 424.59 149.1 424.76 149.27 424.72C153.148 423.528 157.108 422.758 161.15 422.41C161.291 422.388 161.364 422.306 161.37 422.163C161.376 422.021 161.309 421.933 161.17 421.9Z" fill="rgb(38,50,56)" fill-rule="nonzero" />
        <path id="矢量 743" d="M164.06 423.69C160.06 422.89 155.11 423.44 151.99 426.27C151.87 426.38 151.99 426.55 152.16 426.51C156.025 425.32 159.971 424.55 164 424.2C164.148 424.194 164.23 424.118 164.248 423.971C164.265 423.824 164.202 423.73 164.06 423.69Z" fill="rgb(38,50,56)" fill-rule="nonzero" />
        <path id="矢量 744" d="M166.94 425.48C162.94 424.68 157.99 425.23 154.87 428.06C154.75 428.17 154.87 428.34 155.04 428.3C158.918 427.111 162.878 426.345 166.92 426C167.093 426.007 167.183 425.923 167.19 425.75C167.197 425.577 167.113 425.487 166.94 425.48Z" fill="rgb(38,50,56)" fill-rule="nonzero" />
        <path id="矢量 745" d="M166.53 413.18C164.97 410.98 162.01 411.93 160.31 413.32C157.385 415.805 155.278 418.855 153.99 422.47C153.95 422.562 153.98 422.608 154.08 422.61C154.08 422.92 154.36 423.25 154.71 423.12C158.05 421.93 161.77 421.12 164.65 418.9C166.33 417.63 168 415.27 166.53 413.18ZM159.4 420.28C157.77 420.91 156.12 421.45 154.52 422.13C155.76 420.35 156.91 418.53 158.33 416.87C159.004 416.066 159.724 415.306 160.49 414.59C161.71 413.52 166.49 411.26 165.71 415.67C165.29 418.1 161.35 419.54 159.4 420.28Z" fill="rgb(38,50,56)" fill-rule="nonzero" />
        <path id="矢量 746" d="M143.76 421.28C147.06 422.74 150.88 422.72 154.41 423.11C154.77 423.11 154.96 422.76 154.9 422.46C154.986 422.431 155.006 422.378 154.96 422.3C152.868 419.084 150.114 416.6 146.7 414.85C144.7 413.85 141.62 413.65 140.62 416.15C139.62 418.65 141.83 420.43 143.76 421.28ZM141.98 418.38C140.22 414.27 145.39 415.38 146.81 416.14C147.728 416.649 148.605 417.223 149.44 417.86C151.154 419.187 152.794 420.601 154.36 422.1C152.64 421.8 150.91 421.66 149.18 421.42C147.12 421.15 143 420.65 142 418.38L141.98 418.38Z" fill="rgb(38,50,56)" fill-rule="nonzero" />
        <path id="矢量 747" d="M141 443.49C129.5 443.18 120 442.7 119.11 442.13C118.22 441.56 117.84 432.97 117.66 422.45C122.36 426.66 134.08 437.11 141 443.49Z" fill="rgb(38,50,56)" fill-rule="nonzero" />
        <path id="矢量 748" d="M105.24 207.48C105.24 207.48 114.36 310.1 115.84 317.93C116.19 319.72 116.4 329.42 116.54 341.88C116.85 369.09 116.67 418.15 116.67 418.15L159.48 418.15C159.48 418.15 158.21 333.15 156.31 317.5C154.41 301.85 142.31 207.5 142.31 207.5L105.24 207.48Z" fill="rgb(55,71,79)" fill-rule="nonzero" />
        <path id="矢量 749" d="M157.54 410.69C150.86 410.55 152.78 410.5 146.1 410.43C142.83 410.43 121.35 410.22 118.29 410.72C118.243 410.72 118.22 410.743 118.22 410.79C118.22 410.837 118.243 410.86 118.29 410.86C121.35 411.36 142.83 411.18 146.1 411.14C152.78 411.08 150.86 411.03 157.54 410.89C157.607 410.89 157.64 410.857 157.64 410.79C157.64 410.723 157.607 410.69 157.54 410.69Z" fill="rgb(38,50,56)" fill-rule="nonzero" />
        <path id="矢量 750" d="M124.8 362.1C124.747 355.887 124.7 349.677 124.66 343.47C124.66 337.47 124.66 331.47 124.34 325.47C123.76 313.3 121.34 301.34 119.54 289.31C117.74 277.28 116.32 265.2 114.99 253.11C113.5 239.55 112.19 225.96 110.8 212.39C110.8 212.3 110.64 212.3 110.65 212.39C112.65 236.63 114.92 260.86 118.27 284.95C119.11 290.95 120.023 296.93 121.01 302.89C122.01 308.89 123.01 314.97 123.48 321.08C123.95 327.19 124.02 333.08 124.08 339.08C124.153 345.293 124.217 351.5 124.27 357.7C124.4 371.48 124.53 392.7 124.67 406.48C124.694 406.59 124.763 406.644 124.875 406.644C124.987 406.644 125.056 406.59 125.08 406.48C125 394.12 124.89 374.39 124.8 362.1Z" fill="rgb(38,50,56)" fill-rule="nonzero" />
        <path id="矢量 751" d="M96.21 207.48C96.21 207.48 114.36 310.1 115.84 317.93C116.19 319.72 116.4 329.42 116.54 341.88L137 207.48L96.21 207.48Z" fill="rgb(38,50,56)" fill-rule="nonzero" />
        <path id="矢量 752" d="M134.53 447.35C132.36 447.88 71.8299 442.79 69.6499 441.14C68.8099 440.52 69.0399 431.66 69.6499 420.96C69.6499 420.85 69.6499 420.73 69.6499 420.62C69.7699 418.42 69.8999 416.15 70.0599 413.85L70.1199 412.85C71.1199 397.42 72.5099 381.43 72.5099 381.43L113 384.77L109.57 415.77L109.44 417L108.74 423.43L108.67 424.09C108.67 424.09 130.96 436.4 133.17 438.47C135.38 440.54 136.7 446.82 134.53 447.35Z" fill="rgb(173,99,89)" fill-rule="nonzero" />
        <path id="矢量 753" d="M134.53 447.35C132.36 447.88 71.8299 442.79 69.6499 441.14C68.8099 440.52 69.0399 431.66 69.6499 420.96C69.6499 420.85 69.6499 420.73 69.6499 420.62C69.7699 418.42 69.8999 416.15 70.0599 413.85L70.1199 412.85L109.57 415.76L109.44 416.99L108.74 423.42L108.67 424.08C108.67 424.08 130.96 436.39 133.17 438.46C135.38 440.53 136.7 446.82 134.53 447.35Z" fill="rgb(235,235,235)" fill-rule="nonzero" />
        <path id="矢量 754" d="M134.53 447.35C132.36 447.88 71.8299 442.79 69.6499 441.14C68.8099 440.52 69.0399 431.66 69.6499 420.96C69.6499 420.85 69.6499 420.73 69.6499 420.62L108.74 423.47L108.67 424.13C108.67 424.13 130.96 436.44 133.17 438.51C135.38 440.58 136.7 446.82 134.53 447.35Z" fill="rgb(255,199,39)" fill-rule="nonzero" />
        <path id="矢量 755" d="M134 444.94C123.82 443.83 82.6501 440.33 72.5001 440C72.4201 440 72.4101 440.06 72.5001 440.07C82.5601 441.39 123.76 444.56 133.99 445.07C134.24 445.12 134.26 445 134 444.94Z" fill="rgb(38,50,56)" fill-rule="nonzero" />
        <path id="矢量 756" d="M113.06 423.94C109.06 422.86 104.15 423.06 100.84 425.66C100.71 425.76 100.84 425.95 100.99 425.92C104.937 424.999 108.937 424.509 112.99 424.45C113.14 424.449 113.226 424.374 113.246 424.225C113.267 424.076 113.205 423.981 113.06 423.94Z" fill="rgb(38,50,56)" fill-rule="nonzero" />
        <path id="矢量 757" d="M115.82 425.93C111.82 424.85 106.9 425.05 103.59 427.65C103.47 427.75 103.59 427.94 103.74 427.91C107.687 426.99 111.687 426.5 115.74 426.44C115.894 426.445 115.982 426.372 116.006 426.22C116.03 426.069 115.968 425.972 115.82 425.93Z" fill="rgb(38,50,56)" fill-rule="nonzero" />
        <path id="矢量 758" d="M118.57 427.92C114.57 426.84 109.65 427.04 106.34 429.64C106.22 429.74 106.34 429.93 106.5 429.9C110.447 428.979 114.447 428.489 118.5 428.43C118.65 428.429 118.736 428.354 118.756 428.205C118.777 428.056 118.715 427.961 118.57 427.92Z" fill="rgb(38,50,56)" fill-rule="nonzero" />
        <path id="矢量 759" d="M119 415.63C117.61 413.32 114.59 414.05 112.79 415.32C109.677 417.585 107.344 420.478 105.79 424C105.79 424.08 105.79 424.13 105.87 424.15C105.85 424.318 105.902 424.459 106.026 424.574C106.149 424.69 106.294 424.732 106.46 424.7C109.87 423.75 113.65 423.16 116.67 421.19C118.51 420 120.34 417.81 119 415.63ZM111.39 422.2C109.72 422.71 108.04 423.13 106.39 423.7C107.695 421.962 109.085 420.296 110.56 418.7C111.285 417.941 112.059 417.234 112.88 416.58C114.17 415.58 119.09 413.67 118.01 418.02C117.44 420.44 113.4 421.6 111.41 422.2L111.39 422.2Z" fill="rgb(38,50,56)" fill-rule="nonzero" />
        <path id="矢量 760" d="M95.74 422.09C98.93 423.78 102.74 424.03 106.23 424.66C106.59 424.73 106.81 424.36 106.77 424.06C106.856 424.031 106.876 423.978 106.83 423.9C104.977 420.542 102.407 417.876 99.12 415.9C97.22 414.79 94.12 414.34 92.97 416.76C91.82 419.18 93.88 421.1 95.74 422.09ZM94.17 419.09C92.7 414.86 97.78 416.33 99.17 417.19C100.047 417.77 100.88 418.407 101.67 419.1C103.286 420.546 104.823 422.073 106.28 423.68C104.58 423.26 102.87 422.99 101.16 422.68C99.1 422.19 95 421.41 94.17 419.07L94.17 419.09Z" fill="rgb(38,50,56)" fill-rule="nonzero" />
        <path id="矢量 761" d="M110.47 420.46L67.7 418.65C67.7 418.65 79.38 324.79 79.59 319C80.1499 304 90.1 207.41 90.1 207.41L142.34 207.41C142.34 207.41 139.04 229.72 133.41 243.86C129.612 245.189 125.969 246.856 122.48 248.86C122.48 248.86 117.58 312.75 117.4 320.72C117 336.5 110.47 420.46 110.47 420.46Z" fill="rgb(55,71,79)" fill-rule="nonzero" />
        <path id="矢量 762" d="M109.33 412.62C102.67 412.2 104.59 412.23 97.9099 411.88C94.6499 411.71 73.1899 410.62 70.1199 410.99C70.0499 410.99 70.0499 411.11 70.1199 411.13C73.1199 411.76 94.6299 412.49 97.8899 412.59C104.57 412.81 102.66 412.68 109.34 412.82C109.407 412.817 109.438 412.782 109.435 412.715C109.432 412.648 109.397 412.617 109.33 412.62Z" fill="rgb(38,50,56)" fill-rule="nonzero" />
        <path id="矢量 763" d="M93.9299 213.17C91.9899 237.5 89.9999 261.84 87.7699 286.17C85.5399 310.5 82.9299 334.93 79.7699 359.22C77.9999 372.77 75.9999 391.88 73.8899 405.4C73.8899 405.49 74.0099 405.53 74.0299 405.4C78.3399 381.4 81.5099 351.56 84.1999 327.31C86.8899 303.06 89.0999 278.74 91.0699 254.42C92.1799 240.66 93.1799 226.89 94.2399 213.13C94.2499 213 93.9999 213 93.9299 213.17Z" fill="rgb(38,50,56)" fill-rule="nonzero" />
        <path id="矢量 764" d="M135.27 242.92C130.831 244.546 126.568 246.546 122.48 248.92C122.393 248.96 122.37 249.023 122.41 249.11C122.45 249.197 122.513 249.22 122.6 249.18C126.91 247.33 131.3 245.56 135.5 243.47C135.683 243.393 135.736 243.263 135.659 243.08C135.583 242.897 135.453 242.844 135.27 242.92Z" fill="rgb(38,50,56)" fill-rule="nonzero" />
        <path id="矢量 765" d="M136.64 213.35C136.64 213.2 136.37 213.17 136.37 213.35C136.37 218.46 136.08 222.96 135.65 227.75C135.45 229.97 133.65 242.23 129.81 241.34C129.17 241.19 128.81 240.55 128.74 239.58C128.747 238.305 128.917 237.051 129.25 235.82C129.67 233.25 130.02 230.68 130.25 228.08C130.698 223.238 130.645 218.401 130.09 213.57C130.072 213.507 130.03 213.476 129.965 213.476C129.9 213.476 129.858 213.507 129.84 213.57C129.954 220.266 129.564 226.933 128.67 233.57C128.19 236.76 126.58 241.57 129.92 242.05C133.26 242.53 135.52 234.51 135.92 232.31C136.986 226.021 137.226 219.701 136.64 213.35Z" fill="rgb(38,50,56)" fill-rule="nonzero" />
        <path id="矢量 766" d="M129.91 241.65C129.563 242.476 129.277 243.323 129.05 244.19C128.795 244.863 128.675 245.56 128.69 246.28C128.69 246.42 128.88 246.43 128.95 246.34C129.35 245.718 129.65 245.052 129.85 244.34C130.14 243.55 130.45 242.77 130.72 241.97C130.825 241.701 130.743 241.513 130.474 241.407C130.205 241.301 130.017 241.382 129.91 241.65Z" fill="rgb(38,50,56)" fill-rule="nonzero" />
        <path id="矢量 767" d="M112.49 217.36C112.502 216.823 112.449 216.293 112.33 215.77C112.313 215.737 112.286 215.721 112.25 215.721C112.213 215.721 112.187 215.737 112.17 215.77C112.064 216.224 112.004 216.684 111.99 217.15C111.99 217.68 111.87 218.15 111.81 218.73C111.699 219.813 111.512 220.883 111.25 221.94C110.754 223.97 109.774 225.73 108.31 227.22C106.862 228.645 105.195 229.734 103.31 230.49C101.242 231.222 99.1387 231.832 96.9999 232.32C96.9466 232.32 96.9199 232.347 96.9199 232.4C96.9199 232.453 96.9466 232.48 96.9999 232.48C99.3883 232.475 101.688 232.022 103.9 231.12C105.864 230.383 107.594 229.28 109.09 227.81C110.595 226.279 111.595 224.469 112.09 222.38C112.335 221.32 112.475 220.247 112.51 219.16C112.538 218.56 112.532 217.96 112.49 217.36Z" fill="rgb(38,50,56)" fill-rule="nonzero" />
        <path id="矢量 768" d="M163.62 119.58C166.84 123.47 170.34 133.98 170.21 136.85C170.08 139.72 152.39 146.24 149.89 144.68C147.39 143.12 137.55 129.22 137.46 124.07C137.37 118.92 160.28 115.56 163.62 119.58Z" fill="rgb(173,99,89)" fill-rule="nonzero" />
        <path id="矢量 769" d="M137 112.44C135.38 110.75 130.14 105.7 127.81 107.98C126.35 109.4 129.87 113.29 131.35 114.83C134.4 117.99 136.76 123.58 137.86 126.31C138.96 129.04 144.11 123.65 144.11 123.65C144.11 123.65 141.23 116.83 137 112.44Z" fill="rgb(173,99,89)" fill-rule="nonzero" />
        <path id="矢量 770" d="M141.3 129.36C141.3 129.36 143.11 134.22 146.06 134.11C149.01 134 148.26 129.82 148.22 129.52C148.31 129.78 150.09 134.2 153.05 133.79C156.01 133.38 154.75 129.27 154.66 129.01C154.82 129.22 157.1 132.01 159.27 131.18C163.01 129.76 157.4 122.49 157.94 119.3C157.94 119.3 163.46 119.61 163.62 119.58C163.62 119.58 158.42 112.58 154.07 112.06C153.418 111.97 152.81 112.095 152.247 112.437C151.683 112.779 151.291 113.26 151.07 113.88C151.07 113.88 149.64 111.43 147.3 111.68C146.1 111.81 145.24 113.85 145.24 113.85C144.463 112.657 143.366 112.137 141.95 112.29C140.3 112.56 139.48 114.62 139.39 115.42C138.69 121.54 141.3 129.36 141.3 129.36Z" fill="rgb(173,99,89)" fill-rule="nonzero" />
        <path id="矢量 771" d="M139.58 114.86C139.58 114.86 139.51 114.86 139.5 114.86C138.577 119.948 139.18 124.848 141.31 129.56C141.38 129.7 141.64 129.65 141.59 129.48C140.211 124.704 139.541 119.831 139.58 114.86Z" fill="rgb(38,50,56)" fill-rule="nonzero" />
        <path id="矢量 772" d="M145.23 113.78C145.23 113.72 145.14 113.72 145.13 113.78C144.167 119.45 145.167 124.75 148.13 129.68C148.24 129.85 148.5 129.89 148.39 129.68C146.56 126.36 145.13 118.41 145.23 113.78Z" fill="rgb(38,50,56)" fill-rule="nonzero" />
        <path id="矢量 773" d="M155 129.27C152.26 124.57 151.29 119.47 151.06 114.08C151.06 114.01 150.96 114.02 150.94 114.08C150.34 116.75 150.85 120.16 151.47 122.79C152.01 125.279 153.134 127.469 154.84 129.36C154.89 129.44 155 129.37 155 129.27Z" fill="rgb(38,50,56)" fill-rule="nonzero" />
        <path id="矢量 774" d="M141.3 129.36C141.736 130.26 142.249 131.113 142.84 131.92C143.391 132.741 144.111 133.367 145 133.8C145.43 133.965 145.86 133.965 146.29 133.8C146.722 133.646 147.089 133.396 147.39 133.05C147.945 132.279 148.125 131.429 147.93 130.5L147.56 128.34L148.66 130.24C149.144 131.095 149.751 131.852 150.48 132.51C151.152 133.192 151.965 133.505 152.92 133.45C153.909 133.39 154.476 132.87 154.62 131.89C154.738 130.94 154.621 130.02 154.27 129.13L153.38 126.69L155.01 128.69C155.465 129.251 155.982 129.747 156.56 130.18C157.106 130.612 157.726 130.859 158.42 130.92C159.099 130.951 159.605 130.671 159.94 130.08C160.181 129.428 160.231 128.761 160.09 128.08C159.803 126.602 159.403 125.155 158.89 123.74C158.65 123.02 158.41 122.29 158.21 121.55C157.962 120.815 157.875 120.062 157.95 119.29C157.964 120.053 158.117 120.786 158.41 121.49C158.67 122.2 158.96 122.9 159.25 123.61C159.872 125.028 160.355 126.491 160.7 128C160.91 128.827 160.877 129.643 160.6 130.45C160.161 131.38 159.428 131.827 158.4 131.79C157.536 131.741 156.759 131.455 156.07 130.93C155.416 130.462 154.833 129.919 154.32 129.3L155.06 128.86C155.499 129.903 155.649 130.987 155.51 132.11C155.416 132.744 155.129 133.274 154.65 133.7C154.177 134.094 153.633 134.321 153.02 134.38C151.806 134.455 150.772 134.058 149.92 133.19C149.11 132.464 148.443 131.624 147.92 130.67L148.65 130.41C148.849 131.576 148.569 132.613 147.81 133.52C147.418 133.929 146.952 134.215 146.41 134.38C145.848 134.554 145.301 134.514 144.77 134.26C143.832 133.747 143.102 133.024 142.58 132.09C142.05 131.229 141.623 130.319 141.3 129.36Z" fill="rgb(38,50,56)" fill-rule="nonzero" />
        <path id="矢量 775" d="M147.8 142.61C147.8 142.61 128.73 132.86 136.2 127.28C138.41 125.62 149.5 121.45 150.38 123.66C151.52 126.51 147.21 129.12 144.25 130.32C144.25 130.32 151.2 132.73 150.97 138.06C150.911 139.056 150.596 139.963 150.026 140.782C149.456 141.6 148.714 142.21 147.8 142.61Z" fill="rgb(173,99,89)" fill-rule="nonzero" />
        <path id="矢量 776" d="M135.61 127.78C136.402 127.019 137.288 126.392 138.27 125.9C139.241 125.383 140.241 124.929 141.27 124.54C143.316 123.736 145.416 123.116 147.57 122.68C148.145 122.559 148.725 122.526 149.31 122.58C149.667 122.602 150 122.702 150.31 122.88C150.47 122.973 150.61 123.089 150.73 123.23C150.849 123.37 150.939 123.527 151 123.7C151.238 124.337 151.238 124.973 151 125.61C150.788 126.177 150.481 126.687 150.08 127.14C149.321 127.999 148.438 128.702 147.43 129.25C146.467 129.801 145.467 130.275 144.43 130.67L144.43 129.96C145.215 130.267 145.965 130.643 146.68 131.09C147.399 131.524 148.066 132.027 148.68 132.6C149.287 133.191 149.794 133.857 150.2 134.6C150.613 135.326 150.876 136.103 150.99 136.93C150.777 136.145 150.444 135.415 149.99 134.74C149.528 134.087 148.988 133.507 148.37 133C147.751 132.483 147.084 132.036 146.37 131.66C145.677 131.278 144.953 130.965 144.2 130.72L143.27 130.43L144.17 130.01C145.146 129.587 146.09 129.1 147 128.55C147.904 128.028 148.704 127.378 149.4 126.6C150.122 125.901 150.376 125.061 150.16 124.08C149.94 123.38 148.75 123.41 147.74 123.56C146.73 123.71 145.66 123.98 144.61 124.24C143.56 124.5 142.53 124.79 141.5 125.12C139.398 125.7 137.435 126.586 135.61 127.78Z" fill="rgb(38,50,56)" fill-rule="nonzero" />
        <path id="矢量 777" d="M125.85 156.41C142.71 177.22 167.22 190.7 173.27 186.31C179.32 181.92 158.93 158.94 158.58 158.6C157.39 157.46 148.37 152.77 131.99 145.87C115.92 139.1 118.32 147.12 125.85 156.41Z" fill="rgb(173,99,89)" fill-rule="nonzero" />
        <path id="矢量 778" d="M151 154L138.3 170.7C138.3 170.7 127.64 159.7 122 152.42C116.36 145.14 116.92 139.48 129.54 144.18C136.938 146.919 144.091 150.192 151 154Z" fill="rgb(255,199,39)" fill-rule="nonzero" />
        <path id="矢量 779" d="M137.09 166.87C138.64 164.59 140.26 162.35 141.92 160.16C142.75 159.08 143.55 157.98 144.4 156.91C145.25 155.84 146.22 154.77 147.09 153.67C147.15 153.59 147.27 153.67 147.21 153.75C146.41 154.85 145.69 156 144.89 157.1C144.09 158.2 143.21 159.34 142.36 160.46C140.687 162.66 138.963 164.82 137.19 166.94C137.14 167 137 166.94 137.09 166.87Z" fill="rgb(38,50,56)" fill-rule="nonzero" />
        <path id="矢量 780" d="M144.38 162.68L138.3 170.68C138.3 170.68 127.64 159.68 122 152.4L121.46 151.69L121.23 151.36L120.88 150.85C120.58 150.41 120.31 149.98 120.07 149.56C119.98 149.41 119.9 149.26 119.82 149.11C119.402 148.349 119.068 147.552 118.82 146.72C118.746 146.464 118.69 146.204 118.65 145.94C118.65 145.81 118.65 145.69 118.65 145.57C124.19 149.41 137.19 157.82 144.38 162.68Z" fill="rgb(38,50,56)" fill-rule="nonzero" />
        <path id="矢量 781" d="M144.89 217.73C144.89 217.73 87.0199 218.73 86.6799 218.37C85.7799 217.37 97.4699 157.78 109.56 145.5C113.83 141.16 122.64 142.93 124.11 143.64C127.5 145.28 130.69 148.82 133.36 155.38C138.7 168.5 145.62 216.79 144.89 217.73Z" fill="rgb(255,199,39)" fill-rule="nonzero" />
        <path id="矢量 782" d="M127 145.6L109.47 145.6L109.56 145.5C109.969 145.086 110.419 144.723 110.91 144.41L125.46 144.41C126.006 144.765 126.519 145.162 127 145.6ZM128.93 147.6L107.82 147.6C107.54 147.97 107.27 148.37 107 148.79L129.85 148.79C129.56 148.37 129.26 148 129 147.6L128.93 147.6ZM131.11 150.79L105.79 150.79C105.57 151.18 105.35 151.58 105.14 151.99L131.79 151.99C131.58 151.58 131.36 151.17 131.13 150.79L131.11 150.79ZM132.74 153.99L104.13 153.99L103.56 155.18L133.27 155.18C133.11 154.77 132.94 154.37 132.76 154L132.74 153.99ZM134.01 157.18L102.68 157.18L102.17 158.37L134.42 158.37C134.29 158 134.16 157.56 134 157.18L134.01 157.18ZM135.01 160.37L101.36 160.37C101.21 160.77 101.05 161.16 100.89 161.57L135.36 161.57L135.01 160.37ZM135.87 163.56L100.15 163.56C100.01 163.96 99.86 164.35 99.72 164.76L136.19 164.76C136.063 164.353 135.963 163.953 135.89 163.56L135.87 163.56ZM136.65 166.76L99 166.76C98.86 167.15 98.73 167.55 98.6 167.95L136.92 167.95L136.65 166.76ZM137.37 169.95L98 169.95C97.87 170.34 97.75 170.74 97.62 171.14L137.7 171.14C137.56 170.74 137.48 170.34 137.39 170L137.37 169.95ZM138.05 173.14L97 173.14C96.87 173.53 96.75 173.93 96.63 174.34L138.37 174.34C138.24 173.94 138.16 173.54 138.07 173.14L138.05 173.14ZM138.7 176.33L96 176.33C95.88 176.73 95.76 177.13 95.65 177.53L139 177.53L138.7 176.33ZM139.32 179.53L95.06 179.53C94.94 179.93 94.83 180.32 94.72 180.72L139.56 180.72C139.49 180.32 139.42 179.92 139.34 179.53L139.32 179.53ZM139.91 182.72L94.17 182.72C94.06 183.12 93.95 183.52 93.85 183.91L140.15 183.91C140.08 183.51 140 183.12 139.93 182.72L139.91 182.72ZM140.48 185.91L93.32 185.91C93.21 186.31 93.11 186.71 93.01 187.11L140.71 187.11C140.65 186.71 140.58 186.31 140.5 185.91L140.48 185.91ZM141.05 189.11L92.49 189.11C92.4 189.51 92.3 189.9 92.2 190.3L141.26 190.3C141.2 189.91 141.13 189.51 141.07 189.11L141.05 189.11ZM141.57 192.3L91.7 192.3C91.61 192.7 91.51 193.1 91.42 193.49L141.79 193.49C141.73 193.1 141.66 192.7 141.59 192.3L141.57 192.3ZM142.09 195.49L90.94 195.49C90.85 195.9 90.76 196.3 90.66 196.69L142.3 196.69C142.24 196.29 142.18 195.9 142.11 195.49L142.09 195.49ZM142.6 198.68L90.21 198.68C90.12 199.08 90.03 199.49 89.94 199.88L142.79 199.88C142.73 199.49 142.67 199.09 142.62 198.68L142.6 198.68ZM143.07 201.88L89.5 201.88C89.42 202.28 89.33 202.68 89.25 203.07L143.25 203.07L143.07 201.88ZM143.53 205.07L88.82 205.07C88.74 205.48 88.66 205.87 88.58 206.26L143.72 206.26C143.66 205.87 143.61 205.47 143.55 205.07L143.53 205.07ZM143.97 208.26L88.19 208.26C88.0967 208.673 88.0167 209.073 87.95 209.46L144.15 209.46C144.1 209.07 144 208.67 144 208.26L143.97 208.26ZM144.37 211.45L87.58 211.45C87.5 211.87 87.43 212.27 87.36 212.65L144.54 212.65C144.5 212.27 144.45 211.87 144.39 211.45L144.37 211.45ZM144.74 214.65L87 214.65C86.93 215.08 86.88 215.48 86.82 215.84L144.82 215.84C144.84 215.49 144.8 215.09 144.76 214.65L144.74 214.65ZM86.62 217.84C86.5748 218.017 86.5748 218.193 86.62 218.37C86.89 218.64 122.78 218.09 138.07 217.84L86.62 217.84Z" opacity="0.100000001" fill="rgb(3,4,2)" fill-rule="nonzero" />
        <path id="矢量 783" d="M112.86 152.72C108.96 158.07 88.9601 180.18 88.2201 182.23C87.4801 184.28 92.1101 188.81 92.0301 189.66C91.7301 193.12 84.2601 216.14 81.2701 213.8C77.3301 210.72 60.6501 188.66 63.0101 179.11C65.3701 169.56 104.32 146.63 110.5 144.64C116.68 142.65 116.71 147.44 112.86 152.72Z" fill="rgb(173,99,89)" fill-rule="nonzero" />
        <path id="矢量 784" d="M97.15 172.85L85.79 156.9C85.79 156.9 98.5 148.56 107 145C115.5 141.44 119.69 143.42 111.92 154.41C107.374 160.859 102.45 167.005 97.15 172.85Z" fill="rgb(255,199,39)" fill-rule="nonzero" />
        <path id="矢量 785" d="M89.1501 155.86C90.9501 157.947 92.7001 160.08 94.4001 162.26C95.2401 163.33 96.0901 164.39 96.9001 165.48C97.7101 166.57 98.5101 167.79 99.3601 168.91C99.4201 168.99 99.3001 169.09 99.2401 169.01C98.3801 168.01 97.4601 167.01 96.6001 165.91C95.7401 164.81 94.8601 163.71 94.0001 162.61C92.3001 160.43 90.6501 158.2 89.0601 155.94C89.0001 155.88 89.1001 155.8 89.1501 155.86Z" fill="rgb(38,50,56)" fill-rule="nonzero" />
        <path id="矢量 786" d="M97.1299 172.93C98.8699 170.62 100.92 168.56 102.8 166.37C104.68 164.18 106.55 161.92 108.34 159.64C108.34 159.64 108.47 159.64 108.43 159.7C107.6 160.89 106.79 162.09 105.92 163.25C105.49 163.82 105.04 164.38 104.58 164.94L105.25 164.39C105.936 163.874 106.646 163.394 107.38 162.95C107.38 162.95 107.46 162.95 107.38 163.01C106.743 163.599 106.076 164.153 105.38 164.67C104.88 165.05 104.38 165.4 103.85 165.75L103.05 166.75C101.301 169.008 99.3642 171.091 97.2399 173C97.1799 173.09 97.0699 173 97.1299 172.93Z" fill="rgb(38,50,56)" fill-rule="nonzero" />
        <path id="矢量 787" d="M91.05 222.54C93.72 220.73 90.05 218.61 90.05 218.61C90.05 218.61 96.05 220.39 98.05 217.46C100.05 214.53 95.49 212.23 95.17 212.05C95.49 212.15 101.05 213.63 102.79 210.48C104.53 207.33 99.65 205.57 99.33 205.48C99.66 205.48 103.99 205.29 104.77 202.59C106.1 197.96 93.66 197.42 90.98 194.59C90.98 194.59 92.18 188.47 92.28 188.3C91.4513 189.715 90.2713 190.715 88.74 191.3C86.05 192.06 83.63 192.5 82.54 193.79C82.0179 194.37 81.7199 195.047 81.646 195.824C81.572 196.6 81.7367 197.322 82.14 197.99C82.14 197.99 78.74 197.6 77.29 200.04C76.55 201.29 77.9 203.6 77.9 203.6C76.1981 203.478 74.9014 204.145 74.01 205.6C73.08 207.4 74.58 209.43 74.58 209.43C74.58 209.43 71.86 210.43 71.51 212.59C70.84 216.92 85.33 226.4 91.05 222.54Z" fill="rgb(173,99,89)" fill-rule="nonzero" />
        <path id="矢量 788" d="M74.82 209.8C74.82 209.8 74.71 209.8 74.75 209.87C78.9935 214.441 84.1602 217.401 90.25 218.75C90.44 218.75 90.58 218.49 90.38 218.41C84.7739 216.298 79.5873 213.428 74.82 209.8Z" fill="rgb(38,50,56)" fill-rule="nonzero" />
        <path id="矢量 789" d="M77.8599 203.56C77.8266 203.533 77.7966 203.537 77.7699 203.57C77.7432 203.603 77.7466 203.633 77.7799 203.66C82.5536 208.693 88.3902 211.57 95.2899 212.29C95.5199 212.29 95.7499 212.09 95.4799 212.05C90.9999 211.37 82.2599 207 77.8599 203.56Z" fill="rgb(38,50,56)" fill-rule="nonzero" />
        <path id="矢量 790" d="M99.8699 205.33C93.3499 204.59 87.7199 201.83 82.3499 198.17C82.2799 198.17 82.2199 198.22 82.2599 198.28C84.3999 200.79 88.0699 202.77 91.0599 204.07C93.8538 205.349 96.7805 205.846 99.8399 205.56C99.9999 205.55 99.9999 205.35 99.8699 205.33Z" fill="rgb(38,50,56)" fill-rule="nonzero" />
        <path id="矢量 791" d="M74.4501 209.43C73.2463 208.218 72.9129 206.801 73.4501 205.18C73.7737 204.468 74.2904 203.948 75.0001 203.62C75.8311 203.333 76.6811 203.256 77.5501 203.39C77.0615 202.701 76.8108 201.935 76.798 201.091C76.7852 200.247 77.0126 199.473 77.4801 198.77C78.0108 198.161 78.6775 197.811 79.4801 197.72C80.3679 197.634 81.2512 197.667 82.1301 197.82C81.3474 196.899 81.0907 195.849 81.3601 194.67C81.716 193.388 82.516 192.511 83.7601 192.04C85.1252 191.546 86.5285 191.212 87.9701 191.04C88.7102 190.929 89.4269 190.732 90.1201 190.45C90.8818 190.101 91.4785 189.568 91.9101 188.85C91.9901 188.73 91.9901 188.85 91.9101 188.96C91.628 189.44 91.2747 189.86 90.8501 190.22C90.4102 190.603 89.9269 190.92 89.4001 191.17C88.0965 191.662 86.7632 192.052 85.4001 192.34C84.1734 192.667 83.1734 193.333 82.4001 194.34C81.638 195.489 81.598 196.662 82.2801 197.86C82.2801 197.86 82.2801 197.99 82.1901 197.98C81.3886 197.977 80.5986 198.07 79.8201 198.26C79.1608 198.418 78.6075 198.751 78.1601 199.26C77.2736 200.648 77.207 202.075 77.9601 203.54C77.0902 203.598 76.2602 203.812 75.4701 204.18C74.951 204.499 74.5577 204.933 74.2901 205.48C73.626 206.85 73.756 208.14 74.6801 209.35C74.684 209.367 74.684 209.383 74.6801 209.4C74.6801 209.4 73.8101 209.76 73.7701 209.76C73.9899 209.636 74.2166 209.526 74.4501 209.43Z" fill="rgb(38,50,56)" fill-rule="nonzero" />
        <path id="矢量 792" d="M124.09 152.51C120.91 153.68 114.69 149.35 111.98 145.57C111.8 145.31 111.62 134.06 111.36 131.84C111.3 131.38 125.73 133.56 125.73 133.56C125.267 136.447 125.16 139.347 125.41 142.26C125.45 142.58 127.16 151.39 124.09 152.51Z" fill="rgb(173,99,89)" fill-rule="nonzero" />
        <path id="矢量 793" d="M125.73 133.56C125.73 133.56 125.57 134.49 125.44 135.87C121.44 140.78 115.02 141.3 111.76 141.19C111.65 137.7 111.52 133.19 111.36 131.84C111.3 131.39 125.73 133.56 125.73 133.56Z" fill="rgb(38,50,56)" fill-rule="nonzero" />
        <path id="矢量 794" d="M111.42 107.87C111.42 107.87 106.82 109.65 105.88 114.25C104.94 118.85 105.88 123.73 106.26 123.98C106.64 124.23 111.42 107.87 111.42 107.87Z" fill="rgb(38,50,56)" fill-rule="nonzero" />
        <path id="矢量 795" d="M130 113.81C131.18 118.88 127.6 133.07 123.84 136.03C118.4 140.33 109.96 140.21 106.42 133.78C103 127.55 108 109.15 112.15 106.5C118.25 102.61 128.23 106.31 130 113.81Z" fill="rgb(173,99,89)" fill-rule="nonzero" />
        <path id="矢量 796" d="M115.73 121.78C115.73 121.78 115.8 121.84 115.79 121.88C115.59 122.88 115.52 124.01 116.36 124.49C116.36 124.49 116.36 124.55 116.36 124.54C115.28 124.2 115.38 122.67 115.73 121.78Z" fill="rgb(38,50,56)" fill-rule="nonzero" />
        <path id="矢量 797" d="M116.78 120.9C118.39 121.05 117.96 124.25 116.48 124.11C115 123.97 115.44 120.77 116.78 120.9Z" fill="rgb(38,50,56)" fill-rule="nonzero" />
        <path id="矢量 798" d="M110.15 120.79C110.15 120.79 110.07 120.79 110.06 120.87C109.97 121.87 109.7 122.98 108.76 123.2L108.76 123.26C109.88 123.24 110.22 121.74 110.15 120.79Z" fill="rgb(38,50,56)" fill-rule="nonzero" />
        <path id="矢量 799" d="M109.4 119.64C107.82 119.32 107.29 122.5 108.76 122.8C110.23 123.1 110.72 119.91 109.4 119.64Z" fill="rgb(38,50,56)" fill-rule="nonzero" />
        <path id="矢量 800" d="M115.51 130.05C115.25 130.26 114.98 130.56 114.62 130.56C114.246 130.521 113.896 130.408 113.57 130.22C113.841 130.682 114.245 130.898 114.78 130.869C115.264 130.809 115.551 130.54 115.64 130.06C115.64 130.06 115.55 130 115.51 130.05Z" fill="rgb(38,50,56)" fill-rule="nonzero" />
        <path id="矢量 801" d="M110.88 125.49C110.88 125.49 110.46 126.93 110.36 127.63C111.727 127.83 113.037 128.22 114.29 128.8C114.58 128.94 114.62 128.69 114.29 128.43C113.338 127.657 112.252 127.217 111.03 127.11C111.03 126.91 111.72 124.9 111.61 124.87C111.067 124.839 110.531 124.882 110 125C110.78 122 112 119.08 112.78 116C112.78 115.89 112.65 115.83 112.6 115.92C111.154 118.982 110.02 122.155 109.2 125.44C109.07 125.88 110.58 125.57 110.88 125.49Z" fill="rgb(38,50,56)" fill-rule="nonzero" />
        <path id="矢量 802" d="M118 119.81C117.62 119.57 117.32 119.28 117 119.01C116.68 118.74 116.26 118.49 116.11 118.01C116.035 117.67 116.155 117.427 116.47 117.28C117.09 117.077 117.637 117.2 118.11 117.65C118.634 118.002 118.967 118.485 119.11 119.1C119.169 119.414 119.064 119.658 118.795 119.83C118.525 120.002 118.26 119.996 118 119.81Z" fill="rgb(38,50,56)" fill-rule="nonzero" />
        <path id="矢量 803" d="M108.7 116.12C109.14 116.05 109.54 115.93 109.97 115.82C110.447 115.779 110.86 115.596 111.21 115.27C111.417 114.997 111.417 114.723 111.21 114.45C110.728 114.012 110.178 113.895 109.56 114.1C108.937 114.204 108.431 114.504 108.04 115C107.87 115.251 107.863 115.507 108.016 115.768C108.17 116.029 108.398 116.147 108.7 116.12Z" fill="rgb(38,50,56)" fill-rule="nonzero" />
        <path id="矢量 804" d="M127.64 125.93C124.7 125.64 126.3 112.67 126.3 112.67C124.475 113.292 122.598 113.625 120.67 113.67C118.727 113.602 116.817 113.315 114.94 112.81C114.54 112.66 119.85 111.16 119.85 111.16C119.85 111.16 106.79 112.3 106.35 109.84C106.19 108.99 108.62 101.25 119.46 101.74C127.46 102.1 131.19 110.46 131.19 110.46C131.19 110.46 135.08 114.79 134.41 116.75C133.27 120.19 130.76 126.24 127.64 125.93Z" fill="rgb(38,50,56)" fill-rule="nonzero" />
        <path id="矢量 805" d="M125.86 126C125.86 126 129.51 121.64 131.52 123C133.53 124.36 130.52 130.85 127.94 131.56C127.262 131.796 126.604 131.751 125.964 131.426C125.324 131.101 124.9 130.596 124.69 129.91L125.86 126Z" fill="rgb(173,99,89)" fill-rule="nonzero" />
        <path id="矢量 806" d="M130.6 124.82L130.6 124.89C128.844 125.578 127.634 126.805 126.97 128.57C127.217 128.222 127.554 128.027 127.979 127.987C128.405 127.947 128.772 128.074 129.08 128.37C129.093 128.392 129.092 128.413 129.078 128.434C129.064 128.455 129.045 128.463 129.02 128.46C128.346 128.184 127.763 128.314 127.27 128.85C126.913 129.254 126.603 129.69 126.34 130.16C126.24 130.31 125.97 130.16 126.05 130.03C126.22 127.77 128.21 124.83 130.6 124.82Z" fill="rgb(38,50,56)" fill-rule="nonzero" />
        <path id="矢量 807" d="M174.57 185.56C182.69 179.29 174.93 147.46 170.21 135.74C168.82 132.29 146.77 138.74 147.8 142.61C153.69 164.5 165.68 192.43 174.57 185.56Z" fill="rgb(173,99,89)" fill-rule="nonzero" />
        <path id="矢量 808" d="M151.45 154.62L153.88 160.62C154.71 162.62 155.52 164.62 156.42 166.62C157.32 168.62 158.19 170.55 159.11 172.5C160.03 174.45 161.05 176.36 162.05 178.28C160.783 176.516 159.633 174.68 158.6 172.77C157.6 170.86 156.6 168.9 155.73 166.92C154.86 164.94 154.06 162.92 153.34 160.86C152.62 158.8 152 156.73 151.45 154.62Z" fill="rgb(38,50,56)" fill-rule="nonzero" />
    </g>
    <g id="freepik--speech-bubble--inject-16">
        <path id="矢量 809" d="M150 91.3499C150.065 92.104 149.983 92.8418 149.754 93.5632C149.525 94.2846 149.167 94.9349 148.68 95.514C148.193 96.0932 147.613 96.5571 146.942 96.9058C146.27 97.2545 145.557 97.4614 144.803 97.5267C144.049 97.5919 143.311 97.5105 142.59 97.2824C141.868 97.0543 141.218 96.6968 140.638 96.21C140.059 95.7232 139.594 95.1441 139.245 94.4726C138.896 93.8012 138.688 93.0885 138.622 92.3345C138.557 91.5806 138.638 90.8427 138.865 90.1209C139.093 89.3991 139.45 88.7483 139.936 88.1685C140.422 87.5886 141.001 87.1238 141.672 86.7741C142.344 86.4244 143.056 86.2163 143.81 86.1499C144.565 86.0834 145.305 86.1642 146.028 86.3922C146.751 86.6202 147.403 86.9781 147.984 87.4659C148.564 87.9537 149.029 88.5341 149.379 89.2071C149.728 89.8801 149.935 90.5944 150 91.3499Z" fill="rgb(255,255,255)" fill-rule="nonzero" />
        <path id="矢量 810" d="M150 91.35C150.062 92.1155 149.98 92.8654 149.754 93.5994C149.528 94.3335 149.174 94.9996 148.692 95.5977C148.21 96.1958 147.635 96.6835 146.965 97.0606C146.296 97.4377 145.581 97.6775 144.82 97.78C143.982 97.9482 143.145 97.9377 142.311 97.7485C141.478 97.5592 140.719 97.2077 140.035 96.6941C139.352 96.1804 138.803 95.5494 138.389 94.8011C137.975 94.0528 137.732 93.2526 137.661 92.4005C137.589 91.5484 137.694 90.7189 137.977 89.912C138.26 89.105 138.696 88.3912 139.284 87.7705C139.872 87.1497 140.562 86.6764 141.352 86.3504C142.143 86.0244 142.965 85.8743 143.82 85.9C144.586 85.8738 145.329 85.99 146.05 86.2486C146.771 86.5071 147.419 86.8897 147.993 87.3964C148.568 87.9031 149.029 88.4979 149.375 89.181C149.722 89.8641 149.93 90.5871 150 91.35ZM150 91.35C149.935 90.6067 149.727 89.906 149.376 89.2479C149.025 88.5897 148.558 88.027 147.977 87.5597C147.395 87.0924 146.745 86.7581 146.027 86.5567C145.309 86.3553 144.58 86.3031 143.84 86.4C143.14 86.4899 142.482 86.7071 141.866 87.0517C141.251 87.3962 140.721 87.8431 140.278 88.3925C139.836 88.9418 139.511 89.554 139.305 90.2289C139.099 90.9038 139.027 91.5928 139.087 92.2958C139.148 92.9988 139.338 93.6651 139.656 94.2948C139.975 94.9244 140.399 95.4719 140.93 95.9372C141.46 96.4026 142.058 96.7522 142.724 96.9861C143.39 97.22 144.075 97.3213 144.78 97.29C145.526 97.2587 146.236 97.082 146.91 96.76C147.583 96.438 148.167 95.9965 148.659 95.4356C149.152 94.8747 149.515 94.2395 149.748 93.53C149.981 92.8205 150.065 92.0939 150 91.35Z" fill="rgb(38,50,56)" fill-rule="nonzero" />
        <path id="矢量 811" d="M137.58 101.88C137.654 102.755 137.408 103.528 136.842 104.199C136.276 104.87 135.556 105.243 134.681 105.317C133.806 105.391 133.033 105.146 132.362 104.58C131.691 104.014 131.318 103.293 131.243 102.419C131.168 101.544 131.414 100.771 131.98 100.099C132.545 99.428 133.265 99.0549 134.14 98.98C135.017 98.9021 135.791 99.1467 136.464 99.7139C137.137 100.281 137.509 101.003 137.58 101.88Z" fill="rgb(255,255,255)" fill-rule="nonzero" />
        <path id="矢量 812" d="M137.58 101.88C137.659 102.84 137.382 103.683 136.751 104.409C136.119 105.136 135.323 105.528 134.362 105.584C133.401 105.64 132.564 105.344 131.852 104.696C131.14 104.048 130.768 103.243 130.734 102.281C130.7 101.319 131.015 100.489 131.679 99.7925C132.344 99.0958 133.157 98.7416 134.12 98.73C135.018 98.7264 135.799 99.0269 136.463 99.6315C137.127 100.236 137.5 100.986 137.58 101.88ZM137.58 101.88C137.51 101.022 137.135 100.329 136.454 99.801C135.773 99.2735 135.009 99.0831 134.16 99.23C133.375 99.3628 132.748 99.7505 132.278 100.393C131.808 101.035 131.628 101.751 131.739 102.539C131.85 103.327 132.221 103.965 132.85 104.453C133.479 104.94 134.189 105.14 134.98 105.05C135.771 104.961 136.419 104.609 136.924 103.993C137.429 103.378 137.647 102.673 137.58 101.88Z" fill="rgb(38,50,56)" fill-rule="nonzero" />
        <path id="矢量 813" d="M192.66 64.79C192.792 65.8769 192.816 66.9662 192.733 68.0578C192.65 69.1495 192.462 70.2226 192.167 71.2772C191.873 72.3317 191.479 73.3475 190.985 74.3245C190.491 75.3016 189.907 76.2211 189.232 77.0831C188.557 77.9451 187.805 78.733 186.975 79.447C186.145 80.1609 185.253 80.7871 184.3 81.3256C183.346 81.864 182.35 82.3045 181.31 82.6468C180.27 82.9892 179.207 83.2269 178.12 83.36C175.18 83.726 172.347 83.3294 169.62 82.17C168.967 83.0252 168.225 83.7949 167.394 84.4789C166.563 85.163 165.665 85.7436 164.7 86.2206C163.736 86.6976 162.729 87.0586 161.681 87.3035C160.633 87.5485 159.571 87.6709 158.495 87.6709C157.419 87.6709 156.357 87.5485 155.309 87.3035C154.261 87.0586 153.254 86.6976 152.29 86.2206C151.325 85.7436 150.427 85.163 149.596 84.4789C148.766 83.7949 148.023 83.0252 147.37 82.17C146.754 82.352 146.128 82.482 145.49 82.56C143.266 82.8316 141.147 82.4752 139.134 81.4908C137.121 80.5064 135.539 79.0531 134.387 77.1307C133.236 75.2084 132.701 73.1276 132.783 70.8883C132.865 68.649 133.551 66.6129 134.84 64.78C133.611 63.2168 132.692 61.4891 132.081 59.5969C131.47 57.7048 131.206 55.7654 131.289 53.7788C131.371 51.7922 131.796 49.8815 132.562 48.0466C133.328 46.2118 134.388 44.5665 135.742 43.1108C137.097 41.6551 138.661 40.4791 140.436 39.583C142.211 38.6868 144.086 38.1259 146.062 37.9003C148.037 37.6747 149.99 37.7984 151.922 38.2713C153.853 38.7442 155.642 39.5371 157.29 40.65C158.863 38.694 160.821 37.2644 163.163 36.3614C165.505 35.4583 167.916 35.2035 170.395 35.5971C172.874 35.9907 175.087 36.9794 177.034 38.5634C178.981 40.1474 180.4 42.113 181.29 44.46C181.876 44.263 182.476 44.1296 183.09 44.06C184.983 43.8331 186.773 44.1649 188.459 45.0555C190.144 45.946 191.427 47.237 192.307 48.9286C193.187 50.6202 193.507 52.4117 193.268 54.3033C193.029 56.1949 192.273 57.8505 191 59.27C191.881 61.0114 192.435 62.8514 192.66 64.79Z" fill="rgb(255,255,255)" fill-rule="nonzero" />
        <path id="矢量 814" d="M192.66 64.79C193.201 69.3534 192.071 73.4567 189.27 77.1C188.364 78.2457 187.33 79.2624 186.17 80.15C183.789 81.9522 181.118 83.0459 178.156 83.4312C175.195 83.8165 172.333 83.4428 169.57 82.31L169.73 82.31C168.398 84.0767 166.743 85.4559 164.766 86.4474C162.788 87.439 160.693 87.9398 158.48 87.95C156.258 87.9579 154.148 87.4746 152.15 86.5C150.155 85.5091 148.471 84.1358 147.1 82.38L147.46 82.5C145.076 83.2199 142.703 83.1866 140.34 82.4C137.965 81.6161 136.041 80.2128 134.57 78.19C133.864 77.1931 133.314 76.1164 132.92 74.96C132.543 73.7964 132.347 72.603 132.33 71.38C132.308 68.8681 133.014 66.5814 134.45 64.52L134.45 65.08C131.804 61.7678 130.581 57.9944 130.78 53.76C130.891 50.6542 131.785 47.7938 133.465 45.1788C135.144 42.5637 137.373 40.5599 140.151 39.1671C142.929 37.7744 145.868 37.1876 148.968 37.4067C152.068 37.6258 154.895 38.6203 157.45 40.39L157.01 40.45C158.626 38.4603 160.633 37.0114 163.031 36.1032C165.428 35.1951 167.891 34.9507 170.42 35.37C172.934 35.787 175.173 36.806 177.139 38.4268C179.105 40.0477 180.532 42.0521 181.42 44.44L181.29 44.37C183.299 43.7166 185.299 43.7433 187.29 44.45C188.002 44.7046 188.672 45.0419 189.301 45.4619C189.929 45.8818 190.497 46.3719 191.005 46.9321C191.513 47.4923 191.945 48.1058 192.301 48.7726C192.657 49.4394 192.927 50.1395 193.111 50.8729C193.294 51.6063 193.386 52.351 193.385 53.107C193.385 53.8631 193.293 54.6077 193.109 55.3409C192.925 56.0742 192.654 56.7741 192.297 57.4406C191.941 58.1071 191.508 58.7202 191 59.28C191.882 61.0176 192.435 62.8543 192.66 64.79ZM192.66 64.79C192.422 62.8519 191.856 61.0152 190.96 59.28C191.64 58.5341 192.18 57.6981 192.581 56.7721C192.981 55.8461 193.221 54.8801 193.3 53.8742C193.379 52.8682 193.292 51.8767 193.04 50.8996C192.789 49.9225 192.385 49.0126 191.83 48.17C191.281 47.3297 190.611 46.6008 189.82 45.9832C189.029 45.3656 188.159 44.8925 187.21 44.564C186.262 44.2355 185.286 44.0692 184.282 44.0651C183.279 44.061 182.301 44.2193 181.35 44.54L181.25 44.54L181.25 44.44C180.347 42.1302 178.93 40.1969 177 38.64C175.067 37.0847 172.874 36.1247 170.42 35.76C167.979 35.3954 165.609 35.6621 163.31 36.56C161.024 37.4675 159.121 38.8875 157.6 40.82L157.41 41.06L157.15 40.88C155.541 39.8074 153.795 39.0455 151.915 38.5945C150.034 38.1434 148.133 38.0309 146.212 38.2569C144.291 38.483 142.468 39.0336 140.744 39.9089C139.019 40.7842 137.498 41.9303 136.182 43.3473C134.865 44.7642 133.834 46.3648 133.088 48.1492C132.341 49.9335 131.926 51.7918 131.841 53.7241C131.757 55.6564 132.009 57.5438 132.596 59.3865C133.184 61.2291 134.072 62.9136 135.26 64.44L135.48 64.72L135.27 65.01C133.931 66.9002 133.264 69.0036 133.27 71.32C133.286 72.4491 133.463 73.5524 133.8 74.63C134.153 75.7058 134.656 76.7058 135.31 77.63C136.666 79.5264 138.445 80.8572 140.647 81.6224C142.849 82.3877 145.07 82.4469 147.31 81.8L147.54 81.74L147.67 81.92C148.959 83.6171 150.552 84.9505 152.45 85.92C153.876 86.6426 155.383 87.1027 156.97 87.3005C158.556 87.4983 160.13 87.422 161.69 87.0716C163.25 86.7213 164.705 86.1175 166.055 85.2604C167.404 84.4032 168.57 83.3431 169.55 82.08L169.62 81.99L169.72 81.99C172.432 83.1632 175.255 83.5765 178.19 83.23C181.141 82.8674 183.807 81.7974 186.19 80.02C187.348 79.1492 188.382 78.1492 189.29 77.02C190.182 75.8648 190.918 74.6182 191.5 73.28C192.629 70.5514 193.016 67.7214 192.66 64.79Z" fill="rgb(38,50,56)" fill-rule="nonzero" />
        <path id="矢量 815" d="M164.15 65.31C164.129 64.0812 164.342 62.8945 164.79 61.75C165.363 60.5259 166.253 59.6093 167.46 59C167.87 58.75 168.36 58.48 168.96 58.17C169.569 57.8496 170.145 57.4796 170.69 57.06C171.253 56.6319 171.733 56.1253 172.13 55.54C172.534 54.9345 172.731 54.2679 172.72 53.54C172.731 53.0135 172.621 52.5135 172.39 52.04C172.183 51.6175 171.899 51.2542 171.54 50.95C171.175 50.6458 170.765 50.4258 170.31 50.29C169.845 50.139 169.369 50.0623 168.88 50.06C168.318 50.0496 167.778 50.1529 167.26 50.37C166.789 50.564 166.352 50.8173 165.95 51.13C165.575 51.4438 165.242 51.7972 164.95 52.19C164.663 52.5431 164.4 52.9131 164.16 53.3L160.64 50.87C160.984 50.0524 161.45 49.3124 162.04 48.65C162.607 47.9973 163.26 47.4473 164 47C164.754 46.5557 165.554 46.2224 166.4 46C167.275 45.7693 168.165 45.6559 169.07 45.66C170.091 45.6653 171.091 45.812 172.07 46.1C173.061 46.3956 173.957 46.8689 174.76 47.52C175.589 48.2043 176.235 49.0309 176.7 50C177.225 51.1499 177.471 52.3565 177.44 53.62C177.452 54.3948 177.352 55.1548 177.14 55.9C176.947 56.5469 176.657 57.1469 176.27 57.7C175.89 58.2442 175.447 58.7309 174.94 59.16C174.391 59.6199 173.811 60.0365 173.2 60.41L171.58 61.34C171.06 61.6293 170.57 61.9626 170.11 62.34C169.663 62.6885 169.293 63.1051 169 63.59C168.693 64.1225 168.55 64.6958 168.57 65.31L164.15 65.31ZM164.23 74.73L164.23 69.15L168.71 69.15L168.71 74.73L164.23 74.73Z" fill="rgb(255,199,39)" fill-rule="nonzero" />
        <path id="矢量 816" d="M154.14 54.87C154.42 56.0665 154.453 57.2698 154.24 58.48C153.946 59.7903 153.28 60.8703 152.24 61.72C151.89 62.04 151.46 62.41 150.94 62.84C150.41 63.2793 149.92 63.7593 149.47 64.28C149.009 64.8134 148.645 65.4067 148.38 66.06C148.11 66.7366 148.056 67.4299 148.22 68.14C148.312 68.6544 148.519 69.1178 148.84 69.53C149.13 69.9045 149.483 70.2045 149.9 70.43C150.319 70.6547 150.766 70.788 151.24 70.83C151.727 70.8743 152.211 70.8476 152.69 70.75C153.24 70.6446 153.747 70.4346 154.21 70.12C154.63 69.8358 155.007 69.5025 155.34 69.12C155.661 68.7366 155.931 68.3199 156.15 67.87C156.355 67.464 156.535 67.0473 156.69 66.62L160.63 68.28C160.468 69.1521 160.164 69.9721 159.72 70.74C159.29 71.4891 158.756 72.1558 158.12 72.74C157.475 73.3322 156.762 73.8255 155.98 74.22C155.172 74.626 154.326 74.9193 153.44 75.1C152.429 75.3149 151.409 75.3782 150.38 75.29C149.35 75.2128 148.377 74.9361 147.46 74.46C146.513 73.966 145.71 73.2994 145.05 72.46C143.834 70.7565 143.284 68.8598 143.4 66.77C143.456 66.1007 143.616 65.4574 143.88 64.84C144.138 64.229 144.471 63.6623 144.88 63.14C145.321 62.5751 145.801 62.0451 146.32 61.55C146.78 61.13 147.25 60.71 147.71 60.31C148.156 59.9123 148.559 59.4757 148.92 59C149.274 58.5637 149.544 58.0803 149.73 57.55C149.916 56.9656 149.936 56.3756 149.79 55.78L154.14 54.87ZM152.14 45.67L153.29 51.13L148.9 52.05L147.75 46.59L152.14 45.67Z" fill="rgb(255,199,39)" fill-rule="nonzero" />
    </g>
</svg>
