<svg viewBox="0 0 500 500" xmlns="http://www.w3.org/2000/svg" xmlns:xlink="http://www.w3.org/1999/xlink" width="500" height="500" fill="none">
    <rect id="Empty-cuate 1" width="500" height="500" x="0" y="0" />
    <g id="freepik--Boxes--inject-186">
        <rect id="矩形 86" width="99.6799927" height="82.3599854" x="239.030029" y="379.050049" fill="rgb(229,178,29)" />
        <rect id="矩形 87" width="99.6799927" height="82.3599854" x="239.030029" y="379.050049" opacity="0.100000001" fill="rgb(0,0,0)" />
        <rect id="矩形 88" width="39.5" height="82.3599854" x="338.709961" y="379.060059" fill="rgb(229,178,29)" />
        <rect id="矩形 89" width="39.5" height="82.3599854" x="338.709961" y="379.060059" opacity="0.200000003" fill="rgb(0,0,0)" />
        <path id="矢量 969" d="M375.48 455.74C372.56 449.887 369.663 444.013 366.79 438.12L358.22 420.4L349.76 402.61C346.96 396.67 344.183 390.71 341.43 384.73C344.363 390.59 347.263 396.463 350.13 402.35L358.69 420.07L367.15 437.86C369.963 443.8 372.74 449.76 375.48 455.74Z" fill="rgb(229,178,29)" fill-rule="nonzero" />
        <path id="矢量 970" d="M375.48 384.73C372.733 390.73 369.957 396.69 367.15 402.61L358.69 420.4L350.13 438.12C347.257 444.007 344.357 449.88 341.43 455.74C344.183 449.74 346.96 443.78 349.76 437.86L358.22 420.07L366.79 402.36C369.663 396.46 372.56 390.583 375.48 384.73Z" fill="rgb(229,178,29)" fill-rule="nonzero" />
        <path id="矢量 971" d="M295.92 396.85L294.35 396.85L293.16 396.85L292.49 395.48L291.54 396.85L290.25 394.03L289.04 396.85L285.56 396.85L283.97 396.85L283.39 394.97L282.85 396.85L281.82 396.85L281.82 379.06L295.92 379.06L295.92 396.85Z" fill="rgb(255,255,255)" fill-rule="nonzero" />
        <rect id="矩形 90" width="74.3699951" height="82.3500061" x="270.350098" y="296.699951" fill="rgb(229,178,29)" />
        <rect id="矩形 91" width="38.3999939" height="82.3599854" x="344.719971" y="296.699951" fill="rgb(229,178,29)" />
        <rect id="矩形 92" width="38.3999939" height="82.3599854" x="344.719971" y="296.699951" opacity="0.100000001" fill="rgb(0,0,0)" />
        <g id="组合 15" opacity="0.100000001">
            <path id="矢量 972" d="M339.27 373.38C333.81 367.52 328.397 361.647 323.03 355.76L307 338L291.21 320.21C285.97 314.27 280.783 308.31 275.65 302.33C281.117 308.19 286.53 314.067 291.89 319.96L307.89 337.67L323.68 355.46C328.94 361.427 334.137 367.4 339.27 373.38Z" fill="rgb(0,0,0)" fill-rule="nonzero" />
            <path id="矢量 973" d="M339.27 302.37C334.13 308.37 328.943 314.33 323.71 320.25L307.92 338L291.92 355.72C286.587 361.607 281.173 367.48 275.68 373.34C280.82 367.34 286.007 361.38 291.24 355.46L307 337.71L323 320C328.38 314.1 333.803 308.223 339.27 302.37Z" fill="rgb(0,0,0)" fill-rule="nonzero" />
        </g>
        <rect id="矩形 93" width="6.73001099" height="9.5" x="370.98999" y="365.119995" fill="rgb(255,255,255)" />
    </g>
    <g id="freepik--Floor--inject-186">
        <path id="矢量 974" d="M41.45 461.45L93.59 461.2L145.73 461.12L250 460.95L354.27 461.12L406.41 461.2L458.55 461.45L406.41 461.69L354.27 461.78L250 461.95L145.73 461.78L93.59 461.69L41.45 461.45Z" fill="rgb(38,50,56)" fill-rule="nonzero" />
    </g>
    <g id="freepik--Fly--inject-186">
        <path id="矢量 975" d="M289.72 177.8C289.16 177.44 288.6 177.09 288.04 176.75L288.43 176.1L290.13 177.17L289.72 177.8Z" fill="rgb(38,50,56)" fill-rule="nonzero" />
        <path id="矢量 976" d="M265.3 278L264.58 278L264.58 277.25C265.916 277.28 267.25 277.23 268.58 277.1L268.66 277.85C267.57 277.93 266.43 278 265.3 278ZM272.72 277.18L272.56 276.45C273.863 276.155 275.136 275.765 276.38 275.28L276.65 275.98C275.369 276.471 274.059 276.864 272.72 277.16L272.72 277.18ZM280.35 274.18L279.98 273.53C281.131 272.858 282.221 272.098 283.25 271.25L283.73 271.82C282.67 272.705 281.543 273.495 280.35 274.19L280.35 274.18ZM286.68 268.98L286.13 268.47C287.029 267.482 287.852 266.436 288.6 265.33L289.22 265.75C288.452 266.895 287.606 267.978 286.68 269L286.68 268.98ZM291.26 262.19L290.58 261.87C291.151 260.663 291.615 259.417 291.97 258.13L292.69 258.33C292.326 259.662 291.85 260.952 291.26 262.2L291.26 262.19ZM293.42 254.27L292.67 254.21C292.67 253.67 292.74 253.12 292.74 252.59C292.737 251.848 292.694 251.108 292.61 250.37C291.831 250.318 291.058 250.221 290.29 250.08L290.42 249.34C291.644 249.561 292.877 249.674 294.12 249.68L294.38 249.68L294.38 250.43L294.11 250.43L293.36 250.43C293.44 251.154 293.48 251.881 293.48 252.61C293.49 253.15 293.46 253.72 293.42 254.28L293.42 254.27ZM298.49 249.93L298.32 249.2C299.611 248.894 300.848 248.441 302.03 247.84L302.37 248.51C301.133 249.141 299.84 249.617 298.49 249.94L298.49 249.93ZM286.31 249C285.015 248.533 283.765 247.966 282.56 247.3L282.93 246.65C284.096 247.294 285.306 247.841 286.56 248.29L286.31 249ZM291.69 246.36C291.25 245.106 290.677 243.916 289.97 242.79L290.6 242.39C291.343 243.561 291.943 244.801 292.4 246.11L291.69 246.36ZM305.81 246.2L305.33 245.63C306.347 244.771 307.27 243.821 308.1 242.78L308.68 243.25C307.824 244.34 306.867 245.333 305.81 246.23L305.81 246.2ZM279.17 245L278.96 244.8C277.958 243.92 277.188 242.87 276.65 241.65L277.35 241.37C277.844 242.487 278.55 243.447 279.47 244.25L279.67 244.43L279.17 245ZM311 239.89L310.36 239.5C311.06 238.34 311.71 237.15 312.28 235.98L312.96 236.31C312.38 237.5 311.72 238.71 311 239.89ZM287.48 239.74C286.564 238.853 285.564 238.073 284.48 237.4L284.33 237.3L284.72 236.66L284.88 236.76C285.998 237.466 287.028 238.282 287.97 239.21L287.48 239.74ZM277.55 237.81L276.93 237.39C277.855 236.09 279.115 235.45 280.71 235.47L280.71 236.22C279.386 236.212 278.333 236.742 277.55 237.81L277.55 237.81ZM314.55 232.54L313.85 232.28C314.314 231.024 314.71 229.747 315.04 228.45L315.76 228.63C315.437 229.957 315.037 231.26 314.56 232.54L314.55 232.54ZM316.55 224.61L315.8 224.51C315.979 223.183 316.082 221.849 316.11 220.51L316.86 220.51C316.833 221.882 316.729 223.249 316.55 224.61L316.55 224.61ZM315.97 216.51C315.85 215.167 315.66 213.833 315.4 212.51L316.14 212.36C316.401 213.7 316.595 215.05 316.72 216.41L315.97 216.51ZM314.42 208.65C314.04 207.39 313.59 206.12 313.07 204.86L313.77 204.58C314.29 205.85 314.77 207.15 315.14 208.43L314.42 208.65ZM311.42 201.2C310.82 200.03 310.15 198.85 309.42 197.69L310.06 197.3C310.78 198.47 311.46 199.67 312.06 200.86L311.42 201.2ZM307.21 194.34C306.44 193.26 305.61 192.19 304.75 191.15L305.33 190.67C306.2 191.72 307.04 192.81 307.82 193.9L307.21 194.34ZM302.09 188.12C301.18 187.12 300.22 186.19 299.24 185.27L299.75 184.72C300.75 185.66 301.75 186.63 302.63 187.61L302.09 188.12ZM296.22 182.59C295.22 181.74 294.13 180.9 293.06 180.1L293.5 179.5C294.59 180.3 295.67 181.15 296.7 182.02L296.22 182.59Z" fill="rgb(38,50,56)" fill-rule="nonzero" />
        <path id="矢量 977" d="M260.39 277.64C259.717 277.556 259.05 277.436 258.39 277.28L258.57 276.55C258.57 276.55 259.29 276.73 260.49 276.9L260.39 277.64Z" fill="rgb(38,50,56)" fill-rule="nonzero" />
        <path id="矢量 978" d="M250.3 276.15C249.83 280.15 258 282.39 258.62 277.15C259.24 271.91 250.77 272.12 250.3 276.15Z" fill="rgb(38,50,56)" fill-rule="nonzero" />
        <path id="矢量 979" d="M261 282.77C260.24 284.28 257.55 284.49 254.77 282.55C252.865 281.095 251.298 279.339 250.07 277.28C252.443 277.033 254.776 277.236 257.07 277.89C260.36 279 261.8 281.24 261 282.77Z" fill="rgb(235,235,235)" fill-rule="nonzero" />
        <path id="矢量 980" d="M250.1 277.28C251.68 277.99 253.23 278.76 254.78 279.52C256.33 280.28 257.86 281.09 259.37 281.93C257.79 281.22 256.24 280.45 254.69 279.69C253.14 278.93 251.61 278.12 250.1 277.28Z" fill="rgb(38,50,56)" fill-rule="nonzero" />
        <path id="矢量 981" d="M257.36 282.74C257.001 282.323 256.667 281.887 256.36 281.43C256.058 280.977 255.784 280.507 255.54 280.02C255.899 280.437 256.233 280.873 256.54 281.33C256.845 281.782 257.118 282.252 257.36 282.74Z" fill="rgb(38,50,56)" fill-rule="nonzero" />
        <path id="矢量 982" d="M254 279.23C254.551 279.087 255.107 278.973 255.67 278.89C256.237 278.81 256.807 278.76 257.38 278.74C256.27 279.016 255.143 279.18 254 279.23Z" fill="rgb(38,50,56)" fill-rule="nonzero" />
        <path id="矢量 983" d="M253.13 279.89C252.782 279.457 252.542 278.97 252.41 278.43C252.758 278.863 252.998 279.35 253.13 279.89Z" fill="rgb(38,50,56)" fill-rule="nonzero" />
        <path id="矢量 984" d="M262.32 272.3C261.93 270.65 259.37 269.83 256.22 271.07C254.026 272.047 252.093 273.397 250.42 275.12C252.689 275.906 255.022 276.239 257.42 276.12C260.79 275.84 262.72 274 262.32 272.3Z" fill="rgb(235,235,235)" fill-rule="nonzero" />
        <path id="矢量 985" d="M250.42 275.12C252.12 274.8 253.81 274.4 255.49 274.01C257.17 273.62 258.85 273.2 260.49 272.73C258.8 273.05 257.11 273.45 255.43 273.84C253.75 274.23 252.09 274.65 250.42 275.12Z" fill="rgb(38,50,56)" fill-rule="nonzero" />
        <path id="矢量 986" d="M258.75 271.48C258.315 271.79 257.898 272.123 257.5 272.48C257.103 272.854 256.726 273.247 256.37 273.66C256.81 273.356 257.227 273.023 257.62 272.66C258.02 272.289 258.396 271.895 258.75 271.48Z" fill="rgb(38,50,56)" fill-rule="nonzero" />
        <path id="矢量 987" d="M254.65 274.12C255.666 274.649 256.726 275.065 257.83 275.37C256.816 274.837 255.756 274.42 254.65 274.12Z" fill="rgb(38,50,56)" fill-rule="nonzero" />
        <path id="矢量 988" d="M254 273.28C253.781 273.444 253.585 273.63 253.41 273.84C253.237 274.055 253.087 274.285 252.96 274.53C253.179 274.363 253.375 274.173 253.55 273.96C253.732 273.755 253.882 273.528 254 273.28Z" fill="rgb(38,50,56)" fill-rule="nonzero" />
        <path id="矢量 989" d="M250.3 276.15C250.7 276.197 251.025 276.378 251.275 276.693C251.525 277.008 251.627 277.366 251.582 277.766C251.536 278.166 251.356 278.492 251.041 278.742C250.726 278.993 250.368 279.096 249.968 279.051C249.568 279.006 249.242 278.826 248.991 278.512C248.739 278.197 248.636 277.84 248.68 277.44C248.727 277.039 248.908 276.713 249.224 276.461C249.54 276.21 249.899 276.106 250.3 276.15Z" fill="rgb(69,90,100)" fill-rule="nonzero" />
        <path id="矢量 990" d="M250.64 273.24C251.042 273.286 251.37 273.468 251.621 273.785C251.873 274.103 251.975 274.463 251.928 274.865C251.881 275.268 251.699 275.595 251.381 275.846C251.063 276.096 250.702 276.198 250.3 276.15C249.899 276.102 249.573 275.92 249.323 275.603C249.073 275.286 248.972 274.926 249.018 274.525C249.065 274.124 249.247 273.798 249.563 273.547C249.88 273.297 250.239 273.194 250.64 273.24Z" fill="rgb(69,90,100)" fill-rule="nonzero" />
    </g>
    <g id="freepik--Character--inject-186">
        <path id="矢量 991" d="M160 370.31C160 370.31 138.68 413 138.67 413C136.91 421.81 135.53 429.58 135.18 433.66C135.175 433.683 135.175 433.707 135.18 433.73C134.993 434.689 135.029 435.639 135.29 436.58C135.285 436.603 135.285 436.627 135.29 436.65C137.56 438.95 207.62 455.08 210.29 454.82C212.96 454.56 212.39 447.03 210.17 444.24C207.95 441.45 183.88 423.24 183.88 423.24L204.72 380.48L160 370.31Z" fill="rgb(211,118,106)" fill-rule="nonzero" />
        <path id="矢量 992" d="M209.23 454.86C206.6 455.12 137.59 438.98 135.33 436.69C135.327 436.667 135.327 436.643 135.33 436.62C135.065 435.68 135.025 434.73 135.21 433.77C135.201 433.747 135.201 433.723 135.21 433.7C135.55 429.62 136.94 421.85 138.69 413.03L143.79 402.81L188 414.93L183.92 423.31C183.92 423.31 206.92 441.48 209.15 444.31C211.38 447.14 211.87 454.61 209.23 454.86Z" fill="rgb(235,235,235)" fill-rule="nonzero" />
        <path id="矢量 993" d="M210.19 453.74C207.52 453.94 137.29 436.04 135.05 433.66C134.19 432.77 136.2 422.38 138.99 409.9L139.08 409.51L184.52 420.56L184.31 421.32C184.31 421.32 208.12 440.2 210.31 443.08C212.5 445.96 212.85 453.55 210.19 453.74Z" fill="rgb(38,50,56)" fill-rule="nonzero" />
        <path id="矢量 994" d="M210.08 450.81C198.32 447.51 150.56 435.27 138.68 432.89C138.58 432.89 138.56 432.94 138.68 432.97C150.27 436.5 198.13 448.35 210.06 450.97C210.29 451.06 210.33 450.88 210.08 450.81Z" fill="rgb(255,255,255)" fill-rule="nonzero" />
        <path id="矢量 995" d="M188.08 422.43C183.64 420.37 177.76 419.63 173.36 422.05C173.19 422.14 173.36 422.38 173.48 422.37C178.313 422.067 183.123 422.28 187.91 423.01C188.075 423.02 188.18 422.946 188.226 422.788C188.273 422.63 188.224 422.51 188.08 422.43Z" fill="rgb(255,255,255)" fill-rule="nonzero" />
        <path id="矢量 996" d="M190.92 425.31C186.49 423.26 180.61 422.52 176.2 424.93C176.03 425.02 176.2 425.26 176.33 425.26C181.163 424.952 185.973 425.165 190.76 425.9C190.934 425.917 191.043 425.841 191.089 425.673C191.135 425.504 191.078 425.383 190.92 425.31Z" fill="rgb(255,255,255)" fill-rule="nonzero" />
        <path id="矢量 997" d="M193.77 428.2C189.33 426.14 183.45 425.4 179.05 427.81C178.88 427.91 179.05 428.15 179.18 428.14C184.01 427.837 188.816 428.051 193.6 428.78C193.764 428.79 193.87 428.716 193.916 428.558C193.962 428.4 193.914 428.281 193.77 428.2Z" fill="rgb(255,255,255)" fill-rule="nonzero" />
        <path id="矢量 998" d="M211.9 451.5C213.03 452.3 211.68 456.45 210.69 456.56C209.7 456.67 133.21 436.81 132 436.18C130.79 435.55 132.45 431.01 134 431.18C135.55 431.35 211.9 451.5 211.9 451.5Z" fill="rgb(229,178,29)" fill-rule="nonzero" />
        <path id="矢量 999" d="M148.67 420.33C144.23 416.49 138.25 423.39 142.67 427.24C147.09 431.09 153.12 424.18 148.67 420.33Z" fill="rgb(255,255,255)" fill-rule="nonzero" />
        <path id="矢量 1000" d="M143.92 399.4L195.16 412.32C195.16 412.32 242.92 326.13 241.85 304.22C240.38 274 204.9 181.08 204.9 181.08L162.42 181.08C162.42 181.08 190.61 281.53 191 298.43C191.17 307.27 143.92 399.4 143.92 399.4Z" fill="rgb(69,90,100)" fill-rule="nonzero" />
        <path id="矢量 1001" d="M197.35 401.92C194.62 400.83 170.23 393.79 152.03 389.92C151.984 389.935 151.961 389.967 151.961 390.015C151.961 390.063 151.984 390.095 152.03 390.11C157.76 392.11 193.92 401.64 197.31 402.11C197.39 402.14 197.47 402 197.35 401.92Z" fill="rgb(38,50,56)" fill-rule="nonzero" />
        <path id="矢量 1002" d="M194.52 276.85C191.14 262.67 187.52 248.53 183.72 234.48C179.92 220.43 175.85 206.25 171.38 192.31C170.84 190.6 170.27 188.91 169.72 187.21C169.68 187.073 169.592 187.025 169.455 187.065C169.318 187.105 169.27 187.193 169.31 187.33C173.31 201.22 177.31 215.08 181.1 229.02C184.89 242.96 188.5 256.94 191.9 271.02C192.75 274.5 193.58 277.97 194.39 281.46C195.332 285.04 196.059 288.663 196.57 292.33C196.994 295.862 196.758 299.348 195.86 302.79C194.893 306.149 193.637 309.396 192.09 312.53C185.963 325.83 179.84 339.133 173.72 352.44C167.6 365.78 166.61 368.82 160.72 382.27C159.99 383.94 159.26 385.61 158.56 387.27C158.56 387.38 158.67 387.48 158.73 387.36C165.43 374.18 166.46 371.01 172.73 357.59C179 344.17 185.23 330.59 191.45 317.08C194.25 310.98 197.54 304.76 197.96 297.94C198.38 290.82 196.14 283.68 194.52 276.85Z" fill="rgb(38,50,56)" fill-rule="nonzero" />
        <path id="矢量 1003" d="M196.84 387.19L198.48 434.19C198.75 443.19 199.14 451.06 199.73 455.11C199.725 455.133 199.725 455.157 199.73 455.18C199.764 456.154 200.011 457.071 200.47 457.93L200.53 457.99C203.26 459.72 275.15 459.68 277.66 458.83C280.17 457.98 277.95 450.78 275.16 448.55C272.37 446.32 244.83 434.03 244.83 434.03L242.74 387.08L196.84 387.19Z" fill="rgb(211,118,106)" fill-rule="nonzero" />
        <path id="矢量 1004" d="M198.14 424.57C198.14 424.57 198.48 434.19 198.48 434.22C198.75 443.22 199.14 451.09 199.73 455.14C199.725 455.163 199.725 455.187 199.73 455.21C199.867 456.156 200.114 457.073 200.47 457.96L200.53 458.02C203.26 459.75 275.15 459.71 277.66 458.86C280.17 458.01 277.95 450.81 275.16 448.58C272.37 446.35 244.83 434.06 244.83 434.06L244.62 424.27L198.14 424.57Z" fill="rgb(235,235,235)" fill-rule="nonzero" />
        <path id="矢量 1005" d="M277.7 458.78C275.16 459.59 202.7 458.47 199.96 456.67C198.96 456 198.46 445.44 198.28 432.67L198.28 432.27L245.04 432.47L245.04 433.27C245.04 433.27 272.59 446.1 275.38 448.39C278.17 450.68 280.25 458 277.7 458.78Z" fill="rgb(38,50,56)" fill-rule="nonzero" />
        <path id="矢量 1006" d="M276.93 456C264.72 455.51 215.42 454.69 203.31 455.14C203.21 455.14 203.21 455.21 203.31 455.21C215.4 455.96 264.71 456.39 276.93 456.21C277.18 456.15 277.19 456 276.93 456Z" fill="rgb(255,255,255)" fill-rule="nonzero" />
        <path id="矢量 1007" d="M248.94 433.45C244.15 432.45 238.25 433.12 234.53 436.45C234.38 436.58 234.53 436.78 234.73 436.74C239.36 435.327 244.086 434.417 248.91 434.01C249.041 433.968 249.111 433.878 249.118 433.74C249.125 433.603 249.066 433.506 248.94 433.45Z" fill="rgb(255,255,255)" fill-rule="nonzero" />
        <path id="矢量 1008" d="M252.38 435.59C247.58 434.59 241.69 435.27 237.97 438.64C237.82 438.77 237.97 438.97 238.16 438.92C242.793 437.505 247.523 436.599 252.35 436.2C252.522 436.179 252.613 436.081 252.621 435.908C252.63 435.734 252.549 435.628 252.38 435.59Z" fill="rgb(255,255,255)" fill-rule="nonzero" />
        <path id="矢量 1009" d="M255.81 437.74C251.02 436.74 245.13 437.41 241.4 440.74C241.26 440.87 241.4 441.07 241.6 441.03C246.23 439.618 250.957 438.708 255.78 438.3C255.911 438.258 255.981 438.168 255.988 438.03C255.995 437.893 255.936 437.796 255.81 437.74Z" fill="rgb(255,255,255)" fill-rule="nonzero" />
        <path id="矢量 1010" d="M278.85 456.2C280.14 456.72 279.79 461.07 278.85 461.4C277.91 461.73 198.85 460.16 197.56 459.84C196.27 459.52 196.79 454.71 198.36 454.48C199.93 454.25 278.85 456.2 278.85 456.2Z" fill="rgb(229,178,29)" fill-rule="nonzero" />
        <path id="矢量 1011" d="M210.12 440.55C204.91 437.84 200.69 445.94 205.91 448.65C211.13 451.36 215.34 443.26 210.12 440.55Z" fill="rgb(255,255,255)" fill-rule="nonzero" />
        <path id="矢量 1012" d="M204.37 181C204.18 181.87 193.59 223.74 192.27 224.52C190.77 225.41 230.75 279.2 235.49 305.61C238.49 322.5 245.49 420.95 245.49 420.95L194.51 420.95C194.51 420.95 189.51 337.34 187.85 309.79C187.2 299.1 147.1 249.68 143.29 216.73C142.09 206.35 149.55 180.96 149.55 180.96L204.37 181Z" fill="rgb(69,90,100)" fill-rule="nonzero" />
        <path id="矢量 1013" d="M193.22 381.17C192.62 367.32 192.07 353.44 191.06 339.61C190.49 331.77 189.37 324.18 188.59 316.37C188.59 315.96 188.22 315.86 188.23 316.28C188.59 330.19 189.74 343.95 190.48 357.85C191.22 371.75 191.93 374.99 192.72 388.85C193.16 396.69 193.55 404.53 194.16 412.36C194.175 412.406 194.207 412.429 194.255 412.429C194.303 412.429 194.335 412.406 194.35 412.36C194.38 398.44 193.83 395.07 193.22 381.17Z" fill="rgb(38,50,56)" fill-rule="nonzero" />
        <path id="矢量 1014" d="M235.54 306.27C235.103 302.607 234.397 298.997 233.42 295.44C232.367 291.989 230.991 288.672 229.29 285.49C225.82 278.83 221.87 272.39 218.06 265.92C214.25 259.45 210.28 252.84 206.26 246.38C204 242.753 201.73 239.13 199.45 235.51C197.13 231.86 194.68 228.28 192.29 224.68C192.243 224.604 192.182 224.589 192.105 224.635C192.029 224.682 192.014 224.743 192.06 224.82C195.96 231.36 199.82 237.91 203.72 244.45C207.62 250.99 211.46 257.55 215.3 264.11C219.14 270.67 222.87 277.03 226.49 283.59C228.275 286.71 229.805 289.95 231.08 293.31C232.266 296.794 233.123 300.357 233.65 304C235.01 312.47 236.12 321 237.82 329.39C237.835 329.436 237.867 329.459 237.915 329.459C237.963 329.459 237.995 329.436 238.01 329.39C237.48 321.67 236.56 313.94 235.54 306.27Z" fill="rgb(38,50,56)" fill-rule="nonzero" />
        <path id="矢量 1015" d="M241 412.21C238.09 411.83 215.88 411.06 197.3 411.86C197.18 411.86 197.19 412.04 197.3 412.05C203.35 412.58 237.56 412.82 240.97 412.42C241.06 412.41 241.1 412.23 241 412.21Z" fill="rgb(38,50,56)" fill-rule="nonzero" />
        <path id="矢量 1016" d="M198.92 221.66C193.716 223.556 188.716 225.889 183.92 228.66C183.817 228.707 183.789 228.782 183.836 228.885C183.882 228.988 183.957 229.016 184.06 228.97C189.12 226.79 194.29 224.71 199.23 222.26C199.43 222.157 199.478 222.005 199.375 221.805C199.272 221.605 199.12 221.557 198.92 221.66Z" fill="rgb(38,50,56)" fill-rule="nonzero" />
        <path id="矢量 1017" d="M200.45 187C200.45 186.83 200.13 186.79 200.13 187C200.131 192.654 199.848 198.294 199.28 203.92C199.04 206.53 196.94 220.92 192.42 219.92C191.66 219.74 191.28 219 191.16 217.85C191.173 216.351 191.373 214.878 191.76 213.43C192.26 210.43 192.66 207.43 192.92 204.34C193.452 198.647 193.392 192.96 192.74 187.28C192.72 187.206 192.672 187.168 192.595 187.168C192.518 187.168 192.47 187.206 192.45 187.28C192.581 195.161 192.121 203.008 191.07 210.82C190.5 214.57 188.61 220.22 192.54 220.82C196.47 221.42 199.12 211.95 199.6 209.36C200.856 201.944 201.14 194.49 200.45 187Z" fill="rgb(38,50,56)" fill-rule="nonzero" />
        <path id="矢量 1018" d="M192.54 220.23C192.139 221.207 191.805 222.207 191.54 223.23C191.25 224.021 191.11 224.838 191.12 225.68C191.131 225.757 191.174 225.805 191.251 225.822C191.327 225.839 191.387 225.815 191.43 225.75C191.905 225.008 192.255 224.212 192.48 223.36C192.83 222.43 193.19 221.52 193.48 220.58C193.597 220.267 193.498 220.052 193.185 219.935C192.872 219.818 192.657 219.917 192.54 220.23Z" fill="rgb(38,50,56)" fill-rule="nonzero" />
        <path id="矢量 1019" d="M194.67 323.23C194.19 316.11 194.22 308.6 191.19 302C189.578 298.779 187.732 295.699 185.65 292.76C183.583 289.6 181.543 286.423 179.53 283.23C171.53 270.46 163.81 257.43 156.78 244.08C153.39 237.65 150.27 231.01 148.57 223.91C146.899 216.379 146.589 208.792 147.64 201.15C147.88 199.26 148.14 197.38 148.45 195.5C148.453 195.44 148.424 195.403 148.366 195.389C148.307 195.375 148.265 195.395 148.24 195.45C146.586 202.7 146.029 210.033 146.57 217.45C147.345 224.555 149.302 231.318 152.44 237.74C155.54 244.45 159.23 250.91 162.87 257.34C166.623 264.007 170.487 270.577 174.46 277.05C178.46 283.51 182.58 289.84 186.71 296.2C188.829 299.217 190.452 302.48 191.58 305.99C192.492 309.642 193.012 313.348 193.14 317.11C194.14 332.85 198.14 385.18 199.56 400.84C199.73 402.84 199.91 404.84 200.1 406.84C200.068 406.958 200.113 407.017 200.235 407.017C200.358 407.017 200.403 406.958 200.37 406.84C199.77 391.12 195.7 338.92 194.67 323.23Z" fill="rgb(38,50,56)" fill-rule="nonzero" />
        <path id="矢量 1020" d="M170.2 194.8C170.2 194.69 170.02 194.73 170.02 194.8C169.87 199.17 170.02 203.69 168.31 207.8C166.77 211.59 163.67 214.25 160.2 216.24C158.18 217.373 156.104 218.39 153.97 219.29C153.82 219.36 153.88 219.6 154.05 219.55C158.05 218.27 162.18 216.88 165.53 214.2C169.11 211.32 170.68 207.15 170.85 202.65C170.911 200.01 170.695 197.394 170.2 194.8Z" fill="rgb(38,50,56)" fill-rule="nonzero" />
        <path id="矢量 1021" d="M192.39 123.57C198.11 141.13 213.56 171.04 219.08 174.65C223.97 177.84 246.98 174.28 257.08 171.85C260.84 170.94 252.38 142.28 248.37 143.33C243.56 144.59 229.23 147.82 228.19 147.02C227.15 146.22 212.7 128.42 202.46 117.94C193.14 108.45 190.23 116.93 192.39 123.57Z" fill="rgb(211,118,106)" fill-rule="nonzero" />
        <path id="矢量 1022" d="M254.87 172.07C256.8 171.83 273.13 171.07 280.62 167C284.62 164.83 294.83 157.65 293.81 155.07C292.88 152.72 289.6 154 289.6 154C289.6 154 294.11 150.73 292.79 147.47C291.47 144.21 286.02 146.66 286.02 146.66C286.02 146.66 290.41 142.96 288.86 139.81C287.31 136.66 282.25 140.03 282.25 140.03C282.25 140.03 286.42 136.84 284.05 134.78C281.19 132.3 274.16 139.06 269.41 140.64C268.33 141 247.05 146.38 247.05 146.38L254.87 172.07Z" fill="rgb(211,118,106)" fill-rule="nonzero" />
        <path id="矢量 1023" d="M282.07 139.94C276.89 144.89 273.76 146.16 266.84 147.56C266.71 147.56 266.72 147.8 266.84 147.78C273.74 147.03 277.89 146 282.3 140.18C282.54 139.89 282.31 139.7 282.07 139.94Z" fill="rgb(38,50,56)" fill-rule="nonzero" />
        <path id="矢量 1024" d="M285.85 146.54C280.02 151.22 276.64 152.62 269.5 154.62C269.4 154.62 269.44 154.83 269.55 154.81C276.71 153.43 280.83 152.31 286.04 146.87C286.28 146.63 286.12 146.33 285.85 146.54Z" fill="rgb(38,50,56)" fill-rule="nonzero" />
        <path id="矢量 1025" d="M289.25 154.08C283.25 158.2 279.64 159.91 272.46 160.96C272.373 160.96 272.33 161.003 272.33 161.09C272.33 161.177 272.373 161.22 272.46 161.22C279.89 160.86 284.46 158.77 289.33 154.28C289.69 154 289.62 153.83 289.25 154.08Z" fill="rgb(38,50,56)" fill-rule="nonzero" />
        <path id="矢量 1026" d="M241.47 147.3C241.47 147.3 247.42 140.57 250.68 138.19C253.94 135.81 269.38 131.41 270.52 134.69C271.99 138.93 263.58 143.22 259.19 144.78C259.19 144.78 262.6 154.58 257.19 158.96C251.78 163.34 241.47 147.3 241.47 147.3Z" fill="rgb(211,118,106)" fill-rule="nonzero" />
        <path id="矢量 1027" d="M270.55 136C269.1 140.83 263.2 142.51 259.05 144.34C258.698 144.492 258.645 144.715 258.89 145.01C260.05 149.21 260.45 155.47 257.51 159.01C257.43 159.11 257.56 159.25 257.66 159.16C261.33 155.8 261.43 149.61 259.87 145.09C264.16 143.28 270 141.33 270.59 136.02C270.6 136 270.56 136 270.55 136Z" fill="rgb(38,50,56)" fill-rule="nonzero" />
        <path id="矢量 1028" d="M254.86 177L247.32 142.66L228.66 146.05C221.3 137.62 206.59 120.77 200.66 115.71C193.66 109.77 189.08 114.23 191.66 123.23C197.49 143.8 214.54 174 219 176.85C225.47 181 254.86 177 254.86 177Z" fill="rgb(229,178,29)" fill-rule="nonzero" />
        <path id="矢量 1029" d="M228.22 156.5C229.146 156.701 230.083 156.811 231.03 156.83C233.03 157.1 233.91 160.05 232.09 161.17C230.036 162.435 227.889 162.619 225.65 161.72C223.65 160.94 221.96 159 222.39 156.72C222.466 156.288 222.643 155.902 222.922 155.563C223.2 155.224 223.545 154.976 223.954 154.818C224.364 154.661 224.786 154.614 225.22 154.678C225.654 154.743 226.044 154.91 226.39 155.18C226.946 155.694 227.556 156.134 228.22 156.5ZM223.06 148.33C222.34 151.73 227.6 154.65 230.29 152.84C230.753 152.489 230.992 152.023 231.007 151.442C231.021 150.861 230.805 150.383 230.36 150.01C229.57 149.37 228.91 149.27 228.21 148.69C227.964 148.498 227.751 148.274 227.57 148.02C227.169 147.467 226.672 147.02 226.08 146.68C225.771 146.548 225.449 146.49 225.114 146.506C224.779 146.523 224.464 146.611 224.169 146.772C223.875 146.933 223.63 147.15 223.436 147.423C223.241 147.697 223.116 147.999 223.06 148.33ZM214.67 148.51C213.59 149.92 214.4 152.04 215.35 153.32C216.289 154.72 217.599 155.356 219.28 155.23C219.904 155.142 220.304 154.795 220.479 154.19C220.654 153.584 220.501 153.077 220.02 152.67C219.409 152.206 218.943 151.626 218.62 150.93C218.15 149.87 217.84 148.5 216.62 148.04C215.856 147.726 215.206 147.883 214.67 148.51ZM236.82 170.75C235.41 173.6 239.7 176.84 242.3 176.28C243.17 176.09 244.01 174.95 243.24 174.13C242.62 173.47 241.88 172.95 241.3 172.25C240.59 171.4 240.2 170.31 239.09 169.88C238.656 169.698 238.22 169.692 237.781 169.86C237.341 170.028 237.021 170.325 236.82 170.75L236.82 170.75ZM196.54 135.8C196.291 135.327 195.958 134.923 195.54 134.59C196.1 136.023 196.69 137.46 197.31 138.9C197.344 137.794 197.087 136.761 196.54 135.8ZM202.11 132.8C201.909 130.267 200.989 128.031 199.35 126.09C198.15 124.54 196.07 122.09 193.87 122.62C193.331 122.788 193.064 123.155 193.07 123.72C192.93 125.41 194.87 127.22 195.71 128.57C196.71 130.27 197.5 132.15 198.58 133.84C199.101 134.642 199.82 134.907 200.737 134.634C201.654 134.361 202.112 133.747 202.11 132.79L202.11 132.8ZM201.46 143.55C202.36 143.503 202.92 143.043 203.14 142.17C203.298 141.38 203.248 140.603 202.99 139.84C202.837 139.111 202.504 138.478 201.99 137.94C201.806 137.77 201.593 137.657 201.349 137.6C201.106 137.543 200.864 137.549 200.624 137.62C200.384 137.691 200.177 137.816 200.004 137.996C199.83 138.176 199.712 138.388 199.65 138.63C199.57 139.217 199.57 139.803 199.65 140.39C199.65 140.64 199.65 140.89 199.65 141.15C199.645 141.528 199.685 141.901 199.77 142.27C200.018 143.113 200.581 143.536 201.46 143.54L201.46 143.55Z" opacity="0.100000001" fill="rgb(3,4,2)" fill-rule="nonzero" />
        <path id="矢量 1030" d="M248.33 174C247.47 172 245.33 163.12 244.86 160.91C244.39 158.7 242.65 149.76 242.14 147.49C242.14 147.36 242.28 147.29 242.31 147.41C242.85 149.65 245.26 158.47 245.79 160.67C246.32 162.87 248.31 171.74 248.45 173.97C248.459 174.01 248.444 174.034 248.405 174.044C248.365 174.054 248.34 174.039 248.33 174Z" fill="rgb(38,50,56)" fill-rule="nonzero" />
        <path id="矢量 1031" d="M231 178.72C225.75 178.72 221.14 178.22 219 176.85C214.51 173.95 197.46 143.85 191.59 123.24C190.11 118.08 191 114.4 193.34 113.33L231 178.72Z" opacity="0.100000001" fill="rgb(0,0,0)" fill-rule="nonzero" />
        <path id="矢量 1032" d="M146.38 185.71C146.51 185.9 208.91 193.9 209.58 193.32C209.933 191.581 210.183 189.828 210.33 188.06C210.33 188.06 204.61 120.12 201.65 116.13C199.06 112.65 191.2 110.13 185.85 112.4C174.62 117.16 147.73 177.86 148.02 180.4C148 180.37 146.22 185.47 146.38 185.71Z" fill="rgb(229,178,29)" fill-rule="nonzero" />
        <path id="矢量 1033" d="M168.88 177.44C169.845 177.908 170.845 178.282 171.88 178.56C173.96 179.39 174.15 182.86 171.88 183.56C169.287 184.383 166.887 183.999 164.68 182.41C162.68 181.01 161.39 178.41 162.47 176.09C162.672 175.641 162.97 175.27 163.366 174.978C163.761 174.685 164.203 174.508 164.691 174.447C165.18 174.386 165.652 174.448 166.107 174.634C166.563 174.819 166.944 175.105 167.25 175.49C167.81 176.14 168.15 177 168.88 177.44ZM165.46 167.11C163.75 170.64 168.7 175.25 172.13 174C172.421 173.883 172.671 173.708 172.88 173.474C173.089 173.24 173.234 172.972 173.317 172.669C173.4 172.367 173.41 172.061 173.349 171.754C173.288 171.446 173.162 171.168 172.97 170.92C172.29 170.01 171.59 169.72 170.97 168.92C170.755 168.642 170.585 168.339 170.46 168.01C170.161 167.305 169.738 166.685 169.19 166.15C168 165 166.09 165.81 165.46 167.11ZM159.68 163.35C157.81 164.05 157.33 166.57 157.47 168.35C157.533 170.249 158.407 171.639 160.09 172.52C160.738 172.809 161.326 172.717 161.854 172.243C162.382 171.77 162.537 171.195 162.32 170.52C161.997 169.707 161.891 168.867 162 168C162.17 166.72 162.68 165.22 161.83 164.07C161.288 163.31 160.571 163.07 159.68 163.35L159.68 163.35ZM180.18 175.25C179.689 175.208 179.25 175.34 178.864 175.647C178.478 175.954 178.25 176.352 178.18 176.84C178.127 177.361 178.247 177.839 178.539 178.274C178.831 178.709 179.228 179.001 179.73 179.15C180.43 179.381 181.13 179.381 181.83 179.15C182.191 179.007 182.461 178.764 182.64 178.42C182.847 178.088 182.924 177.728 182.87 177.34C182.745 176.545 182.288 176.065 181.5 175.9C181.437 175.816 181.363 175.743 181.28 175.68C180.956 175.428 180.589 175.285 180.18 175.25L180.18 175.25ZM164.85 151.12C163.17 152.84 163.85 156.75 165.77 158.07C166.022 158.261 166.304 158.377 166.617 158.418C166.93 158.459 167.233 158.419 167.525 158.299C167.817 158.178 168.06 157.993 168.254 157.744C168.447 157.494 168.566 157.213 168.61 156.9C168.64 156.503 168.64 156.107 168.61 155.71C168.61 155.28 168.55 155.01 168.61 154.71C168.76 153.851 168.79 152.987 168.7 152.12C168.527 151.207 167.991 150.634 167.092 150.401C166.193 150.167 165.445 150.407 164.85 151.12ZM154 176C151.69 178.74 155.5 183.44 158.49 183.53C159.49 183.53 160.72 182.53 160.1 181.43C159.6 180.55 158.93 179.77 158.49 178.86C157.95 177.74 157.82 176.43 156.72 175.67C156.294 175.357 155.819 175.232 155.295 175.296C154.77 175.36 154.339 175.594 154 176ZM209.17 175.13C208.322 175.257 207.795 175.737 207.59 176.57C207.27 177.68 207.23 178.67 206.4 179.57C205.498 180.279 204.698 181.089 204 182C203.882 182.23 203.829 182.475 203.84 182.733C203.851 182.992 203.925 183.231 204.062 183.45C204.2 183.67 204.382 183.841 204.61 183.964C204.838 184.087 205.081 184.146 205.34 184.14C207.152 183.917 208.642 183.104 209.81 181.7C209.61 179.8 209.41 177.57 209.18 175.09L209.17 175.13ZM204.17 166.88C203.61 168.24 203.71 169.78 203.24 171.2C202.827 172.503 202.337 173.776 201.77 175.02C201.35 175.92 202.19 177.34 203.28 176.86C205.118 176.154 206.472 174.918 207.34 173.15C208.1 171.58 208.94 168.94 208.21 167.27C207.48 165.6 205 164.87 204.15 166.84L204.17 166.88ZM198.47 180.51C197.628 181.598 196.592 182.448 195.36 183.06C194.746 183.251 194.306 183.639 194.043 184.226C193.779 184.813 193.779 185.399 194.044 185.986C194.31 186.572 194.749 186.959 195.364 187.149C195.979 187.338 196.561 187.265 197.11 186.93C199.313 185.985 200.76 184.365 201.45 182.07C201.92 180.34 199.58 179.21 198.45 180.47L198.47 180.51ZM189.33 131.51C189.911 131.633 190.453 131.537 190.956 131.224C191.46 130.91 191.784 130.465 191.93 129.89C192.49 127.74 190.57 125.53 189.05 124.19C187.53 122.85 185.39 121.63 183.26 122.32C182.972 122.413 182.724 122.571 182.518 122.793C182.312 123.015 182.172 123.273 182.1 123.567C182.028 123.861 182.032 124.155 182.112 124.447C182.192 124.739 182.338 124.994 182.55 125.21C183.48 126.37 184.77 127.21 185.76 128.35C186.75 129.49 187.57 131.18 189.31 131.47L189.33 131.51ZM197 140C197.84 138.79 197.19 137 196.59 135.85C196.264 135.202 195.787 134.695 195.16 134.33C194.73 134.055 194.266 133.971 193.767 134.078C193.268 134.185 192.879 134.453 192.6 134.88C192.317 135.471 192.277 136.077 192.48 136.7C192.564 137.014 192.677 137.318 192.82 137.61L192.82 137.7L192.82 137.78C193.001 138.749 193.395 139.622 194 140.4C194.443 140.846 194.976 141.028 195.599 140.944C196.222 140.861 196.689 140.547 197 140ZM202.16 132.84C201.959 130.307 201.039 128.071 199.4 126.13C198.2 124.58 196.12 122.13 193.92 122.66C193.381 122.828 193.114 123.195 193.12 123.76C192.98 125.45 194.92 127.26 195.76 128.61C196.76 130.31 197.55 132.19 198.63 133.88C199.169 134.632 199.881 134.87 200.764 134.593C201.647 134.317 202.096 133.715 202.11 132.79L202.16 132.84ZM194.61 149.96C194.98 150.041 195.35 150.041 195.72 149.96C196.295 149.783 196.732 149.433 197.03 148.91C197.303 148.365 197.433 147.789 197.42 147.18C197.402 146.603 197.252 146.063 196.97 145.56L196.64 145.15L196.2 144.83C195.612 144.527 195.016 144.51 194.412 144.781C193.808 145.053 193.424 145.509 193.26 146.15C193.093 146.733 192.977 147.327 192.91 147.93L193 148.48C193.071 148.76 193.204 149.007 193.4 149.22C193.71 149.578 194.097 149.808 194.56 149.91L194.61 149.96ZM201.51 143.59C202.41 143.543 202.97 143.083 203.19 142.21C203.348 141.42 203.298 140.643 203.04 139.88C202.888 139.151 202.554 138.518 202.04 137.98C201.856 137.81 201.643 137.697 201.399 137.64C201.156 137.583 200.914 137.589 200.674 137.66C200.434 137.731 200.227 137.856 200.054 138.036C199.88 138.216 199.762 138.428 199.7 138.67C199.62 139.257 199.62 139.843 199.7 140.43C199.7 140.68 199.7 140.93 199.7 141.19C199.695 141.568 199.735 141.941 199.82 142.31C200.075 143.108 200.622 143.518 201.46 143.54L201.51 143.59Z" opacity="0.100000001" fill="rgb(3,4,2)" fill-rule="nonzero" />
        <path id="矢量 1034" d="M198 126.78C194.19 126.43 189.31 118.29 188.38 113.12C188.32 112.76 189.84 109.75 191.51 106.01C192.51 103.74 193.59 101.18 194.39 98.78L208.23 107.49C206.355 110.217 204.839 113.13 203.68 116.23C203.576 116.557 203.503 116.89 203.46 117.23C203.463 117.287 203.463 117.343 203.46 117.4C203.11 119.4 201.69 127.12 198 126.78Z" fill="rgb(211,118,106)" fill-rule="nonzero" />
        <path id="矢量 1035" d="M203.46 117.25C203.463 117.307 203.463 117.363 203.46 117.42C202.926 117.315 202.403 117.172 201.89 116.99C193.23 113.87 194.76 102.51 195.37 99.37L198.82 101.55L208.27 107.55C206.396 110.276 204.883 113.189 203.73 116.29C203.611 116.602 203.521 116.922 203.46 117.25Z" fill="rgb(38,50,56)" fill-rule="nonzero" />
        <path id="矢量 1036" d="M195.84 82.75C192.98 87.9 192.48 104.44 195.65 108.83C200.23 115.19 209.43 117.67 215.26 111.83C220.91 106.11 221.17 84.54 217.49 80.38C212.05 74.2 200.06 75.14 195.84 82.75Z" fill="rgb(211,118,106)" fill-rule="nonzero" />
        <path id="矢量 1037" d="M209.12 96.12C209.12 96.12 209.03 96.12 209.03 96.22C209.03 97.36 208.83 98.66 207.79 99L207.79 99.07C209.06 98.93 209.3 97.2 209.12 96.12Z" fill="rgb(38,50,56)" fill-rule="nonzero" />
        <path id="矢量 1038" d="M208.15 94.9C206.32 94.7 206.05 98.36 207.74 98.55C209.43 98.74 209.68 95.07 208.15 94.9Z" fill="rgb(38,50,56)" fill-rule="nonzero" />
        <path id="矢量 1039" d="M215.68 96.51C215.68 96.51 215.76 96.57 215.76 96.62C215.63 97.75 215.68 99.07 216.67 99.52C216.67 99.52 216.67 99.6 216.67 99.59C215.42 99.31 215.38 97.56 215.68 96.51Z" fill="rgb(38,50,56)" fill-rule="nonzero" />
        <path id="矢量 1040" d="M216.79 95.4101C218.62 95.4101 218.47 99.0801 216.79 99.0801C215.11 99.0801 215.25 95.4001 216.79 95.4101Z" fill="rgb(38,50,56)" fill-rule="nonzero" />
        <path id="矢量 1041" d="M209.63 94.16C209.12 94.27 208.63 94.28 208.13 94.34C207.598 94.4793 207.078 94.4426 206.57 94.23C206.236 94.0096 206.132 93.7096 206.26 93.33C206.62 92.6755 207.173 92.3421 207.92 92.33C208.637 92.1922 209.304 92.3189 209.92 92.71C210.195 92.9168 210.299 93.1889 210.231 93.5263C210.164 93.8637 209.963 94.075 209.63 94.16Z" fill="rgb(38,50,56)" fill-rule="nonzero" />
        <path id="矢量 1042" d="M218.43 92C217.944 91.8637 217.467 91.7003 217 91.51C216.459 91.408 216.006 91.1513 215.64 90.74C215.433 90.3981 215.469 90.0848 215.75 89.8C216.353 89.3394 216.999 89.2661 217.69 89.58C218.389 89.7714 218.936 90.1714 219.33 90.78C219.507 91.0924 219.489 91.3931 219.276 91.682C219.063 91.971 218.781 92.077 218.43 92Z" fill="rgb(38,50,56)" fill-rule="nonzero" />
        <path id="矢量 1043" d="M208.29 105.14C209.783 104.782 211.277 104.782 212.77 105.14C212.9 105.14 213.03 104.88 213.06 104.76L213.14 102.36C213.45 102.54 215.01 103.36 215.01 102.92C215.173 99.009 214.937 95.1223 214.3 91.26C214.284 91.2085 214.249 91.1827 214.195 91.1827C214.141 91.1827 214.106 91.2085 214.09 91.26C213.93 94.87 214.39 98.47 214.28 102.1C213.725 101.793 213.139 101.569 212.52 101.43C212.39 101.43 212.52 103.98 212.52 104.36C211.089 103.867 209.689 103.944 208.32 104.59C207.8 104.92 207.59 105.36 208.29 105.14Z" fill="rgb(38,50,56)" fill-rule="nonzero" />
        <path id="矢量 1044" d="M205.33 107.52C205.58 107.8 205.83 108.18 206.23 108.24C206.655 108.26 207.065 108.19 207.46 108.03C207.46 108.03 207.53 108.03 207.46 108.09C207.079 108.56 206.592 108.733 206 108.61C205.511 108.454 205.238 108.12 205.18 107.61C205.2 107.5 205.29 107.48 205.33 107.52Z" fill="rgb(38,50,56)" fill-rule="nonzero" />
        <path id="矢量 1045" d="M200.67 77.5C200.52 80.07 199.91 88.04 198.67 89.66C197.43 91.28 194.81 95.05 193.48 95.66C193.66 90.35 194.48 85.3 195.85 82.66C196.993 80.5071 198.6 78.7871 200.67 77.5Z" opacity="0.200000003" fill="rgb(38,50,56)" fill-rule="nonzero" />
        <path id="矢量 1046" d="M214.92 85.2901C213.395 86.8426 211.571 87.376 209.45 86.8901C207.276 86.4064 205.833 85.1097 205.12 83.0001C205.12 82.9401 205.01 83.0001 205.03 83.0001C205.289 84.063 205.805 84.9816 206.578 85.7561C207.35 86.5306 208.268 87.0486 209.33 87.3101C210.389 87.5122 211.427 87.4345 212.445 87.077C213.462 86.7194 214.32 86.1304 215.02 85.3101C215.08 85.3201 215 85.2301 214.92 85.2901Z" fill="rgb(38,50,56)" fill-rule="nonzero" />
        <path id="矢量 1047" d="M209.9 70.47C208.338 70.3644 206.847 70.6401 205.427 71.2971C204.006 71.9541 202.831 72.9117 201.9 74.17C201.097 75.4675 200.783 76.8742 200.96 78.39L201.09 78.39C201.109 77.074 201.464 75.8556 202.155 74.735C202.845 73.6143 203.773 72.7493 204.94 72.14C207.626 70.6366 210.379 70.4999 213.2 71.73C214.536 72.2807 215.536 73.1973 216.2 74.48C216.26 74.61 216.52 74.55 216.47 74.42C215.65 72.24 213 70.62 209.9 70.47Z" fill="rgb(38,50,56)" fill-rule="nonzero" />
        <path id="矢量 1048" d="M229 79.1901C228.551 77.4422 227.591 76.0456 226.12 75.0001C224.12 73.5701 221.78 73.5901 219.44 73.6701C219.37 73.6701 219.38 73.7701 219.44 73.7601C221.472 73.5479 223.399 73.9046 225.22 74.8301C226.716 75.728 227.759 76.998 228.35 78.6401C228.622 79.457 228.743 80.2957 228.713 81.1563C228.682 82.0169 228.502 82.845 228.172 83.6405C227.842 84.436 227.384 85.1487 226.797 85.7785C226.209 86.4083 225.53 86.9155 224.76 87.3C222.866 88.1903 220.946 88.2503 219 87.48C218.93 87.48 218.87 87.55 218.94 87.59C220.212 88.1518 221.536 88.3358 222.913 88.1419C224.289 87.948 225.511 87.4055 226.579 86.5144C227.646 85.6233 228.398 84.5177 228.834 83.1976C229.27 81.8775 229.326 80.5417 229 79.1901Z" fill="rgb(38,50,56)" fill-rule="nonzero" />
        <path id="矢量 1049" d="M194.84 86C194.84 86 192.08 79.71 195.03 76.41C196.7 74.55 201.72 75.19 201.72 75.19C203.281 73.2081 205.315 72.0681 207.82 71.77C212.11 71.1 217 74 217 74C217 74 221.18 72 224.77 74.43C229.77 77.82 228.52 85.75 223.06 87.91C219.22 89.44 214.44 85.78 214.44 85.78C213.96 85.78 208.78 88.42 205.37 83.72C205.37 83.72 202.13 86.19 199.54 84.09C199.035 84.871 198.353 85.4365 197.491 85.7865C196.63 86.1365 195.746 86.2077 194.84 86Z" fill="rgb(38,50,56)" fill-rule="nonzero" />
        <path id="矢量 1050" d="M196.47 96.45C196.47 96.45 193.85 90.58 191.26 91.45C188.67 92.32 189.93 100.3 192.49 101.86C193.147 102.317 193.869 102.469 194.655 102.316C195.441 102.163 196.052 101.751 196.49 101.08L196.47 96.45Z" fill="rgb(211,118,106)" fill-rule="nonzero" />
        <path id="矢量 1051" d="M191.68 93.71L191.68 93.78C193.46 94.93 194.13 96.92 194.48 98.91C194.32 98.454 194.014 98.139 193.563 97.9651C193.113 97.7912 192.675 97.8195 192.25 98.05C192.19 98.05 192.25 98.16 192.25 98.16C193.085 98.0634 193.678 98.3968 194.03 99.16C194.302 99.7027 194.509 100.269 194.65 100.86C194.65 101.05 195.03 101.02 195.01 100.86C195.52 98.28 194.27 94.47 191.68 93.71Z" fill="rgb(38,50,56)" fill-rule="nonzero" />
        <rect id="矩形 94" width="112.600006" height="66.2799988" x="0" y="0" fill="rgb(229,178,29)" transform="matrix(0.956152,-0.292872,0.292872,0.956152,227.415,141.078)" />
        <rect id="矩形 95" width="112.600006" height="66.2799988" x="0" y="0" opacity="0.200000003" fill="rgb(0,0,0)" transform="matrix(0.956152,-0.292872,0.292872,0.956152,227.415,141.078)" />
        <rect id="矩形 96" width="37.8399963" height="66.2799988" x="0" y="0" opacity="0.200000003" fill="rgb(0,0,0)" transform="matrix(0.956152,-0.292872,0.292872,0.956152,298.892,119.183)" />
        <path id="矢量 1052" d="M333.34 111.33C332.12 116.943 330.933 122.557 329.78 128.17L326.37 145.05L323.07 162C321.99 167.64 320.937 173.29 319.91 178.95C321.13 173.343 322.317 167.73 323.47 162.11L326.88 145.23L330.18 128.32C331.26 122.653 332.313 116.99 333.34 111.33Z" fill="rgb(229,178,29)" fill-rule="nonzero" />
        <path id="矢量 1053" d="M351.11 169.35C347.11 165.243 343.073 161.153 339 157.08L326.8 144.92L314.52 132.85C310.413 128.85 306.287 124.85 302.14 120.85C306.14 124.963 310.177 129.053 314.25 133.12L326.45 145.28L338.73 157.35C342.843 161.39 346.97 165.39 351.11 169.35Z" fill="rgb(229,178,29)" fill-rule="nonzero" />
        <rect id="矩形 97" width="0.619995117" height="8.71000671" x="0" y="0" fill="rgb(38,50,56)" transform="matrix(-0.956152,0.292872,-0.292872,-0.956152,248.686,149.063)" />
        <rect id="矩形 98" width="0.619995117" height="8.71000671" x="0" y="0" fill="rgb(38,50,56)" transform="matrix(-0.956152,0.292872,-0.292872,-0.956152,247.278,149.486)" />
        <rect id="矩形 99" width="0.619995117" height="8.71000671" x="0" y="0" fill="rgb(38,50,56)" transform="matrix(-0.956152,0.292872,-0.292872,-0.956152,245.857,149.939)" />
        <rect id="矩形 100" width="0.619995117" height="8.71000671" x="0" y="0" fill="rgb(38,50,56)" transform="matrix(-0.956203,0.292706,-0.292706,-0.956203,244.45,150.348)" />
        <rect id="矩形 101" width="0.619995117" height="8.71000671" x="0" y="0" fill="rgb(38,50,56)" transform="matrix(-0.956152,0.292872,-0.292872,-0.956152,243.031,150.788)" />
        <rect id="矩形 102" width="0.619995117" height="8.71000671" x="0" y="0" fill="rgb(38,50,56)" transform="matrix(-0.956152,0.292872,-0.292872,-0.956152,241.62,151.212)" />
        <rect id="矩形 103" width="0.619995117" height="8.71000671" x="0" y="0" fill="rgb(38,50,56)" transform="matrix(-0.956152,0.292872,-0.292872,-0.956152,240.192,151.678)" />
        <rect id="矩形 104" width="0.619995117" height="8.71000671" x="0" y="0" fill="rgb(38,50,56)" transform="matrix(-0.9561,0.293039,-0.293039,-0.9561,238.779,152.098)" />
        <rect id="矩形 105" width="0.619995117" height="8.71000671" x="0" y="0" fill="rgb(38,50,56)" transform="matrix(-0.956152,0.292872,-0.292872,-0.956152,237.353,152.547)" />
        <path id="矢量 1054" d="M252.13 139.59L249.67 139.65L255 138L252.92 139.34L253.86 142.4C255.55 142.11 256.69 143.52 257.55 146.32L252.22 148C251.36 145.21 251.51 143.4 253.07 142.69L252.13 139.59Z" fill="rgb(38,50,56)" fill-rule="nonzero" />
        <path id="矢量 1055" d="M257.49 141.72L258.88 141.29L257.63 137.21L261.19 136.12L262.44 140.2L263.84 139.77L261.96 144.99L257.49 141.72Z" fill="rgb(38,50,56)" fill-rule="nonzero" />
        <path id="矢量 1056" d="M227.42 141.08L229.01 146.28L303.43 134L298.89 119.19L227.42 141.08Z" opacity="0.100000001" fill="rgb(0,0,0)" fill-rule="nonzero" />
        <path id="矢量 1057" d="M368.44 178.66L332.25 189.74L318.3 182.56L354.49 171.47L368.44 178.66Z" fill="rgb(229,178,29)" fill-rule="nonzero" />
        <path id="矢量 1058" d="M368.44 178.66L332.25 189.74L318.3 182.56L354.49 171.47L368.44 178.66Z" opacity="0.200000003" fill="rgb(0,0,0)" fill-rule="nonzero" />
        <path id="矢量 1059" d="M239.29 218.22L275.48 207.13L283.01 193.37L246.82 204.45L239.29 218.22Z" fill="rgb(229,178,29)" fill-rule="nonzero" />
        <path id="矢量 1060" d="M239.29 218.22L275.48 207.13L283.01 193.37L246.82 204.45L239.29 218.22Z" opacity="0.100000001" fill="rgb(0,0,0)" fill-rule="nonzero" />
        <path id="矢量 1061" d="M179.73 131.3C185.02 148.99 199.73 179.3 205.19 183C210 186.31 233.09 183.3 243.19 181.11C246.97 180.3 239.19 151.44 235.19 152.39C230.35 153.54 215.94 156.39 214.92 155.6C213.9 154.81 199.92 136.6 189.92 125.92C180.84 116.2 177.73 124.61 179.73 131.3Z" fill="rgb(211,118,106)" fill-rule="nonzero" />
        <path id="矢量 1062" d="M233.11 154.74C233.11 154.74 240.76 146.12 246.18 142.83C251.987 139.506 258.234 137.723 264.92 137.48C272.03 137.2 289.42 141.42 289.07 146.64C288.76 151.37 271.21 146.15 271.21 146.15C271.21 146.15 289.98 148.52 288.56 154.15C287.14 159.78 267.11 152.55 267.11 152.55C267.11 152.55 286.34 155.41 284 161C282.2 165.21 263.69 159.69 263.69 159.69C263.69 159.69 280.21 162.27 278.54 166.69C276.7 171.56 259.29 167.54 259.29 167.54C253.18 178.02 245.97 180.54 240.64 181.67C239.31 181.9 233.11 154.74 233.11 154.74Z" fill="rgb(211,118,106)" fill-rule="nonzero" />
        <path id="矢量 1063" d="M264.77 144.91C266.98 145.11 269.23 145.3 271.42 145.69C273.61 146.08 275.78 146.56 277.93 147.16C280.756 147.886 283.462 148.923 286.05 150.27C281.3 148.22 273.48 146.68 271.29 146.27C269.1 145.86 266.93 145.37 264.75 144.98C264.69 145 264.71 144.91 264.77 144.91Z" fill="rgb(38,50,56)" fill-rule="nonzero" />
        <path id="矢量 1064" d="M263.2 152.8C266.01 153.17 268.83 153.44 271.63 153.94C274.43 154.44 277.02 155.16 279.77 155.85C279.98 155.9 279.88 156 279.67 155.95C276.89 155.37 274.29 155.05 271.51 154.51C268.73 153.97 265.97 153.31 263.18 152.86C263.14 152.86 263.15 152.79 263.2 152.8Z" fill="rgb(38,50,56)" fill-rule="nonzero" />
        <path id="矢量 1065" d="M260.63 159.32C264.978 159.792 269.232 160.705 273.39 162.06C273.6 162.12 273.46 162.23 273.24 162.18C269.02 161.18 265.71 160.38 260.62 159.47C260.54 159.46 260.54 159.31 260.63 159.32Z" fill="rgb(38,50,56)" fill-rule="nonzero" />
        <path id="矢量 1066" d="M240.9 186.23L234.18 151.71L215.45 154.65C208.29 146.05 193.99 128.85 188.15 123.65C181.3 117.54 176.61 121.9 178.96 130.95C184.34 151.64 200.66 182.2 205.08 185.2C211.42 189.5 240.9 186.23 240.9 186.23Z" fill="rgb(229,178,29)" fill-rule="nonzero" />
        <path id="矢量 1067" d="M228.22 156.5C229.146 156.701 230.083 156.811 231.03 156.83C233.03 157.1 233.91 160.05 232.09 161.17C230.036 162.435 227.889 162.619 225.65 161.72C223.65 160.94 221.96 159 222.39 156.72C222.466 156.288 222.643 155.902 222.922 155.563C223.201 155.224 223.545 154.976 223.954 154.818C224.364 154.661 224.786 154.614 225.22 154.678C225.654 154.743 226.044 154.91 226.39 155.18C226.946 155.695 227.556 156.135 228.22 156.5ZM226.22 152.96C227.574 153.613 228.907 153.573 230.22 152.84C230.448 152.688 230.622 152.488 230.74 152.24L226.22 152.96ZM216.49 154.48C217.314 155.082 218.234 155.332 219.25 155.23C220.053 155.12 220.473 154.66 220.51 153.85L216.49 154.48ZM237.69 169.89C237.28 170.062 236.98 170.348 236.79 170.75C235.95 172.44 237.12 174.26 238.79 175.35L237.69 169.89ZM207.57 176.53C207.25 177.64 207.21 178.63 206.38 179.53C205.483 180.253 204.689 181.077 204 182C203.882 182.23 203.828 182.475 203.84 182.734C203.851 182.992 203.925 183.231 204.062 183.451C204.2 183.67 204.382 183.841 204.61 183.964C204.838 184.087 205.081 184.146 205.34 184.14C206.211 184.033 207.033 183.771 207.806 183.355C208.578 182.938 209.249 182.396 209.818 181.727C210.386 181.059 210.814 180.31 211.101 179.48C211.388 178.65 211.514 177.797 211.48 176.92C211.348 175.865 210.753 175.285 209.695 175.178C208.638 175.072 207.939 175.523 207.6 176.53L207.57 176.53ZM204.12 166.84C203.56 168.2 203.66 169.74 203.19 171.16C202.777 172.463 202.287 173.736 201.72 174.98C201.3 175.88 202.14 177.3 203.23 176.82C205.068 176.114 206.422 174.878 207.29 173.11C208.05 171.54 208.89 168.9 208.16 167.23C207.43 165.56 205 164.87 204.15 166.84L204.12 166.84ZM189.28 131.47C189.861 131.593 190.403 131.497 190.906 131.184C191.41 130.87 191.734 130.425 191.88 129.85C192.44 127.7 190.52 125.49 189 124.15C187.48 122.81 185.34 121.59 183.21 122.28C182.922 122.373 182.674 122.531 182.468 122.753C182.262 122.975 182.122 123.233 182.05 123.527C181.978 123.822 181.982 124.115 182.062 124.407C182.142 124.699 182.288 124.954 182.5 125.17C183.43 126.33 184.72 127.17 185.71 128.31C186.7 129.45 187.57 131.18 189.31 131.47L189.28 131.47ZM197 140C197.84 138.79 197.19 137 196.59 135.85C196.264 135.202 195.787 134.695 195.16 134.33C194.73 134.055 194.266 133.971 193.767 134.078C193.268 134.185 192.879 134.453 192.6 134.88C192.317 135.471 192.277 136.077 192.48 136.7C192.564 137.014 192.677 137.318 192.82 137.61L192.82 137.7L192.82 137.78C193.001 138.749 193.395 139.622 194 140.4C194.443 140.846 194.976 141.028 195.599 140.945C196.222 140.861 196.689 140.547 197 140ZM194.61 150C194.98 150.081 195.35 150.081 195.72 150C196.295 149.823 196.732 149.473 197.03 148.95C197.303 148.406 197.433 147.829 197.42 147.22C197.402 146.643 197.252 146.103 196.97 145.6L196.64 145.19L196.2 144.87C195.612 144.567 195.016 144.55 194.412 144.822C193.808 145.093 193.424 145.549 193.26 146.19C193.093 146.774 192.977 147.367 192.91 147.97L193 148.52C193.071 148.8 193.204 149.047 193.4 149.26C193.716 149.603 194.102 149.82 194.56 149.91L194.61 150ZM203 139.85L201 137.6C200.226 137.508 199.749 137.841 199.57 138.6C199.49 139.187 199.49 139.773 199.57 140.36C199.57 140.61 199.57 140.86 199.57 141.12C199.565 141.498 199.605 141.872 199.69 142.24C199.945 143.129 200.535 143.556 201.46 143.52C202.36 143.474 202.92 143.014 203.14 142.14C203.293 141.365 203.246 140.601 203 139.85Z" opacity="0.100000001" fill="rgb(3,4,2)" fill-rule="nonzero" />
        <path id="矢量 1068" d="M234.44 183.06C233.63 181.01 231.73 172.11 231.28 169.88C230.83 167.65 229.34 158.69 228.89 156.4C228.89 156.28 229.03 156.2 229.06 156.33C229.54 158.58 231.75 167.45 232.22 169.67C232.69 171.89 234.48 180.79 234.56 183.03C234.569 183.07 234.554 183.094 234.515 183.104C234.475 183.114 234.45 183.099 234.44 183.06Z" fill="rgb(38,50,56)" fill-rule="nonzero" />
        <path id="矢量 1069" d="M228.26 187.2C225.19 187.38 222.12 187.45 219.05 187.43C215.966 187.443 212.892 187.267 209.83 186.9C208.252 186.744 206.739 186.344 205.29 185.7C203.986 184.779 202.879 183.662 201.97 182.35C200.155 179.845 198.519 177.228 197.06 174.5C194.06 169.11 191.48 163.5 188.96 157.92C186.44 152.34 184.15 146.6 182.05 140.82C184.6 146.41 187.12 152.01 189.74 157.56C192.36 163.11 195.01 168.64 197.87 174.05C199.299 176.751 200.872 179.364 202.59 181.89C203.398 183.156 204.398 184.246 205.59 185.16C206.962 185.793 208.399 186.196 209.9 186.37C215.999 187.109 222.119 187.386 228.26 187.2Z" fill="rgb(38,50,56)" fill-rule="nonzero" />
        <path id="矢量 1070" d="M184 145.7C183.588 145.284 183.218 144.834 182.89 144.35C182.549 143.868 182.292 143.345 182.12 142.78C182.271 143.029 182.434 143.269 182.61 143.5L183.1 144.21C183.43 144.689 183.73 145.186 184 145.7Z" fill="rgb(38,50,56)" fill-rule="nonzero" />
        <path id="矢量 1071" d="M199.79 136.43C202.32 138.97 204.59 141.76 206.94 144.43C209.29 147.1 211.54 149.92 213.94 152.58L214.83 153.58C214.99 153.73 215.14 153.9 215.29 154.04C215.44 154.18 215.44 154.17 215.51 154.23C215.51 154.23 215.58 154.23 215.62 154.23C216.38 154.23 217.34 154.06 218.2 153.95L223.52 153.16C227.06 152.64 230.61 152.1 234.16 151.62L234.3 152.5L234.09 151.63L234.14 151.63C230.63 152.38 227.14 153.05 223.58 153.7C221.81 154.02 220.04 154.3 218.26 154.57C217.349 154.728 216.433 154.835 215.51 154.89C215.437 154.899 215.363 154.899 215.29 154.89C215.191 154.86 215.101 154.814 215.02 154.75C214.919 154.672 214.822 154.588 214.73 154.5L214.24 154.02C213.92 153.69 213.62 153.36 213.32 153.02C210.97 150.29 208.69 147.53 206.45 144.73L203.1 140.52C202 139.21 201 137.77 199.79 136.43Z" fill="rgb(38,50,56)" fill-rule="nonzero" />
        <path id="矢量 1072" d="M201.1 136.73C201.477 137.194 201.811 137.687 202.1 138.21C202.384 138.729 202.58 139.279 202.69 139.86C202.57 139.59 202.42 139.35 202.28 139.09L201.87 138.32C201.585 137.804 201.328 137.274 201.1 136.73Z" fill="rgb(38,50,56)" fill-rule="nonzero" />
    </g>
    <g id="freepik--speech-bubble--inject-186">
        <path id="矢量 1091" d="M281 60.77C281 62.8277 280.719 64.8463 280.158 66.826C279.596 68.8056 278.776 70.6713 277.696 72.4229C276.616 74.1745 275.318 75.7457 273.802 77.1364C272.285 78.5272 270.608 79.6849 268.77 80.6095C266.931 81.5341 265.002 82.1905 262.981 82.5788C260.96 82.9671 258.925 83.0725 256.875 82.8951C254.825 82.7177 252.838 82.2642 250.914 81.5345C248.99 80.8048 247.202 79.8266 245.55 78.6L234.66 81.38L239.19 71.25C238.393 69.7607 237.773 68.2008 237.332 66.5703C236.891 64.9398 236.638 63.2806 236.575 61.5925C236.512 59.9045 236.64 58.2311 236.959 56.5722C237.278 54.9133 237.779 53.3116 238.463 51.7671C239.147 50.2225 239.996 48.7748 241.01 47.4239C242.024 46.073 243.177 44.8536 244.469 43.7657C245.762 42.6778 247.16 41.7493 248.664 40.9802C250.168 40.2112 251.739 39.6213 253.377 39.2106C255.016 38.7999 256.68 38.5789 258.369 38.5476C260.057 38.5164 261.728 38.6756 263.381 39.0254C265.033 39.3751 266.625 39.9065 268.157 40.6193C269.688 41.3322 271.12 42.2082 272.451 43.2476C273.783 44.2869 274.981 45.4628 276.044 46.7752C277.107 48.0877 278.009 49.503 278.75 51.0211C279.491 52.5393 280.051 54.1213 280.431 55.7673C280.811 57.4132 281 59.0808 281 60.77Z" fill="rgb(255,255,255)" fill-rule="nonzero" />
        <path id="矢量 1092" d="M281 60.76C280.999 64.9601 279.905 68.8534 277.72 72.4401C277.198 73.3279 276.625 74.1812 276 75.0001C275.336 75.7841 274.626 76.5241 273.87 77.2201C272.37 78.6336 270.704 79.8102 268.87 80.7501C267.03 81.689 265.097 82.3556 263.07 82.7501C262.056 82.9519 261.033 83.0786 260 83.1301C258.97 83.2152 257.94 83.2152 256.91 83.1301C252.669 82.8009 248.829 81.3843 245.39 78.8801L245.69 78.94L234.83 81.8L233.95 82.0301L234.32 81.1901L238.81 71.0401L238.81 71.4601C237.155 68.383 236.266 65.0985 236.143 61.6067C236.02 58.1149 236.675 54.776 238.11 51.59C239.546 48.4143 241.602 45.711 244.28 43.48C246.954 41.2821 249.974 39.7769 253.339 38.9646C256.704 38.1523 260.077 38.1141 263.46 38.85C266.811 39.6123 269.834 41.059 272.53 43.19C275.212 45.3154 277.297 47.9195 278.783 51.0023C280.269 54.0851 281.008 57.3377 281 60.76ZM281 60.76C280.999 58.22 280.571 55.7541 279.716 53.3622C278.861 50.9704 277.629 48.792 276.019 46.827C274.41 44.862 272.517 43.2249 270.34 41.9156C268.163 40.6063 265.83 39.7011 263.34 39.2001C260.02 38.5392 256.724 38.6392 253.45 39.5C250.186 40.3429 247.276 41.8629 244.72 44.0601C242.19 46.2779 240.244 48.9246 238.88 52.0001C237.534 55.0702 236.927 58.2802 237.06 61.6301C237.216 64.9439 238.069 68.0672 239.62 71.0001L239.73 71.2101L239.63 71.4201L235.06 81.5401L234.55 80.9401L245.46 78.2401L245.63 78.2401L245.76 78.3401C249.058 80.8448 252.768 82.2948 256.89 82.6901C257.89 82.7636 258.89 82.7636 259.89 82.6901C262.982 82.5838 265.912 81.8405 268.68 80.4601C270.515 79.5666 272.182 78.4266 273.68 77.0401C274.436 76.3545 275.146 75.6245 275.81 74.8501C276.447 74.0538 277.037 73.2238 277.58 72.3601C279.805 68.8133 280.945 64.9466 281 60.76Z" fill="rgb(38,50,56)" fill-rule="nonzero" />
        <path id="矢量 1093" d="M260.33 63.17L260.33 65.62C260.345 66.1368 260.169 66.5779 259.804 66.9435C259.438 67.3091 258.997 67.4846 258.48 67.47C257.97 67.47 257.535 67.2892 257.175 66.9275C256.816 66.5659 256.637 66.13 256.64 65.62L256.64 61.71C256.64 61.71 256.64 61.71 256.64 61.63C256.64 61.55 256.64 61.63 256.64 61.56C256.653 61.0565 256.837 60.6263 257.192 60.2692C257.547 59.9121 257.977 59.7257 258.48 59.71C259.057 59.7381 259.616 59.6515 260.157 59.4501C260.698 59.2488 261.178 58.949 261.596 58.5507C262.014 58.1525 262.337 57.688 262.564 57.1572C262.792 56.6265 262.905 56.0724 262.905 55.495C262.905 54.9176 262.792 54.3635 262.564 53.8327C262.337 53.302 262.014 52.8375 261.596 52.4392C261.178 52.041 260.698 51.7412 260.157 51.5399C259.616 51.3385 259.057 51.2519 258.48 51.28C256.878 51.2749 255.675 51.9649 254.87 53.35C254.611 53.798 254.231 54.0885 253.731 54.2214C253.231 54.3542 252.757 54.2904 252.31 54.03C251.871 53.77 251.589 53.3927 251.464 52.8981C251.339 52.4035 251.408 51.9374 251.67 51.5C251.999 50.9336 252.392 50.4161 252.85 49.9473C253.307 49.4786 253.815 49.073 254.373 48.7304C254.931 48.3878 255.523 48.1188 256.148 47.9231C256.773 47.7275 257.413 47.6114 258.066 47.5746C258.72 47.5378 259.369 47.5816 260.012 47.706C260.655 47.8303 261.273 48.0314 261.866 48.3092C262.459 48.5871 263.009 48.9332 263.516 49.3477C264.023 49.7622 264.472 50.2325 264.862 50.7584C265.253 51.2844 265.573 51.8501 265.823 52.4555C266.072 53.061 266.244 53.6878 266.338 54.3359C266.432 54.9841 266.446 55.6339 266.378 56.2854C266.311 56.9369 266.165 57.5702 265.94 58.1854C265.716 58.8006 265.419 59.379 265.051 59.9206C264.683 60.4622 264.254 60.9504 263.764 61.3854C263.274 61.8204 262.739 62.189 262.158 62.491C261.577 62.793 260.967 63.0193 260.33 63.17ZM260.33 71.42L260.33 72.1C260.342 72.6148 260.165 73.0538 259.8 73.4169C259.435 73.7801 258.995 73.9544 258.48 73.94C257.972 73.94 257.538 73.7603 257.179 73.4011C256.82 73.0418 256.64 72.6081 256.64 72.1L256.64 71.42C256.645 70.9133 256.827 70.4803 257.184 70.121C257.541 69.7618 257.973 69.5781 258.48 69.57C258.993 69.5643 259.431 69.743 259.794 70.1059C260.157 70.4688 260.336 70.9068 260.33 71.42Z" fill="rgb(229,178,29)" fill-rule="nonzero" />
    </g>
</svg>
