<svg viewBox="0 0 500 500" xmlns="http://www.w3.org/2000/svg" xmlns:xlink="http://www.w3.org/1999/xlink" width="500" height="500" fill="none">
    <rect id="404 Error Page not Found with people connecting a plug-cuate 1" width="500" height="500" x="0" y="0" />
    <g id="freepik--Floor--inject-72">
        <path id="矢量 354" d="M35.9099 388.82L88.9299 388.58L141.96 388.49L248 388.32L354.05 388.49L407.07 388.58L460.09 388.82L407.07 389.06L354.05 389.15L248 389.32L141.96 389.15L88.9299 389.06L35.9099 388.82Z" fill="rgb(38,50,56)" fill-rule="nonzero" />
    </g>
    <g id="freepik--character-2--inject-72">
        <path id="矢量 355" d="M277.47 447.71C279.55 448.41 339.09 448.62 341.37 447.19C342.24 446.65 342.77 437.98 343.12 427.49C343.2 425.22 343.26 422.88 343.32 420.49L348.14 388.74L308.34 388.48L304.58 420.25L304.73 427.25C304.73 427.25 281.9 437.37 279.57 439.2C277.24 441.03 275.4 447 277.47 447.71Z" fill="rgb(235,148,129)" fill-rule="nonzero" />
        <path id="矢量 356" d="M277.47 447.71C279.55 448.41 339.09 448.62 341.37 447.19C342.42 446.53 343 433.87 343.32 420.5L304.58 420.26L304.73 427.26C304.73 427.26 281.9 437.38 279.57 439.21C277.24 441.04 275.4 447 277.47 447.71Z" fill="rgb(255,255,255)" fill-rule="nonzero" />
        <path id="矢量 357" d="M277.47 447.71C279.55 448.41 339.09 448.62 341.37 447.19C342.24 446.65 342.77 437.98 343.12 427.49L304.73 427.24C304.73 427.24 281.9 437.36 279.57 439.19C277.24 441.02 275.4 447 277.47 447.71Z" fill="rgb(255,199,39)" fill-rule="nonzero" />
        <path id="矢量 358" d="M278.34 445.33C288.34 445.12 328.6 445.21 338.48 445.76C338.56 445.76 338.56 445.82 338.48 445.83C328.59 446.25 288.31 445.83 278.33 445.49C278.12 445.48 278.13 445.33 278.34 445.33Z" fill="rgb(38,50,56)" fill-rule="nonzero" />
        <path id="矢量 359" d="M283.41 437.06C285.774 436.993 287.774 437.813 289.41 439.52C290.861 441.005 291.6 442.785 291.63 444.86C291.63 444.92 291.51 444.92 291.5 444.86C291.165 442.836 290.257 441.114 288.776 439.694C287.295 438.274 285.536 437.44 283.5 437.19C283.457 437.22 283.42 437.213 283.39 437.17C283.36 437.127 283.367 437.09 283.41 437.06Z" fill="rgb(38,50,56)" fill-rule="nonzero" />
        <path id="矢量 360" d="M300.86 428.22C304.86 428.22 309.48 429.61 311.95 432.88C312.05 433.01 311.87 433.14 311.75 433.08C308.239 431.232 304.572 429.776 300.75 428.71C300.587 428.673 300.524 428.573 300.561 428.41C300.597 428.247 300.697 428.184 300.86 428.22Z" fill="rgb(38,50,56)" fill-rule="nonzero" />
        <path id="矢量 361" d="M297.77 429.41C301.77 429.41 306.39 430.8 308.86 434.08C308.96 434.2 308.78 434.34 308.66 434.27C305.151 432.419 301.484 430.966 297.66 429.91C297.526 429.855 297.474 429.756 297.505 429.614C297.537 429.472 297.625 429.404 297.77 429.41Z" fill="rgb(38,50,56)" fill-rule="nonzero" />
        <path id="矢量 362" d="M294.68 430.61C298.68 430.56 303.3 431.99 305.78 435.27C305.87 435.39 305.69 435.53 305.57 435.47C302.063 433.612 298.396 432.155 294.57 431.1C294.408 431.063 294.345 430.963 294.382 430.8C294.418 430.638 294.518 430.575 294.68 430.61Z" fill="rgb(38,50,56)" fill-rule="nonzero" />
        <path id="矢量 363" d="M291.59 431.8C295.59 431.8 300.22 433.18 302.69 436.46C302.78 436.58 302.6 436.72 302.48 436.66C298.973 434.802 295.306 433.345 291.48 432.29C291.318 432.253 291.255 432.153 291.291 431.99C291.328 431.828 291.427 431.764 291.59 431.8Z" fill="rgb(38,50,56)" fill-rule="nonzero" />
        <path id="矢量 364" d="M336 436.27C340.49 436.27 340.45 443.27 336 443.27C331.55 443.27 331.48 436.24 336 436.27Z" fill="rgb(38,50,56)" fill-rule="nonzero" />
        <path id="矢量 365" d="M296.88 423.4C299.02 426.19 302.3 427.96 305.14 429.93C305.283 430.011 305.43 430.018 305.581 429.951C305.731 429.885 305.824 429.771 305.86 429.61C305.952 429.629 305.992 429.593 305.98 429.5C305.697 425.769 304.501 422.359 302.39 419.27C301.15 417.52 298.61 415.88 296.58 417.55C294.55 419.22 295.62 421.78 296.88 423.4ZM296.7 420.09C297.12 415.75 301.03 419.09 301.89 420.42C302.433 421.288 302.916 422.188 303.34 423.12C304.183 425.059 304.926 427.036 305.57 429.05C304.24 427.99 302.82 427.05 301.45 426.05C299.82 424.86 296.48 422.49 296.7 420.09Z" fill="rgb(38,50,56)" fill-rule="nonzero" />
        <path id="矢量 366" d="M320.18 427C319.88 424.39 316.9 423.82 314.8 424.21C311.14 424.977 307.914 426.604 305.12 429.09C305.029 429.147 305.029 429.203 305.12 429.26C305.029 429.399 305.014 429.546 305.075 429.7C305.137 429.855 305.248 429.951 305.41 429.99C308.83 430.53 312.41 431.54 315.9 430.99C317.94 430.71 320.47 429.47 320.18 427ZM310.77 429.75C309.08 429.53 307.42 429.22 305.77 429.06C307.66 428.11 309.5 427.06 311.48 426.33C312.433 425.952 313.406 425.638 314.4 425.39C315.94 425.04 321.08 425.33 318.4 428.75C316.83 430.63 312.78 430 310.77 429.75Z" fill="rgb(38,50,56)" fill-rule="nonzero" />
        <path id="矢量 367" d="M406.64 241.94C406.64 241.94 360.41 320.58 359.17 326.1C357.27 334.59 347.17 418.37 347.17 418.37L299.07 417.51C299.07 417.51 307.36 343.63 315.21 319.3C320.87 301.77 361.66 243.63 361.66 243.63L406.64 241.94Z" fill="rgb(55,71,79)" fill-rule="nonzero" />
        <path id="矢量 368" d="M303.46 410.13C310.37 410.08 334.85 409.81 344.04 410.66C344.087 410.66 344.11 410.683 344.11 410.73C344.11 410.777 344.087 410.8 344.04 410.8C340.88 411.25 310.37 410.54 303.46 410.32C303.373 410.349 303.329 410.317 303.329 410.225C303.329 410.133 303.373 410.101 303.46 410.13Z" fill="rgb(38,50,56)" fill-rule="nonzero" />
        <path id="矢量 369" d="M398.75 249.16C395.75 253.91 392.52 258.56 389.42 263.27C386.32 267.98 383.24 272.7 380.19 277.45C374.103 286.93 368.157 296.497 362.35 306.15C359.529 310.602 357.126 315.269 355.14 320.15C353.331 325.057 351.981 330.087 351.09 335.24C350.14 340.41 349.52 345.62 348.94 350.83C348.313 356.377 347.693 361.923 347.08 367.47C345.813 378.803 344.547 390.157 343.28 401.53C343.12 402.92 342.97 404.32 342.83 405.71C342.83 405.92 343.17 405.96 343.2 405.71C344.61 394.43 345.79 383.12 347.08 371.82L349 355C349.59 349.77 350.16 344.54 351 339.33C351.752 334.199 352.882 329.152 354.39 324.19C356.044 319.04 358.247 314.136 361 309.48C366.57 299.87 372.47 290.42 378.37 281C384.27 271.58 390.32 262 396.55 252.67C397.31 251.52 398.09 250.37 398.89 249.24C399 249.15 398.81 249.07 398.75 249.16Z" fill="rgb(38,50,56)" fill-rule="nonzero" />
        <path id="矢量 370" d="M365.77 454.32C367.96 454.46 427.04 438.89 428.88 436.93C428.962 436.809 429.009 436.676 429.02 436.53C429.25 434.59 426.23 427.34 424.11 418.05C423.98 417.46 422.87 414.64 421.31 410.83C417.02 400.38 409.37 382.42 409.37 382.42L370.8 392.32L385 420.87L386.92 427.58C386.92 427.58 367.41 443.19 365.63 445.58C363.85 447.97 363.59 454.16 365.77 454.32Z" fill="rgb(235,148,129)" fill-rule="nonzero" />
        <path id="矢量 371" d="M365.77 454.32C367.96 454.46 427.04 438.89 428.88 436.93C428.962 436.809 429.009 436.676 429.02 436.53C429.25 434.59 426.23 427.34 424.11 418.05C423.98 417.46 422.87 414.64 421.31 410.83L385.01 420.83L386.93 427.54C386.93 427.54 367.42 443.15 365.64 445.54C363.86 447.93 363.59 454.16 365.77 454.32Z" fill="rgb(255,255,255)" fill-rule="nonzero" />
        <path id="矢量 372" d="M365.77 454.31C367.96 454.47 427.04 438.89 428.88 436.93C429.58 436.19 428.05 428.2 424.11 418.05L386.93 427.59C386.93 427.59 367.42 443.18 365.64 445.59C363.86 448 363.59 454.16 365.77 454.31Z" fill="rgb(255,199,39)" fill-rule="nonzero" />
        <path id="矢量 373" d="M366 451.79C375.6 449.05 414.58 438.89 424.28 436.9C424.36 436.9 424.37 436.9 424.28 436.97C414.83 439.89 375.77 449.74 366.03 451.97C365.84 452 365.8 451.85 366 451.79Z" fill="rgb(38,50,56)" fill-rule="nonzero" />
        <path id="矢量 374" d="M368.81 442.51C371.066 441.859 373.196 442.146 375.2 443.37C376.977 444.439 378.144 445.972 378.7 447.97C378.7 448.03 378.6 448.06 378.58 447.97C377.735 446.091 376.41 444.655 374.606 443.66C372.802 442.665 370.88 442.312 368.84 442.6C368.82 442.631 368.793 442.637 368.761 442.619C368.729 442.601 368.72 442.576 368.735 442.542C368.751 442.509 368.775 442.498 368.81 442.51Z" fill="rgb(38,50,56)" fill-rule="nonzero" />
        <path id="矢量 375" d="M383.43 429.52C387.28 428.46 392.12 428.66 395.34 431.2C395.47 431.3 395.34 431.48 395.2 431.45C391.349 430.546 387.445 430.062 383.49 430C383.362 429.983 383.291 429.911 383.275 429.783C383.259 429.655 383.31 429.568 383.43 429.52Z" fill="rgb(38,50,56)" fill-rule="nonzero" />
        <path id="矢量 376" d="M380.75 431.46C384.6 430.4 389.44 430.6 392.66 433.14C392.79 433.24 392.66 433.42 392.51 433.39C388.657 432.505 384.753 432.041 380.8 432C380.621 432.016 380.523 431.934 380.506 431.755C380.49 431.576 380.571 431.477 380.75 431.46Z" fill="rgb(38,50,56)" fill-rule="nonzero" />
        <path id="矢量 377" d="M378.06 433.4C381.92 432.34 386.75 432.54 389.98 435.08C390.1 435.18 389.98 435.35 389.83 435.33C385.979 434.428 382.075 433.948 378.12 433.89C377.978 433.885 377.899 433.812 377.881 433.671C377.864 433.53 377.924 433.439 378.06 433.4Z" fill="rgb(38,50,56)" fill-rule="nonzero" />
        <path id="矢量 378" d="M375.38 435.33C379.23 434.28 384.07 434.48 387.29 437.02C387.42 437.12 387.29 437.29 387.15 437.26C383.298 436.367 379.394 435.891 375.44 435.83C375.273 435.85 375.18 435.777 375.16 435.61C375.14 435.443 375.213 435.35 375.38 435.33Z" fill="rgb(38,50,56)" fill-rule="nonzero" />
        <path id="矢量 379" d="M419.44 428.37C423.78 427.25 425.52 434 421.17 435.11C416.82 436.22 415.09 429.48 419.44 428.37Z" fill="rgb(38,50,56)" fill-rule="nonzero" />
        <path id="矢量 380" d="M378.35 425.87C381.14 428.02 384.76 428.87 388 430.08C388.16 430.124 388.304 430.095 388.434 429.992C388.564 429.889 388.626 429.755 388.62 429.59C388.72 429.588 388.75 429.542 388.71 429.45C387.487 425.907 385.46 422.907 382.63 420.45C380.99 419.08 378.11 418.13 376.57 420.27C375.03 422.41 376.73 424.62 378.35 425.87ZM377.35 422.72C376.65 418.41 381.28 420.66 382.45 421.72C383.198 422.418 383.895 423.165 384.54 423.96C385.854 425.616 387.077 427.336 388.21 429.12C386.65 428.44 385.04 427.9 383.46 427.27C381.56 426.53 377.73 425.09 377.34 422.72L377.35 422.72Z" fill="rgb(38,50,56)" fill-rule="nonzero" />
        <path id="矢量 381" d="M401.8 423.42C400.85 420.97 397.8 421.18 395.89 422.1C392.541 423.767 389.834 426.16 387.77 429.28C387.705 429.359 387.721 429.412 387.82 429.44C387.773 429.597 387.799 429.742 387.897 429.873C387.995 430.004 388.126 430.07 388.29 430.07C391.74 429.72 395.46 429.78 398.69 428.39C400.58 427.58 402.71 425.73 401.8 423.42ZM393.4 428.48C391.72 428.69 390.03 428.82 388.4 429.09C389.941 427.645 391.551 426.282 393.23 425C394.054 424.394 394.914 423.844 395.81 423.35C397.21 422.61 402.26 421.59 400.5 425.58C399.49 427.79 395.42 428.23 393.4 428.48Z" fill="rgb(38,50,56)" fill-rule="nonzero" />
        <path id="矢量 382" d="M382.36 419L425.58 407.66C425.58 407.66 384.2 326.23 384.58 320.61C384.88 315.61 414.89 271.93 416.58 263.75C419.29 250.36 412.77 238.4 406.45 231L361.75 243.6C361.75 243.6 365.31 251.33 371.85 256.21C371.85 256.21 343.76 303.11 343.04 318.55C342.32 333.99 382.36 419 382.36 419Z" fill="rgb(55,71,79)" fill-rule="nonzero" />
        <path id="矢量 383" d="M381.54 411C387.8 409.21 385.98 409.64 392.27 407.91C395.35 407.07 415.58 401.54 418.58 401.25C418.65 401.25 418.68 401.35 418.58 401.38C415.82 402.62 395.5 407.8 392.41 408.58C386.09 410.18 387.88 409.65 381.54 411.19C381.47 411.2 381.42 411 381.54 411Z" fill="rgb(38,50,56)" fill-rule="nonzero" />
        <path id="矢量 384" d="M364.92 254.44C369.211 256.032 373.334 257.979 377.29 260.28C377.37 260.32 377.39 260.38 377.35 260.46C377.31 260.54 377.25 260.56 377.17 260.52C373 258.7 368.74 256.96 364.68 254.92C364.545 254.832 364.513 254.717 364.585 254.573C364.657 254.429 364.769 254.385 364.92 254.44Z" fill="rgb(38,50,56)" fill-rule="nonzero" />
        <path id="矢量 385" d="M370.17 253.34C370.488 254.126 370.755 254.93 370.97 255.75C371.207 256.396 371.31 257.063 371.28 257.75C371.251 257.8 371.208 257.825 371.15 257.825C371.092 257.825 371.049 257.8 371.02 257.75C370.643 257.149 370.363 256.506 370.18 255.82C369.91 255.07 369.62 254.33 369.38 253.58C369.21 253.1 370 252.86 370.17 253.34Z" fill="rgb(38,50,56)" fill-rule="nonzero" />
        <path id="矢量 386" d="M370.17 249.29C369.99 248.6 369.81 247.92 369.62 247.23C369.43 246.54 369.17 245.83 369.03 245.11C369.03 245 368.83 245.05 368.86 245.11C369.03 245.8 369.11 246.52 369.23 247.22C369.35 247.92 369.49 248.62 369.63 249.31C369.894 250.621 370.227 251.915 370.63 253.19C369.917 253.138 369.25 252.935 368.63 252.58C368.018 252.074 367.612 251.438 367.41 250.67C367.13 249.89 366.88 249.1 366.59 248.33C366.23 247.484 365.943 246.614 365.73 245.72C365.73 245.6 365.53 245.65 365.55 245.72C365.895 247.61 366.425 249.447 367.14 251.23C367.45 251.93 367.68 252.65 368.37 252.99C369.137 253.315 369.937 253.472 370.77 253.46C370.86 253.46 371 253.46 370.98 253.33C370.77 252.05 370.51 250.64 370.17 249.29Z" fill="rgb(38,50,56)" fill-rule="nonzero" />
        <path id="矢量 387" d="M370.91 257.77C369.21 260.84 367.27 263.77 365.45 266.77C363.63 269.77 361.99 272.69 360.33 275.69C356.99 281.75 353.89 287.97 351.06 294.29C349.66 297.417 348.327 300.58 347.06 303.78C345.741 306.968 344.657 310.235 343.81 313.58C343.007 316.945 342.861 320.338 343.37 323.76C344.003 327.241 344.897 330.655 346.05 334C348.369 341.659 351.183 349.133 354.49 356.42C354.6 356.66 355 356.48 354.91 356.23C352.55 349.57 350.11 342.93 347.98 336.23C345.93 329.69 343.49 322.91 344.62 315.96C345.253 312.619 346.199 309.369 347.46 306.21C348.673 302.97 349.967 299.767 351.34 296.6C354.06 290.35 357.1 284.28 360.22 278.23C361.96 274.84 363.79 271.49 365.56 268.11C367.33 264.73 369.07 261.23 371.06 257.95C371.12 257.76 371 257.68 370.91 257.77Z" fill="rgb(38,50,56)" fill-rule="nonzero" />
        <path id="矢量 388" d="M403.46 251.21C402.65 251.08 401.46 251.36 397.97 251.12C396.999 251.034 396.039 250.877 395.09 250.65C394.116 250.498 393.226 250.138 392.42 249.57C391.141 248.36 390.125 246.96 389.37 245.37C388.431 243.738 387.721 242.011 387.24 240.19C387.24 240.08 387.05 240.13 387.07 240.24C387.26 241.24 387.36 242.24 387.63 243.3C387.888 244.254 388.221 245.181 388.63 246.08C389.282 247.885 390.326 249.425 391.76 250.7C393.34 251.89 395.55 252.11 397.46 252.25C398.57 252.33 402.92 252.25 403.46 251.59C403.62 251.48 403.61 251.24 403.46 251.21Z" fill="rgb(38,50,56)" fill-rule="nonzero" />
        <path id="矢量 389" d="M414.85 398.36C409.397 387.28 404.063 376.13 398.85 364.91C393.637 353.69 388.577 342.387 383.67 331C382.309 328.32 381.233 325.53 380.44 322.63C379.77 319.46 380.75 316.63 382.09 313.76C384.585 308.551 387.369 303.501 390.44 298.61C393.44 293.69 396.68 288.88 399.85 284.05C403.131 279.315 406.131 274.408 408.85 269.33C411.31 264.42 412.68 259.19 411.98 253.69C411.28 248.19 408.91 243.11 406.38 238.28C405.71 237.01 405.02 235.75 404.38 234.47C404.33 234.38 404.18 234.47 404.24 234.56C407.06 239.62 409.77 244.93 411.09 250.56C411.775 253.385 411.981 256.245 411.71 259.14C411.356 262.061 410.55 264.851 409.29 267.51C406.94 272.67 403.66 277.43 400.57 282.16C397.48 286.89 394.19 291.81 391.11 296.71C387.979 301.618 385.109 306.675 382.5 311.88C381.36 314.21 380.11 316.64 379.83 319.25C379.53 322.12 380.56 324.86 381.67 327.45C386.47 338.71 391.53 349.88 396.67 360.99C401.81 372.1 407.14 383.25 412.55 394.29L414.55 398.46C414.68 398.69 414.93 398.53 414.85 398.36Z" fill="rgb(38,50,56)" fill-rule="nonzero" />
        <path id="矢量 390" d="M360.76 147.6C361.76 143.03 366.84 132.69 376.87 134.71C391.19 137.6 393.26 165.19 400.39 173.79C413.3 189.37 413.72 204.79 403.14 207.26C391.28 210.02 379.74 197.26 380.14 169.76C380.41 152.54 375.56 144.91 372.14 145.42C368.72 145.93 366.83 150.28 366.83 150.28L360.76 147.6Z" fill="rgb(38,50,56)" fill-rule="nonzero" />
        <path id="矢量 391" d="M361.24 145.89C361.951 143.75 362.908 141.727 364.11 139.82C365.325 137.852 366.885 136.212 368.79 134.9C370.79 133.548 372.997 132.908 375.41 132.98C377.778 133.051 379.995 133.668 382.06 134.83C384.067 136.031 385.733 137.594 387.06 139.52C388.36 141.397 389.43 143.397 390.27 145.52C391.864 149.729 392.97 154.062 393.59 158.52C392.499 154.218 391.092 150.021 389.37 145.93C388.476 143.927 387.386 142.037 386.1 140.26C384.841 138.491 383.274 137.057 381.4 135.96C379.518 134.887 377.495 134.303 375.33 134.21C373.168 134.109 371.168 134.629 369.33 135.77C367.47 136.943 365.9 138.423 364.62 140.21C363.957 141.095 363.347 142.015 362.79 142.97C362.23 143.89 361.72 144.88 361.24 145.89Z" fill="rgb(38,50,56)" fill-rule="nonzero" />
        <path id="矢量 392" d="M380.09 160.27C380.24 163 380.09 165.74 380.03 168.47C379.97 171.2 379.86 173.92 379.85 176.64C379.84 179.36 379.93 182.07 380.21 184.76C380.439 187.444 380.925 190.081 381.67 192.67C382.379 195.26 383.543 197.626 385.16 199.77C386.854 201.854 388.854 203.584 391.16 204.96C393.483 206.37 396 207.177 398.71 207.38C400.052 207.484 401.386 207.414 402.71 207.17C403.389 207.043 404.055 206.87 404.71 206.65C405.365 206.456 405.978 206.173 406.55 205.8C405.423 206.62 404.18 207.184 402.82 207.49C401.473 207.841 400.103 208.011 398.71 208C397.306 207.974 395.926 207.778 394.57 207.41C393.218 207.03 391.928 206.5 390.7 205.82C389.47 205.146 388.317 204.359 387.24 203.46L386.45 202.78L385.69 202.07C385.174 201.584 384.694 201.064 384.25 200.51C382.515 198.259 381.261 195.766 380.49 193.03C379.096 187.644 378.569 182.174 378.91 176.62C378.99 173.88 379.2 171.15 379.44 168.43C379.68 165.71 380 163 380.09 160.27Z" fill="rgb(38,50,56)" fill-rule="nonzero" />
        <path id="矢量 393" d="M359.94 147.68C359.78 146.41 360.55 144.68 361.35 144.37C362.15 144.06 368.53 146.11 369.2 147.64C369.87 149.17 367.29 150.8 367.29 150.8L359.94 147.68Z" fill="rgb(255,199,39)" fill-rule="nonzero" />
        <path id="矢量 394" d="M367.58 192.72C363.65 198.33 335.23 221.54 319.73 222.4C312.73 222.78 285.35 219.8 279.25 217.29C271.76 214.21 286.57 195.66 291.25 196.45C297.11 197.45 317.89 199.64 322.03 199.75C328.67 199.92 349.03 188.75 362.74 185.84C369.83 184.35 370.62 188.4 367.58 192.72Z" fill="rgb(235,148,129)" fill-rule="nonzero" />
        <path id="矢量 395" d="M367.27 193.78C362.93 201.35 347.61 214.33 347.61 214.33L345 209.51L336.36 193.6C336.36 193.6 350.88 187.82 360.51 185.01C361.642 184.662 362.796 184.409 363.97 184.25C370.19 183.45 371 187.28 367.27 193.78Z" fill="rgb(219,219,219)" fill-rule="nonzero" />
        <path id="矢量 396" d="M367.27 193.78C362.93 201.35 347.61 214.33 347.61 214.33L345 209.51L343.22 206.23L336.35 193.61C336.35 193.61 350.88 187.81 360.51 185C361.644 184.662 362.798 184.412 363.97 184.25C364.093 184.241 364.217 184.241 364.34 184.25C370.22 183.61 370.94 187.41 367.27 193.78Z" fill="rgb(219,219,219)" fill-rule="nonzero" />
        <path id="矢量 397" d="M349.16 189.69C349.498 191.09 349.498 192.49 349.16 193.89C348.822 192.49 348.822 191.09 349.16 189.69ZM345.05 197.93C344.342 197.919 343.645 198.002 342.96 198.18C343.646 198.353 344.343 198.436 345.05 198.43C345.761 198.436 346.461 198.352 347.15 198.18C346.461 198.003 345.761 197.919 345.05 197.93L345.05 197.93ZM366.29 186.19C365.579 186.179 364.879 186.263 364.19 186.44C364.879 186.617 365.579 186.701 366.29 186.69C366.997 186.695 367.694 186.612 368.38 186.44C367.694 186.268 366.997 186.185 366.29 186.19ZM358.11 196.63C358.607 197.136 359.16 197.569 359.77 197.93C359.409 197.32 358.975 196.767 358.47 196.27C357.971 195.767 357.418 195.334 356.81 194.97C357.174 195.578 357.607 196.131 358.11 196.63L358.11 196.63ZM350.04 206.63C350.536 207.139 351.09 207.575 351.7 207.94C351.342 207.328 350.909 206.774 350.4 206.28C349.903 205.771 349.35 205.335 348.74 204.97C349.086 205.579 349.506 206.133 350 206.63L350.04 206.63Z" fill="rgb(255,255,255)" fill-rule="nonzero" />
        <path id="矢量 398" d="M350.28 210.78C348.83 207.85 342.43 196.05 340.88 193.59C340.77 193.42 340.64 193.44 340.72 193.59C343.557 199.49 346.704 205.22 350.16 210.78C350.2 210.9 350.32 210.86 350.28 210.78Z" fill="rgb(38,50,56)" fill-rule="nonzero" />
        <path id="矢量 399" d="M367.27 193.78C362.93 201.35 347.61 214.33 347.61 214.33L345 209.51L343.22 206.23C351.53 198.03 361.54 187.94 364.34 184.23C370.22 183.61 370.94 187.41 367.27 193.78Z" fill="rgb(166,166,166)" fill-rule="nonzero" />
        <path id="矢量 400" d="M353.1 228.65L355.37 253.65C358.43 253.509 361.473 253.202 364.5 252.73C372.483 251.532 380.373 249.889 388.17 247.8C395.9 245.8 404.96 243.04 415.32 239.36C415.32 239.36 391.89 197.1 375.72 185.44C375.35 185.17 374.99 184.92 374.62 184.69C374.55 184.63 374.48 184.6 374.41 184.55C367.06 179.9 360.41 183.55 356.73 188.73C355.8 190.03 346.8 210.49 347.25 217.35C347.66 223.38 353.1 228.65 353.1 228.65Z" fill="rgb(219,219,219)" fill-rule="nonzero" />
        <path id="矢量 401" d="M366.1 201.89C366.278 202.575 366.362 203.272 366.35 203.98C366.361 204.691 366.277 205.391 366.1 206.08C365.923 205.391 365.839 204.691 365.85 203.98C365.844 203.273 365.927 202.576 366.1 201.89ZM371.55 228.07C371.544 228.781 371.628 229.481 371.8 230.17C371.983 229.482 372.066 228.782 372.05 228.07C372.061 227.359 371.978 226.659 371.8 225.97C371.628 226.659 371.544 227.359 371.55 228.07L371.55 228.07ZM389 213.17C388.989 213.881 389.073 214.581 389.25 215.27C389.588 213.87 389.588 212.47 389.25 211.07C389.073 211.759 388.989 212.459 389 213.17ZM357 224.88C356.989 225.591 357.073 226.291 357.25 226.98C357.588 225.58 357.588 224.18 357.25 222.78C357.073 223.469 356.989 224.169 357 224.88ZM377.16 206.45C376.449 206.444 375.749 206.528 375.06 206.7C376.46 207.038 377.86 207.038 379.26 206.7C378.574 206.528 377.877 206.445 377.17 206.45L377.16 206.45ZM392.04 225.1C391.328 225.084 390.628 225.168 389.94 225.35C391.34 225.688 392.74 225.688 394.14 225.35C393.455 225.173 392.758 225.09 392.05 225.1L392.04 225.1ZM369.42 239.88C368.712 239.869 368.015 239.952 367.33 240.13C368.015 240.308 368.712 240.391 369.42 240.38C370.131 240.391 370.831 240.307 371.52 240.13C370.834 239.958 370.137 239.875 369.43 239.88L369.42 239.88ZM395.77 237C395.063 236.994 394.366 237.078 393.68 237.25C395.077 237.588 396.473 237.588 397.87 237.25C397.181 237.078 396.481 236.994 395.77 237ZM366.29 186.16C365.579 186.149 364.879 186.233 364.19 186.41C364.879 186.587 365.579 186.671 366.29 186.66C366.997 186.665 367.694 186.582 368.38 186.41C367.693 186.248 366.996 186.175 366.29 186.19L366.29 186.16ZM376.99 190.79C377.487 191.299 378.04 191.735 378.65 192.1C378.294 191.486 377.861 190.932 377.35 190.44C376.854 189.931 376.3 189.495 375.69 189.13C376.052 189.751 376.489 190.314 377 190.82L376.99 190.79ZM398.84 214.18C399.337 214.689 399.89 215.125 400.5 215.49C400.141 214.878 399.708 214.325 399.2 213.83C398.702 213.324 398.148 212.887 397.54 212.52C397.899 213.14 398.332 213.704 398.84 214.21L398.84 214.18ZM363.9 216.68C364.397 217.189 364.95 217.625 365.56 217.99C364.803 216.747 363.803 215.747 362.56 214.99C362.93 215.623 363.376 216.197 363.9 216.71L363.9 216.68ZM384 233.61C384.497 234.119 385.05 234.555 385.66 234.92C384.903 233.677 383.903 232.677 382.66 231.92C383.032 232.543 383.479 233.106 384 233.61ZM358.16 196.61C358.657 197.115 359.21 197.549 359.82 197.91C359.459 197.3 359.026 196.747 358.52 196.25C358.021 195.747 357.468 195.314 356.86 194.95C357.207 195.562 357.623 196.122 358.11 196.63L358.16 196.61ZM356.74 209.75C357.246 209.252 357.683 208.698 358.05 208.09C357.438 208.448 356.884 208.881 356.39 209.39C355.881 209.887 355.445 210.44 355.08 211.05C355.669 210.689 356.205 210.262 356.69 209.77L356.74 209.75ZM404.19 227.61C404.699 227.116 405.132 226.562 405.49 225.95C404.244 226.704 403.244 227.704 402.49 228.95C403.097 228.581 403.647 228.141 404.14 227.63L404.19 227.61ZM359.33 234.77C359.836 234.273 360.269 233.72 360.63 233.11C359.384 233.864 358.384 234.864 357.63 236.11C358.237 235.741 358.787 235.301 359.28 234.79L359.33 234.77ZM386.11 200.3C386.619 199.803 387.055 199.25 387.42 198.64C386.808 199.002 386.255 199.439 385.76 199.95C385.251 200.447 384.815 201 384.45 201.61C385.041 201.248 385.578 200.818 386.06 200.32L386.11 200.3ZM379.47 245.2C379.981 244.705 380.418 244.152 380.78 243.54C380.168 243.902 379.615 244.339 379.12 244.85C378.611 245.347 378.175 245.9 377.81 246.51C378.401 246.148 378.938 245.718 379.42 245.22L379.47 245.2ZM379.47 218.2C379.984 217.708 380.421 217.155 380.78 216.54C379.538 217.297 378.538 218.297 377.78 219.54C378.395 219.165 378.948 218.715 379.44 218.19L379.47 218.2Z" fill="rgb(255,255,255)" fill-rule="nonzero" />
        <path id="矢量 402" d="M369.82 184.12C369.68 185.12 365.7 191.62 361.36 191.79C359.94 191.84 359.31 184.14 359.31 184.14L359.13 183.58L356.66 175.77L365.5 169L366.79 168.09C366.79 168.09 367.32 170.28 367.96 173L368.05 173.39C368.05 173.54 368.13 173.68 368.16 173.83L368.46 175.06C368.53 175.38 368.6 175.69 368.66 176.06L368.87 177.06C369.348 179.392 369.665 181.745 369.82 184.12Z" fill="rgb(235,148,129)" fill-rule="nonzero" />
        <path id="矢量 403" d="M368 173C367.382 175.335 366.302 177.432 364.758 179.29C363.215 181.148 361.352 182.595 359.17 183.63L356.7 175.82L365.5 169L366.79 168.09C366.79 168.09 367.32 170.23 368 173Z" fill="rgb(38,50,56)" fill-rule="nonzero" />
        <path id="矢量 404" d="M345.7 164C345.63 178.38 354.24 180.05 357.34 180.06C360.15 180.06 369.74 179.75 371.34 165.45C372.94 151.15 366.23 146.58 359.8 146.21C353.37 145.84 345.77 149.59 345.7 164Z" fill="rgb(235,148,129)" fill-rule="nonzero" />
        <path id="矢量 405" d="M370.51 166.42C368.16 166.66 367.51 161.73 367.51 161.73C367.51 161.73 362.72 161.87 360.97 155.01C361.159 157.119 361.913 159.002 363.23 160.66C363.23 160.66 354.74 160 351 153C351 153 352.51 156.57 353.87 157.82C351.648 157.193 349.858 155.946 348.5 154.08C348.5 154.08 347.12 158.2 346.01 159.35C346.01 159.35 344.37 152.11 347.38 148.35C353.72 140.35 364.13 147.35 364.13 147.35C364.13 147.35 369.95 148.23 372.03 152.59C375.24 159.26 370.51 166.42 370.51 166.42Z" fill="rgb(38,50,56)" fill-rule="nonzero" />
        <path id="矢量 406" d="M369 166.51C369 166.51 371.76 161.78 373.89 162.73C376.02 163.68 374.19 170.36 371.89 171.44C371.291 171.777 370.662 171.848 370.003 171.651C369.344 171.454 368.856 171.051 368.54 170.44L369 166.51Z" fill="rgb(235,148,129)" fill-rule="nonzero" />
        <path id="矢量 407" d="M373.32 164.63L373.32 164.7C371.767 165.643 370.817 167.006 370.47 168.79C370.646 168.407 370.937 168.161 371.345 168.053C371.752 167.945 372.128 168.014 372.47 168.26C372.52 168.26 372.47 168.36 372.47 168.35C371.783 168.191 371.253 168.411 370.88 169.01C370.601 169.448 370.374 169.911 370.2 170.4C370.13 170.55 369.86 170.5 369.9 170.32C369.63 168.15 371.05 165 373.32 164.63Z" fill="rgb(38,50,56)" fill-rule="nonzero" />
        <path id="矢量 408" d="M347.5 161.09C347.838 161.031 348.172 160.951 348.5 160.85C348.863 160.809 349.176 160.663 349.44 160.41C349.605 160.2 349.605 159.99 349.44 159.78C349.065 159.451 348.642 159.368 348.17 159.53C347.696 159.62 347.313 159.857 347.02 160.24C346.898 160.427 346.892 160.617 347.002 160.811C347.111 161.005 347.277 161.098 347.5 161.09Z" fill="rgb(38,50,56)" fill-rule="nonzero" />
        <path id="矢量 409" d="M356.88 162.21C356.544 162.177 356.21 162.123 355.88 162.05C355.504 162.043 355.17 161.919 354.88 161.68C354.71 161.47 354.71 161.26 354.88 161.05C355.225 160.689 355.639 160.575 356.12 160.71C356.599 160.763 357.002 160.966 357.33 161.32C357.475 161.504 357.494 161.7 357.389 161.908C357.283 162.117 357.114 162.218 356.88 162.21Z" fill="rgb(38,50,56)" fill-rule="nonzero" />
        <path id="矢量 410" d="M355 165.15C355 165.15 355.07 165.15 355.07 165.24C355.07 166.24 355.2 167.36 356.07 167.67L356.07 167.73C355 167.59 354.79 166.09 355 165.15Z" fill="rgb(38,50,56)" fill-rule="nonzero" />
        <path id="矢量 411" d="M355.83 164.11C357.41 163.96 357.59 167.11 356.12 167.28C354.65 167.45 354.5 164.23 355.83 164.11Z" fill="rgb(38,50,56)" fill-rule="nonzero" />
        <path id="矢量 412" d="M356.46 164.24C356.75 164.41 357.04 164.71 357.38 164.73C357.72 164.75 358.04 164.39 358.28 164.06L358.33 164.06C358.33 164.67 358.17 165.31 357.53 165.44C356.89 165.57 356.53 165.04 356.29 164.44C356.26 164.35 356.35 164.18 356.46 164.24Z" fill="rgb(38,50,56)" fill-rule="nonzero" />
        <path id="矢量 413" d="M349.49 165.2C349.49 165.2 349.41 165.25 349.42 165.29C349.51 166.29 349.42 167.42 348.58 167.8C349.67 167.63 349.73 166.12 349.49 165.2Z" fill="rgb(38,50,56)" fill-rule="nonzero" />
        <path id="矢量 414" d="M348.54 164.23C346.95 164.23 347.03 167.39 348.54 167.41C350.05 167.43 349.88 164.25 348.54 164.23Z" fill="rgb(38,50,56)" fill-rule="nonzero" />
        <path id="矢量 415" d="M347.89 164.45C347.64 164.63 347.4 164.94 347.1 164.97C346.8 165 346.48 164.66 346.25 164.33L346.2 164.33C346.2 164.94 346.42 165.57 347.01 165.67C347.6 165.77 347.92 165.23 348.01 164.62C348.08 164.55 348 164.38 347.89 164.45Z" fill="rgb(38,50,56)" fill-rule="nonzero" />
        <path id="矢量 416" d="M356.22 173.19C356.01 173.45 355.81 173.79 355.45 173.85C355.08 173.884 354.72 173.837 354.37 173.71L354.37 173.77C354.719 174.165 355.149 174.298 355.66 174.17C356.115 174.022 356.345 173.708 356.35 173.23C356.33 173.17 356.25 173.16 356.22 173.19Z" fill="rgb(38,50,56)" fill-rule="nonzero" />
        <path id="矢量 417" d="M351.14 169.56C351.14 169.56 351 171 351 171.73C352.352 171.689 353.686 171.829 355 172.15C355.31 172.24 355.29 171.98 354.94 171.79C353.873 171.216 352.736 170.986 351.53 171.1C351.48 170.91 351.79 168.83 351.68 168.83C351.14 168.898 350.62 169.038 350.12 169.25C350.32 166.16 351.02 163.12 351.17 160.04C351.17 159.98 351.14 159.95 351.08 159.95C351.02 159.95 350.99 159.98 350.99 160.04C350.143 163.275 349.623 166.561 349.43 169.9C349.46 170.27 350.87 169.69 351.14 169.56Z" fill="rgb(38,50,56)" fill-rule="nonzero" />
        <path id="矢量 418" d="M352.63 171.73C353.145 172.407 353.811 172.86 354.63 173.09C355.84 173.21 355.92 172.09 354.57 171.58C353.909 171.449 353.263 171.499 352.63 171.73Z" fill="rgb(38,50,56)" fill-rule="nonzero" />
        <path id="矢量 419" d="M354.65 173.09C354.185 173.012 353.775 172.819 353.42 172.51C353.64 172.12 354.2 171.68 355.52 172.31C355.73 172.77 355.42 173.17 354.65 173.09Z" fill="rgb(255,153,186)" fill-rule="nonzero" />
        <path id="矢量 420" d="M367.71 182.4C369.47 182.4 372.43 182.84 376.43 185.88C376.43 185.88 368.09 192.59 360.33 192.59C357.56 192.59 356.73 188.72 356.73 188.72C356.73 188.72 360.46 182.46 367.71 182.4Z" fill="rgb(235,148,129)" fill-rule="nonzero" />
        <path id="矢量 421" d="M499.46 470.32L466.79 470.32C443.05 470.32 428.53 453.91 425.92 424.12C424.63 409.43 423.84 391.65 423.01 372.83C420.45 315 416.94 235.83 394.43 235.83L368.56 235.83L368.56 229.83L394.43 229.83C422.67 229.83 425.89 302.4 429 372.58C429.83 391.34 430.62 409.06 431.9 423.58C433.53 442.16 440.9 464.31 466.79 464.31L499.46 464.31L499.46 470.32Z" fill="rgb(255,199,39)" fill-rule="nonzero" />
        <path id="矢量 422" d="M387.56 229.81L386.28 235.81L368.56 235.81L368.56 229.81L387.56 229.81Z" opacity="0.200000003" fill="rgb(0,0,0)" fill-rule="nonzero" />
        <rect id="矩形 33" width="10.4599915" height="73.0899963" x="309.340088" y="196.900024" fill="rgb(255,199,39)" />
        <rect id="矩形 34" width="39.769989" height="61.5399933" x="269.580078" y="202.300049" fill="rgb(255,199,39)" />
        <path id="矢量 423" d="M309.34 202.31L309.34 263.85L299.46 263.85L295.03 202.31L309.34 202.31Z" opacity="0.200000003" fill="rgb(0,0,0)" fill-rule="nonzero" />
        <path id="矢量 424" d="M239.06 213.35L269.57 213.35L269.57 222.55L239.06 222.55C237.972 222.55 237.043 222.165 236.274 221.396C235.505 220.627 235.12 219.698 235.12 218.61L235.12 217.3C235.117 216.21 235.501 215.279 236.27 214.508C237.04 213.736 237.97 213.35 239.06 213.35Z" fill="rgb(219,219,219)" fill-rule="nonzero" />
        <rect id="矩形 35" width="10.7099915" height="9.19000244" x="258.859863" y="213.349976" fill="rgb(166,166,166)" />
        <path id="矢量 425" d="M239.06 243.6L269.57 243.6L269.57 252.8L239.06 252.8C237.972 252.8 237.043 252.415 236.274 251.646C235.505 250.877 235.12 249.948 235.12 248.86L235.12 247.55C235.117 246.46 235.501 245.529 236.27 244.758C237.04 243.986 237.97 243.6 239.06 243.6Z" fill="rgb(219,219,219)" fill-rule="nonzero" />
        <rect id="矩形 36" width="10.7099915" height="9.19000244" x="258.859863" y="243.599976" fill="rgb(166,166,166)" />
        <rect id="矩形 37" width="31.0700073" height="12.2700043" x="350.540039" y="227.199951" fill="rgb(255,199,39)" />
        <rect id="矩形 38" width="31.0700073" height="12.2700043" x="350.540039" y="227.209961" fill="rgb(255,199,39)" />
        <path id="矢量 426" d="M361.45 227.21L360.43 239.48L350.54 239.48L350.54 227.21L361.45 227.21Z" opacity="0.200000003" fill="rgb(0,0,0)" fill-rule="nonzero" />
        <path id="矢量 427" d="M319.8 204.62L344.39 204.62C345.206 204.62 345.99 204.776 346.744 205.088C347.497 205.4 348.162 205.845 348.739 206.421C349.315 206.998 349.76 207.663 350.072 208.416C350.384 209.17 350.54 209.954 350.54 210.77L350.54 255.38C350.54 256.196 350.384 256.98 350.072 257.733C349.76 258.487 349.315 259.152 348.739 259.729C348.162 260.305 347.497 260.75 346.744 261.062C345.99 261.374 345.206 261.53 344.39 261.53L319.8 261.53L319.8 204.62Z" fill="rgb(255,199,39)" fill-rule="nonzero" />
        <path id="矢量 428" d="M332.88 204.62L328.45 261.53L319.81 261.53L319.81 204.62L332.88 204.62Z" opacity="0.200000003" fill="rgb(0,0,0)" fill-rule="nonzero" />
        <g id="组合 8" opacity="0.200000003">
            <rect id="矩形 39" width="1.95999146" height="33.8999939" x="328.629883" y="216.119995" fill="rgb(0,0,0)" />
            <rect id="矩形 40" width="1.95999146" height="33.8999939" x="334.189941" y="216.119995" fill="rgb(0,0,0)" />
            <rect id="矩形 41" width="1.95999146" height="33.8999939" x="339.75" y="216.119995" fill="rgb(0,0,0)" />
        </g>
        <path id="矢量 429" d="M378.73 192.87C382.17 202.52 377.24 237.87 371.41 245.36C362.75 256.46 345.64 266.67 339.1 269.86C336.24 271.25 323.43 250.77 326.22 248.86C332.22 244.75 351.33 234.94 352.95 232.99C354.57 231.04 363.29 212.31 366.78 201.78C371.47 187.64 377 188 378.73 192.87Z" fill="rgb(235,148,129)" fill-rule="nonzero" />
        <path id="矢量 430" d="M339.08 269.92C330.01 275.1 311.96 274.34 309.5 273.59L306.32 272.59C302.53 271.52 301.51 269.43 301.51 269.43C301.51 269.43 296.77 269.49 296.25 266.63C295.67 263.42 302.44 263.96 306.35 261.98C315.35 257.45 326.77 248.49 329.22 246.93L339.08 269.92Z" fill="rgb(235,148,129)" fill-rule="nonzero" />
        <path id="矢量 431" d="M319.08 263.84C316.473 265.206 313.783 266.382 311.01 267.37C307.916 268.267 304.772 268.934 301.58 269.37C301.545 269.383 301.528 269.408 301.528 269.445C301.528 269.482 301.545 269.507 301.58 269.52C307.957 269.347 313.827 267.533 319.19 264.08C319.32 264 319.21 263.78 319.08 263.84Z" fill="rgb(38,50,56)" fill-rule="nonzero" />
        <path id="矢量 432" d="M322.6 268.85C319.94 269.95 315.25 271.85 306.31 272.51C306.31 272.51 306.31 272.56 306.31 272.57C312.1 272.97 317.563 271.82 322.7 269.12C322.86 269 322.78 268.78 322.6 268.85Z" fill="rgb(38,50,56)" fill-rule="nonzero" />
        <path id="矢量 433" d="M316.8 255.85C317.73 254.85 317.18 254.31 314.72 254.75C312.26 255.19 302.91 259.05 301.84 255.68C300.77 252.31 314.05 247.05 318.2 246.62C321.956 246.426 325.702 246.536 329.44 246.95C327.06 248.49 321.42 252.77 316.8 255.85Z" fill="rgb(235,148,129)" fill-rule="nonzero" />
        <path id="矢量 434" d="M369.08 195.3C375.13 182.57 380.65 185.94 381.18 198.53C381.359 207.283 380.965 216.009 380 224.71L358.07 218.43C358.07 218.43 365.21 203.45 369.08 195.3Z" fill="rgb(219,219,219)" fill-rule="nonzero" />
        <path id="矢量 435" d="M374.54 187.88C375.783 188.637 376.783 189.637 377.54 190.88C376.298 190.123 375.298 189.123 374.54 187.88ZM365.85 204C365.839 204.711 365.923 205.411 366.1 206.1C366.277 205.411 366.361 204.711 366.35 204C366.362 203.292 366.278 202.595 366.1 201.91C365.927 202.596 365.844 203.293 365.85 204ZM377.17 206.47C376.459 206.464 375.759 206.548 375.07 206.72C376.47 207.058 377.87 207.058 379.27 206.72C378.582 206.541 377.882 206.451 377.17 206.45L377.17 206.47ZM363.9 216.71C364.397 217.219 364.95 217.655 365.56 218.02C364.803 216.777 363.803 215.777 362.56 215.02C362.932 215.643 363.379 216.206 363.9 216.71ZM379.44 218.19C379.954 217.698 380.391 217.145 380.75 216.53C379.508 217.287 378.508 218.287 377.75 219.53C378.375 219.161 378.938 218.714 379.44 218.19Z" fill="rgb(255,255,255)" fill-rule="nonzero" />
        <path id="矢量 436" d="M367 199.18C366.18 200.85 365.32 202.49 364.46 204.18C364.607 203.4 364.727 202.61 364.82 201.81L364.76 201.81C364.64 202.43 364.49 203.05 364.37 203.67C364.32 203.97 364.26 204.27 364.2 204.57C364.2 204.63 364.2 204.69 364.2 204.76C363.53 206.04 362.87 207.33 362.2 208.63C361.44 210.19 360.73 211.76 360.01 213.33C359.29 214.9 358.62 216.82 357.81 218.41C358.501 218.698 359.214 218.911 359.95 219.05C360.14 219.12 360.24 218.93 360.04 218.9C359.84 218.87 358.2 218.22 358.18 218.21C358.9 216.62 359.79 215.12 360.55 213.56C361.31 212 362.09 210.46 362.82 208.89C364.3 205.71 365.6 202.44 367.07 199.25C367.07 199.17 367 199.14 367 199.18Z" fill="rgb(38,50,56)" fill-rule="nonzero" />
        <path id="矢量 437" d="M382.09 206.76C381.89 207.41 381.66 208.06 381.49 208.76C381.43 209.04 381.36 209.31 381.29 209.59C381.37 207.31 381.443 205.037 381.51 202.77C381.2 206.49 380.88 210.2 380.64 213.92C380.292 217.485 380.128 221.058 380.15 224.64C379.491 224.484 378.825 224.381 378.15 224.33C378.88 224.64 379.636 224.857 380.42 224.98C380.97 221.38 381.01 217.4 381.19 213.78C381.24 212.78 381.27 211.78 381.31 210.71C381.43 210.08 381.61 209.46 381.78 208.84C381.95 208.22 382.08 207.5 382.22 206.84C382.17 206.74 382.1 206.72 382.09 206.76Z" fill="rgb(38,50,56)" fill-rule="nonzero" />
        <path id="矢量 438" d="M379.11 221.39C376.02 220.29 363.22 216.25 360.4 215.56C360.2 215.51 360.12 215.62 360.32 215.69C366.46 217.972 372.706 219.908 379.06 221.5C379.14 221.53 379.19 221.41 379.11 221.39Z" fill="rgb(38,50,56)" fill-rule="nonzero" />
        <path id="矢量 439" d="M271.6 218C274.6 218.92 273.99 214.82 273.99 214.82C273.99 214.82 276.34 220.5 279.83 220.25C283.32 220 282.24 215.07 282.18 214.71C282.3 215.01 284.6 220.17 288.08 219.56C291.56 218.95 289.89 214.13 289.77 213.83C289.98 214.07 292.77 217.26 295.33 216.19C299.69 214.35 292.73 205.99 293.24 202.19L299.37 202.37C299.572 202.351 299.772 202.321 299.97 202.28L300.2 199.15C298.238 198.354 296.351 197.407 294.54 196.31C292.23 195.01 290 193.83 288.34 193.79C287.575 193.749 286.874 193.941 286.236 194.364C285.598 194.788 285.149 195.36 284.89 196.08C284.89 196.08 283.09 193.24 280.33 193.64C278.92 193.85 278 196.3 278 196.3C277.018 194.91 275.684 194.339 274 194.59C272.06 194.99 271.44 197.39 271.44 197.39C271.44 197.39 268.98 195.94 267.13 197C263.42 199.06 265.12 216 271.6 218Z" fill="rgb(235,148,129)" fill-rule="nonzero" />
        <path id="矢量 440" d="M294 201.83L299.34 202.32C299.542 202.301 299.742 202.271 299.94 202.23C306.68 201.01 310.88 193.29 305.94 192.74C302.23 192.31 298.21 197.24 294.46 196.25L294 201.83Z" fill="rgb(235,148,129)" fill-rule="nonzero" />
        <path id="矢量 441" d="M271.31 197.7L271.22 197.7C270.35 203.755 271.277 209.522 274 215C274.09 215.17 274.4 215.09 274.34 214.89C272.49 209.308 271.48 203.578 271.31 197.7Z" fill="rgb(38,50,56)" fill-rule="nonzero" />
        <path id="矢量 442" d="M278 196.17C278 196.1 277.89 196.1 277.88 196.17C276.949 202.908 278.323 209.138 282 214.86C282.13 215.05 282.44 215.09 282.3 214.86C280.08 211 278 201.66 278 196.17Z" fill="rgb(38,50,56)" fill-rule="nonzero" />
        <path id="矢量 443" d="M290.17 214.07C286.72 208.63 285.35 202.63 284.84 196.27C284.84 196.19 284.72 196.21 284.7 196.27C284.11 199.45 284.86 203.47 285.7 206.55C286.447 209.472 287.87 212.015 289.97 214.18C290.07 214.27 290.25 214.19 290.17 214.07Z" fill="rgb(38,50,56)" fill-rule="nonzero" />
    </g>
    <g id="freepik--character-1--inject-72">
        <path id="矢量 444" d="M205.7 442C203.63 442.69 144.36 442.52 142.1 441.09C141.25 440.55 140.77 431.91 140.49 421.46C140.42 419.21 140.38 416.88 140.34 414.51C140.34 411.71 140.26 408.87 140.24 406.11C140.17 393.73 140.34 382.83 140.34 382.83L178.93 382.83L178.93 406.11L178.93 414.51L178.73 421.46C178.73 421.46 201.39 431.68 203.73 433.52C206.07 435.36 207.77 441.36 205.7 442Z" fill="rgb(173,99,89)" fill-rule="nonzero" />
        <path id="矢量 445" d="M205.7 442C203.63 442.69 144.36 442.52 142.1 441.09C141.25 440.55 140.77 431.91 140.49 421.46C140.42 419.21 140.38 416.88 140.34 414.51C140.34 411.71 140.26 408.87 140.24 406.11L178.91 406.11L178.91 414.51L178.71 421.46C178.71 421.46 201.37 431.68 203.71 433.52C206.05 435.36 207.77 441.36 205.7 442Z" fill="rgb(255,255,255)" fill-rule="nonzero" />
        <path id="矢量 446" d="M205.88 442.13C204.53 442.58 179.29 442.67 160.88 442.29C156.62 442.19 152.73 442.08 149.6 441.94C145.27 441.74 142.37 441.51 141.9 441.21C140.85 440.54 140.36 427.86 140.12 414.48L178.89 414.48L178.69 421.48C178.69 421.48 201.48 431.76 203.8 433.61C206.12 435.46 208 441.43 205.88 442.13Z" fill="rgb(255,199,39)" fill-rule="nonzero" />
        <path id="矢量 447" d="M205 439.75C195 439.47 154.7 439.31 144.8 439.8C144.72 439.8 144.72 439.85 144.8 439.86C154.7 440.35 195.01 440.18 205 439.91C205.24 439.9 205.25 439.75 205 439.75Z" fill="rgb(38,50,56)" fill-rule="nonzero" />
        <path id="矢量 448" d="M180.14 419.26C176.21 418.52 171.4 419.11 168.39 421.9C168.27 422.01 168.39 422.17 168.56 422.13C172.331 420.922 176.188 420.132 180.13 419.76C180.297 419.763 180.382 419.682 180.385 419.515C180.388 419.348 180.307 419.263 180.14 419.26Z" fill="rgb(38,50,56)" fill-rule="nonzero" />
        <path id="矢量 449" d="M183 421C179.07 420.25 174.26 420.84 171.24 423.64C171.13 423.74 171.24 423.91 171.41 423.87C175.187 422.655 179.05 421.858 183 421.48C183.12 421.445 183.18 421.365 183.18 421.24C183.18 421.115 183.12 421.035 183 421Z" fill="rgb(38,50,56)" fill-rule="nonzero" />
        <path id="矢量 450" d="M185.81 422.7C181.88 421.95 177.07 422.54 174.06 425.33C173.94 425.44 174.06 425.61 174.22 425.57C177.992 424.365 181.849 423.572 185.79 423.19C185.925 423.169 185.995 423.09 186.001 422.953C186.007 422.817 185.943 422.732 185.81 422.7Z" fill="rgb(38,50,56)" fill-rule="nonzero" />
        <path id="矢量 451" d="M188.64 424.42C184.71 423.67 179.9 424.26 176.89 427.05C176.77 427.16 176.89 427.33 177.06 427.29C180.828 426.079 184.681 425.286 188.62 424.91C188.755 424.889 188.826 424.81 188.831 424.673C188.837 424.536 188.773 424.452 188.64 424.42Z" fill="rgb(38,50,56)" fill-rule="nonzero" />
        <path id="矢量 452" d="M187.43 410.19C185.89 408.06 183.01 409.01 181.37 410.38C178.54 412.837 176.514 415.837 175.29 419.38C175.25 419.472 175.28 419.518 175.38 419.52C175.38 419.82 175.66 420.14 175.99 420.01C179.24 418.82 182.87 417.95 185.65 415.79C187.28 414.53 188.89 412.21 187.43 410.19ZM180.55 417.19C178.97 417.81 177.36 418.36 175.8 419.04C176.935 417.254 178.159 415.531 179.47 413.87C180.112 413.073 180.809 412.326 181.56 411.63C182.73 410.56 187.37 408.31 186.66 412.63C186.27 415 182.44 416.44 180.55 417.19L180.55 417.19Z" fill="rgb(38,50,56)" fill-rule="nonzero" />
        <path id="矢量 453" d="M165.3 418.31C168.53 419.7 172.3 419.64 175.7 419.99C176.133 419.988 176.293 419.778 176.18 419.36C176.251 419.307 176.251 419.253 176.18 419.2C174.127 416.082 171.433 413.682 168.1 412C166.16 411.08 163.1 410.88 162.18 413.33C161.26 415.78 163.41 417.5 165.3 418.31ZM163.53 415.51C161.77 411.51 166.82 412.51 168.22 413.26C169.119 413.758 169.982 414.312 170.81 414.92C172.495 416.199 174.108 417.562 175.65 419.01C173.97 418.74 172.28 418.61 170.59 418.4C168.57 418.15 164.5 417.71 163.53 415.51Z" fill="rgb(38,50,56)" fill-rule="nonzero" />
        <path id="矢量 454" d="M184.41 411.76L136.59 412.62C136.59 412.62 130.08 370.31 125.8 344C124.18 334.11 122.9 326.47 122.38 324.17C121.14 318.68 96.9099 231.54 96.9099 231.54L131.67 231.49L143.55 231.49C143.55 231.49 142.79 246.06 143.24 247.59C149.44 268.68 162.11 306.08 166.07 319.11C172.14 339.14 184.41 411.76 184.41 411.76Z" fill="rgb(166,166,166)" fill-rule="nonzero" />
        <path id="矢量 455" d="M180.06 404.43C173.2 404.38 148.86 404.11 139.72 404.96C139.691 404.972 139.676 404.993 139.676 405.025C139.676 405.057 139.691 405.078 139.72 405.09C142.87 405.54 173.2 404.84 180.07 404.62C180.158 404.644 180.2 404.61 180.195 404.518C180.191 404.427 180.145 404.397 180.06 404.43Z" fill="rgb(38,50,56)" fill-rule="nonzero" />
        <path id="矢量 456" d="M137.37 368.37C135.717 357.43 133.873 346.517 131.84 335.63C130.84 330.28 129.75 324.94 128.35 319.63C126.95 314.32 125.17 309.07 123.35 303.86C119.77 293.5 116.35 283.09 113.14 272.61C109.93 262.13 106.94 251.61 104.14 241C103.78 239.66 103.43 238.32 103.04 237C103.04 236.89 102.85 236.94 102.87 237C103.96 242.34 105.37 247.63 106.72 252.91C108.07 258.19 109.52 263.45 111.03 268.69C114.07 279.21 117.367 289.657 120.92 300.03C122.69 305.19 124.53 310.34 126.1 315.57C127.67 320.8 128.89 326.1 129.98 331.44C132.19 342.28 134.07 353.19 135.81 364.1C137.55 375.01 139.04 386.1 140.5 397.1C140.69 398.49 140.87 399.89 141.05 401.29C141.1 401.68 141.72 401.68 141.68 401.29C140.55 390.32 139 379.33 137.37 368.37Z" fill="rgb(38,50,56)" fill-rule="nonzero" />
        <path id="矢量 457" d="M131.67 231.47L125.8 344C124.18 334.11 122.9 326.47 122.38 324.17C121.14 318.68 96.9099 231.54 96.9099 231.54L131.67 231.47Z" fill="rgb(38,50,56)" fill-rule="nonzero" />
        <path id="矢量 458" d="M146.39 451.48C144.32 452.17 85.05 452 82.79 450.56C81.94 450.03 81.46 441.39 81.18 430.94C81.11 428.68 81.07 426.36 81.03 423.99C81.03 421.18 80.95 418.35 80.93 415.59C80.86 403.21 81.03 392.31 81.03 392.31L119.61 392.31L119.61 424L119.41 430.95C119.41 430.95 142.07 441.17 144.41 443.01C146.75 444.85 148.46 450.8 146.39 451.48Z" fill="rgb(173,99,89)" fill-rule="nonzero" />
        <path id="矢量 459" d="M146.39 451.48C144.32 452.17 85.0499 452 82.7899 450.56C81.9399 450.03 81.4599 441.39 81.1799 430.94C81.1099 428.68 81.0699 426.36 81.0299 423.99C81.0299 421.18 80.9499 418.35 80.9299 415.59L119.6 415.59L119.6 424L119.4 430.95C119.4 430.95 142.06 441.17 144.4 443.01C146.74 444.85 148.46 450.8 146.39 451.48Z" fill="rgb(255,255,255)" fill-rule="nonzero" />
        <path id="矢量 460" d="M146.57 451.57C145.22 452.01 119.97 452.1 101.57 451.72C97.3201 451.63 93.4301 451.51 90.2901 451.38C85.9701 451.18 83.0701 450.94 82.5901 450.64C81.5901 449.97 81.0501 437.3 80.8201 423.92L119.59 423.92L119.39 430.92C119.39 430.92 142.2 441.19 144.52 443C146.84 444.81 148.65 450.87 146.57 451.57Z" fill="rgb(255,199,39)" fill-rule="nonzero" />
        <path id="矢量 461" d="M145.72 449.18C135.72 448.91 95.41 448.74 85.52 449.23C85.44 449.23 85.44 449.29 85.52 449.3C95.41 449.78 135.73 449.62 145.72 449.35C145.93 449.34 145.93 449.19 145.72 449.18Z" fill="rgb(38,50,56)" fill-rule="nonzero" />
        <path id="矢量 462" d="M120.83 428.7C116.9 427.95 112.09 428.54 109.08 431.33C108.96 431.44 109.08 431.61 109.24 431.57C113.012 430.365 116.869 429.572 120.81 429.19C120.945 429.169 121.016 429.09 121.021 428.953C121.027 428.817 120.963 428.732 120.83 428.7Z" fill="rgb(38,50,56)" fill-rule="nonzero" />
        <path id="矢量 463" d="M123.66 430.42C119.73 429.67 114.92 430.26 111.91 433.05C111.79 433.16 111.91 433.33 112.08 433.29C115.851 432.079 119.707 431.285 123.65 430.91C123.784 430.886 123.853 430.805 123.856 430.669C123.858 430.533 123.793 430.45 123.66 430.42Z" fill="rgb(38,50,56)" fill-rule="nonzero" />
        <path id="矢量 464" d="M126.5 432.13C122.57 431.39 117.76 431.98 114.74 434.77C114.63 434.88 114.74 435.04 114.91 435C118.682 433.798 122.539 433.008 126.48 432.63C126.647 432.637 126.733 432.557 126.74 432.39C126.747 432.223 126.667 432.137 126.5 432.13Z" fill="rgb(38,50,56)" fill-rule="nonzero" />
        <path id="矢量 465" d="M129.33 433.85C125.4 433.11 120.59 433.7 117.58 436.49C117.46 436.6 117.58 436.76 117.74 436.72C121.512 435.519 125.369 434.729 129.31 434.35C129.477 434.357 129.563 434.277 129.57 434.11C129.577 433.943 129.497 433.857 129.33 433.85Z" fill="rgb(38,50,56)" fill-rule="nonzero" />
        <path id="矢量 466" d="M128.12 419.63C126.58 417.49 123.7 418.44 122.05 419.82C119.22 422.277 117.194 425.277 115.97 428.82C115.945 428.908 115.978 428.955 116.07 428.96C116.06 429.125 116.12 429.259 116.249 429.362C116.377 429.466 116.521 429.495 116.68 429.45C119.93 428.26 123.55 427.39 126.34 425.23C128 424 129.57 421.64 128.12 419.63ZM121.24 426.63C119.65 427.26 118.05 427.8 116.49 428.49C117.68 426.74 118.79 424.95 120.15 423.32C120.798 422.524 121.494 421.774 122.24 421.07C123.42 420.01 128.05 417.76 127.35 422.07C127 424.44 123.13 425.88 121.24 426.62L121.24 426.63Z" fill="rgb(38,50,56)" fill-rule="nonzero" />
        <path id="矢量 467" d="M106 427.75C109.24 429.14 113 429.08 116.41 429.43C116.577 429.431 116.71 429.365 116.808 429.23C116.907 429.096 116.931 428.949 116.88 428.79C116.966 428.761 116.986 428.708 116.94 428.63C114.867 425.515 112.157 423.122 108.81 421.45C106.87 420.53 103.81 420.33 102.89 422.78C101.97 425.23 104.09 426.94 106 427.75ZM104.24 424.94C102.48 420.94 107.53 421.94 108.93 422.7C109.831 423.191 110.694 423.741 111.52 424.35C113.202 425.635 114.815 427.002 116.36 428.45C114.67 428.17 112.98 428.05 111.29 427.84C109.26 427.59 105.19 427.15 104.22 424.94L104.24 424.94Z" fill="rgb(38,50,56)" fill-rule="nonzero" />
        <path id="矢量 468" d="M125 420.63L78.21 420.63C78.21 420.63 88.38 275.55 86.74 267.42C84.05 254.11 85.84 238.82 92.14 231.42L133.77 231.42C133.77 231.42 134.6 243.1 130.3 250.08C130.3 250.08 126.39 252.55 124.5 253.64L125 420.63Z" fill="rgb(166,166,166)" fill-rule="nonzero" />
        <path id="矢量 469" d="M120.64 413.06C114.16 412.9 116.03 412.85 109.54 412.76C106.37 412.71 85.54 412.42 82.54 412.89C82.47 412.89 82.47 413.01 82.54 413.02C85.54 413.53 106.36 413.46 109.54 413.44C116.02 413.44 114.16 413.35 120.64 413.25C120.686 413.235 120.709 413.203 120.709 413.155C120.709 413.107 120.686 413.075 120.64 413.06Z" fill="rgb(38,50,56)" fill-rule="nonzero" />
        <path id="矢量 470" d="M132.9 248.25C128.799 250.227 124.896 252.537 121.19 255.18C121.114 255.227 121.099 255.288 121.146 255.365C121.192 255.441 121.253 255.456 121.33 255.41C125.33 253.22 129.33 251.1 133.17 248.7C133.32 248.61 133.35 248.49 133.26 248.34C133.17 248.19 133.05 248.16 132.9 248.25Z" fill="rgb(38,50,56)" fill-rule="nonzero" />
        <path id="矢量 471" d="M127.59 247.65C127.353 248.458 127.166 249.278 127.03 250.11C126.859 250.768 126.815 251.435 126.9 252.11C126.9 252.24 127.11 252.23 127.17 252.11C127.486 251.476 127.699 250.809 127.81 250.11C128.01 249.34 128.23 248.58 128.4 247.81C128.52 247.32 127.75 247.15 127.59 247.65Z" fill="rgb(38,50,56)" fill-rule="nonzero" />
        <path id="矢量 472" d="M127.22 243.64C127.33 242.94 127.44 242.25 127.57 241.56C127.7 240.87 127.88 240.12 127.95 239.4C127.95 239.28 128.15 239.32 128.13 239.4C128.02 240.1 128.01 240.82 127.95 241.52C127.89 242.22 127.83 242.93 127.76 243.63C127.619 244.95 127.413 246.26 127.14 247.56C127.839 247.441 128.479 247.178 129.06 246.77C129.605 246.209 129.938 245.542 130.06 244.77C130.26 243.97 130.44 243.17 130.65 242.37C130.934 241.502 131.137 240.615 131.26 239.71C131.26 239.59 131.46 239.63 131.44 239.71C131.277 241.616 130.924 243.486 130.38 245.32C130.259 246.069 129.909 246.689 129.33 247.18C128.601 247.569 127.824 247.799 127 247.87C126.91 247.87 126.77 247.87 126.78 247.76C126.858 246.379 127.005 245.006 127.22 243.64Z" fill="rgb(38,50,56)" fill-rule="nonzero" />
        <path id="矢量 473" d="M93.5001 266.89C93.2001 263.83 92.7001 260.79 92.3701 257.73C91.7406 251.564 92.1073 245.457 93.4701 239.41C93.4701 239.3 93.3201 239.25 93.3001 239.41C92.1118 244.705 91.5652 250.065 91.6601 255.49C91.9301 260.89 92.8901 266.21 92.9701 271.62C93.0501 277.03 92.6301 282.57 92.2801 288.03C91.9301 293.49 91.5701 299.03 91.2201 304.52C89.8001 326.61 88.4901 348.7 87.1401 370.8C86.7667 376.96 86.4067 383.127 86.0601 389.3C85.7001 395.57 85.2601 401.85 85.0601 408.14C85.0601 408.68 85.8401 408.64 85.8901 408.14C86.8301 397.05 87.3701 385.92 88.0801 374.83C88.7901 363.74 89.4201 352.83 90.0801 341.83C90.7401 330.83 91.4101 319.83 92.0801 308.83C92.4001 303.337 92.7334 297.843 93.0801 292.35C93.4001 286.88 93.8001 281.4 93.8801 275.92C93.9241 272.903 93.7974 269.893 93.5001 266.89Z" fill="rgb(38,50,56)" fill-rule="nonzero" />
        <path id="矢量 474" d="M108.24 239C108.183 238.909 108.127 238.909 108.07 239C107.82 239.729 107.69 240.479 107.68 241.25C107.55 242.071 107.36 242.878 107.11 243.67C106.643 245.288 105.81 246.688 104.61 247.87C101.99 250.32 98.4799 251.23 95.0999 252.05C95.0484 252.066 95.0227 252.101 95.0227 252.155C95.0227 252.209 95.0484 252.244 95.0999 252.26C97.1287 252.351 99.0953 252.045 101 251.34C102.701 250.82 104.218 249.97 105.55 248.79C106.837 247.565 107.657 246.082 108.01 244.34C108.189 243.449 108.282 242.549 108.29 241.64C108.29 241.21 108.29 240.78 108.29 240.34C108.362 239.89 108.346 239.443 108.24 239Z" fill="rgb(38,50,56)" fill-rule="nonzero" />
        <path id="矢量 475" d="M127.84 182.88C128.7 189.68 142.02 214.96 156.2 226.16C161.4 230.27 188.97 232.7 195.87 232.16C203.94 231.54 205.15 212.33 200.63 210.83C194.98 208.96 168.84 206.65 163.71 204.83C157.47 202.57 146.11 188.06 135.31 179.08C129.76 174.43 127.18 177.65 127.84 182.88Z" fill="rgb(173,99,89)" fill-rule="nonzero" />
        <path id="矢量 476" d="M195.87 232.17C198.42 232.1 210.09 230.76 213.26 229.66C216.43 228.56 225.26 224.74 224.7 222.23C224.14 219.72 221.42 220.63 221.42 220.63C221.42 220.63 224.91 218.42 224.08 215.95C223.25 213.48 219.08 215.04 219.08 215.04C219.08 215.04 222.5 212.51 221.49 210.1C220.48 207.69 216.59 209.96 216.59 209.96C216.59 209.96 219.83 207.79 218.17 206.15C216.17 204.15 210.65 208.86 207.07 209.81C206.25 210.03 190.25 213.02 190.25 213.02L195.87 232.17Z" fill="rgb(173,99,89)" fill-rule="nonzero" />
        <path id="矢量 477" d="M217 209.77C212.93 213.19 210.56 213.99 205.38 214.7C205.34 214.714 205.32 214.742 205.32 214.785C205.32 214.828 205.34 214.856 205.38 214.87C210.51 214.63 213.63 214.06 217.17 209.96C217.32 209.76 217.16 209.61 217 209.77Z" fill="rgb(38,50,56)" fill-rule="nonzero" />
        <path id="矢量 478" d="M219.43 214.76C214.9 218 212.34 218.83 207 220C206.93 220 206.95 220.15 207 220.14C212.36 219.45 215.46 218.81 219.57 215.03C219.74 214.84 219.64 214.61 219.43 214.76Z" fill="rgb(38,50,56)" fill-rule="nonzero" />
        <path id="矢量 479" d="M221.14 220.68C216.53 223.45 213.76 224.54 208.4 224.99C208.333 224.99 208.3 225.023 208.3 225.09C208.3 225.157 208.333 225.19 208.4 225.19C213.262 225.483 217.528 224.03 221.2 220.83C221.47 220.62 221.43 220.51 221.14 220.68Z" fill="rgb(38,50,56)" fill-rule="nonzero" />
        <path id="矢量 480" d="M186.55 210.92C189.247 209.177 192.057 207.64 194.98 206.31C197.8 205.31 209.7 205.31 209.83 207.89C210.01 211.21 203.14 212.54 199.69 212.76C199.69 212.76 200.12 220.43 195.39 222.46C190.66 224.49 186.55 210.92 186.55 210.92Z" fill="rgb(173,99,89)" fill-rule="nonzero" />
        <path id="矢量 481" d="M209.59 208.82C207.59 211.96 203.02 211.95 199.69 212.41C199.376 212.426 199.293 212.573 199.44 212.85C199.44 216.08 198.44 220.62 195.59 222.53C195.5 222.59 195.59 222.72 195.66 222.67C198.97 221.03 200.31 216.67 200.12 213.1C203.54 212.69 208.12 212.5 209.62 208.83C209.63 208.81 209.6 208.8 209.59 208.82Z" fill="rgb(38,50,56)" fill-rule="nonzero" />
        <path id="矢量 482" d="M172.05 231.8C172.05 231.8 157.93 227.94 156.21 226.59C154.332 225.114 152.545 223.534 150.85 221.85C138 209.22 130.24 192 128.14 186C125.92 179.61 127.96 173.49 133.91 177.61C134.389 177.949 134.849 178.312 135.29 178.7C142.29 184.8 161.01 203.35 163.29 204.3C165.57 205.25 176.56 206.69 176.56 206.69L172.05 231.8Z" fill="rgb(69,90,100)" fill-rule="nonzero" />
        <path id="矢量 483" d="M150.85 221.85C138 209.22 130.24 192 128.14 186C125.92 179.61 127.96 173.49 133.91 177.61L150.85 221.85Z" fill="rgb(38,50,56)" fill-rule="nonzero" />
        <path id="矢量 484" d="M172 206.25C171.342 208.182 170.799 210.145 170.37 212.14C169.88 214.14 169.37 216.14 168.96 218.14C168.069 222.066 167.402 226.029 166.96 230.03C166.961 230.089 166.991 230.119 167.05 230.119C167.109 230.119 167.139 230.089 167.14 230.03C168.22 226.11 169.02 222.1 169.84 218.12C170.25 216.12 170.62 214.18 171.03 212.22C171.44 210.26 171.93 208.22 172.15 206.28C172.16 206.23 172.14 206.2 172.09 206.19C172.04 206.18 172.01 206.2 172 206.25Z" fill="rgb(38,50,56)" fill-rule="nonzero" />
        <path id="矢量 485" d="M141.54 196.73C141.87 198.21 142.13 199.73 142.33 201.29C142.325 201.23 142.325 201.17 142.33 201.11C142.41 200.26 142.47 199.39 142.62 198.55C142.62 198.55 142.7 198.5 142.7 198.55C142.752 199.417 142.719 200.28 142.6 201.14C142.55 201.55 142.5 201.96 142.44 202.36C142.51 203.05 142.57 203.74 142.61 204.42C142.69 205.72 142.94 211.27 142.91 212.22C142.91 212.42 142.68 212.44 142.63 212.22C142.44 211.22 141.94 205.53 141.8 204.22C141.538 201.72 141.411 199.213 141.42 196.7C141.44 196.67 141.52 196.68 141.54 196.73Z" fill="rgb(38,50,56)" fill-rule="nonzero" />
        <path id="矢量 486" d="M143.13 238.27C141.13 240.07 138.69 242.7 124.65 243.68C123.77 243.68 122.87 243.75 121.97 243.68C108.45 243.3 89.4801 232.68 88.3501 231.84C88.3501 231.84 102.92 192.42 122.19 177.29C124.94 175.12 130.84 176.19 134.53 178.42C135.85 179.22 140.21 186.51 141.09 193.15C141.97 199.79 145.12 236.47 143.13 238.27Z" fill="rgb(69,90,100)" fill-rule="nonzero" />
        <path id="矢量 487" d="M132.18 188.3C128.78 188.58 123.91 182.7 122.31 178.3C122.2 178 123.08 175.13 123.98 171.59C124.52 169.44 125.07 167.04 125.41 164.81C125.48 164.35 126.91 165.43 126.91 165.43L129.69 166.57L138.89 170.35C137.656 173.027 136.766 175.813 136.22 178.71C136.19 179.023 136.19 179.337 136.22 179.65C136.224 179.7 136.224 179.75 136.22 179.8C136.19 181.57 135.46 188 132.18 188.3Z" fill="rgb(173,99,89)" fill-rule="nonzero" />
        <path id="矢量 488" d="M136.18 179.64C136.184 179.69 136.184 179.74 136.18 179.79C135.693 179.784 135.209 179.737 134.73 179.65C125.33 178 126 165.83 126 165.83L129.7 166.56L138.9 170.34C137.666 173.017 136.776 175.803 136.23 178.7C136.184 179.012 136.167 179.325 136.18 179.64Z" fill="rgb(38,50,56)" fill-rule="nonzero" />
        <path id="矢量 489" d="M124.46 150.16C122.67 155.1 124.58 169.72 127.98 173.16C132.91 178.16 141.36 178.99 145.65 172.97C149.82 167.15 146.99 148.13 143.16 144.97C137.51 140.34 127.1 142.87 124.46 150.16Z" fill="rgb(173,99,89)" fill-rule="nonzero" />
        <path id="矢量 490" d="M137.78 160.28C137.78 160.28 137.71 160.34 137.72 160.38C137.87 161.38 137.89 162.51 137.03 162.95C137.03 162.95 137.03 163.01 137.03 163C138.12 162.71 138.09 161.18 137.78 160.28Z" fill="rgb(38,50,56)" fill-rule="nonzero" />
        <path id="矢量 491" d="M136.77 159.36C135.17 159.44 135.45 162.63 136.93 162.56C138.41 162.49 138.11 159.29 136.77 159.36Z" fill="rgb(38,50,56)" fill-rule="nonzero" />
        <path id="矢量 492" d="M143.84 159.62C143.84 159.62 143.92 159.62 143.92 159.7C143.98 160.7 144.21 161.82 145.13 162.08C144 162.07 143.73 160.57 143.84 159.62Z" fill="rgb(38,50,56)" fill-rule="nonzero" />
        <path id="矢量 493" d="M144.64 158.51C146.22 158.26 146.64 161.44 145.15 161.68C143.66 161.92 143.31 158.73 144.64 158.51Z" fill="rgb(38,50,56)" fill-rule="nonzero" />
        <path id="矢量 494" d="M135.53 157C135.95 156.85 136.32 156.64 136.73 156.45C137.189 156.316 137.559 156.056 137.84 155.67C137.995 155.355 137.939 155.085 137.67 154.86C137.1 154.531 136.53 154.531 135.96 154.86C135.365 155.085 134.925 155.481 134.64 156.05C134.528 156.333 134.576 156.585 134.784 156.807C134.992 157.029 135.241 157.093 135.53 157Z" fill="rgb(38,50,56)" fill-rule="nonzero" />
        <path id="矢量 495" d="M145.64 157.43C145.202 157.382 144.769 157.309 144.34 157.21C143.859 157.195 143.432 157.035 143.06 156.73C142.853 156.457 142.853 156.183 143.06 155.91C143.514 155.427 144.061 155.274 144.7 155.45C145.334 155.516 145.864 155.786 146.29 156.26C146.484 156.513 146.503 156.779 146.348 157.058C146.193 157.337 145.957 157.461 145.64 157.43Z" fill="rgb(38,50,56)" fill-rule="nonzero" />
        <path id="矢量 496" d="M137.71 169.21C137.96 169.42 138.23 169.72 138.59 169.72C138.946 169.674 139.28 169.561 139.59 169.38L139.64 169.43C139.362 169.88 138.959 170.093 138.43 170.07C137.966 169.994 137.679 169.727 137.57 169.27C137.59 169.21 137.67 169.18 137.71 169.21Z" fill="rgb(38,50,56)" fill-rule="nonzero" />
        <path id="矢量 497" d="M142.45 165C142.55 165.72 142.614 166.443 142.64 167.17C141.281 167.176 139.948 167.362 138.64 167.73C138.34 167.83 138.34 167.57 138.64 167.37C139.683 166.749 140.809 166.479 142.02 166.56C142.02 166.37 141.68 164.3 141.79 164.29C142.33 164.345 142.853 164.468 143.36 164.66C143.05 161.58 142.25 158.57 141.98 155.5C141.98 155.39 142.13 155.35 142.16 155.45C143.129 158.655 143.765 161.925 144.07 165.26C144.16 165.65 142.73 165.11 142.45 165Z" fill="rgb(38,50,56)" fill-rule="nonzero" />
        <path id="矢量 498" d="M125.52 162.35C128.04 162.17 127.72 156.01 127.72 156.01C127.72 156.01 131.56 155.27 133.37 150.01C133.37 150.01 138.37 153.01 142.5 152.25C148.98 150.99 148.7 142.54 146.25 140.85C142.77 138.45 136.67 142.08 136.67 142.08C136.67 142.08 127.35 139.61 124.67 145.93C123.422 146.032 122.376 146.546 121.533 147.473C120.69 148.399 120.275 149.488 120.29 150.74C120.05 155.29 123.65 162.48 125.52 162.35Z" fill="rgb(38,50,56)" fill-rule="nonzero" />
        <path id="矢量 499" d="M126.83 156.75C128.748 156.395 130.355 155.488 131.65 154.03C133.111 152.375 133.581 150.475 133.06 148.33C133.074 148.29 133.102 148.27 133.145 148.27C133.188 148.27 133.216 148.29 133.23 148.33C133.868 150.547 133.535 152.607 132.23 154.51C130.892 156.362 129.085 157.182 126.81 156.97C126.75 156.92 126.72 156.77 126.83 156.75Z" fill="rgb(38,50,56)" fill-rule="nonzero" />
        <path id="矢量 500" d="M119.92 148C121.18 146.36 123.13 146.09 125.06 146.13C125.17 146.13 125.17 146.31 125.06 146.3C122.941 146.248 121.347 147.138 120.28 148.97C119.28 150.51 119.57 152.42 119.98 154.1C120.789 157.467 122.619 160.134 125.47 162.1L125.47 162.17C122.16 160.146 120.107 157.236 119.31 153.44C118.92 151.68 118.76 149.54 119.92 148Z" fill="rgb(38,50,56)" fill-rule="nonzero" />
        <path id="矢量 501" d="M136.42 142.36C137.251 140.988 138.431 140.062 139.96 139.58C141.821 139.052 143.621 139.212 145.36 140.06C146.825 140.828 147.591 142.038 147.66 143.69C147.681 145.492 147.131 147.099 146.01 148.51C146.01 148.51 145.92 148.51 145.95 148.51C146.839 147.185 147.263 145.725 147.22 144.13C147.16 142.481 146.373 141.328 144.86 140.67C142.18 139.52 138.28 139.76 136.56 142.49C136.51 142.55 136.36 142.45 136.42 142.36Z" fill="rgb(38,50,56)" fill-rule="nonzero" />
        <path id="矢量 502" d="M127 162.12C127 162.12 123.87 157.33 121.7 158.44C119.53 159.55 121.8 166.44 124.27 167.44C124.918 167.757 125.581 167.791 126.258 167.543C126.936 167.295 127.42 166.84 127.71 166.18L127 162.12Z" fill="rgb(173,99,89)" fill-rule="nonzero" />
        <path id="矢量 503" d="M122.35 160.39C122.35 160.39 122.35 160.44 122.35 160.46C124.024 161.36 125.088 162.734 125.54 164.58C125.336 164.198 125.023 163.961 124.599 163.87C124.176 163.779 123.793 163.866 123.45 164.13C123.45 164.13 123.45 164.23 123.45 164.22C124.158 164.019 124.725 164.219 125.15 164.82C125.461 165.265 125.721 165.739 125.93 166.24C126.01 166.4 126.29 166.32 126.24 166.14C126.38 163.87 124.74 160.69 122.35 160.39Z" fill="rgb(38,50,56)" fill-rule="nonzero" />
        <path id="矢量 504" d="M32.67 470.32L0 470.32L0 464.32L32.67 464.32C58.55 464.32 65.93 442.17 67.56 423.59C68.84 409.04 69.62 391.32 70.45 372.59C73.56 302.41 76.78 229.84 105.02 229.84L130.9 229.84L130.9 235.84L105 235.84C82.5 235.84 79 315.03 76.43 372.84C75.59 391.67 74.8 409.45 73.52 424.14C70.92 453.91 56.41 470.32 32.67 470.32Z" fill="rgb(255,199,39)" fill-rule="nonzero" />
        <path id="矢量 505" d="M130.9 229.81L130.9 235.81L110.26 235.81L108.98 229.81L130.9 229.81Z" opacity="0.200000003" fill="rgb(0,0,0)" fill-rule="nonzero" />
        <rect id="矩形 42" width="11.0200043" height="76.9799957" x="0" y="0" fill="rgb(255,199,39)" transform="matrix(-1,0,0,-1,231.7,271.57)" />
        <rect id="矩形 43" width="41.8800049" height="68.8799896" x="178.800049" y="198.23999" fill="rgb(255,199,39)" />
        <path id="矢量 506" d="M220.68 198.24L220.68 267.12L210.28 267.12L205.61 198.24L220.68 198.24Z" opacity="0.200000003" fill="rgb(0,0,0)" fill-rule="nonzero" />
        <rect id="矩形 44" width="31.0699921" height="12.2700043" x="0" y="0" fill="rgb(255,199,39)" transform="matrix(-1,0,0,-1,146.43,238.94)" />
        <rect id="矩形 45" width="31.0699921" height="12.2700043" x="115.360107" y="226.679932" fill="rgb(255,199,39)" />
        <path id="矢量 507" d="M135.52 238.94L136.54 226.68L146.43 226.68L146.43 238.94L135.52 238.94Z" opacity="0.200000003" fill="rgb(0,0,0)" fill-rule="nonzero" />
        <path id="矢量 508" d="M0 0L26.22 0C27.0355 4.04689e-06 27.82 0.156054 28.5735 0.468149C29.327 0.780245 29.992 1.22463 30.5687 1.8013C31.1454 2.37798 31.5898 3.04304 31.9019 3.7965C32.2139 4.54996 32.37 5.33446 32.37 6.14999L32.37 53.79C32.37 54.6055 32.2139 55.39 31.9019 56.1435C31.5898 56.8969 31.1454 57.562 30.5687 58.1387C29.992 58.7154 29.327 59.1597 28.5735 59.4718C27.82 59.7839 27.0355 59.94 26.22 59.94L0 59.94L0 0Z" fill="rgb(255,199,39)" fill-rule="nonzero" transform="matrix(-1,0,0,-1,178.8,263.04)" />
        <path id="矢量 509" d="M165.02 263.04L169.69 203.11L178.8 203.11L178.8 263.04L165.02 263.04Z" opacity="0.200000003" fill="rgb(0,0,0)" fill-rule="nonzero" />
        <g id="组合 9" opacity="0.200000003">
            <rect id="矩形 46" width="2.07000732" height="35.6999969" x="0" y="0" fill="rgb(0,0,0)" transform="matrix(-1,0,0,-1,169.5,250.92)" />
            <rect id="矩形 47" width="2.07000732" height="35.6999969" x="0" y="0" fill="rgb(0,0,0)" transform="matrix(-1,0,0,-1,163.65,250.92)" />
            <rect id="矩形 48" width="2.07000732" height="35.6999969" x="0" y="0" fill="rgb(0,0,0)" transform="matrix(-1,0,0,-1,157.79,250.92)" />
        </g>
        <path id="矢量 510" d="M113.45 191.15C112.45 205.59 111.31 235 117.69 243.63C126.06 254.95 149.69 261.82 156.69 263.88C159.69 264.77 166.88 244.88 165.1 242.02C163.32 239.16 138.93 233.02 137.01 231.34C135.09 229.66 129.01 206.22 126.12 194.28C122.38 179.22 113.86 185.45 113.45 191.15Z" fill="rgb(173,99,89)" fill-rule="nonzero" />
        <path id="矢量 511" d="M183.12 249.66C186.97 250.58 192.81 248.6 193 251.55C193.17 254.17 189 255.14 189 255.14C189 255.14 194.06 255.57 193.44 258.44C192.82 261.31 188.02 261.44 188.02 261.44C188.02 261.44 192.66 262.07 191.83 264.89C191 267.71 186.55 268.1 186.55 268.1C186.55 268.1 187.72 268.97 186.24 270.7C184.13 273.18 177.09 272.89 173.46 271.87C169.83 270.85 157.26 264.41 155.35 263.38L161.72 239.98C161.72 239.98 169.03 238.82 172.81 238.68C176.59 238.54 189.16 241.54 188.63 244.68C188.1 247.82 179.25 245.58 176.96 245.5C174.67 245.42 174.27 245.93 175.27 246.77C175.92 247.36 181.41 249.25 183.12 249.66Z" fill="rgb(173,99,89)" fill-rule="nonzero" />
        <path id="矢量 512" d="M188.77 255.09C182.86 256.09 180.1 255.43 174.68 253.09C174.57 253.04 174.48 253.19 174.59 253.25C179.69 256 183.04 257.25 188.83 255.36C189.12 255.28 189.06 255.05 188.77 255.09Z" fill="rgb(38,50,56)" fill-rule="nonzero" />
        <path id="矢量 513" d="M188.25 261.34C182.02 261.79 179.03 261.16 173.17 259.14C173.09 259.14 173.03 259.25 173.11 259.29C178.7 261.74 182.06 262.93 188.23 261.66C188.51 261.61 188.54 261.32 188.25 261.34Z" fill="rgb(38,50,56)" fill-rule="nonzero" />
        <path id="矢量 514" d="M186.47 268.06C180.4 268.06 177.09 267.5 171.65 264.82C171.589 264.789 171.54 264.804 171.506 264.863C171.472 264.923 171.483 264.972 171.54 265.01C176.82 268.29 180.95 269.01 186.45 268.25C186.82 268.19 186.85 268.06 186.47 268.06Z" fill="rgb(38,50,56)" fill-rule="nonzero" />
        <path id="矢量 515" d="M138.24 259.19C138.24 259.19 119.17 249.61 116.24 242.27C112.64 233.11 111.17 206.4 112.57 192.7C113.97 179 123.51 180.7 126.57 192.81C129.57 204.63 136.34 228.24 137.04 229.35C137.93 230.78 148.81 233.47 148.81 233.47" fill="rgb(69,90,100)" fill-rule="nonzero" />
        <path id="矢量 516" d="M136.33 226.29C136 225.16 135.42 222.61 135.09 221.51C134.42 219.31 133.75 217.1 133.09 214.9C132.43 212.7 131.72 210.49 130.99 208.3C130.86 207.93 130.74 207.55 130.62 207.18C130.68 206.94 130.41 204.04 130.43 203.33C130.43 203.22 130.25 203.21 130.26 203.33C130.287 204.042 130.263 204.752 130.19 205.46C130.19 205.59 130.19 205.73 130.19 205.86C129.73 204.42 129.27 202.99 128.8 201.59C128.8 201.49 128.6 201.53 128.63 201.59C129.53 204.59 129.97 206.48 130.63 208.91C131.29 211.34 131.97 213.6 132.63 215.91C133.29 218.22 134.06 220.57 134.79 222.91C135.201 224.298 135.681 225.661 136.23 227C136.65 227.9 136.67 227.48 136.33 226.29Z" fill="rgb(38,50,56)" fill-rule="nonzero" />
        <path id="矢量 517" d="M114.82 234.36C114.43 231.89 114.04 229.36 113.74 226.92C113.13 221.92 112.74 217 112.52 212C112.39 209.14 112.18 206.3 112.02 203.45C112.02 203.377 111.983 203.34 111.91 203.34C111.837 203.34 111.8 203.377 111.8 203.45C111.8 205.99 111.71 208.52 111.8 211.06C111.8 211.43 111.8 211.8 111.8 212.17L111.68 211.65C111.31 210.2 110.79 208.78 110.47 207.31C110.449 207.269 110.417 207.256 110.374 207.271C110.33 207.285 110.312 207.315 110.32 207.36C110.68 208.82 110.87 210.36 111.21 211.79C111.39 212.52 111.57 213.25 111.77 213.98L111.87 214.29C111.93 215.75 112 217.21 112.1 218.67C112.371 223.685 112.948 228.665 113.83 233.61C114.435 236.846 115.305 240.009 116.44 243.1C116.453 243.135 116.478 243.152 116.515 243.152C116.552 243.152 116.577 243.135 116.59 243.1C116 240.63 115.22 236.83 114.82 234.36Z" fill="rgb(38,50,56)" fill-rule="nonzero" />
        <path id="矢量 518" d="M145.27 233.46C144.225 235.257 143.291 237.11 142.47 239.02C141.59 240.9 140.7 242.78 139.87 244.68C138.186 248.424 136.716 252.251 135.46 256.16C135.455 256.211 135.476 256.246 135.523 256.264C135.571 256.283 135.61 256.271 135.64 256.23C137.5 252.53 139.09 248.68 140.71 244.87C141.51 242.99 142.28 241.09 143.07 239.21C143.86 237.33 144.76 235.44 145.37 233.5C145.39 233.44 145.3 233.41 145.27 233.46Z" fill="rgb(38,50,56)" fill-rule="nonzero" />
    </g>
    <g id="freepik--error-404--inject-72">
        <path id="矢量 519" d="M163.92 135.36C164.06 135.213 164.2 135.213 164.34 135.36C165.249 136.122 166.295 136.532 167.48 136.59C168.245 136.605 168.941 136.395 169.57 135.96C170.094 135.632 170.368 135.158 170.39 134.54C170.379 133.959 170.122 133.522 169.62 133.23C168.931 132.837 168.194 132.581 167.41 132.46C166.604 132.345 165.854 132.075 165.16 131.65C164.52 131.281 164.187 130.728 164.16 129.99C164.184 129.223 164.518 128.63 165.16 128.21C165.851 127.727 166.617 127.494 167.46 127.51C168.555 127.575 169.535 127.945 170.4 128.62C170.579 128.731 170.606 128.871 170.48 129.04C170.371 129.209 170.234 129.235 170.07 129.12C169.304 128.515 168.434 128.182 167.46 128.12C166.751 128.107 166.101 128.297 165.51 128.69C165.037 128.999 164.787 129.436 164.76 130C164.776 130.522 165.012 130.909 165.47 131.16C166.089 131.531 166.756 131.771 167.47 131.88C168.337 132.011 169.147 132.301 169.9 132.75C170.557 133.17 170.89 133.77 170.9 134.55C170.869 135.373 170.509 136.009 169.82 136.46C169.083 136.971 168.267 137.221 167.37 137.21C166.042 137.145 164.868 136.685 163.85 135.83C163.686 135.646 163.71 135.489 163.92 135.36Z" fill="rgb(38,50,56)" fill-rule="nonzero" />
        <path id="矢量 520" d="M177.62 127.47C178.27 127.436 178.9 127.53 179.512 127.75C180.124 127.97 180.67 128.3 181.149 128.74C181.629 129.18 182.004 129.695 182.276 130.286C182.548 130.877 182.695 131.498 182.717 132.148C182.739 132.798 182.635 133.427 182.404 134.035C182.173 134.643 181.834 135.183 181.385 135.655C180.937 136.126 180.415 136.493 179.82 136.754C179.224 137.016 178.601 137.152 177.951 137.163C177.301 137.174 176.673 137.058 176.069 136.817C175.465 136.575 174.932 136.227 174.468 135.77C174.004 135.314 173.647 134.786 173.396 134.186C173.145 133.586 173.019 132.96 173.02 132.31C173.001 131.683 173.104 131.077 173.327 130.491C173.551 129.906 173.879 129.386 174.311 128.931C174.743 128.477 175.246 128.123 175.819 127.869C176.393 127.616 176.993 127.483 177.62 127.47ZM177.62 136.47C178.73 136.416 179.669 135.986 180.436 135.18C181.202 134.375 181.586 133.417 181.586 132.305C181.586 131.193 181.202 130.235 180.436 129.429C179.669 128.624 178.73 128.194 177.62 128.14C176.509 128.194 175.571 128.624 174.804 129.429C174.038 130.235 173.654 131.193 173.654 132.305C173.654 133.417 174.038 134.375 174.804 135.18C175.571 135.986 176.509 136.416 177.62 136.47Z" fill="rgb(38,50,56)" fill-rule="nonzero" />
        <path id="矢量 521" d="M189.76 135C189.764 134.377 189.504 133.897 188.98 133.56C188.645 133.327 188.279 133.167 187.88 133.08L187.81 133.08L185.5 133.08L185.5 136.85C185.467 137.038 185.356 137.132 185.165 137.132C184.974 137.132 184.863 137.038 184.83 136.85L184.83 127.97C184.834 127.773 184.934 127.663 185.13 127.64L187.85 127.64C188.478 127.652 189.034 127.856 189.52 128.253C190.006 128.65 190.317 129.155 190.454 129.768C190.59 130.38 190.523 130.97 190.252 131.536C189.98 132.101 189.563 132.523 189 132.8L189.13 132.87C189.985 133.318 190.415 134.025 190.42 134.99C190.404 135.366 190.444 135.736 190.54 136.1C190.562 136.189 190.606 136.265 190.67 136.33C190.887 136.28 191.02 136.363 191.07 136.58C191.12 136.797 191.037 136.93 190.82 136.98C190.767 136.985 190.713 136.985 190.66 136.98C190.375 136.947 190.171 136.8 190.05 136.54C189.832 136.05 189.735 135.536 189.76 135ZM187.85 128.29L185.5 128.29L185.5 132.4L187.91 132.4C188.45 132.355 188.902 132.132 189.266 131.731C189.63 131.33 189.807 130.859 189.8 130.317C189.792 129.775 189.6 129.309 189.225 128.919C188.849 128.529 188.391 128.319 187.85 128.29L187.85 128.29Z" fill="rgb(38,50,56)" fill-rule="nonzero" />
        <path id="矢量 522" d="M198.28 135C198.28 134.379 198.02 133.899 197.5 133.56C197.165 133.329 196.798 133.169 196.4 133.08L196.33 133.08L194 133.08L194 136.85C193.967 137.038 193.856 137.132 193.665 137.132C193.474 137.132 193.363 137.038 193.33 136.85L193.33 127.97C193.334 127.773 193.434 127.663 193.63 127.64L196.36 127.64C196.999 127.64 197.567 127.84 198.065 128.24C198.563 128.64 198.881 129.153 199.018 129.776C199.155 130.4 199.081 130.998 198.797 131.571C198.512 132.143 198.08 132.562 197.5 132.83L197.64 132.9C198.492 133.35 198.919 134.056 198.92 135.02C198.904 135.396 198.944 135.766 199.04 136.13C199.064 136.221 199.11 136.297 199.18 136.36C199.356 136.345 199.479 136.418 199.55 136.58C199.606 136.79 199.533 136.933 199.33 137.01C199.273 137.014 199.217 137.014 199.16 137.01C198.87 136.981 198.663 136.834 198.54 136.57C198.329 136.067 198.242 135.544 198.28 135ZM196.37 128.29L194 128.29L194 132.4L196.41 132.4C196.95 132.362 197.404 132.146 197.773 131.75C198.142 131.354 198.327 130.886 198.327 130.345C198.327 129.804 198.142 129.336 197.773 128.94C197.404 128.544 196.95 128.328 196.41 128.29L196.37 128.29Z" fill="rgb(38,50,56)" fill-rule="nonzero" />
        <path id="矢量 523" d="M204.32 132.57L201.12 128.19C201.007 128.016 201.03 127.863 201.19 127.73C201.366 127.577 201.519 127.597 201.65 127.79L204.65 131.89L207.65 127.79C207.785 127.597 207.941 127.577 208.12 127.73C208.296 127.86 208.319 128.013 208.19 128.19L205 132.54L205 136.82C205 137.04 204.89 137.15 204.67 137.15C204.45 137.15 204.34 137.04 204.34 136.82L204.32 132.57Z" fill="rgb(38,50,56)" fill-rule="nonzero" />
        <path id="矢量 524" d="M209.775 127.94C209.807 127.752 209.917 127.658 210.105 127.658C210.293 127.658 210.403 127.752 210.435 127.94L210.435 134.78C210.48 135.045 210.37 135.178 210.105 135.178C209.839 135.178 209.729 135.045 209.775 134.78L209.775 127.94ZM209.775 136.49C209.807 136.302 209.917 136.208 210.105 136.208C210.293 136.208 210.403 136.302 210.435 136.49L210.435 136.82C210.403 137.008 210.293 137.102 210.105 137.102C209.917 137.102 209.807 137.008 209.775 136.82L209.775 136.49Z" fill="rgb(38,50,56)" fill-rule="nonzero" />
        <path id="矢量 525" d="M217.45 127.94C217.45 127.72 217.56 127.61 217.78 127.61L220.48 127.61C221.231 127.61 221.872 127.876 222.403 128.407C222.934 128.938 223.2 129.579 223.2 130.33C223.2 131.081 222.934 131.722 222.403 132.253C221.872 132.784 221.231 133.05 220.48 133.05L218.12 133.05L218.12 136.8C218.087 136.988 217.976 137.082 217.785 137.082C217.594 137.082 217.483 136.988 217.45 136.8L217.45 127.94ZM220.45 132.4C221.017 132.392 221.501 132.187 221.901 131.784C222.302 131.382 222.505 130.897 222.51 130.33C222.507 129.763 222.305 129.28 221.903 128.88C221.501 128.48 221.017 128.28 220.45 128.28L218.09 128.28L218.09 132.4L220.45 132.4Z" fill="rgb(38,50,56)" fill-rule="nonzero" />
        <path id="矢量 526" d="M229.66 134.68L225.31 134.68L224.47 136.93C224.416 137.073 224.313 137.146 224.16 137.15L224.03 137.15C223.83 137.067 223.766 136.924 223.84 136.72L227.15 127.87C227.219 127.736 227.329 127.669 227.48 127.67C227.636 127.661 227.746 127.728 227.81 127.87L231.12 136.72C231.195 136.92 231.135 137.063 230.94 137.15L230.82 137.15C230.667 137.146 230.564 137.073 230.51 136.93L229.66 134.68ZM225.56 134.01L229.41 134.01L227.49 128.89L225.56 134.01Z" fill="rgb(38,50,56)" fill-rule="nonzero" />
        <path id="矢量 527" d="M237.26 132.85C237.033 132.864 236.92 132.758 236.92 132.53C236.92 132.303 237.033 132.19 237.26 132.19L240.26 132.19C240.461 132.214 240.558 132.328 240.55 132.53L240.55 135.85C240.544 135.949 240.504 136.033 240.43 136.1C239.817 136.616 239.12 136.961 238.338 137.134C237.555 137.307 236.777 137.289 236.004 137.08C235.231 136.871 234.55 136.494 233.961 135.951C233.373 135.407 232.944 134.758 232.675 134.003C232.406 133.249 232.327 132.475 232.438 131.681C232.549 130.888 232.837 130.165 233.304 129.514C233.77 128.862 234.361 128.356 235.076 127.995C235.791 127.633 236.549 127.459 237.35 127.47C238.509 127.471 239.542 127.831 240.45 128.55C240.591 128.703 240.591 128.857 240.45 129.01C240.309 129.183 240.149 129.203 239.97 129.07C239.195 128.44 238.309 128.13 237.31 128.14C236.643 128.146 236.013 128.303 235.421 128.611C234.829 128.92 234.339 129.346 233.952 129.889C233.564 130.433 233.321 131.035 233.223 131.695C233.124 132.355 233.181 133.002 233.393 133.635C233.605 134.268 233.95 134.818 234.426 135.286C234.902 135.753 235.459 136.087 236.096 136.288C236.732 136.488 237.38 136.533 238.038 136.422C238.697 136.312 239.294 136.057 239.83 135.66L239.83 132.85L237.26 132.85Z" fill="rgb(38,50,56)" fill-rule="nonzero" />
        <path id="矢量 528" d="M243.89 127.94C243.89 127.72 244 127.61 244.22 127.61L249.13 127.61C249.318 127.643 249.412 127.754 249.412 127.945C249.412 128.136 249.318 128.247 249.13 128.28L244.56 128.28L244.56 132.05L248.56 132.05C248.748 132.083 248.842 132.194 248.842 132.385C248.842 132.576 248.748 132.687 248.56 132.72L244.56 132.72L244.56 136.48L249.13 136.48C249.318 136.513 249.412 136.624 249.412 136.815C249.412 137.006 249.318 137.117 249.13 137.15L244.19 137.15C243.994 137.127 243.894 137.017 243.89 136.82L243.89 127.94Z" fill="rgb(38,50,56)" fill-rule="nonzero" />
        <path id="矢量 529" d="M256.75 129L256.75 136.81C256.795 137.068 256.687 137.197 256.425 137.197C256.163 137.197 256.054 137.068 256.1 136.81L256.1 128.06C256.008 127.867 256.058 127.724 256.25 127.631C256.443 127.538 256.586 127.588 256.68 127.78L262.46 135.78L262.46 128C262.492 127.812 262.604 127.718 262.795 127.718C262.986 127.718 263.097 127.812 263.13 128L263.13 136.79C263.123 137.01 263.01 137.12 262.79 137.12C262.679 137.125 262.593 137.081 262.53 136.99C262.53 136.99 262.53 136.99 262.53 136.94L256.75 129Z" fill="rgb(38,50,56)" fill-rule="nonzero" />
        <path id="矢量 530" d="M270.06 127.47C270.71 127.436 271.341 127.53 271.953 127.75C272.565 127.97 273.11 128.3 273.59 128.74C274.069 129.18 274.444 129.695 274.716 130.286C274.988 130.877 275.135 131.498 275.157 132.148C275.179 132.798 275.075 133.427 274.844 134.035C274.613 134.643 274.274 135.183 273.826 135.655C273.377 136.126 272.856 136.493 272.26 136.754C271.664 137.016 271.041 137.152 270.391 137.163C269.741 137.174 269.113 137.058 268.509 136.817C267.906 136.575 267.372 136.227 266.908 135.77C266.444 135.314 266.087 134.786 265.836 134.186C265.585 133.586 265.46 132.96 265.46 132.31C265.443 131.684 265.546 131.078 265.77 130.493C265.995 129.908 266.323 129.388 266.754 128.934C267.186 128.48 267.688 128.126 268.261 127.872C268.834 127.618 269.434 127.484 270.06 127.47ZM270.06 136.47C270.619 136.501 271.161 136.422 271.689 136.235C272.216 136.047 272.686 135.765 273.099 135.388C273.513 135.011 273.837 134.569 274.073 134.062C274.308 133.554 274.436 133.021 274.457 132.462C274.478 131.903 274.39 131.361 274.193 130.838C273.996 130.314 273.705 129.849 273.321 129.442C272.937 129.036 272.489 128.719 271.977 128.493C271.466 128.267 270.93 128.148 270.371 128.137C269.812 128.126 269.272 128.224 268.752 128.43C268.232 128.637 267.772 128.936 267.372 129.327C266.973 129.718 266.664 130.172 266.447 130.687C266.23 131.203 266.121 131.741 266.12 132.3C266.086 133.421 266.454 134.39 267.224 135.206C267.993 136.023 268.939 136.447 270.06 136.48L270.06 136.47Z" fill="rgb(38,50,56)" fill-rule="nonzero" />
        <path id="矢量 531" d="M279.18 128.28L276.3 128.28C276.112 128.247 276.018 128.136 276.018 127.945C276.018 127.754 276.112 127.643 276.3 127.61L282.7 127.61C282.888 127.643 282.982 127.754 282.982 127.945C282.982 128.136 282.888 128.247 282.7 128.28L279.83 128.28L279.83 136.82C279.83 137.04 279.72 137.15 279.5 137.15C279.28 137.15 279.173 137.04 279.18 136.82L279.18 128.28Z" fill="rgb(38,50,56)" fill-rule="nonzero" />
        <path id="矢量 532" d="M289.62 127.94C289.62 127.733 289.723 127.623 289.93 127.61L294.87 127.61C295.058 127.643 295.152 127.754 295.152 127.945C295.152 128.136 295.058 128.247 294.87 128.28L290.29 128.28L290.29 132.05L294.29 132.05C294.556 132.004 294.688 132.116 294.688 132.385C294.688 132.654 294.556 132.766 294.29 132.72L290.29 132.72L290.29 136.82C290.258 137.008 290.146 137.102 289.955 137.102C289.764 137.102 289.653 137.008 289.62 136.82L289.62 127.94Z" fill="rgb(38,50,56)" fill-rule="nonzero" />
        <path id="矢量 533" d="M301.77 127.47C302.42 127.436 303.051 127.53 303.663 127.75C304.275 127.97 304.82 128.3 305.299 128.74C305.779 129.18 306.154 129.695 306.426 130.286C306.698 130.877 306.845 131.498 306.867 132.148C306.889 132.798 306.785 133.427 306.554 134.035C306.323 134.643 305.984 135.183 305.536 135.655C305.087 136.126 304.566 136.493 303.97 136.754C303.374 137.016 302.751 137.152 302.101 137.163C301.451 137.174 300.823 137.058 300.219 136.817C299.616 136.575 299.082 136.227 298.618 135.77C298.154 135.314 297.797 134.786 297.546 134.186C297.295 133.586 297.17 132.96 297.17 132.31C297.151 131.683 297.254 131.077 297.478 130.491C297.701 129.906 298.029 129.386 298.461 128.931C298.893 128.477 299.396 128.123 299.969 127.869C300.543 127.616 301.143 127.483 301.77 127.47ZM301.77 136.47C302.881 136.416 303.819 135.986 304.586 135.18C305.353 134.375 305.736 133.417 305.736 132.305C305.736 131.193 305.353 130.235 304.586 129.429C303.819 128.624 302.881 128.194 301.77 128.14C300.66 128.194 299.721 128.624 298.954 129.429C298.188 130.235 297.804 131.193 297.804 132.305C297.804 133.417 298.188 134.375 298.954 135.18C299.721 135.986 300.66 136.416 301.77 136.47Z" fill="rgb(38,50,56)" fill-rule="nonzero" />
        <path id="矢量 534" d="M308.57 127.94C308.602 127.752 308.714 127.658 308.905 127.658C309.096 127.658 309.207 127.752 309.24 127.94L309.24 133.29C309.189 134.205 309.478 134.995 310.107 135.66C310.736 136.326 311.509 136.659 312.425 136.659C313.341 136.659 314.114 136.326 314.743 135.66C315.372 134.995 315.661 134.205 315.61 133.29L315.61 127.94C315.642 127.752 315.754 127.658 315.945 127.658C316.136 127.658 316.247 127.752 316.28 127.94L316.28 133.29C316.307 133.818 316.229 134.33 316.045 134.826C315.861 135.322 315.587 135.762 315.223 136.146C314.859 136.529 314.433 136.825 313.947 137.034C313.461 137.242 312.954 137.347 312.425 137.347C311.896 137.347 311.389 137.242 310.902 137.034C310.416 136.825 309.991 136.529 309.627 136.146C309.263 135.762 308.989 135.322 308.805 134.826C308.621 134.33 308.543 133.818 308.57 133.29L308.57 127.94Z" fill="rgb(38,50,56)" fill-rule="nonzero" />
        <path id="矢量 535" d="M320.14 129L320.14 136.81C320.134 137.024 320.024 137.134 319.81 137.14C319.59 137.14 319.48 137.03 319.48 136.81L319.48 128.06C319.434 127.909 319.474 127.785 319.6 127.69C319.783 127.581 319.94 127.611 320.07 127.78L325.84 135.78L325.84 128C325.873 127.812 325.984 127.718 326.175 127.718C326.366 127.718 326.477 127.812 326.51 128L326.51 136.79C326.504 137.01 326.39 137.12 326.17 137.12C326.059 137.125 325.973 137.081 325.91 136.99C325.91 136.99 325.91 136.99 325.86 136.94L320.14 129Z" fill="rgb(38,50,56)" fill-rule="nonzero" />
        <path id="矢量 536" d="M329.62 137.15L329.56 137.15C329.364 137.127 329.264 137.017 329.26 136.82L329.26 127.94C329.26 127.72 329.37 127.61 329.59 127.61L331.37 127.61C332.003 127.61 332.611 127.731 333.195 127.973C333.78 128.215 334.296 128.56 334.743 129.007C335.19 129.454 335.535 129.97 335.777 130.555C336.019 131.139 336.14 131.747 336.14 132.38C336.14 133.013 336.019 133.621 335.777 134.205C335.535 134.79 335.19 135.306 334.743 135.753C334.296 136.2 333.78 136.545 333.195 136.787C332.611 137.029 332.003 137.15 331.37 137.15L329.62 137.15ZM331.37 136.48C332.503 136.482 333.471 136.082 334.273 135.281C335.075 134.48 335.476 133.513 335.476 132.38C335.476 131.247 335.075 130.28 334.273 129.479C333.471 128.678 332.503 128.278 331.37 128.28L329.93 128.28L329.93 136.48L331.37 136.48Z" fill="rgb(38,50,56)" fill-rule="nonzero" />
        <path id="矢量 537" d="M214 100.92C214 101.604 213.868 102.262 213.603 102.893C213.339 103.524 212.963 104.079 212.475 104.558C211.987 105.038 211.425 105.404 210.789 105.658C210.154 105.911 209.494 106.032 208.81 106.02L207.89 106.02L207.89 113.02C207.89 113.696 207.761 114.347 207.502 114.972C207.243 115.597 206.874 116.148 206.396 116.626C205.918 117.104 205.367 117.473 204.742 117.732C204.117 117.991 203.466 118.12 202.79 118.12C202.114 118.12 201.463 117.991 200.838 117.732C200.213 117.473 199.662 117.104 199.184 116.626C198.706 116.148 198.337 115.597 198.078 114.972C197.819 114.347 197.69 113.696 197.69 113.02L197.69 106.02L168.46 106.02C167.262 106.064 166.212 105.69 165.31 104.9C164.766 104.494 164.325 103.996 163.986 103.408C163.647 102.82 163.438 102.188 163.36 101.514C163.281 100.839 163.339 100.177 163.534 99.5264C163.729 98.8759 164.044 98.2905 164.48 97.77L198.77 55.14C198.86 55.14 198.86 55.04 198.95 54.95C199.068 54.8454 199.161 54.7221 199.23 54.58C199.413 54.536 199.567 54.4426 199.69 54.3C199.79 54.21 199.97 54.12 200.06 54.02C200.228 53.9026 200.415 53.8426 200.62 53.84C200.71 53.65 200.8 53.56 200.99 53.56C201.18 53.56 201.27 53.47 201.55 53.38C201.686 53.3935 201.809 53.3602 201.92 53.28L203.49 53.28C203.636 53.3627 203.793 53.396 203.96 53.38C204.05 53.47 204.33 53.47 204.51 53.56C204.69 53.65 204.79 53.65 204.88 53.65C205.029 53.7826 205.186 53.906 205.35 54.02C205.53 54.12 205.62 54.21 205.81 54.3C205.878 54.2996 205.908 54.333 205.9 54.4C205.99 54.4 206.18 54.49 206.18 54.58L206.55 54.95C206.64 55.04 206.74 55.23 206.83 55.32C206.97 55.4637 207.093 55.6204 207.2 55.79C207.224 55.9334 207.288 56.0567 207.39 56.16C207.465 56.3384 207.525 56.5218 207.57 56.71C207.57 56.8 207.66 56.99 207.66 57.08C207.749 57.2568 207.782 57.4435 207.76 57.64C207.76 57.82 207.85 57.92 207.85 58.1L207.85 95.82L208.77 95.82C209.455 95.8107 210.116 95.933 210.752 96.1868C211.389 96.4407 211.952 96.8069 212.443 97.2852C212.933 97.7636 213.314 98.3177 213.583 98.9475C213.853 99.5774 213.992 100.235 214 100.92ZM197.69 72.92L179.21 95.82L197.65 95.82L197.69 72.92Z" fill="rgb(38,50,56)" fill-rule="nonzero" />
        <path id="矢量 538" d="M226.19 85.72C226.28 77.19 228.41 69.5 232.49 63.57C236.38 57.64 242.41 53.28 249.73 53.28C256.86 53.28 262.98 57.64 266.87 63.57C270.76 69.5 273.08 77.19 273.08 85.72C273.08 94.25 270.86 101.94 266.87 107.87C262.88 113.8 256.87 118.16 249.73 118.16C242.41 118.16 236.38 113.71 232.49 107.87C228.41 101.94 226.28 94.15 226.19 85.72ZM262.79 85.72C262.896 79.7932 261.416 74.2932 258.35 69.22C255.66 65.33 252.6 63.48 249.73 63.57C246.85 63.48 243.73 65.33 240.92 69.22C237.85 74.2922 236.367 79.7922 236.47 85.72C236.364 91.6179 237.848 97.0845 240.92 102.12C243.7 106.12 246.85 107.87 249.73 107.87C252.61 107.87 255.66 106.11 258.35 102.12C261.04 98.13 262.79 92.3 262.79 85.72Z" fill="rgb(38,50,56)" fill-rule="nonzero" />
        <path id="矢量 539" d="M329.67 100.92C329.669 101.605 329.535 102.262 329.27 102.893C329.004 103.524 328.627 104.08 328.138 104.559C327.649 105.038 327.087 105.405 326.451 105.658C325.815 105.911 325.154 106.032 324.47 106.02L323.55 106.02L323.55 113.02C323.55 113.696 323.421 114.347 323.162 114.972C322.903 115.597 322.534 116.148 322.056 116.626C321.578 117.104 321.026 117.473 320.402 117.732C319.777 117.991 319.126 118.12 318.45 118.12C317.774 118.12 317.123 117.991 316.498 117.732C315.873 117.473 315.322 117.104 314.844 116.626C314.365 116.148 313.997 115.597 313.738 114.972C313.479 114.347 313.35 113.696 313.35 113.02L313.35 106.02L284.16 106.02C282.958 106.066 281.905 105.693 281 104.9C280.456 104.494 280.015 103.996 279.676 103.408C279.337 102.82 279.128 102.188 279.05 101.514C278.971 100.839 279.029 100.177 279.224 99.5264C279.419 98.8759 279.734 98.2905 280.17 97.77L314.46 55.14C314.55 55.14 314.55 55.04 314.64 54.95C314.758 54.8454 314.851 54.7221 314.92 54.58C315.103 54.536 315.257 54.4426 315.38 54.3C315.48 54.21 315.66 54.12 315.75 54.02C315.918 53.9026 316.105 53.8426 316.31 53.84C316.4 53.65 316.49 53.56 316.68 53.56C316.87 53.56 316.96 53.47 317.24 53.38C317.376 53.3935 317.499 53.3602 317.61 53.28L319.18 53.28C319.326 53.3627 319.483 53.396 319.65 53.38C319.74 53.47 320.02 53.47 320.2 53.56C320.38 53.65 320.48 53.65 320.57 53.65C320.76 53.84 320.94 53.93 321.03 54.02C321.12 54.11 321.31 54.21 321.5 54.3C321.567 54.2996 321.597 54.3329 321.59 54.4C321.68 54.4 321.87 54.49 321.87 54.58L322.24 54.95C322.33 55.04 322.43 55.23 322.52 55.32C322.66 55.4637 322.783 55.6204 322.89 55.79C322.914 55.9334 322.978 56.0567 323.08 56.16C323.155 56.3384 323.215 56.5218 323.26 56.71C323.26 56.8 323.35 56.99 323.35 57.08C323.435 57.2578 323.465 57.4445 323.44 57.64C323.44 57.82 323.54 57.92 323.54 58.1L323.54 95.82L324.46 95.82C325.143 95.8147 325.801 95.9398 326.435 96.1953C327.068 96.4508 327.629 96.8175 328.117 97.2953C328.605 97.7731 328.984 98.3259 329.253 98.9538C329.522 99.5816 329.661 100.237 329.67 100.92ZM313.35 72.92L294.91 95.82L313.35 95.82L313.35 72.92Z" fill="rgb(38,50,56)" fill-rule="nonzero" />
    </g>
    <g id="freepik--Lines--inject-72">
        <path id="矢量 540" d="M250.16 181.71C249.827 181.71 249.66 181.543 249.66 181.21L249.66 167.14C249.66 166.807 249.827 166.64 250.16 166.64C250.493 166.64 250.66 166.807 250.66 167.14L250.66 181.21C250.66 181.543 250.493 181.71 250.16 181.71Z" fill="rgb(38,50,56)" fill-rule="nonzero" />
        <path id="矢量 541" d="M224.7 188.45C224.506 188.451 224.359 188.367 224.26 188.2L217.26 176.01C217.043 175.711 217.094 175.469 217.413 175.284C217.732 175.098 217.968 175.174 218.12 175.51L225.12 187.7C225.294 187.989 225.234 188.215 224.94 188.38C224.866 188.425 224.786 188.449 224.7 188.45Z" fill="rgb(38,50,56)" fill-rule="nonzero" />
        <path id="矢量 542" d="M217.38 288.77C217.29 288.771 217.207 288.747 217.13 288.7C216.84 288.512 216.797 288.279 217 288L224 275.82C224.166 275.528 224.395 275.466 224.686 275.633C224.977 275.801 225.038 276.03 224.87 276.32L217.87 288.5C217.767 288.7 217.604 288.79 217.38 288.77Z" fill="rgb(38,50,56)" fill-rule="nonzero" />
        <path id="矢量 543" d="M249.84 297.55C249.507 297.55 249.34 297.383 249.34 297.05L249.34 283C249.34 282.667 249.507 282.5 249.84 282.5C250.167 282.506 250.334 282.673 250.34 283L250.34 297.07C250.327 297.39 250.161 297.55 249.84 297.55Z" fill="rgb(38,50,56)" fill-rule="nonzero" />
        <path id="矢量 544" d="M282.34 288.93C282.149 288.929 282.006 288.845 281.91 288.68L274.91 276.5C274.742 276.21 274.803 275.981 275.094 275.814C275.385 275.646 275.614 275.709 275.78 276L282.78 288.18C282.954 288.469 282.894 288.695 282.6 288.86C282.52 288.909 282.434 288.933 282.34 288.93Z" fill="rgb(38,50,56)" fill-rule="nonzero" />
        <path id="矢量 545" d="M275.58 188.61C275.49 188.611 275.407 188.587 275.33 188.54C275.036 188.375 274.976 188.148 275.15 187.86L282.15 175.67C282.327 175.427 282.546 175.381 282.806 175.532C283.066 175.683 283.134 175.896 283.01 176.17L276.01 188.36C275.912 188.521 275.769 188.605 275.58 188.61Z" fill="rgb(38,50,56)" fill-rule="nonzero" />
    </g>
</svg>
