<svg viewBox="0 0 300 300" xmlns="http://www.w3.org/2000/svg" xmlns:xlink="http://www.w3.org/1999/xlink" width="300" height="300.000122" fill="none">
    <rect id="404 Error Page not Found with people connecting a plug-bro 1" width="300" height="300" x="0" y="0" />
    <g id="freepik--Text--inject-130">
        <path id="矢量 851" d="M113.106 72.432C113.106 67.794 115.554 65.142 120.024 65.142C124.494 65.142 126.948 67.794 126.948 72.432L126.948 87.516C126.948 92.154 124.5 94.806 120.024 94.806C115.548 94.806 113.106 92.154 113.106 87.516L113.106 72.432ZM117.666 87.804C117.666 89.874 118.578 90.66 120.024 90.66C121.47 90.66 122.388 89.874 122.388 87.804L122.388 72.144C122.388 70.074 121.476 69.288 120.024 69.288C118.572 69.288 117.666 70.074 117.666 72.144L117.666 87.804Z" fill="rgb(38,50,56)" fill-rule="nonzero" />
        <path id="矢量 852" d="M130.386 72.432C130.386 67.794 132.828 65.142 137.304 65.142C141.78 65.142 144.222 67.794 144.222 72.432L144.222 87.516C144.222 92.154 141.774 94.806 137.304 94.806C132.834 94.806 130.386 92.154 130.386 87.516L130.386 72.432ZM134.94 87.804C134.94 89.874 135.852 90.66 137.304 90.66C138.756 90.66 139.662 89.874 139.662 87.804L139.662 72.144C139.662 70.074 138.75 69.288 137.304 69.288C135.858 69.288 134.94 70.074 134.94 72.144L134.94 87.804Z" fill="rgb(38,50,56)" fill-rule="nonzero" />
        <path id="矢量 853" d="M161.538 72.642L161.538 76.41C161.538 81.054 159.3 83.61 154.746 83.61L152.592 83.61L152.592 94.506L148.032 94.506L148.032 65.478L154.746 65.478C159.3 65.478 161.538 68.004 161.538 72.642ZM152.592 69.642L152.592 79.458L154.746 79.458C156.192 79.458 156.978 78.798 156.978 76.728L156.978 72.378C156.978 70.302 156.192 69.642 154.746 69.642L152.592 69.642Z" fill="rgb(38,50,56)" fill-rule="nonzero" />
        <path id="矢量 854" d="M170.862 65.142C175.29 65.142 177.57 67.794 177.57 72.432L177.57 73.344L173.262 73.344L173.262 72.144C173.262 70.074 172.434 69.288 170.982 69.288C169.53 69.288 168.702 70.074 168.702 72.144C168.702 78.108 177.612 79.23 177.612 87.516C177.612 92.154 175.29 94.806 170.82 94.806C166.35 94.806 164.022 92.154 164.022 87.516L164.022 85.716L168.33 85.716L168.33 87.786C168.33 89.856 169.242 90.606 170.694 90.606C172.146 90.606 173.052 89.856 173.052 87.786C173.052 81.822 164.148 80.7 164.148 72.414C164.148 67.8 166.428 65.142 170.862 65.142Z" fill="rgb(38,50,56)" fill-rule="nonzero" />
        <path id="矢量 855" d="M181.674 88.05L181.074 77.574L181.074 65.478L185.634 65.478L185.634 77.574L185.034 88.05L181.674 88.05ZM185.568 90.084L185.568 94.476L181.2 94.476L181.2 90.084L185.568 90.084Z" fill="rgb(38,50,56)" fill-rule="nonzero" />
    </g>
    <g id="freepik--Characters--inject-130">
        <path id="矢量 868" d="M91.5539 213.87C91.5539 215.67 80.4959 217.104 66.8459 217.104C53.1959 217.104 42.1379 215.658 42.1379 213.87C42.1379 212.082 53.2019 210.636 66.8459 210.636C80.4899 210.636 91.5539 212.088 91.5539 213.87Z" opacity="0.300000012" fill="rgb(0,0,0)" fill-rule="nonzero" />
        <path id="矢量 869" d="M143.28 213.87C143.28 215.67 132.216 217.104 118.572 217.104C104.928 217.104 93.864 215.658 93.864 213.87C93.864 212.082 104.928 210.636 118.572 210.636C132.216 210.636 143.28 212.088 143.28 213.87Z" opacity="0.300000012" fill="rgb(0,0,0)" fill-rule="nonzero" />
        <path id="矢量 870" d="M211.8 213.87C211.8 215.67 200.742 217.104 187.098 217.104C173.454 217.104 162.39 215.658 162.39 213.87C162.39 212.082 173.448 210.636 187.098 210.636C200.748 210.636 211.8 212.088 211.8 213.87Z" opacity="0.300000012" fill="rgb(0,0,0)" fill-rule="nonzero" />
        <path id="矢量 871" d="M269.04 213.87C269.04 215.67 257.976 217.104 244.332 217.104C230.688 217.104 219.6 215.658 219.6 213.87C219.6 212.082 230.664 210.636 244.308 210.636C257.952 210.636 269.04 212.088 269.04 213.87Z" opacity="0.300000012" fill="rgb(0,0,0)" fill-rule="nonzero" />
        <path id="矢量 872" d="M189.768 119.262C189.768 119.262 188.754 123.462 188.754 124.17C188.753 124.609 188.705 125.043 188.61 125.472C188.61 125.472 186.444 128.07 186.732 128.79C187.089 129.361 187.571 129.793 188.178 130.086C188.178 130.086 189.33 134.286 190.488 134.562C191.679 134.785 192.879 134.929 194.088 134.994L194.52 138.456L200.292 137.592L198.852 132.396L199.452 127.92C199.452 127.92 200.46 126.048 199.452 123.018C198.444 119.988 196.278 119.844 194.832 119.844C193.134 119.737 191.446 119.543 189.768 119.262Z" fill="rgb(255,255,255)" fill-rule="nonzero" />
        <path id="矢量 872" d="M188.754 124.17C188.753 124.609 188.705 125.043 188.61 125.472C188.61 125.472 186.444 128.07 186.732 128.79C187.089 129.361 187.571 129.793 188.178 130.086C188.178 130.086 189.33 134.286 190.488 134.562C191.679 134.785 192.879 134.929 194.088 134.994L194.52 138.456L200.292 137.592L198.852 132.396L199.452 127.92C199.452 127.92 200.46 126.048 199.452 123.018C198.444 119.988 196.278 119.844 194.832 119.844C193.134 119.737 191.446 119.543 189.768 119.262C189.768 119.262 188.754 123.462 188.754 124.17Z" fill-rule="nonzero" stroke="rgb(38,50,56)" stroke-linecap="round" stroke-linejoin="round" stroke-width="1.04742002" />
        <path id="矢量 873" d="M192.366 117.102C192.366 117.102 187.314 116.952 187.458 118.254C187.602 119.556 192.798 121.254 192.798 121.254C192.798 121.254 191.064 122.406 191.928 123.564C192.792 124.722 194.814 125.73 194.814 125.73C194.814 125.73 194.214 128.184 195.108 128.328C196.002 128.472 196.548 127.17 196.692 126.738C196.836 126.306 198.426 126.45 198.858 127.602C199.104 128.205 199.248 128.831 199.29 129.48C199.29 129.48 201.024 124.284 201.312 121.974C201.6 119.664 195.108 117.102 192.366 117.102Z" fill="rgb(38,50,56)" fill-rule="nonzero" />
        <path id="矢量 873" d="M187.458 118.254C187.602 119.556 192.798 121.254 192.798 121.254C192.798 121.254 191.064 122.406 191.928 123.564C192.792 124.722 194.814 125.73 194.814 125.73C194.814 125.73 194.214 128.184 195.108 128.328C196.002 128.472 196.548 127.17 196.692 126.738C196.836 126.306 198.426 126.45 198.858 127.602C199.104 128.205 199.248 128.831 199.29 129.48C199.29 129.48 201.024 124.284 201.312 121.974C201.6 119.664 195.108 117.102 192.366 117.102C192.366 117.102 187.314 116.952 187.458 118.254Z" fill-rule="nonzero" stroke="rgb(38,50,56)" stroke-linecap="round" stroke-linejoin="round" stroke-width="1.04742002" />
        <path id="矢量 874" d="M195.564 128.4C195.564 128.4 197.31 124.56 198.354 126.45C199.398 128.34 198.954 130.308 197.928 130.518C196.902 130.728 196.044 130.932 196.044 130.932" fill="rgb(255,255,255)" fill-rule="nonzero" />
        <path id="矢量 874" d="M195.564 128.4C195.564 128.4 197.31 124.56 198.354 126.45C199.398 128.34 198.954 130.308 197.928 130.518C196.902 130.728 196.044 130.932 196.044 130.932" fill-rule="nonzero" stroke="rgb(38,50,56)" stroke-linecap="round" stroke-linejoin="round" stroke-width="1.04742002" />
        <path id="矢量 875" d="M188.466 168.474C188.184 168.804 183.558 178.722 182.982 182.04C182.406 185.358 178.656 205.134 178.506 205.998C178.356 206.862 170.43 208.596 169.848 208.74C169.266 208.884 170.448 210.474 172.158 210.906C173.868 211.338 178.8 213.36 179.958 212.202C181.116 211.044 182.7 204.552 183.132 203.832C183.564 203.112 191.688 183.972 191.688 183.972C191.688 183.972 195.852 174.786 196.716 173.916C197.58 173.046 195.69 169.2 194.964 168.042C194.238 166.884 190.488 166.164 188.466 168.474Z" fill="rgb(38,50,56)" fill-rule="nonzero" />
        <path id="矢量 875" d="M182.982 182.04C182.406 185.358 178.656 205.134 178.506 205.998C178.356 206.862 170.43 208.596 169.848 208.74C169.266 208.884 170.448 210.474 172.158 210.906C173.868 211.338 178.8 213.36 179.958 212.202C181.116 211.044 182.7 204.552 183.132 203.832C183.564 203.112 191.688 183.972 191.688 183.972C191.688 183.972 195.852 174.786 196.716 173.916C197.58 173.046 195.69 169.2 194.964 168.042C194.238 166.884 190.488 166.164 188.466 168.474C188.184 168.804 183.558 178.722 182.982 182.04Z" fill-rule="nonzero" stroke="rgb(38,50,56)" stroke-linecap="round" stroke-linejoin="round" stroke-width="1.04742002" />
        <path id="矢量 876" d="M187.602 168.6C187.602 168.6 189.624 178.272 190.632 181.734C191.582 184.662 192.982 187.356 194.832 189.816C195.99 191.406 201.618 205.416 201.618 205.416L202.482 207.582C202.482 207.582 202.194 208.446 200.61 209.598C199.026 210.75 194.544 212.628 195.702 213.066C196.86 213.504 201.474 213.498 203.64 213.354C205.572 213.217 207.206 212.447 208.542 211.044C209.412 210.03 207.102 207.144 207.102 206.568C207.102 205.992 202.05 188.388 201.762 187.518C201.474 186.648 200.028 180.45 200.028 180.45L200.028 173.4C200.028 173.4 200.754 172.104 200.754 169.2C200.754 166.296 198.588 165.732 198.588 165.732L186.75 166.89L187.602 168.6Z" fill="rgb(38,50,56)" fill-rule="nonzero" />
        <path id="矢量 876" d="M190.632 181.734C191.582 184.662 192.982 187.356 194.832 189.816C195.99 191.406 201.618 205.416 201.618 205.416L202.482 207.582C202.482 207.582 202.194 208.446 200.61 209.598C199.026 210.75 194.544 212.628 195.702 213.066C196.86 213.504 201.474 213.498 203.64 213.354C205.572 213.217 207.206 212.447 208.542 211.044C209.412 210.03 207.102 207.144 207.102 206.568C207.102 205.992 202.05 188.388 201.762 187.518C201.474 186.648 200.028 180.45 200.028 180.45L200.028 173.4C200.028 173.4 200.754 172.104 200.754 169.2C200.754 166.296 198.588 165.732 198.588 165.732L186.75 166.89L187.602 168.6C187.602 168.6 189.624 178.272 190.632 181.734Z" fill-rule="nonzero" stroke="rgb(38,50,56)" stroke-linecap="round" stroke-linejoin="round" stroke-width="1.04742002" />
        <path id="矢量 877" d="M186.6 167.754C186.6 167.754 186.894 170.208 187.758 170.352C188.622 170.496 197.568 172.95 201.468 170.064C201.468 170.064 202.188 167.898 201.756 167.322C201.324 166.746 200.31 167.034 195.12 167.034C189.93 167.034 186.6 167.034 186.6 167.754Z" fill="rgb(229,178,29)" fill-rule="nonzero" />
        <path id="矢量 877" d="M187.758 170.352C188.622 170.496 197.568 172.95 201.468 170.064C201.468 170.064 202.188 167.898 201.756 167.322C201.324 166.746 200.31 167.034 195.12 167.034C189.93 167.034 186.6 167.034 186.6 167.754C186.6 167.754 186.894 170.208 187.758 170.352Z" fill-rule="nonzero" stroke="rgb(38,50,56)" stroke-linecap="round" stroke-linejoin="round" stroke-width="1.04742002" />
        <path id="矢量 878" d="M199.866 135.426C199.866 135.426 194.526 136.146 192.216 138.426C189.906 140.706 187.89 144.924 186.882 148.818C185.874 152.712 185.148 167.004 186.588 167.724C188.028 168.444 200.154 169.17 202.188 168.324C204.222 167.478 202.044 160.674 202.044 158.076C202.044 155.478 204.354 146.676 203.922 141.774C203.49 136.872 199.866 135.426 199.866 135.426Z" fill="rgb(229,178,29)" fill-rule="nonzero" />
        <path id="矢量 878" d="M192.216 138.426C189.906 140.706 187.89 144.924 186.882 148.818C185.874 152.712 185.148 167.004 186.588 167.724C188.028 168.444 200.154 169.17 202.188 168.324C204.222 167.478 202.044 160.674 202.044 158.076C202.044 155.478 204.354 146.676 203.922 141.774C203.49 136.872 199.866 135.426 199.866 135.426C199.866 135.426 194.526 136.146 192.216 138.426Z" fill-rule="nonzero" stroke="rgb(38,50,56)" stroke-linecap="round" stroke-linejoin="round" stroke-width="1.04742002" />
        <path id="矢量 879" d="M180.6 150.426C180.534 144.486 178.11 139.416 174.888 137.226L174.888 136.026L166.008 136.116C161.01 136.17 157.008 142.716 157.11 150.696C157.212 158.676 161.31 165.138 166.314 165.096L175.194 165.006L175.194 163.806C178.314 161.484 180.63 156.366 180.6 150.426Z" fill="rgb(38,50,56)" fill-rule="nonzero" />
        <path id="矢量 879" d="M174.888 137.226L174.888 136.026L166.008 136.116C161.01 136.17 157.008 142.716 157.11 150.696C157.212 158.676 161.31 165.138 166.314 165.096L175.194 165.006L175.194 163.806C178.314 161.484 180.63 156.366 180.6 150.426C180.534 144.486 178.11 139.416 174.888 137.226Z" fill-rule="nonzero" stroke="rgb(38,50,56)" stroke-linecap="round" stroke-linejoin="round" stroke-width="1.04742002" />
        <path id="矢量 880" d="M184.584 150.384C184.518 144.144 182.112 138.816 178.728 136.5L178.728 135.222L174.924 135.264C169.668 135.318 165.486 142.176 165.576 150.582C165.666 158.988 169.992 165.756 175.248 165.702L179.052 165.66L179.052 164.388C182.358 162 184.65 156.6 184.584 150.384Z" fill="rgb(255,255,255)" fill-rule="nonzero" />
        <path id="矢量 880" d="M178.728 136.5L178.728 135.222L174.924 135.264C169.668 135.318 165.486 142.176 165.576 150.582C165.666 158.988 169.992 165.756 175.248 165.702L179.052 165.66L179.052 164.388C182.358 162 184.65 156.6 184.584 150.384C184.518 144.144 182.112 138.816 178.728 136.5Z" fill-rule="nonzero" stroke="rgb(38,50,56)" stroke-linecap="round" stroke-linejoin="round" stroke-width="1.04742002" />
        <path id="矢量 881" d="M188.4 150.342C188.49 158.742 184.302 165.606 179.052 165.66C173.802 165.714 169.452 158.946 169.38 150.546C169.308 142.146 173.478 135.282 178.728 135.222C183.978 135.162 188.298 141.936 188.4 150.342Z" fill="rgb(115,115,115)" fill-rule="nonzero" />
        <path id="矢量 881" d="M179.052 165.66C173.802 165.714 169.452 158.946 169.38 150.546C169.308 142.146 173.478 135.282 178.728 135.222C183.978 135.162 188.298 141.936 188.4 150.342C188.49 158.742 184.302 165.606 179.052 165.66Z" fill-rule="nonzero" stroke="rgb(38,50,56)" stroke-linecap="round" stroke-linejoin="round" stroke-width="1.04742002" />
        <path id="矢量 882" d="M186.216 150.084C186.258 154.062 184.272 157.314 181.782 157.344C179.292 157.374 177.24 154.158 177.198 150.144C177.156 146.13 179.142 142.944 181.632 142.884C184.122 142.824 186.174 146.1 186.216 150.084Z" fill="rgb(38,50,56)" fill-rule="nonzero" />
        <path id="矢量 882" d="M181.782 157.344C179.292 157.374 177.24 154.158 177.198 150.144C177.156 146.13 179.142 142.944 181.632 142.884C184.122 142.824 186.174 146.1 186.216 150.084C186.258 154.062 184.272 157.314 181.782 157.344Z" fill-rule="nonzero" stroke="rgb(38,50,56)" stroke-linecap="round" stroke-linejoin="round" stroke-width="1.04742002" />
        <path id="矢量 883" d="M256.92 180C257.416 176.296 257.626 172.576 257.55 168.84C255.6 169.74 244.224 170.07 243.18 170.094C242.136 170.118 230.76 169.74 228.81 168.84C228.724 172.575 228.924 176.295 229.41 180C230.196 184.866 237.108 204.348 237.264 205.29C237.467 206.199 237.729 207.091 238.05 207.966C238.05 207.966 234.12 210.792 232.392 211.89C230.664 212.988 231.924 213.462 233.652 213.462C235.38 213.462 238.992 212.988 240.09 212.988C241.062 212.988 242.754 212.142 243.15 211.938C243.546 212.142 245.238 212.988 246.204 212.988C247.308 212.988 250.92 213.462 252.648 213.462C254.376 213.462 255.648 212.988 253.908 211.89C252.168 210.792 248.25 207.966 248.25 207.966C248.572 207.091 248.834 206.199 249.036 205.29C249.222 204.33 256.134 184.848 256.92 180Z" fill="rgb(38,50,56)" fill-rule="nonzero" />
        <path id="矢量 883" d="M257.55 168.84C255.6 169.74 244.224 170.07 243.18 170.094C242.136 170.118 230.76 169.74 228.81 168.84C228.724 172.575 228.924 176.295 229.41 180C230.196 184.866 237.108 204.348 237.264 205.29C237.467 206.199 237.729 207.091 238.05 207.966C238.05 207.966 234.12 210.792 232.392 211.89C230.664 212.988 231.924 213.462 233.652 213.462C235.38 213.462 238.992 212.988 240.09 212.988C241.062 212.988 242.754 212.142 243.15 211.938C243.546 212.142 245.238 212.988 246.204 212.988C247.308 212.988 250.92 213.462 252.648 213.462C254.376 213.462 255.648 212.988 253.908 211.89C252.168 210.792 248.25 207.966 248.25 207.966C248.572 207.091 248.834 206.199 249.036 205.29C249.222 204.33 256.134 184.848 256.92 180C257.416 176.296 257.626 172.576 257.55 168.84Z" fill-rule="nonzero" stroke="rgb(38,50,56)" stroke-linecap="round" stroke-linejoin="round" stroke-width="1.04742002" />
        <path id="矢量 884" d="M240.804 138.294C240.804 138.294 234.726 140.28 231.588 142.272C228.45 144.264 225.3 155.052 225.3 155.472C225.119 156.225 224.875 156.957 224.568 157.668C224.568 157.668 221.424 156.936 220.8 159.552C220.176 162.168 223.938 165.522 225.93 165.63C227.922 165.738 228.546 165.108 228.546 165.108C228.546 165.108 227.292 167.622 227.814 168.666C228.336 169.71 232.74 173.592 241.434 173.466C250.128 173.34 256.434 171.894 257.352 170.64C258.27 169.386 258.402 166.764 258.402 166.764C258.402 166.764 261.648 165.924 262.8 163.83C263.952 161.736 263.742 159.534 263.112 157.338C262.482 155.142 259.236 148.764 257.04 145.2C254.844 141.636 250.23 139.65 248.04 139.02C245.85 138.39 242.268 138.294 240.804 138.294Z" fill="rgb(229,178,29)" fill-rule="nonzero" />
        <path id="矢量 884" d="M231.588 142.272C228.45 144.264 225.3 155.052 225.3 155.472C225.119 156.225 224.875 156.957 224.568 157.668C224.568 157.668 221.424 156.936 220.8 159.552C220.176 162.168 223.938 165.522 225.93 165.63C227.922 165.738 228.546 165.108 228.546 165.108C228.546 165.108 227.292 167.622 227.814 168.666C228.336 169.71 232.74 173.592 241.434 173.466C250.128 173.34 256.434 171.894 257.352 170.64C258.27 169.386 258.402 166.764 258.402 166.764C258.402 166.764 261.648 165.924 262.8 163.83C263.952 161.736 263.742 159.534 263.112 157.338C262.482 155.142 259.236 148.764 257.04 145.2C254.844 141.636 250.23 139.65 248.04 139.02C245.85 138.39 242.268 138.294 240.804 138.294C240.804 138.294 234.726 140.28 231.588 142.272Z" fill-rule="nonzero" stroke="rgb(38,50,56)" stroke-linecap="round" stroke-linejoin="round" stroke-width="1.04742002" />
        <path id="矢量 885" d="M242.646 147.114C243.516 146.826 246.246 144.402 247.296 141.978C247.713 141.046 248.003 140.076 248.166 139.068L248.028 139.026C245.832 138.396 242.268 138.294 240.828 138.294C240.828 138.294 239.556 138.708 237.876 139.35C237.886 140.658 238.126 141.922 238.596 143.142C239.544 145.566 241.8 147.408 242.646 147.114Z" fill="rgb(255,255,255)" fill-rule="nonzero" />
        <path id="矢量 885" d="M247.296 141.978C247.713 141.046 248.003 140.076 248.166 139.068L248.028 139.026C245.832 138.396 242.268 138.294 240.828 138.294C240.828 138.294 239.556 138.708 237.876 139.35C237.886 140.658 238.126 141.922 238.596 143.142C239.544 145.566 241.8 147.408 242.646 147.114C243.516 146.826 246.246 144.402 247.296 141.978Z" fill-rule="nonzero" stroke="rgb(38,50,56)" stroke-linecap="round" stroke-linejoin="round" stroke-width="1.04742002" />
        <path id="矢量 886" d="M252.636 152.01C252.636 152.01 255.15 165.42 258 166.8" stroke="rgb(38,50,56)" stroke-linecap="round" stroke-linejoin="round" stroke-width="1.04742002" />
        <path id="矢量 887" d="M228.546 165.108C228.546 165.108 231.69 153.27 231.9 152.118" stroke="rgb(38,50,56)" stroke-linecap="round" stroke-linejoin="round" stroke-width="1.04742002" />
        <path id="矢量 888" d="M256.698 158.07C256.698 158.07 254.958 158.46 254.958 159.72" stroke="rgb(38,50,56)" stroke-linecap="round" stroke-linejoin="round" stroke-width="1.04742002" />
        <path id="矢量 889" d="M227.136 158.262C227.136 158.262 229.074 159.522 228.882 161.46" stroke="rgb(38,50,56)" stroke-linecap="round" stroke-linejoin="round" stroke-width="1.04742002" />
        <path id="矢量 890" d="M240.12 213C241.092 213 242.784 212.154 243.18 211.95C243.576 212.154 245.268 213 246.234 213C247.338 213 250.95 213.474 252.678 213.474C254.406 213.474 255.678 213 253.938 211.902C252.432 210.948 249.276 208.692 248.472 208.116C246.618 209.808 242.952 209.388 242.952 209.388C242.209 209.276 241.475 209.12 240.75 208.92C239.652 208.602 238.08 207.978 238.08 207.978C238.08 207.978 234.15 210.804 232.422 211.902C230.694 213 231.954 213.474 233.682 213.474C235.41 213.474 239.022 213 240.12 213Z" fill="rgb(229,178,29)" fill-rule="nonzero" />
        <path id="矢量 890" d="M243.18 211.95C243.576 212.154 245.268 213 246.234 213C247.338 213 250.95 213.474 252.678 213.474C254.406 213.474 255.678 213 253.938 211.902C252.432 210.948 249.276 208.692 248.472 208.116C246.618 209.808 242.952 209.388 242.952 209.388C242.209 209.276 241.475 209.12 240.75 208.92C239.652 208.602 238.08 207.978 238.08 207.978C238.08 207.978 234.15 210.804 232.422 211.902C230.694 213 231.954 213.474 233.682 213.474C235.41 213.474 239.022 213 240.12 213C241.092 213 242.784 212.154 243.18 211.95Z" fill-rule="nonzero" stroke="rgb(38,50,56)" stroke-linecap="round" stroke-linejoin="round" stroke-width="1.04742002" />
        <line id="直线 5" x1="0" x2="27.3959942" y1="0" y2="0" stroke="rgb(255,255,255)" stroke-linecap="round" stroke-linejoin="round" stroke-width="1.04742002" transform="matrix(0,-1,1,0,242.952,208.002)" />
        <path id="矢量 891" d="M243.18 211.92L242.952 209.358L242.952 208.002" fill-rule="nonzero" stroke="rgb(38,50,56)" stroke-linecap="round" stroke-linejoin="round" stroke-width="1.04742002" />
        <line id="直线 6" x1="240.75" x2="245.303986" y1="179.66394" y2="179.66394" stroke="rgb(255,255,255)" stroke-linecap="round" stroke-linejoin="round" stroke-width="1.04742002" />
        <path id="矢量 892" d="M234.798 122.574C234.798 122.574 231.534 124.53 232.02 126.246C232.506 127.962 233.982 128.292 233.658 129.246C233.334 130.2 232.2 130.8 233.49 131.4C234.227 131.73 234.991 131.976 235.782 132.138C235.782 132.138 236.982 136.302 239.046 137.034C241.11 137.766 244.686 137.28 247.218 136.956C248.094 136.87 248.867 136.543 249.539 135.975C250.21 135.406 250.661 134.698 250.89 133.848C251.136 132.954 249.828 134.016 249.174 133.032C248.52 132.048 249.504 129.522 250.236 127.314C250.968 125.106 248.766 120.942 245.91 119.556C243.054 118.17 237.6 118.896 234.798 122.574Z" fill="rgb(38,50,56)" fill-rule="nonzero" />
        <path id="矢量 892" d="M232.02 126.246C232.506 127.962 233.982 128.292 233.658 129.246C233.334 130.2 232.2 130.8 233.49 131.4C234.227 131.73 234.991 131.976 235.782 132.138C235.782 132.138 236.982 136.302 239.046 137.034C241.11 137.766 244.686 137.28 247.218 136.956C248.094 136.87 248.867 136.543 249.539 135.975C250.21 135.406 250.661 134.698 250.89 133.848C251.136 132.954 249.828 134.016 249.174 133.032C248.52 132.048 249.504 129.522 250.236 127.314C250.968 125.106 248.766 120.942 245.91 119.556C243.054 118.17 237.6 118.896 234.798 122.574C234.798 122.574 231.534 124.53 232.02 126.246Z" fill-rule="nonzero" stroke="rgb(38,50,56)" stroke-linecap="round" stroke-linejoin="round" stroke-width="1.04742002" />
        <path id="矢量 893" d="M240.282 136.8C239.866 138.173 239.586 139.573 239.442 141C239.334 142.8 240.804 144.774 242.376 144.666C243.948 144.558 245.304 141.42 245.514 139.866C245.724 138.312 244.992 134.106 244.992 134.106C244.992 134.106 242.592 134.214 241.638 135.048C241.073 135.544 240.621 136.128 240.282 136.8Z" fill="rgb(255,255,255)" fill-rule="nonzero" />
        <path id="矢量 893" d="M239.442 141C239.334 142.8 240.804 144.774 242.376 144.666C243.948 144.558 245.304 141.42 245.514 139.866C245.724 138.312 244.992 134.106 244.992 134.106C244.992 134.106 242.592 134.214 241.638 135.048C241.073 135.544 240.621 136.128 240.282 136.8C239.866 138.173 239.586 139.573 239.442 141Z" fill-rule="nonzero" stroke="rgb(38,50,56)" stroke-linecap="round" stroke-linejoin="round" stroke-width="1.04742002" />
        <path id="矢量 894" d="M238.152 124.86C238.152 124.86 238.23 127.308 240.684 129.66C242.175 131.101 243.889 132.191 245.826 132.93C245.783 133.47 245.647 133.986 245.418 134.478C245.176 134.94 244.796 135.14 244.278 135.078L243.456 135.078C243.456 135.078 242.256 137.892 240.804 138.3C239.352 138.708 235.782 138.426 235.29 134.832C234.798 131.238 234.72 128.298 235.128 127.56C235.536 126.822 238.152 124.86 238.152 124.86Z" fill="rgb(255,255,255)" fill-rule="nonzero" />
        <path id="矢量 894" d="M240.684 129.66C242.175 131.101 243.889 132.191 245.826 132.93C245.783 133.47 245.647 133.986 245.418 134.478C245.176 134.94 244.796 135.14 244.278 135.078L243.456 135.078C243.456 135.078 242.256 137.892 240.804 138.3C239.352 138.708 235.782 138.426 235.29 134.832C234.798 131.238 234.72 128.298 235.128 127.56C235.536 126.822 238.152 124.86 238.152 124.86C238.152 124.86 238.23 127.308 240.684 129.66Z" fill-rule="nonzero" stroke="rgb(38,50,56)" stroke-linecap="round" stroke-linejoin="round" stroke-width="1.04742002" />
        <path id="矢量 895" d="M263.826 156.48C264.202 155.723 264.424 154.923 264.492 154.08C264.492 152.988 262.464 151.422 262.092 151.032C261.72 150.642 261.348 150.684 261.27 151.23C261.268 151.877 261.502 152.423 261.972 152.868C262.284 153.114 262.494 153.428 262.602 153.81C262.638 154.08 261.93 155.406 262.284 156.264C262.638 157.122 263.634 157.38 263.826 156.48Z" fill="rgb(255,255,255)" fill-rule="nonzero" />
        <path id="矢量 895" d="M264.492 154.08C264.492 152.988 262.464 151.422 262.092 151.032C261.72 150.642 261.348 150.684 261.27 151.23C261.268 151.877 261.502 152.423 261.972 152.868C262.284 153.114 262.494 153.428 262.602 153.81C262.638 154.08 261.93 155.406 262.284 156.264C262.638 157.122 263.634 157.38 263.826 156.48C264.202 155.723 264.424 154.923 264.492 154.08Z" fill-rule="nonzero" stroke="rgb(38,50,56)" stroke-linecap="round" stroke-linejoin="round" stroke-width="1.04742002" />
        <path id="矢量 896" d="M182.568 150.354C182.568 150.354 191.4 153.18 196.71 159.78C202.02 166.38 205.506 165.432 212.106 163.236C218.706 161.04 221.22 153.18 230.334 159.78C239.448 166.38 241.332 168.888 248.874 165.12C256.416 161.352 260.496 152.238 267.414 155.376C274.332 158.514 271.182 174.576 271.812 182.376C272.442 190.176 271.494 209.718 273.066 212.232C274.638 214.746 290.664 212.832 290.664 212.832" fill-rule="nonzero" stroke="rgb(38,50,56)" stroke-linecap="round" stroke-linejoin="round" stroke-width="3.14226007" />
        <path id="矢量 897" d="M199.11 139.866C199.11 139.866 197.352 136.998 194.76 137.748C192.018 138.54 190.602 142.458 189.96 144.9C189.318 147.342 188.886 149.982 187.71 152.256C187.71 152.256 182.514 152.166 179.616 151.326C177.403 150.636 175.231 149.836 173.1 148.926C173.1 148.926 172.074 147.492 171.348 147.21C170.622 146.928 168.738 146.376 168.6 146.808C168.462 147.24 170.784 148.662 170.784 148.662C170.784 148.662 166.464 149.262 166.032 149.724C165.6 150.186 169.086 151.566 169.086 151.566C169.086 151.566 170.388 151.986 173.556 151.23C173.556 151.23 185.178 158.61 187.494 159.456C189.81 160.302 191.094 160.572 192.672 157.524C194.25 154.476 199.488 146.916 200.322 143.874" fill="rgb(229,178,29)" fill-rule="nonzero" />
        <path id="矢量 897" d="M199.11 139.866C199.11 139.866 197.352 136.998 194.76 137.748C192.018 138.54 190.602 142.458 189.96 144.9C189.318 147.342 188.886 149.982 187.71 152.256C187.71 152.256 182.514 152.166 179.616 151.326C177.403 150.636 175.231 149.836 173.1 148.926C173.1 148.926 172.074 147.492 171.348 147.21C170.622 146.928 168.738 146.376 168.6 146.808C168.462 147.24 170.784 148.662 170.784 148.662C170.784 148.662 166.464 149.262 166.032 149.724C165.6 150.186 169.086 151.566 169.086 151.566C169.086 151.566 170.388 151.986 173.556 151.23C173.556 151.23 185.178 158.61 187.494 159.456C189.81 160.302 191.094 160.572 192.672 157.524C194.25 154.476 199.488 146.916 200.322 143.874" fill-rule="nonzero" stroke="rgb(38,50,56)" stroke-linecap="round" stroke-linejoin="round" stroke-width="1.04742002" />
        <path id="矢量 898" d="M176.118 150.15C174.42 149.514 173.118 148.95 173.118 148.95C173.118 148.95 172.092 147.516 171.366 147.234C170.64 146.952 168.756 146.4 168.618 146.832C168.48 147.264 170.802 148.686 170.802 148.686C170.802 148.686 166.482 149.286 166.05 149.748C165.618 150.21 169.104 151.59 169.104 151.59C169.104 151.59 170.406 152.01 173.574 151.254L175.2 152.28L176.118 150.15Z" fill="rgb(255,255,255)" fill-rule="nonzero" />
        <path id="矢量 898" d="M173.118 148.95C173.118 148.95 172.092 147.516 171.366 147.234C170.64 146.952 168.756 146.4 168.618 146.832C168.48 147.264 170.802 148.686 170.802 148.686C170.802 148.686 166.482 149.286 166.05 149.748C165.618 150.21 169.104 151.59 169.104 151.59C169.104 151.59 170.406 152.01 173.574 151.254L175.2 152.28L176.118 150.15C174.42 149.514 173.118 148.95 173.118 148.95Z" fill-rule="nonzero" stroke="rgb(38,50,56)" stroke-linecap="round" stroke-linejoin="round" stroke-width="1.04742002" />
        <path id="矢量 899" d="M220.914 157.584C220.538 156.827 220.316 156.027 220.248 155.184C220.248 154.092 222.282 152.532 222.648 152.142C223.014 151.752 223.386 151.794 223.464 152.34C223.466 152.987 223.232 153.533 222.762 153.978C222.45 154.224 222.24 154.538 222.132 154.92C222.096 155.184 222.804 156.516 222.45 157.374C222.096 158.232 221.106 158.478 220.914 157.584Z" fill="rgb(255,255,255)" fill-rule="nonzero" />
        <path id="矢量 899" d="M220.248 155.184C220.248 154.092 222.282 152.532 222.648 152.142C223.014 151.752 223.386 151.794 223.464 152.34C223.466 152.987 223.232 153.533 222.762 153.978C222.45 154.224 222.24 154.538 222.132 154.92C222.096 155.184 222.804 156.516 222.45 157.374C222.096 158.232 221.106 158.478 220.914 157.584C220.538 156.827 220.316 156.027 220.248 155.184Z" fill-rule="nonzero" stroke="rgb(38,50,56)" stroke-linecap="round" stroke-linejoin="round" stroke-width="1.04742002" />
        <path id="矢量 900" d="M222.312 154.29C222.312 154.29 220.638 157.38 221.61 158.49C222.582 159.6 223.524 155.994 223.704 154.998C223.884 154.002 222.93 153 222.312 154.29Z" fill="rgb(255,255,255)" fill-rule="nonzero" />
        <path id="矢量 900" d="M221.61 158.49C222.582 159.6 223.524 155.994 223.704 154.998C223.884 154.002 222.93 153 222.312 154.29C222.312 154.29 220.638 157.38 221.61 158.49Z" fill-rule="nonzero" stroke="rgb(38,50,56)" stroke-linecap="round" stroke-linejoin="round" stroke-width="1.04742002" />
        <path id="矢量 901" d="M223.692 155.4C223.692 155.4 222.018 158.49 222.99 159.6C223.962 160.71 224.904 157.104 225.084 156.108C225.264 155.112 224.31 154.074 223.692 155.4Z" fill="rgb(255,255,255)" fill-rule="nonzero" />
        <path id="矢量 901" d="M222.99 159.6C223.962 160.71 224.904 157.104 225.084 156.108C225.264 155.112 224.31 154.074 223.692 155.4C223.692 155.4 222.018 158.49 222.99 159.6Z" fill-rule="nonzero" stroke="rgb(38,50,56)" stroke-linecap="round" stroke-linejoin="round" stroke-width="1.04742002" />
        <path id="矢量 902" d="M225.21 155.658C225.21 155.658 223.536 158.748 224.508 159.858C225.48 160.968 226.422 157.362 226.602 156.366C226.782 155.37 225.828 154.362 225.21 155.658Z" fill="rgb(255,255,255)" fill-rule="nonzero" />
        <path id="矢量 902" d="M224.508 159.858C225.48 160.968 226.422 157.362 226.602 156.366C226.782 155.37 225.828 154.362 225.21 155.658C225.21 155.658 223.536 158.748 224.508 159.858Z" fill-rule="nonzero" stroke="rgb(38,50,56)" stroke-linecap="round" stroke-linejoin="round" stroke-width="1.04742002" />
        <path id="矢量 903" d="M227.154 155.682C227.154 155.682 225.594 158.082 226.446 158.988C227.298 159.894 228.216 157.044 228.396 156.222C228.576 155.4 227.73 154.602 227.154 155.682Z" fill="rgb(255,255,255)" fill-rule="nonzero" />
        <path id="矢量 903" d="M226.446 158.988C227.298 159.894 228.216 157.044 228.396 156.222C228.576 155.4 227.73 154.602 227.154 155.682C227.154 155.682 225.594 158.082 226.446 158.988Z" fill-rule="nonzero" stroke="rgb(38,50,56)" stroke-linecap="round" stroke-linejoin="round" stroke-width="1.04742002" />
        <path id="矢量 904" d="M262.71 154.41C262.71 154.41 264.384 157.5 263.412 158.61C262.44 159.72 261.498 156.108 261.318 155.112C261.138 154.116 262.092 153.114 262.71 154.41Z" fill="rgb(255,255,255)" fill-rule="nonzero" />
        <path id="矢量 904" d="M263.412 158.61C262.44 159.72 261.498 156.108 261.318 155.112C261.138 154.116 262.092 153.114 262.71 154.41C262.71 154.41 264.384 157.5 263.412 158.61Z" fill-rule="nonzero" stroke="rgb(38,50,56)" stroke-linecap="round" stroke-linejoin="round" stroke-width="1.04742002" />
        <path id="矢量 905" d="M261.33 155.49C261.33 155.49 263.004 158.58 262.032 159.69C261.06 160.8 260.118 157.188 259.938 156.192C259.758 155.196 260.712 154.2 261.33 155.49Z" fill="rgb(255,255,255)" fill-rule="nonzero" />
        <path id="矢量 905" d="M262.032 159.69C261.06 160.8 260.118 157.188 259.938 156.192C259.758 155.196 260.712 154.2 261.33 155.49C261.33 155.49 263.004 158.58 262.032 159.69Z" fill-rule="nonzero" stroke="rgb(38,50,56)" stroke-linecap="round" stroke-linejoin="round" stroke-width="1.04742002" />
        <path id="矢量 906" d="M259.8 155.778C259.8 155.778 261.474 158.868 260.502 159.978C259.53 161.088 258.588 157.482 258.414 156.48C258.24 155.478 259.2 154.482 259.8 155.778Z" fill="rgb(255,255,255)" fill-rule="nonzero" />
        <path id="矢量 906" d="M260.502 159.978C259.53 161.088 258.588 157.482 258.414 156.48C258.24 155.478 259.2 154.482 259.8 155.778C259.8 155.778 261.474 158.868 260.502 159.978Z" fill-rule="nonzero" stroke="rgb(38,50,56)" stroke-linecap="round" stroke-linejoin="round" stroke-width="1.04742002" />
        <path id="矢量 907" d="M257.868 155.802C257.868 155.802 259.428 158.232 258.576 159.108C257.724 159.984 256.806 157.164 256.632 156.342C256.458 155.52 257.292 154.722 257.868 155.802Z" fill="rgb(255,255,255)" fill-rule="nonzero" />
        <path id="矢量 907" d="M258.576 159.108C257.724 159.984 256.806 157.164 256.632 156.342C256.458 155.52 257.292 154.722 257.868 155.802C257.868 155.802 259.428 158.232 258.576 159.108Z" fill-rule="nonzero" stroke="rgb(38,50,56)" stroke-linecap="round" stroke-linejoin="round" stroke-width="1.04742002" />
        <path id="矢量 908" d="M51.432 189.99L51.432 193.398C50.2316 194.71 49.4056 196.226 48.954 197.946C48.228 200.73 45.954 212.712 46.554 213.024C47.154 213.336 52.8 214.626 54.6 214.356C56.664 214.044 58.422 214.152 57.384 213.012C56.346 211.872 50.892 208.686 50.892 208.686C50.892 208.686 56.892 200.01 58.224 196.806C59.556 193.602 59.772 188.646 59.772 188.646L51.72 188.34L51.432 189.99Z" fill="rgb(255,255,255)" fill-rule="nonzero" />
        <path id="矢量 908" d="M51.432 193.398C50.2316 194.71 49.4056 196.226 48.954 197.946C48.228 200.73 45.954 212.712 46.554 213.024C47.154 213.336 52.8 214.626 54.6 214.356C56.664 214.044 58.422 214.152 57.384 213.012C56.346 211.872 50.892 208.686 50.892 208.686C50.892 208.686 56.892 200.01 58.224 196.806C59.556 193.602 59.772 188.646 59.772 188.646L51.72 188.34L51.432 189.99L51.432 193.398Z" fill-rule="nonzero" stroke="rgb(38,50,56)" stroke-linecap="round" stroke-linejoin="round" stroke-width="1.04742002" />
        <path id="矢量 909" d="M54.6 214.356C56.664 214.044 58.422 214.152 57.384 213.012C56.346 211.872 50.892 208.686 50.892 208.686L50.688 209.922L46.758 209.442C46.47 211.446 46.344 212.916 46.554 213.042C47.196 213.33 52.8 214.626 54.6 214.356Z" fill="rgb(38,50,56)" fill-rule="nonzero" />
        <path id="矢量 909" d="M57.384 213.012C56.346 211.872 50.892 208.686 50.892 208.686L50.688 209.922L46.758 209.442C46.47 211.446 46.344 212.916 46.554 213.042C47.196 213.33 52.8 214.626 54.6 214.356C56.664 214.044 58.422 214.152 57.384 213.012Z" fill-rule="nonzero" stroke="rgb(38,50,56)" stroke-linecap="round" stroke-linejoin="round" stroke-width="1.04742002" />
        <path id="矢量 910" d="M71.16 191.754L72.09 193.41C71.2746 194.982 71.1706 196.6 71.778 198.264C72.708 201.156 74.88 211.794 74.88 212.412C74.88 213.03 76.218 213.444 77.28 213.444C78.342 213.444 81.282 213.648 81.696 213.648C82.11 213.648 85.104 214.164 86.136 213.546C87.168 212.928 84.822 211.686 83.274 210.966C81.726 210.246 78.318 208.386 78.318 208.386C78.318 208.386 79.14 199.914 79.14 196.194C79.14 192.474 79.968 191.238 78.834 188.964C77.7 186.69 70.572 190.002 70.572 190.002L71.16 191.754Z" fill="rgb(255,255,255)" fill-rule="nonzero" />
        <path id="矢量 910" d="M72.09 193.41C71.2746 194.982 71.1706 196.6 71.778 198.264C72.708 201.156 74.88 211.794 74.88 212.412C74.88 213.03 76.218 213.444 77.28 213.444C78.342 213.444 81.282 213.648 81.696 213.648C82.11 213.648 85.104 214.164 86.136 213.546C87.168 212.928 84.822 211.686 83.274 210.966C81.726 210.246 78.318 208.386 78.318 208.386C78.318 208.386 79.14 199.914 79.14 196.194C79.14 192.474 79.968 191.238 78.834 188.964C77.7 186.69 70.572 190.002 70.572 190.002L71.16 191.754L72.09 193.41Z" fill-rule="nonzero" stroke="rgb(38,50,56)" stroke-linecap="round" stroke-linejoin="round" stroke-width="1.04742002" />
        <path id="矢量 911" d="M83.2439 210.966C81.6959 210.24 78.2879 208.386 78.2879 208.386L77.8739 209.934L74.5559 210.534C74.7539 211.566 74.8799 212.274 74.8799 212.418C74.8799 213.018 76.2179 213.45 77.2799 213.45C78.3419 213.45 81.2819 213.654 81.6959 213.654C82.1099 213.654 85.1039 214.17 86.1359 213.552C87.1679 212.934 84.7919 211.686 83.2439 210.966Z" fill="rgb(38,50,56)" fill-rule="nonzero" />
        <path id="矢量 911" d="M78.2879 208.386L77.8739 209.934L74.5559 210.534C74.7539 211.566 74.8799 212.274 74.8799 212.418C74.8799 213.018 76.2179 213.45 77.2799 213.45C78.3419 213.45 81.2819 213.654 81.6959 213.654C82.1099 213.654 85.1039 214.17 86.1359 213.552C87.1679 212.934 84.7919 211.686 83.2439 210.966C81.6959 210.24 78.2879 208.386 78.2879 208.386Z" fill-rule="nonzero" stroke="rgb(38,50,56)" stroke-linecap="round" stroke-linejoin="round" stroke-width="1.04742002" />
        <path id="矢量 912" d="M65.5981 123C64.7869 121.614 63.8649 120.306 62.8321 119.076C61.41 117.474 56.952 117.564 54.9961 119.676C53.0401 121.788 53.6581 125.556 54.3961 126.624C55.1341 127.692 56.6221 132.684 56.6221 132.684L56.9761 136.248L65.2621 139.188L63.5701 133.398C63.5701 133.398 66.7801 132.798 67.0441 131.796C67.3081 130.794 66.5101 127.428 66.5101 127.428C66.5101 127.428 67.578 126.714 67.4881 126.09C67.398 125.466 65.5981 123 65.5981 123Z" fill="rgb(255,255,255)" fill-rule="nonzero" />
        <path id="矢量 912" d="M62.8321 119.076C61.41 117.474 56.952 117.564 54.9961 119.676C53.0401 121.788 53.6581 125.556 54.3961 126.624C55.1341 127.692 56.6221 132.684 56.6221 132.684L56.9761 136.248L65.2621 139.188L63.5701 133.398C63.5701 133.398 66.7801 132.798 67.0441 131.796C67.3081 130.794 66.5101 127.428 66.5101 127.428C66.5101 127.428 67.578 126.714 67.4881 126.09C67.398 125.466 65.5981 123 65.5981 123C64.7869 121.614 63.8649 120.306 62.8321 119.076Z" fill-rule="nonzero" stroke="rgb(38,50,56)" stroke-linecap="round" stroke-linejoin="round" stroke-width="1.04742002" />
        <path id="矢量 913" d="M56.0641 126.84C56.0641 126.84 57.4801 128.04 58.2541 126.666C59.0281 125.292 59.6161 123.948 59.6161 122.784C59.6161 121.62 56.7061 120.654 58.6441 119.874C60.582 119.094 61.98 120.828 62.844 119.088C63.708 117.348 62.922 117.162 58.2661 117.162C53.6101 117.162 51.2821 119.49 52.2661 122.4C53.0545 124.553 54.0245 126.621 55.1761 128.604L56.0641 126.84Z" fill="rgb(38,50,56)" fill-rule="nonzero" />
        <path id="矢量 913" d="M58.2541 126.666C59.0281 125.292 59.6161 123.948 59.6161 122.784C59.6161 121.62 56.7061 120.654 58.6441 119.874C60.582 119.094 61.98 120.828 62.844 119.088C63.708 117.348 62.922 117.162 58.2661 117.162C53.6101 117.162 51.2821 119.49 52.2661 122.4C53.0545 124.553 54.0245 126.621 55.1761 128.604L56.0641 126.84C56.0641 126.84 57.4801 128.04 58.2541 126.666Z" fill-rule="nonzero" stroke="rgb(38,50,56)" stroke-linecap="round" stroke-linejoin="round" stroke-width="1.04742002" />
        <path id="矢量 914" d="M65.2099 126.632C64.7753 127.067 64.2506 127.284 63.6359 127.284C63.0212 127.284 62.4965 127.067 62.0619 126.632C61.6272 126.197 61.4099 125.673 61.4099 125.058C61.4099 124.443 61.6272 123.919 62.0619 123.484C62.4965 123.049 63.0212 122.832 63.6359 122.832C64.2506 122.832 64.7753 123.049 65.2099 123.484C65.6446 123.919 65.8619 124.443 65.8619 125.058C65.8619 125.673 65.6446 126.197 65.2099 126.632Z" fill-rule="nonzero" stroke="rgb(38,50,56)" stroke-linecap="round" stroke-linejoin="round" stroke-width="1.04742002" />
        <path id="矢量 915" d="M65.5381 123.084C65.7995 122.977 66.0715 122.923 66.3541 122.922C66.8307 122.923 67.2573 123.069 67.6339 123.362C68.0105 123.654 68.2584 124.031 68.3777 124.492C68.4969 124.954 68.4626 125.403 68.2747 125.841C68.0868 126.279 67.7846 126.614 67.3681 126.846" fill-rule="nonzero" stroke="rgb(38,50,56)" stroke-linecap="round" stroke-linejoin="round" stroke-width="1.04742002" />
        <line id="直线 7" x1="0" x2="5.63517666" y1="0" y2="0" stroke="rgb(38,50,56)" stroke-linecap="round" stroke-linejoin="round" stroke-width="1.04742002" transform="matrix(-0.948683,0.316229,-0.316227,-0.948683,61.4099,125.058)" />
        <path id="矢量 916" d="M57.6 127.998C57.6 127.998 56.532 125.772 55.464 126.198C54.396 126.624 54.93 130.122 55.998 130.476C56.7719 130.65 57.4539 130.472 58.044 129.942C58.044 129.942 58.938 131.814 60.006 132.342" fill="rgb(255,255,255)" fill-rule="nonzero" />
        <path id="矢量 916" d="M57.6 127.998C57.6 127.998 56.532 125.772 55.464 126.198C54.396 126.624 54.93 130.122 55.998 130.476C56.7719 130.65 57.4539 130.472 58.044 129.942C58.044 129.942 58.938 131.814 60.006 132.342" fill-rule="nonzero" stroke="rgb(38,50,56)" stroke-linecap="round" stroke-linejoin="round" stroke-width="1.04742002" />
        <path id="矢量 917" d="M50.5921 168L49.9261 176.532L47.9341 189.162C47.9341 189.162 52.5901 192.816 56.9341 192.816C61.2781 192.816 62.4721 192.264 62.4721 192.264L64.9081 179.304L67.3441 192.93C67.3441 192.93 72.1441 192.156 75.3241 191.376C77.5502 190.757 79.6182 189.797 81.5281 188.496L75.1021 171.768L73.7101 163.14C73.7101 163.14 66.5101 163.806 62.1841 164.028C57.8581 164.25 52.1041 163.14 52.1041 163.14L50.5921 168Z" fill="rgb(229,178,29)" fill-rule="nonzero" />
        <path id="矢量 917" d="M49.9261 176.532L47.9341 189.162C47.9341 189.162 52.5901 192.816 56.9341 192.816C61.2781 192.816 62.4721 192.264 62.4721 192.264L64.9081 179.304L67.3441 192.93C67.3441 192.93 72.1441 192.156 75.3241 191.376C77.5502 190.757 79.6182 189.797 81.5281 188.496L75.1021 171.768L73.7101 163.14C73.7101 163.14 66.5101 163.806 62.1841 164.028C57.8581 164.25 52.1041 163.14 52.1041 163.14L50.5921 168L49.9261 176.532Z" fill-rule="nonzero" stroke="rgb(38,50,56)" stroke-linecap="round" stroke-linejoin="round" stroke-width="1.04742002" />
        <path id="矢量 918" d="M55.1581 133.908C55.1581 133.908 65.3581 137.466 68.5081 140.922C70.2481 142.842 72.1981 155.982 72.9001 159.192C73.6021 162.402 74.8261 168.792 74.8261 168.792C74.8261 168.792 68.6041 171.6 63.7921 171.702C58.9801 171.804 49.7461 169.596 49.7461 169.596C49.7461 169.596 50.8441 155.358 50.8441 148.74C50.8441 142.122 50.9461 137.802 52.0441 135.696C52.0501 135.714 53.8561 133.704 55.1581 133.908Z" fill="rgb(38,50,56)" fill-rule="nonzero" />
        <path id="矢量 918" d="M68.5081 140.922C70.2481 142.842 72.1981 155.982 72.9001 159.192C73.6021 162.402 74.8261 168.792 74.8261 168.792C74.8261 168.792 68.6041 171.6 63.7921 171.702C58.9801 171.804 49.7461 169.596 49.7461 169.596C49.7461 169.596 50.8441 155.358 50.8441 148.74C50.8441 142.122 50.9461 137.802 52.0441 135.696C52.0501 135.714 53.8561 133.704 55.1581 133.908C55.1581 133.908 65.3581 137.466 68.5081 140.922Z" fill-rule="nonzero" stroke="rgb(38,50,56)" stroke-linecap="round" stroke-linejoin="round" stroke-width="1.04742002" />
        <path id="矢量 919" d="M52.4759 170.628C52.4759 170.628 53.0279 179.934 52.4759 183.372C52.0867 185.599 51.4227 187.741 50.4839 189.798" fill-rule="nonzero" stroke="rgb(38,50,56)" stroke-linecap="round" stroke-linejoin="round" stroke-width="1.04742002" />
        <path id="矢量 920" d="M52.698 175.062C53.5454 174.771 54.2655 174.29 54.8582 173.618C55.451 172.946 55.8389 172.171 56.022 171.294" fill-rule="nonzero" stroke="rgb(38,50,56)" stroke-linecap="round" stroke-linejoin="round" stroke-width="1.04742002" />
        <path id="矢量 921" d="M48.4861 187.362C48.4861 187.362 54.0301 192.126 62.6701 190.362" stroke="rgb(38,50,56)" stroke-linecap="round" stroke-linejoin="round" stroke-width="1.04742002" />
        <path id="矢量 922" d="M67.104 190.128C67.104 190.128 76.188 189.132 80.178 186.474" stroke="rgb(38,50,56)" stroke-linecap="round" stroke-linejoin="round" stroke-width="1.04742002" />
        <path id="矢量 923" d="M107.736 129.6C107.736 129.6 106.86 130.248 103.806 132.48C100.752 134.712 103.158 138.084 103.158 138.084C103.158 138.084 100.974 138.426 98.058 141.492C95.142 144.558 99.36 149.82 103.302 150.642C107.244 151.464 111.852 146.586 113.232 142.062C114.612 137.538 112.788 130.716 111.87 129.306C110.952 127.896 107.736 129.6 107.736 129.6Z" fill="rgb(38,50,56)" fill-rule="nonzero" />
        <path id="矢量 923" d="M103.806 132.48C100.752 134.712 103.158 138.084 103.158 138.084C103.158 138.084 100.974 138.426 98.058 141.492C95.142 144.558 99.36 149.82 103.302 150.642C107.244 151.464 111.852 146.586 113.232 142.062C114.612 137.538 112.788 130.716 111.87 129.306C110.952 127.896 107.736 129.6 107.736 129.6C107.736 129.6 106.86 130.248 103.806 132.48Z" fill-rule="nonzero" stroke="rgb(38,50,56)" stroke-linecap="round" stroke-linejoin="round" stroke-width="1.04742002" />
        <path id="矢量 924" d="M119.304 129C119.304 129 120.822 126.654 119.448 123.252C118.074 119.85 113.97 118.296 109.974 120.762C109.308 121.158 108.724 121.651 108.22 122.24C107.717 122.83 107.322 123.484 107.035 124.204C106.748 124.924 106.585 125.671 106.544 126.445C106.504 127.219 106.589 127.978 106.8 128.724C107.19 130.296 109.158 132.714 109.572 132.75C109.986 132.786 113.58 134.094 116.034 132.948C118.488 131.802 119.304 129 119.304 129Z" fill="rgb(38,50,56)" fill-rule="nonzero" />
        <path id="矢量 924" d="M119.448 123.252C118.074 119.85 113.97 118.296 109.974 120.762C109.308 121.158 108.724 121.651 108.22 122.24C107.717 122.83 107.322 123.484 107.035 124.204C106.748 124.924 106.585 125.671 106.544 126.445C106.504 127.219 106.589 127.978 106.8 128.724C107.19 130.296 109.158 132.714 109.572 132.75C109.986 132.786 113.58 134.094 116.034 132.948C118.488 131.802 119.304 129 119.304 129C119.304 129 120.822 126.654 119.448 123.252Z" fill-rule="nonzero" stroke="rgb(38,50,56)" stroke-linecap="round" stroke-linejoin="round" stroke-width="1.04742002" />
        <path id="矢量 925" d="M101.646 208.2C101.646 208.2 104.496 212.634 109.446 213.39C114.396 214.146 109.944 209.706 109.11 209.034C108.276 208.362 102.318 206.91 101.646 208.2Z" fill="rgb(115,115,115)" fill-rule="nonzero" />
        <path id="矢量 925" d="M109.446 213.39C114.396 214.146 109.944 209.706 109.11 209.034C108.276 208.362 102.318 206.91 101.646 208.2C101.646 208.2 104.496 212.634 109.446 213.39Z" fill-rule="nonzero" stroke="rgb(38,50,56)" stroke-linecap="round" stroke-linejoin="round" stroke-width="1.04742002" />
        <path id="矢量 926" d="M128.016 209.34C128.016 209.34 133.458 210.678 133.038 211.854C132.618 213.03 128.184 212.94 125.592 212.268C123 211.596 120.564 210.594 120.9 209.508C121.236 208.422 128.016 209.34 128.016 209.34Z" fill="rgb(115,115,115)" fill-rule="nonzero" />
        <path id="矢量 926" d="M133.038 211.854C132.618 213.03 128.184 212.94 125.592 212.268C123 211.596 120.564 210.594 120.9 209.508C121.236 208.422 128.016 209.34 128.016 209.34C128.016 209.34 133.458 210.678 133.038 211.854Z" fill-rule="nonzero" stroke="rgb(38,50,56)" stroke-linecap="round" stroke-linejoin="round" stroke-width="1.04742002" />
        <path id="矢量 927" d="M112.542 137.82C112.542 137.82 105.258 138.888 103.926 141.462C102.594 144.036 104.472 158.058 104.472 158.058C104.472 158.058 101.364 164.916 101.322 169.332C101.28 173.748 103.248 181.518 103.092 183.456C102.936 185.394 100.944 207.456 100.944 208.056C100.944 208.656 105.144 210 111.198 210.72C117.252 211.44 128.832 209.286 128.832 209.286C128.832 209.286 128.604 196.266 129.21 188.502C129.816 180.738 128.952 173.76 127.41 170.862C125.868 167.964 118.686 157.53 118.686 157.53C118.686 157.53 122.166 151.218 122.382 148.458C122.598 145.698 121.476 144.258 118.848 141.084C117.203 139.112 115.101 138.024 112.542 137.82Z" fill="rgb(229,178,29)" fill-rule="nonzero" />
        <path id="矢量 927" d="M103.926 141.462C102.594 144.036 104.472 158.058 104.472 158.058C104.472 158.058 101.364 164.916 101.322 169.332C101.28 173.748 103.248 181.518 103.092 183.456C102.936 185.394 100.944 207.456 100.944 208.056C100.944 208.656 105.144 210 111.198 210.72C117.252 211.44 128.832 209.286 128.832 209.286C128.832 209.286 128.604 196.266 129.21 188.502C129.816 180.738 128.952 173.76 127.41 170.862C125.868 167.964 118.686 157.53 118.686 157.53C118.686 157.53 122.166 151.218 122.382 148.458C122.598 145.698 121.476 144.258 118.848 141.084C117.203 139.112 115.101 138.024 112.542 137.82C112.542 137.82 105.258 138.888 103.926 141.462Z" fill-rule="nonzero" stroke="rgb(38,50,56)" stroke-linecap="round" stroke-linejoin="round" stroke-width="1.04742002" />
        <path id="矢量 928" d="M118.704 157.536C118.704 157.536 122.184 151.224 122.4 148.464C122.616 145.704 121.494 144.264 118.866 141.09C118.74 140.934 118.608 140.796 118.476 140.652L118.38 140.742C115.68 145.152 106.752 152.688 104.094 154.884C104.298 156.762 104.472 158.058 104.472 158.058C104.472 158.058 101.364 164.916 101.322 169.332C101.372 171.347 101.572 173.347 101.922 175.332C108.228 171.732 116.664 164.994 121.23 161.238C119.802 159.126 118.704 157.536 118.704 157.536Z" fill="rgb(115,115,115)" fill-rule="nonzero" />
        <path id="矢量 928" d="M122.4 148.464C122.616 145.704 121.494 144.264 118.866 141.09C118.74 140.934 118.608 140.796 118.476 140.652L118.38 140.742C115.68 145.152 106.752 152.688 104.094 154.884C104.298 156.762 104.472 158.058 104.472 158.058C104.472 158.058 101.364 164.916 101.322 169.332C101.372 171.347 101.572 173.347 101.922 175.332C108.228 171.732 116.664 164.994 121.23 161.238C119.802 159.126 118.704 157.536 118.704 157.536C118.704 157.536 122.184 151.224 122.4 148.464Z" fill-rule="nonzero" stroke="rgb(38,50,56)" stroke-linecap="round" stroke-linejoin="round" stroke-width="1.04742002" />
        <path id="矢量 929" d="M111.198 132.672C111.399 134.32 111.509 135.974 111.528 137.634C111.432 138.864 111.828 141.672 113.928 142.554C116.028 143.436 117.348 142.206 117.342 140.97C117.266 139.945 117.066 138.945 116.742 137.97L116.802 134.58C116.802 134.58 113.178 132.312 111.198 132.672Z" fill="rgb(255,255,255)" fill-rule="nonzero" />
        <path id="矢量 929" d="M111.528 137.634C111.432 138.864 111.828 141.672 113.928 142.554C116.028 143.436 117.348 142.206 117.342 140.97C117.266 139.945 117.066 138.945 116.742 137.97L116.802 134.58C116.802 134.58 113.178 132.312 111.198 132.672C111.399 134.32 111.509 135.974 111.528 137.634Z" fill-rule="nonzero" stroke="rgb(38,50,56)" stroke-linecap="round" stroke-linejoin="round" stroke-width="1.04742002" />
        <path id="矢量 930" d="M109.314 130.47C109.314 130.47 107.772 129.114 107.724 131.07C107.676 133.026 109.476 133.674 109.872 133.806C110.219 133.853 110.535 133.775 110.82 133.572C110.82 133.572 113.616 135.972 115.86 136.128C118.104 136.284 119.016 135.246 119.544 131.172C120.072 127.098 115.866 122.964 115.866 122.964C115.866 122.964 112.266 129.6 109.314 130.47Z" fill="rgb(255,255,255)" fill-rule="nonzero" />
        <path id="矢量 930" d="M107.724 131.07C107.676 133.026 109.476 133.674 109.872 133.806C110.219 133.853 110.535 133.775 110.82 133.572C110.82 133.572 113.616 135.972 115.86 136.128C118.104 136.284 119.016 135.246 119.544 131.172C120.072 127.098 115.866 122.964 115.866 122.964C115.866 122.964 112.266 129.6 109.314 130.47C109.314 130.47 107.772 129.114 107.724 131.07Z" fill-rule="nonzero" stroke="rgb(38,50,56)" stroke-linecap="round" stroke-linejoin="round" stroke-width="1.04742002" />
        <path id="矢量 931" d="M75.0001 168.708C74.9794 168.006 75.0914 167.326 75.3361 166.668C75.7081 165.852 77.7361 165.384 78.1861 165.228C78.6361 165.072 78.8641 165.228 78.7321 165.654C78.5106 166.137 78.1486 166.465 77.6461 166.638C77.3279 166.714 77.0619 166.876 76.8481 167.124C76.7341 167.316 76.8061 168.546 76.2481 169.068C75.6901 169.59 74.8141 169.446 75.0001 168.708Z" fill="rgb(255,255,255)" fill-rule="nonzero" />
        <path id="矢量 931" d="M75.3361 166.668C75.7081 165.852 77.7361 165.384 78.1861 165.228C78.6361 165.072 78.8641 165.228 78.7321 165.654C78.5106 166.137 78.1486 166.465 77.6461 166.638C77.3279 166.714 77.0619 166.876 76.8481 167.124C76.7341 167.316 76.8061 168.546 76.2481 169.068C75.6901 169.59 74.8141 169.446 75.0001 168.708C74.9794 168.006 75.0914 167.326 75.3361 166.668Z" fill-rule="nonzero" stroke="rgb(38,50,56)" stroke-linecap="round" stroke-linejoin="round" stroke-width="1.04742002" />
        <path id="矢量 932" d="M120.984 150.666C120.984 150.666 113.784 149.724 110.61 154.752C107.436 159.78 101.502 177.372 90.5041 180.204C79.5061 183.036 76.3621 160.404 69.7621 161.034C63.4741 161.634 59.0821 161.034 55.3081 167.946C53.2921 171.648 43.2121 212.07 38.4481 212.484C23.2741 213.81 13.5061 212.946 13.5061 212.946" fill-rule="nonzero" stroke="rgb(38,50,56)" stroke-linecap="round" stroke-linejoin="round" stroke-width="3.14226007" />
        <path id="矢量 933" d="M55.626 134.196C55.626 134.196 53.964 133.53 51.744 134.856C49.524 136.182 43.548 150.702 43.992 152.256C44.436 153.81 50.748 156.69 54.294 157.686C57.84 158.682 64.266 159.906 64.266 159.906C64.266 159.906 66.258 163.008 66.924 163.116C67.8951 163.103 68.8551 162.993 69.804 162.786C69.804 162.786 71.004 163.782 71.466 162.672C71.928 161.562 71.022 160.128 70.026 159.018C69.03 157.908 64.818 157.356 64.818 157.356L53.4 149.484L58.2 140.622" fill="rgb(38,50,56)" fill-rule="nonzero" />
        <path id="矢量 933" d="M55.626 134.196C55.626 134.196 53.964 133.53 51.744 134.856C49.524 136.182 43.548 150.702 43.992 152.256C44.436 153.81 50.748 156.69 54.294 157.686C57.84 158.682 64.266 159.906 64.266 159.906C64.266 159.906 66.258 163.008 66.924 163.116C67.8951 163.103 68.8551 162.993 69.804 162.786C69.804 162.786 71.004 163.782 71.466 162.672C71.928 161.562 71.022 160.128 70.026 159.018C69.03 157.908 64.818 157.356 64.818 157.356L53.4 149.484L58.2 140.622" fill-rule="nonzero" stroke="rgb(38,50,56)" stroke-linecap="round" stroke-linejoin="round" stroke-width="1.04742002" />
        <path id="矢量 934" d="M66.9239 163.11C67.895 163.097 68.855 162.987 69.8039 162.78C69.8039 162.78 71.0039 163.776 71.4659 162.666C71.9279 161.556 71.0219 160.122 70.0259 159.012C69.0299 157.902 64.8179 157.35 64.8179 157.35L53.3999 149.484L55.1039 146.31C50.8379 143.652 48.0059 143.85 46.4759 144.384C44.9459 148.056 43.7819 151.536 43.9859 152.25C44.4299 153.804 50.7419 156.684 54.2879 157.68C57.8339 158.676 64.2599 159.9 64.2599 159.9C64.2599 159.9 66.2579 163.002 66.9239 163.11Z" fill="rgb(255,255,255)" fill-rule="nonzero" />
        <path id="矢量 934" d="M69.8039 162.78C69.8039 162.78 71.0039 163.776 71.4659 162.666C71.9279 161.556 71.0219 160.122 70.0259 159.012C69.0299 157.902 64.8179 157.35 64.8179 157.35L53.3999 149.484L55.1039 146.31C50.8379 143.652 48.0059 143.85 46.4759 144.384C44.9459 148.056 43.7819 151.536 43.9859 152.25C44.4299 153.804 50.7419 156.684 54.2879 157.68C57.8339 158.676 64.2599 159.9 64.2599 159.9C64.2599 159.9 66.2579 163.002 66.9239 163.11C67.895 163.097 68.855 162.987 69.8039 162.78Z" fill-rule="nonzero" stroke="rgb(38,50,56)" stroke-linecap="round" stroke-linejoin="round" stroke-width="1.04742002" />
        <path id="矢量 935" d="M138.294 150.912C137.808 145.674 135.294 141.372 132.294 139.662L132.198 138.594L124.362 139.32C119.952 139.728 116.91 145.782 117.564 152.838C118.218 159.894 122.322 165.276 126.732 164.838L134.568 164.112L134.466 163.044C137.106 160.836 138.78 156.15 138.294 150.912Z" fill="rgb(38,50,56)" fill-rule="nonzero" />
        <path id="矢量 935" d="M132.294 139.662L132.198 138.594L124.362 139.32C119.952 139.728 116.91 145.782 117.564 152.838C118.218 159.894 122.322 165.276 126.732 164.838L134.568 164.112L134.466 163.044C137.106 160.836 138.78 156.15 138.294 150.912C137.808 145.674 135.294 141.372 132.294 139.662Z" fill-rule="nonzero" stroke="rgb(38,50,56)" stroke-linecap="round" stroke-linejoin="round" stroke-width="1.04742002" />
        <path id="矢量 936" d="M141.84 150.6C141.33 145.098 138.84 140.568 135.666 138.768L135.558 137.646L132.204 137.958C127.572 138.39 124.374 144.744 125.058 152.16C125.742 159.576 130.062 165.234 134.694 164.802L138.048 164.49L137.946 163.368C140.718 161.004 142.35 156.084 141.84 150.6Z" fill="rgb(255,255,255)" fill-rule="nonzero" />
        <path id="矢量 936" d="M135.666 138.768L135.558 137.646L132.204 137.958C127.572 138.39 124.374 144.744 125.058 152.16C125.742 159.576 130.062 165.234 134.694 164.802L138.048 164.49L137.946 163.368C140.718 161.004 142.35 156.084 141.84 150.6C141.33 145.098 138.84 140.568 135.666 138.768Z" fill-rule="nonzero" stroke="rgb(38,50,56)" stroke-linecap="round" stroke-linejoin="round" stroke-width="1.04742002" />
        <path id="矢量 937" d="M145.2 150.27C145.89 157.686 142.692 164.04 138.054 164.472C133.416 164.904 129.102 159.24 128.4 151.83C127.698 144.42 130.908 138.03 135.54 137.628C140.172 137.226 144.504 142.86 145.2 150.27Z" fill="rgb(255,255,255)" fill-rule="nonzero" />
        <path id="矢量 937" d="M138.054 164.472C133.416 164.904 129.102 159.24 128.4 151.83C127.698 144.42 130.908 138.03 135.54 137.628C140.172 137.226 144.504 142.86 145.2 150.27C145.89 157.686 142.692 164.04 138.054 164.472Z" fill-rule="nonzero" stroke="rgb(38,50,56)" stroke-linecap="round" stroke-linejoin="round" stroke-width="1.04742002" />
        <path id="矢量 938" d="M148.8 145.938L135.786 147.138C135.402 147.174 135.062 147.07 134.765 146.823C134.469 146.577 134.303 146.262 134.268 145.878C134.231 145.494 134.336 145.154 134.583 144.857C134.829 144.561 135.144 144.395 135.528 144.36L148.542 143.16C148.926 143.123 149.266 143.228 149.563 143.475C149.859 143.721 150.025 144.036 150.06 144.42C150.096 144.804 149.992 145.144 149.745 145.441C149.499 145.737 149.184 145.903 148.8 145.938Z" fill="rgb(115,115,115)" fill-rule="nonzero" />
        <path id="矢量 938" d="M135.786 147.138C135.402 147.174 135.062 147.07 134.765 146.823C134.469 146.577 134.303 146.262 134.268 145.878C134.231 145.494 134.336 145.154 134.583 144.857C134.829 144.561 135.144 144.395 135.528 144.36L148.542 143.16C148.926 143.123 149.266 143.228 149.563 143.475C149.859 143.721 150.025 144.036 150.06 144.42C150.096 144.804 149.992 145.144 149.745 145.441C149.499 145.737 149.184 145.903 148.8 145.938L135.786 147.138Z" fill-rule="nonzero" stroke="rgb(38,50,56)" stroke-linecap="round" stroke-linejoin="round" stroke-width="1.04742002" />
        <path id="矢量 939" d="M149.766 156.252L136.752 157.452C136.368 157.489 136.028 157.384 135.731 157.137C135.435 156.891 135.269 156.576 135.234 156.192C135.198 155.808 135.302 155.468 135.549 155.171C135.795 154.875 136.11 154.709 136.494 154.674L149.508 153.474C149.891 153.441 150.23 153.547 150.526 153.793C150.821 154.038 150.988 154.352 151.026 154.734C151.062 155.118 150.958 155.458 150.711 155.755C150.465 156.052 150.15 156.217 149.766 156.252Z" fill="rgb(115,115,115)" fill-rule="nonzero" />
        <path id="矢量 939" d="M136.752 157.452C136.368 157.489 136.028 157.384 135.731 157.137C135.435 156.891 135.269 156.576 135.234 156.192C135.198 155.808 135.302 155.468 135.549 155.171C135.795 154.875 136.11 154.709 136.494 154.674L149.508 153.474C149.891 153.441 150.23 153.547 150.526 153.793C150.821 154.038 150.988 154.352 151.026 154.734C151.062 155.118 150.958 155.458 150.711 155.755C150.465 156.052 150.15 156.217 149.766 156.252L136.752 157.452Z" fill-rule="nonzero" stroke="rgb(38,50,56)" stroke-linecap="round" stroke-linejoin="round" stroke-width="1.04742002" />
        <path id="矢量 940" d="M108.042 138.798C108.042 138.798 104.91 139.398 103.428 141.198C101.946 142.998 98.904 156.888 99.606 158.484C100.308 160.08 111.558 162.084 115.032 162.372C117.83 162.483 120.618 162.359 123.396 162C123.396 162 126.396 161.922 127.218 161.784C128.04 161.646 129.552 160.836 129.576 160.53C129.6 160.224 129.45 159.492 128.328 159.402C127.206 159.312 124.8 158.508 124.494 158.484C125.216 158.294 125.946 158.146 126.684 158.04C126.684 158.04 126.84 157.44 125.604 157.44C124.368 157.44 123.246 157.356 122.778 158.04C122.443 158.574 122.159 159.134 121.926 159.72C121.926 159.72 114.996 160.206 111.234 158.37C107.472 156.534 106.284 155.922 106.284 155.922L108.984 145.122" fill="rgb(229,178,29)" fill-rule="nonzero" />
        <path id="矢量 940" d="M108.042 138.798C108.042 138.798 104.91 139.398 103.428 141.198C101.946 142.998 98.904 156.888 99.606 158.484C100.308 160.08 111.558 162.084 115.032 162.372C117.83 162.483 120.618 162.359 123.396 162C123.396 162 126.396 161.922 127.218 161.784C128.04 161.646 129.552 160.836 129.576 160.53C129.6 160.224 129.45 159.492 128.328 159.402C127.206 159.312 124.8 158.508 124.494 158.484C125.216 158.294 125.946 158.146 126.684 158.04C126.684 158.04 126.84 157.44 125.604 157.44C124.368 157.44 123.246 157.356 122.778 158.04C122.443 158.574 122.159 159.134 121.926 159.72C121.926 159.72 114.996 160.206 111.234 158.37C107.472 156.534 106.284 155.922 106.284 155.922L108.984 145.122" fill-rule="nonzero" stroke="rgb(38,50,56)" stroke-linecap="round" stroke-linejoin="round" stroke-width="1.04742002" />
        <path id="矢量 941" d="M127.2 161.802C128.034 161.664 129.534 160.854 129.558 160.548C129.582 160.242 129.432 159.51 128.31 159.42C127.188 159.33 124.782 158.526 124.476 158.502C125.197 158.312 125.927 158.164 126.666 158.058C126.666 158.058 126.822 157.458 125.586 157.458C124.35 157.458 123.228 157.374 122.76 158.058C122.425 158.592 122.141 159.152 121.908 159.738C121.908 159.738 114.978 160.224 111.216 158.388C107.454 156.552 106.266 155.94 106.266 155.94L107.91 149.34C105.758 148.455 103.524 147.901 101.208 147.678C100.086 152.202 99.1679 157.53 99.5879 158.478C100.284 160.074 111.54 162.078 115.014 162.366C117.812 162.477 120.6 162.353 123.378 161.994C123.378 161.994 126.384 161.94 127.2 161.802Z" fill="rgb(255,255,255)" fill-rule="nonzero" />
        <path id="矢量 941" d="M129.558 160.548C129.582 160.242 129.432 159.51 128.31 159.42C127.188 159.33 124.782 158.526 124.476 158.502C125.197 158.312 125.927 158.164 126.666 158.058C126.666 158.058 126.822 157.458 125.586 157.458C124.35 157.458 123.228 157.374 122.76 158.058C122.425 158.592 122.141 159.152 121.908 159.738C121.908 159.738 114.978 160.224 111.216 158.388C107.454 156.552 106.266 155.94 106.266 155.94L107.91 149.34C105.758 148.455 103.524 147.901 101.208 147.678C100.086 152.202 99.1679 157.53 99.5879 158.478C100.284 160.074 111.54 162.078 115.014 162.366C117.812 162.477 120.6 162.353 123.378 161.994C123.378 161.994 126.384 161.94 127.2 161.802C128.034 161.664 129.534 160.854 129.558 160.548Z" fill-rule="nonzero" stroke="rgb(38,50,56)" stroke-linecap="round" stroke-linejoin="round" stroke-width="1.04742002" />
        <path id="矢量 942" d="M76.5239 167.544C76.5239 167.544 74.2079 169.278 74.5619 170.424C74.9159 171.57 76.8479 169.224 77.3279 168.534C77.8079 167.844 77.4299 166.8 76.5239 167.544Z" fill="rgb(255,255,255)" fill-rule="nonzero" />
        <path id="矢量 942" d="M74.5619 170.424C74.9159 171.57 76.8479 169.224 77.3279 168.534C77.8079 167.844 77.4299 166.8 76.5239 167.544C76.5239 167.544 74.2079 169.278 74.5619 170.424Z" fill-rule="nonzero" stroke="rgb(38,50,56)" stroke-linecap="round" stroke-linejoin="round" stroke-width="1.04742002" />
        <path id="矢量 943" d="M76.9801 169.098C76.9801 169.098 74.6701 170.832 75.0181 171.978C75.3661 173.124 77.3101 170.778 77.7841 170.088C78.2581 169.398 77.8861 168.342 76.9801 169.098Z" fill="rgb(255,255,255)" fill-rule="nonzero" />
        <path id="矢量 943" d="M75.0181 171.978C75.3661 173.124 77.3101 170.778 77.7841 170.088C78.2581 169.398 77.8861 168.342 76.9801 169.098C76.9801 169.098 74.6701 170.832 75.0181 171.978Z" fill-rule="nonzero" stroke="rgb(38,50,56)" stroke-linecap="round" stroke-linejoin="round" stroke-width="1.04742002" />
        <path id="矢量 944" d="M78.0781 170.106C78.0781 170.106 75.7681 171.84 76.1221 172.986C76.4761 174.132 78.4081 171.786 78.8881 171.096C79.3681 170.406 78.9901 169.35 78.0781 170.106Z" fill="rgb(255,255,255)" fill-rule="nonzero" />
        <path id="矢量 944" d="M76.1221 172.986C76.4761 174.132 78.4081 171.786 78.8881 171.096C79.3681 170.406 78.9901 169.35 78.0781 170.106C78.0781 170.106 75.7681 171.84 76.1221 172.986Z" fill-rule="nonzero" stroke="rgb(38,50,56)" stroke-linecap="round" stroke-linejoin="round" stroke-width="1.04742002" />
        <path id="矢量 945" d="M78.984 170.922C78.984 170.922 76.986 172.206 77.322 173.154C77.658 174.102 79.308 172.308 79.722 171.756C80.136 171.204 79.8 170.316 78.984 170.922Z" fill="rgb(255,255,255)" fill-rule="nonzero" />
        <path id="矢量 945" d="M77.322 173.154C77.658 174.102 79.308 172.308 79.722 171.756C80.136 171.204 79.8 170.316 78.984 170.922C78.984 170.922 76.986 172.206 77.322 173.154Z" fill-rule="nonzero" stroke="rgb(38,50,56)" stroke-linecap="round" stroke-linejoin="round" stroke-width="1.04742002" />
    </g>
</svg>
