<svg viewBox="0 0 88.0558 86.9362" xmlns="http://www.w3.org/2000/svg" xmlns:xlink="http://www.w3.org/1999/xlink" width="88.055786" height="86.936157" opacity="0.300000012" fill="none">
    <rect id="svg" width="80.008560" height="81.021713" x="0.000000" y="0.000000" transform="matrix(0.0919972,-0.995759,0.99597,0.0896902,0,79.6693)" />
    <path id="path" d="M0 36.6451L8.19782 43.4683C8.19782 43.4683 51.5452 20.9137 72.5076 20.3451L60.9409 0.140652C60.9409 0.140652 44.2458 -4.29447 0 36.6451Z" fill="rgb(248,182,45)" fill-rule="nonzero" transform="matrix(0.0919972,-0.995759,0.99597,0.0896902,2.3208,73.2634)" />
    <path id="path" d="M8.98391 44.7211L0 37.2534L0.486629 36.7985C23.3956 15.6085 38.818 6.77617 47.6896 3.09919C57.4596 -0.95686 61.7269 0.104536 61.9141 0.18035L62.1387 0.256164L74.3044 21.522L73.3686 21.5599C52.7805 22.1285 9.73257 44.4178 9.3208 44.6453L8.98391 44.7211ZM1.72192 37.2155L9.13364 43.3943C13.139 41.3474 52.219 21.5599 72.3953 20.3848L61.4275 1.20384C60.4542 1.05221 56.1869 0.748955 47.8768 4.2364C39.1923 7.87547 24.1068 16.5562 1.72192 37.2155Z" fill="rgb(29,32,136)" fill-rule="nonzero" transform="matrix(0.0919972,-0.995759,0.99597,0.0896902,1.67358,74.0696)" />
    <path id="path" d="M0 4.96567C8.00958e-09 5.1283 0.00787093 5.29054 0.0236128 5.45239C0.0393546 5.61424 0.0628915 5.77492 0.0942236 5.93442C0.125556 6.09393 0.164532 6.2515 0.211153 6.40713C0.257773 6.56276 0.311813 6.7157 0.373273 6.86595C0.434733 7.0162 0.503317 7.16304 0.579025 7.30647C0.654733 7.4499 0.737199 7.58922 0.826426 7.72445C0.915652 7.85967 1.01121 7.99014 1.11309 8.11586C1.21498 8.24157 1.3227 8.36193 1.43627 8.47693C1.54983 8.59192 1.66868 8.70101 1.79283 8.80418C1.91698 8.90736 2.04582 9.00412 2.17936 9.09447C2.31289 9.18482 2.45048 9.26833 2.59212 9.345C2.73376 9.42166 2.87877 9.49111 3.02715 9.55335C3.17552 9.61558 3.32656 9.67031 3.48024 9.71752C3.63393 9.76473 3.78953 9.8042 3.94705 9.83592C4.10457 9.86765 4.26324 9.89149 4.42307 9.90743C4.5829 9.92337 4.74312 9.93134 4.90372 9.93134C5.06432 9.93134 5.22454 9.92337 5.38437 9.90743C5.5442 9.89149 5.70287 9.86765 5.86039 9.83592C6.0179 9.8042 6.1735 9.76473 6.32719 9.71752C6.48088 9.67031 6.63191 9.61558 6.78029 9.55335C6.92867 9.49111 7.07368 9.42166 7.21531 9.345C7.35695 9.26833 7.49454 9.18482 7.62808 9.09447C7.76161 9.00412 7.89046 8.90736 8.0146 8.80418C8.13875 8.70101 8.25761 8.59192 8.37117 8.47693C8.48473 8.36193 8.59246 8.24157 8.69434 8.11586C8.79623 7.99014 8.89178 7.85967 8.98101 7.72445C9.07024 7.58922 9.1527 7.4499 9.22841 7.30647C9.30412 7.16304 9.3727 7.0162 9.43416 6.86595C9.49562 6.7157 9.54966 6.56276 9.59628 6.40713C9.6429 6.2515 9.68188 6.09393 9.71321 5.93442C9.74454 5.77492 9.76808 5.61424 9.78382 5.45239C9.79957 5.29054 9.80744 5.1283 9.80744 4.96567C9.80744 4.80304 9.79957 4.6408 9.78382 4.47895C9.76808 4.3171 9.74454 4.15642 9.71321 3.99692C9.68188 3.83741 9.6429 3.67984 9.59628 3.52421C9.54966 3.36858 9.49562 3.21564 9.43416 3.06539C9.3727 2.91514 9.30412 2.7683 9.22841 2.62487C9.1527 2.48144 9.07024 2.34212 8.98101 2.20689C8.89178 2.07167 8.79623 1.9412 8.69434 1.81548C8.59246 1.68977 8.48473 1.56941 8.37117 1.45441C8.25761 1.33941 8.13875 1.23033 8.0146 1.12716C7.89046 1.02398 7.76161 0.92722 7.62808 0.836866C7.49454 0.746513 7.35695 0.663004 7.21531 0.58634C7.07368 0.509676 6.92867 0.440226 6.78029 0.377989C6.63191 0.315753 6.48088 0.26103 6.32719 0.21382C6.1735 0.166611 6.0179 0.127142 5.86039 0.095414C5.70287 0.0636861 5.5442 0.0398518 5.38437 0.0239111C5.22454 0.00797035 5.06432 0 4.90372 0C4.74312 0 4.5829 0.00797035 4.42307 0.0239111C4.26324 0.0398518 4.10457 0.0636861 3.94705 0.095414C3.78953 0.127142 3.63393 0.166611 3.48024 0.21382C3.32656 0.26103 3.17552 0.315753 3.02715 0.377989C2.87877 0.440226 2.73376 0.509676 2.59212 0.58634C2.45048 0.663004 2.31289 0.746513 2.17936 0.836866C2.04582 0.92722 1.91698 1.02398 1.79283 1.12716C1.66868 1.23033 1.54983 1.33941 1.43627 1.45441C1.3227 1.56941 1.21498 1.68977 1.11309 1.81548C1.01121 1.9412 0.915652 2.07167 0.826426 2.20689C0.737199 2.34211 0.654733 2.48144 0.579025 2.62487C0.503317 2.7683 0.434733 2.91514 0.373273 3.06539C0.311813 3.21564 0.257773 3.36858 0.211153 3.52421C0.164532 3.67984 0.125556 3.83741 0.0942236 3.99692C0.0628915 4.15642 0.0393546 4.3171 0.0236128 4.47895C0.00787093 4.6408 8.00958e-09 4.80304 0 4.96567Z" fill="rgb(0,160,233)" fill-rule="nonzero" transform="matrix(0.0919972,-0.995759,0.99597,0.0896902,43.7382,83.0443)" />
    <path id="path" d="M5.46521 11.0686C2.47058 11.0686 0 8.60467 0 5.53428C0 2.46389 2.43314 0 5.46521 0C8.49728 0 10.9304 2.46389 10.9304 5.53428C10.9304 8.60467 8.45985 11.0686 5.46521 11.0686ZM5.46521 1.17509C3.0695 1.17509 1.12299 3.1462 1.12299 5.57219C1.12299 7.99817 3.0695 9.96929 5.46521 9.96929C7.86092 9.96929 9.80744 7.99817 9.80744 5.57219C9.80744 3.1462 7.82349 1.17509 5.46521 1.17509Z" fill="rgb(29,32,136)" fill-rule="nonzero" transform="matrix(0.0919972,-0.995759,0.99597,0.0896902,43.0824,83.5491)" />
</svg>
