<svg viewBox="0 0 24 24" xmlns="http://www.w3.org/2000/svg" xmlns:xlink="http://www.w3.org/1999/xlink" width="24" height="24" fill="none">
    <rect id="svg 7" width="24" height="24" x="0" y="0" />
    <path id="矢量 36" d="M18.8887 10.6987L17.4008 12.1875L16.884 12.7031L11.7494 17.838L11.2326 18.3537L10.7158 18.8705L9.09858 20.4876L2.8335 14.2266L8.71396 8.34562L11.5363 5.52327L12.6243 4.4353L17.9261 5.41124L18.1269 6.51562C17.751 6.73038 17.3581 6.90788 16.9485 7.04812C16.8663 6.91384 16.7696 6.79103 16.6583 6.67968C16.6125 6.6337 16.5645 6.59008 16.5144 6.54882C16.4642 6.50756 16.4122 6.46887 16.3583 6.43274C16.3043 6.3966 16.2487 6.3632 16.1915 6.33254C16.1343 6.30188 16.0757 6.27411 16.0157 6.24921C15.9557 6.22432 15.8947 6.20243 15.8326 6.18355C15.7704 6.16467 15.7076 6.14888 15.6439 6.13619C15.5802 6.1235 15.5161 6.11396 15.4514 6.10759C15.3868 6.10121 15.3221 6.09802 15.2571 6.09802C15.1922 6.09802 15.1274 6.10121 15.0628 6.10759C14.9982 6.11396 14.9341 6.1235 14.8704 6.13619C14.8067 6.14888 14.7438 6.16467 14.6817 6.18355C14.6196 6.20243 14.5585 6.22432 14.4986 6.24921C14.4386 6.27411 14.38 6.30188 14.3228 6.33254C14.2655 6.3632 14.2099 6.3966 14.156 6.43274C14.1021 6.46887 14.05 6.50756 13.9999 6.54882C13.9497 6.59008 13.9018 6.6337 13.8559 6.67968C13.809 6.72655 13.7651 6.77491 13.7242 6.82476C13.6467 6.91912 13.5785 7.01979 13.5196 7.12677C13.4607 7.23374 13.4122 7.3452 13.3739 7.46116C13.3356 7.57711 13.3083 7.69559 13.2919 7.8166C13.2755 7.93761 13.2704 8.05909 13.2764 8.18105C13.2825 8.30301 13.2997 8.42338 13.3281 8.54215C13.3564 8.66093 13.3954 8.77611 13.445 8.88768C13.4946 8.99925 13.554 9.10533 13.6233 9.20592C13.6925 9.30651 13.7704 9.3999 13.8569 9.48609C13.9434 9.57228 14.037 9.64982 14.1379 9.71869C14.2387 9.78757 14.345 9.84662 14.4567 9.89585C14.5685 9.94508 14.6838 9.98365 14.8027 10.0116C14.9215 10.0395 15.042 10.0563 15.1639 10.0619C15.2859 10.0676 15.4074 10.062 15.5283 10.0452C15.6493 10.0284 15.7677 10.0006 15.8835 9.96193C15.9993 9.92324 16.1106 9.87427 16.2174 9.815C16.3241 9.75574 16.4246 9.68719 16.5187 9.60936C16.5669 9.56952 16.6138 9.5271 16.6593 9.4821C16.799 9.34254 16.9154 9.18566 17.0085 9.01147C17.1203 8.80173 17.1916 8.57899 17.2222 8.34327C17.6181 8.21466 18.0023 8.05755 18.3749 7.87194L18.8887 10.6987Z" fill="rgb(254,201,99)" fill-rule="nonzero" />
    <path id="矢量 37" d="M20.2331 10.7536L19.5724 7.125C19.3818 7.27153 19.1843 7.40801 18.9799 7.53445C18.783 7.65611 18.5811 7.76861 18.374 7.87195L18.8896 10.6987L17.4009 12.1875L16.8841 12.7031L11.7494 17.838L11.2326 18.3537L10.7158 18.8705L11.1893 20.2533L11.403 20.8781C11.4189 20.9247 11.4393 20.9693 11.464 21.0119C11.4887 21.0545 11.5174 21.0943 11.5499 21.1312C11.5825 21.1682 11.6183 21.2016 11.6575 21.2315C11.6966 21.2614 11.7383 21.2872 11.7826 21.3089C11.8268 21.3305 11.8727 21.3477 11.9203 21.3603C11.9679 21.373 12.0163 21.3808 12.0654 21.3839C12.1146 21.387 12.1636 21.3853 12.2124 21.3787C12.2612 21.3722 12.3089 21.3609 12.3555 21.345L19.589 18.8707C19.6356 18.8548 19.6802 18.8344 19.7228 18.8097C19.7654 18.785 19.8052 18.7563 19.8421 18.7238C19.8791 18.6912 19.9125 18.6554 19.9424 18.6162C19.9723 18.5771 19.9981 18.5354 20.0198 18.4912C20.0414 18.4469 20.0586 18.401 20.0712 18.3534C20.0839 18.3058 20.0917 18.2574 20.0948 18.2083C20.0979 18.1591 20.0962 18.1101 20.0896 18.0613C20.0831 18.0125 20.0718 17.9648 20.0559 17.9182L18.3918 13.0528L20.0264 11.4183C20.1133 11.3312 20.175 11.2289 20.2115 11.1114C20.248 10.9939 20.2552 10.8746 20.2331 10.7536L20.2331 10.7536ZM18.6328 17.8111L12.4626 19.9219L12.2226 19.2211L17.3573 14.0859L18.6328 17.8111Z" fill="rgb(0,0,0)" fill-rule="nonzero" />
    <path id="矢量 38" d="M19.3224 5.75161C19.1995 5.77061 19.0909 5.82076 18.9967 5.90208C18.9069 5.97919 18.8152 6.05254 18.7227 6.12192C18.5323 6.26546 18.3338 6.39671 18.1271 6.51567L17.9263 5.41247L12.6245 4.43536L11.5365 5.52332L8.71415 8.34567L2.83369 14.2266L9.09759 20.49L10.7148 18.8729L11.1882 20.2557L9.62681 21.8171C9.59199 21.8519 9.5541 21.883 9.51315 21.9104C9.4722 21.9377 9.42898 21.9608 9.38347 21.9797C9.33797 21.9986 9.29107 22.0128 9.24276 22.0224C9.19445 22.032 9.14567 22.0368 9.09642 22.0368C9.04717 22.0368 8.99839 22.032 8.95008 22.0224C8.90178 22.0128 8.85487 21.9986 8.80937 21.9797C8.76387 21.9608 8.72064 21.9377 8.67969 21.9104C8.63874 21.883 8.60085 21.8519 8.56603 21.8171L1.50806 14.7568C1.47323 14.7219 1.44213 14.6841 1.41476 14.6431C1.3874 14.6022 1.36429 14.5589 1.34544 14.5134C1.32659 14.4679 1.31236 14.421 1.30275 14.3727C1.29314 14.3244 1.28833 14.2756 1.28833 14.2264C1.28833 14.1771 1.29314 14.1283 1.30275 14.08C1.31236 14.0317 1.32659 13.9848 1.34544 13.9393C1.36429 13.8938 1.3874 13.8506 1.41476 13.8096C1.44213 13.7687 1.47323 13.7308 1.50806 13.696L11.9063 3.2984C11.9935 3.21116 12.096 3.1492 12.2138 3.11253C12.3316 3.07586 12.4511 3.06867 12.5724 3.09098L18.5469 4.1909C18.6217 4.20473 18.6928 4.22936 18.7601 4.26482C18.8274 4.30027 18.888 4.34494 18.9417 4.39882C18.9954 4.45269 19.0399 4.51334 19.0752 4.58076C19.1105 4.64818 19.1349 4.71932 19.1485 4.79419L19.3224 5.75161Z" fill="rgb(0,0,0)" fill-rule="nonzero" />
    <path id="矢量 39" d="M15.8816 8.66621C15.8755 8.67278 15.8692 8.67934 15.8628 8.68567C15.8281 8.72039 15.7906 8.75189 15.7503 8.78016C15.7101 8.80844 15.6678 8.83307 15.6233 8.85405C15.5789 8.87504 15.533 8.89208 15.4856 8.90516C15.4382 8.91825 15.3901 8.92719 15.3411 8.93198C15.2922 8.93678 15.2432 8.93736 15.1942 8.93373C15.1452 8.9301 15.0968 8.92231 15.0492 8.91036C15.0015 8.89841 14.9552 8.88247 14.9102 8.86255C14.8653 8.84262 14.8224 8.81901 14.7815 8.7917C14.7406 8.7644 14.7024 8.7338 14.6668 8.69991C14.6312 8.66602 14.5987 8.62934 14.5694 8.58987C14.5401 8.5504 14.5144 8.50871 14.4923 8.46481C14.4702 8.42091 14.452 8.37545 14.4377 8.32842C14.4234 8.28139 14.4132 8.23348 14.4072 8.1847C14.4011 8.13591 14.3993 8.08697 14.4016 8.03787C14.404 7.98877 14.4106 7.94024 14.4213 7.89226C14.432 7.84429 14.4467 7.79759 14.4655 7.75215C14.47 7.74114 14.4749 7.73035 14.4798 7.71957C14.5107 7.65318 14.5495 7.59176 14.5962 7.5353C14.6428 7.47884 14.6958 7.42916 14.7552 7.38627C14.8145 7.34338 14.8783 7.30866 14.9466 7.2821C15.0148 7.25554 15.0853 7.23801 15.1581 7.2295C15.191 7.22553 15.2241 7.22357 15.2572 7.22364C15.4261 7.22314 15.5813 7.26885 15.7229 7.36074L15.6596 7.37129C15.4 7.41278 15.241 7.42285 15.2335 7.42332C15.1905 7.42446 15.1479 7.42979 15.1059 7.43932C15.0638 7.44884 15.0231 7.46237 14.9837 7.47991C14.9444 7.49746 14.9071 7.51867 14.8719 7.54356C14.8367 7.56844 14.8043 7.59652 14.7746 7.6278C14.7449 7.65907 14.7186 7.69294 14.6956 7.7294C14.6726 7.76586 14.6534 7.80421 14.638 7.84446C14.6225 7.88471 14.6112 7.92607 14.6039 7.96855C14.5966 8.01104 14.5935 8.05383 14.5946 8.09692C14.5958 8.14001 14.6011 8.18257 14.6106 8.22461C14.6202 8.26665 14.6337 8.30736 14.6512 8.34673C14.6688 8.38611 14.69 8.42339 14.7149 8.45859C14.7398 8.49378 14.7678 8.52621 14.7991 8.55587C14.8304 8.58554 14.8643 8.61187 14.9007 8.63486C14.9372 8.65785 14.9755 8.67707 15.0158 8.6925C15.056 8.70794 15.0974 8.71931 15.1399 8.7266C15.1824 8.73389 15.2251 8.73696 15.2682 8.73582L15.3027 8.73582C15.3193 8.73582 15.3964 8.73067 15.5197 8.71731C15.6139 8.70512 15.7363 8.68965 15.8816 8.66621L15.8816 8.66621Z" fill="rgb(254,201,99)" fill-rule="nonzero" />
    <path id="矢量 40" d="M17.2213 8.34229C17.1906 8.57801 17.1194 8.80075 17.0076 9.0105C16.9145 9.18468 16.7981 9.34156 16.6583 9.48112C16.6135 9.52612 16.5666 9.56854 16.5177 9.60839C16.4456 9.6679 16.3697 9.72204 16.2899 9.7708C16.2101 9.81956 16.1273 9.86247 16.0415 9.89951C15.9557 9.93656 15.8676 9.96737 15.7774 9.99196C15.6872 10.0165 15.5957 10.0347 15.503 10.0463C15.4102 10.0579 15.3171 10.063 15.2236 10.0614C15.1301 10.0599 15.0372 10.0518 14.9449 10.0371C14.8526 10.0224 14.7617 10.0013 14.6724 9.97373C14.5831 9.94618 14.4961 9.91248 14.4115 9.87262C14.327 9.83276 14.2456 9.78715 14.1675 9.73578C14.0894 9.68441 14.0153 9.6278 13.9452 9.56594C13.8751 9.50408 13.8097 9.4376 13.749 9.36648C13.6883 9.29537 13.6329 9.22034 13.5828 9.14138C13.5328 9.06243 13.4885 8.98034 13.45 8.89513C13.4116 8.80991 13.3793 8.72241 13.3533 8.63262C13.3272 8.54284 13.3076 8.45167 13.2944 8.35911C13.2812 8.26655 13.2747 8.17352 13.2747 8.08003C13.274 7.85096 13.3122 7.62857 13.3893 7.41285C13.4663 7.19713 13.5777 7.00085 13.7233 6.82401C13.7645 6.77386 13.8084 6.7255 13.855 6.67893C13.9078 6.62615 13.9635 6.57651 14.022 6.53002C14.0804 6.48353 14.1413 6.44048 14.2047 6.40087C14.268 6.36126 14.3334 6.32534 14.4008 6.29312C14.4682 6.26089 14.5371 6.23257 14.6077 6.20814C14.6783 6.18371 14.7501 6.16334 14.823 6.14702C14.8959 6.1307 14.9695 6.11854 15.0437 6.11054C15.118 6.10253 15.1925 6.09874 15.2672 6.09915C15.3419 6.09957 15.4163 6.10419 15.4905 6.11301C15.5647 6.12184 15.6381 6.13481 15.7108 6.15194C15.7835 6.16906 15.8551 6.19023 15.9254 6.21544C15.9957 6.24065 16.0644 6.26973 16.1314 6.3027C16.1984 6.33567 16.2634 6.37231 16.3263 6.41262C16.3892 6.45293 16.4496 6.49665 16.5075 6.54379C16.5655 6.59093 16.6206 6.64118 16.6729 6.69454C16.7251 6.74791 16.7742 6.80405 16.8202 6.86296C16.8661 6.92188 16.9086 6.98319 16.9476 7.0469C16.7528 7.1144 16.566 7.16971 16.3923 7.21542C16.1345 7.28315 15.9067 7.32956 15.7218 7.36073C15.5806 7.26916 15.426 7.22345 15.2577 7.22362C15.2245 7.22356 15.1915 7.22551 15.1586 7.22948C15.0858 7.23799 15.0153 7.25553 14.9471 7.28208C14.8788 7.30864 14.815 7.34337 14.7557 7.38626C14.6963 7.42915 14.6433 7.47882 14.5966 7.53528C14.55 7.59175 14.5112 7.65317 14.4803 7.71956C14.4754 7.73034 14.4704 7.74112 14.466 7.75214C14.4472 7.79758 14.4323 7.8443 14.4216 7.89229C14.4108 7.94029 14.4042 7.98885 14.4017 8.03799C14.3993 8.08712 14.4011 8.1361 14.4071 8.18492C14.4131 8.23374 14.4233 8.28169 14.4376 8.32877C14.4518 8.37585 14.47 8.42136 14.4921 8.4653C14.5143 8.50924 14.54 8.55097 14.5693 8.59048C14.5986 8.62999 14.631 8.66671 14.6667 8.70063C14.7023 8.73454 14.7406 8.76517 14.7815 8.79249C14.8224 8.81982 14.8653 8.84345 14.9103 8.86338C14.9553 8.88331 15.0016 8.89924 15.0493 8.91119C15.097 8.92313 15.1454 8.93091 15.1945 8.93452C15.2436 8.93813 15.2926 8.93751 15.3415 8.93268C15.3905 8.92785 15.4387 8.91886 15.4861 8.90573C15.5335 8.89259 15.5794 8.8755 15.6239 8.85445C15.6683 8.8334 15.7107 8.80871 15.7509 8.78036C15.7911 8.75202 15.8286 8.72045 15.8633 8.68565C15.8697 8.67933 15.876 8.67276 15.8821 8.6662C15.9726 8.6519 16.0717 8.63456 16.1786 8.61347C16.3703 8.57573 16.5866 8.52651 16.8205 8.46253C16.949 8.42714 17.083 8.38706 17.2213 8.34229L17.2213 8.34229Z" fill="rgb(0,0,0)" fill-rule="nonzero" />
    <path id="矢量 41" d="M20.9022 5.08588C20.8749 5.08586 20.8476 5.08414 20.8205 5.08073C20.7934 5.07731 20.7666 5.07222 20.7401 5.06545C20.7137 5.05869 20.6877 5.0503 20.6623 5.0403C20.6369 5.03029 20.6122 5.01874 20.5882 5.00565C20.5642 4.99255 20.5411 4.97802 20.5189 4.96204C20.4968 4.94607 20.4757 4.92877 20.4557 4.91016C20.4357 4.89155 20.4169 4.87177 20.3993 4.85081C20.3818 4.82986 20.3656 4.80789 20.3508 4.78492C20.336 4.76194 20.3227 4.73814 20.3109 4.7135C20.2991 4.68886 20.2889 4.66358 20.2802 4.63767C20.2715 4.61175 20.2645 4.58539 20.2591 4.5586C20.2538 4.53181 20.2501 4.50478 20.2481 4.47753C20.2461 4.45028 20.2458 4.423 20.2472 4.39571C20.2486 4.36842 20.2517 4.34133 20.2565 4.31443C20.2613 4.28752 20.2678 4.26102 20.2759 4.23493C20.284 4.20883 20.2937 4.18334 20.305 4.15846C20.4366 3.86646 20.5425 3.56544 20.6228 3.25541C20.633 3.213 20.6473 3.17201 20.6656 3.13244C20.684 3.09287 20.7061 3.05551 20.7319 3.02035C20.7577 2.98518 20.7867 2.95292 20.819 2.92354C20.8512 2.89417 20.8861 2.86827 20.9235 2.84584C20.9609 2.82341 21.0001 2.80489 21.0413 2.79029C21.0824 2.77569 21.1245 2.7653 21.1677 2.7591C21.2108 2.7529 21.2542 2.75103 21.2978 2.75348C21.3413 2.75593 21.3842 2.76265 21.4264 2.77365C21.4686 2.78465 21.5093 2.79971 21.5485 2.81883C21.5877 2.83795 21.6247 2.86075 21.6593 2.88723C21.694 2.91371 21.7257 2.94336 21.7544 2.97616C21.7832 3.00897 21.8084 3.04429 21.8301 3.08212C21.8518 3.11996 21.8696 3.15957 21.8834 3.20094C21.8972 3.24232 21.9068 3.28465 21.9122 3.32794C21.9175 3.37123 21.9186 3.41462 21.9153 3.45812C21.912 3.50161 21.9045 3.54436 21.8927 3.58635C21.7936 3.96904 21.6628 4.34053 21.5001 4.7008C21.474 4.75823 21.4404 4.81081 21.3992 4.85854C21.3579 4.90627 21.3108 4.9472 21.2578 4.98135C21.2048 5.0155 21.148 5.04146 21.0875 5.05925C21.027 5.07703 20.9652 5.08591 20.9022 5.08588ZM19.8515 6.89736C19.7594 6.97658 19.6662 7.05244 19.5719 7.12494C19.3813 7.27147 19.1838 7.40795 18.9794 7.5344C18.7825 7.65605 18.5806 7.76855 18.3735 7.8719C18.0009 8.05718 17.6167 8.21398 17.2209 8.34229C17.0826 8.38705 16.9485 8.42713 16.8196 8.46252C16.5852 8.52651 16.3694 8.57572 16.1777 8.61346C16.0708 8.63455 15.9716 8.6519 15.8812 8.66619C15.7359 8.68963 15.6135 8.7051 15.5191 8.71541C15.3948 8.72877 15.3187 8.73322 15.302 8.73393L15.2676 8.73393C15.2245 8.73507 15.1817 8.73199 15.1392 8.7247C15.0967 8.71741 15.0554 8.70605 15.0151 8.69061C14.9749 8.67517 14.9365 8.65596 14.9001 8.63297C14.8636 8.60997 14.8297 8.58364 14.7985 8.55398C14.7672 8.52432 14.7391 8.49189 14.7142 8.45669C14.6893 8.4215 14.6681 8.38421 14.6506 8.34484C14.633 8.30546 14.6195 8.26476 14.61 8.22272C14.6004 8.18068 14.5951 8.13811 14.594 8.09502C14.5928 8.05193 14.5959 8.00914 14.6032 7.96666C14.6105 7.92418 14.6219 7.88281 14.6373 7.84256C14.6527 7.80232 14.6719 7.76397 14.6949 7.72751C14.7179 7.69104 14.7443 7.65718 14.7739 7.6259C14.8036 7.59463 14.836 7.56655 14.8712 7.54166C14.9064 7.51677 14.9437 7.49556 14.9831 7.47802C15.0224 7.46048 15.0632 7.44694 15.1052 7.43742C15.1472 7.4279 15.1898 7.42257 15.2329 7.42143C15.2404 7.42143 15.3993 7.41088 15.659 7.3694L15.7223 7.35885C15.9072 7.32768 16.1359 7.28127 16.3928 7.21354C16.5665 7.16783 16.7533 7.11252 16.948 7.04502C17.3577 6.90579 17.7507 6.72931 18.1269 6.51557C18.3336 6.39699 18.5321 6.26613 18.7225 6.12299C18.8151 6.05268 18.9067 5.98026 18.9965 5.90315C19.0288 5.87287 19.0638 5.84613 19.1015 5.82294C19.1392 5.79975 19.1789 5.78057 19.2205 5.7654C19.262 5.75023 19.3047 5.73938 19.3485 5.73285C19.3923 5.72633 19.4363 5.72425 19.4805 5.72663C19.5247 5.72901 19.5683 5.73579 19.6111 5.74697C19.6539 5.75816 19.6952 5.77352 19.7349 5.79307C19.7747 5.81261 19.812 5.83593 19.847 5.86303C19.882 5.89014 19.914 5.92047 19.9429 5.95404C19.9717 5.98761 19.9969 6.02373 20.0185 6.0624C20.04 6.10107 20.0575 6.1415 20.0709 6.18371C20.0843 6.22591 20.0933 6.26903 20.0979 6.31306C20.1026 6.35709 20.1027 6.40113 20.0985 6.4452C20.0942 6.48927 20.0856 6.53246 20.0726 6.57478C20.0595 6.6171 20.0424 6.65768 20.0212 6.69654C20 6.73539 19.9751 6.77172 19.9465 6.80554C19.9179 6.83935 19.8863 6.86996 19.8515 6.89736Z" fill="rgb(255,182,64)" fill-rule="nonzero" />
</svg>
