<svg viewBox="0 0 64 64" xmlns="http://www.w3.org/2000/svg" xmlns:xlink="http://www.w3.org/1999/xlink" width="64.000000" height="64.000000" fill="none">
	<rect id="svg" width="64.000000" height="64.000000" x="0.000000" y="0.000000" />
	<path id="path" d="M15.7172 60.7723L14.0726 59.6841L31.2472 33.7449L48.4219 59.6841L46.7773 60.7723L31.2472 37.3098L15.7172 60.7723Z" fill="rgb(40,45,51)" fill-rule="nonzero" />
	<path id="path" d="M30.2624 36.1083L32.232 36.1083L32.232 60.0681L30.2624 60.0681L30.2624 36.1083ZM31.0847 35.8769C30.8569 35.8765 30.6305 35.858 30.4055 35.8216C30.1806 35.7851 29.96 35.7311 29.7436 35.6595C29.5273 35.5879 29.318 35.4997 29.1157 35.3948C28.9134 35.2898 28.7207 35.1696 28.5376 35.034C28.3545 34.8984 28.1832 34.7492 28.0238 34.5863C27.8644 34.4235 27.7189 34.249 27.5873 34.063C27.4557 33.877 27.3397 33.6817 27.2392 33.4772C27.1386 33.2727 27.0549 33.0616 26.988 32.8437L28.869 32.2578C28.9622 32.5576 29.1101 32.8276 29.3126 33.0676C29.515 33.3076 29.7561 33.4989 30.0359 33.6414C30.3069 33.7861 30.5954 33.8721 30.9013 33.8995C31.2073 33.9268 31.5064 33.8933 31.7987 33.799C31.9454 33.7514 32.086 33.6901 32.2207 33.615C32.3553 33.5399 32.4814 33.4525 32.599 33.3527C32.7165 33.253 32.8233 33.1427 32.9193 33.0221C33.0152 32.9014 33.0986 32.7726 33.1694 32.6356C33.2401 32.4987 33.297 32.3561 33.3398 32.208C33.3827 32.06 33.4108 31.9091 33.4242 31.7555C33.4376 31.6019 33.4359 31.4485 33.4192 31.2952C33.4026 31.1419 33.3712 30.9917 33.3251 30.8446L35.1913 30.2439C35.2335 30.3786 35.2691 30.5151 35.2979 30.6534C35.3268 30.7916 35.3488 30.9309 35.364 31.0713C35.3792 31.2117 35.3876 31.3525 35.389 31.4937C35.3905 31.6349 35.385 31.7758 35.3727 31.9165C35.3603 32.0572 35.3411 32.1969 35.3151 32.3357C35.289 32.4745 35.2563 32.6117 35.2168 32.7473C35.1774 32.8828 35.1314 33.0162 35.0789 33.1473C35.0264 33.2784 34.9676 33.4066 34.9025 33.5319C34.8375 33.6572 34.7665 33.7791 34.6895 33.8975C34.6125 34.0158 34.5299 34.1302 34.4417 34.2405C34.3535 34.3508 34.2602 34.4565 34.1617 34.5577C34.0631 34.6588 33.9599 34.7549 33.852 34.846C33.7441 34.937 33.6319 35.0226 33.5156 35.1027C33.3993 35.1828 33.2794 35.257 33.1558 35.3253C33.0322 35.3937 32.9056 35.4558 32.776 35.5118C32.6463 35.5677 32.5142 35.6172 32.3797 35.6602C31.9595 35.8007 31.5278 35.8729 31.0847 35.8769Z" fill="rgb(40,45,51)" fill-rule="nonzero" />
	<path id="path" d="M14.8062 38.3092L10.1334 25.8123L52.4349 9.76025L57.1175 22.267L14.8062 38.3092ZM12.6643 26.9497L15.9584 35.7684L54.5768 21.1198L51.2827 12.3059L12.6643 26.9497Z" fill="rgb(40,45,51)" fill-rule="nonzero" />
	<path id="path" d="M55.665 24.0349L50.1945 9.39606L58.5356 6.22998L64.011 20.8885L55.665 24.0349ZM52.7106 10.5384L56.8024 21.4892L61.4604 19.7215L57.3834 8.77565L52.7106 10.5384ZM3.07745 40.3232L0 32.0806L12.7677 27.2354L15.8501 35.483L3.07745 40.3232ZM2.5309 33.2279L4.22965 37.7776L13.3192 34.3308L11.6155 29.7762L2.5309 33.2279Z" fill="rgb(40,45,51)" fill-rule="nonzero" />
	<path id="path" d="M27.3504 26.9331L57.7704 15.4013L58.4686 17.2433L28.0486 28.7747L27.3504 26.9331ZM31.2768 9.00214L33.7929 9.00214L33.7929 10.9717L31.2768 10.9717L31.2768 9.00214ZM51.4747 29.983L53.9908 29.983L53.9908 31.9526L51.4747 31.9526L51.4747 29.983ZM43.1139 39.6831L45.63 39.6831L45.63 41.6527L43.1139 41.6527L43.1139 39.6831ZM15.3429 42.5439L17.8591 42.5439L17.8591 44.5135L15.3429 44.5135L15.3429 42.5439ZM15.2642 19.1307C14.9434 19.1315 14.6233 19.1161 14.3041 19.0845C13.9849 19.0528 13.6681 19.0051 13.3537 18.9412C13.0393 18.8773 12.729 18.7976 12.4227 18.7022C12.1165 18.6068 11.8158 18.496 11.5208 18.37C11.2258 18.244 10.9379 18.1034 10.6572 17.9481C10.3765 17.7928 10.1044 17.6237 9.8409 17.4407C9.57739 17.2578 9.32384 17.0619 9.08024 16.8532C8.83665 16.6445 8.60427 16.4239 8.3831 16.1915C8.16193 15.9592 7.95312 15.7162 7.75666 15.4626C7.5602 15.209 7.37711 14.9461 7.20739 14.6738C7.03767 14.4016 6.88219 14.1215 6.74096 13.8335C6.59972 13.5454 6.47346 13.251 6.36217 12.9501C6.25088 12.6492 6.15513 12.3435 6.07493 12.0329C5.99473 11.7223 5.93049 11.4084 5.88221 11.0912C5.83393 10.7741 5.80186 10.4553 5.78599 10.1349C5.77013 9.81452 5.77056 9.49413 5.78727 9.17377C5.80399 8.85341 5.83691 8.53473 5.88603 8.21771C5.93516 7.9007 6.00023 7.587 6.08125 7.2766C6.16228 6.9662 6.25884 6.66072 6.37093 6.36014C6.48302 6.05956 6.61006 5.76545 6.75206 5.47779C6.89406 5.19013 7.05029 4.91042 7.22073 4.63865C7.39117 4.36688 7.57496 4.10445 7.77209 3.85137C7.96922 3.59829 8.17868 3.35586 8.40047 3.12408C8.62225 2.8923 8.85522 2.67236 9.09937 2.46427C9.34352 2.25618 9.59759 2.06101 9.86159 1.87876C10.1256 1.69651 10.3981 1.52811 10.6793 1.37358C10.9604 1.21904 11.2486 1.07916 11.544 0.953938C11.8393 0.828713 12.1402 0.71879 12.4468 0.624168C12.7533 0.529546 13.0638 0.450714 13.3784 0.38767C13.6929 0.324627 14.0098 0.277699 14.3292 0.246884C14.6485 0.21607 14.9685 0.201529 15.2893 0.203262C15.6101 0.204994 15.93 0.222991 16.2489 0.257253L16.4016 2.17758C16.2939 2.20672 16.1873 2.23934 16.0817 2.27544C15.9762 2.31153 15.8719 2.35103 15.769 2.39392C15.666 2.43682 15.5645 2.48302 15.4646 2.53254C15.3646 2.58205 15.2664 2.63477 15.1699 2.69069C15.0733 2.74661 14.9787 2.80561 14.8861 2.86771C14.7934 2.9298 14.7029 2.99484 14.6144 3.06284C14.526 3.13083 14.4399 3.20164 14.3561 3.27525C14.2723 3.34887 14.1909 3.42513 14.1121 3.50405C14.0333 3.58297 13.9571 3.66437 13.8836 3.74825C13.81 3.83214 13.7393 3.91833 13.6714 4.00683C13.6035 4.09533 13.5386 4.18595 13.4766 4.27868C13.4146 4.37142 13.3557 4.46607 13.2998 4.56265C13.244 4.65923 13.1914 4.75752 13.142 4.85753C13.0926 4.95754 13.0465 5.05905 13.0037 5.16207C12.9609 5.26508 12.9215 5.36938 12.8855 5.47497C12.8496 5.58055 12.8171 5.6872 12.788 5.7949C12.759 5.90261 12.7335 6.01114 12.7116 6.12051C12.6896 6.22988 12.6712 6.33985 12.6565 6.45041C12.6417 6.56098 12.6305 6.67191 12.623 6.7832C12.6154 6.89449 12.6115 7.00591 12.6113 7.11746C12.611 7.22901 12.6143 7.34045 12.6213 7.45178C12.6283 7.56311 12.6389 7.67409 12.6532 7.78472C12.6674 7.89536 12.6852 8.00542 12.7066 8.11489C12.728 8.22437 12.753 8.33303 12.7815 8.44088C12.81 8.54872 12.842 8.65553 12.8774 8.76129C12.9129 8.86705 12.9518 8.97154 12.994 9.07477C13.0363 9.17799 13.0819 9.27973 13.1308 9.37998C13.1797 9.48023 13.2319 9.57879 13.2872 9.67564C13.3426 9.77249 13.401 9.86744 13.4625 9.96048C13.5241 10.0535 13.5886 10.1445 13.656 10.2333C13.7235 10.3221 13.7938 10.4087 13.8669 10.4929C13.94 10.5772 14.0158 10.6589 14.0942 10.7382C14.1727 10.8175 14.2536 10.8942 14.3371 10.9682C14.4205 11.0423 14.5063 11.1135 14.5944 11.1819C14.6825 11.2504 14.7727 11.3159 14.8651 11.3784C14.9574 11.4409 15.0517 11.5004 15.148 11.5568C15.2442 11.6132 15.3422 11.6664 15.4419 11.7164C15.5416 11.7664 15.6428 11.8131 15.7456 11.8565C15.8484 11.8999 15.9524 11.9399 16.0578 11.9766C16.1632 12.0132 16.2696 12.0463 16.3771 12.076C16.4847 12.1057 16.593 12.1318 16.7023 12.1544C16.8115 12.177 16.9214 12.196 17.0318 12.2115C17.1423 12.2269 17.2532 12.2387 17.3644 12.247C17.4757 12.2552 17.5871 12.2597 17.6986 12.2607C17.8102 12.2616 17.9216 12.2589 18.033 12.2526C18.1443 12.2463 18.2554 12.2363 18.3661 12.2228C18.4768 12.2092 18.587 12.192 18.6966 12.1713C18.8062 12.1505 18.915 12.1262 19.023 12.0984C19.131 12.0705 19.238 12.0392 19.344 12.0043C19.45 11.9695 19.5547 11.9313 19.6582 11.8896C19.7616 11.8479 19.8637 11.803 19.9642 11.7546C20.0647 11.7063 20.1636 11.6548 20.2608 11.6C20.358 11.5453 20.4533 11.4874 20.5467 11.4264C20.6401 11.3654 20.7314 11.3015 20.8206 11.2345C20.9099 11.1676 20.9968 11.0978 21.0815 11.0252C21.1662 10.9526 21.2484 10.8773 21.3282 10.7994C21.408 10.7214 21.4851 10.6409 21.5596 10.5579C21.6342 10.4749 21.7059 10.3896 21.7749 10.3019C21.8438 10.2142 21.9099 10.1244 21.9729 10.0324C22.0361 9.94041 22.0961 9.84647 22.1531 9.75056C22.21 9.65466 22.2638 9.557 22.3144 9.45759C22.365 9.35818 22.4123 9.25723 22.4563 9.15473C22.5004 9.05224 22.541 8.94841 22.5782 8.84327C22.6155 8.73812 22.6493 8.63187 22.6796 8.52452L24.6098 8.68701C24.6393 9.01692 24.659 9.34682 24.659 9.6718C24.6595 9.98039 24.6449 10.2883 24.6152 10.5954C24.5855 10.9026 24.5409 11.2075 24.4813 11.5103C24.4217 11.8131 24.3474 12.1122 24.2585 12.4078C24.1696 12.7033 24.0665 12.9937 23.9491 13.2791C23.8317 13.5645 23.7007 13.8435 23.5559 14.116C23.4112 14.3885 23.2535 14.6534 23.0828 14.9104C22.9121 15.1675 22.7293 15.4156 22.5343 15.6548C22.3392 15.894 22.133 16.123 21.9155 16.342C21.6981 16.5609 21.4704 16.7687 21.2326 16.9653C20.9948 17.162 20.7479 17.3465 20.492 17.5189C20.2361 17.6913 19.9723 17.8508 19.7008 17.9974C19.4292 18.144 19.1511 18.2769 18.8665 18.3963C18.582 18.5156 18.2922 18.6207 17.9973 18.7116C17.7024 18.8025 17.4038 18.8788 17.1014 18.9405C16.7991 19.0021 16.4944 19.0488 16.1875 19.0806C15.8805 19.1124 15.5727 19.1291 15.2642 19.1307ZM12.1424 2.88171C12.0053 2.9432 11.8701 3.00877 11.7369 3.07842C11.6038 3.14807 11.4728 3.22167 11.3441 3.29922C11.2153 3.37676 11.0891 3.45812 10.9652 3.54329C10.8414 3.62845 10.7202 3.71727 10.6018 3.80974C10.4833 3.90222 10.3677 3.99817 10.2551 4.09762C10.1424 4.19706 10.0328 4.29981 9.9263 4.40587C9.81982 4.51192 9.71663 4.62109 9.61673 4.73337C9.51683 4.84564 9.4204 4.96083 9.32745 5.07893C9.2345 5.19702 9.14519 5.31781 9.05953 5.44129C8.97386 5.56477 8.892 5.69073 8.81393 5.81915C8.73586 5.94757 8.66174 6.07822 8.59155 6.21111C8.52136 6.344 8.45525 6.47889 8.3932 6.61577C8.33115 6.75265 8.27328 6.89128 8.21959 7.03165C8.1659 7.17202 8.11649 7.31388 8.07136 7.45723C8.02623 7.60058 7.98546 7.74516 7.94905 7.89097C7.91264 8.03678 7.88065 8.18356 7.8531 8.3313C7.82554 8.47903 7.80246 8.62747 7.78386 8.7766C7.76525 8.92573 7.75116 9.07529 7.74158 9.22527C7.732 9.37525 7.72694 9.52539 7.72642 9.67567C7.72589 9.82596 7.7299 9.97612 7.73843 10.1262C7.74696 10.2762 7.76001 10.4259 7.77757 10.5751C7.79513 10.7244 7.81717 10.873 7.84369 11.0209C7.87021 11.1688 7.90117 11.3158 7.93655 11.4619C7.97194 11.608 8.0117 11.7528 8.05583 11.8965C8.09996 12.0401 8.14837 12.1823 8.20108 12.3231C8.25378 12.4638 8.31068 12.6029 8.37177 12.7402C8.43286 12.8775 8.49803 13.0128 8.56729 13.1462C8.63654 13.2796 8.70975 13.4108 8.78692 13.5397C8.86409 13.6687 8.94507 13.7952 9.02987 13.9193C9.11467 14.0434 9.20313 14.1648 9.29525 14.2835C9.38738 14.4023 9.48299 14.5181 9.5821 14.6311C9.68121 14.7441 9.78364 14.8539 9.88938 14.9607C9.99512 15.0675 10.104 15.1711 10.216 15.2713C10.3279 15.3715 10.4428 15.4683 10.5607 15.5616C10.6785 15.6549 10.799 15.7445 10.9222 15.8306C11.0455 15.9166 11.1712 15.9988 11.2994 16.0773C11.4276 16.1557 11.558 16.2302 11.6907 16.3008C11.8234 16.3714 11.958 16.4379 12.0947 16.5004C12.2314 16.5628 12.3699 16.6211 12.5101 16.6752C12.6503 16.7293 12.792 16.7791 12.9352 16.8247C13.0785 16.8702 13.2229 16.9114 13.3686 16.9483C13.5143 16.9851 13.661 17.0175 13.8087 17.0455C13.9563 17.0735 14.1047 17.097 14.2538 17.1161C14.4028 17.1351 14.5524 17.1497 14.7023 17.1597C14.8523 17.1697 15.0024 17.1752 15.1527 17.1762C15.3029 17.1772 15.4531 17.1736 15.6032 17.1655C15.7533 17.1574 15.903 17.1448 16.0523 17.1277C16.2016 17.1106 16.3502 17.089 16.4982 17.0629C16.6462 17.0368 16.7933 17.0063 16.9395 16.9713C17.0857 16.9364 17.2306 16.897 17.3744 16.8533C17.5182 16.8096 17.6606 16.7616 17.8015 16.7093C17.9424 16.6571 18.0816 16.6006 18.2191 16.5399C18.3565 16.4792 18.4921 16.4144 18.6257 16.3456C18.7592 16.2767 18.8906 16.2039 19.0198 16.1271C19.149 16.0503 19.2758 15.9697 19.4001 15.8853C19.5244 15.8008 19.6461 15.7127 19.7651 15.621C19.8841 15.5292 20.0003 15.4339 20.1135 15.3351C20.2268 15.2364 20.337 15.1343 20.4441 15.0288C20.5512 14.9234 20.655 14.8149 20.7556 14.7032C20.8562 14.5915 20.9533 14.4769 21.0469 14.3593C21.1406 14.2418 21.2306 14.1215 21.317 13.9986C21.4034 13.8756 21.486 13.7501 21.5648 13.6222C21.6436 13.4942 21.7185 13.364 21.7895 13.2315C21.8605 13.099 21.9274 12.9645 21.9902 12.828C21.3826 13.2873 20.7178 13.6382 19.9959 13.8809C19.2739 14.1235 18.5321 14.2452 17.7704 14.2461C17.443 14.244 17.1172 14.2193 16.7931 14.1721C16.4691 14.1249 16.1498 14.0556 15.8353 13.9643C15.5208 13.873 15.2141 13.7604 14.9152 13.6267C14.6163 13.4929 14.328 13.3393 14.0503 13.1656C13.7726 12.992 13.5082 12.8001 13.2571 12.59C13.006 12.3798 12.7705 12.1534 12.5507 11.9106C12.3308 11.6679 12.1287 11.4112 11.9444 11.1405C11.7601 10.8699 11.5952 10.5878 11.4499 10.2943C11.3046 10.0009 11.1801 9.6988 11.0766 9.38813C10.973 9.07746 10.8913 8.76114 10.8315 8.43917C10.7716 8.11721 10.7342 7.79265 10.7193 7.46552C10.7043 7.13838 10.7119 6.81177 10.7422 6.48569C10.7724 6.15961 10.8249 5.83715 10.8996 5.51833C10.9744 5.1995 11.0708 4.88734 11.1888 4.58184C11.3067 4.27635 11.4451 3.98042 11.604 3.69406C11.7629 3.4077 11.9407 3.13363 12.1375 2.87186L12.1424 2.88171Z" fill="rgb(40,45,51)" fill-rule="nonzero" />
</svg>
