<svg viewBox="0 0 24 24" xmlns="http://www.w3.org/2000/svg" xmlns:xlink="http://www.w3.org/1999/xlink" width="24" height="24" fill="none">
    <rect id="svg" width="24" height="24" x="0" y="0" />
    <path id="path" d="M11.9243 20.8445C6.42566 20.8445 1.96851 16.3872 1.96851 10.8884C1.96851 5.38991 6.42576 0.932373 11.9243 0.932373C17.4236 0.932373 21.8808 5.38982 21.8808 10.8884C21.8808 16.3872 17.4235 20.8445 11.9243 20.8445Z" fill="rgb(255,229,135)" fill-rule="nonzero" />
    <path id="path" d="M11.8327 18.7423C7.42053 18.7423 3.84399 15.1656 3.84399 10.7534C3.84399 6.34107 7.42073 2.76453 11.8327 2.76453C16.2453 2.76453 19.8222 6.34116 19.8222 10.7534C19.8222 15.1658 16.2454 18.7423 11.8327 18.7423Z" fill="rgb(237,205,140)" fill-rule="nonzero" />
    <path id="path" d="M11.7898 1.20947C6.29143 1.20947 1.83398 5.66711 1.83398 11.1656C1.83398 16.6644 6.29114 21.1216 11.7898 21.1216C17.2891 21.1216 21.7462 16.6646 21.7462 11.1656C21.7462 5.66701 17.2891 1.20947 11.7898 1.20947ZM11.7229 19.913C6.63229 19.913 2.50581 15.7862 2.50581 10.6955C2.50581 5.60486 6.63249 1.47818 11.7229 1.47818C16.8141 1.47818 20.9406 5.60477 20.9406 10.6955C20.9406 15.7864 16.8135 19.913 11.7229 19.913Z" opacity="0.389999986" fill="rgb(194,147,121)" fill-rule="nonzero" />
    <path id="path" d="M2.37426 11.569C2.37426 6.27954 6.66214 1.8153 11.9514 1.8153C15.8579 1.8153 19.215 4.33089 20.7055 7.68378C19.5535 3.68782 15.8718 0.76416 11.5042 0.76416C6.21514 0.76416 1.92725 5.05205 1.92725 10.3415C1.92676 11.0106 1.99589 11.6726 2.13464 12.3272C2.2734 12.9818 2.47874 13.6149 2.75066 14.2263C2.49972 13.3576 2.37426 12.4719 2.37426 11.569Z" opacity="0.709999979" fill="rgb(255,255,255)" fill-rule="nonzero" />
    <path id="path" d="M11.9243 21.2326C6.22048 21.2326 1.58008 16.5921 1.58008 10.8882C1.58008 8.7578 2.22247 6.71204 3.43793 4.97179L4.07489 5.41666C2.95101 7.02571 2.35697 8.91775 2.35697 10.8882C2.35697 16.1638 6.64884 20.4557 11.9243 20.4557C17.2001 20.4557 21.4923 16.1638 21.4923 10.8882C21.4923 5.61254 17.2001 1.32057 11.9243 1.32057C10.2886 1.32057 8.67431 1.74058 7.25599 2.53506L6.87628 1.85731C8.41036 0.997869 10.1559 0.543579 11.9243 0.543579C17.6285 0.543579 22.2692 5.18408 22.2692 10.8881C22.2692 16.592 17.6285 21.2326 11.9243 21.2326Z" fill="rgb(110,110,150)" fill-rule="nonzero" />
    <path id="path" d="M16.4944 14.445C16.5761 14.1515 16.8343 13.7908 17.0675 13.6438C17.3006 13.4964 17.3017 13.2552 17.0687 13.1083C16.8355 12.9612 16.5631 12.6288 16.4649 12.3708C16.3668 12.1129 16.2063 12.1129 16.1084 12.3708C16.0102 12.6288 15.739 12.9604 15.5061 13.1073C15.2728 13.2542 15.2715 13.4956 15.5049 13.6432C15.7377 13.7904 15.9972 14.1515 16.0796 14.445L16.1379 14.6527C16.22 14.946 16.3544 14.946 16.4364 14.6527L16.4944 14.445Z" fill="rgb(255,255,255)" fill-rule="nonzero" />
    <path id="path" d="M11.8327 2.61597C7.42073 2.61597 3.84399 6.19251 3.84399 10.6049C3.84399 11.2515 3.9213 11.8799 4.06658 12.4817C4.04241 12.229 4.03027 11.9758 4.03016 11.722C4.03016 7.30978 7.60689 3.73324 12.019 3.73324C15.7866 3.73324 18.9429 6.34128 19.7856 9.85014C19.4052 5.79202 15.9908 2.61597 11.8327 2.61597Z" opacity="0.610000014" fill="rgb(212,172,136)" fill-rule="nonzero" />
    <path id="path" d="M5.45882 5.01386C5.57176 4.59055 5.92681 4.07051 6.24825 3.85861C6.5693 3.64632 6.57066 3.29847 6.24961 3.08638C5.92846 2.87409 5.55419 2.39562 5.41881 2.02348C5.28383 1.65135 5.0629 1.65135 4.9282 2.02348C4.79351 2.39562 4.42001 2.87322 4.09925 3.0855C3.77869 3.2974 3.77704 3.64535 4.0976 3.85774C4.41827 4.06964 4.77545 4.59074 4.88877 5.01386L4.96889 5.31296C5.08164 5.73637 5.26674 5.73637 5.37987 5.31296L5.45882 5.01386Z" fill="rgb(127,225,255)" fill-rule="nonzero" />
    <path id="path" d="M2.14577 12.539L0.76416 11.2537C0.76416 11.2537 0.980623 22.5005 11.8032 22.5005C22.9282 22.5005 23.348 10.7829 23.348 10.7829L21.8598 12.0538L20.5315 10.6923C20.5315 10.6923 20.4449 16.6025 16.1999 18.5766L11.8036 21.1333L8.20372 19.0026C8.20372 19.0026 3.35433 16.8152 3.35433 11.2537L2.14577 12.539Z" fill="rgb(255,158,158)" fill-rule="nonzero" />
    <path id="path" d="M3.35657 11.2691C3.3555 11.2104 3.35414 11.1515 3.35414 11.0918L2.55714 11.9395L2.64765 12.0234L3.35657 11.2691ZM21.3882 11.4083L20.5317 10.5302C20.5317 10.5302 20.5299 10.6496 20.5147 10.8602L21.2031 11.5663L21.3882 11.4083ZM22.5052 11.3404C22.1233 14.0317 20.2965 21.3995 11.7374 21.3995C3.36618 21.3995 1.73693 14.2517 1.422 11.7037L0.76416 11.0918C0.76416 11.0918 0.980623 22.3386 11.8032 22.3386C22.9282 22.3386 23.348 10.621 23.348 10.621L22.5052 11.3404Z" opacity="0.600000024" fill="rgb(222,137,137)" fill-rule="nonzero" />
    <path id="path" d="M0.84436 12.2375L1.72109 13.053L2.03175 12.7222L0.796387 11.5728C0.796387 11.5728 0.801436 11.8194 0.84436 12.2375ZM22.039 12.247L22.3302 12.5456L23.3311 11.6905C23.3722 11.3182 23.3802 11.1017 23.3802 11.1017L22.039 12.247ZM16.232 18.8958L11.8356 21.4525L8.23576 19.3218C8.23576 19.3218 3.38637 17.1344 3.38637 11.5729L2.98859 11.9959C3.15135 17.5981 8.05348 19.8103 8.05348 19.8103L11.8172 22.0379L16.4132 19.3652C20.303 17.5565 20.8531 12.587 20.9297 11.3864L20.5636 11.0115C20.5639 11.0113 20.4773 16.9218 16.232 18.8958Z" fill="rgb(255,186,186)" fill-rule="nonzero" />
    <path id="path" d="M11.8073 22.8814C6.01838 22.8814 3.21466 19.7067 1.88199 17.0435C0.45211 14.1862 0.382189 11.3722 0.379956 11.2539C0.379216 11.2158 0.383989 11.1783 0.394274 11.1416C0.404559 11.1049 0.41992 11.0704 0.440357 11.0382C0.460793 11.006 0.485437 10.9774 0.514289 10.9525C0.543142 10.9276 0.574977 10.9073 0.609795 10.8917C0.644613 10.8762 0.680936 10.866 0.718763 10.8611C0.75659 10.8562 0.794316 10.8569 0.83194 10.8632C0.869564 10.8694 0.905489 10.8809 0.939715 10.8978C0.973942 10.9146 1.00502 10.936 1.03294 10.962L2.13176 11.9842L3.0753 10.9804C3.10194 10.952 3.13218 10.9282 3.166 10.9089C3.19982 10.8895 3.23573 10.8756 3.27374 10.8671C3.31174 10.8586 3.35016 10.8559 3.38898 10.859C3.4278 10.862 3.46532 10.8707 3.50152 10.8851C3.53773 10.8994 3.57102 10.9188 3.6014 10.9432C3.63178 10.9675 3.6579 10.9958 3.67977 11.0281C3.70163 11.0603 3.71827 11.095 3.72968 11.1322C3.7411 11.1695 3.74678 11.2076 3.74673 11.2465C3.74673 16.4961 8.3211 18.6206 8.36742 18.6413C8.38044 18.6472 8.39316 18.6538 8.40549 18.6611L11.8093 20.6754L16.0087 18.2333C16.0189 18.2273 16.0295 18.222 16.0402 18.2169C20.0183 16.3672 20.1463 10.7358 20.1471 10.6792C20.1477 10.6408 20.1538 10.6033 20.1654 10.5667C20.1771 10.5302 20.1938 10.4961 20.2156 10.4644C20.2373 10.4328 20.2632 10.405 20.2932 10.3811C20.3232 10.3571 20.3561 10.3381 20.3917 10.3239C20.4274 10.3096 20.4644 10.3009 20.5026 10.2977C20.5409 10.2944 20.5788 10.2968 20.6163 10.3048C20.6539 10.3127 20.6895 10.326 20.7231 10.3445C20.7567 10.3631 20.7869 10.3861 20.8137 10.4136L21.8881 11.5148L23.0998 10.4799C23.1285 10.4554 23.16 10.4355 23.1945 10.4202C23.229 10.405 23.2649 10.3949 23.3023 10.3901C23.3397 10.3852 23.377 10.3858 23.4142 10.3919C23.4514 10.3979 23.487 10.4091 23.521 10.4255C23.5549 10.4419 23.5858 10.4628 23.6137 10.4882C23.6416 10.5136 23.6652 10.5424 23.6847 10.5747C23.7042 10.607 23.7186 10.6414 23.7281 10.6778C23.7375 10.7143 23.7416 10.7514 23.7403 10.7891C23.7359 10.9122 23.6149 13.8387 22.0976 16.8106C20.6837 19.5802 17.7507 22.8814 11.8073 22.8814ZM1.24454 12.22C1.3806 13.265 1.72438 15.0017 2.58819 16.7186C4.38612 20.2925 7.48788 22.1045 11.8073 22.1045C16.2633 22.1045 19.4926 20.2046 21.4056 16.4575C22.3434 14.6207 22.7201 12.7721 22.8692 11.6986L22.1162 12.3417C22.0787 12.3737 22.0366 12.3977 21.99 12.4137C21.9434 12.4297 21.8955 12.4366 21.8462 12.4344C21.797 12.4321 21.7499 12.4209 21.7049 12.4007C21.6599 12.3806 21.6202 12.3528 21.5858 12.3176L20.8561 11.5698C20.7843 12.1813 20.6361 13.0543 20.3315 14.0053C19.5773 16.3604 18.2125 18.0574 16.384 18.9138L12.0028 21.4616C11.942 21.497 11.8764 21.5146 11.806 21.5143C11.7357 21.514 11.6702 21.496 11.6097 21.4601L8.02666 19.3397C7.85011 19.2568 6.68107 18.6826 5.50495 17.4777C4.47226 16.4197 3.26253 14.6775 3.01529 12.1785L2.4331 12.7978C2.41569 12.8163 2.39665 12.833 2.37598 12.8478C2.3553 12.8626 2.33338 12.8752 2.31022 12.8857C2.28706 12.8962 2.26309 12.9043 2.23834 12.9101C2.21358 12.9159 2.18849 12.9192 2.16308 12.92C2.13767 12.9209 2.11242 12.9193 2.08733 12.9151C2.06224 12.911 2.03779 12.9045 2.01398 12.8956C1.99017 12.8867 1.96745 12.8756 1.94583 12.8622C1.9242 12.8488 1.90409 12.8335 1.88548 12.8161L1.24454 12.22Z" fill="rgb(110,110,150)" fill-rule="nonzero" />
    <path id="path" d="M16.8631 21.347C16.917 21.3186 16.9675 21.2851 17.0147 21.2466C17.062 21.2081 17.1049 21.1652 17.1435 21.1181C17.1821 21.071 17.2157 21.0205 17.2442 20.9667C17.2727 20.9128 17.2956 20.8567 17.3129 20.7982C17.3302 20.7398 17.3415 20.6802 17.3468 20.6195C17.3522 20.5588 17.3514 20.4982 17.3446 20.4377C17.3378 20.3771 17.3251 20.3178 17.3064 20.2598C17.2877 20.2018 17.2635 20.1463 17.2336 20.0931L16.7467 19.2213C16.7171 19.1679 16.6824 19.1181 16.6428 19.0716C16.6032 19.0252 16.5593 18.9832 16.5113 18.9455C16.4633 18.9079 16.412 18.8753 16.3575 18.8479C16.303 18.8205 16.2463 18.7987 16.1874 18.7826C16.1285 18.7665 16.0687 18.7564 16.0078 18.7522C15.9469 18.7481 15.8862 18.75 15.8257 18.758C15.7652 18.766 15.7061 18.7799 15.6483 18.7996C15.5906 18.8194 15.5354 18.8447 15.4827 18.8755C15.4827 18.8755 14.3323 19.9568 11.9968 19.9568C10.666 19.9568 9.23248 19.2934 9.23248 19.2934C8.76547 19.0773 8.17551 19.2671 7.92127 19.7138L7.4429 20.5552C7.18876 21.0024 7.36443 21.5405 7.83407 21.7509C7.83407 21.7509 9.2822 22.791 11.9962 22.791C15.1103 22.7914 16.8631 21.347 16.8631 21.347Z" fill="rgb(255,229,135)" fill-rule="nonzero" />
    <path id="path" d="M16.9926 20.214C16.9926 20.214 15.2398 21.6584 12.1265 21.6584C9.4125 21.6584 7.96465 20.6184 7.96465 20.6184C7.79004 20.5399 7.65642 20.417 7.57009 20.2699C7.3206 20.7161 7.49677 21.2505 7.96465 21.46C7.96465 21.46 9.4125 22.5001 12.1265 22.5001C15.2401 22.5001 16.9926 21.0557 16.9926 21.0557C17.0453 21.0278 17.0949 20.9951 17.1412 20.9576C17.1876 20.92 17.2298 20.8783 17.268 20.8325C17.3062 20.7866 17.3395 20.7375 17.368 20.6851C17.3966 20.6328 17.4197 20.5781 17.4376 20.5212C17.4554 20.4642 17.4675 20.4061 17.4739 20.3468C17.4803 20.2875 17.4809 20.2282 17.4757 20.1687C17.4704 20.1093 17.4595 20.051 17.4428 19.9937C17.4261 19.9364 17.404 19.8813 17.3766 19.8284C17.2888 19.997 17.1608 20.1255 16.9926 20.214Z" opacity="0.610000014" fill="rgb(212,172,136)" fill-rule="nonzero" />
    <path id="path" d="M12.0019 23.1723L12.0015 22.7839L12.0019 23.1723C9.38686 23.1723 7.88871 22.2456 7.64525 22.0822C7.33469 21.9325 7.10715 21.6758 7.00237 21.3558C6.8937 21.024 6.93177 20.669 7.10958 20.3561L7.58795 19.5147C7.83588 19.0791 8.30959 18.8086 8.82448 18.8086C9.02677 18.8086 9.22041 18.8508 9.40006 18.934C9.41327 18.9401 10.7747 19.5613 12.0011 19.5613C14.1352 19.5613 15.212 18.5936 15.2227 18.5839C15.2433 18.565 15.2674 18.5469 15.2916 18.5328C15.4948 18.4142 15.7141 18.3548 15.9494 18.3545C16.4223 18.3545 16.8595 18.6114 17.0903 19.0249L17.5772 19.8965C17.6633 20.0495 17.7161 20.2132 17.7357 20.3876C17.7552 20.562 17.7398 20.7334 17.6896 20.9015C17.6423 21.0634 17.5661 21.2103 17.4612 21.3423C17.3562 21.4743 17.2303 21.5816 17.0833 21.6643C16.8208 21.869 15.0296 23.1723 12.0019 23.1723ZM8.82448 19.5856C8.5918 19.5856 8.37155 19.7086 8.26327 19.899L7.78499 20.7401C7.71682 20.8601 7.70109 20.993 7.74071 21.1142C7.78033 21.2353 7.87152 21.333 7.99738 21.3894C8.02127 21.4001 8.04389 21.4131 8.06516 21.4284C8.07769 21.4373 9.46212 22.3955 12.0006 22.3955C14.9407 22.3956 16.6038 21.0536 16.6203 21.04C16.6405 21.0233 16.6625 21.0088 16.6857 20.9965C16.7485 20.9637 16.8024 20.92 16.8473 20.8652C16.8923 20.8105 16.9248 20.7492 16.9448 20.6812C16.965 20.6132 16.9711 20.544 16.9631 20.4735C16.9551 20.403 16.9337 20.3369 16.8989 20.2752L16.412 19.4035C16.3891 19.3623 16.3611 19.3248 16.3281 19.2911C16.2951 19.2573 16.2583 19.2285 16.2177 19.2046C16.177 19.1807 16.1339 19.1625 16.0884 19.1501C16.0429 19.1376 15.9966 19.1314 15.9494 19.1313C15.8672 19.1313 15.7857 19.1509 15.7117 19.1883C15.4729 19.3923 14.2447 20.3382 12.0011 20.3382C10.601 20.3382 9.13543 19.6675 9.07367 19.639C8.99456 19.6028 8.9115 19.5849 8.82448 19.5856Z" fill="rgb(110,110,150)" fill-rule="nonzero" />
    <path id="path" d="M14.5931 9.99899C14.5931 9.99899 14.2139 9.06021 16.0179 8.97397C17.1205 8.92115 17.3472 10.6283 17.0776 12.3739C16.7553 14.4626 15.9943 15.1095 13.6443 14.3372" fill="rgb(168,225,255)" fill-rule="nonzero" />
    <path id="path" d="M15.234 15.0414C14.7639 15.0414 14.2036 14.93 13.523 14.7063C13.4988 14.6983 13.4756 14.6881 13.4534 14.6755C13.4311 14.663 13.4104 14.6484 13.391 14.6318C13.3717 14.6151 13.3542 14.5968 13.3384 14.5767C13.3227 14.5566 13.3091 14.5352 13.2976 14.5124C13.2861 14.4897 13.2769 14.466 13.2701 14.4414C13.2632 14.4168 13.2589 14.3918 13.257 14.3664C13.255 14.341 13.2556 14.3156 13.2587 14.2903C13.2618 14.265 13.2673 14.2402 13.2753 14.216C13.2832 14.1917 13.2935 14.1685 13.306 14.1463C13.3185 14.1241 13.3331 14.1033 13.3497 14.0839C13.3664 14.0646 13.3847 14.047 13.4048 14.0313C13.4249 14.0156 13.4463 14.002 13.4691 13.9905C13.4919 13.979 13.5155 13.9698 13.5401 13.963C13.5647 13.9561 13.5897 13.9517 13.6151 13.9498C13.6406 13.9479 13.666 13.9485 13.6913 13.9516C13.7166 13.9547 13.7414 13.9602 13.7656 13.9682C14.8153 14.3132 15.4969 14.3556 15.911 14.1019C16.2982 13.8644 16.5397 13.3132 16.6938 12.3147C16.8931 11.0241 16.7852 9.9272 16.4191 9.5203C16.3137 9.40328 16.1959 9.35424 16.0367 9.3622C15.2376 9.40036 15.03 9.61498 14.9853 9.67985C14.9271 9.76444 14.9542 9.85417 14.9575 9.86417L14.9535 9.85378L14.2331 10.1447C14.2146 10.0988 14.0598 9.68442 14.3268 9.26742C14.5904 8.85586 15.1531 8.62667 15.9996 8.58618C16.3916 8.56695 16.7358 8.71077 16.9967 9.00065C17.7634 9.85252 17.5773 11.685 17.4618 12.4334C17.3325 13.2712 17.0856 14.2932 16.3173 14.7644C16.0159 14.9488 15.6624 15.0414 15.234 15.0414Z" fill="rgb(110,110,150)" fill-rule="nonzero" />
    <path id="path" d="M10.1233 8.73664C10.0153 9.26979 9.30724 9.23065 8.99007 9.13937C8.99007 9.13937 5.92851 8.2977 7.24603 12.5175C8.33485 16.0056 12.4067 14.3293 13.4516 14.3293C14.8722 14.3293 14.8407 10.8696 14.593 9.99833C14.3116 9.00924 13.7451 8.17252 13.0143 7.8236C12.2838 7.47438 11.3861 7.02223 11.1388 5.27042C10.9954 4.25619 9.47204 4.70193 9.47204 6.35381C9.47223 7.18955 10.1856 8.42909 10.1233 8.73664Z" fill="rgb(255,223,209)" fill-rule="nonzero" />
    <path id="path" d="M11.055 5.52656C11.0365 5.39351 10.9932 5.2863 10.9335 5.20288C10.9719 5.38329 11.0237 5.55977 11.0889 5.73234C11.076 5.66399 11.0647 5.5954 11.055 5.52656ZM14.509 10.2545C14.4049 9.88854 14.2616 9.54399 14.0855 9.23672C14.0892 9.24915 14.0933 9.26139 14.0969 9.27392C14.3282 10.0872 14.3579 13.3174 13.0312 13.3174C12.0556 13.3174 8.25396 14.8822 7.23729 11.6256C7.06443 11.072 6.97227 10.6119 6.94168 10.2296C6.7661 10.7457 6.77805 11.5448 7.16203 12.7736C8.25085 16.2617 12.323 14.5856 13.3676 14.5856C14.7883 14.5852 14.7568 11.1255 14.509 10.2545ZM9.9237 8.09527C9.96935 7.87016 9.57099 7.11074 9.3959 6.41746C9.39124 6.4802 9.38784 6.54371 9.38784 6.61013C9.38784 7.11793 9.6516 7.77441 9.84407 8.28094C9.88388 8.22474 9.91042 8.16285 9.9237 8.09527Z" opacity="0.529999971" fill="rgb(227,187,170)" fill-rule="nonzero" />
    <path id="path" d="M8.9417 10.2076C9.25887 10.2987 10.6467 9.85245 10.7547 9.3193C10.8173 9.01175 10.1036 7.77221 10.1035 6.93714C10.1035 5.28488 10.9472 5.32469 11.0904 6.33922C11.338 8.09103 12.2355 8.54338 12.9659 8.8924C13.6964 9.24132 14.263 10.078 14.5446 11.0671C14.5992 11.2593 14.6432 11.5775 14.6636 11.9567C14.7029 11.1991 14.64 10.4799 14.5446 10.1446C14.2633 9.15547 13.6967 8.31876 12.9659 7.96983C12.2355 7.62081 11.3377 7.16846 11.0904 5.41666C10.9471 4.40242 9.42367 4.84817 9.42367 6.50014C9.42386 7.3355 10.1375 8.57474 10.0749 8.8823C9.96692 9.41544 9.25887 9.37631 8.9417 9.28502C8.9417 9.28502 6.56945 8.6334 6.9006 11.3565C7.16232 9.71872 8.9417 10.2076 8.9417 10.2076Z" fill="rgb(255,232,222)" fill-rule="nonzero" />
    <path id="path" d="M10.4417 15.1204C8.59037 15.1204 7.39045 14.2837 6.87527 12.6334C6.39933 11.1088 6.40952 10.0392 6.90654 9.36335C7.2341 8.91799 7.75598 8.68259 8.41576 8.68259C8.78294 8.68259 9.06243 8.75649 9.09302 8.76494C9.18343 8.79097 9.2953 8.80563 9.39679 8.80563C9.53294 8.80563 9.69832 8.7831 9.73707 8.679C9.72163 8.57188 9.6116 8.28414 9.53012 8.07088C9.33124 7.55065 9.08379 6.90311 9.0836 6.35413C9.0836 5.63123 9.33318 5.16606 9.54255 4.90318C9.82622 4.54698 10.2066 4.34265 10.5863 4.34265C11.0806 4.34265 11.4485 4.68565 11.5234 5.21637C11.7452 6.78667 12.5085 7.15152 13.1819 7.47345C13.9883 7.8585 14.6389 8.74018 14.9667 9.89232C15.1589 10.5683 15.2839 13.0928 14.462 14.181C14.1966 14.5323 13.8472 14.718 13.4518 14.718C13.2903 14.718 12.9887 14.7774 12.6397 14.8463C12.0196 14.9684 11.2481 15.1204 10.4417 15.1204ZM8.41576 9.45949C8.00731 9.45949 7.71014 9.58204 7.53243 9.82366C7.30169 10.1374 7.12902 10.8394 7.61692 12.4018C8.03042 13.7266 8.92803 14.3435 10.4417 14.3435C11.1723 14.3435 11.9025 14.1996 12.4891 14.084C12.8943 14.004 13.2143 13.9409 13.4516 13.9409C13.5451 13.9409 13.6873 13.9172 13.8419 13.7125C14.4309 12.9327 14.4108 10.7782 14.2194 10.1046C13.9566 9.18068 13.4435 8.45904 12.847 8.1743C12.125 7.82917 11.0342 7.30777 10.7542 5.32494C10.7252 5.11945 10.6314 5.11945 10.5863 5.11945C10.3411 5.11945 9.8605 5.49226 9.8605 6.35403C9.86059 6.75957 10.0797 7.33283 10.2558 7.79353C10.4567 8.319 10.5512 8.58179 10.504 8.81398C10.4065 9.29517 9.99257 9.58262 9.39679 9.58262C9.2216 9.58262 9.03903 9.55786 8.88268 9.5129C8.88238 9.5127 8.67709 9.45949 8.41576 9.45949Z" fill="rgb(110,110,150)" fill-rule="nonzero" />
    <path id="path" d="M14.5115 13.0084C14.5115 13.0084 16.9877 13.3066 17.0777 12.4711C17.0777 12.4711 16.7821 14.5727 15.8532 14.6522C14.9246 14.732 14.0422 14.5555 14.0422 14.5555L14.5115 13.0084Z" opacity="0.150000006" fill="rgb(110,110,150)" fill-rule="nonzero" />
</svg>
