<svg viewBox="0 0 14 14" xmlns="http://www.w3.org/2000/svg" xmlns:xlink="http://www.w3.org/1999/xlink" width="14" height="14" fill="none">
    <rect id="svg" width="14" height="14" x="0" y="0" />
    <path id="path" d="M2.72061 7.78438C2.92158 7.78438 3.08428 7.59844 3.08428 7.36875C3.08428 7.13906 2.92158 6.95312 2.72061 6.95312C2.51963 6.95312 2.35693 7.13906 2.35693 7.36875C2.35693 7.59844 2.51963 7.78438 2.72061 7.78438Z" fill="rgb(0,0,0)" fill-rule="nonzero" />
    <path id="path" d="M12.3128 6.09844L12.1953 6.09844L12.1953 4.25625C12.1953 3.21406 11.4542 2.36719 10.5423 2.36719L2.53062 2.36719C1.6187 2.36719 0.877686 3.21406 0.877686 4.25625L0.877686 11.8109C0.877686 12.8531 1.6187 13.7 2.53062 13.7L10.541 13.7C11.4529 13.7 12.1939 12.8531 12.1939 11.8109L12.1939 9.96719L12.3115 9.96719C12.7544 9.96563 13.114 9.55469 13.114 9.04844L13.114 7.01719C13.1154 6.51094 12.7558 6.1 12.3128 6.09844ZM11.5445 11.8109C11.5445 12.4422 11.0947 12.9563 10.5423 12.9563L2.53062 12.9563C1.97827 12.9563 1.52847 12.4422 1.52847 11.8109L1.52847 4.25625C1.52847 3.625 1.97827 3.11094 2.53062 3.11094L10.541 3.11094C11.0933 3.11094 11.5431 3.625 11.5431 4.25625L11.5431 6.09844L7.05054 6.09844C6.60757 6.1 6.248 6.51094 6.248 7.01719L6.248 9.05C6.248 9.55469 6.60894 9.96719 7.05054 9.96875L11.5445 9.96875L11.5445 11.8109ZM12.563 9.075C12.563 9.23281 12.4509 9.36094 12.3128 9.36094L7.05054 9.36094C6.91245 9.36094 6.80034 9.23281 6.80034 9.075L6.80034 7.04063C6.80034 6.88281 6.91245 6.75469 7.05054 6.75469L12.3128 6.75469C12.4509 6.75469 12.563 6.88281 12.563 7.04063L12.563 9.075Z" fill="rgb(0,0,0)" fill-rule="nonzero" />
    <path id="path" d="M12.3128 6.75464L7.05049 6.75464C6.9124 6.75464 6.80029 6.88276 6.80029 7.04058L6.80029 9.07339C6.80029 9.2312 6.9124 9.35933 7.05049 9.35933L12.3128 9.35933C12.4509 9.35933 12.563 9.2312 12.563 9.07339L12.563 7.04058C12.563 6.88276 12.4509 6.75464 12.3128 6.75464ZM8.17295 8.85776C7.7874 8.85776 7.47295 8.49839 7.47295 8.05776C7.47295 7.61558 7.78604 7.25776 8.17295 7.25776C8.5585 7.25776 8.87295 7.61714 8.87295 8.05776C8.87432 8.49839 8.55986 8.85776 8.17295 8.85776Z" fill="rgb(255,213,36)" fill-rule="nonzero" />
    <path id="path" d="M8.17285 7.74536C8.02246 7.74536 7.89941 7.88599 7.89941 8.05786C7.89941 8.2313 8.02246 8.37036 8.17285 8.37036C8.32461 8.37036 8.44629 8.22974 8.44629 8.05786C8.44766 7.88599 8.32461 7.74536 8.17285 7.74536Z" fill="rgb(255,213,36)" fill-rule="nonzero" />
    <path id="path" d="M8.17305 7.25781C7.78613 7.25781 7.47305 7.61719 7.47305 8.05781C7.47305 8.5 7.7875 8.85781 8.17305 8.85781C8.55859 8.85781 8.87305 8.49844 8.87305 8.05781C8.87441 7.61719 8.55996 7.25781 8.17305 7.25781ZM8.17305 8.37031C8.02129 8.37031 7.89961 8.22969 7.89961 8.05781C7.89961 7.88438 8.02266 7.74531 8.17305 7.74531C8.3248 7.74531 8.44648 7.88594 8.44648 8.05781C8.44785 8.23125 8.3248 8.37031 8.17305 8.37031ZM4.42969 11.5063L3.5957 11.5063C3.10762 11.5063 2.9873 11.3703 2.9873 10.8109L2.9873 8.36875L2.9873 8.35469L2.98457 8.35469C2.97773 8.17656 2.85195 8.03281 2.69336 8.03281C2.53613 8.03281 2.40898 8.17656 2.40215 8.35469L2.39941 8.35469L2.39941 10.8109C2.39941 11.7422 2.77949 12.1766 3.59434 12.1766L4.42832 12.1766C4.58965 12.1766 4.7209 12.0266 4.7209 11.8422C4.72363 11.6562 4.59238 11.5063 4.42969 11.5063Z" fill="rgb(0,0,0)" fill-rule="nonzero" />
</svg>
