<svg viewBox="0 0 24.3093 24" xmlns="http://www.w3.org/2000/svg" xmlns:xlink="http://www.w3.org/1999/xlink" width="24.309326" height="24.000000" fill="none">
    <rect id="svg" width="24.309280" height="24.000000" x="0.000000" y="0.000000" />
    <path id="path" d="M2.67065 15.2345L15.547 2.52197C15.7915 2.28057 16.1191 2.14697 16.4704 2.14697C16.8218 2.14697 17.1494 2.28057 17.3939 2.52197L21.7572 6.82978C22.0018 7.07119 22.1371 7.39463 22.1371 7.7415C22.1371 8.08838 22.0018 8.41182 21.7572 8.65322L8.88092 21.3657L2.67065 15.2345Z" fill="rgb(255,204,114)" fill-rule="nonzero" />
    <path id="path" d="M16.4681 2.73291C16.6604 2.73291 16.8385 2.80557 16.9714 2.93682L21.3347 7.24463C21.4677 7.37588 21.5413 7.55166 21.5413 7.7415C21.5413 7.93135 21.4677 8.10713 21.3347 8.23838L8.88096 20.5384L3.50871 15.2345L15.9648 2.93682C16.0978 2.80557 16.2782 2.73291 16.4681 2.73291ZM16.4681 1.56104C15.9815 1.56104 15.4948 1.74385 15.1245 2.10713L1.83032 15.2321L8.88096 22.1931L22.1751 9.06807C22.9134 8.33916 22.9134 7.14619 22.1751 6.41729L17.8118 2.10947C17.4414 1.74385 16.9548 1.56104 16.4681 1.56104Z" fill="rgb(58,54,68)" fill-rule="nonzero" />
    <path id="path" d="M13.23 4.80947L15.547 2.52197C15.7915 2.28057 16.1191 2.14697 16.4704 2.14697C16.8218 2.14697 17.1494 2.28057 17.3939 2.52197L21.7572 6.82979C22.0017 7.07119 22.1371 7.39463 22.1371 7.7415C22.1371 8.08838 22.0017 8.41182 21.7572 8.65322L19.4402 10.9407L13.23 4.80947Z" fill="rgb(249,83,96)" fill-rule="nonzero" />
    <path id="path" d="M16.4681 2.73291C16.6604 2.73291 16.8384 2.80557 16.9714 2.93682L21.3347 7.24463C21.4676 7.37588 21.5412 7.55166 21.5412 7.7415C21.5412 7.93135 21.4676 8.10713 21.3347 8.23838L19.4379 10.111L14.068 4.80947L15.9648 2.93682C16.0978 2.80557 16.2782 2.73291 16.4681 2.73291ZM16.4681 1.56104C15.9814 1.56104 15.4948 1.74385 15.1244 2.10713L12.3896 4.80947L19.4403 11.7704L22.1751 9.07041C22.9134 8.3415 22.9134 7.14854 22.1751 6.41963L17.8118 2.10947C17.4414 1.74385 16.9548 1.56104 16.4681 1.56104Z" fill="rgb(58,54,68)" fill-rule="nonzero" />
    <path id="path" d="M13.8165 6.21802L14.6569 7.0477L4.94267 16.6383L4.10229 15.8086L13.8165 6.21802ZM5.78068 17.4657L6.62106 18.2954L16.3353 8.70474L15.4949 7.87505L5.78068 17.4657ZM17.1733 9.53442L7.45906 19.1227L8.29944 19.9524L18.0137 10.3618L17.1733 9.53442Z" fill="rgb(237,157,41)" fill-rule="nonzero" />
    <path id="path" d="M14.7437 4.14453L20.1153 9.44781L19.4439 10.1107L14.0723 4.80744L14.7437 4.14453Z" fill="rgb(237,50,72)" fill-rule="nonzero" />
    <path id="path" d="M13.2276 5.63843L18.5992 10.9417L17.9277 11.6046L12.5562 6.30133L13.2276 5.63843Z" fill="rgb(168,119,41)" fill-rule="nonzero" />
    <path id="path" d="M2.41675 15.4852L2.67552 15.2297L8.87628 21.3493L8.61515 21.6071L2.1936 21.8251L2.41675 15.4852Z" fill="rgb(229,229,229)" fill-rule="nonzero" />
    <path id="path" d="M2.97925 16.3569L7.7319 21.0491L2.80832 21.2155L2.97925 16.3569ZM2.67538 14.3999L1.83025 15.2343L1.57861 22.4319L8.86902 22.1835L9.71415 21.3491L2.67538 14.3999Z" fill="rgb(58,54,68)" fill-rule="nonzero" />
    <path id="path" d="M2.26711 20.5266L3.52056 21.7641L2.20776 21.8227L2.26711 20.5266Z" fill="rgb(229,229,229)" fill-rule="nonzero" />
    <path id="path" d="M1.73525 19.1743L1.58569 22.4392L4.89261 22.2892L1.73525 19.1743Z" fill="rgb(58,54,68)" fill-rule="nonzero" />
    <path id="path" d="M7.74372 21.0563L3.74599 21.1571L3.38989 20.8055L6.18641 19.5188L7.74372 21.0563Z" fill="rgb(191,191,191)" fill-rule="nonzero" />
</svg>
