<svg viewBox="0 0 32.4124 32" xmlns="http://www.w3.org/2000/svg" xmlns:xlink="http://www.w3.org/1999/xlink" width="32.412354" height="32.000000" fill="none">
    <rect id="svg" width="32.412373" height="32.000000" x="0.000000" y="0.000000" />
    <path id="path" d="M24.4616 14.1296C24.05 15.2048 23.3823 16.3632 22.3435 17.5488C22.4537 18.3936 22.5347 20.2288 21.517 21.8176C20.7245 23.0528 19.462 23.864 17.762 24.2304C17.7004 24.2448 17.6372 24.2512 17.574 24.2512C17.3277 24.2512 17.0911 24.1488 16.9209 23.9648C16.8688 23.9079 16.8251 23.8453 16.7898 23.777C16.7545 23.7087 16.7288 23.637 16.7127 23.562C16.6966 23.487 16.6907 23.4111 16.695 23.3346C16.6992 23.258 16.7135 23.1833 16.7378 23.1104C16.7426 23.0992 17.0862 22.0224 17.01 20.696L16.3569 20.8096L15.3959 20.976L14.5694 21.12C14.2858 21.1696 13.9973 21.08 13.7947 20.88L11.0364 18.1568C10.9351 18.0566 10.863 17.9389 10.8201 17.8038C10.7771 17.6687 10.7682 17.5314 10.7933 17.392L10.9522 16.5024L11.124 15.5344L11.2228 14.9808C9.87122 14.9024 8.79026 15.2464 8.7773 15.2512C8.62496 15.3008 8.46452 15.3072 8.3138 15.272C8.16632 15.2416 8.02857 15.1728 7.91189 15.0704C7.67852 14.8608 7.57318 14.544 7.64124 14.24C7.79196 13.5616 8.01561 12.9536 8.3138 12.4192C8.74813 11.6304 9.34127 10.9984 10.0868 10.5328C11.696 9.52802 13.5549 9.60802 14.4106 9.71682C15.558 8.73602 16.6794 8.09282 17.728 7.68322C21.2269 6.31202 23.9123 7.54882 24.0581 7.61922C24.0759 7.62722 24.0905 7.63682 24.1067 7.64482C24.1132 7.64802 24.1197 7.65122 24.1246 7.65442C24.1408 7.66402 24.157 7.67522 24.1732 7.68642C24.1813 7.69122 24.1894 7.69602 24.1975 7.70242C24.2121 7.71362 24.2267 7.72322 24.2396 7.73442C24.2477 7.74242 24.2574 7.74882 24.2655 7.75682C24.2769 7.76802 24.2899 7.77922 24.3012 7.79202C24.3093 7.80002 24.319 7.80802 24.3271 7.81762C24.3369 7.82882 24.3482 7.84162 24.3579 7.85442C24.3676 7.86402 24.3741 7.87202 24.3822 7.88322C24.392 7.89602 24.4001 7.91042 24.4114 7.92482C24.4163 7.93282 24.4244 7.94402 24.4309 7.95362C24.439 7.96962 24.4471 7.98402 24.4568 8.00002C24.46 8.00962 24.4633 8.01442 24.4681 8.02402C24.4697 8.02562 24.473 8.03202 24.4762 8.03842C24.5994 8.29922 25.7241 10.832 24.4616 14.1296Z" fill="rgb(246,187,66)" fill-rule="nonzero" />
    <path id="path" d="M17.5741 24.4112C17.2824 24.4112 17.0004 24.288 16.8011 24.072C16.7394 24.0045 16.6877 23.9303 16.6459 23.8493C16.6042 23.7683 16.5737 23.6834 16.5547 23.5944C16.5356 23.5055 16.5286 23.4157 16.5335 23.3249C16.5385 23.2342 16.5553 23.1456 16.5839 23.0592C16.5872 23.048 16.8918 22.0864 16.8562 20.8848L14.597 21.2768C14.2616 21.336 13.9196 21.2288 13.6798 20.992L10.9215 18.2688C10.8013 18.1502 10.7158 18.0109 10.6648 17.8509C10.6139 17.6909 10.6033 17.5284 10.633 17.3632L11.0301 15.1312C9.8 15.0912 8.83898 15.3984 8.82925 15.4016C8.64774 15.4608 8.45651 15.4688 8.275 15.4272C8.09648 15.3889 7.93928 15.3094 7.8034 15.1888C7.52465 14.9376 7.40149 14.5616 7.48252 14.2048C7.63648 13.512 7.86823 12.8848 8.17128 12.3408C8.61857 11.5296 9.23279 10.8752 9.99934 10.3968C11.5843 9.40644 13.3816 9.43364 14.3588 9.54884C15.4106 8.65924 16.5239 7.98084 17.6681 7.53444C21.261 6.12644 24.0144 7.41924 24.1295 7.47524C24.1409 7.48004 24.1538 7.48804 24.1668 7.49444L24.2981 7.57764C24.3207 7.59524 24.3337 7.60324 24.3451 7.61444C24.3629 7.62884 24.371 7.63684 24.3791 7.64324C24.4002 7.66244 24.4115 7.67364 24.4212 7.68644C24.4293 7.69284 24.4407 7.70404 24.4504 7.71524C24.4601 7.72804 24.4715 7.73924 24.4796 7.75044C24.4925 7.76324 24.5006 7.77444 24.5136 7.79044C24.5185 7.79684 24.5233 7.80484 24.5298 7.81444L24.5752 7.88324C24.5817 7.89604 24.5865 7.90564 24.5946 7.91844L24.6076 7.94564C24.6125 7.95204 24.6157 7.96004 24.6189 7.96484L24.6368 8.00484C24.8199 8.40644 25.8571 10.9376 24.6125 14.1888C24.1619 15.368 23.4553 16.5152 22.5121 17.6016C22.6288 18.5648 22.6547 20.3408 21.6532 21.9056C20.8364 23.1776 19.5399 24.0128 17.7961 24.3888C17.7281 24.4032 17.6519 24.4112 17.5741 24.4112ZM17.1609 20.5072L17.1706 20.6864C17.25 22.0608 16.8902 23.1632 16.887 23.1712C16.8108 23.4016 16.8675 23.6672 17.0409 23.856C17.1787 24.0048 17.3732 24.0896 17.5741 24.0896C17.6276 24.0896 17.6778 24.0848 17.7248 24.0736C19.3827 23.7168 20.6128 22.928 21.3809 21.7312C22.3533 20.2128 22.3015 18.4704 22.1831 17.568L22.1734 17.4976L22.2204 17.4432C23.162 16.3696 23.8637 15.2352 24.3094 14.072C25.5411 10.856 24.4617 8.38884 24.3305 8.10884L24.324 8.09444C24.3191 8.08484 24.3143 8.07684 24.311 8.06884C24.3045 8.05764 24.2981 8.04484 24.2916 8.03364C24.2867 8.02564 24.2819 8.01924 24.2786 8.01444C24.2721 8.00484 24.2656 7.99524 24.2592 7.98724L24.2284 7.94884L24.2089 7.92484L24.1879 7.90404C24.1765 7.89124 24.1716 7.88644 24.1668 7.88164L24.1522 7.86884C24.1425 7.86084 24.1344 7.85444 24.1263 7.84644C24.1279 7.84804 24.1247 7.84644 24.1182 7.84164L24.0809 7.81604C24.0679 7.80644 24.055 7.79684 24.0404 7.78884C24.0242 7.78084 24.0161 7.77604 24.0063 7.77124L23.9901 7.76324C23.8751 7.70884 21.2481 6.47364 17.7864 7.83044C16.6568 8.27204 15.5564 8.94724 14.516 9.83684L14.4609 9.88324L14.3896 9.87364C13.4756 9.75684 11.7123 9.70564 10.1727 10.6656C9.45319 11.1152 8.87625 11.7296 8.45489 12.4928C8.16642 13.0096 7.94602 13.608 7.79854 14.272C7.74344 14.5184 7.82771 14.7776 8.02057 14.9504C8.11294 15.032 8.22638 15.0896 8.34631 15.1136C8.47272 15.1424 8.60399 15.1376 8.72553 15.0976C8.72878 15.096 9.84538 14.7392 11.231 14.8192L11.4125 14.8304L10.9523 17.4192C10.9318 17.5329 10.939 17.6449 10.9739 17.7551C11.0088 17.8653 11.0675 17.9613 11.15 18.0432L13.9083 20.7664C13.9912 20.8479 14.0885 20.9058 14.2001 20.9403C14.3118 20.9748 14.4252 20.9819 14.5403 20.9616L17.1609 20.5072Z" fill="rgb(65,61,44)" fill-rule="nonzero" />
    <path id="path" d="M9.08361 23.664C8.85835 23.664 8.63308 23.5792 8.4613 23.4096C8.42044 23.3692 8.38397 23.3252 8.35187 23.2777C8.31978 23.2302 8.29268 23.18 8.27058 23.1273C8.24847 23.0745 8.23178 23.0201 8.22052 22.9641C8.20925 22.9081 8.20361 22.8515 8.20361 22.7944C8.20361 22.7373 8.20925 22.6807 8.22052 22.6247C8.23178 22.5687 8.24847 22.5143 8.27058 22.4615C8.29268 22.4088 8.31978 22.3586 8.35187 22.3111C8.38397 22.2636 8.42044 22.2196 8.4613 22.1792L10.667 20C10.7079 19.9597 10.7524 19.9237 10.8006 19.892C10.8487 19.8603 10.8995 19.8335 10.9529 19.8117C11.0064 19.7899 11.0615 19.7734 11.1182 19.7623C11.175 19.7512 11.2322 19.7456 11.2901 19.7456C11.3479 19.7456 11.4052 19.7512 11.462 19.7623C11.5187 19.7734 11.5738 19.7899 11.6272 19.8117C11.6807 19.8335 11.7315 19.8603 11.7796 19.892C11.8277 19.9237 11.8723 19.9597 11.9132 20C11.9541 20.0404 11.9905 20.0844 12.0226 20.1319C12.0547 20.1794 12.0818 20.2296 12.1039 20.2823C12.126 20.3351 12.1427 20.3895 12.154 20.4455C12.1653 20.5015 12.1709 20.5581 12.1709 20.6152C12.1709 20.6723 12.1653 20.7289 12.154 20.7849C12.1427 20.8409 12.126 20.8953 12.1039 20.9481C12.0818 21.0008 12.0547 21.051 12.0226 21.0985C11.9905 21.146 11.9541 21.19 11.9132 21.2304L9.70593 23.408C9.62378 23.4901 9.52874 23.5534 9.42083 23.5978C9.31292 23.6422 9.20052 23.6642 9.08361 23.664Z" fill="rgb(170,178,189)" fill-rule="nonzero" />
    <path id="path" d="M9.08185 23.824C8.80311 23.824 8.54219 23.7168 8.34447 23.5232C8.14676 23.3296 8.03979 23.0704 8.03979 22.7952C8.03979 22.52 8.14838 22.2624 8.34447 22.0672L10.5518 19.888C10.6492 19.791 10.7619 19.7164 10.8898 19.6643C11.0176 19.6121 11.1508 19.5864 11.2891 19.5872C11.5679 19.5872 11.8304 19.6944 12.0265 19.888C12.1247 19.9842 12.2003 20.0954 12.2531 20.2217C12.306 20.3479 12.332 20.4794 12.3312 20.616C12.3312 20.8912 12.2226 21.1488 12.0265 21.344L9.82085 23.5216C9.72309 23.6187 9.61015 23.6934 9.48203 23.7459C9.35392 23.7983 9.22053 23.8243 9.08185 23.824ZM11.2891 19.9056C11.0979 19.9056 10.9164 19.9792 10.7803 20.1136L8.57298 22.2928C8.43684 22.4272 8.3623 22.6048 8.3623 22.7952C8.3623 22.9856 8.43684 23.1632 8.57298 23.2976C8.70911 23.432 8.889 23.5056 9.08185 23.5056C9.27471 23.5056 9.45459 23.432 9.59073 23.2976L11.798 21.1184C11.9341 20.984 12.0087 20.8064 12.0087 20.6176C12.0087 20.4288 11.9341 20.2496 11.798 20.1152C11.731 20.0477 11.6534 19.9958 11.5651 19.9595C11.4768 19.9231 11.3848 19.9051 11.2891 19.9056Z" fill="rgb(65,61,44)" fill-rule="nonzero" />
    <path id="path" d="M11.4691 24.7936C11.2438 24.7936 11.0186 24.7088 10.8468 24.5392C10.8059 24.4988 10.7695 24.4548 10.7374 24.4073C10.7053 24.3598 10.6782 24.3097 10.6561 24.2569C10.634 24.2041 10.6173 24.1497 10.606 24.0937C10.5947 24.0377 10.5891 23.9811 10.5891 23.924C10.5891 23.8669 10.5947 23.8104 10.606 23.7544C10.6173 23.6983 10.634 23.6439 10.6561 23.5912C10.6782 23.5384 10.7053 23.4883 10.7374 23.4407C10.7695 23.3932 10.8059 23.3493 10.8468 23.3088L11.8127 22.3552C11.8536 22.3149 11.8982 22.2789 11.9463 22.2472C11.9944 22.2155 12.0452 22.1888 12.0987 22.1669C12.1521 22.1451 12.2072 22.1286 12.2639 22.1175C12.3207 22.1064 12.378 22.1008 12.4358 22.1008C12.4937 22.1008 12.5509 22.1064 12.6077 22.1175C12.6644 22.1286 12.7195 22.1451 12.773 22.1669C12.8264 22.1888 12.8772 22.2155 12.9253 22.2472C12.9735 22.2789 13.018 22.3149 13.0589 22.3552C13.0998 22.3957 13.1363 22.4396 13.1684 22.4871C13.2005 22.5347 13.2276 22.5848 13.2497 22.6376C13.2718 22.6903 13.2885 22.7447 13.2997 22.8008C13.311 22.8568 13.3166 22.9133 13.3166 22.9704C13.3166 23.0275 13.311 23.0841 13.2997 23.1401C13.2885 23.1961 13.2718 23.2505 13.2497 23.3033C13.2276 23.3561 13.2005 23.4062 13.1684 23.4537C13.1363 23.5012 13.0998 23.5452 13.0589 23.5856L12.0931 24.5392C12.0102 24.6207 11.9148 24.6835 11.8067 24.7275C11.6986 24.7716 11.5861 24.7936 11.4691 24.7936Z" fill="rgb(170,178,189)" fill-rule="nonzero" />
    <path id="path" d="M11.4691 24.9536C11.1903 24.9536 10.9294 24.8464 10.7317 24.6528C10.534 24.4592 10.427 24.2 10.427 23.9248C10.427 23.6496 10.5356 23.392 10.7317 23.1968L11.6976 22.2432C11.746 22.1955 11.7987 22.1528 11.8556 22.1153C11.9126 22.0778 11.9727 22.0461 12.0359 22.0203C12.0992 21.9944 12.1644 21.9749 12.2315 21.9618C12.2987 21.9486 12.3665 21.942 12.4349 21.942C12.5034 21.942 12.5712 21.9486 12.6383 21.9618C12.7055 21.9749 12.7707 21.9944 12.8339 22.0203C12.8972 22.0461 12.9573 22.0778 13.0142 22.1153C13.0712 22.1528 13.1239 22.1955 13.1723 22.2432C13.3684 22.4368 13.477 22.696 13.477 22.9712C13.477 23.2464 13.3684 23.504 13.1723 23.6992L12.2064 24.6528C12.1087 24.7494 11.9959 24.8237 11.8681 24.8758C11.7404 24.9279 11.6073 24.9539 11.4691 24.9536ZM12.4349 22.2624C12.2502 22.2624 12.0671 22.3312 11.9261 22.4704L10.9602 23.424C10.8241 23.5584 10.7495 23.736 10.7495 23.9264C10.7495 24.1168 10.8241 24.2944 10.9602 24.4288C11.0963 24.5632 11.2762 24.6368 11.4691 24.6368C11.6603 24.6368 11.8418 24.5632 11.9779 24.4288L12.9438 23.4752C13.08 23.3408 13.1545 23.1632 13.1545 22.9728C13.1545 22.7824 13.08 22.6048 12.9438 22.4704C12.8764 22.4037 12.7986 22.3524 12.7104 22.3163C12.6222 22.2803 12.5304 22.2623 12.4349 22.2624Z" fill="rgb(65,61,44)" fill-rule="nonzero" />
    <path id="path" d="M7.93786 21.3072C7.71259 21.3072 7.48733 21.2224 7.31554 21.0528C7.27469 21.0124 7.23821 20.9684 7.20612 20.9209C7.17403 20.8734 7.14693 20.8232 7.12482 20.7704C7.10272 20.7177 7.08603 20.6633 7.07476 20.6073C7.0635 20.5513 7.05786 20.4947 7.05786 20.4376C7.05786 20.3805 7.0635 20.3239 7.07476 20.2679C7.08603 20.2119 7.10272 20.1575 7.12482 20.1047C7.14693 20.0519 7.17403 20.0018 7.20612 19.9543C7.23821 19.9068 7.27469 19.8628 7.31554 19.8224L8.28143 18.8688C8.32238 18.8285 8.36692 18.7924 8.41504 18.7608C8.46317 18.7291 8.51395 18.7023 8.56741 18.6805C8.62086 18.6587 8.67595 18.6422 8.73269 18.6311C8.78943 18.6199 8.84672 18.6144 8.90456 18.6144C8.9624 18.6144 9.01969 18.6199 9.07643 18.6311C9.13317 18.6422 9.18826 18.6587 9.24171 18.6805C9.29517 18.7023 9.34595 18.7291 9.39408 18.7608C9.4422 18.7924 9.48674 18.8285 9.52769 18.8688C9.56854 18.9092 9.60502 18.9532 9.63711 19.0007C9.6692 19.0482 9.6963 19.0983 9.71841 19.1511C9.74051 19.2039 9.7572 19.2583 9.76847 19.3143C9.77974 19.3703 9.78537 19.4269 9.78537 19.484C9.78537 19.5411 9.77974 19.5977 9.76847 19.6537C9.7572 19.7097 9.74051 19.7641 9.71841 19.8168C9.6963 19.8696 9.6692 19.9198 9.63711 19.9673C9.60502 20.0148 9.56854 20.0588 9.52769 20.0992L8.5618 21.0528C8.479 21.1342 8.38355 21.197 8.27547 21.2411C8.16738 21.2852 8.05485 21.3072 7.93786 21.3072Z" fill="rgb(170,178,189)" fill-rule="nonzero" />
    <path id="path" d="M7.93783 21.4672C7.65908 21.4672 7.39816 21.36 7.20045 21.1648C7.10221 21.0686 7.02668 20.9573 6.97384 20.8311C6.921 20.7048 6.89498 20.5734 6.89577 20.4368C6.89577 20.1616 7.00435 19.904 7.20045 19.7088L8.16633 18.7552C8.2637 18.658 8.37632 18.5831 8.5042 18.5307C8.63207 18.4783 8.76525 18.4523 8.90372 18.4528C9.18246 18.4528 9.445 18.56 9.6411 18.7552C9.73933 18.8514 9.81486 18.9626 9.8677 19.0889C9.92054 19.2151 9.94656 19.3466 9.94577 19.4832C9.94577 19.7584 9.83719 20.016 9.6411 20.2112L8.67521 21.1648C8.57775 21.2618 8.4651 21.3366 8.33726 21.389C8.20941 21.4415 8.07627 21.4675 7.93783 21.4672ZM8.90372 18.7744C8.71248 18.7744 8.53097 18.848 8.39484 18.9824L7.42895 19.936C7.29282 20.0704 7.21827 20.248 7.21827 20.4368C7.21827 20.6256 7.29282 20.8048 7.42895 20.9392C7.56508 21.0736 7.74497 21.1472 7.93783 21.1472C8.12906 21.1472 8.31057 21.0736 8.4467 20.9392L9.41259 19.9856C9.54872 19.8512 9.62327 19.6736 9.62327 19.4832C9.62327 19.2944 9.54872 19.1152 9.41259 18.9824C9.27484 18.8496 9.09495 18.7744 8.90372 18.7744Z" fill="rgb(65,61,44)" fill-rule="nonzero" />
    <path id="path" d="M17.3032 12.7264C17.3032 12.8555 17.316 12.9834 17.3415 13.11C17.367 13.2367 17.4048 13.3596 17.4548 13.4789C17.5049 13.5982 17.5662 13.7115 17.6389 13.8189C17.7115 13.9262 17.7941 14.0256 17.8866 14.1169C17.9791 14.2082 18.0797 14.2897 18.1884 14.3614C18.2972 14.4331 18.4119 14.4937 18.5328 14.5431C18.6536 14.5925 18.7781 14.6298 18.9064 14.655C19.0347 14.6802 19.1642 14.6928 19.295 14.6928C19.4257 14.6928 19.5553 14.6802 19.6835 14.655C19.8118 14.6298 19.9363 14.5925 20.0572 14.5431C20.178 14.4937 20.2928 14.4331 20.4015 14.3614C20.5103 14.2897 20.6109 14.2082 20.7033 14.1169C20.7958 14.0256 20.8784 13.9262 20.951 13.8189C21.0237 13.7115 21.085 13.5982 21.1351 13.4789C21.1851 13.3596 21.2229 13.2367 21.2484 13.11C21.2739 12.9834 21.2867 12.8555 21.2867 12.7264C21.2867 12.5973 21.2739 12.4694 21.2484 12.3428C21.2229 12.2161 21.1851 12.0932 21.1351 11.9739C21.085 11.8546 21.0237 11.7413 20.951 11.6339C20.8784 11.5266 20.7958 11.4273 20.7033 11.336C20.6109 11.2447 20.5103 11.1631 20.4015 11.0914C20.2928 11.0197 20.178 10.9591 20.0572 10.9097C19.9363 10.8603 19.8118 10.823 19.6835 10.7978C19.5553 10.7726 19.4257 10.76 19.295 10.76C19.1642 10.76 19.0347 10.7726 18.9064 10.7978C18.7781 10.823 18.6536 10.8603 18.5328 10.9097C18.4119 10.9591 18.2972 11.0197 18.1884 11.0914C18.0797 11.1631 17.9791 11.2447 17.8866 11.336C17.7941 11.4273 17.7115 11.5266 17.6389 11.6339C17.5662 11.7413 17.5049 11.8546 17.4548 11.9739C17.4048 12.0932 17.367 12.2161 17.3415 12.3428C17.316 12.4694 17.3032 12.5973 17.3032 12.7264Z" fill="rgb(170,178,189)" fill-rule="nonzero" />
    <path id="path" d="M19.2952 14.8512C18.7442 14.8512 18.1931 14.6448 17.7734 14.2304C16.9339 13.4016 16.9339 12.0528 17.7734 11.224C18.6129 10.3952 19.9791 10.3952 20.8186 11.224C21.658 12.0528 21.658 13.4016 20.8186 14.2304C20.3988 14.6432 19.8462 14.8512 19.2952 14.8512ZM19.2952 10.9216C18.8268 10.9216 18.3584 11.0976 18.0019 11.4496C17.2888 12.1536 17.2888 13.2992 18.0019 14.0032C18.3471 14.344 18.8074 14.5328 19.2952 14.5328C19.783 14.5328 20.2432 14.3456 20.5884 14.0032C20.9336 13.6608 21.1248 13.208 21.1248 12.7264C21.1248 12.2448 20.9352 11.7904 20.5884 11.4496C20.2319 11.0976 19.7635 10.9216 19.2952 10.9216Z" fill="rgb(65,61,44)" fill-rule="nonzero" />
    <path id="path" d="M16.3569 20.8096L15.3959 20.976C14.921 17.7232 12.4982 16.7744 10.9521 16.5024L11.1239 15.5344C12.5549 15.6384 16.1219 16.3472 16.3569 20.8096Z" fill="rgb(170,178,189)" fill-rule="nonzero" />
    <path id="path" d="M15.2598 21.1615L15.2354 20.9983C14.7687 17.8015 12.3329 16.9071 10.923 16.6591L10.7642 16.6319L10.9894 15.3647L11.1353 15.3759C12.6732 15.4879 16.2775 16.2399 16.519 20.8031L16.5271 20.9439L15.2598 21.1615ZM11.1401 16.3743C12.6279 16.6703 14.9972 17.6399 15.532 20.7903L16.1884 20.6768C15.9048 16.6304 12.7656 15.8479 11.2601 15.7056L11.1401 16.3743Z" fill="rgb(65,61,44)" fill-rule="nonzero" />
</svg>
